<svg width="300" height="300" viewBox="0 0 300 300" fill="none" xmlns="http://www.w3.org/2000/svg">
<path d="M108.6 230.76C91.5 222.36 75.9 214.92 57.24 208.98C66.9 202.56 67.44 186.12 69.06 174.66C74.28 137.76 110.88 114.24 139.32 94.8C141.72 93.12 144.18 91.56 146.76 90.12C149.76 88.5 158.16 83.46 160.38 88.14C162.48 92.58 157.26 100.74 154.62 103.98C156.36 101.4 158.28 98.94 160.38 96.66C161.1 95.88 161.88 95.04 162.96 94.8C164.88 94.38 166.68 96.18 166.98 98.1C167.28 100.02 166.44 101.94 165.6 103.68C163.5 107.88 160.8 111.78 157.74 115.32C159.84 112.98 167.58 104.1 167.4 113.04C167.28 118.68 164.88 124.08 160.86 127.98C162.66 126.42 164.58 124.98 166.62 123.78C167.22 123.3 167.94 123.12 168.66 123.24C169.44 123.48 169.86 124.38 170.04 125.22C171.3 130.98 168.12 135.06 165.96 139.98C164.28 143.82 163.26 147.42 161.1 151.14C153.24 164.52 144.9 177.6 135.9 190.26C133.5 193.5 108.72 230.82 108.6 230.76Z" fill="#F6F6F6"/>
<path d="M108.66 231.24C108.6 231.24 108.48 231.18 108.42 231.18C90.48 222.42 75.3 215.22 57.12 209.4L56.22 209.1L57 208.56C65.16 203.16 66.72 190.08 67.98 179.64C68.22 177.84 68.4 176.16 68.64 174.54C73.68 138.9 108.12 115.44 135.78 96.66L139.08 94.38C141.48 92.7 144 91.14 146.58 89.7L147.24 89.34C150.06 87.78 155.34 84.9 158.64 85.98C159.6 86.28 160.38 87 160.8 87.9C161.94 90.36 161.1 93.66 159.72 96.66L160.02 96.3C160.8 95.46 161.64 94.56 162.78 94.32C163.68 94.14 164.64 94.32 165.42 94.86C166.44 95.58 167.16 96.72 167.4 97.98C167.7 100.02 166.86 102 165.96 103.86C164.88 106.02 163.62 108.12 162.3 110.1C163.8 108.96 165.18 108.36 166.2 108.78C167.22 109.2 167.82 110.64 167.76 113.04C167.64 117.3 166.32 121.38 163.92 124.92C164.64 124.38 165.42 123.9 166.2 123.42C166.98 122.94 167.76 122.58 168.6 122.82C169.44 123.06 169.98 123.84 170.28 125.16C171.36 129.9 169.5 133.44 167.58 137.22C167.1 138.18 166.56 139.2 166.14 140.22C165.54 141.54 165 142.86 164.52 144.18C163.62 146.64 162.54 149.1 161.22 151.38C152.7 165.9 144.42 178.68 136.02 190.56C134.88 192.12 128.4 201.9 122.04 211.38C118.74 216.36 115.44 221.28 112.98 224.94L109.98 229.38C109.08 230.94 108.84 231.24 108.66 231.24ZM58.2 208.8C75.96 214.56 90.9 221.58 108.48 230.16C109.68 228.48 115.62 219.54 121.44 210.84C127.74 201.36 134.28 191.58 135.42 190.02C143.82 178.2 152.04 165.42 160.56 150.96C161.82 148.68 162.9 146.34 163.8 143.88C164.28 142.56 164.82 141.24 165.42 139.86C165.9 138.84 166.38 137.82 166.92 136.8C168.78 133.14 170.52 129.72 169.5 125.34C169.38 124.68 169.02 123.9 168.42 123.66C167.82 123.6 167.22 123.78 166.74 124.14C164.7 125.34 162.84 126.72 161.04 128.28L160.44 127.62C164.46 123.78 166.74 118.5 166.86 112.98C166.92 111 166.56 109.86 165.84 109.56C164.58 109.08 161.94 111.06 158.04 115.44L157.98 115.5V115.56L157.32 114.96V114.9C160.38 111.42 163.02 107.58 165.12 103.44C165.96 101.7 166.74 99.9 166.5 98.1C166.32 97.08 165.78 96.18 164.94 95.58C164.4 95.16 163.68 95.04 163.02 95.16C162.12 95.34 161.4 96.12 160.68 96.84C159.48 98.16 158.28 99.5999 157.2 101.04C156.06 102.84 155.1 104.04 154.98 104.16L154.26 103.62C155.04 102.48 155.82 101.4 156.66 100.38C159.12 96.54 161.52 91.38 160.02 88.26C159.72 87.54 159.12 87 158.34 86.76C155.46 85.8 150.18 88.68 147.66 90.06L147 90.42C144.48 91.86 141.96 93.42 139.62 95.1L136.26 97.38C108.72 116.1 74.52 139.38 69.54 174.66C69.3 176.28 69.12 177.96 68.88 179.7C67.62 190.14 66.06 202.92 58.2 208.8Z" fill="black"/>
<path d="M29.52 232.5L58.26 197.64L117.54 223.8L100.08 262.32L29.52 232.5Z" fill="black"/>
<path d="M103.92 236.64C103.86 236.64 103.8 236.64 103.74 236.58L53.58 213.12C53.34 213 53.28 212.76 53.34 212.52C53.46 212.28 53.7 212.22 53.94 212.28L104.1 235.68C104.34 235.8 104.4 236.04 104.34 236.28C104.22 236.58 104.1 236.64 103.92 236.64Z" fill="#F6F6F6"/>
<path d="M239.4 52.2H181.26V95.1H239.4V52.2Z" fill="#F6F6F6"/>
<path d="M239.88 95.52H180.84V51.72H239.88V95.52ZM181.74 94.68H238.98V52.68H181.74V94.68Z" fill="black"/>
<path d="M230.28 65.82C230.1 66.12 229.92 66.36 229.74 66.6C223.08 73.26 216.36 79.98 209.64 86.64C208.98 87.3 208.44 87.3 207.72 86.64C203.94 82.74 200.16 78.9 196.44 75C195.96 74.64 195.84 73.92 196.26 73.44C196.32 73.32 196.44 73.26 196.56 73.2L199.38 70.68C199.74 70.2 200.46 70.14 200.88 70.56C200.94 70.62 201 70.68 201.06 70.74L207.72 77.52C208.44 78.24 208.92 78.24 209.64 77.52L225.24 61.98C225.9 61.32 226.44 61.32 227.1 61.98C228 62.88 228.84 63.72 229.74 64.62C229.92 64.86 230.1 65.1 230.28 65.34V65.82Z" fill="#255DF9"/>
<path d="M180.72 119.1C180.48 119.1 180.24 118.92 180.24 118.62C180.24 118.32 180.42 118.14 180.72 118.14C185.82 117.66 189.78 115.62 192.6 112.02C199.02 103.8 197.04 90.5999 196.98 89.9999C196.92 89.7599 197.1 89.5199 197.34 89.5199C197.58 89.4599 197.82 89.6399 197.88 89.8799C197.94 90.4799 199.98 104.04 193.32 112.56C190.38 116.34 186.18 118.5 180.84 119.04L180.72 119.1Z" fill="black"/>
<path d="M71.3401 46.2L139.74 29.34C141.36 28.92 143.04 29.94 143.46 31.56L178.5 173.82C178.92 175.44 177.9 177.12 176.28 177.54L107.88 194.4C106.26 194.82 104.58 193.8 104.16 192.18L69.1201 49.86C68.7001 48.24 69.7201 46.56 71.3401 46.2Z" fill="#F6F6F6"/>
<path d="M107.1 194.94C105.48 194.94 104.1 193.86 103.68 192.3L68.7 49.9801C68.22 48.1201 69.36 46.2001 71.28 45.7201L139.68 28.8601C141.54 28.3801 143.46 29.5201 143.94 31.4401L178.98 173.7C179.22 174.6 179.04 175.56 178.56 176.34C178.08 177.12 177.3 177.72 176.4 177.9L108 194.76C107.64 194.88 107.4 194.94 107.1 194.94ZM140.52 29.7001C140.34 29.7001 140.1 29.7001 139.92 29.7601L71.52 46.6201C70.14 46.9801 69.24 48.3601 69.6 49.7401L104.58 192C104.94 193.38 106.32 194.22 107.76 193.92L176.16 177.06C177.54 176.7 178.44 175.32 178.08 173.94L143.04 31.6801C142.74 30.5401 141.72 29.7001 140.52 29.7001Z" fill="black"/>
<path d="M142.101 42.9652L75.5684 59.3414L103.646 173.415L170.179 157.038L142.101 42.9652Z" fill="#255DF9"/>
<path d="M120.48 99.3001H120.36L119.94 99.1801C112.08 97.7401 105.6 94.3201 100.68 89.1001C98.2201 86.5201 96.2401 83.5201 94.8001 80.2201C94.0201 78.4801 93.4201 76.6201 93.0001 74.7001L92.9401 74.6401V74.4001C92.9401 74.2201 93.1201 74.0401 93.3001 73.9801C93.7801 73.8001 94.2001 73.5601 94.6801 73.3201C97.0201 72.0001 98.5801 70.3201 99.3001 68.1601C99.9001 66.4801 99.9001 64.6801 99.3601 63.0001L99.2401 62.5801L99.6001 62.4001L102.42 61.2001C103.62 60.6601 104.82 60.1801 105.96 59.6401C108.42 58.5601 111 57.8401 113.64 57.5401C115.56 57.3601 117.54 57.1801 119.34 57.0601H119.46C120.42 57.0001 121.38 56.9401 122.4 56.8201H122.76L122.94 57.5401C123.06 58.0201 123.24 58.5601 123.42 58.9801C124.32 61.0201 126 62.6401 128.1 63.4201C129.72 64.0201 131.46 64.2601 133.2 64.1401H133.26C133.38 64.1401 133.56 64.1401 133.68 64.2001L134.04 64.3801L133.98 64.5601C133.98 64.6201 133.98 64.6801 134.04 64.6801C134.88 67.7401 135.18 70.8601 135 74.0401C134.52 82.6201 130.92 90.1201 124.26 96.4201C123.54 97.0801 122.82 97.7401 122.1 98.3401L121.38 98.9401L121.08 99.1801L120.48 99.3001ZM93.8401 74.7001C94.2601 76.5001 94.8001 78.2401 95.5801 79.9201C97.0201 83.1001 98.9401 85.9801 101.34 88.5001C106.14 93.6001 112.5 96.9001 120.12 98.3401C120.24 98.3401 120.36 98.4001 120.48 98.4001L120.66 98.2801L121.38 97.6801C122.1 97.0801 122.82 96.4801 123.54 95.8201C130.02 89.7001 133.5 82.3801 133.98 74.0401C134.16 71.0401 133.86 67.9801 133.08 65.1001C132.72 65.1001 132.42 65.1001 132.12 65.1001C130.62 65.1001 129.12 64.8601 127.68 64.3201C125.4 63.4201 123.54 61.6801 122.52 59.4001C122.28 58.8601 122.1 58.3801 121.98 57.7801C121.14 57.8401 120.3 57.9001 119.46 57.9601H119.4C117.6 58.0801 115.62 58.2601 113.76 58.4401C111.18 58.7401 108.72 59.4601 106.32 60.4801C105.12 60.9601 103.98 61.5001 102.84 61.9801L100.32 63.0601C100.8 64.8001 100.74 66.6601 100.08 68.4001C99.2401 70.8001 97.6201 72.6001 95.0401 74.0401C94.6201 74.2801 94.2001 74.5201 93.8401 74.7001Z" fill="#F6F6F6"/>
<path d="M130.86 172.56L145.68 168.9C146.7 168.66 147.72 169.26 147.96 170.28L149.7 177.3C149.94 178.32 149.34 179.34 148.32 179.58L133.5 183.24C132.48 183.48 131.46 182.88 131.22 181.86L129.48 174.84C129.24 173.88 129.9 172.86 130.86 172.56Z" fill="#F6F6F6"/>
<path d="M133.08 183.78C132 183.78 131.04 183.06 130.8 181.98L129.06 174.96C128.76 173.7 129.54 172.44 130.74 172.14L145.56 168.48C146.82 168.18 148.08 168.96 148.38 170.16L150.12 177.18C150.42 178.44 149.7 179.7 148.44 180L133.62 183.66C133.44 183.72 133.26 183.78 133.08 183.78ZM146.16 169.32C146.04 169.32 145.92 169.32 145.8 169.38L130.98 173.04C130.62 173.1 130.32 173.34 130.08 173.7C129.9 174 129.84 174.42 129.9 174.78L131.64 181.8C131.82 182.58 132.6 183.06 133.38 182.88L148.2 179.22C148.98 179.04 149.46 178.26 149.28 177.48L147.54 170.46C147.42 169.8 146.82 169.32 146.16 169.32Z" fill="#737373"/>
<path d="M108.24 142.86L152.4 132C154.56 131.46 156.78 132.78 157.32 135L159.18 142.56C159.72 144.72 158.4 146.94 156.18 147.48L112.02 158.34C109.86 158.88 107.64 157.56 107.1 155.34L105.24 147.78C104.7 145.62 106.02 143.4 108.24 142.86Z" fill="#F6F6F6"/>
<path d="M148.49 99.2657L96.4052 112.086L98.7139 121.466L150.798 108.646L148.49 99.2657Z" fill="#F6F6F6"/>
<path d="M103.56 117.24C104.455 117.24 105.18 116.515 105.18 115.62C105.18 114.725 104.455 114 103.56 114C102.665 114 101.94 114.725 101.94 115.62C101.94 116.515 102.665 117.24 103.56 117.24Z" fill="#255DF9"/>
<path d="M109.44 115.74C110.335 115.74 111.06 115.015 111.06 114.12C111.06 113.225 110.335 112.5 109.44 112.5C108.545 112.5 107.82 113.225 107.82 114.12C107.82 115.015 108.545 115.74 109.44 115.74Z" fill="#255DF9"/>
<path d="M115.44 114.3C116.335 114.3 117.06 113.575 117.06 112.68C117.06 111.785 116.335 111.06 115.44 111.06C114.545 111.06 113.82 111.785 113.82 112.68C113.82 113.575 114.545 114.3 115.44 114.3Z" fill="#255DF9"/>
<path d="M121.32 112.86C122.215 112.86 122.94 112.135 122.94 111.24C122.94 110.345 122.215 109.62 121.32 109.62C120.425 109.62 119.7 110.345 119.7 111.24C119.7 112.135 120.425 112.86 121.32 112.86Z" fill="#255DF9"/>
<path d="M152.207 114.514L100.123 127.334L102.432 136.714L154.516 123.894L152.207 114.514Z" fill="#F6F6F6"/>
<path d="M107.28 132.48C108.175 132.48 108.9 131.755 108.9 130.86C108.9 129.965 108.175 129.24 107.28 129.24C106.385 129.24 105.66 129.965 105.66 130.86C105.66 131.755 106.385 132.48 107.28 132.48Z" fill="#255DF9"/>
<path d="M113.22 131.04C114.115 131.04 114.84 130.315 114.84 129.42C114.84 128.525 114.115 127.8 113.22 127.8C112.325 127.8 111.6 128.525 111.6 129.42C111.6 130.315 112.325 131.04 113.22 131.04Z" fill="#255DF9"/>
<path d="M119.16 129.54C120.055 129.54 120.78 128.815 120.78 127.92C120.78 127.025 120.055 126.3 119.16 126.3C118.265 126.3 117.54 127.025 117.54 127.92C117.54 128.815 118.265 129.54 119.16 129.54Z" fill="#255DF9"/>
<path d="M125.1 128.1C125.995 128.1 126.72 127.375 126.72 126.48C126.72 125.585 125.995 124.86 125.1 124.86C124.205 124.86 123.48 125.585 123.48 126.48C123.48 127.375 124.205 128.1 125.1 128.1Z" fill="#255DF9"/>
<path d="M125.926 70.5732L102.738 76.2805L106.38 91.0786L129.568 85.3712L125.926 70.5732Z" fill="#F6F6F6"/>
<path d="M108.12 75.4201C107.94 75.4201 107.76 75.3001 107.7 75.0601L106.86 71.6401C105.96 67.9801 108.18 64.2601 111.84 63.3601C115.5 62.4601 119.22 64.6801 120.12 68.3401L120.96 71.7601C121.02 72.0001 120.9 72.2401 120.6 72.3001C120.3 72.3601 120.12 72.2401 120.06 71.9401L119.22 68.5201C118.44 65.3401 115.2 63.3601 112.02 64.2001C108.84 64.9801 106.86 68.1601 107.64 71.3401C107.64 71.3401 107.64 71.3401 107.64 71.4001L108.48 74.8201C108.54 75.0601 108.42 75.3001 108.18 75.3601L108.12 75.4201Z" fill="#F6F6F6"/>
<path d="M115.62 80.8801C116.912 80.8801 117.96 79.8324 117.96 78.5401C117.96 77.2477 116.912 76.2001 115.62 76.2001C114.328 76.2001 113.28 77.2477 113.28 78.5401C113.28 79.8324 114.328 80.8801 115.62 80.8801Z" fill="#255DF9"/>
<path d="M117 84.5401C116.82 84.5401 116.64 84.4201 116.58 84.1801L115.32 79.0201C115.26 78.7801 115.38 78.5401 115.68 78.4801C115.98 78.4201 116.16 78.5401 116.22 78.8401L117.48 84.0001C117.54 84.2401 117.42 84.4801 117.12 84.5401H117Z" fill="#255DF9"/>
<path d="M94.4401 47.76C94.2001 47.76 93.9601 47.58 93.9601 47.34C93.9601 47.1 94.0801 46.92 94.3201 46.92L114.18 42.06C114.42 42 114.66 42.12 114.72 42.42C114.78 42.66 114.66 42.9 114.36 42.96L94.5001 47.88C94.5001 47.76 94.5001 47.76 94.4401 47.76Z" fill="#737373"/>
<path d="M116.04 42.42C115.8 42.42 115.56 42.24 115.56 42C115.56 41.76 115.68 41.58 115.92 41.58L119.4 40.74C119.64 40.68 119.88 40.8 120 41.04C120.06 41.28 119.94 41.52 119.7 41.64H119.64L116.16 42.48L116.04 42.42Z" fill="#737373"/>
<path d="M66.72 190.62C66.72 190.62 74.22 127.98 81.6 121.14C90.3 112.98 98.28 107.46 99.72 112.14C101.16 116.82 102.54 124.56 90.6 133.26L92.34 148.8C92.34 148.8 104.1 156.9 97.98 182.46" fill="#F6F6F6"/>
<path d="M66.72 191.1C66.42 191.1 66.24 190.86 66.24 190.62C66.54 188.04 73.86 127.74 81.18 120.9C89.64 113.04 95.34 109.44 98.22 110.16C99.12 110.4 99.84 111.12 100.08 112.08C101.16 115.08 101.28 118.32 100.56 121.38C99.42 125.64 96.24 129.72 91.02 133.56L92.7 148.62C94.2 149.76 104.1 158.46 98.34 182.64C98.28 182.88 98.04 183.06 97.8 183C97.56 182.94 97.38 182.7 97.44 182.46C100.56 169.38 98.88 161.1 96.96 156.36C94.86 151.32 92.04 149.28 91.98 149.22L91.8 149.1V148.92L90 133.14L90.24 132.96C101.34 124.86 100.86 117.66 99.18 112.32C99.06 111.72 98.58 111.18 97.98 111C95.52 110.34 89.76 114.06 81.84 121.5C74.7 128.16 67.26 190.08 67.14 190.68C67.2 190.92 66.96 191.1 66.72 191.1Z" fill="black"/>
<path d="M250.14 220.2C250.14 220.2 227.82 176.28 211.02 156.48C208.74 153.78 205.8 153.3 203.76 154.74C201.3 156.42 201.24 161.94 201.24 161.94C201.24 161.94 194.88 158.22 191.82 159C188.76 159.78 188.4 164.64 188.4 164.64C188.4 164.64 181.56 162.42 178.8 164.82C176.04 167.22 175.8 171.6 175.8 171.6C175.8 171.6 139.92 142.74 135.96 140.28C132 137.82 124.92 142.2 128.4 147.3C130.56 150.48 148.74 168.54 154.56 174.3C160.38 180.06 174.06 195.6 175.62 200.22C177.18 204.84 178.44 210.06 169.14 210.66C159.84 211.26 151.5 212.94 147.42 216.42C143.34 219.9 140.64 225.12 142.68 226.14C144.72 227.16 177.66 223.38 190.14 228.48C202.62 233.58 218.94 252.24 218.94 252.24L250.14 220.2Z" fill="#F6F6F6"/>
<path d="M218.94 252.9L218.64 252.54C218.46 252.36 202.26 233.94 190.02 228.9C181.44 225.42 162.96 226.14 151.86 226.56C145.86 226.8 143.22 226.86 142.5 226.56C141.96 226.26 141.6 225.78 141.54 225.12C141.3 222.96 143.76 218.88 147.12 216.06C150.84 212.94 158.22 210.96 169.08 210.24C172.44 210 174.54 209.16 175.56 207.72C176.82 205.86 176.04 203.04 175.2 200.4C173.7 195.96 160.38 180.66 154.26 174.66C148.02 168.54 130.2 150.78 128.04 147.6C126.54 145.44 126.72 143.1 128.4 141.3C130.08 139.5 133.68 138.42 136.2 139.98C139.86 142.26 170.4 166.74 175.44 170.76C175.62 169.32 176.22 166.32 178.44 164.46C180.96 162.3 186.3 163.56 187.98 164.04C188.16 162.66 188.94 159.24 191.64 158.58C194.34 157.92 199.08 160.26 200.76 161.22C200.88 159.6 201.36 155.82 203.46 154.38C205.86 152.76 209.04 153.48 211.32 156.24C228 175.86 250.26 219.6 250.5 220.02L250.62 220.32L250.38 220.56L218.94 252.9ZM166.74 225.3C175.68 225.3 184.92 225.84 190.38 228.06C201.84 232.74 216.66 248.94 219 251.58L249.54 220.14C247.56 216.3 226.5 175.5 210.6 156.84C208.62 154.5 205.92 153.84 203.88 155.16C201.66 156.66 201.54 161.88 201.54 161.94V162.72L200.88 162.36C200.82 162.3 194.64 158.76 191.76 159.48C189.06 160.14 188.7 164.64 188.7 164.7L188.64 165.3L188.1 165.12C188.04 165.12 181.5 162.96 178.92 165.24C176.34 167.52 176.22 171.72 176.22 171.72V172.62L175.5 172.02C175.14 171.72 139.56 143.16 135.66 140.76C133.5 139.44 130.5 140.34 129 141.96C127.56 143.46 127.5 145.32 128.7 147.12C130.86 150.24 148.86 168.18 154.8 174.06C160.26 179.46 174.36 195.24 175.98 200.16C176.94 203.04 177.78 206.04 176.28 208.26C175.14 210 172.8 210.96 169.08 211.2C158.4 211.92 151.2 213.84 147.66 216.84C144.3 219.66 142.2 223.44 142.38 225.06C142.38 225.36 142.56 225.66 142.8 225.78C143.34 226.02 147.42 225.9 151.74 225.72C156.06 225.48 161.34 225.24 166.74 225.3Z" fill="black"/>
<path d="M246.9 207.48L201.54 244.5L224.04 277.74L276.36 234.3L246.9 207.48Z" fill="black"/>
<path d="M210.66 250.8C210.42 250.8 210.24 250.62 210.24 250.32C210.24 250.2 210.3 250.08 210.42 249.96L250.2 219.48C250.38 219.3 250.68 219.36 250.86 219.54C251.04 219.72 250.98 220.02 250.8 220.2L211.02 250.62C210.9 250.74 210.78 250.8 210.66 250.8Z" fill="#F6F6F6"/>
</svg>
