<svg width="300" height="300" viewBox="0 0 300 300" fill="none" xmlns="http://www.w3.org/2000/svg">
<g clip-path="url(#clip0_5217_660)">

<path d="M62.1374 223.539H22.3079V243.496H62.1374V223.539Z" fill="white"/>
<path d="M62.1373 243.978H22.3079C22.1827 243.978 22.0626 243.928 21.9741 243.839C21.8856 243.751 21.8358 243.631 21.8358 243.506V223.539C21.8358 223.414 21.8856 223.294 21.9741 223.205C22.0626 223.117 22.1827 223.067 22.3079 223.067H62.1373C62.2625 223.067 62.3826 223.117 62.4711 223.205C62.5596 223.294 62.6093 223.414 62.6093 223.539V243.506C62.6093 243.631 62.5596 243.751 62.4711 243.839C62.3826 243.928 62.2625 243.978 62.1373 243.978ZM22.7799 243.034H61.6653V224.011H22.7799V243.034Z" fill="#2B2B2B"/>
<path d="M116.024 192.518H76.1942V243.496H116.024V192.518Z" fill="white"/>
<path d="M116.014 243.978H76.1942C76.0698 243.975 75.9511 243.925 75.8631 243.837C75.7751 243.749 75.7246 243.63 75.7222 243.506V192.527C75.7246 192.403 75.7751 192.284 75.8631 192.196C75.9511 192.108 76.0698 192.057 76.1942 192.055H116.014C116.139 192.055 116.259 192.105 116.348 192.193C116.436 192.282 116.486 192.402 116.486 192.527V243.506C116.486 243.631 116.436 243.751 116.348 243.839C116.259 243.928 116.139 243.978 116.014 243.978ZM76.6568 243.034H115.542V192.952H76.6662L76.6568 243.034Z" fill="#2B2B2B"/>
<path d="M169.91 141.539H130.081V243.506H169.91V141.539Z" fill="white"/>
<path d="M169.919 243.978H130.081C129.956 243.975 129.838 243.925 129.75 243.837C129.662 243.749 129.611 243.63 129.609 243.506V141.548C129.609 141.423 129.658 141.303 129.747 141.215C129.835 141.126 129.955 141.076 130.081 141.076H169.919C170.045 141.076 170.165 141.126 170.253 141.215C170.342 141.303 170.392 141.423 170.392 141.548V243.506C170.389 243.63 170.339 243.749 170.251 243.837C170.163 243.925 170.044 243.975 169.919 243.978ZM130.553 243.034H169.447V141.973H130.553V243.034Z" fill="#2B2B2B"/>
<path d="M223.806 103.758H183.976V243.506H223.806V103.758Z" fill="white"/>
<path d="M223.806 243.978H183.986C183.861 243.978 183.741 243.928 183.652 243.84C183.564 243.751 183.514 243.631 183.514 243.506V103.786C183.514 103.661 183.564 103.541 183.652 103.453C183.741 103.364 183.861 103.314 183.986 103.314H223.815C223.94 103.314 224.061 103.364 224.149 103.453C224.238 103.541 224.287 103.661 224.287 103.786V243.506C224.285 243.632 224.233 243.752 224.143 243.84C224.053 243.928 223.932 243.978 223.806 243.978ZM184.448 243.034H223.334V104.211H184.448V243.034Z" fill="#2B2B2B"/>
<path d="M277.692 180.141H237.863V243.496H277.692V180.141Z" fill="white"/>
<path d="M277.692 243.978H237.863C237.737 243.978 237.617 243.928 237.529 243.839C237.44 243.751 237.391 243.631 237.391 243.506V180.141C237.391 180.016 237.44 179.896 237.529 179.807C237.617 179.719 237.737 179.669 237.863 179.669H277.692C277.817 179.669 277.937 179.719 278.026 179.807C278.114 179.896 278.164 180.016 278.164 180.141V243.506C278.164 243.631 278.114 243.751 278.026 243.839C277.937 243.928 277.817 243.978 277.692 243.978ZM238.335 243.034H277.22V180.613H238.335V243.034Z" fill="#2B2B2B"/>
<path d="M149.698 61.7289C150.76 60.5019 151.99 59.4309 153.351 58.5475C154.607 57.8015 156.052 57.4357 157.512 57.4944C158.971 57.553 160.382 58.0336 161.574 58.8779C161.903 58.5137 162.312 58.2312 162.769 58.0526C163.227 57.874 163.719 57.8042 164.208 57.8489C167.54 57.9905 169.929 60.8604 171.468 63.5132C173.431 66.9495 173.998 71.0656 175.886 74.5019C177.576 77.5795 182.192 79.7225 185.213 81.3274C187.463 82.3669 189.585 83.6625 191.538 85.1885C195.673 88.8042 197.042 95.0538 195.38 100.293C194.476 102.898 193.014 105.274 191.096 107.255C189.179 109.236 186.852 110.775 184.278 111.764C182.127 112.561 179.918 113.193 177.67 113.652C175.424 114.275 173.099 114.561 170.769 114.501C168.994 114.369 167.285 113.831 165.529 113.557C163.804 113.403 162.091 113.129 160.403 112.736C155.862 111.32 153.795 107.449 151.661 103.569C149.056 98.7451 148.112 93.3168 146.743 88.1623C144.789 80.6099 144.269 67.9502 149.698 61.7289Z" fill="white"/>
<path d="M171.76 114.945C171.43 114.945 171.09 114.945 170.76 114.945C169.662 114.838 168.573 114.652 167.503 114.388C166.832 114.237 166.162 114.095 165.482 113.982C164.803 113.869 164.35 113.831 163.783 113.765C162.602 113.667 161.432 113.459 160.29 113.142C155.693 111.707 153.531 107.827 151.454 104.07L151.284 103.758C149.122 99.878 148.065 95.5259 147.045 91.3155C146.8 90.2959 146.554 89.2858 146.29 88.2756C144.402 81.0537 143.684 67.9502 149.339 61.408C150.437 60.1434 151.709 59.0406 153.115 58.1321C154.389 57.3709 155.85 56.9792 157.334 57.0009C158.818 57.0225 160.266 57.4567 161.517 58.2549C162.272 57.614 163.249 57.2953 164.236 57.3675C167.135 57.4902 169.702 59.4916 171.883 63.315C172.85 65.1391 173.631 67.0557 174.215 69.0359C174.753 70.8545 175.455 72.6207 176.311 74.3131C177.755 76.947 181.626 78.9579 184.448 80.4306L185.449 80.9498L186.563 81.5351C188.469 82.4272 190.26 83.5461 191.897 84.8676C196.013 88.4739 197.646 94.884 195.881 100.473C194.95 103.142 193.446 105.575 191.474 107.601C189.502 109.627 187.111 111.196 184.467 112.198C182.301 112.999 180.076 113.63 177.812 114.086C175.834 114.601 173.804 114.889 171.76 114.945ZM150.047 61.9933C144.628 68.2523 145.374 80.9781 147.215 87.9924C147.47 89.012 147.725 90.0316 147.97 91.0606C148.971 95.2049 150 99.4909 152.105 103.267L152.275 103.569C154.362 107.345 156.335 110.886 160.573 112.207C161.656 112.508 162.766 112.701 163.887 112.783C164.472 112.849 165.058 112.915 165.633 113.01C166.209 113.104 167.012 113.274 167.701 113.425C168.728 113.678 169.773 113.858 170.826 113.963C173.111 114.023 175.393 113.74 177.595 113.123C179.812 112.667 181.99 112.035 184.109 111.235C186.622 110.287 188.897 108.799 190.773 106.876C192.649 104.952 194.08 102.641 194.965 100.105C196.627 94.8651 195.107 88.8609 191.264 85.4907C189.684 84.2213 187.957 83.1468 186.119 82.2904L184.996 81.705L184.052 81.1858C180.955 79.5715 177.104 77.5607 175.555 74.6813C174.647 72.9519 173.895 71.1447 173.309 69.2814C172.742 67.3624 171.989 65.5033 171.062 63.7303C169.051 60.2185 166.738 58.3776 164.189 58.2643C163.773 58.2211 163.353 58.2764 162.963 58.4256C162.573 58.5749 162.223 58.8139 161.942 59.1234C161.866 59.2167 161.757 59.2775 161.638 59.2933C161.519 59.3091 161.398 59.2787 161.3 59.2084C160.187 58.4106 158.865 57.9552 157.496 57.8982C156.128 57.8412 154.773 58.185 153.597 58.8874C152.277 59.7474 151.085 60.7899 150.057 61.9839L150.047 61.9933Z" fill="#2B2B2B"/>
<path d="M127.343 97.4895C127.343 97.4895 124.633 87.662 123.869 87.2183C123.104 86.7746 123.085 89.6067 123.085 89.6067C121.326 88.1113 119.256 87.0275 117.024 86.4347C113.862 85.7928 113.097 86.7368 113.607 87.2183C114.117 87.6998 118.167 88.4739 118.167 88.4739C118.167 88.4739 112.72 88.3323 112.889 89.4179C113.059 90.5036 117.789 90.0976 117.789 90.0976C117.789 90.0976 112.635 90.7679 113.399 91.8252C114.164 92.8826 118.119 91.8252 118.119 91.8252C118.119 91.8252 112.455 93.1375 114.06 93.9871C115.665 94.8368 119.422 93.2224 120.083 94.2326C120.744 95.2427 121.754 99.9818 121.754 99.9818L127.343 97.4895Z" fill="white"/>
<path d="M121.764 100.435C121.698 100.448 121.631 100.448 121.565 100.435C121.509 100.405 121.459 100.364 121.42 100.314C121.381 100.263 121.353 100.205 121.339 100.142C121.065 98.8397 120.234 95.3089 119.724 94.5348C119.545 94.261 118.289 94.4309 117.468 94.5348C116.146 94.7142 114.787 94.903 113.871 94.4215C113.371 94.1572 113.333 93.8079 113.362 93.6191C113.39 93.4302 113.72 93.0054 114.211 92.7316C113.761 92.6948 113.343 92.4809 113.05 92.1369C112.966 92.0306 112.911 91.9034 112.893 91.7688C112.875 91.6343 112.893 91.4972 112.946 91.3722C113.214 90.9746 113.616 90.6865 114.079 90.5603C113.201 90.4093 112.55 90.1072 112.465 89.5408C112.446 89.4294 112.454 89.3153 112.486 89.2072C112.519 89.0992 112.576 89.0001 112.653 88.9177C113.297 88.4632 114.065 88.2162 114.853 88.2097C114.307 88.0916 113.786 87.8774 113.314 87.5771C113.184 87.4623 113.094 87.3076 113.06 87.1371C113.026 86.9665 113.049 86.7894 113.126 86.6331C113.522 85.859 115.014 85.689 117.119 86.095C119.151 86.5999 121.052 87.5298 122.698 88.8233C122.764 88.0397 122.944 87.1901 123.387 86.9352C123.493 86.8773 123.611 86.847 123.732 86.847C123.852 86.847 123.971 86.8773 124.076 86.9352C124.841 87.3506 126.474 92.8827 127.711 97.4519C127.738 97.5497 127.729 97.654 127.686 97.7458C127.642 97.8375 127.568 97.9108 127.475 97.9522L121.943 100.435C121.884 100.448 121.823 100.448 121.764 100.435ZM119.054 93.4774C119.314 93.441 119.58 93.4722 119.825 93.5681C120.069 93.664 120.285 93.8214 120.451 94.025C121.174 95.7516 121.715 97.5487 122.066 99.3872L126.786 97.2253C125.976 94.0176 124.964 90.8644 123.755 87.7848C123.59 88.4002 123.51 89.0357 123.519 89.6729C123.517 89.756 123.493 89.837 123.448 89.9069C123.403 89.9769 123.339 90.0331 123.265 90.0694C123.188 90.1013 123.104 90.1111 123.023 90.0977C122.941 90.0844 122.864 90.0484 122.802 89.9939C121.106 88.5441 119.11 87.4867 116.958 86.8974C114.721 86.4443 113.975 86.8974 113.909 86.9824C115.329 87.4758 116.788 87.8484 118.271 88.0964C118.376 88.1169 118.469 88.1755 118.534 88.2609C118.598 88.3462 118.629 88.4524 118.62 88.559C118.604 88.6657 118.551 88.7634 118.469 88.8344C118.388 88.9053 118.284 88.9449 118.176 88.946C115.854 88.8894 113.579 89.1348 113.314 89.4841C113.531 89.7485 115.646 89.8995 117.77 89.7107C117.882 89.7027 117.993 89.7386 118.08 89.8108C118.166 89.883 118.221 89.9859 118.233 90.0978C118.246 90.2091 118.215 90.3212 118.146 90.4096C118.077 90.4981 117.976 90.5556 117.865 90.5698C115.873 90.8341 113.956 91.3628 113.758 91.7121C114.07 92.0614 115.778 91.967 117.393 91.6177L118.053 91.4572C118.162 91.4315 118.277 91.4499 118.372 91.5082C118.468 91.5665 118.536 91.6601 118.563 91.7687C118.592 91.8789 118.577 91.996 118.52 92.0949C118.464 92.1938 118.371 92.2665 118.261 92.2974L117.61 92.4484C116.458 92.6908 115.348 93.1011 114.315 93.6663C115.316 93.9142 116.363 93.9142 117.364 93.6663C117.924 93.5771 118.488 93.5235 119.054 93.5058V93.4774Z" fill="#2B2B2B"/>
<path d="M133.791 110.026L127.673 95.3843C127.673 95.3843 119.394 97.6972 119.564 98.2164C119.734 98.7357 123.453 114.832 124.124 114.832C124.794 114.832 133.791 110.026 133.791 110.026Z" fill="#3369FF"/>
<path d="M105.564 169.634C104.893 170.283 104.033 170.702 103.109 170.833C102.023 170.833 90.2605 168.661 89.7791 170.266C89.2976 171.871 90.2511 172.683 93.0644 174.042C96.8406 175.817 109.472 179.981 109.472 179.981L112.238 173.476L105.564 169.634Z" fill="white"/>
<path d="M109.472 180.377C109.429 180.387 109.383 180.387 109.34 180.377C108.821 180.207 96.6235 176.185 92.8757 174.42C90.4117 173.259 88.7218 172.277 89.3638 170.162C89.7603 168.841 93.5176 169.115 100.758 170.162C101.891 170.323 102.873 170.474 103.09 170.455C103.897 170.331 104.648 169.966 105.243 169.407C105.307 169.331 105.396 169.279 105.495 169.262C105.593 169.245 105.694 169.263 105.781 169.313L112.455 173.089C112.546 173.141 112.615 173.224 112.648 173.324C112.681 173.423 112.676 173.531 112.635 173.627L109.869 180.132C109.834 180.207 109.777 180.27 109.707 180.314C109.637 180.357 109.555 180.379 109.472 180.377ZM91.9599 170.096C91.0159 170.096 90.3456 170.181 90.1757 170.408C89.8358 171.55 90.2418 172.211 93.2438 173.618C96.5763 175.194 107.102 178.706 109.227 179.414L111.691 173.637L105.63 170.162C104.922 170.772 104.047 171.153 103.119 171.258C102.845 171.258 102.071 171.163 100.636 170.965C97.7625 170.512 94.8659 170.222 91.9599 170.096Z" fill="#2B2B2B"/>
<path d="M132.762 175.77C132.762 175.77 119.687 178.319 119.035 179.074C118.384 179.83 119.205 180.896 122.481 181.652C125.757 182.407 140.106 183.615 140.106 183.615C140.106 183.615 140.814 179.792 140.201 177.706C139.587 175.619 132.762 175.77 132.762 175.77Z" fill="white"/>
<path d="M140.106 184.049C139.521 184.049 125.7 182.832 122.424 182.076C120.14 181.548 118.78 180.802 118.497 179.924C118.431 179.731 118.419 179.523 118.462 179.323C118.506 179.124 118.603 178.94 118.743 178.791C119.422 178.007 128.74 176.119 132.724 175.345H132.79C133.989 175.345 139.974 175.345 140.654 177.592C141.334 179.839 140.56 183.511 140.56 183.7C140.541 183.804 140.484 183.898 140.401 183.962C140.317 184.027 140.212 184.058 140.106 184.049ZM132.809 176.195C126.729 177.384 119.951 178.904 119.337 179.376C119.303 179.414 119.278 179.459 119.267 179.509C119.255 179.559 119.257 179.611 119.271 179.66C119.328 179.801 119.705 180.604 122.585 181.236C125.464 181.869 137.416 182.954 139.748 183.124C140.063 181.363 140.063 179.561 139.748 177.8C139.427 176.62 135.499 176.138 132.809 176.195Z" fill="#2B2B2B"/>
<path d="M176.254 129.181C176.254 129.181 185.1 109.875 183.986 97.1497C182.872 84.4239 174.602 83.6875 171.713 83.5082C168.824 83.3288 153.616 81.2896 148.046 88.1623C142.476 95.035 143.92 127.812 143.92 127.812L176.254 129.181Z" fill="#3369FF"/>
<path d="M156.656 89.3708L157.968 110.395L167.786 87.6338L156.656 89.3708Z" fill="#2B2B2B"/>
<path d="M157.968 110.867H157.892C157.787 110.85 157.69 110.798 157.618 110.719C157.546 110.64 157.503 110.539 157.496 110.433L156.184 89.4086C156.175 89.2907 156.211 89.1738 156.284 89.0812C156.358 88.9886 156.463 88.9268 156.58 88.9082L167.71 87.2184C167.793 87.2039 167.878 87.2121 167.956 87.242C168.034 87.2719 168.102 87.3225 168.154 87.3883C168.206 87.4559 168.239 87.5359 168.251 87.6203C168.263 87.7047 168.252 87.7907 168.22 87.8698L158.402 110.631C158.359 110.707 158.296 110.77 158.219 110.812C158.142 110.853 158.055 110.873 157.968 110.867ZM157.156 89.7673L158.317 108.393L166.993 88.2285L157.156 89.7673Z" fill="#2B2B2B"/>
<path d="M143.288 121.308C134.847 123.774 126.82 127.48 119.469 132.306C114.315 135.808 104.686 170.153 104.686 170.153C104.686 170.153 105.762 176.101 112.635 175.166L142.665 136.309C142.665 136.309 149.103 121.204 143.288 121.308Z" fill="#2B2B2B"/>
<path d="M111.228 175.732C109.601 175.779 108.009 175.254 106.729 174.249C105.449 173.243 104.563 171.82 104.223 170.229C104.209 170.16 104.209 170.089 104.223 170.021C104.62 168.614 113.956 135.469 119.196 131.91C126.597 127.067 134.67 123.339 143.156 120.845C143.225 120.836 143.294 120.836 143.363 120.845C143.786 120.823 144.207 120.911 144.586 121.099C144.965 121.288 145.288 121.571 145.525 121.922C147.772 125.235 143.571 135.327 143.09 136.46C143.073 136.498 143.051 136.533 143.024 136.564L113.003 175.468C112.967 175.519 112.921 175.561 112.867 175.592C112.813 175.623 112.753 175.642 112.691 175.647C112.206 175.71 111.717 175.739 111.228 175.732ZM105.177 170.163C105.347 170.927 106.63 175.402 112.38 174.722L142.249 136.016C143.524 133.005 146.403 124.867 144.751 122.431C144.591 122.214 144.379 122.041 144.136 121.925C143.892 121.81 143.623 121.757 143.354 121.771C134.997 124.243 127.046 127.923 119.753 132.693C115.778 135.365 108.462 158.315 105.177 170.163Z" fill="#2B2B2B"/>
<path d="M176.254 129.181C176.254 129.181 151.001 125.849 144.893 124.952C144.893 124.952 136.16 128.209 131.676 136.469C127.192 144.73 130.09 176.997 130.09 176.997C130.09 176.997 136.368 179.178 141.032 178.281L150.472 142.587C150.472 142.587 174.649 145.06 176.254 129.181Z" fill="#2B2B2B"/>
<path d="M138.511 178.97C135.592 178.885 132.7 178.373 129.929 177.451C129.845 177.419 129.77 177.364 129.715 177.292C129.66 177.221 129.626 177.135 129.618 177.045C129.495 175.723 126.786 144.541 131.251 136.252C135.716 127.964 144.336 124.65 144.723 124.508C144.8 124.489 144.881 124.489 144.959 124.508C150.991 125.396 176.112 128.7 176.32 128.728C176.442 128.745 176.553 128.808 176.629 128.905C176.704 129.002 176.739 129.125 176.726 129.247C176.046 135.96 171.241 140.482 162.839 142.322C158.87 143.121 154.813 143.387 150.774 143.116L141.504 178.395C141.481 178.481 141.434 178.56 141.369 178.622C141.304 178.683 141.223 178.726 141.135 178.744C140.27 178.902 139.391 178.978 138.511 178.97ZM130.524 176.648C131.77 177.045 136.755 178.536 140.644 177.866L150 142.474C150.03 142.365 150.098 142.27 150.191 142.206C150.285 142.142 150.397 142.113 150.51 142.124C154.587 142.439 158.689 142.188 162.697 141.378C170.571 139.651 174.97 135.714 175.773 129.587C172.336 129.134 150.765 126.283 144.987 125.443C143.967 125.849 136.198 129.219 132.12 136.696C128.041 144.173 130.25 173.325 130.524 176.648Z" fill="#2B2B2B"/>
<path d="M148.046 88.1624C148.046 88.1624 143.93 96.0924 141.504 100.161C139.183 103.653 136.605 106.966 133.791 110.074C133.791 110.074 115.117 116.682 114.995 117.069C114.872 117.456 116.769 123.677 116.769 123.677C116.769 123.677 136.377 122.271 139.606 120.741C142.835 119.212 149.424 111.669 149.424 111.669L148.046 88.1624Z" fill="#3369FF"/>
<path d="M156.656 82.4981V89.3519C157.177 90.4565 158.082 91.3338 159.202 91.8201C160.323 92.3065 161.582 92.3687 162.745 91.9953C167.229 90.853 167.786 87.6243 167.786 87.6243L167.578 74.9457C167.578 74.9457 163.934 72.7839 163.17 64.8633C163.17 64.8633 160.149 68.479 153.446 67.6954C153.446 67.6954 152.2 74.4737 152.681 77.9667C153.163 81.4597 156.608 82.4981 156.656 82.4981Z" fill="white"/>
<path d="M161.13 92.6843C160.101 92.6744 159.094 92.3753 158.226 91.8212C157.358 91.267 156.664 90.48 156.221 89.5501C156.207 89.4879 156.207 89.4234 156.221 89.3613V82.8284C155.199 82.4499 154.295 81.8093 153.599 80.9708C152.903 80.1324 152.44 79.1256 152.256 78.0515C151.765 74.5208 152.964 67.903 153.021 67.667C153.044 67.5495 153.11 67.4447 153.206 67.3731C153.302 67.3016 153.421 67.2683 153.54 67.2799C159.875 68.0069 162.82 64.6272 162.848 64.5894C162.909 64.5182 162.989 64.4664 163.078 64.4406C163.168 64.4147 163.263 64.4161 163.352 64.4443C163.441 64.4726 163.519 64.5266 163.578 64.5995C163.636 64.6723 163.671 64.7608 163.679 64.8537C164.406 72.4061 167.824 74.5491 167.861 74.5774C167.93 74.6183 167.987 74.6763 168.027 74.7458C168.067 74.8153 168.088 74.8939 168.088 74.9739L168.296 87.662C168.296 87.898 167.635 91.2966 162.896 92.4955C162.318 92.6342 161.724 92.6976 161.13 92.6843ZM157.128 89.2574C157.614 90.2392 158.439 91.0116 159.451 91.4317C160.463 91.8517 161.593 91.8909 162.631 91.542C166.738 90.4941 167.295 87.6714 167.352 87.5487L167.153 75.1911C166.341 74.5869 163.679 72.1607 162.848 65.8544C161.593 66.8834 158.685 68.6866 153.871 68.224C153.616 69.7628 152.794 75.04 153.191 77.9194C153.366 78.865 153.793 79.746 154.425 80.4701C155.058 81.1943 155.874 81.7349 156.788 82.0354L156.986 82.1393C157.042 82.1828 157.087 82.2386 157.119 82.3024C157.15 82.3663 157.166 82.4364 157.165 82.5075L157.128 89.2574Z" fill="#2B2B2B"/>
<path d="M164.944 74.7474C165.08 74.1336 165.411 73.5804 165.888 73.1708C166.359 72.8103 166.889 72.5355 167.455 72.3589C167.753 72.2282 168.075 72.1638 168.399 72.1701C168.625 72.2086 168.842 72.2852 169.041 72.3967C169.531 72.6297 169.92 73.0321 170.137 73.5295C170.26 73.946 170.286 74.3853 170.212 74.8134C170.164 75.2825 170.053 75.7429 169.882 76.1823C169.696 76.6169 169.427 77.0106 169.09 77.3408C168.752 77.6711 168.352 77.9314 167.914 78.1068C167.475 78.2823 167.006 78.3693 166.534 78.3631C166.062 78.3568 165.595 78.2574 165.161 78.0704" fill="white"/>
<path d="M166.625 78.8541C166.08 78.857 165.54 78.7477 165.039 78.5331C164.979 78.5106 164.925 78.4763 164.879 78.4323C164.833 78.3884 164.797 78.3356 164.772 78.2772C164.747 78.2188 164.734 78.1559 164.734 78.0924C164.734 78.0289 164.747 77.966 164.771 77.9075C164.796 77.849 164.832 77.7961 164.878 77.752C164.924 77.7079 164.978 77.6735 165.037 77.6508C165.097 77.6281 165.16 77.6176 165.224 77.62C165.287 77.6224 165.349 77.6375 165.407 77.6646C165.783 77.8255 166.187 77.9101 166.596 77.9135C167.005 77.917 167.41 77.8391 167.789 77.6845C168.167 77.5299 168.511 77.3017 168.801 77.0131C169.09 76.7244 169.32 76.3811 169.476 76.003C169.633 75.6001 169.734 75.1777 169.778 74.7475C169.864 74.4003 169.864 74.0373 169.778 73.6901C169.592 73.3069 169.283 72.9975 168.9 72.8122C168.754 72.7284 168.594 72.6709 168.428 72.6422C168.174 72.6457 167.924 72.7003 167.691 72.8027C167.179 72.9645 166.698 73.2101 166.266 73.5296C165.856 73.8737 165.568 74.3404 165.445 74.8607C165.416 74.9859 165.338 75.0946 165.23 75.1627C165.121 75.2309 164.989 75.253 164.864 75.2242C164.739 75.1954 164.63 75.1181 164.562 75.0092C164.494 74.9003 164.472 74.7688 164.501 74.6436C164.66 73.9068 165.058 73.2431 165.633 72.7555C166.147 72.3633 166.726 72.063 167.342 71.8681C167.707 71.7073 168.105 71.6361 168.503 71.6604C168.788 71.7024 169.063 71.7951 169.315 71.9342C169.907 72.2194 170.377 72.7089 170.637 73.3125C170.789 73.8012 170.821 74.3192 170.731 74.823C170.679 75.334 170.558 75.8356 170.373 76.3146C170.167 76.8084 169.866 77.2569 169.487 77.6344C169.108 78.0118 168.658 78.3108 168.163 78.5142C167.678 78.7286 167.155 78.8441 166.625 78.8541Z" fill="#2B2B2B"/>
<path d="M159.157 71.9531C159.157 71.9531 156.722 75.4178 157.269 76.0409C157.817 76.6639 159.393 76.2958 159.393 76.2958" fill="white"/>
<path d="M158.43 76.881C158.154 76.9029 157.877 76.8672 157.615 76.7762C157.353 76.6852 157.113 76.5409 156.91 76.3524C156.382 75.7482 157.014 74.1811 158.799 71.6793C158.871 71.5767 158.982 71.5071 159.106 71.4858C159.229 71.4646 159.357 71.4934 159.459 71.566C159.562 71.6387 159.632 71.7491 159.653 71.873C159.674 71.9969 159.645 72.1242 159.573 72.2269C158.496 73.7562 157.619 75.4272 157.685 75.7954C158.213 75.9651 158.78 75.9651 159.308 75.7954C159.369 75.78 159.431 75.7769 159.493 75.7863C159.554 75.7956 159.613 75.8172 159.666 75.8498C159.719 75.8824 159.764 75.9253 159.8 75.976C159.836 76.0266 159.862 76.084 159.875 76.1447C159.903 76.2661 159.882 76.3938 159.817 76.4999C159.751 76.606 159.647 76.682 159.525 76.7111C159.168 76.8093 158.801 76.8663 158.43 76.881Z" fill="#2B2B2B"/>
<path d="M162.784 71.5306C162.812 71.0779 162.574 70.6944 162.251 70.674C161.929 70.6536 161.644 71.004 161.615 71.4567C161.587 71.9094 161.825 72.2929 162.148 72.3133C162.47 72.3337 162.755 71.9833 162.784 71.5306Z" fill="#2B2B2B"/>
<path d="M157.904 71.0851C157.936 70.6315 157.7 70.2454 157.376 70.2228C157.053 70.2002 156.765 70.5495 156.734 71.0031C156.702 71.4567 156.938 71.8428 157.261 71.8654C157.585 71.8881 157.873 71.5387 157.904 71.0851Z" fill="#2B2B2B"/>
<path d="M159.327 80.0435C157.9 79.9733 156.516 79.5377 155.305 78.7784C155.207 78.7078 155.14 78.6022 155.118 78.4835C155.095 78.3647 155.119 78.2419 155.184 78.1402C155.25 78.0385 155.352 77.9658 155.469 77.937C155.586 77.9082 155.71 77.9255 155.815 77.9854C155.815 77.9854 158.421 79.6375 160.536 78.9295C161.092 78.6944 161.585 78.3318 161.975 77.871C162.366 77.4102 162.642 76.8641 162.782 76.2767C162.821 76.1578 162.906 76.0592 163.017 76.0026C163.129 75.946 163.258 75.9359 163.377 75.9746C163.495 76.0175 163.592 76.1041 163.649 76.2165C163.705 76.3289 163.716 76.4586 163.679 76.5788C163.495 77.3041 163.142 77.9759 162.65 78.54C162.158 79.1041 161.541 79.5447 160.847 79.8263C160.357 79.9863 159.843 80.0598 159.327 80.0435Z" fill="#2B2B2B"/>
<path d="M156.656 82.4981C156.656 82.4981 160.923 83.4422 163.434 82.0544C163.434 82.0544 160.649 87.8037 156.656 87.1995V82.4981Z" fill="#2B2B2B"/>
<path d="M157.25 87.7282C157.026 87.7263 156.802 87.7105 156.58 87.681C156.469 87.6611 156.369 87.603 156.296 87.5168C156.224 87.4305 156.184 87.3216 156.184 87.209V82.4982C156.185 82.4274 156.201 82.3577 156.232 82.2941C156.263 82.2304 156.308 82.1744 156.363 82.13C156.418 82.0867 156.483 82.0565 156.551 82.0418C156.62 82.027 156.691 82.0282 156.759 82.045C156.759 82.045 160.875 82.9891 163.198 81.6391C163.286 81.5891 163.387 81.5685 163.487 81.5804C163.587 81.5923 163.681 81.6361 163.755 81.7052C163.829 81.7728 163.88 81.8628 163.898 81.9616C163.917 82.0604 163.903 82.1626 163.859 82.2527C163.745 82.4982 161.168 87.7282 157.25 87.7282ZM157.128 86.7842C159.497 86.8408 161.385 84.4901 162.339 83.008C160.625 83.3862 158.852 83.4119 157.128 83.0835V86.7842Z" fill="#2B2B2B"/>
<path d="M179.889 86.6142C183.372 87.2278 197.495 119.892 192.662 123.611C185.109 129.436 158.855 123.545 158.855 123.545L160.998 113.425C160.998 113.425 177.887 113.888 178.123 110.423C178.359 106.958 168.305 90.9096 169.627 88.5117C170.948 86.1138 179.889 86.6142 179.889 86.6142Z" fill="#3369FF"/>
<path d="M162.811 116.814C160.004 116.986 157.186 116.85 154.409 116.408C152.357 115.912 150.251 115.672 148.14 115.691C145.353 115.838 142.614 116.477 140.05 117.579C139.946 117.616 139.854 117.681 139.785 117.768C139.53 118.117 140.125 118.447 140.55 118.457C141.666 118.484 142.78 118.344 143.854 118.041C141.196 119.027 138.681 120.363 136.377 122.016C136.122 122.195 135.83 122.497 135.962 122.79C136.094 123.083 136.623 123.035 136.963 122.875L143.005 120.118C141.442 120.744 139.993 121.624 138.719 122.724C138.53 122.884 138.341 123.092 138.388 123.328C138.473 123.734 139.077 123.659 139.455 123.47C141.292 122.558 143.045 121.487 144.694 120.269L140.965 123.102C140.918 123.404 141.239 123.659 141.551 123.668C141.861 123.655 142.16 123.55 142.41 123.366L146.564 120.968L143.977 122.781C143.562 123.073 143.099 123.526 143.307 123.989C143.514 124.452 144.336 124.357 144.874 124.121C147.013 123.192 149.248 122.502 151.539 122.063C152.341 121.801 153.171 121.633 154.012 121.563C155.292 121.725 156.556 122 157.788 122.384L163.453 123.677" fill="white"/>
<path d="M143.949 124.754C143.784 124.759 143.62 124.73 143.467 124.669C143.343 124.625 143.228 124.555 143.133 124.464C143.037 124.373 142.961 124.262 142.91 124.14C142.837 123.971 142.811 123.785 142.835 123.602L142.627 123.725C142.308 123.956 141.925 124.081 141.532 124.084C141.38 124.078 141.231 124.041 141.094 123.974C140.958 123.908 140.837 123.813 140.739 123.696C140.652 123.593 140.59 123.47 140.56 123.338C140.257 123.498 139.955 123.659 139.616 123.81C139.426 123.915 139.215 123.979 138.999 123.997C138.782 124.015 138.565 123.986 138.36 123.914C138.253 123.861 138.16 123.786 138.086 123.693C138.013 123.6 137.961 123.491 137.935 123.375C137.894 123.183 137.924 122.981 138.02 122.809L137.076 123.224C136.73 123.405 136.329 123.448 135.953 123.347C135.853 123.31 135.761 123.253 135.683 123.18C135.605 123.107 135.543 123.02 135.499 122.922C135.405 122.715 135.282 122.177 136.066 121.61C137.531 120.56 139.082 119.635 140.701 118.844H140.56C140.326 118.844 140.097 118.785 139.892 118.673C139.687 118.561 139.514 118.399 139.389 118.202C139.329 118.086 139.302 117.956 139.312 117.826C139.322 117.696 139.368 117.571 139.446 117.466C139.569 117.317 139.728 117.204 139.908 117.135C142.52 116.027 145.307 115.387 148.14 115.247C150.023 115.212 151.904 115.408 153.738 115.833L154.513 115.974C157.256 116.405 160.038 116.541 162.811 116.38C162.868 116.375 162.927 116.382 162.981 116.4C163.036 116.419 163.087 116.448 163.129 116.488C163.172 116.527 163.206 116.574 163.229 116.627C163.252 116.68 163.264 116.738 163.264 116.795C163.267 116.909 163.224 117.019 163.147 117.102C163.069 117.185 162.962 117.234 162.849 117.239C160.01 117.406 157.161 117.267 154.352 116.824L153.578 116.673C151.811 116.266 150.001 116.076 148.187 116.106C145.472 116.234 142.8 116.841 140.295 117.9C140.384 117.941 140.481 117.963 140.578 117.966C141.65 118 142.72 117.866 143.75 117.57C143.855 117.549 143.963 117.567 144.055 117.621C144.147 117.675 144.216 117.761 144.249 117.862C144.281 117.964 144.276 118.074 144.232 118.171C144.189 118.269 144.112 118.347 144.015 118.391C141.396 119.361 138.919 120.679 136.651 122.309C136.537 122.378 136.443 122.475 136.377 122.592C136.377 122.592 136.576 122.535 136.802 122.431L141.504 120.26C141.957 120.034 142.448 119.816 142.891 119.628C142.997 119.587 143.114 119.589 143.218 119.633C143.322 119.677 143.404 119.76 143.448 119.864C143.49 119.967 143.491 120.082 143.451 120.185C143.41 120.289 143.332 120.373 143.231 120.421L141.881 121.044C140.865 121.558 139.914 122.192 139.049 122.932C138.973 122.984 138.909 123.052 138.86 123.13C138.86 123.083 139.106 123.064 139.304 122.96C141.121 122.06 142.855 121.002 144.487 119.798C144.58 119.733 144.695 119.706 144.808 119.724C144.92 119.742 145.022 119.802 145.091 119.892C145.159 119.982 145.188 120.095 145.172 120.207C145.156 120.318 145.096 120.419 145.006 120.487L141.551 123.13H141.626C141.848 123.102 142.06 123.017 142.24 122.885L146.394 120.477C146.491 120.423 146.606 120.407 146.714 120.434C146.823 120.46 146.917 120.526 146.979 120.619C147.04 120.713 147.061 120.827 147.038 120.937C147.015 121.046 146.95 121.142 146.856 121.204L144.222 123.092C143.854 123.347 143.637 123.63 143.694 123.763C143.75 123.895 143.694 123.819 143.779 123.838C144.103 123.888 144.434 123.832 144.723 123.678C146.89 122.73 149.158 122.03 151.482 121.591L152.275 121.393C152.851 121.201 153.453 121.096 154.059 121.081C154.983 121.157 155.896 121.337 156.778 121.62C157.175 121.733 157.552 121.837 157.921 121.922C159.809 122.346 161.697 122.771 163.585 123.215C163.641 123.227 163.693 123.25 163.74 123.283C163.786 123.316 163.825 123.358 163.855 123.407C163.885 123.455 163.905 123.509 163.914 123.565C163.923 123.622 163.92 123.679 163.906 123.734C163.879 123.843 163.811 123.938 163.716 123.997C163.621 124.057 163.506 124.078 163.396 124.055C161.508 123.611 159.62 123.187 157.732 122.762C157.354 122.677 156.958 122.564 156.552 122.45C155.734 122.186 154.888 122.018 154.031 121.95C153.51 121.961 152.994 122.053 152.502 122.224L151.652 122.441C149.38 122.861 147.163 123.539 145.044 124.461C144.702 124.631 144.33 124.731 143.949 124.754Z" fill="#2B2B2B"/>
<path d="M149.858 90.9944C148.914 91.9384 146.583 106.788 145.723 113.793L149.858 90.9944Z" fill="white"/>
<path d="M145.723 114.218H145.676C145.562 114.204 145.459 114.145 145.388 114.055C145.317 113.965 145.285 113.85 145.299 113.737C145.827 109.384 148.338 91.9101 149.556 90.6829C149.593 90.6336 149.641 90.5928 149.695 90.5633C149.749 90.5338 149.809 90.5162 149.871 90.5117C149.933 90.5071 149.994 90.5159 150.052 90.5372C150.11 90.5585 150.163 90.592 150.207 90.6353C150.251 90.6787 150.286 90.7309 150.308 90.7886C150.33 90.8463 150.34 90.908 150.336 90.9697C150.333 91.0314 150.316 91.0916 150.287 91.1463C150.259 91.2011 150.219 91.2491 150.17 91.2871C149.386 92.2311 147.111 106.014 146.158 113.84C146.144 113.946 146.092 114.042 146.012 114.111C145.932 114.181 145.829 114.219 145.723 114.218Z" fill="#2B2B2B"/>
<path d="M114.617 127.756L114.778 129.465L153.219 135.082L152.832 133.297L114.617 127.756Z" fill="white"/>
<path d="M153.219 135.554H153.153L114.711 129.937C114.605 129.92 114.507 129.868 114.433 129.79C114.36 129.711 114.315 129.61 114.306 129.502L114.126 127.812C114.118 127.741 114.127 127.669 114.151 127.602C114.176 127.535 114.216 127.475 114.268 127.425C114.321 127.377 114.384 127.341 114.452 127.32C114.521 127.299 114.593 127.293 114.664 127.303L152.879 132.835C152.974 132.85 153.061 132.893 153.13 132.959C153.199 133.025 153.247 133.11 153.266 133.203L153.653 134.997C153.671 135.07 153.669 135.146 153.649 135.219C153.63 135.291 153.592 135.358 153.54 135.412C153.456 135.5 153.341 135.55 153.219 135.554ZM115.212 129.049L152.615 134.515L152.445 133.713L115.146 128.313L115.212 129.049Z" fill="#2B2B2B"/>
<path d="M114.617 127.756C114.617 127.756 123.368 120.203 123.661 120.326C123.954 120.449 163.311 125.103 163.311 125.103L152.832 133.288L114.617 127.756Z" fill="white"/>
<path d="M152.832 133.76H152.766L114.551 128.228C114.461 128.213 114.378 128.173 114.309 128.113C114.241 128.053 114.191 127.975 114.164 127.888C114.14 127.8 114.142 127.707 114.169 127.621C114.195 127.534 114.246 127.456 114.315 127.397C123.255 119.731 123.491 119.845 123.755 119.845C124.303 119.939 149.877 123.007 163.321 124.565C163.413 124.576 163.501 124.614 163.572 124.675C163.643 124.735 163.694 124.816 163.72 124.906C163.745 124.996 163.743 125.091 163.714 125.18C163.685 125.269 163.63 125.347 163.557 125.405L153.106 133.599C153.037 133.684 152.94 133.741 152.832 133.76ZM115.722 127.444L152.7 132.797L162.093 125.433C152.2 124.253 126.219 121.128 123.746 120.808C122.962 121.308 118.752 124.848 115.722 127.444Z" fill="#2B2B2B"/>
<path d="M153.219 135.082L163.434 126.812L163.283 125.103L152.832 133.297L153.219 135.082Z" fill="white"/>
<path d="M153.219 135.554C153.114 135.55 153.012 135.513 152.931 135.446C152.849 135.379 152.791 135.288 152.766 135.185L152.379 133.392C152.36 133.305 152.366 133.215 152.396 133.131C152.426 133.048 152.479 132.974 152.549 132.92L162.99 124.725C163.057 124.675 163.136 124.643 163.219 124.633C163.301 124.623 163.386 124.636 163.462 124.669C163.541 124.7 163.609 124.753 163.659 124.822C163.709 124.89 163.739 124.971 163.745 125.056L163.906 126.764C163.912 126.842 163.898 126.919 163.867 126.99C163.836 127.061 163.787 127.123 163.727 127.17L153.521 135.45C153.438 135.521 153.33 135.559 153.219 135.554ZM153.361 133.477L153.521 134.232L162.962 126.595L162.905 126.009L153.361 133.477Z" fill="#2B2B2B"/>
<path d="M114.617 127.756L107.234 103.003L147.763 109.913L152.832 133.297L114.617 127.756Z" fill="white"/>
<path d="M152.832 133.76H152.766L114.551 128.228C114.463 128.214 114.381 128.175 114.315 128.117C114.248 128.059 114.199 127.982 114.173 127.897L106.781 103.135C106.759 103.059 106.755 102.979 106.772 102.901C106.788 102.824 106.824 102.751 106.876 102.691C106.93 102.632 106.998 102.587 107.074 102.561C107.15 102.534 107.231 102.527 107.31 102.54L147.838 109.441C147.931 109.46 148.016 109.504 148.085 109.569C148.153 109.635 148.202 109.718 148.225 109.809L153.295 133.194C153.313 133.268 153.312 133.346 153.292 133.42C153.272 133.494 153.234 133.563 153.181 133.618C153.136 133.664 153.081 133.7 153.021 133.725C152.961 133.749 152.897 133.761 152.832 133.76ZM114.985 127.331L152.228 132.731L147.366 110.319L107.905 103.598L114.985 127.331Z" fill="#2B2B2B"/>
<path d="M129.231 152.197C129.113 152.198 128.999 152.153 128.913 152.072C128.827 151.991 128.776 151.881 128.768 151.763C128.768 151.31 127.994 140.803 131.289 136.196C131.364 136.096 131.475 136.03 131.598 136.01C131.722 135.991 131.848 136.02 131.95 136.092C132.049 136.165 132.115 136.275 132.134 136.396C132.154 136.518 132.125 136.643 132.054 136.743C128.957 141.076 129.693 151.584 129.703 151.688C129.708 151.75 129.701 151.812 129.682 151.871C129.663 151.93 129.632 151.985 129.592 152.033C129.552 152.08 129.502 152.119 129.447 152.147C129.391 152.176 129.331 152.193 129.269 152.197H129.231Z" fill="white"/>
<path d="M163.434 108.356C163.34 108.354 163.249 108.325 163.172 108.272C163.095 108.219 163.036 108.144 163.001 108.057C162.967 107.97 162.959 107.875 162.979 107.783C162.999 107.692 163.045 107.609 163.113 107.544C165.445 105.353 169.24 101.521 169.457 100.52C169.674 99.5192 167.984 98.3392 167.38 97.9899C167.314 97.9515 167.259 97.8981 167.218 97.8341C167.177 97.7701 167.151 97.6973 167.144 97.6217C167.136 97.5452 167.148 97.4681 167.178 97.3972C167.207 97.3263 167.254 97.264 167.314 97.2157C168.396 96.3344 169.423 95.3886 170.391 94.3836C170.561 93.921 169.891 91.0228 169.164 88.6155C169.145 88.556 169.139 88.4933 169.145 88.4313C169.151 88.3692 169.17 88.3091 169.2 88.2544C169.23 88.1997 169.271 88.1517 169.32 88.1131C169.369 88.0746 169.425 88.0464 169.485 88.0302C169.604 87.9947 169.732 88.0075 169.842 88.0658C169.951 88.1242 170.033 88.2232 170.07 88.3417C170.863 90.9567 171.694 94.2326 171.147 94.95C170.292 95.8566 169.377 96.705 168.409 97.4895C169.249 98.0843 170.675 99.321 170.373 100.68C170.033 102.266 164.803 107.213 163.764 108.233C163.72 108.274 163.668 108.307 163.611 108.328C163.555 108.349 163.494 108.358 163.434 108.356Z" fill="#2B2B2B"/>
<path d="M171.637 127.057H171.553L163.358 125.641C163.25 125.624 163.151 125.569 163.078 125.486C163.006 125.403 162.965 125.298 162.962 125.188L162.697 115.37C162.692 115.25 162.733 115.133 162.813 115.043C162.892 114.954 163.003 114.898 163.122 114.888L177.764 113.378L171.307 91.1173C171.29 91.0578 171.284 90.9955 171.291 90.9338C171.298 90.8722 171.317 90.8125 171.346 90.7582C171.376 90.7038 171.416 90.6559 171.465 90.6171C171.513 90.5783 171.569 90.5494 171.628 90.532C171.688 90.5133 171.75 90.5069 171.812 90.513C171.874 90.5191 171.934 90.5377 171.989 90.5677C172.044 90.5977 172.092 90.6384 172.13 90.6875C172.169 90.7365 172.197 90.7928 172.213 90.853L178.822 113.652C178.84 113.719 178.843 113.789 178.832 113.857C178.821 113.926 178.795 113.991 178.756 114.048C178.719 114.107 178.669 114.156 178.61 114.192C178.551 114.228 178.485 114.25 178.416 114.256L163.641 115.776L163.887 124.773L171.704 126.123C171.765 126.133 171.824 126.155 171.877 126.188C171.93 126.222 171.975 126.265 172.011 126.316C172.047 126.367 172.073 126.424 172.086 126.485C172.1 126.546 172.101 126.609 172.091 126.67C172.073 126.778 172.018 126.876 171.935 126.946C171.852 127.017 171.747 127.057 171.637 127.057Z" fill="#2B2B2B"/>
<path d="M155.721 108.356C155.636 108.357 155.552 108.335 155.479 108.291C155.405 108.248 155.346 108.185 155.306 108.11C155.164 107.855 151.898 101.861 151.388 99.6137C150.972 97.7822 152.738 96.5078 153.823 95.9036C153.037 95.4177 152.289 94.8716 151.586 94.2704C151.341 94.0249 150.585 93.2697 154.881 88.7949C154.925 88.7507 154.977 88.7155 155.034 88.6916C155.092 88.6676 155.154 88.6553 155.216 88.6553C155.278 88.6553 155.34 88.6676 155.397 88.6916C155.455 88.7155 155.507 88.7507 155.551 88.7949C155.638 88.8847 155.687 89.0049 155.687 89.13C155.687 89.2551 155.638 89.3753 155.551 89.4652C153.833 91.2494 152.398 93.1375 152.313 93.6851C153.178 94.3718 154.086 95.0025 155.032 95.5732C155.106 95.6193 155.166 95.6852 155.205 95.7635C155.244 95.8418 155.261 95.9294 155.253 96.0166C155.245 96.1037 155.213 96.187 155.161 96.2571C155.109 96.3271 155.038 96.3812 154.956 96.4134C154.956 96.4134 151.888 97.6029 152.304 99.4155C152.785 101.521 156.08 107.6 156.136 107.657C156.166 107.712 156.185 107.771 156.192 107.833C156.199 107.895 156.193 107.958 156.175 108.017C156.158 108.077 156.129 108.132 156.09 108.181C156.05 108.229 156.002 108.269 155.948 108.299C155.878 108.335 155.8 108.355 155.721 108.356Z" fill="#2B2B2B"/>
<path d="M122.349 92.1839C122.244 92.1826 122.144 92.1436 122.066 92.0743C121.988 92.0049 121.938 91.9098 121.924 91.8063C121.875 91.3539 121.927 90.8963 122.078 90.4668C122.228 90.0372 122.472 89.6467 122.793 89.3235C122.874 89.2422 122.984 89.1965 123.099 89.1965C123.214 89.1965 123.325 89.2422 123.406 89.3235C123.446 89.363 123.478 89.41 123.499 89.4619C123.521 89.5137 123.532 89.5694 123.532 89.6256C123.532 89.6818 123.521 89.7374 123.499 89.7893C123.478 89.8411 123.446 89.8882 123.406 89.9277C123.186 90.1558 123.018 90.4297 122.915 90.7299C122.812 91.0301 122.777 91.3493 122.811 91.6647C122.825 91.7786 122.793 91.8931 122.722 91.9833C122.651 92.0734 122.548 92.132 122.434 92.1462L122.349 92.1839Z" fill="#2B2B2B"/>
<path d="M299.528 243.978H0.472025C0.346836 243.978 0.226774 243.928 0.138252 243.839C0.0497307 243.751 0 243.631 0 243.506V59.1139C0 58.9887 0.0497307 58.8686 0.138252 58.7801C0.226774 58.6916 0.346836 58.6418 0.472025 58.6418C0.597213 58.6418 0.717275 58.6916 0.805797 58.7801C0.894319 58.8686 0.944049 58.9887 0.944049 59.1139V243.034H299.528C299.653 243.034 299.773 243.083 299.862 243.172C299.95 243.26 300 243.38 300 243.506C300 243.631 299.95 243.751 299.862 243.839C299.773 243.928 299.653 243.978 299.528 243.978Z" fill="#D9D9D9"/>
<path d="M31.5407 74.4736C30.2691 75.588 29.0737 76.7865 27.9627 78.061C22.2917 84.4888 18.9148 92.6173 18.3618 101.171H35.3546C35.9361 96.2522 38.1553 91.6715 41.6553 88.1664C45.1553 84.6612 49.7327 82.4353 54.651 81.8466V64.8538C46.0947 65.4121 37.9659 68.7957 31.5407 74.4736Z" fill="white"/>
<path d="M35.3357 101.643H18.3429C18.2795 101.645 18.2164 101.633 18.1579 101.609C18.0994 101.584 18.0466 101.548 18.003 101.502C17.9132 101.404 17.8657 101.275 17.8708 101.143C18.4237 92.4881 21.849 84.2654 27.604 77.7777C28.7316 76.488 29.946 75.2768 31.2386 74.1525C37.7332 68.3776 45.9768 64.9472 54.651 64.4099C54.7145 64.4058 54.7782 64.4145 54.8382 64.4356C54.8982 64.4567 54.9533 64.4897 55.0003 64.5327C55.0475 64.5779 55.0851 64.6321 55.111 64.6921C55.137 64.7521 55.1507 64.8166 55.1513 64.882V81.8748C55.1522 81.9908 55.1103 82.103 55.0337 82.1901C54.9571 82.2772 54.8511 82.333 54.736 82.3469C49.9297 82.9269 45.4571 85.1026 42.0339 88.5258C38.6107 91.949 36.435 96.4216 35.855 101.228C35.8407 101.352 35.7782 101.465 35.6809 101.542C35.5837 101.62 35.4596 101.657 35.3357 101.643ZM18.8715 100.699H34.9204C35.4485 96.7048 37.0469 92.9274 39.5462 89.7671C40.619 88.4064 41.8484 87.177 43.2091 86.1042C46.3662 83.5851 50.1478 81.97 54.1506 81.4311V65.3823C45.8733 66.0025 38.0275 69.3186 31.8144 74.8228C24.2998 81.4373 19.6573 90.719 18.8715 100.699Z" fill="#D9D9D9"/>
<path d="M96.0287 101.171C95.4783 92.6185 92.1048 84.4901 86.4371 78.061L74.476 90.0505C77.0243 93.2457 78.6239 97.0925 79.0924 101.152C79.2938 102.839 79.2938 104.544 79.0924 106.231C78.631 110.302 77.031 114.16 74.476 117.362C73.4285 118.697 72.2241 119.902 70.8886 120.949C67.69 123.505 63.8357 125.109 59.7677 125.575C58.0832 125.764 56.3828 125.764 54.6982 125.575C50.636 125.104 46.7869 123.505 43.5867 120.959C42.2535 119.909 41.0493 118.704 39.9993 117.371C37.4449 114.172 35.8419 110.318 35.3735 106.25H18.3806C18.9306 114.807 22.3116 122.937 27.991 129.361C29.0971 130.64 30.2928 131.839 31.569 132.948C37.9878 138.614 46.1068 141.988 54.651 142.54C55.4912 142.606 56.3314 142.625 57.1905 142.625C58.0496 142.625 58.8898 142.625 59.7205 142.54C68.2767 141.991 76.4087 138.618 82.8403 132.948C84.1165 131.839 85.3122 130.64 86.4182 129.361C92.0893 122.933 95.4662 114.804 96.0192 106.25C96.0759 105.41 96.1042 104.56 96.1042 103.711C96.1042 102.861 96.0853 102.012 96.0287 101.171Z" fill="white"/>
<path d="M57.1999 143.096C56.2558 143.096 55.4345 143.096 54.6226 143.011C45.9616 142.477 37.7291 139.057 31.2385 133.297C29.9454 132.187 28.7339 130.985 27.6134 129.7C21.8535 123.205 18.4308 114.971 17.8897 106.307C17.8868 106.243 17.897 106.179 17.9197 106.119C17.9425 106.059 17.9772 106.004 18.0218 105.958C18.0633 105.908 18.1155 105.869 18.1744 105.843C18.2332 105.817 18.2973 105.804 18.3617 105.806H35.3546C35.4689 105.808 35.5788 105.851 35.6639 105.927C35.749 106.004 35.8035 106.108 35.8172 106.222C36.3908 111.031 38.5645 115.507 41.9888 118.931C45.4132 122.356 49.8894 124.529 54.6982 125.103C56.348 125.292 58.014 125.292 59.6638 125.103C63.6415 124.646 67.4103 123.079 70.5393 120.581C71.8443 119.556 73.0203 118.377 74.0417 117.069C76.5404 113.939 78.1104 110.171 78.5732 106.194C78.762 104.544 78.762 102.878 78.5732 101.228C78.1119 97.2542 76.5452 93.4895 74.0512 90.3618C73.9766 90.2733 73.9357 90.1613 73.9357 90.0456C73.9357 89.9299 73.9766 89.8178 74.0512 89.7293L86.1067 77.7777C86.1524 77.7318 86.2069 77.6956 86.2669 77.6713C86.3269 77.6469 86.3912 77.635 86.456 77.6361C86.5207 77.6375 86.5844 77.6526 86.6429 77.6802C86.7015 77.7079 86.7536 77.7475 86.7958 77.7965C92.5439 84.2972 95.9591 92.5296 96.5007 101.19C96.5573 102.002 96.5856 102.842 96.5856 103.758C96.5856 104.674 96.5856 105.514 96.5007 106.326C95.9482 114.987 92.5155 123.215 86.7486 129.7C85.6235 130.995 84.409 132.21 83.114 133.335C76.6177 139.09 68.3829 142.506 59.7205 143.04C58.9558 143.068 58.1156 143.096 57.1999 143.096ZM18.8715 106.722C19.4895 114.997 22.806 122.841 28.312 129.049C29.4055 130.312 30.5887 131.496 31.8522 132.589C38.1817 138.203 46.2068 141.54 54.6509 142.067C56.32 142.181 57.9948 142.181 59.6638 142.067C68.1162 141.557 76.155 138.234 82.5004 132.627C83.7594 131.529 84.9422 130.346 86.0406 129.087C91.6457 122.74 94.9686 114.702 95.4811 106.25C95.5377 105.457 95.566 104.645 95.566 103.748C95.566 102.852 95.566 102.04 95.4811 101.247C95.0041 92.9495 91.8206 85.0372 86.4182 78.7217L75.0896 90.0503C77.5429 93.2527 79.0828 97.0599 79.5455 101.067C79.6418 101.926 79.6922 102.79 79.6966 103.654C79.6928 104.518 79.6423 105.382 79.5455 106.241C79.0593 110.383 77.4243 114.307 74.8253 117.569C73.7548 118.929 72.5251 120.156 71.1624 121.223C67.902 123.825 63.9771 125.46 59.8338 125.943C58.1113 126.132 56.3734 126.132 54.6509 125.943C50.5086 125.456 46.5848 123.821 43.3224 121.223C41.9282 120.189 40.6608 118.994 39.5462 117.664C37.0329 114.504 35.4214 110.723 34.8826 106.722H18.8715Z" fill="#D9D9D9"/>
<path d="M82.8592 74.4736C76.4251 68.8021 68.2895 65.4283 59.73 64.8821V81.875C63.7992 82.3475 67.6548 83.95 70.8603 86.5008L82.8592 74.4736Z" fill="#3369FF"/>
<path d="M273.727 101.455H237.863V105.816H273.727V101.455Z" fill="white"/>
<path d="M273.718 106.288H237.844C237.719 106.288 237.599 106.238 237.51 106.15C237.422 106.061 237.372 105.941 237.372 105.816V101.454C237.372 101.329 237.422 101.209 237.51 101.121C237.599 101.032 237.719 100.982 237.844 100.982H273.718C273.843 100.982 273.963 101.032 274.051 101.121C274.14 101.209 274.19 101.329 274.19 101.454V105.816C274.19 105.941 274.14 106.061 274.051 106.15C273.963 106.238 273.843 106.288 273.718 106.288ZM238.335 105.344H273.265V101.926H238.335V105.344Z" fill="#D9D9D9"/>
<path d="M263.645 114.228H237.863V118.589H263.645V114.228Z" fill="white"/>
<path d="M263.645 119.061H237.863C237.737 119.061 237.617 119.011 237.529 118.923C237.44 118.834 237.391 118.714 237.391 118.589V114.227C237.391 114.102 237.44 113.982 237.529 113.894C237.617 113.805 237.737 113.755 237.863 113.755H263.645C263.77 113.755 263.89 113.805 263.978 113.894C264.067 113.982 264.117 114.102 264.117 114.227V118.589C264.117 118.714 264.067 118.834 263.978 118.923C263.89 119.011 263.77 119.061 263.645 119.061ZM238.335 118.117H263.173V114.699H238.335V118.117Z" fill="#D9D9D9"/>
<path d="M249.078 127H237.863V131.362H249.078V127Z" fill="white"/>
<path d="M249.125 131.825H237.863C237.737 131.825 237.617 131.775 237.529 131.686C237.44 131.598 237.391 131.478 237.391 131.353V127.001C237.391 126.875 237.44 126.755 237.529 126.667C237.617 126.578 237.737 126.529 237.863 126.529H249.125C249.25 126.529 249.37 126.578 249.459 126.667C249.547 126.755 249.597 126.875 249.597 127.001V131.353C249.597 131.478 249.547 131.598 249.459 131.686C249.37 131.775 249.25 131.825 249.125 131.825ZM238.382 130.881H248.653V127.473H238.335L238.382 130.881Z" fill="#D9D9D9"/>
<path d="M292.938 139.773H237.863V144.135H292.938V139.773Z" fill="white"/>
<path d="M292.938 144.598H237.863C237.737 144.598 237.617 144.548 237.529 144.459C237.44 144.371 237.391 144.251 237.391 144.126V139.774C237.391 139.648 237.44 139.528 237.529 139.44C237.617 139.351 237.737 139.302 237.863 139.302H292.938C293.064 139.302 293.184 139.351 293.272 139.44C293.361 139.528 293.411 139.648 293.411 139.774V144.126C293.411 144.251 293.361 144.371 293.272 144.459C293.184 144.548 293.064 144.598 292.938 144.598ZM238.335 143.654H292.466V140.246H238.335V143.654Z" fill="#D9D9D9"/>
<path d="M267.194 152.537H237.863V156.899H267.194V152.537Z" fill="white"/>
<path d="M267.194 157.37H237.863C237.737 157.37 237.617 157.321 237.529 157.232C237.44 157.144 237.391 157.024 237.391 156.898V152.537C237.391 152.412 237.44 152.292 237.529 152.203C237.617 152.115 237.737 152.065 237.863 152.065H267.194C267.319 152.065 267.44 152.115 267.528 152.203C267.617 152.292 267.666 152.412 267.666 152.537V156.898C267.666 157.024 267.617 157.144 267.528 157.232C267.44 157.321 267.319 157.37 267.194 157.37ZM238.335 156.426H266.722V153.009H238.335V156.426Z" fill="#D9D9D9"/>
<path d="M43.4452 209.567C43.3216 209.567 43.203 209.519 43.1147 209.432C43.0264 209.346 42.9756 209.228 42.9731 209.104V191.885C42.9756 191.761 43.0264 191.644 43.1147 191.557C43.203 191.471 43.3216 191.422 43.4452 191.422C43.5679 191.422 43.6855 191.471 43.7723 191.558C43.859 191.645 43.9078 191.762 43.9078 191.885V209.104C43.9078 209.227 43.859 209.345 43.7723 209.431C43.6855 209.518 43.5679 209.567 43.4452 209.567Z" fill="#2B2B2B"/>
<path d="M52.2815 208.425H34.5995C34.0677 208.425 33.6365 208.856 33.6365 209.388V209.699C33.6365 210.231 34.0677 210.662 34.5995 210.662H52.2815C52.8133 210.662 53.2444 210.231 53.2444 209.699V209.388C53.2444 208.856 52.8133 208.425 52.2815 208.425Z" fill="white"/>
<path d="M52.2814 211.144H34.5994C34.217 211.141 33.8511 210.988 33.5808 210.718C33.3104 210.447 33.1574 210.082 33.155 209.699V209.378C33.1574 208.996 33.3104 208.63 33.5808 208.36C33.8511 208.089 34.217 207.936 34.5994 207.934H52.2814C52.6604 207.941 53.0216 208.096 53.2879 208.366C53.5542 208.636 53.7045 208.999 53.7069 209.378V209.699C53.7045 210.078 53.5542 210.441 53.2879 210.711C53.0216 210.981 52.6604 211.136 52.2814 211.144ZM34.5994 208.906C34.4742 208.906 34.3541 208.956 34.2656 209.044C34.1771 209.133 34.1273 209.253 34.1273 209.378V209.699C34.1273 209.824 34.1771 209.944 34.2656 210.033C34.3541 210.122 34.4742 210.171 34.5994 210.171H52.2814C52.4075 210.171 52.5285 210.122 52.6186 210.034C52.7086 209.945 52.7604 209.825 52.7629 209.699V209.378C52.7604 209.252 52.7086 209.132 52.6186 209.044C52.5285 208.956 52.4075 208.906 52.2814 208.906H34.5994Z" fill="#2B2B2B"/>
<path d="M49.676 223.539H37.2145L34.5051 210.653H52.3759L49.676 223.539Z" fill="white"/>
<path d="M49.6759 224.03H37.2144C37.102 224.03 36.9928 223.992 36.9052 223.922C36.8176 223.851 36.7568 223.753 36.733 223.643L34.033 210.757C34.0173 210.686 34.0177 210.613 34.034 210.543C34.0503 210.473 34.0823 210.407 34.1274 210.351C34.1737 210.295 34.2314 210.251 34.2966 210.22C34.3618 210.189 34.4329 210.172 34.505 210.171H52.3759C52.4483 210.171 52.5199 210.187 52.5854 210.218C52.6509 210.249 52.7087 210.294 52.7547 210.35C52.8007 210.406 52.8338 210.472 52.8516 210.542C52.8693 210.612 52.8713 210.686 52.8573 210.757L50.1479 223.643C50.1261 223.752 50.0671 223.85 49.9811 223.921C49.895 223.991 49.7872 224.03 49.6759 224.03ZM37.6109 223.086H49.2794L51.8189 211.144H35.1092L37.6109 223.086Z" fill="#2B2B2B"/>
<path d="M42.9921 195.482C42.9921 195.482 45.0595 191.479 48.156 190.488C51.2525 189.497 55.293 188.6 54.113 185.399C52.9329 182.199 46.7966 181.68 44.2476 184.908C41.6987 188.137 42.5578 194.122 42.9921 195.482Z" fill="#2B2B2B"/>
<path d="M43.4451 199.645C43.4451 199.645 45.1633 195.359 48.5902 194.557C52.0171 193.754 53.1216 195.982 52.0643 197.842C51.007 199.702 44.9273 198.087 43.4451 199.645Z" fill="#2B2B2B"/>
<path d="M43.4451 197.483C43.1671 196.401 42.6678 195.389 41.9789 194.51C41.2899 193.631 40.4263 192.904 39.4423 192.376C36.2609 190.856 33.6364 192.905 34.3917 194.623C35.1469 196.341 37.9791 195.727 39.8577 196.246C41.0752 196.593 42.2728 197.006 43.4451 197.483Z" fill="#2B2B2B"/>
<path d="M43.2657 205.659C44.4367 204.151 45.997 202.993 47.7783 202.307C50.7615 201.146 53.1027 202.6 52.4985 204.28C51.158 208.396 45.0406 204.28 43.2657 205.659Z" fill="#2B2B2B"/>
<path d="M43.5867 203.695C43.5867 203.695 42.6427 199.324 38.4133 198.673C34.184 198.021 33.0511 200.74 33.6364 202.496C34.2217 204.252 37.2332 203.044 38.7909 202.817C40.3486 202.591 43.5867 203.695 43.5867 203.695Z" fill="#2B2B2B"/>
</g>
<defs>
<clipPath id="clip0_5217_660">
<rect width="300" height="300" fill="white"/>
</clipPath>
</defs>
</svg>
