<svg width="300" height="300" viewBox="0 0 300 300" fill="none" xmlns="http://www.w3.org/2000/svg">
<path d="M150 234.099C232.843 234.099 300 229.539 300 223.914C300 218.288 232.843 213.728 150 213.728C67.1573 213.728 0 218.288 0 223.914C0 229.539 67.1573 234.099 150 234.099Z" fill="#D9D9D9"/>
<path d="M234.259 60.9506H75C69.8862 60.9506 65.7407 65.0961 65.7407 70.2098V220.21H243.518V70.2098C243.518 65.0961 239.373 60.9506 234.259 60.9506Z" fill="white"/>
<path fill-rule="evenodd" clip-rule="evenodd" d="M234.259 62.3395H75C70.6533 62.3395 67.1296 65.8631 67.1296 70.2098V218.821H242.13V70.2098C242.13 65.8631 238.606 62.3395 234.259 62.3395ZM75 60.9506H234.259C239.373 60.9506 243.518 65.0961 243.518 70.2098V220.21H65.7407V70.2098C65.7407 65.0961 69.8862 60.9506 75 60.9506Z" fill="#2B2B2B"/>
<path d="M234.259 60.9506H75C69.8862 60.9506 65.7407 65.0961 65.7407 70.2098V79.4691H243.518V70.2098C243.518 65.0961 239.373 60.9506 234.259 60.9506Z" fill="#2B2B2B"/>
<path fill-rule="evenodd" clip-rule="evenodd" d="M234.259 61.8765H75C70.3976 61.8765 66.6666 65.6074 66.6666 70.2098V78.5432H242.593V70.2098C242.593 65.6074 238.862 61.8765 234.259 61.8765ZM75 60.9506H234.259C239.373 60.9506 243.518 65.0961 243.518 70.2098V79.4691H65.7407V70.2098C65.7407 65.0961 69.8862 60.9506 75 60.9506Z" fill="#2B2B2B"/>
<path d="M80.5555 70.2098C80.5555 72.2549 78.897 73.9135 76.8518 73.9135C74.8067 73.9135 73.1481 72.2549 73.1481 70.2098C73.1481 68.1647 74.8067 66.5061 76.8518 66.5061C78.897 66.5061 80.5555 68.1647 80.5555 70.2098Z" fill="#3369FF"/>
<path d="M92.5926 70.2098C92.5926 72.2549 90.934 73.9135 88.8889 73.9135C86.8437 73.9135 85.1852 72.2549 85.1852 70.2098C85.1852 68.1647 86.8437 66.5061 88.8889 66.5061C90.934 66.5061 92.5926 68.1647 92.5926 70.2098Z" fill="#D9D9D9"/>
<path d="M104.63 70.2098C104.63 72.2549 102.971 73.9135 100.926 73.9135C98.8808 73.9135 97.2222 72.2549 97.2222 70.2098C97.2222 68.1647 98.8808 66.5061 100.926 66.5061C102.971 66.5061 104.63 68.1647 104.63 70.2098Z" fill="#D9D9D9"/>
<path d="M217.32 134.295C218.169 132.151 216.968 130.395 214.661 130.395H129.517C127.205 130.395 124.626 132.151 123.776 134.295L104.903 182.051C104.053 184.195 105.255 185.951 107.561 185.951H192.705C195.017 185.951 197.596 184.195 198.446 182.051L217.32 134.295Z" fill="white"/>
<path fill-rule="evenodd" clip-rule="evenodd" d="M216.028 133.784L216.028 133.783C216.322 133.042 216.195 132.57 216.027 132.324C215.858 132.076 215.462 131.784 214.661 131.784H129.517C128.696 131.784 127.74 132.104 126.879 132.69C126.018 133.275 125.369 134.045 125.068 134.806L106.194 182.563C105.9 183.304 106.027 183.775 106.195 184.022C106.365 184.269 106.76 184.562 107.561 184.562H192.705C193.526 184.562 194.482 184.241 195.343 183.656C196.204 183.071 196.853 182.3 197.155 181.539L216.028 133.784ZM217.32 134.295C218.169 132.151 216.968 130.395 214.661 130.395H129.517C127.205 130.395 124.626 132.151 123.776 134.295L104.903 182.051C104.053 184.195 105.255 185.951 107.561 185.951H192.705C195.017 185.951 197.596 184.195 198.446 182.051L217.32 134.295Z" fill="#2B2B2B"/>
<path d="M100.612 178.382L119.594 130.075C120.449 127.907 123.043 126.131 125.368 126.131H192.593V121.849C192.593 119.516 190.694 117.611 188.369 117.611H158.382C156.057 117.611 153.249 115.933 152.144 113.887L148.061 106.341C146.95 104.289 144.143 102.617 141.823 102.617H103.298C100.972 102.617 99.0741 104.522 99.0741 106.856V178.088C99.0741 180.134 100.539 181.855 102.474 182.247C100.704 181.873 99.8798 180.281 100.624 178.388L100.612 178.382Z" fill="white"/>
<path fill-rule="evenodd" clip-rule="evenodd" d="M99.1042 178.593C99.0988 178.548 99.0941 178.503 99.0902 178.458C99.0795 178.336 99.0741 178.213 99.0741 178.088V106.856C99.0741 104.522 100.972 102.617 103.298 102.617H141.823C144.143 102.617 146.95 104.289 148.061 106.341L152.144 113.887C153.249 115.933 156.057 117.611 158.382 117.611H188.369C190.694 117.611 192.593 119.516 192.593 121.849V126.131H125.368C123.043 126.131 120.449 127.907 119.594 130.075L100.612 178.382L100.624 178.388C100.587 178.484 100.553 178.578 100.524 178.672C99.9652 180.438 100.793 181.892 102.474 182.247C100.918 181.932 99.6657 180.757 99.2351 179.245C99.175 179.034 99.1309 178.816 99.1042 178.593ZM191.204 124.742H125.368C123.869 124.742 122.371 125.306 121.146 126.143C119.921 126.981 118.851 128.172 118.302 129.566L118.302 129.567L100.463 174.964V106.856C100.463 105.285 101.744 104.006 103.298 104.006H141.823C142.673 104.006 143.711 104.322 144.684 104.903C145.656 105.483 146.431 106.248 146.84 107.002L150.922 114.547M191.204 124.742V121.849C191.204 120.278 189.923 119 188.369 119H158.382C156.909 119 155.382 118.478 154.093 117.709C152.805 116.939 151.622 115.843 150.923 114.548" fill="#2B2B2B"/>
<path d="M162.963 143.358C154.268 143.358 147.222 150.611 147.222 159.562C147.222 168.512 154.268 175.765 162.963 175.765C171.658 175.765 178.704 168.512 178.704 159.562C178.704 150.611 171.658 143.358 162.963 143.358ZM170.665 165.149L168.396 167.484L162.963 161.891L157.53 167.484L155.261 165.149L160.695 159.556L155.261 153.962L157.53 151.627L162.963 157.22L168.396 151.627L170.665 153.962L165.231 159.556L170.665 165.149Z" fill="#F47971"/>
<path d="M231.322 195.991L150.54 219.048C149.081 219.465 148.235 220.986 148.652 222.445C149.068 223.905 150.589 224.75 152.049 224.334L232.831 201.277C234.29 200.86 235.136 199.339 234.719 197.88C234.303 196.42 232.782 195.574 231.322 195.991Z" fill="#2B2B2B"/>
<path d="M233.962 195.24L194.716 206.442L196.224 211.727L235.471 200.525L233.962 195.24Z" fill="#2B2B2B"/>
<path d="M237.071 225.301C252.232 224.012 263.477 210.677 262.188 195.516C260.899 180.355 247.564 169.109 232.403 170.399C217.242 171.688 205.997 185.023 207.286 200.184C208.575 215.345 221.91 226.59 237.071 225.301Z" fill="#2B2B2B"/>
<path d="M254.99 206.902C259.977 195.717 254.952 182.606 243.767 177.619C232.581 172.632 219.47 177.656 214.483 188.842C209.496 200.028 214.521 213.139 225.706 218.126C236.892 223.113 250.003 218.088 254.99 206.902Z" fill="#F6F6F6"/>
<path d="M251.846 193.498L249.106 194.284C246.815 186.226 238.428 181.547 230.412 183.842L229.63 181.09C239.16 178.358 249.132 183.924 251.852 193.498H251.846Z" fill="white"/>
<path d="M268.719 92.765C268.486 92.3439 268.097 92.0304 267.636 91.8911L243.628 84.6337C242.651 84.3381 241.618 84.8901 241.321 85.8674L226.466 134.703C226.168 135.683 226.722 136.719 227.702 137.015L265.332 148.379C266.309 148.674 267.342 148.122 267.639 147.145L278.475 111.506C278.621 111.026 278.566 110.507 278.323 110.069L268.719 92.765Z" fill="white"/>
<path fill-rule="evenodd" clip-rule="evenodd" d="M267.234 93.2205L243.227 85.9631C242.982 85.8892 242.724 86.0272 242.65 86.2716L227.795 135.107C227.72 135.352 227.859 135.611 228.104 135.685L265.733 147.05C265.978 147.123 266.236 146.985 266.31 146.741L277.147 111.102C277.183 110.982 277.169 110.852 277.108 110.743L267.505 93.439C267.446 93.3338 267.349 93.2554 267.234 93.2205ZM267.636 91.8911C268.097 92.0304 268.486 92.3439 268.719 92.765L278.323 110.069C278.566 110.507 278.621 111.026 278.475 111.506L267.639 147.145C267.342 148.122 266.309 148.674 265.332 148.379L227.702 137.015C226.722 136.719 226.168 135.683 226.466 134.703L241.321 85.8674C241.618 84.8901 242.651 84.3381 243.628 84.6337L267.636 91.8911Z" fill="#2B2B2B"/>
<path d="M265.741 112.823L263.86 109.309L255.446 113.812L250.944 105.395L247.432 107.27L251.933 115.687L243.519 120.19L245.399 123.703L253.814 119.2L258.309 127.617L261.822 125.736L257.326 117.319L265.741 112.823Z" fill="#F47971"/>
<path d="M206.166 37.2528C205.752 37.0114 205.262 36.9394 204.796 37.0519L180.51 42.9252C179.513 43.1662 178.902 44.1711 179.147 45.1668L191.221 94.3438C191.465 95.3345 192.463 95.9419 193.455 95.7022L231.527 86.4993C232.524 86.2584 233.135 85.2535 232.89 84.2578L224.081 48.371C223.961 47.884 223.65 47.4664 223.217 47.2134L206.166 37.2528Z" fill="white"/>
<path fill-rule="evenodd" clip-rule="evenodd" d="M205.123 38.4019L180.836 44.2752C180.587 44.3355 180.435 44.5867 180.496 44.8356L192.57 94.0126C192.631 94.2603 192.881 94.4121 193.129 94.3522L231.201 85.1493C231.45 85.089 231.603 84.8378 231.541 84.5889L222.732 48.7021C222.702 48.5803 222.624 48.4759 222.516 48.4127L205.465 38.4521C205.362 38.3917 205.239 38.3737 205.123 38.4019ZM204.796 37.0519C205.262 36.9394 205.752 37.0114 206.166 37.2528L223.217 47.2134C223.65 47.4664 223.961 47.884 224.081 48.371L232.89 84.2578C233.135 85.2535 232.524 86.2584 231.527 86.4993L193.455 95.7022C192.463 95.9419 191.465 95.3345 191.221 94.3438L179.147 45.1668C178.902 44.1711 179.513 43.1662 180.51 42.9252L204.796 37.0519Z" fill="#2B2B2B"/>
<path d="M213.41 55.654L209.936 53.5432L204.878 61.8626L196.556 56.8054L194.444 60.278L202.766 65.3352L197.701 73.6546L201.175 75.7654L206.234 67.446L214.555 72.5033L216.667 69.0307L208.351 63.9734L213.41 55.654Z" fill="#F47971"/>
<path d="M109.259 220.673C109.259 225.024 90.5996 228.543 63.4259 228.543C36.2522 228.543 17.5926 225.018 17.5926 220.673C17.5926 216.328 36.2522 212.802 63.4259 212.802C90.5996 212.802 109.259 216.328 109.259 220.673Z" fill="#2B2B2B"/>
<path d="M76.3892 125.765H50.4626L30.5555 219.407C47.0637 222.988 63.4259 222.988 63.4259 222.988C63.4259 222.988 79.7881 222.988 96.2963 219.407L76.3892 125.765Z" fill="#3369FF"/>
<path d="M63.8889 127.617C71.0481 127.617 76.8518 126.788 76.8518 125.765C76.8518 124.743 71.0481 123.914 63.8889 123.914C56.7296 123.914 50.9259 124.743 50.9259 125.765C50.9259 126.788 56.7296 127.617 63.8889 127.617Z" fill="#2B2B2B"/>
<mask id="mask0_5886_217" style="mask-type:luminance" maskUnits="userSpaceOnUse" x="30" y="126" width="67" height="97">
<path d="M76.515 126.034H50.5596L30.6304 219.149C47.1569 222.71 63.5373 222.71 63.5373 222.71C63.5373 222.71 79.9177 222.71 96.4442 219.149L76.515 126.034Z" fill="white"/>
</mask>
<g mask="url(#mask0_5886_217)">
<path d="M62.9713 215.052C36.255 215.052 18.2128 210.584 17.0928 210.304L20.812 195.665L18.9555 202.982L20.8059 195.659C21.1894 195.756 59.6965 205.191 106.689 195.58L109.714 210.377C92.6033 213.877 76.6551 215.046 62.9774 215.046L62.9713 215.052Z" fill="#ECECEC"/>
<path fill-rule="evenodd" clip-rule="evenodd" d="M62.9774 215.046C76.2917 215.046 91.7574 213.939 108.353 210.651C108.787 210.565 109.222 210.478 109.658 210.389C109.677 210.385 109.696 210.381 109.714 210.377L106.689 195.58C106.675 195.582 106.661 195.585 106.647 195.588C59.7475 205.17 21.3107 195.786 20.808 195.659C20.8072 195.659 20.8065 195.659 20.8059 195.659L20.8049 195.663L19.3801 201.301L17.0928 210.304C17.2436 210.342 17.7009 210.456 18.4446 210.624C23.2268 211.706 39.8509 215.052 62.9713 215.052L62.9774 215.046ZM62.3976 213.663L62.403 213.657H62.9774C76.2136 213.657 91.5846 212.556 108.074 209.291L105.605 197.214C63.8506 205.46 29.0299 198.878 21.8261 197.316L20.3017 203.323L20.2995 203.323L18.7867 209.277C23.5054 210.343 39.763 213.608 62.3976 213.663Z" fill="#2B2B2B"/>
<path d="M62.9713 182.194C36.255 182.194 18.2128 177.726 17.0928 177.446L20.812 162.807L18.9555 170.123L20.8059 162.801C21.1894 162.898 59.6965 172.333 106.689 162.721L109.714 177.519C92.6033 181.019 76.6551 182.188 62.9774 182.188L62.9713 182.194Z" fill="#ECECEC"/>
<path fill-rule="evenodd" clip-rule="evenodd" d="M62.9774 182.188C76.2917 182.188 91.7574 181.081 108.353 177.793C108.787 177.707 109.222 177.62 109.658 177.531C109.677 177.527 109.696 177.523 109.714 177.519L106.689 162.721C106.675 162.724 106.661 162.727 106.647 162.73C59.7478 172.312 21.3111 162.928 20.808 162.801C20.8072 162.801 20.8065 162.801 20.8059 162.801L20.8049 162.805L19.3795 168.445L17.0928 177.446C17.2436 177.484 17.7009 177.597 18.4446 177.766C23.2268 178.848 39.8509 182.194 62.9713 182.194L62.9774 182.188ZM62.3964 180.805L62.4018 180.799H62.9774C76.2136 180.799 91.5846 179.698 108.074 176.433L105.605 164.356C63.8506 172.602 29.0299 166.02 21.8261 164.457L20.3017 170.465L20.2996 170.464L18.7867 176.419C23.5053 177.485 39.7624 180.75 62.3964 180.805Z" fill="#2B2B2B"/>
<path d="M62.9712 149.336C36.2549 149.336 18.2127 144.868 17.0927 144.588L20.8119 129.949L18.9553 137.265L20.8058 129.943C21.1893 130.04 59.6963 139.475 106.689 129.863L109.714 144.661C92.6032 148.161 76.655 149.33 62.9773 149.33L62.9712 149.336Z" fill="#ECECEC"/>
<path fill-rule="evenodd" clip-rule="evenodd" d="M62.9773 149.33C76.2915 149.33 91.7572 148.223 108.353 144.935C108.788 144.849 109.224 144.761 109.661 144.672C109.679 144.668 109.696 144.665 109.714 144.661L106.689 129.863C106.675 129.866 106.661 129.869 106.647 129.872C59.7474 139.454 21.3105 130.07 20.8079 129.943C20.8071 129.943 20.8064 129.943 20.8058 129.943L20.8048 129.947L19.3797 135.586L17.0927 144.588C17.2434 144.626 17.7007 144.739 18.4445 144.908C23.2266 145.99 39.8508 149.336 62.9712 149.336L62.9773 149.33ZM62.3969 147.946L62.4023 147.941H62.9773C76.2135 147.941 91.5844 146.84 108.074 143.575L105.605 131.498C63.8505 139.744 29.0298 133.162 21.8259 131.599L20.3016 137.607L20.2994 137.606L18.7866 143.561C23.5053 144.627 39.7626 147.892 62.3969 147.946Z" fill="#2B2B2B"/>
</g>
<g opacity="0.3">
<path d="M51.9656 140.4C51.4908 142.689 51.016 144.977 50.5412 147.266C49.4029 152.763 48.2646 158.259 47.1202 163.756C45.7324 170.44 44.3506 177.117 42.9627 183.801C41.7697 189.553 40.5766 195.299 39.3896 201.052C38.8113 203.834 38.0991 206.628 37.6487 209.434C37.6426 209.47 37.6304 209.513 37.6243 209.549C37.1496 211.85 40.7349 212.502 41.2096 210.207C41.6844 207.918 42.1592 205.629 42.634 203.341C43.7723 197.844 44.9106 192.347 46.055 186.851C47.4428 180.167 48.8246 173.489 50.2125 166.806C51.4056 161.053 52.5986 155.307 53.7856 149.555C54.3639 146.773 55.0761 143.979 55.5265 141.173C55.5326 141.136 55.5448 141.094 55.5509 141.057C56.0257 138.756 52.4404 138.105 51.9656 140.4Z" fill="white"/>
</g>
<path fill-rule="evenodd" clip-rule="evenodd" d="M49.2175 130.641C49.5928 130.721 49.8328 131.089 49.7536 131.464C47.4386 142.43 43.9199 159.015 40.8873 173.131C39.371 180.189 37.976 186.631 36.9137 191.446C36.3826 193.853 35.9342 195.855 35.5953 197.324C35.2619 198.77 35.0238 199.748 34.9169 200.063C34.7936 200.426 34.3993 200.62 34.0361 200.497C33.6729 200.374 33.4784 199.979 33.6017 199.616C33.68 199.386 33.899 198.498 34.242 197.012C34.5794 195.549 35.0266 193.552 35.5574 191.147C36.6189 186.336 38.0133 179.897 39.5294 172.839C42.5616 158.725 46.0799 142.142 48.3946 131.177C48.4738 130.802 48.8423 130.562 49.2175 130.641Z" fill="black"/>
<path fill-rule="evenodd" clip-rule="evenodd" d="M85.97 169.53C86.3455 169.452 86.7131 169.693 86.791 170.069L96.9762 219.143C97.0542 219.518 96.8129 219.886 96.4374 219.964C96.0619 220.042 95.6943 219.801 95.6163 219.425L85.4311 170.351C85.3532 169.975 85.5944 169.608 85.97 169.53Z" fill="black"/>
</svg>
