<svg width="300" height="300" viewBox="0 0 300 300" fill="none" xmlns="http://www.w3.org/2000/svg">
<g clip-path="url(#clip0_11437_100074)">
<path d="M33.2417 276.667H129.296C137.782 276.667 144.66 269.789 144.66 261.304L144.66 52.8823C144.66 44.3971 137.782 37.5186 129.296 37.5186H33.2417C24.7565 37.5186 17.8779 44.3971 17.8779 52.8823L17.8779 261.304C17.8779 269.789 24.7565 276.667 33.2417 276.667Z" fill="black"/>
<path d="M129.296 277.732H33.2416C24.1826 277.732 16.8125 270.362 16.8125 261.303V52.8821C16.8125 43.8231 24.1826 36.4526 33.2416 36.4526H129.296C138.355 36.4526 145.726 43.8227 145.726 52.8821V261.303C145.726 270.362 138.355 277.732 129.296 277.732ZM33.2416 38.5834C25.3573 38.5834 18.9433 44.9978 18.9433 52.8821V261.303C18.9433 269.188 25.3573 275.602 33.2416 275.602H129.296C137.181 275.602 143.595 269.188 143.595 261.303V52.8821C143.595 44.9978 137.18 38.5834 129.296 38.5834H33.2416Z" fill="black"/>
<path d="M39.634 276.675H135.689C144.174 276.675 151.052 269.796 151.052 261.311L151.052 52.8896C151.052 44.4044 144.174 37.5259 135.689 37.5259H39.634C31.1488 37.5259 24.2702 44.4044 24.2702 52.8896L24.2702 261.311C24.2702 269.796 31.1488 276.675 39.634 276.675Z" fill="white"/>
<path d="M135.689 277.74H39.634C30.5749 277.74 23.2048 270.37 23.2048 261.311V52.8899C23.2048 43.8309 30.5749 36.4604 39.634 36.4604H135.689C144.748 36.4604 152.118 43.8305 152.118 52.8899V261.311C152.118 270.37 144.748 277.74 135.689 277.74ZM39.634 38.5912C31.7497 38.5912 25.3356 45.0056 25.3356 52.8899V261.311C25.3356 269.195 31.7497 275.609 39.634 275.609H135.689C143.573 275.609 149.987 269.195 149.987 261.311V52.8899C149.987 45.0056 143.573 38.5912 135.689 38.5912H39.634Z" fill="black"/>
<path d="M104.175 47.2327H71.1477C70.3632 47.2327 69.7272 46.5966 69.7272 45.8121C69.7272 45.0276 70.3632 44.3916 71.1477 44.3916H104.175C104.959 44.3916 105.596 45.0276 105.596 45.8121C105.596 46.5966 104.959 47.2327 104.175 47.2327Z" fill="black"/>
<path d="M160.552 263.331H62.8604C53.2647 263.331 45.4742 255.54 45.4742 245.945L45.4742 64.4418C45.4742 54.8461 53.2647 47.0556 62.8604 47.0556H160.552C170.148 47.0556 177.939 54.8461 177.939 64.4422L177.939 245.945C177.939 255.541 170.148 263.332 160.552 263.332V263.331Z" fill="#003BE0"/>
<path d="M56.3057 111.271C56.2077 111.271 56.1282 111.192 56.1282 111.094V79.7275H91.1876C91.2856 79.7275 91.3651 79.8071 91.3651 79.9051C91.3651 80.0031 91.2856 80.0827 91.1876 80.0827H56.4833V111.094C56.4833 111.192 56.4038 111.271 56.3057 111.271Z" fill="black"/>
<path d="M91.1876 230.659H56.1282V191.906C56.1282 191.808 56.2077 191.729 56.3057 191.729C56.4038 191.729 56.4833 191.808 56.4833 191.906V230.304H91.1876C91.2856 230.304 91.3651 230.383 91.3651 230.481C91.3651 230.579 91.2856 230.659 91.1876 230.659Z" fill="black"/>
<path d="M167.285 230.659H132.225C132.127 230.659 132.048 230.579 132.048 230.481C132.048 230.383 132.127 230.304 132.225 230.304H166.929V191.906C166.929 191.808 167.009 191.729 167.107 191.729C167.205 191.729 167.285 191.808 167.285 191.906V230.659Z" fill="black"/>
<path d="M167.107 111.271C167.009 111.271 166.929 111.192 166.929 111.094V80.0827H132.225C132.127 80.0827 132.048 80.0031 132.048 79.9051C132.048 79.8071 132.127 79.7275 132.225 79.7275H167.285V111.094C167.285 111.192 167.205 111.271 167.107 111.271Z" fill="black"/>
<path d="M83.8649 164.042C83.595 164.042 83.3369 163.887 83.2179 163.625C82.9501 163.036 82.6891 162.424 82.4423 161.807C82.1703 161.127 81.9522 160.355 81.7938 159.514C81.721 159.129 81.9749 158.758 82.3602 158.685C82.7438 158.613 83.117 158.866 83.1898 159.252C83.3312 160.002 83.5233 160.685 83.7612 161.28C83.9999 161.876 84.252 162.468 84.5113 163.037C84.6736 163.395 84.5156 163.815 84.1586 163.978C84.0631 164.021 83.9633 164.042 83.8649 164.042Z" fill="white"/>
<path d="M90.6633 173.761C90.4946 173.761 90.3253 173.701 90.1896 173.58C87.4519 171.128 85.1062 167.779 83.2183 163.626C83.056 163.269 83.2141 162.848 83.571 162.685C83.9282 162.523 84.3491 162.681 84.5117 163.038C86.3176 167.011 88.5471 170.202 91.1374 172.522C91.4297 172.783 91.4542 173.232 91.1925 173.525C91.0522 173.681 90.8583 173.761 90.6633 173.761Z" fill="white"/>
<path d="M109.855 180.158C104.678 180.158 99.4301 178.931 94.6265 176.591C94.2739 176.419 94.1272 175.994 94.2991 175.641C94.4706 175.288 94.8954 175.141 95.2487 175.314C100.103 177.679 105.428 178.861 110.644 178.727C111.051 178.717 111.363 179.028 111.372 179.42C111.382 179.812 111.072 180.138 110.68 180.148C110.405 180.154 110.131 180.158 109.855 180.158Z" fill="white"/>
<path d="M117.308 179.218C116.994 179.218 116.706 179.008 116.622 178.69C116.522 178.31 116.748 177.922 117.127 177.821C122.336 176.444 126.745 173.515 129.877 169.35C134.169 163.645 135.536 155.784 133.447 148.836C133.334 148.46 133.547 148.064 133.923 147.951C134.299 147.838 134.694 148.051 134.807 148.427C137.025 155.8 135.571 164.144 131.012 170.204C127.687 174.626 123.011 177.735 117.49 179.195C117.43 179.211 117.369 179.218 117.308 179.218Z" fill="white"/>
<path d="M131.222 143.217C130.994 143.217 130.771 143.108 130.633 142.907C129.344 141.01 127.751 139.333 125.898 137.923C117.243 131.335 101.766 132.558 95.7886 140.301C95.5489 140.612 95.1028 140.669 94.7924 140.43C94.482 140.19 94.4245 139.744 94.6642 139.434C101.061 131.147 117.558 129.789 126.758 136.792C128.733 138.296 130.432 140.084 131.808 142.108C132.029 142.432 131.944 142.874 131.62 143.095C131.498 143.178 131.359 143.217 131.222 143.217Z" fill="white"/>
<path d="M110.515 172.522C106.436 172.522 102.43 171.34 99.3733 169.211C91.2717 163.566 88.5379 155.182 91.6751 145.603C91.7973 145.23 92.1982 145.028 92.5714 145.149C92.9443 145.271 93.1475 145.672 93.0253 146.045C90.1001 154.977 92.6428 162.79 100.185 168.045C103.272 170.196 107.426 171.3 111.582 171.072C111.97 171.053 112.308 171.351 112.33 171.743C112.351 172.134 112.051 172.469 111.659 172.491C111.278 172.511 110.896 172.522 110.515 172.522Z" fill="white"/>
<path d="M117.35 171.306C117.063 171.306 116.793 171.131 116.685 170.847C116.546 170.48 116.731 170.071 117.098 169.931C119.861 168.885 123.513 166.67 125.227 162.058C126.959 157.395 127.097 153.384 125.661 149.436C124.728 146.872 123.02 144.743 120.585 143.109C120.259 142.891 120.172 142.449 120.39 142.123C120.609 141.797 121.05 141.71 121.376 141.929C124.067 143.734 125.959 146.097 126.996 148.951C128.554 153.234 128.415 157.556 126.559 162.553C125.077 166.542 121.896 169.634 117.602 171.26C117.519 171.292 117.434 171.306 117.35 171.306L117.35 171.306Z" fill="white"/>
<path d="M100.599 161.224C100.391 161.224 100.185 161.133 100.044 160.959C96.9406 157.089 96.2677 151.073 98.4073 146.328C101.269 139.983 108.962 137.661 114.748 139.084C115.464 139.259 116.172 139.468 116.853 139.706C117.224 139.835 117.42 140.239 117.29 140.61C117.162 140.981 116.756 141.177 116.386 141.047C115.747 140.825 115.082 140.628 114.41 140.463C109.189 139.179 102.26 141.242 99.7025 146.912C97.804 151.122 98.4141 156.655 101.153 160.07C101.398 160.376 101.349 160.823 101.043 161.069C100.912 161.174 100.755 161.225 100.599 161.225L100.599 161.224Z" fill="white"/>
<path d="M109.665 165.415C107.833 165.415 105.974 165.017 104.251 164.214C103.895 164.048 103.741 163.625 103.907 163.27C104.073 162.914 104.496 162.761 104.851 162.926C108.223 164.498 112.169 164.328 115.148 162.483C116.84 161.436 118.092 159.544 118.583 157.292C119.102 154.908 118.699 152.413 117.504 150.616C116.31 148.823 113.445 147.601 110.988 147.831C109.658 147.956 107.885 148.551 106.987 150.676C106.254 152.413 107.114 153.98 108.292 154.762C109.353 155.466 111.082 155.785 112.466 154.365C112.739 154.085 113.189 154.079 113.47 154.353C113.751 154.626 113.756 155.076 113.483 155.357C111.62 157.268 109.139 157.03 107.507 155.946C105.84 154.839 104.628 152.61 105.678 150.123C106.592 147.961 108.43 146.645 110.854 146.417C113.837 146.139 117.205 147.603 118.686 149.829C120.111 151.971 120.579 154.802 119.97 157.595C119.398 160.22 117.913 162.442 115.895 163.691C114.047 164.836 111.875 165.414 109.665 165.414L109.665 165.415Z" fill="white"/>
<path d="M102.658 201.878C102.639 201.878 102.621 201.877 102.603 201.876C95.4821 201.328 89.6739 198.745 84.3352 196.146C79.1063 193.6 72.0583 187.493 68.6242 182.532C68.4008 182.21 68.4814 181.767 68.8039 181.544C69.1267 181.321 69.5688 181.401 69.7922 181.723C73.1095 186.516 79.9124 192.413 84.9571 194.868C90.1729 197.407 95.8401 199.931 102.712 200.459C103.103 200.49 103.395 200.831 103.365 201.222C103.337 201.594 103.025 201.878 102.658 201.878H102.658Z" fill="white"/>
<path d="M110.663 202.08C110.28 202.08 109.964 201.775 109.953 201.39C109.941 200.998 110.25 200.671 110.642 200.66C122.884 200.297 133.379 196.646 141.834 189.809C145.919 186.506 149.159 182.095 151.467 176.697C151.621 176.336 152.037 176.169 152.399 176.323C152.76 176.477 152.927 176.895 152.773 177.255C150.373 182.869 146.994 187.464 142.727 190.913C134.025 197.951 123.244 201.707 110.684 202.079C110.677 202.079 110.67 202.079 110.663 202.079L110.663 202.08Z" fill="white"/>
<path d="M154.005 172.412C153.938 172.412 153.871 172.403 153.804 172.383C153.428 172.272 153.212 171.877 153.323 171.501C154.75 166.662 155.619 161.204 155.98 154.814C156.656 142.85 153.419 133.676 145.485 125.07C145.219 124.782 145.238 124.333 145.526 124.067C145.814 123.801 146.264 123.819 146.53 124.107C154.746 133.019 158.098 142.514 157.398 154.894C157.031 161.394 156.144 166.958 154.686 171.903C154.595 172.212 154.312 172.412 154.005 172.412Z" fill="white"/>
<path d="M142.28 121.601C142.109 121.601 141.938 121.539 141.801 121.414C134.723 114.941 125.104 111.467 112.396 110.793C107.437 110.53 101.802 111.255 97.32 112.734C96.9478 112.857 96.5458 112.655 96.4229 112.282C96.3 111.909 96.5024 111.508 96.875 111.385C101.515 109.854 107.345 109.102 112.471 109.374C125.521 110.067 135.428 113.662 142.759 120.366C143.049 120.631 143.069 121.08 142.804 121.37C142.664 121.523 142.472 121.601 142.28 121.601H142.28Z" fill="white"/>
<path d="M67.3681 145.773C67.3226 145.773 67.2764 145.768 67.2299 145.759C66.8449 145.683 66.5946 145.31 66.6706 144.925C68.1799 137.273 71.94 130.427 78.1662 123.997C81.3475 120.711 85.5221 117.453 90.2386 114.575C90.5735 114.37 91.0103 114.477 91.2148 114.811C91.4194 115.146 91.3136 115.583 90.9787 115.787C86.363 118.604 82.2857 121.784 79.1869 124.985C73.1574 131.212 69.5191 137.824 68.0645 145.199C67.9977 145.538 67.7008 145.772 67.3681 145.772V145.773Z" fill="white"/>
<path d="M68.1018 166.291C67.7893 166.291 67.503 166.083 67.4171 165.768C66.3851 161.987 65.9248 157.987 65.9248 152.795C65.9248 152.403 66.243 152.085 66.6351 152.085C67.0271 152.085 67.3453 152.403 67.3453 152.795C67.3453 157.855 67.79 161.74 68.7875 165.393C68.8909 165.772 68.6678 166.162 68.2896 166.265C68.2271 166.282 68.1639 166.291 68.1021 166.291L68.1018 166.291Z" fill="white"/>
<path d="M107.562 195.931C107.557 195.931 107.553 195.931 107.549 195.931C96.1076 195.725 84.2852 190.696 77.4297 183.119C74.0851 179.422 71.5747 175.788 69.7546 172.01C69.5845 171.657 69.7326 171.233 70.0863 171.062C70.44 170.892 70.8644 171.04 71.0345 171.394C72.7949 175.048 75.2311 178.571 78.4834 182.165C85.0885 189.466 96.5074 194.311 107.575 194.511C107.967 194.518 108.279 194.841 108.272 195.234C108.265 195.621 107.948 195.931 107.562 195.931L107.562 195.931Z" fill="white"/>
<path d="M115.682 195.265C115.338 195.265 115.036 195.014 114.981 194.664C114.92 194.277 115.185 193.913 115.573 193.853C124.181 192.506 130.079 189.87 135.932 184.755C136.228 184.497 136.676 184.527 136.934 184.822C137.192 185.118 137.162 185.566 136.867 185.824C130.794 191.132 124.689 193.865 115.793 195.256C115.756 195.262 115.718 195.265 115.682 195.265Z" fill="white"/>
<path d="M140.222 182.323C140.046 182.323 139.869 182.258 139.731 182.126C139.448 181.855 139.438 181.405 139.709 181.122C144.067 176.566 147.255 170.153 148.028 164.385C148.609 160.05 149.122 153.736 148.269 148.273C147.087 140.705 144.199 135.009 138.906 129.805C138.626 129.53 138.622 129.08 138.897 128.8C139.172 128.52 139.622 128.517 139.902 128.791C145.352 134.15 148.457 140.271 149.672 148.054C150.551 153.685 150.029 160.145 149.436 164.573C148.613 170.716 145.36 177.269 140.736 182.103C140.596 182.249 140.409 182.322 140.222 182.322V182.323Z" fill="white"/>
<path d="M135.127 126.298C134.975 126.298 134.822 126.25 134.692 126.149C133.591 125.296 132.375 124.417 131.076 123.537C121.21 116.855 106.366 116.007 95.78 121.52C94.753 122.055 93.7281 122.648 92.7337 123.281C92.4031 123.492 91.9634 123.395 91.7532 123.064C91.5422 122.733 91.6395 122.294 91.9705 122.083C92.9997 121.428 94.0605 120.815 95.1241 120.26C100.508 117.457 107.145 116.126 113.812 116.513C120.461 116.899 126.875 118.976 131.872 122.361C133.196 123.257 134.438 124.155 135.563 125.027C135.873 125.268 135.929 125.714 135.689 126.024C135.549 126.204 135.339 126.298 135.127 126.298Z" fill="white"/>
<path d="M78.6197 170.775C78.3669 170.775 78.1222 170.64 77.994 170.402C73.9213 162.849 72.5644 154.353 74.1731 146.478C75.7542 138.738 80.4398 131.274 87.3663 125.462C87.6671 125.21 88.1149 125.249 88.367 125.549C88.6192 125.85 88.5801 126.298 88.2793 126.55C81.5975 132.157 77.082 139.335 75.5645 146.763C74.0225 154.312 75.3291 162.468 79.244 169.728C79.4301 170.073 79.3012 170.504 78.956 170.69C78.8488 170.748 78.7334 170.775 78.6197 170.775V170.775Z" fill="white"/>
<path d="M81.595 175.481C81.3763 175.481 81.1603 175.38 81.0211 175.19C79.8957 173.651 78.8769 172.04 77.9936 170.402C77.8075 170.057 77.9365 169.626 78.2817 169.44C78.6268 169.254 79.058 169.383 79.2437 169.728C80.0964 171.309 81.0801 172.865 82.1675 174.352C82.3991 174.669 82.3302 175.113 82.0134 175.344C81.887 175.437 81.7399 175.481 81.5947 175.481L81.595 175.481Z" fill="white"/>
<path d="M110.351 188.325C101.42 188.325 90.1075 185.294 84.6448 179.528C83.3355 178.146 82.1163 176.687 81.0211 175.19C80.7895 174.873 80.8584 174.429 81.1748 174.197C81.492 173.966 81.9359 174.035 82.1674 174.351C83.2268 175.8 84.4076 177.213 85.6758 178.552C91.4158 184.611 104.842 187.675 113.781 186.735C114.169 186.695 114.52 186.977 114.562 187.367C114.602 187.757 114.319 188.106 113.929 188.147C112.798 188.266 111.598 188.325 110.351 188.325Z" fill="white"/>
<path d="M120.761 186.451C120.471 186.451 120.199 186.272 120.094 185.984C119.96 185.615 120.15 185.207 120.518 185.073C130.769 181.343 137.875 174.29 140.527 165.213C141.436 162.104 141.811 158.758 141.643 155.268C141.624 154.876 141.926 154.543 142.318 154.524C142.715 154.506 143.042 154.808 143.061 155.199C143.237 158.848 142.844 162.351 141.891 165.611C139.109 175.134 131.691 182.52 121.004 186.409C120.924 186.438 120.842 186.452 120.762 186.452L120.761 186.451Z" fill="white"/>
<path d="M141.534 149.973C141.209 149.973 140.917 149.749 140.842 149.42C139.597 143.942 137.068 139.049 133.529 135.27C127.897 129.255 119.905 125.676 111.603 125.453C111.211 125.442 110.902 125.116 110.912 124.724C110.923 124.332 111.249 124.013 111.641 124.033C120.32 124.267 128.676 128.008 134.565 134.298C138.277 138.262 140.926 143.382 142.227 149.105C142.314 149.487 142.074 149.868 141.692 149.955C141.639 149.967 141.586 149.972 141.534 149.972V149.973Z" fill="white"/>
<path d="M82.4967 151.592C82.4598 151.592 82.4225 151.589 82.3852 151.583C81.9978 151.522 81.7332 151.158 81.7943 150.771C83.3679 140.793 90.7894 128.86 101.929 125.359C102.973 125.03 104.054 124.759 105.141 124.551C105.525 124.478 105.899 124.73 105.972 125.116C106.046 125.501 105.793 125.873 105.408 125.946C104.374 126.144 103.347 126.402 102.355 126.714C91.7668 130.042 84.7025 141.446 83.1974 150.992C83.1424 151.342 82.8401 151.592 82.4967 151.592Z" fill="white"/>
<path d="M148.961 119.943C148.738 119.943 148.518 119.838 148.379 119.641C142.355 111.054 132.89 106.998 126.011 105.106C125.633 105.002 125.411 104.611 125.515 104.233C125.618 103.855 126.008 103.633 126.387 103.736C133.492 105.689 143.275 109.893 149.542 118.825C149.767 119.146 149.689 119.589 149.368 119.814C149.245 119.901 149.102 119.943 148.961 119.943Z" fill="white"/>
<path d="M72.4046 121.299C72.3215 121.299 72.237 121.284 72.1546 121.253C71.7874 121.115 71.6016 120.706 71.7398 120.339C73.1408 116.613 78.1449 111.858 84.7994 107.929C91.7746 103.81 103.204 101.655 110.89 101.655C114.21 101.655 117.572 101.943 120.881 102.512C121.267 102.578 121.527 102.946 121.46 103.332C121.394 103.719 121.026 103.977 120.64 103.912C117.41 103.357 114.13 103.075 110.89 103.075C103.581 103.075 92.2053 105.205 85.5217 109.152C79.2299 112.867 74.3422 117.455 73.0694 120.839C72.9621 121.124 72.6919 121.299 72.4042 121.299L72.4046 121.299Z" fill="white"/>
<path d="M137.608 102.833C137.471 102.833 137.333 102.794 137.211 102.711C128.006 96.5022 114.991 94.1402 101.506 96.2302C101.117 96.2891 100.755 96.0242 100.695 95.6371C100.635 95.2497 100.9 94.8867 101.288 94.8264C115.123 92.6824 128.506 95.1272 138.005 101.534C138.331 101.753 138.417 102.195 138.197 102.52C138.06 102.723 137.836 102.833 137.608 102.833Z" fill="white"/>
<path d="M85.3264 101.546C85.0852 101.546 84.8501 101.423 84.717 101.202C84.5149 100.865 84.6236 100.429 84.9599 100.227C87.8286 98.5029 91.5476 97.0281 95.7154 95.9623C96.0958 95.8664 96.4825 96.0944 96.5795 96.4744C96.6768 96.8544 96.4473 97.2415 96.0674 97.3385C92.0313 98.3708 88.4434 99.7906 85.6915 101.444C85.5771 101.513 85.4507 101.546 85.3264 101.546Z" fill="white"/>
<path d="M111.063 209.261C107.152 209.261 102.936 208.886 98.815 208.16C98.4286 208.091 98.1708 207.723 98.239 207.337C98.3071 206.951 98.6772 206.693 99.0618 206.761C104.713 207.758 110.537 208.078 115.463 207.664C123.745 206.969 143.441 201.479 151.46 188.949C151.672 188.618 152.111 188.522 152.441 188.734C152.772 188.945 152.868 189.385 152.657 189.715C143.685 203.734 122.349 208.512 115.582 209.08C114.141 209.201 112.627 209.261 111.063 209.261L111.063 209.261Z" fill="white"/>
<path d="M92.3541 206.686C92.2912 206.686 92.2273 206.678 92.1637 206.66C84.9194 204.65 78.9535 201.689 74.9111 198.096C74.6177 197.836 74.5914 197.387 74.8521 197.094C75.1124 196.8 75.5617 196.774 75.8547 197.035C79.7355 200.484 85.5064 203.339 92.5434 205.291C92.9213 205.396 93.1428 205.788 93.0377 206.166C92.9504 206.48 92.6648 206.686 92.3538 206.686L92.3541 206.686Z" fill="white"/>
<path d="M126.182 214.286C125.865 214.286 125.576 214.072 125.494 213.751C125.397 213.371 125.626 212.984 126.006 212.887C128.232 212.318 130.447 211.632 132.777 210.791C133.146 210.658 133.553 210.849 133.686 211.218C133.819 211.587 133.628 211.995 133.259 212.128C130.886 212.984 128.629 213.683 126.358 214.264C126.299 214.279 126.24 214.286 126.182 214.286L126.182 214.286Z" fill="white"/>
<path d="M109.917 216.303C109.383 216.303 108.845 216.298 108.302 216.286C99.7857 216.108 93.4625 215.361 86.3457 212.072C85.9895 211.908 85.8343 211.486 85.9987 211.13C86.1632 210.774 86.5858 210.618 86.9412 210.783C93.8329 213.968 100.003 214.692 108.332 214.866C112.172 214.946 115.762 214.738 119.306 214.227C119.696 214.17 120.054 214.441 120.11 214.829C120.166 215.217 119.896 215.577 119.508 215.633C116.389 216.082 113.236 216.303 109.917 216.303Z" fill="white"/>
<path d="M83.8653 164.219C83.5279 164.219 83.2055 164.026 83.0567 163.699C82.7875 163.107 82.5254 162.492 82.2779 161.873C82.0016 161.182 81.7803 160.4 81.6194 159.547C81.5289 159.065 81.846 158.601 82.3279 158.511C82.8102 158.42 83.274 158.737 83.3646 159.219C83.5038 159.959 83.6927 160.63 83.9264 161.214C84.164 161.808 84.4154 162.397 84.6729 162.964C84.8757 163.411 84.6785 163.937 84.2321 164.14C84.1132 164.194 83.9878 164.219 83.8653 164.219Z" fill="#B8CAFF"/>
<path d="M90.6628 173.939C90.4518 173.939 90.2405 173.864 90.0708 173.712C87.3146 171.244 84.9548 167.875 83.0562 163.699C82.8534 163.253 83.0505 162.726 83.4969 162.523C83.943 162.32 84.4693 162.517 84.6724 162.964C86.4683 166.914 88.6829 170.086 91.2551 172.389C91.6202 172.716 91.6515 173.277 91.3241 173.642C91.1486 173.838 90.906 173.938 90.6624 173.938L90.6628 173.939Z" fill="#B8CAFF"/>
<path d="M109.855 180.335C104.65 180.335 99.3764 179.102 94.5487 176.75C94.108 176.535 93.9248 176.004 94.1396 175.563C94.3545 175.122 94.8858 174.939 95.3268 175.154C100.156 177.507 105.456 178.681 110.64 178.55C111.136 178.535 111.538 178.925 111.55 179.415C111.562 179.905 111.175 180.313 110.685 180.325C110.409 180.332 110.132 180.335 109.855 180.335Z" fill="#B8CAFF"/>
<path d="M117.308 179.396C116.915 179.396 116.555 179.133 116.45 178.735C116.325 178.261 116.608 177.775 117.082 177.65C122.252 176.282 126.627 173.376 129.735 169.244C133.994 163.582 135.351 155.782 133.277 148.887C133.136 148.418 133.402 147.923 133.872 147.782C134.342 147.64 134.837 147.907 134.978 148.376C137.211 155.802 135.746 164.207 131.154 170.311C127.804 174.765 123.095 177.896 117.536 179.367C117.46 179.387 117.383 179.396 117.308 179.396Z" fill="#B8CAFF"/>
<path d="M131.221 143.395C130.937 143.395 130.658 143.259 130.486 143.006C129.208 141.126 127.628 139.463 125.79 138.064C121.696 134.948 115.862 133.45 109.781 133.956C103.846 134.45 98.6675 136.863 95.9291 140.41C95.6297 140.798 95.0718 140.87 94.684 140.57C94.2958 140.271 94.2241 139.714 94.5234 139.325C100.972 130.971 117.597 129.596 126.866 136.651C128.856 138.166 130.568 139.969 131.955 142.008C132.23 142.414 132.125 142.966 131.72 143.241C131.567 143.345 131.393 143.395 131.221 143.395Z" fill="#B8CAFF"/>
<path d="M110.515 172.7C106.4 172.7 102.357 171.507 99.2713 169.357C91.1 163.664 88.3424 155.208 91.5059 145.548C91.6587 145.082 92.1597 144.829 92.626 144.98C93.092 145.133 93.3459 145.635 93.1935 146.101C90.2946 154.952 92.8135 162.693 100.286 167.9C103.341 170.028 107.454 171.119 111.571 170.895C112.063 170.866 112.48 171.244 112.506 171.733C112.533 172.223 112.158 172.641 111.668 172.668C111.284 172.689 110.898 172.699 110.514 172.699L110.515 172.7Z" fill="#B8CAFF"/>
<path d="M117.35 171.484C116.991 171.484 116.654 171.266 116.519 170.91C116.346 170.452 116.576 169.94 117.035 169.766C119.763 168.733 123.37 166.546 125.06 161.997C126.777 157.375 126.915 153.404 125.494 149.497C124.575 146.969 122.89 144.869 120.486 143.257C120.079 142.984 119.97 142.432 120.243 142.025C120.516 141.618 121.067 141.509 121.475 141.782C124.199 143.608 126.112 146 127.163 148.89C128.736 153.215 128.597 157.576 126.725 162.615C125.226 166.652 122.008 169.782 117.665 171.426C117.561 171.465 117.455 171.484 117.35 171.484H117.35Z" fill="#B8CAFF"/>
<path d="M100.599 161.402C100.339 161.402 100.081 161.288 99.9055 161.069C96.7619 157.15 96.079 151.058 98.2449 146.255C101.145 139.825 108.934 137.472 114.79 138.911C115.511 139.088 116.225 139.299 116.911 139.538C117.374 139.699 117.619 140.205 117.458 140.668C117.296 141.131 116.79 141.376 116.327 141.215C115.693 140.994 115.033 140.799 114.367 140.636C109.215 139.37 102.383 141.399 99.8636 146.985C97.9913 151.137 98.5915 156.593 101.291 159.959C101.598 160.341 101.536 160.9 101.154 161.207C100.99 161.338 100.794 161.402 100.599 161.402V161.402Z" fill="#B8CAFF"/>
<path d="M109.665 165.592C107.806 165.592 105.922 165.188 104.176 164.374C103.731 164.167 103.539 163.639 103.746 163.195C103.953 162.75 104.482 162.558 104.926 162.765C108.244 164.311 112.125 164.146 115.054 162.332C116.705 161.31 117.928 159.459 118.409 157.254C118.919 154.916 118.525 152.472 117.355 150.714C116.195 148.971 113.406 147.781 111.004 148.007C109.722 148.128 108.014 148.701 107.15 150.745C106.456 152.388 107.273 153.872 108.39 154.614C109.394 155.281 111.031 155.583 112.338 154.241C112.68 153.89 113.242 153.883 113.594 154.225C113.945 154.568 113.952 155.13 113.61 155.481C111.676 157.464 109.102 157.218 107.408 156.094C105.681 154.947 104.425 152.634 105.514 150.054C106.454 147.829 108.345 146.474 110.838 146.24C113.883 145.955 117.319 147.454 118.834 149.73C120.285 151.912 120.763 154.793 120.144 157.632C119.561 160.304 118.047 162.568 115.989 163.842C114.112 165.004 111.908 165.592 109.665 165.592Z" fill="#B8CAFF"/>
<path d="M102.657 202.056C102.635 202.056 102.612 202.055 102.588 202.053C95.4369 201.503 89.6113 198.912 84.2569 196.305C79.0049 193.749 71.9264 187.615 68.4777 182.633C68.1986 182.23 68.2994 181.677 68.7025 181.398C69.1056 181.119 69.6589 181.22 69.938 181.623C73.2407 186.394 80.0131 192.265 85.0343 194.709C90.2349 197.241 95.8843 199.757 102.725 200.283C103.214 200.32 103.58 200.747 103.542 201.236C103.506 201.702 103.117 202.056 102.658 202.056H102.657Z" fill="#B8CAFF"/>
<path d="M110.662 202.257C110.184 202.257 109.79 201.877 109.775 201.396C109.761 200.906 110.146 200.497 110.636 200.482C122.839 200.12 133.298 196.483 141.722 189.671C145.784 186.386 149.007 181.998 151.303 176.627C151.496 176.176 152.018 175.967 152.468 176.16C152.919 176.352 153.128 176.874 152.936 177.325C150.525 182.965 147.128 187.583 142.839 191.051C134.105 198.114 123.288 201.884 110.689 202.257C110.68 202.257 110.671 202.257 110.662 202.257L110.662 202.257Z" fill="#B8CAFF"/>
<path d="M154.004 172.592C153.921 172.592 153.836 172.58 153.752 172.555C153.282 172.416 153.013 171.922 153.152 171.452C154.577 166.625 155.444 161.179 155.802 154.803C156.368 144.803 154.158 136.742 148.846 129.436C148.558 129.039 148.646 128.484 149.042 128.196C149.439 127.907 149.995 127.995 150.282 128.392C155.848 136.048 158.165 144.471 157.575 154.903C157.209 161.417 156.319 166.995 154.855 171.955C154.741 172.341 154.387 172.592 154.004 172.592Z" fill="#B8CAFF"/>
<path d="M67.3666 145.95C67.3094 145.95 67.2518 145.944 67.194 145.933C66.7131 145.838 66.3999 145.371 66.4947 144.89C67.6638 138.956 70.1657 133.554 74.1442 128.373C74.4426 127.984 75.0001 127.911 75.389 128.21C75.7779 128.508 75.851 129.066 75.5524 129.455C71.7443 134.413 69.3514 139.574 68.2366 145.233C68.1535 145.656 67.7821 145.95 67.3666 145.95Z" fill="#B8CAFF"/>
<path d="M68.1016 166.469C67.711 166.469 67.3533 166.209 67.2457 165.815C66.2091 162.019 65.7471 158.004 65.7471 152.796C65.7471 152.306 66.1445 151.908 66.6349 151.908C67.1253 151.908 67.5227 152.306 67.5227 152.796C67.5227 157.839 67.9656 161.71 68.9585 165.347C69.0878 165.82 68.809 166.309 68.336 166.438C68.2579 166.459 68.179 166.469 68.1016 166.469Z" fill="#B8CAFF"/>
<path d="M107.561 196.108C107.556 196.108 107.55 196.108 107.545 196.108C96.0573 195.902 84.1845 190.85 77.2974 183.238C73.9414 179.528 71.4214 175.881 69.5939 172.088C69.3812 171.646 69.5666 171.115 70.0083 170.902C70.4501 170.69 70.9807 170.876 71.1934 171.317C72.946 174.955 75.3733 178.465 78.6139 182.047C85.1874 189.312 96.5559 194.135 107.577 194.333C108.067 194.342 108.457 194.746 108.449 195.237C108.44 195.721 108.044 196.108 107.561 196.108H107.561Z" fill="#B8CAFF"/>
<path d="M115.682 195.442C115.252 195.442 114.874 195.129 114.805 194.692C114.73 194.207 115.061 193.753 115.546 193.677C124.117 192.337 129.99 189.713 135.815 184.622C136.184 184.299 136.746 184.337 137.068 184.706C137.391 185.075 137.353 185.636 136.984 185.959C130.884 191.29 124.752 194.035 115.82 195.432C115.773 195.439 115.727 195.442 115.682 195.442Z" fill="#B8CAFF"/>
<path d="M140.222 182.501C140.001 182.501 139.78 182.419 139.608 182.255C139.254 181.916 139.242 181.354 139.581 180.999C143.914 176.47 147.083 170.095 147.851 164.361C148.43 160.038 148.943 153.743 148.093 148.301C146.917 140.773 144.045 135.108 138.781 129.932C138.431 129.588 138.426 129.026 138.77 128.676C139.114 128.326 139.676 128.322 140.026 128.665C145.505 134.052 148.626 140.204 149.847 148.027C150.73 153.679 150.206 160.157 149.612 164.597C148.784 170.776 145.513 177.366 140.864 182.227C140.689 182.409 140.456 182.5 140.222 182.5V182.501Z" fill="#B8CAFF"/>
<path d="M78.6203 170.954C78.3042 170.954 77.9985 170.785 77.8379 170.488C73.7454 162.901 72.382 154.362 73.9993 146.443C75.324 139.947 78.7996 133.671 84.0499 128.294C84.3926 127.943 84.9548 127.936 85.3053 128.279C85.6562 128.621 85.6629 129.183 85.3202 129.534C80.309 134.667 76.9959 140.637 75.7391 146.798C74.2049 154.31 75.5054 162.424 79.4009 169.645C79.6338 170.076 79.4726 170.615 79.0411 170.848C78.9069 170.92 78.7627 170.954 78.6203 170.954Z" fill="#B8CAFF"/>
<path d="M81.5948 175.659C81.3214 175.659 81.0515 175.533 80.8775 175.295C79.7471 173.75 78.7239 172.132 77.8368 170.487C77.6042 170.055 77.7654 169.516 78.1969 169.284C78.6277 169.051 79.1668 169.212 79.3998 169.644C80.2485 171.218 81.2276 172.767 82.3104 174.246C82.5998 174.642 82.5139 175.198 82.1179 175.487C81.9599 175.603 81.7763 175.659 81.5945 175.659H81.5948Z" fill="#B8CAFF"/>
<path d="M110.358 188.503C101.385 188.503 90.0122 185.452 84.5158 179.651C83.2011 178.263 81.977 176.798 80.8779 175.295C80.5884 174.899 80.6744 174.344 81.0703 174.054C81.466 173.765 82.0214 173.851 82.3112 174.246C83.3663 175.688 84.5421 177.096 85.8053 178.429C91.5095 184.45 104.866 187.493 113.763 186.558C114.248 186.508 114.687 186.861 114.738 187.348C114.79 187.836 114.436 188.273 113.948 188.324C112.813 188.443 111.609 188.502 110.358 188.502L110.358 188.503Z" fill="#B8CAFF"/>
<path d="M120.761 186.628C120.398 186.628 120.058 186.405 119.927 186.044C119.759 185.584 119.997 185.074 120.457 184.906C130.654 181.196 137.721 174.184 140.357 165.162C141.26 162.073 141.632 158.747 141.465 155.276C141.441 154.786 141.819 154.37 142.309 154.346C142.802 154.323 143.215 154.701 143.238 155.19C143.416 158.858 143.02 162.381 142.061 165.66C139.262 175.239 131.806 182.666 121.065 186.575C120.964 186.611 120.862 186.628 120.761 186.628Z" fill="#B8CAFF"/>
<path d="M141.534 150.151C141.129 150.151 140.763 149.871 140.669 149.459C139.431 144.014 136.918 139.149 133.401 135.391C131.294 133.145 128.842 131.226 126.113 129.687C125.685 129.446 125.534 128.905 125.775 128.478C126.016 128.051 126.557 127.9 126.984 128.14C129.871 129.768 132.466 131.799 134.696 134.177C138.429 138.166 141.093 143.314 142.401 149.066C142.51 149.544 142.21 150.02 141.732 150.128C141.666 150.143 141.599 150.151 141.534 150.151Z" fill="#B8CAFF"/>
<path d="M82.4951 151.77C82.4493 151.77 82.4024 151.766 82.3556 151.759C81.8712 151.683 81.5405 151.228 81.6173 150.744C83.0239 141.832 88.5661 132.973 95.737 128.176C96.1446 127.903 96.6962 128.012 96.9686 128.42C97.2413 128.827 97.1319 129.378 96.7242 129.651C89.9458 134.187 84.7044 142.575 83.3709 151.02C83.302 151.458 82.9245 151.77 82.4951 151.77Z" fill="#B8CAFF"/>
<path d="M111.064 209.438C107.142 209.438 102.915 209.063 98.784 208.334C98.301 208.249 97.9785 207.789 98.0638 207.306C98.149 206.823 98.6096 206.501 99.0922 206.586C104.728 207.579 110.536 207.9 115.447 207.487C123.701 206.794 143.327 201.327 151.31 188.853C151.574 188.44 152.123 188.32 152.536 188.584C152.949 188.848 153.07 189.397 152.805 189.81C143.795 203.889 122.385 208.686 115.596 209.257C114.151 209.378 112.631 209.438 111.063 209.438H111.064Z" fill="#B8CAFF"/>
<path d="M92.354 206.864C92.2755 206.864 92.1956 206.853 92.116 206.831C84.8454 204.814 78.8554 201.84 74.793 198.229C74.4265 197.903 74.3935 197.342 74.7192 196.975C75.0448 196.609 75.6059 196.576 75.9728 196.902C79.8338 200.334 85.5798 203.175 92.5908 205.12C93.0632 205.251 93.3402 205.741 93.2091 206.213C93.1001 206.606 92.7428 206.864 92.354 206.864V206.864Z" fill="#B8CAFF"/>
<path d="M126.181 214.463C125.785 214.463 125.425 214.197 125.322 213.795C125.201 213.32 125.487 212.837 125.962 212.715C128.182 212.147 130.392 211.463 132.716 210.624C133.178 210.458 133.686 210.697 133.853 211.158C134.019 211.619 133.78 212.128 133.319 212.294C130.941 213.153 128.678 213.853 126.402 214.435C126.328 214.454 126.255 214.463 126.181 214.463Z" fill="#B8CAFF"/>
<path d="M109.917 216.481C109.382 216.481 108.843 216.475 108.298 216.464C99.7581 216.285 93.4158 215.536 86.2709 212.234C85.8259 212.028 85.6317 211.5 85.8373 211.055C86.0433 210.61 86.5703 210.417 87.0156 210.622C93.8789 213.794 100.03 214.515 108.335 214.689C112.167 214.769 115.747 214.561 119.28 214.052C119.766 213.983 120.215 214.319 120.285 214.804C120.355 215.289 120.018 215.739 119.533 215.809C116.405 216.26 113.244 216.481 109.916 216.481H109.917Z" fill="#B8CAFF"/>
<path d="M159.931 129.624H61.204C60.8116 129.624 60.4938 129.306 60.4938 128.913C60.4938 128.521 60.8116 128.203 61.204 128.203H159.931C160.323 128.203 160.641 128.521 160.641 128.913C160.641 129.305 160.323 129.624 159.931 129.624Z" fill="black"/>
<path d="M235.406 271.975L236.346 288.412L241.981 290.76L247.616 287.473L246.207 268.218L235.406 271.975Z" fill="#F9AA81"/>
<path d="M273.573 117.193C273.573 117.193 282.096 134.24 281.741 138.501C281.386 142.763 262.209 159.099 262.209 159.099L255.106 149.155L266.471 137.791L255.817 123.231L273.573 117.193Z" fill="#F9AA81"/>
<path d="M256.882 275.938L259.368 279.489L252.62 284.816L248.714 280.909L256.882 275.938Z" fill="#F9AA81"/>
<path d="M254.751 142.763C254.751 142.763 267.643 163.741 265.63 175.582C263.616 187.422 257.001 223.716 256.138 231.695C255.658 236.14 254.909 251.363 254.34 263.981C254.204 267.002 259.877 275.968 259.877 275.968L249.235 282.918L249.522 284.977L234.201 284.578L234.008 264.565C234.008 264.565 222.772 249.713 220.758 244.565C218.744 239.417 215.868 210.846 215.005 197.976C214.142 185.106 213.855 172.493 216.731 160.91C219.607 149.327 222.772 145.723 222.772 145.723L254.751 142.763Z" fill="black"/>
<path d="M220.844 295.54C220.844 295.54 219.419 297.772 227.236 298.443C235.053 299.113 248.797 300.044 248.681 298.072C248.566 296.1 248.508 295.114 248.508 295.114L220.844 295.54Z" fill="black"/>
<path d="M247.447 288.547C247.447 288.547 248.939 295.608 247.924 296.7C246.109 298.654 221.021 298.569 220.842 295.512C220.748 293.901 227.434 292.752 231.183 290.883C234.933 289.015 234.927 284.007 236.437 285.089C237.947 286.172 236.485 289.232 239.416 289.869C242.348 290.505 247.447 288.547 247.447 288.547Z" fill="white"/>
<path d="M262.384 293.722C264.612 289.265 268.67 283.402 264.691 281.878C260.713 280.353 258.7 285.278 256.782 291.31C254.864 297.343 253.157 298.301 250.25 298.657C247.344 299.014 245.115 298.179 244.837 298.735C244.559 299.293 246.222 299.849 251.522 299.849C256.821 299.849 258.485 301.521 262.384 293.722Z" fill="black"/>
<path d="M258.763 278.125L265.169 282.302C265.169 282.302 262.941 280.631 260.156 283.974C257.434 287.24 256.674 295.533 253.889 297.482C251.104 299.432 244.837 298.735 244.837 298.735C244.837 298.735 248.737 296.229 250.408 292.886C252.079 289.544 250.965 283.695 250.965 283.695C250.965 283.695 252.497 280.492 254.725 279.099C256.953 277.707 258.763 278.125 258.763 278.125Z" fill="white"/>
<path d="M254.57 265.651C254.495 265.651 254.426 265.604 254.401 265.529C250.016 252.128 239.986 237.86 239.885 237.717L239.851 237.669L239.852 237.609C239.867 237.138 241.328 190.37 244.464 180.931L244.487 180.861L244.552 180.828C252.945 176.572 248.822 164.692 248.78 164.572C248.747 164.48 248.795 164.379 248.887 164.346C248.98 164.312 249.081 164.36 249.114 164.453C249.158 164.575 253.361 176.688 244.778 181.111C241.725 190.505 240.27 235.647 240.21 237.561C240.863 238.496 250.467 252.361 254.739 265.418C254.769 265.511 254.719 265.611 254.625 265.642C254.607 265.648 254.588 265.651 254.57 265.651L254.57 265.651Z" fill="white"/>
<path d="M248.166 281.963C248.115 281.963 248.064 281.941 248.03 281.898L234.463 265.539C234.401 265.464 234.411 265.352 234.486 265.289C234.562 265.226 234.674 265.237 234.736 265.312L248.303 281.671C248.365 281.747 248.355 281.859 248.28 281.921C248.247 281.949 248.206 281.963 248.166 281.963Z" fill="white"/>
<path d="M226.431 92.0181C226.431 92.0181 218.028 94.1439 214.485 100.117C210.942 106.09 200.11 118.339 200.11 118.339C200.11 118.339 204.463 124.515 211.043 126.337L217.623 128.159C217.623 128.159 216.958 133.489 218.172 138.146C219.387 142.803 219.648 148.103 219.648 148.103C219.648 148.103 233.315 149.723 241.212 148.812C249.108 147.9 257.947 144.183 257.947 144.183C257.947 144.183 259.839 127.552 260.75 125.021C261.661 122.49 262.269 122.49 262.269 122.49C262.269 122.49 265.407 122.591 269.153 121.781C272.899 120.972 276.138 118.339 276.138 118.339C276.138 118.339 267.027 98.2943 256.802 95.7636C246.577 93.2326 240.098 92.0181 240.098 92.0181H226.431Z" fill="#2861FF"/>
<path d="M216.597 64.9244C216.597 64.9244 215.143 63.2159 216.155 60.9885C217.168 58.7614 221.015 56.534 226.886 55.3191C232.758 54.1042 238.392 53.1308 242.578 58.0526C247.185 63.4687 248.805 68.2268 246.78 77.4396C244.755 86.6521 256.513 86.0274 260.902 92.2707C264.496 97.3831 260.143 100.015 255.486 103.761C250.716 107.597 253.563 113.48 246.982 115.1C240.401 116.719 236.301 110.392 232.252 110.19C228.203 109.987 220.306 110.797 219.597 103.407C218.889 96.0162 221.116 88.5247 223.445 84.4751C225.773 80.4256 216.597 64.924 216.597 64.924V64.9244Z" fill="black"/>
<path d="M218.231 61.8491C218.231 61.8491 216.915 63.064 216.206 66.4048C215.498 69.7455 216.87 72.1696 216.636 73.6938C216.433 75.01 214.384 77.541 214.89 77.9459C215.528 78.4558 216.308 78.7559 216.308 78.7559C216.308 78.7559 217.016 84.9313 220.56 85.4374C224.71 86.2474 224.407 80.4769 225.925 75.516C224.759 72.7165 222.431 70.291 220.256 66.9108C218.655 64.4238 218.231 61.8491 218.231 61.8491Z" fill="#F9AA81"/>
<path d="M223.799 71.9726C223.799 71.9726 224.508 69.8468 227.039 70.0492C229.57 70.2517 231.291 76.0222 225.925 75.5161C222.227 75.1674 223.799 71.9726 223.799 71.9726Z" fill="#F9AA81"/>
<path d="M228.152 72.4538C228.102 72.4538 228.053 72.4328 228.018 72.392C227.972 72.3391 226.884 71.1011 225.715 71.8202C225.631 71.8717 225.522 71.8454 225.47 71.7623C225.419 71.6789 225.445 71.5695 225.529 71.518C226.958 70.6387 228.274 72.1455 228.287 72.1608C228.351 72.235 228.342 72.3469 228.268 72.4108C228.235 72.4395 228.194 72.4538 228.152 72.4538Z" fill="black"/>
<path d="M201.729 119.453L198.996 121.781C198.996 121.781 191.238 115.628 187.498 111.82C183.759 108.012 183.826 107.128 183.826 107.128C183.826 107.128 183.759 103.185 181.514 100.669C179.271 98.1531 175.055 94.9573 174.579 95.7734C174.103 96.5891 174.579 97.6091 174.579 97.6091C174.579 97.6091 173.175 96.56 171.864 95.4594C170.597 94.3951 169.435 93.2676 168.8 93.8692C167.508 95.0929 170.071 96.8707 170.751 97.6865C171.431 98.5026 172.775 100.116 172.775 100.116C172.775 100.116 171.043 100.805 171.112 102.028C169.208 103.048 169.82 105.088 169.82 105.088C169.82 105.088 168.387 105.667 169.067 106.891C169.747 108.115 174.117 111.411 175.205 112.771C176.293 114.131 181.753 122.889 186.037 128.26C190.321 133.632 197.06 139.74 200.109 140.307C204.462 141.117 215.801 128.159 215.801 128.159L201.729 119.453L201.729 119.453Z" fill="#F9AA81"/>
<path d="M219.965 70.098C219.891 70.098 219.816 70.0749 219.752 70.0266C217.98 68.6927 217.039 69.186 217.03 69.1913C216.86 69.2837 216.645 69.2276 216.548 69.0606C216.451 68.8937 216.501 68.6821 216.666 68.5812C216.718 68.5485 217.986 67.8081 220.18 69.4591C220.336 69.577 220.367 69.7997 220.25 69.9563C220.18 70.049 220.073 70.098 219.965 70.098Z" fill="black"/>
<path d="M217.409 72.3705C217.421 72.9926 217.683 73.492 217.994 73.4859C218.305 73.4799 218.547 72.9706 218.535 72.3484C218.523 71.7262 218.261 71.2269 217.95 71.233C217.639 71.239 217.397 71.7483 217.409 72.3705Z" fill="black"/>
<path d="M216.621 81.1819C216.621 81.1819 217.267 81.4141 218.883 79.9048C217.107 79.9048 216.403 79.7539 216.403 79.7539L216.621 81.1819Z" fill="white"/>
<path d="M220.836 295.47C220.795 295.47 220.753 295.456 220.72 295.427C220.646 295.363 220.638 295.25 220.702 295.176C220.736 295.137 221.596 294.188 226.331 292.528C226.854 292.344 227.338 292.179 227.787 292.026C231.392 290.8 232.741 290.341 234.401 286.984C235.581 284.599 236.035 284.349 236.326 284.415C236.624 284.485 236.64 284.91 236.64 284.994C236.64 285.092 236.56 285.171 236.462 285.171C236.365 285.171 236.285 285.092 236.284 284.994C236.284 284.898 236.257 284.78 236.23 284.754C236.214 284.765 235.85 284.856 234.719 287.142C232.994 290.629 231.503 291.137 227.902 292.362C227.454 292.515 226.971 292.68 226.449 292.862C221.802 294.492 220.979 295.4 220.971 295.409C220.936 295.449 220.886 295.47 220.836 295.47L220.836 295.47Z" fill="black"/>
<path d="M244.985 299.021C244.931 299.021 244.879 298.997 244.844 298.951C244.784 298.873 244.799 298.761 244.878 298.702C244.925 298.666 249.626 295.063 250.581 292C251.538 288.927 250.504 283.661 250.493 283.608C250.474 283.511 250.536 283.418 250.632 283.399C250.729 283.379 250.822 283.442 250.841 283.538C250.885 283.757 251.904 288.946 250.92 292.106C249.932 295.278 245.29 298.835 245.093 298.985C245.061 299.009 245.022 299.021 244.985 299.021Z" fill="black"/>
<path d="M264.872 282.33C264.837 282.33 264.801 282.319 264.77 282.298L258.733 278.036C258.652 277.979 258.634 277.869 258.69 277.789C258.747 277.708 258.857 277.689 258.938 277.746L264.975 282.008C265.055 282.064 265.074 282.175 265.017 282.255C264.983 282.304 264.928 282.33 264.872 282.33Z" fill="black"/>
<path d="M248.508 295.293C248.42 295.293 248.344 295.228 248.332 295.139L247.295 287.503C247.282 287.406 247.35 287.317 247.447 287.304C247.545 287.292 247.634 287.359 247.647 287.455L248.684 295.091C248.697 295.188 248.629 295.278 248.532 295.291C248.524 295.292 248.516 295.293 248.508 295.293Z" fill="black"/>
<path d="M214.802 4.78789C210.079 4.78789 197.397 0 197.397 0C197.397 0 184.715 4.78789 179.992 4.78789C179.992 4.78789 176.757 14.1698 176.757 20.7046C176.757 38.0123 197.397 47.2326 197.397 47.2326C197.397 47.2326 218.037 37.4302 218.037 20.7046C218.037 14.1698 214.802 4.78789 214.802 4.78789H214.802Z" fill="#2861FF"/>
<path d="M197.38 45.4479L197.297 45.406C194.134 43.799 178.356 35.0557 178.356 20.7044C178.356 15.804 180.302 9.08806 181.139 6.42812L181.174 6.31767L181.289 6.30489C186.152 5.76366 194.801 2.66549 197.336 1.7283L197.397 1.70557L197.459 1.7283C199.994 2.66514 208.642 5.76331 213.505 6.30489L213.621 6.31767L213.655 6.42812C214.492 9.09019 216.439 15.8111 216.439 20.7044C216.439 34.6008 200.63 43.7181 197.461 45.4046L197.38 45.4479ZM181.443 6.64475C180.594 9.36009 178.711 15.919 178.711 20.7044C178.711 34.7283 194.064 43.3516 197.376 45.0473C200.693 43.2699 216.084 34.2833 216.084 20.7044C216.084 15.9261 214.201 9.36258 213.351 6.64475C208.468 6.06872 199.997 3.04335 197.397 2.08449C194.798 3.04371 186.327 6.06872 181.443 6.64475Z" fill="black"/>
<path d="M197.397 33.0274C203.772 33.0274 208.939 27.86 208.939 21.4856C208.939 15.1113 203.772 9.94385 197.397 9.94385C191.023 9.94385 185.856 15.1113 185.856 21.4856C185.856 27.86 191.023 33.0274 197.397 33.0274Z" fill="white"/>
<path d="M200.595 27.9665H194.555C192.695 27.9665 191.182 26.4536 191.182 24.5941V19.6013C191.182 18.9756 191.692 18.4663 192.317 18.4663H202.832C203.458 18.4663 203.967 18.9756 203.967 19.6013V24.5941C203.967 26.4536 202.454 27.9665 200.595 27.9665H200.595ZM192.318 18.8218C191.888 18.8218 191.538 19.1716 191.538 19.6017V24.5945C191.538 26.2583 192.891 27.6117 194.555 27.6117H200.595C202.259 27.6117 203.613 26.2583 203.613 24.5945V19.6017C203.613 19.1716 203.263 18.8218 202.833 18.8218H192.318H192.318Z" fill="black"/>
<path d="M198.417 25.858H196.442L196.691 23.7017C196.19 23.4318 195.873 22.9076 195.873 22.3319C195.873 21.4739 196.571 20.7754 197.429 20.7754C198.287 20.7754 198.986 21.4736 198.986 22.3319C198.986 22.9076 198.669 23.4318 198.168 23.7017L198.417 25.858ZM196.841 25.5029H198.018L197.786 23.4868L197.906 23.4343C198.346 23.2436 198.63 22.811 198.63 22.3323C198.63 21.67 198.092 21.1309 197.429 21.1309C196.766 21.1309 196.228 21.67 196.228 22.3323C196.228 22.8114 196.512 23.2439 196.952 23.4343L197.073 23.4868L196.841 25.5029Z" fill="black"/>
<path d="M201.481 18.6442H201.126V16.1107C201.126 15.2556 200.431 14.5602 199.576 14.5602H195.574C194.719 14.5602 194.024 15.2559 194.024 16.1107V18.6442H193.669V16.1107C193.669 15.0599 194.523 14.2051 195.574 14.2051H199.576C200.627 14.2051 201.481 15.0599 201.481 16.1107V18.6442Z" fill="black"/>
</g>
<defs>
<clipPath id="clip0_11437_100074">
<rect width="300" height="300" fill="white"/>
</clipPath>
</defs>
</svg>
