<svg width="300" height="300" viewBox="0 0 300 300" fill="none" xmlns="http://www.w3.org/2000/svg">
<g clip-path="url(#clip0_6210_625)">

<path d="M47.984 61.7878H248.595C251.114 61.788 253.159 63.83 253.163 66.3533V204.406C253.163 206.933 251.114 208.979 248.593 208.979H47.984C45.459 208.979 43.4108 206.933 43.4108 204.406V66.3611C43.4108 63.8345 45.459 61.7878 47.984 61.7878ZM253.325 65.9421C253.332 65.9338 253.339 65.9247 253.346 65.9167C253.338 65.9246 253.332 65.9339 253.325 65.9421ZM253.397 65.8738C253.411 65.8625 253.423 65.8497 253.438 65.8396C253.423 65.8496 253.411 65.8626 253.397 65.8738ZM253.488 65.8123C253.508 65.8013 253.527 65.7889 253.547 65.78C253.527 65.7889 253.508 65.8013 253.488 65.8123ZM253.602 65.7625C253.623 65.7559 253.643 65.7473 253.665 65.7429C253.643 65.7474 253.623 65.7558 253.602 65.7625Z" fill="white" stroke="#2B2B2B" stroke-width="1.26029"/>
<path d="M253.792 66.3607V74.5508H42.7809V66.3607C42.7809 63.486 45.1108 61.158 47.9837 61.158H248.595C251.464 61.158 253.794 63.486 253.794 66.3607H253.792Z" fill="#2B2B2B"/>
<path d="M54.4958 70.2743C55.8327 70.2743 56.9165 69.1905 56.9165 67.8536C56.9165 66.5166 55.8327 65.4329 54.4958 65.4329C53.1589 65.4329 52.0751 66.5166 52.0751 67.8536C52.0751 69.1905 53.1589 70.2743 54.4958 70.2743Z" fill="#3369FF"/>
<path d="M63.7282 65.4329C62.3934 65.4329 61.3075 66.5188 61.3075 67.8536C61.3075 69.1883 62.3934 70.2743 63.7282 70.2743C65.0629 70.2743 66.1489 69.1883 66.1489 67.8536C66.1489 66.5188 65.0629 65.4329 63.7282 65.4329Z" fill="#3369FF"/>
<path d="M72.9589 70.2743C71.6242 70.2743 70.5382 69.1883 70.5382 67.8536C70.5382 66.5188 71.6242 65.4329 72.9589 65.4329C74.2937 65.4329 75.3796 66.5188 75.3796 67.8536C75.3796 69.1883 74.2937 70.2743 72.9589 70.2743ZM72.9589 65.8869C71.8748 65.8869 70.9922 66.7694 70.9922 67.8536C70.9922 68.9377 71.8748 69.8203 72.9589 69.8203C74.0431 69.8203 74.9256 68.9377 74.9256 67.8536C74.9256 66.7694 74.0431 65.8869 72.9589 65.8869Z" fill="#99B4FF"/>
<path d="M132.536 70.5483H87.5339C86.0466 70.5483 84.839 69.3388 84.839 67.8534C84.839 66.3679 86.0484 65.1584 87.5339 65.1584H132.536C134.021 65.1584 135.231 66.3679 135.231 67.8534C135.231 69.3388 134.021 70.5483 132.536 70.5483ZM87.5339 65.6124C86.2972 65.6124 85.293 66.6185 85.293 67.8534C85.293 69.0882 86.299 70.0943 87.5339 70.0943H132.536C133.772 70.0943 134.777 69.0882 134.777 67.8534C134.777 66.6185 133.771 65.6124 132.536 65.6124H87.5339Z" fill="#99B4FF"/>
<path d="M189.765 138.791C189.765 160.529 172.146 178.153 150.409 178.153C128.671 178.153 111.047 160.529 111.047 138.791C111.047 118.398 126.559 101.627 146.426 99.6296L147.739 112.545C134.428 113.885 124.035 125.126 124.035 138.791C124.035 153.361 135.843 165.168 150.409 165.168C164.975 165.168 176.777 153.361 176.777 138.791C176.777 136.249 176.417 133.792 175.747 131.469L188.226 127.865C189.229 131.333 189.765 135.001 189.765 138.793V138.791Z" fill="#99B4FF"/>
<path d="M150.407 170.569C167.958 170.569 182.186 156.341 182.186 138.789C182.186 121.238 167.958 107.01 150.407 107.01C132.855 107.01 118.627 121.238 118.627 138.789C118.627 156.341 132.855 170.569 150.407 170.569Z" fill="white"/>
<path d="M150.407 170.569C167.958 170.569 182.186 156.341 182.186 138.789C182.186 121.238 167.958 107.01 150.407 107.01C132.855 107.01 118.627 121.238 118.627 138.789C118.627 156.341 132.855 170.569 150.407 170.569Z" fill="#D9D9D9"/>
<path d="M150.407 161.306C162.838 161.306 172.916 151.225 172.916 138.79C172.916 126.354 162.838 116.273 150.407 116.273C137.975 116.273 127.898 126.354 127.898 138.79C127.898 151.225 137.975 161.306 150.407 161.306Z" fill="white"/>
<path d="M152.975 149.861V153.285H148.627V150.016C145.544 149.831 142.554 148.997 140.704 147.857L143.047 142.552C145.082 143.754 147.794 144.526 150.169 144.526C152.235 144.526 152.976 144.094 152.976 143.353C152.976 140.64 141.044 142.83 141.044 134.78C141.044 131.295 143.571 128.364 148.629 127.656V124.294H152.976V127.594C155.255 127.81 157.478 128.396 159.236 129.383L157.046 134.656C154.918 133.576 152.913 133.053 151.033 133.053C148.905 133.053 148.226 133.668 148.226 134.409C148.226 137.001 160.159 134.841 160.159 142.797C160.159 146.128 157.754 149.028 152.976 149.86L152.975 149.861Z" fill="#3369FF"/>
<path d="M206.779 99.3711C207.236 99.1482 207.825 99.3799 208.03 99.9443L212.227 111.541C212.702 112.854 214.225 113.449 215.464 112.806L226.407 107.124C226.94 106.848 227.53 107.076 227.716 107.55C228.395 109.278 228.77 111.159 228.77 113.13C228.77 121.578 221.92 128.428 213.472 128.428C205.024 128.428 198.174 121.578 198.174 113.13C198.174 107.082 201.683 101.855 206.779 99.3711Z" fill="white" stroke="#2B2B2B" stroke-width="1.26029"/>
<path d="M229.727 100.116C227.072 95.0134 221.74 91.5249 215.591 91.5249C213.686 91.5249 211.861 91.8609 210.169 92.4728L215.591 107.453L229.727 100.114V100.116Z" fill="#99B4FF"/>
<path d="M202.539 164.593H231.818C233.906 164.593 235.599 166.286 235.599 168.374V195.838C235.599 197.926 233.906 199.618 231.818 199.618H202.539C200.451 199.618 198.758 197.926 198.758 195.838V168.374C198.758 166.286 200.451 164.593 202.539 164.593Z" fill="white" stroke="#2B2B2B" stroke-width="0.840194"/>
<path d="M225.351 173.707H204.24V175.222H225.351V173.707Z" fill="#D9D9D9"/>
<path d="M225.351 178.247H204.24V179.762H225.351V178.247Z" fill="#D9D9D9"/>
<path d="M63.6165 96.0398H87.9817C90.0698 96.0398 91.7629 97.7329 91.7629 99.821V146.806C91.7629 148.894 90.0698 150.588 87.9817 150.588H63.6165C61.5284 150.588 59.8352 148.894 59.8352 146.806V99.821C59.8352 97.7329 61.5283 96.0398 63.6165 96.0398Z" fill="white" stroke="#2B2B2B" stroke-width="0.840194"/>
<path d="M64.5615 103.465L64.255 103.8L85.745 123.472L86.0515 123.137L64.5615 103.465Z" fill="#D9D9D9"/>
<path d="M85.7428 103.474L64.2562 123.149L64.5628 123.484L86.0494 103.809L85.7428 103.474Z" fill="#D9D9D9"/>
<path d="M6.93774 118.872H68.4417C71.8058 118.872 74.5334 121.599 74.5334 124.963V160.902C74.5334 164.266 71.8058 166.994 68.4417 166.994H6.93774C3.57355 166.994 0.845947 164.266 0.845947 160.902V124.963C0.845947 121.599 3.57355 118.872 6.93774 118.872Z" fill="white" stroke="#2B2B2B" stroke-width="1.26029"/>
<path d="M8.11389 155.698L12.9553 146.618L22.9432 156.001L29.6024 136.63L42.011 150.25L50.1829 146.921L65.014 127.55" fill="#99B4FF"/>
<path d="M23.0448 156.408L13.017 146.987L8.31356 155.805L7.91223 155.593L12.8953 146.25L22.8432 155.596L29.5115 136.194L42.0726 149.981L50.0412 146.734L64.8341 127.412L65.1937 127.688L50.3263 147.108L41.951 150.521L41.8438 150.404L29.6931 137.068L23.0448 156.408Z" fill="#99B4FF"/>
<path d="M12.9934 147.829C13.6824 147.829 14.241 147.271 14.241 146.582C14.241 145.893 13.6824 145.334 12.9934 145.334C12.3044 145.334 11.7458 145.893 11.7458 146.582C11.7458 147.271 12.3044 147.829 12.9934 147.829Z" fill="#99B4FF"/>
<path d="M22.8687 157.022C23.5577 157.022 24.1163 156.463 24.1163 155.774C24.1163 155.085 23.5577 154.527 22.8687 154.527C22.1797 154.527 21.6211 155.085 21.6211 155.774C21.6211 156.463 22.1797 157.022 22.8687 157.022Z" fill="#99B4FF"/>
<path d="M29.6786 137.954C30.3676 137.954 30.9262 137.395 30.9262 136.706C30.9262 136.017 30.3676 135.459 29.6786 135.459C28.9896 135.459 28.431 136.017 28.431 136.706C28.431 137.395 28.9896 137.954 29.6786 137.954Z" fill="#99B4FF"/>
<path d="M53.5804 126.114H21.8008V126.568H53.5804V126.114Z" fill="#99B4FF"/>
<path d="M178.411 237.606C177.067 228.802 178.914 219.546 183.532 211.93C188.15 204.315 195.507 198.401 203.935 195.522C199.162 198.864 196.248 204.263 194.215 209.722C192.183 215.18 190.849 220.912 188.341 226.171C185.833 231.428 181.878 236.342 176.395 238.309L178.411 237.604V237.606Z" fill="#99B4FF"/>
<path d="M177.093 237.679C176.902 227.504 174.926 217.363 171.281 207.862C169.987 204.488 168.436 201.119 165.912 198.533C163.387 195.947 159.717 194.242 156.16 194.874C160.591 198.19 162.886 203.645 164.179 209.028C165.472 214.409 165.97 219.993 167.789 225.219C169.609 230.446 173.09 235.483 178.3 237.352L177.094 237.677L177.093 237.679Z" fill="#99B4FF"/>
<path d="M147.574 213.994C153.781 212.009 161.012 214.827 165.719 219.629C170.499 224.505 173.197 231.001 175.634 237.507C172.396 237.42 169.267 235.282 167.072 232.62C165.802 231.08 164.748 229.374 163.688 227.635C162.632 225.904 161.567 224.137 160.292 222.517C157.082 218.44 152.561 215.421 147.574 213.994Z" fill="white" stroke="#D9D9D9" stroke-width="0.840194"/>
<path d="M183.143 198.667C181.174 201.947 180.475 205.987 180.473 209.801C180.473 212.282 180.725 214.749 180.983 217.192C181.242 219.641 181.509 222.067 181.55 224.5C181.632 229.293 180.691 234.293 177.596 237.787L175.964 237.516C174.938 230.12 173.954 222.677 175.022 215.368C175.939 209.098 178.587 202.875 183.143 198.667Z" fill="white" stroke="#D9D9D9" stroke-width="0.840194"/>
<path d="M199.121 215.108C196.713 217.461 195.106 220.545 193.761 223.572C192.205 227.074 190.901 230.619 188.705 233.641C186.589 236.553 183.484 238.909 180.014 239.201L179.53 236.825C181.875 230.853 184.347 224.78 188.888 220.464L189.337 220.05C192.088 217.58 195.504 215.862 199.121 215.108Z" fill="white" stroke="#D9D9D9" stroke-width="0.840194"/>
<path d="M195.118 235.055L191.082 255.195H164.497L160.461 235.055H195.118Z" fill="white" stroke="#D9D9D9" stroke-width="0.840194"/>
<path d="M233.505 242.694L238.717 243.422C239.236 243.494 239.622 243.938 239.622 244.462V253.934C239.622 254.514 239.152 254.985 238.572 254.985H228.609C227.621 254.985 227.18 253.745 227.945 253.121L231.202 250.464C231.708 250.051 232.015 249.444 232.049 248.792L232.311 243.681C232.343 243.066 232.895 242.609 233.505 242.694Z" fill="white" stroke="#2B2B2B" stroke-width="1.26029"/>
<path d="M252.322 243.286L257.903 244.03C258.405 244.097 258.787 244.514 258.812 245.021L259.248 253.883C259.278 254.482 258.8 254.984 258.2 254.984H248.146C247.171 254.984 246.722 253.771 247.462 253.137L250.325 250.684C250.837 250.245 251.132 249.603 251.132 248.929V244.327C251.132 243.692 251.692 243.202 252.322 243.286Z" fill="white" stroke="#2B2B2B" stroke-width="1.26029"/>
<path d="M241.9 170.482C242.181 195.621 244.264 220.36 248.248 244.676H262.035C259.168 226.08 257.871 203.496 259.475 173.556L249.519 165.403L241.901 170.482H241.9Z" fill="#3369FF"/>
<path d="M231 173.807L224.762 201.551C223.264 208.218 223.159 215.122 224.457 221.832L228.839 244.494H242.626L238.453 214.745L248.43 169.394L231 173.809V173.807Z" fill="#3369FF"/>
<path d="M242.829 200.393C242.799 199.894 242.197 190.117 241.991 186.559C241.951 185.883 241.515 185.295 240.879 185.064L238.539 184.214C238.421 184.171 238.36 184.041 238.403 183.923C238.445 183.805 238.576 183.744 238.694 183.787L242.225 185.071C242.315 185.104 242.375 185.19 242.375 185.286C242.375 185.561 242.953 195.003 243.27 200.15C243.277 200.272 243.185 200.373 243.063 200.381L242.831 200.395C242.83 200.395 242.829 200.394 242.829 200.393Z" fill="#2B2B2B"/>
<path d="M274.75 97.9705C274.816 97.9691 274.856 97.9813 274.883 97.9958C274.913 98.012 274.952 98.0435 274.997 98.1101C275.093 98.2561 275.18 98.5163 275.244 98.9304C275.371 99.7561 275.379 100.945 275.437 102.448L275.483 103.631L276.189 102.689C276.19 102.688 276.193 102.684 276.198 102.678C276.208 102.667 276.227 102.648 276.253 102.626C276.307 102.581 276.385 102.527 276.487 102.493C276.663 102.434 277.005 102.399 277.539 102.799L277.912 103.078L278.151 102.678C278.244 102.523 278.346 102.456 278.439 102.426C278.539 102.393 278.665 102.391 278.813 102.43C279.126 102.514 279.415 102.749 279.526 102.933L279.823 103.427L280.203 102.994C280.203 102.993 280.207 102.989 280.215 102.983C280.225 102.977 280.239 102.968 280.258 102.96C280.297 102.942 280.351 102.927 280.417 102.92C280.549 102.905 280.704 102.925 280.843 102.994C280.977 103.06 281.104 103.172 281.19 103.357C281.278 103.545 281.335 103.832 281.285 104.257C281.143 105.457 280.794 107.184 280.475 108.623C280.316 109.34 280.166 109.98 280.056 110.442C280.001 110.673 279.957 110.859 279.925 110.987C279.92 111.01 279.914 111.031 279.91 111.051L276.645 113.754L273.189 111.039L273.803 109.573L273.875 109.4L273.795 109.23V109.229C273.795 109.229 273.794 109.228 273.793 109.227C273.792 109.225 273.791 109.221 273.789 109.216C273.784 109.205 273.776 109.19 273.767 109.17C273.748 109.129 273.72 109.069 273.685 108.992C273.615 108.839 273.514 108.619 273.397 108.352C273.162 107.818 272.858 107.101 272.582 106.362C272.304 105.62 272.06 104.872 271.936 104.274C271.874 103.973 271.846 103.731 271.853 103.555C271.86 103.383 271.896 103.352 271.883 103.365C271.947 103.314 272.017 103.297 272.157 103.349C272.324 103.412 272.525 103.558 272.734 103.76C272.937 103.957 273.12 104.178 273.253 104.354C273.32 104.441 273.373 104.516 273.409 104.568C273.426 104.594 273.44 104.613 273.449 104.627C273.453 104.633 273.456 104.638 273.458 104.641C273.46 104.643 273.461 104.645 273.461 104.645L274.326 105.977L274.233 104.392V104.387C274.233 104.384 274.232 104.38 274.232 104.374C274.231 104.361 274.23 104.343 274.229 104.318C274.226 104.269 274.223 104.197 274.219 104.105C274.211 103.921 274.2 103.657 274.192 103.341C274.175 102.706 274.166 101.863 274.198 101.02C274.229 100.172 274.301 99.3473 274.439 98.74C274.508 98.4335 274.588 98.2127 274.668 98.0769C274.709 98.0093 274.737 97.9807 274.75 97.9705Z" fill="white" stroke="#2B2B2B" stroke-width="0.840194"/>
<path d="M243.508 134.664L249.031 134.62C258.717 133.756 266.284 125.887 266.284 125.887L272.679 111.17L280.284 111.283L275.82 128.58C275.179 131.064 273.797 133.294 271.86 134.976L255.995 148.737L243.51 134.664H243.508Z" fill="#2B2B2B"/>
<path d="M228.372 147.186L231 173.807L259.475 173.556L258.49 141.473L243.508 134.663L233.143 139.053L228.372 147.186Z" fill="#2B2B2B"/>
<path d="M197.724 148.9C198.665 148.868 199.971 148.899 201.39 148.962C204.223 149.089 207.463 149.344 209.035 149.475H209.036C209.563 149.518 210.062 149.734 210.46 150.086L210.579 150.193H210.582L212.441 151.843L208.537 157.83C207.057 156.165 205.578 154.499 204.098 152.833L203.973 152.692H203.874C203.82 152.667 203.74 152.63 203.638 152.583C203.434 152.488 203.141 152.352 202.79 152.186C202.088 151.854 201.152 151.402 200.214 150.922C199.274 150.442 198.339 149.937 197.636 149.5C197.31 149.297 197.046 149.113 196.855 148.959C197.076 148.931 197.368 148.912 197.724 148.9ZM203.949 152.726C203.951 152.727 203.953 152.727 203.953 152.727L203.954 152.728C203.954 152.728 203.953 152.728 203.951 152.727L203.949 152.726Z" fill="white" stroke="#2B2B2B" stroke-width="0.840194"/>
<path d="M232.2 137.226C230.172 137.58 228.429 138.869 227.495 140.703L219.104 157.196L212.989 151.77L208.587 158.52C209.123 159.123 209.659 159.726 210.194 160.329C212.571 163.004 215.343 166.599 219.054 167.378C220.947 167.776 222.706 166.99 224.063 165.689C225.056 164.736 225.944 163.557 226.654 162.375L230.001 156.858L240.67 135.748L232.202 137.228L232.2 137.226Z" fill="#2B2B2B"/>
<path d="M228.603 147.154L228.151 147.198L229.745 163.579L230.197 163.535L228.603 147.154Z" fill="white"/>
<path d="M244.711 136.427C244.887 138.617 243.258 140.53 241.075 140.706C238.885 140.882 236.972 139.253 236.796 137.069L236.746 136.455L236.09 128.31L241.005 127.918L244.009 127.676L244.711 136.427Z" fill="white" stroke="#2B2B2B" stroke-width="0.840194"/>
<path d="M242.679 130.387C241.017 133.314 238.638 135.422 236.326 136.488L235.636 127.926L240.97 127.499L242.677 130.387H242.679Z" fill="#2B2B2B"/>
<path d="M243.969 121.629L242.961 130.145C242.951 130.154 242.941 130.164 242.929 130.173C242.832 130.257 242.686 130.379 242.495 130.525C242.112 130.817 241.549 131.205 240.834 131.59C239.402 132.361 237.375 133.107 234.973 133.032L234.832 133.024C234.135 132.963 233.564 132.604 233.081 132.004C232.623 131.435 232.255 130.66 231.965 129.757L231.845 129.363C231.656 128.695 231.51 127.982 231.395 127.253L231.292 126.52C231.086 124.9 231.029 123.29 231.024 122.082C231.022 121.478 231.033 120.976 231.045 120.626C231.048 120.526 231.051 120.438 231.054 120.364L238.305 117.95L243.969 121.629Z" fill="white" stroke="#2B2B2B" stroke-width="0.840194"/>
<path d="M238.503 114.225C239.708 114.245 241.08 114.798 242.743 116.443L242.831 116.53L242.949 116.566C245.337 117.291 246.435 118.754 246.659 120.448C246.874 122.068 246.3 123.985 245.092 125.791L243.674 124.783C242.827 121.916 241.294 120.326 239.125 119.981L238.958 119.955L238.809 120.036C235.783 121.677 233.355 121.976 231.36 121.467C229.718 121.048 228.311 120.067 227.07 118.722C228.463 118.755 229.706 118.393 230.845 117.866C232.288 117.198 233.64 116.222 234.858 115.49C236.116 114.735 237.276 114.206 238.503 114.225Z" fill="white" stroke="#2B2B2B"/>
<path d="M246.433 126.175C246.696 124.827 245.962 123.55 244.794 123.322C243.626 123.093 242.465 124.001 242.202 125.348C241.939 126.696 242.673 127.973 243.841 128.201C245.009 128.43 246.17 127.522 246.433 126.175Z" fill="white"/>
<path d="M242.759 124.138C243.268 123.509 244.029 123.172 244.794 123.321C245.962 123.55 246.696 124.827 246.433 126.175C246.17 127.522 245.009 128.43 243.841 128.201C243.34 128.104 242.919 127.813 242.622 127.407" stroke="#2B2B2B" stroke-width="0.840194" stroke-linecap="round"/>
<path d="M232.5 125.451C232.5 125.838 232.313 126.15 232.084 126.15C231.855 126.15 231.668 125.836 231.668 125.451C231.668 125.066 231.855 124.752 232.084 124.752C232.313 124.752 232.5 125.066 232.5 125.451Z" fill="#2B2B2B"/>
<path d="M235.939 125.166C235.939 125.586 235.738 125.925 235.489 125.925C235.24 125.925 235.039 125.586 235.039 125.166C235.039 124.747 235.24 124.407 235.489 124.407C235.738 124.407 235.939 124.747 235.939 125.166Z" fill="#2B2B2B"/>
<path fill-rule="evenodd" clip-rule="evenodd" d="M230.655 124.703L230.655 124.703L230.655 124.704L230.654 124.704C230.654 124.704 230.654 124.704 230.654 124.704L230.656 124.699C230.658 124.694 230.662 124.684 230.667 124.672C230.678 124.646 230.695 124.608 230.719 124.563C230.767 124.471 230.841 124.357 230.941 124.256C231.041 124.156 231.163 124.075 231.311 124.034C231.456 123.995 231.651 123.988 231.91 124.075C232.086 124.134 232.277 124.038 232.335 123.862C232.394 123.686 232.299 123.496 232.123 123.437C231.752 123.314 231.421 123.307 231.134 123.386C230.849 123.464 230.629 123.618 230.466 123.781C230.304 123.943 230.194 124.117 230.124 124.249C230.089 124.315 230.064 124.372 230.046 124.414C230.038 124.435 230.031 124.453 230.026 124.465L230.02 124.481L230.019 124.487L230.018 124.488L230.018 124.489L230.017 124.49C230.017 124.49 230.017 124.49 230.336 124.596L230.017 124.49C229.959 124.666 230.054 124.856 230.23 124.915C230.406 124.974 230.596 124.879 230.655 124.703Z" fill="#2B2B2B"/>
<path fill-rule="evenodd" clip-rule="evenodd" d="M235.313 123.676C234.91 123.649 234.529 123.777 234.319 123.935C234.17 124.046 233.96 124.016 233.848 123.868C233.737 123.719 233.767 123.508 233.915 123.397C234.265 123.135 234.808 122.969 235.358 123.005C235.92 123.042 236.514 123.295 236.917 123.9C237.02 124.054 236.979 124.263 236.824 124.366C236.67 124.469 236.461 124.427 236.358 124.272C236.089 123.869 235.703 123.701 235.313 123.676Z" fill="#2B2B2B"/>
<path fill-rule="evenodd" clip-rule="evenodd" d="M233.007 125.556C233.173 125.639 233.24 125.841 233.157 126.007C232.957 126.408 232.722 127.021 232.655 127.557C232.621 127.827 232.634 128.046 232.689 128.202C232.739 128.342 232.821 128.431 232.963 128.478C233.378 128.616 233.544 128.51 233.621 128.429C233.729 128.316 233.781 128.12 233.781 127.957C233.781 127.771 233.931 127.621 234.117 127.621C234.303 127.621 234.453 127.771 234.453 127.957C234.453 128.214 234.379 128.606 234.109 128.892C233.808 129.21 233.344 129.314 232.75 129.116C232.389 128.995 232.166 128.738 232.056 128.426C231.951 128.131 231.948 127.793 231.988 127.474C232.068 126.834 232.337 126.145 232.556 125.706C232.639 125.54 232.841 125.473 233.007 125.556Z" fill="#2B2B2B"/>
<path fill-rule="evenodd" clip-rule="evenodd" d="M236.596 127.953C236.78 127.93 236.948 128.061 236.971 128.245C237.143 129.62 236.912 130.47 236.408 130.913C235.899 131.36 235.242 131.283 234.832 131.119C234.66 131.05 234.576 130.855 234.645 130.683C234.714 130.51 234.91 130.426 235.082 130.495C235.373 130.612 235.724 130.619 235.964 130.408C236.209 130.193 236.468 129.642 236.304 128.328C236.281 128.144 236.412 127.976 236.596 127.953Z" fill="#2B2B2B"/>
<path d="M84.2844 181.826H113.741C113.981 181.826 114.174 182.021 114.174 182.26C114.174 182.499 113.98 182.692 113.741 182.692H84.2844C84.0453 182.692 83.851 182.499 83.8508 182.26C83.8508 182.021 84.0452 181.826 84.2844 181.826Z" fill="white" stroke="#2B2B2B" stroke-width="1.26029"/>
<path d="M99.359 157.199H122.398C123.145 157.2 123.653 157.958 123.37 158.649L114.647 179.916C114.485 180.31 114.101 180.568 113.675 180.568H90.6354C89.8885 180.568 89.3805 179.81 89.6637 179.119L98.3873 157.852C98.549 157.458 98.9329 157.199 99.359 157.199Z" fill="white" stroke="#2B2B2B" stroke-width="1.26029"/>
<path d="M112.928 178.085C112.669 178.716 112.055 179.128 111.373 179.128H94.0435C92.8484 179.128 92.0353 177.916 92.4887 176.81L99.0481 160.816C99.3068 160.185 99.921 159.773 100.603 159.773H117.932C119.127 159.773 119.94 160.986 119.487 162.091L112.928 178.085Z" fill="#D9D9D9"/>
<path d="M104.183 184.004H103.729V255.731H104.183V184.004Z" fill="#2B2B2B"/>
<path d="M80.1637 183.954H127.75C128.33 183.954 128.8 184.425 128.8 185.005V185.696C128.8 186.276 128.33 186.745 127.75 186.745H80.1637C79.5837 186.745 79.1129 186.276 79.1129 185.696V185.005C79.1129 184.425 79.5837 183.954 80.1637 183.954Z" fill="white" stroke="#2B2B2B" stroke-width="1.26029"/>
<path d="M37.3692 214.133H36.9152V255.731H37.3692V214.133Z" fill="#2B2B2B"/>
<path d="M30.0275 212.139H44.2589C46.4677 212.139 48.3948 213.574 49.0568 215.641H25.2286C25.8893 213.575 27.8184 212.139 30.0275 212.139Z" fill="white" stroke="#D9D9D9" stroke-width="0.840194"/>
<path d="M33.5195 253.18H40.7617C41.9587 253.18 42.9513 254.049 43.1504 255.188H31.1309C31.3301 254.048 32.3237 253.18 33.5195 253.18Z" fill="white" stroke="#D9D9D9" stroke-width="0.840194"/>
<path d="M56.5515 154.365C56.8578 154.919 57.0612 155.435 57.1003 155.871C57.1094 155.973 57.0968 156.022 57.0916 156.039C57.0378 156.066 56.8866 156.099 56.5974 156.07C56.3858 156.048 56.1647 156 55.9587 155.951L56.3728 154.058C56.4338 154.16 56.4945 154.262 56.5515 154.365Z" fill="white" stroke="#2B2B2B" stroke-width="1.26029"/>
<path d="M48.1675 154.772C50.238 154.772 51.9165 156.452 51.9165 158.522V164.41C51.9164 167.447 48.4933 169.224 46.0093 167.476C45.0116 166.774 44.4175 165.63 44.4175 164.41V158.522C44.4175 156.451 46.0967 154.772 48.1675 154.772Z" fill="white" stroke="#2B2B2B" stroke-width="0.840194"/>
<path d="M52.3384 156.448V165.174C49.7107 163.523 47.4389 161.071 45.4758 158.24L52.3384 156.448Z" fill="#2B2B2B"/>
<path d="M49.932 145.647C52.092 145.647 54.7755 146.703 56.0131 148.662V148.663C56.7318 149.8 56.7198 151.265 56.6058 153.128C56.4777 155.211 56.0142 157.378 55.0765 158.865C54.6113 159.602 54.0412 160.153 53.3568 160.458C52.6777 160.762 51.8455 160.842 50.8158 160.568C49.1383 160.122 47.3766 159.19 46.0404 157.87C44.7078 156.553 43.813 154.865 43.8129 152.887C43.8129 148.825 46.6121 145.647 49.932 145.647Z" fill="white" stroke="#2B2B2B" stroke-width="0.840194"/>
<path fill-rule="evenodd" clip-rule="evenodd" d="M53.9715 155.968C54.1002 156.161 54.0481 156.422 53.8551 156.55C53.2751 156.937 53.1164 157.345 53.1578 157.571C53.1925 157.761 53.4371 158.115 54.4454 158.236C54.6757 158.264 54.8399 158.473 54.8122 158.704C54.7844 158.934 54.5751 159.098 54.3448 159.071C53.2428 158.938 52.4708 158.486 52.3313 157.722C52.1987 156.997 52.7086 156.305 53.3889 155.851C53.582 155.723 53.8428 155.775 53.9715 155.968Z" fill="#2B2B2B"/>
<mask id="path-70-inside-1_6210_625" fill="white">
<ellipse cx="54.4621" cy="152.84" rx="0.420097" ry="0.840194"/>
</mask>
<ellipse cx="54.4621" cy="152.84" rx="0.420097" ry="0.840194" fill="#2B2B2B"/>
<path d="M54.042 152.84C54.042 152.9 54.0358 152.952 54.0272 152.993C54.0229 153.014 54.0184 153.029 54.0144 153.041C54.0125 153.047 54.0108 153.051 54.0096 153.054C54.0083 153.057 54.0076 153.059 54.0077 153.059C54.0077 153.059 54.0086 153.057 54.0107 153.053C54.0128 153.05 54.0163 153.044 54.0216 153.037C54.0317 153.023 54.0512 153 54.083 152.973C54.1486 152.917 54.2791 152.84 54.4621 152.84V154.521C55.0678 154.521 55.39 154.051 55.5106 153.81C55.6564 153.518 55.7224 153.174 55.7224 152.84H54.042ZM54.4621 152.84C54.6451 152.84 54.7756 152.917 54.8412 152.973C54.873 153 54.8925 153.023 54.9026 153.037C54.9078 153.044 54.9114 153.05 54.9135 153.053C54.9156 153.057 54.9165 153.059 54.9165 153.059C54.9166 153.059 54.9158 153.057 54.9146 153.054C54.9133 153.051 54.9117 153.047 54.9097 153.041C54.9058 153.029 54.9013 153.014 54.897 152.993C54.8884 152.952 54.8822 152.9 54.8822 152.84H53.2018C53.2018 153.174 53.2677 153.518 53.4135 153.81C53.5342 154.051 53.8564 154.521 54.4621 154.521V152.84ZM54.8822 152.84C54.8822 152.78 54.8884 152.728 54.897 152.687C54.9013 152.667 54.9058 152.651 54.9097 152.639C54.9117 152.634 54.9133 152.629 54.9146 152.626C54.9158 152.623 54.9166 152.622 54.9165 152.622C54.9165 152.622 54.9156 152.624 54.9135 152.627C54.9114 152.631 54.9078 152.636 54.9026 152.643C54.8925 152.657 54.873 152.681 54.8412 152.707C54.7756 152.763 54.6451 152.84 54.4621 152.84V151.16C53.8564 151.16 53.5342 151.629 53.4135 151.87C53.2677 152.162 53.2018 152.506 53.2018 152.84H54.8822ZM54.4621 152.84C54.2791 152.84 54.1486 152.763 54.083 152.707C54.0512 152.681 54.0317 152.657 54.0216 152.643C54.0163 152.636 54.0128 152.631 54.0107 152.627C54.0086 152.624 54.0077 152.622 54.0077 152.622C54.0076 152.622 54.0083 152.623 54.0096 152.626C54.0108 152.629 54.0125 152.634 54.0144 152.639C54.0184 152.651 54.0229 152.667 54.0272 152.687C54.0358 152.728 54.042 152.78 54.042 152.84H55.7224C55.7224 152.506 55.6564 152.162 55.5106 151.87C55.39 151.629 55.0678 151.16 54.4621 151.16V152.84Z" fill="#2B2B2B" mask="url(#path-70-inside-1_6210_625)"/>
<mask id="path-72-inside-2_6210_625" fill="white">
<path fill-rule="evenodd" clip-rule="evenodd" d="M48.806 141.987C48.66 139.923 47.0209 138.338 45.1027 138.429C43.1542 138.521 41.6556 140.308 41.7556 142.42C41.81 143.569 42.3265 144.578 43.1001 145.244C42.8183 145.327 42.4976 145.43 42.1307 145.561C39.7869 146.395 39.9654 149.145 40.0754 150.839C40.1222 151.56 40.1565 152.09 39.9787 152.199C35.5386 152.199 36.3613 156.593 36.3613 156.593L46.874 160.022L49.4055 153.11L49.6452 151.93C50.8256 148.799 53.5277 148.49 53.5277 148.49C53.5277 148.49 59.7856 154.679 59.397 148.285C59.0883 143.204 54.1234 143.683 54.1234 143.683C52.6033 141.705 50.5079 141.451 48.806 141.987Z"/>
</mask>
<path fill-rule="evenodd" clip-rule="evenodd" d="M48.806 141.987C48.66 139.923 47.0209 138.338 45.1027 138.429C43.1542 138.521 41.6556 140.308 41.7556 142.42C41.81 143.569 42.3265 144.578 43.1001 145.244C42.8183 145.327 42.4976 145.43 42.1307 145.561C39.7869 146.395 39.9654 149.145 40.0754 150.839C40.1222 151.56 40.1565 152.09 39.9787 152.199C35.5386 152.199 36.3613 156.593 36.3613 156.593L46.874 160.022L49.4055 153.11L49.6452 151.93C50.8256 148.799 53.5277 148.49 53.5277 148.49C53.5277 148.49 59.7856 154.679 59.397 148.285C59.0883 143.204 54.1234 143.683 54.1234 143.683C52.6033 141.705 50.5079 141.451 48.806 141.987Z" fill="white"/>
<path d="M48.806 141.987L47.9679 142.047L48.0431 143.109L49.0588 142.789L48.806 141.987ZM45.1027 138.429L45.063 137.59L45.1027 138.429ZM41.7556 142.42L42.5948 142.38V142.38L41.7556 142.42ZM43.1001 145.244L43.3383 146.049L44.8165 145.612L43.6483 144.607L43.1001 145.244ZM42.1307 145.561L41.8489 144.77L42.1307 145.561ZM40.0754 150.839L39.2369 150.894V150.894L40.0754 150.839ZM39.9787 152.199V153.039H40.2157L40.4177 152.915L39.9787 152.199ZM36.3613 156.593L35.5354 156.748L35.6271 157.238L36.1008 157.392L36.3613 156.593ZM46.874 160.022L46.6135 160.821L47.3841 161.072L47.6629 160.311L46.874 160.022ZM49.4055 153.11L50.1944 153.399L50.2162 153.34L50.2289 153.277L49.4055 153.11ZM49.6452 151.93L48.859 151.633L48.8352 151.696L48.8218 151.763L49.6452 151.93ZM53.5277 148.49L54.1186 147.893L53.8323 147.61L53.4324 147.656L53.5277 148.49ZM59.397 148.285L58.5583 148.336L58.5583 148.336L59.397 148.285ZM54.1234 143.683L53.4571 144.195L53.7407 144.564L54.2041 144.52L54.1234 143.683ZM49.6441 141.928C49.4704 139.473 47.4983 137.474 45.063 137.59L45.1424 139.268C46.5435 139.202 47.8496 140.374 47.9679 142.047L49.6441 141.928ZM45.063 137.59C42.5886 137.707 40.7975 139.949 40.9163 142.46L42.5948 142.38C42.5137 140.667 43.7197 139.336 45.1424 139.268L45.063 137.59ZM40.9163 142.46C40.9815 143.837 41.602 145.063 42.552 145.88L43.6483 144.607C43.0511 144.093 42.6384 143.301 42.5948 142.38L40.9163 142.46ZM42.862 144.438C42.5645 144.526 42.2294 144.634 41.8489 144.77L42.4124 146.353C42.7659 146.227 43.072 146.128 43.3383 146.049L42.862 144.438ZM41.8489 144.77C40.329 145.311 39.6427 146.497 39.3647 147.687C39.097 148.832 39.1833 150.068 39.2369 150.894L40.9138 150.785C40.8574 149.916 40.7995 148.931 41.001 148.069C41.1922 147.251 41.5886 146.646 42.4124 146.353L41.8489 144.77ZM39.2369 150.894C39.2614 151.271 39.2777 151.535 39.2715 151.721C39.2685 151.814 39.2605 151.836 39.2655 151.818C39.2688 151.806 39.282 151.761 39.3178 151.702C39.3552 151.641 39.4243 151.553 39.5397 151.482L40.4177 152.915C40.7328 152.722 40.8433 152.417 40.8853 152.265C40.9324 152.095 40.9463 151.919 40.951 151.776C40.9605 151.489 40.9361 151.129 40.9138 150.785L39.2369 150.894ZM39.9787 151.358C38.7266 151.358 37.7571 151.67 37.035 152.214C36.3157 152.755 35.9179 153.47 35.7043 154.141C35.4927 154.807 35.4533 155.455 35.4621 155.922C35.4665 156.159 35.4835 156.358 35.4999 156.5C35.5081 156.572 35.5162 156.629 35.5227 156.671C35.5259 156.692 35.5287 156.709 35.5309 156.722C35.532 156.729 35.5329 156.734 35.5337 156.738C35.5341 156.74 35.5344 156.742 35.5347 156.744C35.5348 156.745 35.535 156.745 35.5351 156.746C35.5352 156.746 35.5352 156.747 35.5353 156.747C35.5354 156.747 35.5354 156.748 36.3613 156.593C37.1871 156.439 37.1872 156.439 37.1873 156.439C37.1873 156.439 37.1874 156.44 37.1874 156.44C37.1875 156.44 37.1875 156.441 37.1876 156.441C37.1877 156.442 37.1877 156.442 37.1877 156.442C37.1877 156.442 37.1876 156.441 37.1872 156.439C37.1866 156.435 37.1853 156.428 37.1836 156.416C37.1801 156.394 37.1749 156.357 37.1693 156.308C37.158 156.21 37.1455 156.066 37.1422 155.891C37.1355 155.534 37.1679 155.084 37.3057 154.65C37.4414 154.224 37.6704 153.839 38.0457 153.556C38.4181 153.276 39.0108 153.039 39.9787 153.039V151.358ZM36.1008 157.392L46.6135 160.821L47.1345 159.223L36.6218 155.794L36.1008 157.392ZM47.6629 160.311L50.1944 153.399L48.6165 152.821L46.0851 159.733L47.6629 160.311ZM50.2289 153.277L50.4686 152.097L48.8218 151.763L48.5821 152.943L50.2289 153.277ZM50.4314 152.226C50.9433 150.868 51.7681 150.151 52.4447 149.766C52.7883 149.571 53.099 149.458 53.3185 149.395C53.4279 149.364 53.5133 149.345 53.567 149.335C53.5938 149.33 53.6126 149.327 53.6223 149.325C53.6272 149.325 53.6297 149.324 53.6299 149.324C53.63 149.324 53.6295 149.324 53.6284 149.324C53.6278 149.325 53.6271 149.325 53.6262 149.325C53.6258 149.325 53.6253 149.325 53.6248 149.325C53.6245 149.325 53.6241 149.325 53.624 149.325C53.6236 149.325 53.6231 149.325 53.5277 148.49C53.4324 147.656 53.4319 147.656 53.4315 147.656C53.4313 147.656 53.4308 147.656 53.4305 147.656C53.4298 147.656 53.4291 147.656 53.4283 147.656C53.4268 147.656 53.4251 147.656 53.4232 147.657C53.4195 147.657 53.4151 147.658 53.41 147.658C53.3999 147.66 53.3872 147.661 53.3719 147.664C53.3415 147.668 53.301 147.675 53.2517 147.684C53.153 147.703 53.0181 147.733 52.8557 147.78C52.5316 147.873 52.0931 148.033 51.6135 148.306C50.6439 148.858 49.5275 149.86 48.859 151.633L50.4314 152.226ZM53.5277 148.49C52.9369 149.088 52.9371 149.088 52.9373 149.088C52.9374 149.088 52.9376 149.088 52.9378 149.089C52.9382 149.089 52.9387 149.089 52.9392 149.09C52.9404 149.091 52.9419 149.093 52.9438 149.094C52.9476 149.098 52.9529 149.103 52.9596 149.11C52.9731 149.123 52.9924 149.142 53.0171 149.165C53.0664 149.213 53.1374 149.28 53.227 149.362C53.4059 149.527 53.66 149.753 53.9639 150.005C54.5622 150.5 55.3913 151.122 56.2363 151.539C56.6588 151.747 57.123 151.924 57.5901 151.991C58.0607 152.06 58.5929 152.025 59.0759 151.735C60.0567 151.147 60.3343 149.858 60.2356 148.234L58.5583 148.336C58.654 149.91 58.2951 150.244 58.2119 150.294C58.1628 150.323 58.0561 150.361 57.8313 150.328C57.6031 150.295 57.3154 150.198 56.9799 150.032C56.309 149.701 55.5979 149.176 55.035 148.71C54.7583 148.481 54.5266 148.274 54.3648 148.125C54.284 148.051 54.221 147.992 54.1788 147.951C54.1578 147.931 54.1419 147.916 54.1318 147.906C54.1267 147.901 54.123 147.897 54.1208 147.895C54.1197 147.894 54.1189 147.893 54.1185 147.893C54.1184 147.893 54.1183 147.893 54.1183 147.893L54.1183 147.893C54.1184 147.893 54.1186 147.893 53.5277 148.49ZM60.2356 148.234C60.1498 146.821 59.7343 145.733 59.1117 144.914C58.4921 144.099 57.7065 143.601 56.9582 143.299C56.2142 143 55.4928 142.889 54.9654 142.85C54.6995 142.83 54.477 142.829 54.3177 142.833C54.2379 142.835 54.1735 142.838 54.127 142.841C54.1037 142.842 54.0848 142.844 54.0707 142.845C54.0636 142.845 54.0577 142.846 54.053 142.846C54.0507 142.846 54.0486 142.847 54.0469 142.847C54.046 142.847 54.0452 142.847 54.0445 142.847C54.0442 142.847 54.0437 142.847 54.0435 142.847C54.0431 142.847 54.0426 142.847 54.1234 143.683C54.2041 144.52 54.2037 144.52 54.2034 144.52C54.2033 144.52 54.2029 144.52 54.2027 144.52C54.2023 144.52 54.202 144.52 54.2017 144.52C54.2012 144.52 54.2009 144.52 54.201 144.52C54.2011 144.52 54.2023 144.52 54.2046 144.52C54.2093 144.519 54.2183 144.519 54.2315 144.518C54.2578 144.516 54.3004 144.514 54.3569 144.513C54.4704 144.51 54.6382 144.511 54.8426 144.526C55.2557 144.556 55.7948 144.643 56.3306 144.858C56.8621 145.072 57.3757 145.407 57.7738 145.931C58.169 146.451 58.4898 147.209 58.5583 148.336L60.2356 148.234ZM54.7897 143.172C53.016 140.863 50.5274 140.563 48.5533 141.186L49.0588 142.789C50.4884 142.338 52.1906 142.547 53.4571 144.195L54.7897 143.172Z" fill="#2B2B2B" mask="url(#path-72-inside-2_6210_625)"/>
<path d="M59.6422 196.634L32.9346 193.229L37.9685 166.683C38.3226 164.827 39.5575 163.251 41.279 162.47C42.7136 161.816 44.3535 161.774 45.8226 162.352L54.9243 166.396C56.6767 167.173 57.8843 168.82 58.1022 170.723L58.6162 179.395L59.2027 189.225L59.6422 196.634Z" fill="#3369FF"/>
<path d="M91.2693 175.891C91.6613 175.777 92.0796 175.84 92.4187 176.065C93.3827 176.705 95.1317 177.92 96.4734 179.152C97.1483 179.772 97.6924 180.371 97.99 180.885C98.2904 181.403 98.257 181.672 98.1306 181.829C98.1268 181.831 98.1222 181.833 98.116 181.836C98.0786 181.849 98.0165 181.863 97.9246 181.873C97.7401 181.892 97.4868 181.888 97.1755 181.86C96.5563 181.804 95.7768 181.66 95.0027 181.49C94.2318 181.321 93.4793 181.129 92.9187 180.978C92.6388 180.903 92.4072 180.838 92.2458 180.793C92.1653 180.77 92.1021 180.751 92.0593 180.739C92.038 180.733 92.0214 180.729 92.0105 180.725C92.0051 180.724 92.0005 180.722 91.9978 180.721L91.9949 180.72L91.8787 180.686L91.7634 180.719L83.8142 182.936L84.4636 177.891L91.2693 175.891Z" fill="white" stroke="#2B2B2B" stroke-width="0.840194"/>
<path d="M59.2009 189.225C56.9763 186.392 55.6543 182.651 55.2148 178.02L58.6162 179.395L59.2027 189.225H59.2009Z" fill="#2B2B2B"/>
<path d="M54.1181 166.065L55.1822 166.525C57.3723 167.469 59.3372 168.871 60.9407 170.638L69.7064 180.292L84.0836 177.568L85.9758 185.286L67.9123 190.932C66.4867 191.186 65.0285 190.694 64.0478 189.626L51.0182 175.449L54.1199 166.065H54.1181Z" fill="#3369FF"/>
<path d="M69.5375 180.445C69.5375 180.445 69.5376 180.444 69.5374 180.444C69.491 180.394 65.2178 175.74 61.5145 171.59C58.2588 167.938 53.4838 165.956 52.4267 165.549C52.3092 165.504 52.2493 165.372 52.2911 165.253C52.3322 165.136 52.4566 165.074 52.5722 165.119C53.6308 165.527 58.5165 167.547 61.8541 171.288C65.2578 175.105 69.147 179.348 69.7822 180.041C69.8334 180.097 69.8269 180.18 69.771 180.232L69.5386 180.445C69.5382 180.446 69.5375 180.445 69.5375 180.445Z" fill="#2B2B2B"/>
<path d="M64.05 189.305L52.2448 177.119C52.1575 177.029 52.0138 177.026 51.9238 177.114C51.8337 177.201 51.8315 177.344 51.9187 177.435L63.7239 189.621C63.8111 189.711 63.9548 189.713 64.0449 189.626C64.1349 189.539 64.1372 189.395 64.05 189.305Z" fill="#2B2B2B"/>
<path d="M58.5675 238.374C58.8068 237.908 59.3531 237.689 59.8478 237.861L64.8146 239.595C65.3962 239.798 65.6788 240.456 65.4259 241.018L63.3253 245.684C63.0574 246.279 63.0541 246.96 63.3156 247.558L64.9991 251.41C65.3949 252.315 64.4365 253.216 63.5577 252.765L54.6945 248.215C54.1787 247.95 53.9755 247.317 54.2404 246.801L58.5675 238.374Z" fill="white" stroke="#2B2B2B" stroke-width="1.26029"/>
<path d="M67.7378 244.16L54.552 239.24L63.5811 211.143C65.1337 206.983 69.9152 204.926 74.2608 206.547C78.6065 208.169 80.871 212.856 79.3183 217.016L67.736 244.162L67.7378 244.16Z" fill="#2B2B2B"/>
<path d="M87.5455 242.512C88.0559 242.485 88.5118 242.829 88.6256 243.327L89.9401 249.082C90.0546 249.583 90.3334 250.032 90.7321 250.357L94.1198 253.121C94.8847 253.745 94.4432 254.985 93.4557 254.985H83.3385C82.7975 254.985 82.3445 254.573 82.2926 254.035L81.3209 243.944C81.2639 243.35 81.7138 242.827 82.3102 242.795L87.5455 242.512Z" fill="white" stroke="#2B2B2B" stroke-width="1.26029"/>
<path d="M92.3299 243.849L78.029 246.119L68.2354 217.321L66.4521 212.069L42.1307 212.266C36.1162 212.402 31.3311 207.25 31.9213 201.257L32.9328 193.23L56.9945 196.258L72.8062 197.997C79.3892 199.132 81.4104 203.118 82.7796 208.24L92.328 243.851L92.3299 243.849Z" fill="#2B2B2B"/>
<path d="M285.278 255.388H9.70276V255.842H285.278V255.388Z" fill="#2B2B2B"/>
<path d="M212.291 34.6953H284.472C287.836 34.6953 290.564 37.4229 290.564 40.7871V79.7002C290.564 83.0644 287.836 85.792 284.472 85.792H212.291C208.926 85.792 206.199 83.0644 206.199 79.7002V40.7871C206.199 37.4229 208.926 34.6953 212.291 34.6953Z" fill="white" stroke="#2B2B2B" stroke-width="1.26029"/>
<path d="M221.277 69.7566H216.349V78.8074H221.277V69.7566Z" fill="#99B4FF"/>
<path d="M231.133 65.6218H226.204V78.8077H231.133V65.6218Z" fill="#99B4FF"/>
<path d="M240.99 69.0032H236.061V78.8077H240.99V69.0032Z" fill="#99B4FF"/>
<path d="M250.847 62.1023H245.918V78.8057H250.847V62.1023Z" fill="#99B4FF"/>
<path d="M260.702 57.6897H255.774V78.8077H260.702V57.6897Z" fill="#99B4FF"/>
<path d="M270.559 51.3882H265.631V78.8077H270.559V51.3882Z" fill="#99B4FF"/>
<path d="M280.415 41.6816H275.486V78.8075H280.415V41.6816Z" fill="#99B4FF"/>
<path d="M220.266 46.0872H216.349V50.5218H220.266V46.0872Z" fill="#99B4FF"/>
<path d="M252.841 48.1392H226.317V49.276H252.841V48.1392Z" fill="#99B4FF"/>
</g>
<defs>
<clipPath id="clip0_6210_625">
<rect width="300" height="300" fill="white"/>
</clipPath>
</defs>
</svg>
