<svg width="302" height="302" viewBox="0 0 302 302" fill="none" xmlns="http://www.w3.org/2000/svg">
<path d="M175.715 110.772C172.34 104.023 147.029 98.9608 134.796 97.2734H112.86C78.6915 97.2734 70.6766 106.132 65.6145 110.772C64.2798 111.996 64.4054 119.027 65.3599 128.911C65.9766 135.298 66.9394 142.875 68.0779 150.847C70.5237 167.972 73.7805 186.916 76.1605 199.78L141.967 221.294L202.712 210.748C195.119 180.235 179.089 117.522 175.715 110.772Z" fill="white"/>
<path d="M162.216 121.74L164.747 137.348" stroke="black" stroke-width="1.36645" stroke-linecap="round"/>
<path d="M220.777 85.6431C229.849 85.6431 237.18 92.7779 237.18 101.55C237.18 110.323 229.849 117.458 220.777 117.458C211.705 117.457 204.374 110.323 204.374 101.55C204.374 92.778 211.705 85.6431 220.777 85.6431Z" fill="#255DF9" stroke="black" stroke-width="0.910968"/>
<path d="M220.777 64.1533C235.926 64.1533 249.04 72.6764 255.34 85.0273C256.408 87.1187 256.01 89.6387 254.314 91.2852L254.293 91.3057V91.3066C251.68 93.8517 247.33 93.2258 245.533 90.1592L245.367 89.8545C240.902 81.0316 231.558 74.9473 220.777 74.9473C209.996 74.9473 200.653 81.0317 196.188 89.8545C194.508 93.1728 189.969 93.9333 187.261 91.3057L187.084 91.1279C185.562 89.5355 185.201 87.2104 186.118 85.2246L186.213 85.0273C192.514 72.6764 205.628 64.1534 220.777 64.1533Z" fill="#255DF9" stroke="black" stroke-width="0.910968"/>
<path d="M220.777 41.2749C242.166 41.2749 261.044 51.8321 272.221 67.8403C273.686 69.9363 273.366 72.7833 271.498 74.5962C269.049 76.9735 264.938 76.648 263.012 73.8862C253.847 60.7344 238.334 52.0688 220.777 52.0688C203.23 52.069 187.706 60.7342 178.541 73.8862C176.615 76.648 172.505 76.9735 170.056 74.5962C168.247 72.8402 167.889 70.1231 169.201 68.0396L169.333 67.8403C180.499 51.8324 199.388 41.2751 220.777 41.2749Z" fill="#255DF9" stroke="black" stroke-width="0.910968"/>
<path d="M220.777 18.0486C248.191 18.0486 272.65 30.5639 288.414 50.0066L289.158 50.9373C290.829 53.0554 290.585 56.072 288.631 57.9685L288.609 57.989C286.226 60.3019 282.299 60.0286 280.245 57.4304H280.244C266.553 40.0628 244.987 28.8425 220.777 28.8425C196.567 28.8425 175.011 40.0627 161.309 57.4304C159.255 60.0287 155.329 60.3019 152.945 57.989L152.924 57.9685L152.923 57.9675C150.96 56.0722 150.724 53.0564 152.395 50.9373H152.396C168.129 30.9641 192.928 18.0486 220.777 18.0486Z" fill="#255DF9" stroke="black" stroke-width="0.910968"/>
<path d="M106.955 48.3402C112.354 55.0896 109.205 61.9797 106.955 64.3701C104.93 63.3577 103.58 63.1046 101.049 63.1046C98.518 63.1046 96.4088 65.6356 96.4088 65.6356L101.049 46.231C99.8168 42.0415 101.661 37.5583 105.485 35.4487L111.173 32.3103L120.179 29.0583C124.184 27.6119 128.558 27.5434 132.607 28.8637L141.408 31.7335C144.271 32.6673 146.874 34.2641 149.004 36.394L159.203 46.5931C163.286 50.6765 164.362 56.886 161.89 62.105L158.419 69.4322L166.012 92.2115L169 102.5L166.012 104.023L128.89 98.5391V89.6804L126.781 80.4L136.484 68.1666L145.764 52.9804L144.498 46.231C132.349 54.6678 114.407 51.1525 106.955 48.3402Z" fill="white"/>
<path d="M80.3789 83.7743C73.6295 91.8736 76.1605 102.335 78.2697 106.554L80.3789 114.991C94.5808 113.444 122.985 110.435 122.985 110.772C122.985 111.11 124.953 103.038 125.938 98.9606L127.625 85.0399L122.985 60.5733L114.548 47.0743C108.22 43.2778 101.049 44.1215 94.2996 49.6054C87.5502 55.0893 87.5502 63.5261 87.5502 68.1663C87.5502 72.8065 88.8157 73.6502 80.3789 83.7743Z" fill="white"/>
<path d="M20.2082 163.385L65.6146 110.351L77.8479 141.567L54.6467 163.924L84.1755 171.939V187.125L32.7803 189.267C27.0205 189.507 21.5929 186.569 18.6443 181.615C15.2019 175.832 15.8311 168.498 20.2082 163.385Z" fill="white"/>
<path d="M64.7709 110.772C69.833 106.132 77.8479 97.2734 112.017 97.2734H133.953C146.186 98.9608 171.496 104.023 174.871 110.772C178.246 117.522 194.276 180.235 201.869 210.748L141.124 221.294L75.3169 199.78C74.6333 196.085 74.4178 191.959 73.6296 187.547M67.7238 151.269C68.4824 156.58 69.8124 162.407 70.6767 167.721" stroke="black" stroke-width="1.36645" stroke-linecap="round"/>
<path d="M117.501 59.8914L112.894 101.07C112.894 101.07 111.755 110.35 122.985 110.773C134.214 111.195 134.214 101.202 134.214 101.202L139.912 59.6787L117.501 59.8914Z" fill="white" stroke="black" stroke-width="1.36645" stroke-linecap="round"/>
<path d="M103.094 64.7887C101.033 51.9059 109.805 39.7914 122.688 37.7301C135.571 35.6688 147.685 44.4413 149.747 57.3241L150.68 63.1557C152.741 76.0384 143.968 88.1529 131.086 90.2142C118.203 92.2755 106.088 83.503 104.027 70.6203L103.094 64.7887Z" fill="white"/>
<path d="M147.451 56.6548L148.798 62.4245C151.832 75.4271 143.203 88.2752 130.019 90.3847V90.3847C117.651 92.3636 105.97 84.0902 103.734 71.7663L102.315 63.948" stroke="black" stroke-width="1.36645" stroke-linecap="round"/>
<rect x="94.2997" y="64.0735" width="14.1419" height="15.9097" rx="7.07096" transform="rotate(-9.0905 94.2997 64.0735)" fill="white"/>
<path d="M106.533 64.7921L105.04 64.2623C99.8524 62.4216 94.6001 66.8419 95.5281 72.2676V72.2676C96.2259 76.348 100.21 79.0027 104.245 78.0752L106.533 77.5492" stroke="black" stroke-width="1.36645" stroke-linecap="round"/>
<path d="M119.188 241.542L81.2226 259.682L91.7686 279.93L130.578 262.634L119.188 241.542Z" fill="white" stroke="black" stroke-width="1.36645" stroke-linecap="round"/>
<path d="M240.579 260.992L203.327 241.43L193.415 261.996L230.497 282.739L240.579 260.992Z" fill="white" stroke="black" stroke-width="1.36645" stroke-linecap="round"/>
<path d="M131.335 60.3171C132.823 63.1634 135.113 68.7471 132.367 68.3113" stroke="black" stroke-width="0.910968" stroke-linecap="round"/>
<path d="M124.275 74.9281C127.509 73.975 133.218 73.2125 130.181 77.7874" stroke="black" stroke-width="0.910968" stroke-linecap="round"/>
<path d="M240.972 136.981L224.067 175.145C218.297 174.837 212.37 175.981 206.879 178.762L182.336 191.188H138.828L128.844 186.133C132.477 177.688 136.087 168.895 139.721 160.041C143.372 151.141 147.049 142.179 150.805 133.442L237.125 133.44L240.972 136.981Z" fill="#002999" stroke="black" stroke-width="0.910968"/>
<path d="M254.951 204.698C254.605 200.589 253.419 196.478 251.323 192.595C245.82 182.404 235.405 176.313 224.361 175.621C218.571 175.257 212.609 176.381 207.089 179.173L182.449 191.647L161.294 202.358C161.167 202.294 161.043 202.231 160.916 202.168C160.541 201.978 160.189 202.157 160.022 202.433L138.721 191.649C132.043 188.269 128.114 186.282 122.248 183.313L114.082 179.179L114.012 179.146C105.122 174.671 95.0863 174.53 86.4807 177.937C84.1986 178.84 82.0198 179.996 79.9865 181.383C78.2064 182.598 76.5401 183.993 75.0215 185.559C73.022 187.62 71.2692 189.969 69.8476 192.599C67.7511 196.484 66.5657 200.593 66.2198 204.702C64.967 219.548 75.167 233.064 89.9588 237.161L104.322 241.14L117.965 244.918C117.878 245.225 117.994 245.588 118.401 245.7C118.6 245.756 118.798 245.811 118.996 245.866L124.841 256.692L129.504 265.328L159.387 257.052C159.727 257.146 160.068 257.24 160.408 257.334C160.815 257.446 161.106 257.197 161.195 256.888L191.664 265.325L196.328 256.69L206.838 237.227C207.093 237.302 207.382 237.245 207.549 236.949L207.576 236.9L216.848 241.138L231.212 237.159C246.001 233.062 256.203 219.546 254.951 204.7V204.698Z" fill="black"/>
<path d="M194.648 158.991C194.762 155.923 193.68 151.655 189.838 151.393C185.18 151.075 181.768 156.195 180.245 159.767C178.85 163.228 177.865 168.171 180.379 171.414C182.628 174.316 186.456 173.219 188.872 171.161C192.343 168.201 194.487 163.44 194.65 158.992L194.648 158.991ZM189.467 168.724C187.846 170.647 184.408 173.368 181.901 171.16C178.977 168.581 180.24 163.275 181.464 160.243C182.729 157.275 185.1 153.498 188.625 152.75C191.898 152.055 193.222 155.372 193.338 157.947C193.51 161.755 191.936 165.791 189.467 168.724Z" fill="black"/>
<path d="M91.1401 267.621C88.394 261.99 90.8828 255.273 96.6979 252.614L105.668 248.513C101.937 247.451 97.8052 247.682 94.0487 249.491L71.7524 260.244C63.8556 264.053 60.6412 273.34 64.5748 280.986C68.5085 288.633 78.099 291.746 85.9958 287.937L108.292 277.184C112.099 275.347 114.803 272.235 116.157 268.651L106.636 273.003C100.821 275.66 93.8821 273.252 91.138 267.621H91.1401Z" fill="black"/>
<path d="M250.525 260.087L228.229 249.334C224.475 247.523 220.34 247.294 216.609 248.356L225.58 252.457C231.395 255.116 233.882 261.833 231.137 267.464C228.391 273.095 221.454 275.503 215.639 272.846L206.118 268.493C207.472 272.078 210.176 275.19 213.983 277.026L236.28 287.779C244.177 291.588 253.767 288.476 257.701 280.829C261.634 273.183 258.42 263.896 250.523 260.087H250.525Z" fill="black"/>
<path d="M139.78 60.2007C139.191 59.9107 138.47 60.1374 138.168 60.7072C137.869 61.277 138.103 61.9755 138.691 62.2675C139.28 62.5576 140.001 62.3309 140.303 61.761C140.602 61.1912 140.368 60.4927 139.78 60.2007Z" fill="black"/>
<path d="M122.794 63.4277C123.383 63.7177 124.104 63.491 124.406 62.9212C124.705 62.3514 124.471 61.6529 123.883 61.3608C123.294 61.0708 122.573 61.2975 122.271 61.8673C121.972 62.4372 122.206 63.1356 122.794 63.4277Z" fill="black"/>
<path d="M211.872 227.963C206.131 225.056 200.39 222.15 194.649 219.244C185.501 214.612 176.354 209.982 167.204 205.35C165.234 204.353 163.264 203.354 161.294 202.358C161.167 202.294 161.043 202.231 160.916 202.168C160.541 201.978 160.189 202.158 160.022 202.433C159.855 202.709 159.876 203.079 160.252 203.269C165.993 206.175 171.734 209.081 177.476 211.987C186.623 216.619 195.771 221.25 204.92 225.882C206.829 226.848 208.736 227.814 210.643 228.78C209.232 231.288 207.823 233.798 206.412 236.306C206.173 236.729 206.471 237.119 206.836 237.227C207.091 237.302 207.38 237.245 207.546 236.949L207.574 236.9C209.084 234.212 210.594 231.525 212.106 228.839C212.271 228.547 212.193 228.13 211.87 227.967L211.872 227.963Z" fill="white" fill-opacity="0.8"/>
<path d="M160.758 256.102C148.491 252.706 136.222 249.307 123.955 245.911C122.219 245.431 120.485 244.949 118.749 244.469C118.342 244.357 118.051 244.606 117.965 244.914C117.878 245.22 117.994 245.584 118.401 245.696C118.6 245.751 118.798 245.807 118.996 245.862C131.065 249.205 143.136 252.546 155.205 255.89C156.599 256.276 157.993 256.662 159.389 257.048C159.729 257.142 160.071 257.236 160.41 257.33C160.817 257.442 161.108 257.193 161.197 256.884C161.283 256.578 161.167 256.214 160.76 256.1L160.758 256.102Z" fill="white" fill-opacity="0.8"/>
<path d="M64.803 57.8782C64.8896 57.788 65.0355 57.7834 65.1293 57.8675L70.6377 62.8218C70.7314 62.9063 70.7366 63.0483 70.6498 63.1387L65.3327 68.6785C65.246 68.7688 65.1002 68.7736 65.0064 68.6892L59.4986 63.7356C59.4047 63.6511 59.399 63.5085 59.4859 63.418L64.803 57.8782ZM32.7427 34.8015C36.1902 31.2061 39.6099 29.1171 42.9891 28.4211C46.1704 27.7698 49.3566 28.7498 52.5992 31.5496L52.9134 31.8264C53.9981 32.802 54.8224 33.7452 55.4147 34.6587C56.0036 35.5766 56.4182 36.5211 56.6585 37.4993C56.903 38.4944 57.0163 39.5522 56.9946 40.6751L56.9952 40.6772C56.976 41.831 56.8875 43.0874 56.7364 44.4485L56.7355 44.4593C56.6132 45.7605 56.5851 46.8983 56.6543 47.8554L56.6541 47.8581C56.7277 48.8354 56.9416 49.7378 57.3093 50.5539C57.6699 51.3617 58.151 52.0962 58.7381 52.7594C59.1331 53.2057 59.5824 53.6688 60.0815 54.1456C60.1876 54.2469 60.1825 54.3976 60.0995 54.4842L55.2569 59.5311C53.4789 57.8897 52.1762 56.4382 51.3324 55.1861C50.4311 53.8488 49.8796 52.3188 49.6879 50.5931L49.6865 50.5855L49.6857 50.5786C49.5514 49.5694 49.5634 48.5668 49.7145 47.5756C49.8789 46.4978 49.972 45.443 49.9858 44.4112L49.986 44.4085C49.9963 43.3521 49.8598 42.3209 49.5718 41.3199C49.2959 40.361 48.698 39.4549 47.834 38.5959L47.4473 38.2309C45.6518 36.6154 43.7973 35.8449 41.9329 36.2032C40.2171 36.533 38.7108 37.3893 37.4228 38.731C35.6273 40.6018 34.7901 42.5212 35.2498 44.4355C35.6165 45.9782 36.4827 47.5339 37.793 49.1052C37.8866 49.2174 37.8716 49.3594 37.7959 49.4383L32.7091 54.7386C32.6164 54.8351 32.4861 54.8214 32.4196 54.7559C31.0827 53.4401 30.0559 52.0394 29.3321 50.5566C28.4939 48.8393 28.0677 47.0965 28.0505 45.3237C28.0333 43.5464 28.4099 41.7604 29.2007 39.9586L29.2014 39.958C29.9874 38.1622 31.1654 36.4433 32.7419 34.8021L32.7427 34.8015Z" fill="white" stroke="black" stroke-width="1.36645"/>
<path d="M86.3895 43.252C86.5042 43.2032 86.6383 43.2553 86.6903 43.3693L89.1341 48.7323C89.1866 48.8476 89.1351 48.9824 89.0192 49.0319L83.2162 51.5088C83.1014 51.5578 82.9665 51.5059 82.9144 51.3919L80.4716 46.0285C80.4191 45.9133 80.4705 45.7785 80.5865 45.7289L86.3895 43.252ZM77.8968 41.4159C77.8957 41.4164 77.8941 41.4166 77.893 41.417L77.8927 41.4161C77.8939 41.4156 77.8953 41.4155 77.8965 41.415L77.8968 41.4159ZM69.5707 14.8834C73.4825 13.211 76.8428 12.7022 79.6844 13.2516C82.4278 13.7854 84.5882 15.6486 86.1385 19.0465C86.6407 20.1482 86.9507 21.1375 87.0932 22.026C87.2316 22.9176 87.2275 23.7725 87.0787 24.5969C86.9266 25.4388 86.6519 26.289 86.2505 27.1471L86.2498 27.1483C85.8378 28.0351 85.3368 28.9799 84.7502 29.9865L84.745 29.9961C84.1986 30.9706 83.781 31.8508 83.5014 32.624L83.5001 32.6264C83.2162 33.4193 83.0678 34.2027 83.0715 34.9716C83.0725 35.729 83.1943 36.4685 83.4251 37.1858C83.565 37.6208 83.7346 38.0803 83.9326 38.5616C83.9906 38.7024 83.9227 38.8421 83.813 38.889L78.5202 41.148C77.7341 39.3465 77.2424 37.84 77.0258 36.6293C76.7915 35.3192 76.8894 33.9708 77.332 32.5834L77.336 32.57C77.5774 31.7524 77.9291 30.9856 78.3842 30.2722C78.8865 29.4847 79.3258 28.6911 79.6952 27.8891L79.6965 27.8867C80.0736 27.0604 80.3271 26.2047 80.4509 25.3222C80.5886 24.3395 80.3637 23.2792 79.8578 22.1669C79.0112 20.3084 77.8114 19.0744 76.1947 18.7395C74.7267 18.4355 73.2423 18.6157 71.764 19.2466L71.7631 19.2469C69.7129 20.1224 68.3632 21.3605 68.0488 23.0474C67.803 24.351 67.9273 25.8138 68.3743 27.4177C68.4155 27.5658 68.3397 27.6925 68.2403 27.735L62.6861 30.1074C62.5613 30.1605 62.4536 30.0944 62.4225 30.0149C61.8758 28.6159 61.5823 27.2513 61.5343 25.9204C61.4771 24.3314 61.745 22.8562 62.3375 21.4887C62.8578 20.2881 63.613 19.1774 64.6168 18.1575L65.0619 17.7257C66.1317 16.7346 67.4148 15.8841 68.9144 15.1771L69.5707 14.8834Z" fill="white" stroke="black" stroke-width="1.36645"/>
<path d="M239.412 141.145H153.779M153.779 141.145L133.109 192.609M153.779 141.145L151.248 137.77" stroke="black" stroke-width="1.36645" stroke-linecap="round"/>
<path d="M103.58 66.4792C102.53 66.56 100.905 67.0212 99.7756 68.1666M98.518 71.9632C98.3744 70.2396 98.9389 69.0153 99.7756 68.1666M99.7756 68.1666C101.044 68.5884 103.411 70.1071 102.736 72.8068" stroke="black" stroke-width="1.36645" stroke-linecap="round"/>
<path d="M64.7709 110.772L20.1531 163.371C15.805 168.496 15.1937 175.818 18.6317 181.594V181.594C21.5881 186.561 27.0299 189.506 32.805 189.266L84.1755 187.125V171.939L54.6467 163.924L77.8479 141.567" stroke="black" stroke-width="1.36645" stroke-linecap="round"/>
<path d="M84.5972 174.469L93.034 174.469C97.6743 169.83 107.798 168.986 110.329 179.11C112.86 189.234 103.158 187.265 97.6743 187.124" stroke="black" stroke-width="1.36645" stroke-linecap="round"/>
<path d="M106.457 63.9017C106.199 64.1765 106.212 64.6089 106.486 64.8675C106.761 65.1261 107.194 65.113 107.452 64.8382L106.457 63.9017ZM106.955 48.3401L107.196 47.7009C106.908 47.5922 106.583 47.6895 106.402 47.9384C106.221 48.1874 106.229 48.5266 106.421 48.7669L106.955 48.3401ZM143.655 48.3401L144.332 48.2517L144.187 47.1386L143.265 47.7789L143.655 48.3401ZM152.401 59.9818C152.773 60.0439 153.125 59.7924 153.187 59.4202C153.249 59.048 152.998 58.696 152.626 58.634L152.401 59.9818ZM107.452 64.8382C109.851 62.2893 113.169 55.014 107.488 47.9133L106.421 48.7669C111.54 55.165 108.558 61.6698 106.457 63.9017L107.452 64.8382ZM106.714 48.9793C110.456 50.3915 116.659 52.5257 123.473 53.238C130.282 53.9499 137.782 53.2498 144.044 48.9013L143.265 47.7789C137.378 51.8671 130.255 52.5732 123.615 51.879C116.978 51.1851 110.906 49.1009 107.196 47.7009L106.714 48.9793ZM142.977 48.4285C143.199 50.1264 143.922 52.7138 145.387 55.0231C146.857 57.3397 149.113 59.4338 152.401 59.9818L152.626 58.634C149.839 58.1696 147.877 56.3968 146.541 54.2912C145.201 52.1781 144.533 49.7879 144.332 48.2517L142.977 48.4285Z" fill="black"/>
<path d="M103.58 45.0159C100.478 45.6005 97.3459 47.1303 94.2996 49.6055C87.5502 55.0894 87.5502 63.5262 87.5502 68.1664C87.5502 72.8066 88.8157 73.6503 80.3789 83.7744C75.1817 90.0111 75.4872 97.6484 76.8656 102.757" stroke="black" stroke-width="1.36645" stroke-linecap="round"/>
<path d="M166.5 104.5C169.031 101.969 169.809 99.8039 163.059 82.9304C156.31 66.0568 160.528 65.2131 163.059 57.62C165.59 50.0269 145.342 23.8733 122.563 28.5135C103.392 32.4187 98.6584 42.9962 101.049 45.3867" stroke="black" stroke-width="1.36645" stroke-linecap="round"/>
<rect x="244.314" y="7.68323" width="39.1301" height="34.9117" rx="4.78258" fill="white" stroke="black" stroke-width="1.36645"/>
<path d="M274.247 17.463L271.269 14.3882L263.661 21.2929L256.53 13.926L253.353 16.8038L260.484 24.1706L252.876 31.0754L255.854 34.1502L263.462 27.2455L270.586 34.614L273.762 31.7301L266.637 24.3616L274.247 17.463Z" fill="black"/>
</svg>
