<svg width="300" height="286" viewBox="0 0 300 286" fill="none" xmlns="http://www.w3.org/2000/svg">
<path d="M229.242 80.7261L225.804 86.6781H232.68L229.242 80.7261Z" fill="#2B2B2B"/>
<path fill-rule="evenodd" clip-rule="evenodd" d="M229.242 80.426C229.349 80.426 229.448 80.4832 229.502 80.576L232.94 86.528C232.993 86.6208 232.993 86.7352 232.94 86.828C232.886 86.9208 232.787 86.978 232.68 86.978H225.804C225.697 86.978 225.598 86.9208 225.544 86.828C225.491 86.7352 225.491 86.6208 225.544 86.528L228.982 80.576C229.036 80.4832 229.135 80.426 229.242 80.426ZM226.324 86.378H232.16L229.242 81.3258L226.324 86.378Z" fill="#2B2B2B"/>
<path d="M56.594 137.39L52.136 139.962V134.812L56.594 137.39Z" fill="#2B2B2B" stroke="#2B2B2B"/>
<path d="M244.068 186.368L247.506 180.41H240.63L244.068 186.368Z" fill="#3369FF"/>
<path d="M238.632 100.964C238.632 100.436 238.206 100.01 237.678 100.01C237.15 100.01 236.724 100.436 236.724 100.964C236.724 101.492 237.15 101.918 237.678 101.918C238.206 101.918 238.632 101.492 238.632 100.964Z" fill="#2B2B2B"/>
<path fill-rule="evenodd" clip-rule="evenodd" d="M238.032 100.964C238.032 100.767 237.875 100.61 237.678 100.61C237.481 100.61 237.324 100.767 237.324 100.964C237.324 101.161 237.481 101.318 237.678 101.318C237.875 101.318 238.032 101.161 238.032 100.964ZM237.678 100.01C238.206 100.01 238.632 100.436 238.632 100.964C238.632 101.492 238.206 101.918 237.678 101.918C237.15 101.918 236.724 101.492 236.724 100.964C236.724 100.436 237.15 100.01 237.678 100.01Z" fill="#2B2B2B"/>
<path d="M226.896 187.742C226.896 187.214 226.47 186.788 225.942 186.788C225.414 186.788 224.988 187.214 224.988 187.742C224.988 188.27 225.414 188.696 225.942 188.696C226.47 188.696 226.896 188.27 226.896 187.742Z" fill="#2B2B2B"/>
<path fill-rule="evenodd" clip-rule="evenodd" d="M224.688 187.742C224.688 187.049 225.248 186.488 225.942 186.488C226.636 186.488 227.196 187.049 227.196 187.742C227.196 188.436 226.636 188.996 225.942 188.996C225.248 188.996 224.688 188.436 224.688 187.742ZM225.942 187.088C225.58 187.088 225.288 187.38 225.288 187.742C225.288 188.105 225.58 188.396 225.942 188.396C226.304 188.396 226.596 188.105 226.596 187.742C226.596 187.38 226.304 187.088 225.942 187.088Z" fill="#2B2B2B"/>
<path d="M120.534 146.864C120.534 146.336 120.108 145.91 119.58 145.91C119.052 145.91 118.626 146.336 118.626 146.864C118.626 147.392 119.052 147.818 119.58 147.818C120.108 147.818 120.534 147.392 120.534 146.864Z" fill="#3369FF"/>
<path d="M85.782 177.374C85.782 176.846 85.356 176.42 84.828 176.42C84.3 176.42 83.874 176.846 83.874 177.374C83.874 177.902 84.3 178.328 84.828 178.328C85.356 178.328 85.782 177.902 85.782 177.374Z" fill="#3369FF"/>
<path d="M216.75 203.624C216.75 203.096 216.324 202.67 215.796 202.67C215.268 202.67 214.842 203.096 214.842 203.624C214.842 204.152 215.268 204.578 215.796 204.578C216.324 204.578 216.75 204.152 216.75 203.624Z" fill="#3369FF"/>
<path d="M253.602 84.0021C253.602 83.4741 253.176 83.0481 252.648 83.0481C252.12 83.0481 251.694 83.4741 251.694 84.0021C251.694 84.5301 252.12 84.9561 252.648 84.9561C253.176 84.9561 253.602 84.5301 253.602 84.0021Z" fill="#3369FF"/>
<path d="M217.704 156.164C217.704 155.636 217.278 155.21 216.75 155.21C216.222 155.21 215.796 155.636 215.796 156.164C215.796 156.692 216.222 157.118 216.75 157.118C217.278 157.118 217.704 156.692 217.704 156.164Z" fill="#2B2B2B"/>
<path fill-rule="evenodd" clip-rule="evenodd" d="M217.104 156.164C217.104 155.968 216.947 155.81 216.75 155.81C216.553 155.81 216.396 155.968 216.396 156.164C216.396 156.361 216.553 156.518 216.75 156.518C216.947 156.518 217.104 156.361 217.104 156.164ZM216.75 155.21C217.278 155.21 217.704 155.636 217.704 156.164C217.704 156.692 217.278 157.118 216.75 157.118C216.222 157.118 215.796 156.692 215.796 156.164C215.796 155.636 216.222 155.21 216.75 155.21Z" fill="#2B2B2B"/>
<path d="M110.304 116.366C110.304 115.838 109.878 115.412 109.35 115.412C108.822 115.412 108.396 115.838 108.396 116.366C108.396 116.894 108.822 117.32 109.35 117.32C109.878 117.32 110.304 116.894 110.304 116.366Z" fill="#2B2B2B"/>
<path fill-rule="evenodd" clip-rule="evenodd" d="M108.096 116.366C108.096 115.672 108.656 115.112 109.35 115.112C110.044 115.112 110.604 115.672 110.604 116.366C110.604 117.06 110.044 117.62 109.35 117.62C108.656 117.62 108.096 117.06 108.096 116.366ZM109.35 115.712C108.988 115.712 108.696 116.004 108.696 116.366C108.696 116.728 108.988 117.02 109.35 117.02C109.712 117.02 110.004 116.728 110.004 116.366C110.004 116.004 109.712 115.712 109.35 115.712Z" fill="#2B2B2B"/>
<path d="M32.622 106.94C32.622 106.412 32.196 105.986 31.668 105.986C31.14 105.986 30.714 106.412 30.714 106.94C30.714 107.468 31.14 107.894 31.668 107.894C32.196 107.894 32.622 107.468 32.622 106.94Z" fill="#2B2B2B" stroke="#2B2B2B" stroke-linecap="round" stroke-linejoin="round"/>
<path d="M111.9 153.884C111.9 153.356 111.474 152.93 110.946 152.93C110.418 152.93 109.992 153.356 109.992 153.884C109.992 154.412 110.418 154.838 110.946 154.838C111.474 154.838 111.9 154.412 111.9 153.884Z" fill="#2B2B2B"/>
<path fill-rule="evenodd" clip-rule="evenodd" d="M111.3 153.884C111.3 153.688 111.143 153.53 110.946 153.53C110.749 153.53 110.592 153.688 110.592 153.884C110.592 154.081 110.749 154.238 110.946 154.238C111.143 154.238 111.3 154.081 111.3 153.884ZM110.946 152.93C111.474 152.93 111.9 153.356 111.9 153.884C111.9 154.412 111.474 154.838 110.946 154.838C110.418 154.838 109.992 154.412 109.992 153.884C109.992 153.356 110.418 152.93 110.946 152.93Z" fill="#2B2B2B"/>
<path d="M93.27 183.386C93.27 182.858 92.844 182.432 92.316 182.432C91.788 182.432 91.362 182.858 91.362 183.386C91.362 183.914 91.788 184.34 92.316 184.34C92.844 184.34 93.27 183.914 93.27 183.386Z" fill="#3369FF"/>
<path d="M179.804 21.9963V93.3401H52.4141V21.9963H179.804Z" fill="white" stroke="#2B2B2B" stroke-width="1.16" stroke-linecap="round" stroke-linejoin="round"/>
<path d="M180.384 14.5542C180.384 11.7928 178.145 9.5542 175.384 9.5542H56.834C54.0726 9.5542 51.834 11.7928 51.834 14.5542V21.4162H180.384V14.5542Z" fill="#2B2B2B"/>
<path d="M58.374 17.258C59.3516 17.258 60.144 16.4656 60.144 15.488C60.144 14.5105 59.3516 13.718 58.374 13.718C57.3965 13.718 56.604 14.5105 56.604 15.488C56.604 16.4656 57.3965 17.258 58.374 17.258Z" fill="#3369FF"/>
<path d="M65.85 17.258C66.8275 17.258 67.62 16.4656 67.62 15.488C67.62 14.5105 66.8275 13.718 65.85 13.718C64.8724 13.718 64.08 14.5105 64.08 15.488C64.08 16.4656 64.8724 17.258 65.85 17.258Z" fill="#3369FF"/>
<path d="M75.09 15.488C75.09 14.51 74.298 13.718 73.32 13.718C72.342 13.718 71.55 14.51 71.55 15.488C71.55 16.466 72.342 17.258 73.32 17.258C74.298 17.258 75.09 16.466 75.09 15.488Z" fill="#3369FF"/>
<path fill-rule="evenodd" clip-rule="evenodd" d="M78.774 13.9462C78.774 13.7806 78.9083 13.6462 79.074 13.6462H177.066C177.232 13.6462 177.366 13.7806 177.366 13.9462C177.366 14.1119 177.232 14.2462 177.066 14.2462H79.074C78.9083 14.2462 78.774 14.1119 78.774 13.9462Z" fill="white"/>
<path fill-rule="evenodd" clip-rule="evenodd" d="M78.774 17.018C78.774 16.8523 78.9083 16.718 79.074 16.718H177.066C177.232 16.718 177.366 16.8523 177.366 17.018C177.366 17.1837 177.232 17.318 177.066 17.318H79.074C78.9083 17.318 78.774 17.1837 78.774 17.018Z" fill="white"/>
<path d="M89.904 118.886L71.832 128.942L53.76 118.886C44.604 113.792 38.928 104.138 38.928 93.656V50.846L71.826 38.438L104.724 50.846V93.656C104.724 104.132 99.048 113.786 89.892 118.886H89.904Z" fill="#3369FF"/>
<path d="M86.892 113.012L71.838 121.394L56.784 113.012C49.158 108.764 44.43 100.724 44.43 91.9942V55.0582L71.838 44.7202L99.246 55.0582V91.9942C99.246 100.724 94.518 108.764 86.892 113.012Z" fill="#99B4FF"/>
<path fill-rule="evenodd" clip-rule="evenodd" d="M102.606 95.7261C102.772 95.7262 102.906 95.8606 102.906 96.0263C102.9 104.5 97.6792 112.748 90.0205 116.379C89.8708 116.45 89.6919 116.386 89.6209 116.237C89.5499 116.087 89.6137 115.908 89.7635 115.837C97.2128 112.305 102.3 104.268 102.306 96.0259C102.306 95.8602 102.441 95.726 102.606 95.7261Z" fill="#2B2B2B"/>
<path d="M41.658 51.9862L66.678 42.1162" stroke="white" stroke-linecap="round" stroke-linejoin="round"/>
<path d="M71.838 38.438V128.942" stroke="#2B2B2B" stroke-linecap="round" stroke-linejoin="round"/>
<path d="M77.0111 106.836C88.9373 103.977 96.2879 91.9912 93.429 80.065C90.5702 68.1389 78.5846 60.7883 66.6584 63.6471C54.7323 66.506 47.3817 78.4916 50.2405 90.4177C53.0994 102.344 65.085 109.694 77.0111 106.836Z" fill="white"/>
<path d="M71.232 101.798L53.802 81.1881L59.862 76.0581L70.38 88.4961L86.178 64.0281L92.844 68.3301L71.232 101.798Z" fill="#3369FF"/>
<path d="M223.056 35.3101C223.056 34.7578 222.608 34.3101 222.056 34.3101H154.594C154.042 34.3101 153.594 34.7578 153.594 35.3101V48.7601C153.594 49.3123 154.042 49.7601 154.594 49.7601H208.205C208.562 49.7601 208.892 49.9506 209.071 50.26L210.712 53.1024C211.097 53.769 212.059 53.769 212.444 53.1024L214.085 50.26C214.264 49.9506 214.594 49.7601 214.951 49.7601H222.056C222.608 49.7601 223.056 49.3123 223.056 48.7601V35.3101Z" fill="#3369FF"/>
<path d="M162.63 45.9381L158.778 41.3901L160.116 40.2561L162.444 43.0041L165.93 37.5981L167.4 38.5521L162.63 45.9381Z" fill="white"/>
<path fill-rule="evenodd" clip-rule="evenodd" d="M171.408 38.9663C171.408 38.8006 171.542 38.6663 171.708 38.6663H218.772C218.938 38.6663 219.072 38.8006 219.072 38.9663C219.072 39.1319 218.938 39.2663 218.772 39.2663H171.708C171.542 39.2663 171.408 39.1319 171.408 38.9663Z" fill="#2B2B2B"/>
<path fill-rule="evenodd" clip-rule="evenodd" d="M171.408 42.038C171.408 41.8724 171.542 41.738 171.708 41.738H218.772C218.938 41.738 219.072 41.8724 219.072 42.038C219.072 42.2037 218.938 42.338 218.772 42.338H171.708C171.542 42.338 171.408 42.2037 171.408 42.038Z" fill="#2B2B2B"/>
<path fill-rule="evenodd" clip-rule="evenodd" d="M171.408 45.1101C171.408 44.9444 171.542 44.8101 171.708 44.8101H218.772C218.938 44.8101 219.072 44.9444 219.072 45.1101C219.072 45.2757 218.938 45.4101 218.772 45.4101H171.708C171.542 45.4101 171.408 45.2757 171.408 45.1101Z" fill="#2B2B2B"/>
<path d="M190.672 60.592H258.134C258.41 60.592 258.634 60.8159 258.634 61.092V74.5422C258.634 74.8183 258.41 75.0422 258.134 75.0422H204.524C203.988 75.0422 203.493 75.3282 203.225 75.7922L201.583 78.634C201.391 78.9673 200.909 78.9673 200.717 78.634L199.075 75.7922C198.807 75.3282 198.312 75.0422 197.776 75.0422H190.672C190.396 75.0422 190.172 74.8183 190.172 74.5422V61.092L190.182 60.9915C190.228 60.7635 190.43 60.592 190.672 60.592Z" fill="white" stroke="#2B2B2B"/>
<path d="M248.598 71.7201L244.746 67.1721L246.084 66.0381L248.406 68.7861L251.898 63.3801L253.368 64.3281L248.598 71.7201Z" fill="#3369FF"/>
<path fill-rule="evenodd" clip-rule="evenodd" d="M192.918 64.736C192.918 64.5703 193.052 64.436 193.218 64.436H240.282C240.448 64.436 240.582 64.5703 240.582 64.736C240.582 64.9017 240.448 65.036 240.282 65.036H193.218C193.052 65.036 192.918 64.9017 192.918 64.736Z" fill="#2B2B2B"/>
<path fill-rule="evenodd" clip-rule="evenodd" d="M192.918 67.8081C192.918 67.6424 193.052 67.5081 193.218 67.5081H240.282C240.448 67.5081 240.582 67.6424 240.582 67.8081C240.582 67.9737 240.448 68.1081 240.282 68.1081H193.218C193.052 68.1081 192.918 67.9737 192.918 67.8081Z" fill="#2B2B2B"/>
<path fill-rule="evenodd" clip-rule="evenodd" d="M192.918 70.8801C192.918 70.7144 193.052 70.5801 193.218 70.5801H240.282C240.448 70.5801 240.582 70.7144 240.582 70.8801C240.582 71.0458 240.448 71.1801 240.282 71.1801H193.218C193.052 71.1801 192.918 71.0458 192.918 70.8801Z" fill="#2B2B2B"/>
<path d="M226.416 275.744C226.416 271.268 195.06 271.268 156.384 271.268C117.708 271.268 86.352 271.268 86.352 275.744C86.352 280.22 117.708 280.22 156.384 280.22C195.06 280.22 226.416 280.22 226.416 275.744Z" fill="#D9D9D9"/>
<path d="M203.286 271.298C199.68 267.542 199.68 261.596 201.924 256.898C191.79 257.138 182.31 257.852 172.17 258.092C172.344 263.636 172.518 269.18 172.692 274.724L207.816 275.744C207.816 273.344 204.564 272.636 203.28 271.304L203.286 271.298Z" fill="#2B2B2B"/>
<path d="M189.198 262.79C191.748 262.718 194.292 262.646 196.842 262.574" stroke="white" stroke-linecap="round" stroke-linejoin="round"/>
<path d="M189.648 264.902C192.396 264.908 195.138 264.92 197.886 264.926" stroke="white" stroke-linecap="round" stroke-linejoin="round"/>
<path d="M190.392 267.32L198.33 267.404" stroke="white" stroke-linecap="round" stroke-linejoin="round"/>
<path d="M131.52 270.818C128.55 268.94 127.218 265.1 126.486 261.668C125.886 258.866 126.192 255.362 127.578 252.854C117.816 250.418 108.3 248.264 98.538 245.828C97.608 252.284 96.684 258.746 95.754 265.202C100.806 268.34 105.87 271.646 110.916 274.784L135.666 274.874C136.092 272.354 133.176 271.868 131.514 270.818H131.52Z" fill="#2B2B2B"/>
<path d="M114.606 258.98C117.15 258.926 119.694 258.878 122.244 258.824" stroke="white" stroke-linecap="round" stroke-linejoin="round"/>
<path d="M114.156 261.26C117.102 261.326 120.048 261.398 122.994 261.464" stroke="white" stroke-linecap="round" stroke-linejoin="round"/>
<path d="M115.05 263.684C118.194 263.774 121.344 263.858 124.488 263.948" stroke="white" stroke-linecap="round" stroke-linejoin="round"/>
<path d="M200.082 132.638L139.428 137.264C134.184 154.79 128.94 172.31 123.696 189.836C114.264 205.256 101.97 226.31 96.384 247.004C107.64 250.52 118.878 253.736 130.134 257.252C137.472 241.82 145.104 226.424 152.436 210.998C157.614 200.102 162.786 189.536 167.88 178.604C169.17 187.748 169.854 197.018 171.144 206.162C170.676 225.104 170.136 241.7 169.506 259.598C181.038 259.778 192.942 259.154 204.474 259.334C204.552 240.686 204.558 222.074 204.642 203.42C204.744 179.864 201.546 156.158 200.088 132.644L200.082 132.638Z" fill="#3369FF"/>
<path d="M167.79 178.952C168.984 175.622 170.172 172.292 171.36 168.962L167.79 178.952Z" fill="#2B2B2B"/>
<path fill-rule="evenodd" clip-rule="evenodd" d="M171.461 168.68C171.617 168.735 171.698 168.907 171.643 169.063C170.455 172.393 169.266 175.723 168.072 179.053C168.016 179.209 167.845 179.291 167.689 179.235C167.533 179.179 167.452 179.007 167.508 178.851C168.701 175.521 169.889 172.191 171.077 168.861C171.133 168.705 171.305 168.624 171.461 168.68Z" fill="#2B2B2B"/>
<path fill-rule="evenodd" clip-rule="evenodd" d="M142.014 145.352C142.173 145.399 142.264 145.565 142.218 145.724C137.985 160.298 133.752 174.873 129.519 189.441C129.594 189.47 129.664 189.512 129.728 189.565C129.89 189.701 129.984 189.891 130.043 190.072C130.159 190.428 130.179 190.881 130.194 191.218L130.194 191.222C130.229 192.052 129.712 192.777 129.118 193.235M126.41 194.031C116.885 208.915 108.64 224.368 102.491 240.929C102.434 241.084 102.261 241.163 102.106 241.106C101.95 241.048 101.871 240.875 101.929 240.72C108.118 224.051 116.421 208.51 126.005 193.551C126.068 193.452 126.182 193.4 126.298 193.415C127.162 193.531 128.065 193.293 128.75 192.761L128.751 192.761C129.261 192.367 129.618 191.809 129.594 191.247C129.579 190.888 129.559 190.522 129.473 190.258C129.431 190.128 129.383 190.059 129.343 190.025C129.315 190.002 129.274 189.98 129.179 189.995C129.077 190.011 128.975 189.974 128.907 189.897C128.839 189.82 128.815 189.713 128.844 189.615C133.108 174.94 137.371 160.26 141.635 145.579L141.642 145.557C141.688 145.398 141.855 145.306 142.014 145.352" fill="#2B2B2B"/>
<path d="M98.958 240.164C110.148 243.884 121.344 247.604 132.534 251.318L98.958 240.164Z" fill="#2B2B2B"/>
<path d="M98.958 240.164C110.148 243.884 121.344 247.604 132.534 251.318" stroke="#2B2B2B" stroke-linecap="round" stroke-linejoin="round"/>
<path d="M170.628 252.824C181.662 252.476 192.69 252.128 203.724 251.78L170.628 252.824Z" fill="#2B2B2B"/>
<path d="M170.628 252.824C181.662 252.476 192.69 252.128 203.724 251.78" stroke="#2B2B2B" stroke-linecap="round" stroke-linejoin="round"/>
<path fill-rule="evenodd" clip-rule="evenodd" d="M169.779 173.227C169.942 173.198 170.097 173.308 170.126 173.471L175.382 203.675C175.394 203.744 175.381 203.815 175.346 203.876C174.958 204.551 174.719 205.407 174.72 206.223C174.721 207.04 174.962 207.782 175.49 208.278C175.553 208.337 175.587 208.421 175.584 208.508C175.28 216.011 174.943 223.491 174.606 230.97C174.284 238.11 173.962 245.25 173.67 252.41C173.663 252.576 173.523 252.705 173.358 252.698C173.192 252.691 173.063 252.552 173.07 252.386C173.364 245.204 173.685 238.071 174.007 230.939C174.341 223.514 174.676 216.091 174.979 208.616C174.367 207.979 174.122 207.101 174.12 206.224C174.118 205.338 174.365 204.42 174.772 203.673L169.534 173.574C169.506 173.41 169.615 173.255 169.779 173.227Z" fill="#2B2B2B"/>
<path d="M219.072 98.072C224.7 101.864 230.01 113.21 227.694 120.494C225.372 127.778 219.534 130.55 214.212 131.822C208.896 133.094 196.164 127.91 196.164 127.91L191.796 112.346L205.998 98.948L219.072 98.072Z" fill="white"/>
<path d="M210.018 104.342C206.892 101.012 204.81 96.9081 201.468 93.7941C195.282 88.0341 186.714 85.7001 178.26 85.5921C174.09 85.5381 169.992 85.3401 165.822 85.2861C165.678 86.3121 164.952 87.2181 164.004 87.6381C163.062 88.0581 161.934 88.0101 160.998 87.5601C160.068 87.1101 159.36 86.2461 158.97 85.2861C155.304 86.7141 151.632 88.1361 147.966 89.5641C139.548 92.8341 132.036 98.5881 127.662 106.496C132.492 108.416 137.064 110.678 141.894 112.598C141.012 120.98 140.046 129.422 139.164 137.81L199.428 139.61C198.834 130.628 197.436 121.652 195.078 112.964C200.052 110.054 205.044 107.246 210.018 104.336V104.342Z" fill="#2B2B2B"/>
<path fill-rule="evenodd" clip-rule="evenodd" d="M127.437 106.291C127.486 106.133 127.654 106.044 127.813 106.093L151.262 113.364C151.42 113.413 151.509 113.581 151.46 113.74C151.411 113.898 151.242 113.986 151.084 113.937L127.635 106.666C127.477 106.617 127.388 106.449 127.437 106.291Z" fill="white"/>
<path fill-rule="evenodd" clip-rule="evenodd" d="M171.785 85.5895C171.942 85.6421 172.027 85.8121 171.974 85.9692C170.767 89.5792 167.331 92.3229 163.542 92.7006C159.752 93.0783 155.841 91.0701 153.94 87.7698C153.857 87.6262 153.907 87.4428 154.05 87.3601C154.194 87.2774 154.377 87.3268 154.46 87.4703C156.243 90.566 159.928 92.4578 163.482 92.1035C167.037 91.7493 170.273 89.1649 171.405 85.7789C171.458 85.6218 171.628 85.537 171.785 85.5895Z" fill="#2B2B2B"/>
<path fill-rule="evenodd" clip-rule="evenodd" d="M151.225 92.0692C149.676 90.7889 147.348 90.422 145.68 91.4345C145.538 91.5204 145.353 91.4752 145.268 91.3336C145.182 91.1919 145.227 91.0074 145.368 90.9215C147.299 89.75 149.904 90.199 151.607 91.6065C153.311 93.0087 154.198 95.1913 154.444 97.3358L154.444 97.3367C154.684 99.4797 154.345 101.637 153.942 103.709L153.942 103.709C153.286 107.087 152.425 110.428 151.378 113.703C151.327 113.861 151.158 113.948 151.001 113.898C150.843 113.847 150.756 113.678 150.806 113.521C151.847 110.268 152.702 106.949 153.354 103.595C153.755 101.527 154.076 99.4485 153.848 97.4037C153.614 95.3604 152.773 93.3433 151.225 92.0696L151.225 92.0692Z" fill="white"/>
<path fill-rule="evenodd" clip-rule="evenodd" d="M183.085 85.9115C183.243 85.8624 183.411 85.9509 183.461 86.1091C185.101 91.3954 187.662 96.3459 190.22 101.288C191.177 103.132 192.132 104.978 193.087 106.824L193.089 106.828C194.045 108.674 195 110.52 195.956 112.364C196.033 112.511 195.975 112.692 195.828 112.768C195.681 112.845 195.5 112.787 195.424 112.64C194.467 110.795 193.511 108.948 192.556 107.102C191.6 105.255 190.645 103.409 189.688 101.564L189.686 101.561C187.133 96.6279 184.546 91.6314 182.887 86.287C182.838 86.1287 182.927 85.9606 183.085 85.9115Z" fill="white"/>
<path d="M162.378 159.548C162.378 159.548 172.236 164.552 179.874 166.01L190.89 161.45L193.392 157.586L170.676 149.288L158.862 153.884L162.372 159.548H162.378Z" fill="white"/>
<path d="M180.78 162.584C184.122 161.498 187.464 160.418 190.806 159.332L180.78 162.584Z" fill="#2B2B2B"/>
<path fill-rule="evenodd" clip-rule="evenodd" d="M191.091 159.24C191.143 159.397 191.056 159.566 190.899 159.618C189.228 160.161 187.557 160.702 185.886 161.244L185.885 161.244C184.214 161.785 182.544 162.327 180.873 162.87C180.715 162.921 180.546 162.835 180.495 162.677C180.443 162.519 180.53 162.35 180.687 162.299C182.358 161.756 184.029 161.214 185.7 160.673L185.7 160.673L185.701 160.673C187.372 160.131 189.043 159.59 190.713 159.047C190.871 158.996 191.04 159.082 191.091 159.24Z" fill="#2B2B2B"/>
<path d="M211.14 119.378L204.618 118.832C204.738 117.356 204.678 115.916 204.426 114.548C202.806 105.65 194.256 99.7281 185.358 101.348C176.46 102.968 170.538 111.518 172.158 120.416C172.404 121.778 172.854 123.152 173.49 124.496L167.568 127.298C166.686 125.438 166.062 123.512 165.714 121.586C163.452 109.136 171.738 97.1721 184.188 94.9041C196.638 92.6421 208.602 100.928 210.864 113.372C211.218 115.31 211.308 117.326 211.134 119.372L211.14 119.378Z" fill="#3369FF"/>
<path fill-rule="evenodd" clip-rule="evenodd" d="M182.145 96.9146C182.185 97.0755 182.086 97.2379 181.926 97.2774C175.941 98.7471 170.837 103.408 168.836 109.234C168.782 109.39 168.611 109.474 168.455 109.42C168.298 109.366 168.214 109.195 168.268 109.039C170.335 103.02 175.599 98.2131 181.782 96.6948C181.943 96.6552 182.106 96.7537 182.145 96.9146Z" fill="white"/>
<path d="M162.474 125.018C162.276 127.388 163.134 134.108 163.584 136.562C166.326 151.628 180.756 161.618 195.822 158.882C210.888 156.14 220.878 141.71 218.142 126.644C217.698 124.196 216.132 117.602 215.118 115.448L162.48 125.018H162.474Z" fill="#99B4FF"/>
<path d="M196.392 131.096C195.846 128.09 192.96 126.092 189.954 126.638C186.948 127.184 184.95 130.07 185.496 133.076C185.94 135.512 187.926 137.264 190.26 137.552L190.332 149.462L197.634 148.136L193.512 136.964C195.594 135.866 196.836 133.532 196.392 131.096Z" fill="#2B2B2B"/>
<path fill-rule="evenodd" clip-rule="evenodd" d="M195.802 131.203C195.315 128.524 192.741 126.742 190.061 127.229C187.381 127.715 185.6 130.289 186.086 132.969M196.392 131.096C195.846 128.09 192.96 126.092 189.954 126.638C186.948 127.184 184.95 130.07 185.496 133.076C185.94 135.512 187.926 137.264 190.26 137.552L190.332 149.462L197.634 148.136L193.512 136.964C195.594 135.866 196.836 133.532 196.392 131.096ZM196.824 147.674L192.767 136.679L193.232 136.434C195.094 135.452 196.196 133.369 195.802 131.203M196.824 147.674L190.928 148.744L190.857 137.021L190.333 136.957C188.249 136.699 186.481 135.135 186.086 132.969" fill="#2B2B2B"/>
<path fill-rule="evenodd" clip-rule="evenodd" d="M189.254 125.51C189.297 125.67 189.202 125.835 189.042 125.878C187.699 126.238 186.487 127.084 185.687 128.221L185.687 128.221C184.882 129.358 184.493 130.782 184.607 132.169C184.621 132.334 184.498 132.479 184.333 132.493C184.167 132.507 184.023 132.384 184.009 132.219C183.883 130.69 184.31 129.126 185.197 127.875C186.077 126.624 187.409 125.694 188.886 125.298C189.046 125.255 189.211 125.35 189.254 125.51Z" fill="#2B2B2B"/>
<path fill-rule="evenodd" clip-rule="evenodd" d="M216.349 131.816C216.515 131.82 216.646 131.958 216.642 132.123C216.442 140.537 211.928 148.728 204.922 153.39C204.784 153.482 204.598 153.444 204.506 153.306C204.414 153.168 204.452 152.982 204.59 152.89C211.432 148.337 215.846 140.327 216.042 132.109C216.046 131.943 216.183 131.812 216.349 131.816Z" fill="#2B2B2B"/>
<path d="M156.018 71.8462C156.366 71.9302 156.714 72.0142 157.056 72.0922L156.018 71.8462Z" fill="#2B2B2B"/>
<path fill-rule="evenodd" clip-rule="evenodd" d="M155.726 71.7758C155.765 71.6148 155.927 71.5157 156.088 71.5546C156.437 71.6387 156.783 71.7222 157.123 71.7997C157.284 71.8366 157.385 71.9974 157.348 72.1589C157.312 72.3205 157.151 72.4215 156.989 72.3847C156.645 72.3063 156.296 72.2219 155.949 72.1381L155.948 72.1378C155.787 72.099 155.687 71.9369 155.726 71.7758Z" fill="#2B2B2B"/>
<path d="M162.834 69.1282C160.362 69.0982 157.914 70.4422 156.606 72.5362C155.298 74.6362 155.166 77.4202 156.276 79.6282L168.078 76.7062C168.396 75.3622 168.672 74.0182 168.99 72.6742C167.724 70.5502 165.312 69.1582 162.834 69.1282Z" fill="#2B2B2B"/>
<path fill-rule="evenodd" clip-rule="evenodd" d="M162.827 69.7281L162.827 69.7281C160.565 69.7007 158.313 70.9369 157.115 72.8537C156.001 74.6421 155.819 76.9824 156.615 78.9261L167.577 76.212C167.704 75.6634 167.826 75.1138 167.948 74.5607L167.949 74.5588C168.079 73.9686 168.21 73.3745 168.349 72.7795C167.16 70.9484 165.016 69.7546 162.827 69.7281ZM168.99 72.6742C168.831 73.3462 168.682 74.0182 168.534 74.6902C168.385 75.3622 168.237 76.0342 168.078 76.7062L156.276 79.6282C155.166 77.4202 155.298 74.6362 156.606 72.5362C157.914 70.4422 160.362 69.0982 162.834 69.1282C165.312 69.1582 167.724 70.5502 168.99 72.6742Z" fill="#2B2B2B"/>
<path d="M169.578 86.132C168.636 86.132 167.652 86.204 166.71 86.204C166.71 85.46 166.74 84.662 166.734 83.918C168 83.612 169.128 82.76 169.764 81.626C170.4 80.486 170.634 79.13 170.184 77.906C169.602 76.346 169.074 74.66 168.492 73.094C167.682 73.97 166.506 74.48 165.324 74.318C163.878 75.716 161.454 76.1 159.654 75.2C159.6 76.124 159.69 76.838 159.636 77.762C158.592 77.288 157.266 77.528 156.45 78.338C155.634 79.148 155.388 80.474 155.862 81.518C156.33 82.562 157.482 83.264 158.628 83.198C158.466 84.26 158.178 85.334 158.01 86.396C157.284 86.684 156.408 86.99 155.682 87.278C157.224 89.618 160.05 91.04 162.846 90.86C165.642 90.68 168.354 88.658 169.572 86.138L169.578 86.132Z" fill="white"/>
<path fill-rule="evenodd" clip-rule="evenodd" d="M168.55 72.7996C168.652 72.8199 168.737 72.8917 168.773 72.9894C169.062 73.7679 169.338 74.5751 169.612 75.3775L169.622 75.4052C169.9 76.2181 170.176 77.0257 170.465 77.8011L170.466 77.8024C170.953 79.128 170.693 80.5759 170.026 81.7721L170.026 81.7727C169.387 82.9106 168.287 83.7793 167.035 84.1479C167.034 84.4831 167.028 84.8359 167.022 85.1846C167.018 85.4281 167.014 85.6696 167.012 85.9017C167.38 85.8963 167.754 85.8823 168.133 85.8682L168.136 85.868C168.615 85.8501 169.101 85.8319 169.578 85.8319C169.699 85.8319 169.809 85.9051 169.855 86.0172C169.894 86.1109 169.882 86.2164 169.827 86.2986C168.561 88.8901 165.771 90.9723 162.865 91.1593C159.961 91.3463 157.032 89.872 155.431 87.443C155.382 87.3676 155.369 87.2739 155.396 87.1878C155.423 87.1017 155.487 87.0324 155.571 86.9991C155.937 86.8539 156.341 86.7044 156.74 86.5564L156.742 86.5557C157.085 86.4284 157.425 86.3022 157.741 86.1791C157.821 85.7099 157.921 85.2402 158.019 84.7777L158.028 84.7347C158.116 84.3166 158.203 83.9042 158.275 83.4952C157.135 83.4166 156.057 82.6858 155.589 81.6413C155.063 80.4825 155.334 79.0227 156.239 78.125C157.039 77.3304 158.275 77.0319 159.352 77.3391C159.357 77.0474 159.351 76.7704 159.345 76.4875L159.345 76.4834C159.336 76.0761 159.327 75.6565 159.354 75.1824C159.36 75.0818 159.416 74.9908 159.504 74.9403C159.591 74.8898 159.698 74.8865 159.788 74.9316C161.473 75.7741 163.76 75.4127 165.115 74.1023C165.182 74.0383 165.274 74.0082 165.365 74.0207C166.434 74.1673 167.517 73.7066 168.272 72.8903C168.342 72.8137 168.448 72.7794 168.55 72.7996ZM169.076 86.438C168.773 86.4447 168.465 86.4561 168.155 86.4677L168.152 86.4678C167.673 86.4858 167.187 86.5039 166.71 86.5039C166.544 86.5039 166.41 86.3696 166.41 86.2039C166.41 85.8501 166.416 85.5012 166.422 85.1544C166.43 84.7417 166.437 84.332 166.434 83.9204C166.433 83.7809 166.528 83.6591 166.663 83.6263C167.849 83.3398 168.907 82.5401 169.502 81.4792C170.107 80.3957 170.315 79.1322 169.903 78.0101C169.61 77.2258 169.331 76.4105 169.054 75.5992L169.046 75.5751C168.822 74.9195 168.599 74.2668 168.369 73.6306C167.565 74.3307 166.51 74.735 165.428 74.6319C163.994 75.9345 161.749 76.3453 159.938 75.652C159.933 75.933 159.939 76.2009 159.945 76.4744L159.945 76.4785C159.954 76.8858 159.963 77.3054 159.935 77.7795C159.93 77.8782 159.876 77.9677 159.791 78.0188C159.706 78.0699 159.602 78.076 159.512 78.0351C158.582 77.6129 157.389 77.8282 156.661 78.5509C155.934 79.273 155.713 80.4648 156.135 81.3939L156.136 81.3952C156.553 82.3258 157.589 82.9573 158.611 82.8984C158.701 82.8932 158.789 82.9291 158.85 82.996C158.911 83.0629 158.938 83.1537 158.925 83.2432C158.842 83.7841 158.728 84.3263 158.615 84.8592L158.607 84.8959C158.496 85.419 158.387 85.9329 158.306 86.4428C158.29 86.5475 158.219 86.6357 158.121 86.6748C157.754 86.82 157.351 86.9695 156.952 87.1175L156.95 87.1182C156.677 87.2197 156.405 87.3204 156.146 87.4194C157.668 89.4872 160.264 90.7256 162.827 90.5606C165.342 90.3986 167.812 88.6681 169.076 86.438Z" fill="#2B2B2B"/>
<path d="M163.446 78.8602C163.777 78.8602 164.046 78.5915 164.046 78.2602C164.046 77.9288 163.777 77.6602 163.446 77.6602C163.115 77.6602 162.846 77.9288 162.846 78.2602C162.846 78.5915 163.115 78.8602 163.446 78.8602Z" fill="#2B2B2B"/>
<path fill-rule="evenodd" clip-rule="evenodd" d="M164.046 78.2602C164.046 78.5915 163.777 78.8602 163.446 78.8602C163.115 78.8602 162.846 78.5915 162.846 78.2602C162.846 77.9288 163.115 77.6602 163.446 77.6602C163.777 77.6602 164.046 77.9288 164.046 78.2602Z" fill="#2B2B2B"/>
<path d="M168.396 77.21C168.727 77.21 168.996 76.9414 168.996 76.61C168.996 76.2786 168.727 76.01 168.396 76.01C168.065 76.01 167.796 76.2786 167.796 76.61C167.796 76.9414 168.065 77.21 168.396 77.21Z" fill="#2B2B2B"/>
<path fill-rule="evenodd" clip-rule="evenodd" d="M168.996 76.61C168.996 76.9414 168.727 77.21 168.396 77.21C168.065 77.21 167.796 76.9414 167.796 76.61C167.796 76.2786 168.065 76.01 168.396 76.01C168.727 76.01 168.996 76.2786 168.996 76.61Z" fill="#2B2B2B"/>
<path fill-rule="evenodd" clip-rule="evenodd" d="M166.229 76.6535C166.38 76.5867 166.558 76.6553 166.624 76.8069C166.894 77.4176 167.169 78.0285 167.445 78.6407C167.485 78.7282 167.48 78.8292 167.433 78.9126C167.385 78.996 167.3 79.0516 167.205 79.0622C167.112 79.0725 166.993 79.0953 166.86 79.1219C166.845 79.1249 166.83 79.1279 166.814 79.131C166.7 79.1539 166.578 79.1784 166.476 79.193C166.312 79.2164 166.16 79.1025 166.137 78.9384C166.114 78.7744 166.228 78.6225 166.392 78.599C166.475 78.587 166.579 78.5662 166.697 78.5427C166.711 78.5399 166.725 78.537 166.739 78.5341C166.516 78.0396 166.294 77.5444 166.075 77.0491C166.009 76.8975 166.077 76.7204 166.229 76.6535Z" fill="#2B2B2B"/>
<path d="M165.54 79.9102C165.606 80.1502 165.81 80.3422 166.05 80.4022C166.29 80.4622 166.56 80.3782 166.728 80.1982" fill="#2B2B2B"/>
<path fill-rule="evenodd" clip-rule="evenodd" d="M165.46 79.6209C165.62 79.577 165.785 79.6709 165.829 79.8306C165.865 79.9619 165.983 80.0763 166.123 80.1111C166.254 80.1438 166.413 80.0963 166.509 79.9935C166.622 79.8724 166.812 79.8658 166.933 79.9789C167.054 80.0919 167.06 80.2818 166.947 80.4029C166.707 80.6601 166.326 80.7805 165.977 80.6932C165.637 80.6081 165.347 80.3385 165.251 79.9897C165.207 79.83 165.301 79.6649 165.46 79.6209Z" fill="#2B2B2B"/>
<path fill-rule="evenodd" clip-rule="evenodd" d="M164.164 75.9952C163.841 75.868 163.472 75.8728 163.153 76.0051C162.834 76.1375 162.57 76.3984 162.439 76.7132C162.375 76.8662 162.2 76.9387 162.047 76.8751C161.894 76.8116 161.821 76.636 161.885 76.483C162.078 76.0177 162.462 75.6426 162.923 75.451C163.384 75.2594 163.915 75.2522 164.384 75.437C164.538 75.4977 164.614 75.6719 164.553 75.826C164.492 75.9802 164.318 76.0559 164.164 75.9952Z" fill="#2B2B2B"/>
<path fill-rule="evenodd" clip-rule="evenodd" d="M168.48 74.4337C168.526 74.593 168.434 74.7591 168.274 74.8046C168.106 74.8528 167.938 74.8995 167.772 74.946L167.772 74.9461C167.605 74.9926 167.439 75.0389 167.272 75.0866C167.113 75.1321 166.947 75.0399 166.902 74.8806C166.856 74.7212 166.948 74.5552 167.108 74.5097C167.276 74.4614 167.444 74.4147 167.61 74.3683L167.61 74.3682C167.777 74.3217 167.943 74.2754 168.11 74.2277C168.269 74.1822 168.435 74.2744 168.48 74.4337Z" fill="#2B2B2B"/>
<path d="M157.578 79.592C158.088 79.61 158.592 79.622 159.102 79.64L157.578 79.592Z" fill="#2B2B2B"/>
<path fill-rule="evenodd" clip-rule="evenodd" d="M157.278 79.5814C157.284 79.4158 157.423 79.2863 157.589 79.2922C157.843 79.3011 158.095 79.3086 158.349 79.3161L158.349 79.3161C158.603 79.3236 158.857 79.3311 159.113 79.3402C159.278 79.346 159.408 79.485 159.402 79.6506C159.396 79.8162 159.257 79.9456 159.091 79.9398C158.837 79.9308 158.585 79.9234 158.331 79.9159L158.331 79.9158C158.077 79.9084 157.823 79.9008 157.567 79.8918C157.402 79.886 157.272 79.747 157.278 79.5814Z" fill="#2B2B2B"/>
<path d="M162.258 83.8748C163.746 84.3008 165.348 84.3008 166.836 83.8748H162.258Z" fill="#2B2B2B"/>
<path fill-rule="evenodd" clip-rule="evenodd" d="M161.97 83.7922C162.015 83.6329 162.181 83.5408 162.341 83.5864C163.775 83.9969 165.319 83.9969 166.753 83.5864C166.913 83.5408 167.079 83.6329 167.124 83.7922C167.17 83.9515 167.078 84.1176 166.919 84.1632C165.377 84.6046 163.717 84.6046 162.175 84.1632C162.016 84.1176 161.924 83.9515 161.97 83.7922Z" fill="#2B2B2B"/>
<path d="M158.49 83.246C158.85 83.114 159.21 82.976 159.57 82.844L158.49 83.246Z" fill="#2B2B2B"/>
<path fill-rule="evenodd" clip-rule="evenodd" d="M159.852 82.7408C159.909 82.8963 159.829 83.0687 159.673 83.1257C159.494 83.1912 159.316 83.2584 159.135 83.3259L159.135 83.3261C158.955 83.3935 158.774 83.4613 158.593 83.5277C158.438 83.5847 158.265 83.5049 158.208 83.3493C158.151 83.1937 158.231 83.0214 158.387 82.9644C158.566 82.8988 158.744 82.8317 158.925 82.7641L158.925 82.7639C159.105 82.6966 159.286 82.6287 159.467 82.5624C159.622 82.5053 159.795 82.5852 159.852 82.7408Z" fill="#2B2B2B"/>
<path d="M219.072 98.0722C215.886 96.1762 212.826 93.7462 209.136 93.3442C203.76 92.7502 198.348 92.4742 192.936 92.5102C192.678 92.7322 192.594 93.0442 192.732 93.3562C192.204 93.3682 191.634 93.4522 191.106 93.4642C190.932 93.9442 191.082 94.4542 191.454 94.8082C191.826 95.1622 192.318 95.3602 192.798 95.5462L198.756 97.8862C197.292 98.1322 195.828 98.1682 194.37 98.4142C194.262 98.7862 194.544 99.1402 194.856 99.3682C195.168 99.5962 195.552 99.6922 195.93 99.7762C199.044 100.502 202.158 101.228 205.272 101.954C206.766 103.55 208.23 105.104 209.718 106.7C211.284 108.38 213.372 109.694 215.646 109.376C217.92 109.064 219.936 107.33 220.584 105.122C221.256 102.83 221.112 99.2842 219.06 98.0602L219.072 98.0722Z" fill="white"/>
<path d="M198.336 97.7241C200.658 97.7361 202.98 97.7541 205.302 97.7661L198.336 97.7241Z" fill="#2B2B2B"/>
<path fill-rule="evenodd" clip-rule="evenodd" d="M198.036 97.7225C198.037 97.5568 198.172 97.4232 198.338 97.4241C199.499 97.4301 200.66 97.4376 201.821 97.4451L201.821 97.4451C202.982 97.4526 204.143 97.4601 205.304 97.4661C205.469 97.4669 205.603 97.6019 205.602 97.7676C205.601 97.9333 205.466 98.0669 205.3 98.0661C204.139 98.0601 202.978 98.0526 201.817 98.0451L201.817 98.0451C200.656 98.0376 199.495 98.0301 198.334 98.0241C198.169 98.0232 198.035 97.8882 198.036 97.7225Z" fill="#2B2B2B"/>
<path d="M192.588 93.134C198.024 93.752 203.46 94.376 208.896 94.994L192.588 93.134Z" fill="#2B2B2B"/>
<path fill-rule="evenodd" clip-rule="evenodd" d="M192.29 93.1001C192.309 92.9355 192.457 92.8172 192.622 92.8359C195.34 93.1449 198.058 93.4554 200.776 93.7659L200.776 93.766C203.494 94.0765 206.212 94.3869 208.93 94.6959C209.094 94.7147 209.213 94.8633 209.194 95.0279C209.175 95.1925 209.027 95.3108 208.862 95.2921C206.144 94.9831 203.426 94.6726 200.708 94.3621L200.708 94.362C197.99 94.0516 195.272 93.7411 192.554 93.4321C192.389 93.4134 192.271 93.2647 192.29 93.1001Z" fill="#2B2B2B"/>
<path fill-rule="evenodd" clip-rule="evenodd" d="M207.854 104.969C207.994 104.881 208.179 104.923 208.268 105.063C210.122 108 213.863 109.627 217.282 108.984C217.445 108.953 217.602 109.061 217.633 109.223C217.663 109.386 217.556 109.543 217.393 109.574C213.733 110.262 209.746 108.529 207.76 105.383C207.672 105.243 207.714 105.058 207.854 104.969Z" fill="#2B2B2B"/>
<path fill-rule="evenodd" clip-rule="evenodd" d="M220.617 99.1846C220.728 99.0617 220.918 99.0524 221.041 99.1636C223.244 101.159 227.78 107.142 228.472 115.251C228.909 120.372 226.658 124.302 224.22 126.88C223.001 128.169 221.73 129.126 220.712 129.732C220.204 130.034 219.752 130.253 219.396 130.381C219.219 130.445 219.056 130.49 218.916 130.509C218.847 130.518 218.774 130.523 218.704 130.516C218.637 130.509 218.551 130.491 218.473 130.438C218.335 130.346 218.297 130.16 218.389 130.022C218.474 129.895 218.638 129.854 218.771 129.919C218.783 129.919 218.805 129.919 218.836 129.914C218.918 129.903 219.037 129.873 219.193 129.817C219.502 129.705 219.918 129.506 220.405 129.216C221.377 128.638 222.604 127.716 223.784 126.468C226.143 123.974 228.293 120.204 227.874 115.302C227.197 107.374 222.753 101.524 220.638 99.6083C220.515 99.4971 220.506 99.3074 220.617 99.1846ZM218.759 129.918C218.759 129.918 218.759 129.918 218.76 129.918L218.759 129.918Z" fill="#2B2B2B"/>
<path d="M170.436 144.722C168.378 144.662 166.818 144.452 164.76 144.392C158.238 138.068 151.752 131.69 145.23 125.366C146.604 121.292 147.984 117.224 149.358 113.15L129.762 106.946C128.196 111.752 126.192 116.732 124.86 121.616C123.144 127.916 124.158 137.03 132.954 143.348C142.548 150.23 152.172 154.838 162.372 159.554L163.668 156.488C169.89 154.826 175.902 151.85 182.34 151.616C183.57 151.574 184.74 150.47 184.68 149.234C179.904 147.752 175.428 144.872 170.436 144.728V144.722Z" fill="white"/>
<path fill-rule="evenodd" clip-rule="evenodd" d="M129.943 106.763C130.097 106.826 130.17 107.001 130.107 107.154L126.6 115.73C121.719 127.665 126.972 141.41 138.507 147.182C147.753 151.809 157.404 156.631 165.08 160.191C168.918 161.972 172.257 163.434 174.801 164.398C176.073 164.881 177.14 165.236 177.967 165.444C178.381 165.548 178.729 165.614 179.008 165.641C179.294 165.67 179.482 165.655 179.593 165.621C179.658 165.601 179.725 165.58 179.793 165.558C181.498 165.026 184.118 164.208 186.541 163.161C187.801 162.616 188.999 162.013 189.983 161.36C190.972 160.705 191.718 160.017 192.107 159.313C192.187 159.168 192.369 159.115 192.514 159.195C192.659 159.275 192.712 159.458 192.632 159.603C192.175 160.432 191.335 161.185 190.315 161.861C189.29 162.54 188.056 163.159 186.779 163.711C184.326 164.772 181.679 165.598 179.977 166.129C179.907 166.151 179.839 166.173 179.772 166.194C179.546 166.264 179.263 166.27 178.949 166.239C178.63 166.207 178.251 166.134 177.821 166.026C176.961 165.809 175.87 165.445 174.588 164.959C172.023 163.987 168.669 162.517 164.827 160.735C157.142 157.17 147.482 152.344 138.239 147.719C126.427 141.808 121.043 127.732 126.045 115.503L129.552 106.927C129.615 106.774 129.79 106.7 129.943 106.763Z" fill="black"/>
<path d="M173.694 153.32C172.824 153.482 171.948 153.644 171.078 153.8L173.694 153.32Z" fill="#2B2B2B"/>
<path fill-rule="evenodd" clip-rule="evenodd" d="M173.989 153.265C174.019 153.428 173.912 153.585 173.749 153.615C172.879 153.777 172.002 153.939 171.131 154.096C170.968 154.125 170.812 154.016 170.783 153.853C170.753 153.69 170.862 153.534 171.025 153.505C171.894 153.349 172.769 153.187 173.639 153.025C173.802 152.995 173.959 153.103 173.989 153.265Z" fill="#2B2B2B"/>
<path d="M145.308 125.228L142.686 125.75L145.308 125.228Z" fill="#2B2B2B"/>
<path fill-rule="evenodd" clip-rule="evenodd" d="M145.602 125.169C145.635 125.332 145.529 125.49 145.367 125.522L142.745 126.044C142.582 126.077 142.424 125.971 142.392 125.809C142.359 125.646 142.465 125.488 142.627 125.456L145.249 124.934C145.412 124.901 145.57 125.007 145.602 125.169Z" fill="#2B2B2B"/>
<path fill-rule="evenodd" clip-rule="evenodd" d="M46.2385 154.746C46.9219 152.627 49.9181 152.627 50.6015 154.746C51.1061 156.311 53.3179 156.311 53.8225 154.746C54.5059 152.627 57.5021 152.627 58.1855 154.746C58.6901 156.311 60.9019 156.311 61.4065 154.746C62.0899 152.627 65.0861 152.627 65.7695 154.746C66.2741 156.311 68.4859 156.311 68.9905 154.746C69.6739 152.627 72.6701 152.627 73.3535 154.746C73.8581 156.311 76.0699 156.311 76.5745 154.746C77.2579 152.627 80.2541 152.627 80.9375 154.746C81.4421 156.311 83.6539 156.311 84.1585 154.746C84.2093 154.588 84.3784 154.502 84.5361 154.553C84.6937 154.604 84.7804 154.773 84.7295 154.93C84.0461 157.05 81.0499 157.05 80.3665 154.93C79.8619 153.366 77.6501 153.366 77.1455 154.93C76.4621 157.05 73.4659 157.05 72.7825 154.93C72.2779 153.366 70.0661 153.366 69.5615 154.93C68.8781 157.05 65.8819 157.05 65.1985 154.93C64.6939 153.366 62.4821 153.366 61.9775 154.93C61.2941 157.05 58.2979 157.05 57.6145 154.93C57.1099 153.366 54.8981 153.366 54.3935 154.93C53.7101 157.05 50.7139 157.05 50.0305 154.93C49.5259 153.366 47.3141 153.366 46.8095 154.93C46.7587 155.088 46.5896 155.175 46.4319 155.124C46.2742 155.073 46.1876 154.904 46.2385 154.746Z" fill="#2B2B2B"/>
<path fill-rule="evenodd" clip-rule="evenodd" d="M227.078 141.072C227.762 138.953 230.758 138.953 231.442 141.072C231.946 142.637 234.158 142.637 234.662 141.072C235.346 138.953 238.342 138.953 239.026 141.072C239.53 142.637 241.742 142.637 242.246 141.072C242.93 138.953 245.926 138.953 246.61 141.072C247.114 142.637 249.326 142.637 249.83 141.072C250.514 138.953 253.51 138.953 254.194 141.072C254.698 142.637 256.91 142.637 257.414 141.072C258.098 138.953 261.094 138.953 261.778 141.072C262.282 142.637 264.494 142.637 264.998 141.072C265.049 140.915 265.218 140.828 265.376 140.879C265.534 140.93 265.62 141.099 265.57 141.256C264.886 143.376 261.89 143.376 261.206 141.256C260.702 139.692 258.49 139.692 257.986 141.256C257.302 143.376 254.306 143.376 253.622 141.256C253.118 139.692 250.906 139.692 250.401 141.256C249.718 143.376 246.722 143.376 246.038 141.256C245.534 139.692 243.322 139.692 242.818 141.256C242.134 143.376 239.138 143.376 238.454 141.256C237.95 139.692 235.738 139.692 235.233 141.256C234.55 143.376 231.554 143.376 230.87 141.256C230.366 139.692 228.154 139.692 227.65 141.256C227.599 141.414 227.43 141.501 227.272 141.45C227.114 141.399 227.028 141.23 227.078 141.072Z" fill="#2B2B2B"/>
<path fill-rule="evenodd" clip-rule="evenodd" d="M118.178 58.8182C118.862 56.699 121.858 56.699 122.542 58.8182C123.046 60.383 125.258 60.383 125.762 58.8182C126.446 56.699 129.442 56.699 130.126 58.8182C130.63 60.383 132.842 60.383 133.346 58.8182C134.03 56.699 137.026 56.699 137.71 58.8182C138.214 60.383 140.426 60.383 140.93 58.8182C141.614 56.699 144.61 56.699 145.294 58.8182C145.798 60.383 148.01 60.383 148.514 58.8182C149.198 56.699 152.194 56.699 152.878 58.8182C153.382 60.383 155.594 60.383 156.098 58.8182C156.149 58.6605 156.318 58.5739 156.476 58.6247C156.634 58.6756 156.72 58.8446 156.67 59.0023C155.986 61.1216 152.99 61.1216 152.306 59.0023C151.802 57.4376 149.59 57.4376 149.086 59.0023C148.402 61.1216 145.406 61.1216 144.722 59.0023C144.218 57.4376 142.006 57.4376 141.502 59.0023C140.818 61.1216 137.822 61.1216 137.138 59.0023C136.634 57.4376 134.422 57.4376 133.918 59.0023C133.234 61.1216 130.238 61.1216 129.554 59.0023C129.05 57.4376 126.838 57.4376 126.334 59.0023C125.65 61.1216 122.654 61.1216 121.97 59.0023C121.466 57.4376 119.254 57.4376 118.75 59.0023C118.699 59.16 118.53 59.2466 118.372 59.1958C118.214 59.1449 118.128 58.9759 118.178 58.8182Z" fill="#2B2B2B"/>
</svg>
