<svg width="300" height="300" viewBox="0 0 300 300" fill="none" xmlns="http://www.w3.org/2000/svg">
<path d="M130.738 218.461C126.5 225.507 131.249 241.16 131.249 241.16L137.534 245.719C142.05 248.434 147.46 249.244 152.573 247.97C157.686 246.697 162.084 243.444 164.799 238.928C167.514 234.412 168.323 229.003 167.05 223.89C165.776 218.777 162.524 214.379 158.008 211.664L150.973 208.26C150.973 208.26 134.916 211.402 130.738 218.461Z" fill="#3369FF"/>
<path d="M147.676 249.159C143.97 249.163 140.335 248.151 137.165 246.231L130.833 241.636C130.726 241.563 130.649 241.453 130.619 241.326C130.416 240.684 125.857 225.352 130.166 218.151C134.499 211.009 150.187 207.807 150.854 207.676C150.974 207.635 151.103 207.635 151.223 207.676L158.21 211.08C162.088 213.366 165.105 216.866 166.793 221.039C168.48 225.212 168.744 229.825 167.544 234.164C166.345 238.502 163.748 242.324 160.156 245.037C156.564 247.75 152.177 249.203 147.676 249.171V249.159ZM131.702 240.827L137.82 245.266C139.991 246.568 142.397 247.429 144.901 247.8C147.405 248.171 149.958 248.046 152.413 247.431C154.869 246.816 157.179 245.723 159.212 244.215C161.245 242.707 162.962 240.813 164.263 238.642C165.564 236.471 166.425 234.065 166.797 231.561C167.168 229.057 167.043 226.504 166.427 224.049C165.812 221.593 164.72 219.283 163.212 217.25C161.704 215.217 159.81 213.501 157.639 212.199L150.89 208.902C149.069 209.295 134.999 212.473 131.19 218.794C127.381 225.114 131.19 239.005 131.702 240.803V240.827Z" fill="#3D3939"/>
<path d="M143.379 245.969C154.351 245.969 163.245 237.074 163.245 226.102C163.245 215.13 154.351 206.236 143.379 206.236C132.407 206.236 123.512 215.13 123.512 226.102C123.512 237.074 132.407 245.969 143.379 245.969Z" fill="#3369FF"/>
<path d="M143.343 246.552C138.828 246.54 134.444 245.035 130.875 242.27C127.305 239.506 124.751 235.638 123.61 231.27C122.469 226.901 122.806 222.278 124.568 218.122C126.33 213.965 129.418 210.508 133.351 208.29C137.283 206.072 141.839 205.218 146.308 205.861C150.777 206.504 154.907 208.607 158.055 211.844C161.203 215.08 163.191 219.267 163.71 223.752C164.229 228.237 163.25 232.767 160.924 236.637C159.106 239.673 156.529 242.184 153.446 243.922C150.364 245.661 146.882 246.567 143.343 246.552ZM143.414 206.819C141.834 206.821 140.259 207.013 138.725 207.391C133.976 208.575 129.859 211.525 127.211 215.64C124.563 219.756 123.584 224.726 124.473 229.538C125.363 234.35 128.054 238.641 131.999 241.538C135.943 244.434 140.844 245.717 145.701 245.125C150.559 244.534 155.008 242.112 158.142 238.353C161.276 234.594 162.858 229.782 162.566 224.897C162.275 220.012 160.131 215.422 156.572 212.063C153.014 208.704 148.308 206.829 143.414 206.819Z" fill="#3D3939"/>
<path d="M132.237 216.996C133.071 217.496 133.892 217.984 134.713 218.496C134.88 218.591 134.963 218.579 135.082 218.496C136.051 217.412 137.28 216.592 138.653 216.116C140.083 215.605 141.651 215.639 143.057 216.211C143.438 216.354 143.819 216.544 144.248 216.723L141.939 220.555C141.357 220.214 140.678 220.079 140.01 220.175C139.498 220.31 138.993 220.473 138.499 220.663V220.71L143.26 223.579L143.605 223.234C144.432 222.315 145.362 221.497 146.378 220.793C147.127 220.26 148.006 219.94 148.922 219.867C149.838 219.793 150.756 219.97 151.58 220.377C153.027 220.979 154.217 222.071 154.941 223.461C155.666 224.851 155.879 226.452 155.544 227.983C155.365 228.84 155.08 229.673 154.83 230.566L156.687 231.673L154.568 235.244L152.663 234.054C152.044 234.649 151.473 235.244 150.866 235.768C149.684 236.804 148.187 237.412 146.616 237.494C145.267 237.521 143.938 237.153 142.796 236.434L145.021 232.613C145.696 232.969 146.466 233.1 147.22 232.987C147.974 232.873 148.672 232.521 149.211 231.982L144.081 228.9C143.45 229.495 142.819 230.09 142.177 230.673C141.42 231.393 140.501 231.919 139.498 232.209C138.466 232.467 137.379 232.392 136.392 231.994C135.16 231.561 134.072 230.794 133.249 229.78C132.658 229.049 132.235 228.196 132.011 227.283C131.787 226.369 131.767 225.418 131.952 224.495C132.095 223.745 132.392 223.031 132.606 222.293L132.702 222.043L130.131 220.496L132.237 216.996ZM151.378 228.495C151.655 227.867 151.746 227.173 151.64 226.495C151.533 225.922 151.22 225.407 150.759 225.05C150.298 224.692 149.722 224.516 149.14 224.555C148.317 224.79 147.573 225.242 146.985 225.864L151.378 228.495ZM135.904 224.043C135.819 224.63 135.779 225.223 135.785 225.817C135.811 226.135 135.906 226.445 136.065 226.722C136.223 227 136.44 227.24 136.701 227.425C136.962 227.61 137.26 227.736 137.575 227.793C137.89 227.85 138.213 227.838 138.522 227.757C139.149 227.483 139.709 227.077 140.165 226.567L135.904 224.043Z" fill="white"/>
<path d="M143.164 108.963C137.879 115.224 139.915 131.436 139.915 131.436L145.355 136.983C149.361 140.411 154.565 142.108 159.822 141.7C165.079 141.291 169.958 138.811 173.387 134.805C176.815 130.799 178.512 125.595 178.103 120.338C177.695 115.081 175.215 110.201 171.208 106.773L164.888 102.261C164.888 102.261 148.521 102.714 143.164 108.963Z" fill="#3369FF"/>
<path d="M158.258 142.328C153.398 142.312 148.703 140.56 145.021 137.388L139.534 131.805C139.449 131.707 139.391 131.588 139.367 131.46C139.284 130.793 137.308 114.915 142.76 108.534C148.211 102.154 164.186 101.643 164.9 101.619C165.026 101.623 165.149 101.66 165.257 101.726L171.577 106.249C174.768 108.961 177.05 112.588 178.113 116.639C179.176 120.689 178.97 124.969 177.522 128.899C176.075 132.829 173.456 136.219 170.019 138.612C166.582 141.005 162.493 142.286 158.305 142.28L158.258 142.328ZM140.486 131.162L145.783 136.567C149.674 139.881 154.722 141.515 159.818 141.107C164.913 140.7 169.637 138.285 172.952 134.394C176.267 130.503 177.9 125.455 177.493 120.36C177.086 115.265 174.671 110.54 170.78 107.225L164.686 102.869C162.829 102.94 148.426 103.737 143.617 109.356C138.808 114.974 140.26 129.317 140.486 131.162Z" fill="#3D3939"/>
<path d="M154.437 138.471C165.409 138.471 174.303 129.576 174.303 118.604C174.303 107.633 165.409 98.738 154.437 98.738C143.465 98.738 134.57 107.633 134.57 118.604C134.57 129.576 143.465 138.471 154.437 138.471Z" fill="#3369FF"/>
<path d="M154.425 139.054C151.127 139.054 147.879 138.256 144.955 136.729C142.032 135.203 139.522 132.992 137.637 130.286C135.752 127.58 134.55 124.458 134.132 121.187C133.714 117.916 134.092 114.592 135.235 111.499C136.379 108.406 138.253 105.635 140.698 103.422C143.143 101.209 146.086 99.62 149.278 98.7899C152.469 97.9598 155.814 97.9134 159.027 98.6546C162.241 99.3959 165.227 100.903 167.733 103.047C170.91 105.767 173.178 109.394 174.231 113.442C175.284 117.49 175.071 121.763 173.621 125.686C172.171 129.609 169.554 132.994 166.122 135.384C162.689 137.774 158.607 139.055 154.425 139.054ZM154.425 99.3333C149.904 99.3327 145.528 100.922 142.061 103.824C138.595 106.725 136.259 110.754 135.464 115.204C134.668 119.654 135.463 124.242 137.71 128.164C139.957 132.087 143.512 135.095 147.753 136.66C151.993 138.226 156.65 138.25 160.906 136.728C165.163 135.206 168.749 132.235 171.036 128.336C173.323 124.436 174.165 119.857 173.415 115.399C172.666 110.941 170.372 106.889 166.935 103.952C163.462 100.96 159.033 99.3096 154.449 99.2976L154.425 99.3333Z" fill="#3D3939"/>
<path d="M144.95 107.785L147.152 109.665C147.174 109.693 147.203 109.715 147.234 109.73C147.266 109.745 147.301 109.753 147.337 109.753C147.372 109.753 147.407 109.745 147.439 109.73C147.471 109.715 147.499 109.693 147.521 109.665C148.647 108.761 149.981 108.152 151.402 107.892C152.894 107.633 154.429 107.925 155.722 108.713C156.08 108.927 156.413 109.177 156.782 109.415L153.877 112.808C153.356 112.38 152.707 112.137 152.032 112.117C151.505 112.164 150.98 112.239 150.461 112.343V112.451L154.687 116.022L155.092 115.724C156.054 114.958 157.105 114.311 158.222 113.796C159.048 113.392 159.968 113.219 160.884 113.297C161.8 113.375 162.678 113.699 163.424 114.236C164.893 115.143 165.945 116.593 166.352 118.271C166.694 119.64 166.594 121.082 166.066 122.39C165.757 123.211 165.34 123.985 164.947 124.77L166.59 126.175L163.924 129.306L162.222 127.853C161.507 128.341 160.865 128.829 160.162 129.246C158.933 130.04 157.475 130.404 156.017 130.281C154.559 130.158 153.183 129.556 152.104 128.568L154.961 125.223C155.561 125.694 156.299 125.955 157.061 125.968C157.824 125.981 158.57 125.744 159.186 125.294L154.651 121.414C153.925 121.89 153.211 122.378 152.473 122.842C151.608 123.424 150.616 123.787 149.58 123.901C148.518 123.991 147.455 123.741 146.545 123.187C145.407 122.552 144.464 121.618 143.819 120.485C143.356 119.666 143.08 118.755 143.01 117.817C142.94 116.878 143.078 115.936 143.414 115.057C143.711 114.352 144.049 113.664 144.426 112.998L144.557 112.76L142.272 110.808L144.95 107.785ZM161.924 122.295C162.299 121.72 162.506 121.052 162.519 120.366C162.522 119.774 162.304 119.202 161.908 118.762C161.512 118.322 160.966 118.045 160.377 117.986C159.513 118.072 158.69 118.393 157.996 118.914L161.924 122.295ZM147.462 115.355C147.278 115.914 147.138 116.488 147.045 117.069C147.018 117.389 147.061 117.71 147.171 118.011C147.281 118.312 147.455 118.586 147.682 118.813C147.909 119.039 148.182 119.214 148.483 119.324C148.785 119.434 149.106 119.477 149.426 119.45C150.086 119.288 150.706 118.993 151.247 118.581L147.462 115.355Z" fill="white"/>
<path d="M91.695 80.9785V97.0597C91.695 103.726 116.108 109.13 146.212 109.13C176.315 109.13 200.728 103.726 200.728 97.0597V80.9785H91.695Z" fill="white"/>
<path d="M146.212 109.725C119.12 109.725 91.1 104.963 91.1 97.0597V80.9785C91.1 80.8207 91.1627 80.6693 91.2743 80.5577C91.3859 80.4461 91.5373 80.3834 91.6951 80.3834H200.728C200.886 80.3834 201.038 80.4461 201.149 80.5577C201.261 80.6693 201.324 80.8207 201.324 80.9785V97.0597C201.324 104.987 173.303 109.725 146.212 109.725ZM92.2903 81.5737V97.0478C92.2903 102.595 113.954 108.523 146.212 108.523C178.469 108.523 200.133 102.571 200.133 97.0478V81.5737H92.2903Z" fill="#3D3939"/>
<path d="M146.212 93.0484C176.32 93.0484 200.728 87.6445 200.728 80.9785C200.728 74.3125 176.32 68.9087 146.212 68.9087C116.103 68.9087 91.695 74.3125 91.695 80.9785C91.695 87.6445 116.103 93.0484 146.212 93.0484Z" fill="white"/>
<path d="M146.212 93.6316C119.12 93.6316 91.1 88.8704 91.1 80.9785C91.1 73.0867 119.12 68.3492 146.212 68.3492C173.303 68.3492 201.324 73.1105 201.324 81.0142C201.324 88.918 173.303 93.6316 146.212 93.6316ZM146.212 69.5396C113.954 69.5396 92.2903 75.4912 92.2903 81.0142C92.2903 86.5373 113.954 92.477 146.212 92.477C178.469 92.477 200.133 86.5254 200.133 81.0142C200.133 75.5031 178.469 69.5396 146.212 69.5396Z" fill="#3D3939"/>
<path fill-rule="evenodd" clip-rule="evenodd" d="M219.189 261.276H219.238C219.316 261.276 219.393 261.261 219.466 261.231C219.538 261.201 219.603 261.157 219.659 261.102C219.714 261.047 219.758 260.981 219.788 260.909C219.818 260.837 219.833 260.759 219.833 260.681V150.684C219.833 134.329 210.168 128.163 202.395 123.211C200.068 121.82 197.852 120.252 195.765 118.521C188.424 111.994 190.477 90.6986 190.699 88.3929C190.711 88.2723 190.718 88.2037 190.718 88.1918C190.73 88.1087 190.724 88.0238 190.699 87.9434C190.675 87.863 190.632 87.7893 190.575 87.7276C190.518 87.6676 190.45 87.6198 190.374 87.587C190.299 87.5543 190.217 87.5373 190.134 87.5372H102.289C102.206 87.5373 102.125 87.5543 102.049 87.587C101.973 87.6198 101.905 87.6676 101.848 87.7276C101.791 87.7893 101.749 87.863 101.724 87.9434C101.699 88.0238 101.693 88.1087 101.706 88.1918C101.706 88.1955 101.707 88.2045 101.709 88.2189C101.808 89.1381 104.265 111.758 96.6587 118.521C94.5718 120.252 92.3552 121.82 90.0286 123.211C82.2558 128.163 72.5904 134.329 72.5904 150.684V260.681C72.5904 260.839 72.6531 260.99 72.7647 261.102C72.8763 261.214 73.0277 261.276 73.1856 261.276H73.2342C73.2019 261.079 73.1856 260.88 73.1856 260.681C73.1856 259.979 73.388 259.287 73.7807 258.608V150.684C73.7807 134.984 82.6886 129.305 90.5861 124.27L90.6595 124.223C93.0463 122.794 95.3187 121.182 97.4562 119.402C104.967 112.724 103.36 92.7151 102.955 88.7275H189.468C189.016 92.7151 187.456 112.724 194.967 119.402C197.105 121.182 199.377 122.794 201.764 124.223C209.68 129.258 218.643 134.983 218.643 150.684V258.608C219.035 259.286 219.238 259.979 219.238 260.681C219.238 260.88 219.222 261.079 219.189 261.276Z" fill="#3D3939"/>
<path d="M146.212 277.429C104.931 277.429 72.5904 270.073 72.5904 260.681C72.5904 251.289 104.931 243.921 146.212 243.921C187.492 243.921 219.833 251.278 219.833 260.681C219.833 270.085 187.492 277.429 146.212 277.429ZM146.212 245.112C111.228 245.112 73.7807 251.361 73.7807 260.681C73.7807 270.001 111.228 276.239 146.212 276.239C181.195 276.239 218.643 269.989 218.643 260.681C218.643 251.373 181.195 245.112 146.212 245.112Z" fill="#3D3939"/>
<path d="M81.9344 246.969C81.7765 246.969 81.6252 246.906 81.5136 246.794C81.4019 246.683 81.3392 246.531 81.3392 246.373V147.577C81.3392 141.09 89.8738 134.793 97.3967 129.222C101.92 125.877 106.193 122.723 106.836 120.592C107.936 116.86 108.603 113.014 108.824 109.13C108.822 109.05 108.836 108.971 108.868 108.897C108.899 108.824 108.945 108.758 109.004 108.703C109.062 108.649 109.132 108.608 109.207 108.583C109.283 108.558 109.363 108.55 109.443 108.558C109.521 108.561 109.598 108.58 109.669 108.613C109.74 108.645 109.804 108.692 109.857 108.749C109.91 108.807 109.951 108.874 109.978 108.948C110.005 109.021 110.017 109.099 110.014 109.177C109.79 113.166 109.107 117.117 107.979 120.949C107.205 123.449 102.991 126.568 98.0989 130.174C91.1713 135.305 82.5296 141.697 82.5296 147.577V246.373C82.5296 246.531 82.4668 246.683 82.3552 246.794C82.2436 246.906 82.0922 246.969 81.9344 246.969Z" fill="#D9D9D9"/>
<path d="M210.489 246.969C210.331 246.969 210.18 246.906 210.068 246.794C209.957 246.683 209.894 246.531 209.894 246.373V147.577C209.894 141.697 201.252 135.305 194.324 130.174C189.432 126.603 185.218 123.449 184.445 120.949C183.316 117.117 182.633 113.166 182.409 109.177C182.406 109.099 182.418 109.021 182.445 108.948C182.472 108.874 182.514 108.807 182.567 108.749C182.62 108.692 182.684 108.645 182.755 108.613C182.826 108.58 182.902 108.561 182.981 108.558C183.134 108.558 183.282 108.618 183.393 108.724C183.504 108.831 183.57 108.976 183.576 109.13C183.796 113.014 184.463 116.86 185.564 120.592C186.206 122.723 190.48 125.877 195.003 129.222C202.526 134.793 211.06 141.125 211.06 147.577V246.373C211.06 246.527 211.001 246.675 210.894 246.786C210.788 246.897 210.643 246.962 210.489 246.969Z" fill="#D9D9D9"/>
<path d="M91.9451 243.683V253.908C91.9451 257.777 101.468 260.919 113.073 260.919C124.679 260.919 134.19 257.777 134.19 253.908V243.683H91.9451Z" fill="#3369FF"/>
<path d="M113.073 261.514C102.36 261.514 91.3499 258.67 91.3499 253.908V243.683C91.3499 243.526 91.4126 243.374 91.5242 243.263C91.6358 243.151 91.7872 243.088 91.9451 243.088H134.19C134.347 243.088 134.499 243.151 134.61 243.263C134.722 243.374 134.785 243.526 134.785 243.683V253.908C134.785 258.67 123.739 261.514 113.073 261.514ZM92.5402 244.279V253.908C92.5402 257.003 100.789 260.324 113.073 260.324C125.357 260.324 133.594 257.003 133.594 253.908V244.279H92.5402Z" fill="black"/>
<path d="M113.073 250.694C124.735 250.694 134.19 247.555 134.19 243.683C134.19 239.811 124.735 236.672 113.073 236.672C101.411 236.672 91.957 239.811 91.957 243.683C91.957 247.555 101.411 250.694 113.073 250.694Z" fill="black"/>
<path d="M113.073 251.289C102.36 251.289 91.3499 248.445 91.3499 243.683C91.3499 238.922 102.396 236.077 113.073 236.077C123.75 236.077 134.785 238.922 134.785 243.683C134.785 248.445 123.739 251.289 113.073 251.289ZM113.073 237.268C100.789 237.268 92.5402 240.589 92.5402 243.683C92.5402 246.778 100.789 250.099 113.073 250.099C125.357 250.099 133.594 246.778 133.594 243.683C133.594 240.589 125.345 237.268 113.073 237.268Z" fill="black"/>
<path d="M96.9205 229.673V239.886C96.9205 243.767 106.384 246.897 118.049 246.897C129.714 246.897 139.165 243.767 139.165 239.886V229.673H96.9205Z" fill="#3369FF"/>
<path d="M118.049 247.492C107.336 247.492 96.3253 244.648 96.3253 239.886V229.673C96.3253 229.515 96.388 229.364 96.4996 229.252C96.6113 229.141 96.7626 229.078 96.9205 229.078H139.165C139.323 229.078 139.474 229.141 139.586 229.252C139.697 229.364 139.76 229.515 139.76 229.673V239.886C139.76 244.648 128.714 247.492 118.049 247.492ZM97.5156 230.233V239.851C97.5156 242.957 105.765 246.266 118.049 246.266C130.333 246.266 138.57 242.957 138.57 239.851V230.233H97.5156Z" fill="black"/>
<path d="M118.049 236.684C129.711 236.684 139.165 233.545 139.165 229.673C139.165 225.801 129.711 222.662 118.049 222.662C106.387 222.662 96.9325 225.801 96.9325 229.673C96.9325 233.545 106.387 236.684 118.049 236.684Z" fill="black"/>
<path d="M118.049 237.268C107.336 237.268 96.3253 234.423 96.3253 229.673C96.3253 224.924 107.371 222.067 118.049 222.067C128.726 222.067 139.76 224.912 139.76 229.673C139.76 234.435 128.714 237.268 118.049 237.268ZM118.049 223.257C105.765 223.257 97.5156 226.567 97.5156 229.673C97.5156 232.78 105.765 236.077 118.049 236.077C130.333 236.077 138.57 232.768 138.57 229.673C138.57 226.578 130.321 223.257 118.049 223.257Z" fill="black"/>
<path d="M92.6473 214.044V224.281C92.6473 228.15 102.11 231.292 113.775 231.292C125.441 231.292 134.892 228.15 134.892 224.281V214.044H92.6473Z" fill="#3369FF"/>
<path d="M113.728 231.875C103.015 231.875 92.0046 229.031 92.0046 224.269V214.044C92.0046 213.887 92.0673 213.735 92.1789 213.624C92.2905 213.512 92.4419 213.449 92.5997 213.449H134.844C135.002 213.449 135.153 213.512 135.265 213.624C135.377 213.735 135.439 213.887 135.439 214.044V224.281C135.499 229.042 124.393 231.875 113.728 231.875ZM93.1949 214.64V224.281C93.1949 227.376 101.444 230.697 113.728 230.697C126.012 230.697 134.309 227.364 134.309 224.281V214.64H93.1949Z" fill="black"/>
<path d="M113.728 221.055C125.39 221.055 134.844 217.916 134.844 214.044C134.844 210.172 125.39 207.033 113.728 207.033C102.066 207.033 92.6116 210.172 92.6116 214.044C92.6116 217.916 102.066 221.055 113.728 221.055Z" fill="black"/>
<path d="M113.728 221.651C103.015 221.651 92.0046 218.806 92.0046 214.044C92.0046 209.283 103.051 206.438 113.728 206.438C124.405 206.438 135.499 209.283 135.499 214.044C135.499 218.806 124.393 221.651 113.728 221.651ZM113.728 207.629C101.444 207.629 93.1949 210.95 93.1949 214.044C93.1949 217.139 101.444 220.46 113.728 220.46C126.012 220.46 134.309 217.139 134.309 214.044C134.309 210.95 125.976 207.617 113.728 207.617V207.629Z" fill="black"/>
<path d="M147.545 241.898V252.123C147.545 256.003 156.996 259.134 168.661 259.134C180.326 259.134 189.789 256.003 189.789 252.123V241.898H147.545Z" fill="#3369FF"/>
<path d="M168.661 259.729C157.948 259.729 146.95 256.884 146.95 252.123V241.898C146.95 241.74 147.012 241.589 147.124 241.477C147.236 241.365 147.387 241.303 147.545 241.303H189.789C189.947 241.303 190.099 241.365 190.21 241.477C190.322 241.589 190.384 241.74 190.384 241.898V252.123C190.384 256.884 179.338 259.729 168.661 259.729ZM148.14 242.493V252.123C148.14 255.229 156.389 258.539 168.661 258.539C180.933 258.539 189.194 255.229 189.194 252.123V242.493H148.14Z" fill="black"/>
<path d="M168.661 248.909C180.323 248.909 189.777 245.77 189.777 241.898C189.777 238.026 180.323 234.887 168.661 234.887C156.999 234.887 147.545 238.026 147.545 241.898C147.545 245.77 156.999 248.909 168.661 248.909Z" fill="black"/>
<path d="M168.661 249.504C157.948 249.504 146.95 246.659 146.95 241.898C146.95 237.137 157.996 234.304 168.661 234.304C179.326 234.304 190.384 237.148 190.384 241.898C190.384 246.647 179.338 249.504 168.661 249.504ZM168.661 235.494C156.389 235.494 148.14 238.803 148.14 241.898C148.14 244.993 156.389 248.314 168.661 248.314C180.933 248.314 189.194 245.005 189.194 241.898C189.194 238.791 180.945 235.494 168.661 235.494Z" fill="black"/>
<path d="M144.795 229.78V240.005C144.795 243.874 154.246 247.016 165.912 247.016C177.577 247.016 187.04 243.874 187.04 240.005V229.78H144.795Z" fill="#3369FF"/>
<path d="M165.912 247.611C155.199 247.611 144.2 244.766 144.2 240.005V229.78C144.2 229.622 144.263 229.471 144.374 229.36C144.486 229.248 144.637 229.185 144.795 229.185H187.04C187.198 229.185 187.349 229.248 187.461 229.36C187.572 229.471 187.635 229.622 187.635 229.78V240.005C187.635 244.766 176.589 247.611 165.912 247.611ZM145.39 230.376V240.005C145.39 243.1 153.639 246.421 165.912 246.421C178.184 246.421 186.445 243.1 186.445 240.005V230.376H145.39Z" fill="black"/>
<path d="M165.912 236.791C177.574 236.791 187.028 233.652 187.028 229.78C187.028 225.908 177.574 222.769 165.912 222.769C154.249 222.769 144.795 225.908 144.795 229.78C144.795 233.652 154.249 236.791 165.912 236.791Z" fill="black"/>
<path d="M165.912 237.375C155.199 237.375 144.2 234.53 144.2 229.768C144.2 225.007 155.246 222.162 165.912 222.162C176.577 222.162 187.635 225.007 187.635 229.768C187.635 234.53 176.589 237.375 165.912 237.375ZM165.912 223.353C153.639 223.353 145.39 226.674 145.39 229.768C145.39 232.863 153.639 236.184 165.912 236.184C178.184 236.184 186.445 232.863 186.445 229.768C186.445 226.674 178.196 223.365 165.912 223.365V223.353Z" fill="black"/>
<path d="M148.2 215.02V225.245C148.2 229.114 157.651 232.256 169.316 232.256C180.981 232.256 190.444 229.114 190.444 225.245V215.02H148.2Z" fill="#3369FF"/>
<path d="M169.316 232.851C158.603 232.851 147.604 230.007 147.604 225.245V215.02C147.604 214.863 147.667 214.711 147.779 214.6C147.89 214.488 148.042 214.425 148.2 214.425H190.444C190.602 214.425 190.753 214.488 190.865 214.6C190.976 214.711 191.039 214.863 191.039 215.02V225.245C191.039 230.007 179.993 232.851 169.316 232.851ZM148.795 215.616V225.245C148.795 228.34 157.044 231.661 169.316 231.661C181.588 231.661 189.849 228.34 189.849 225.245V215.616H148.795Z" fill="black"/>
<path d="M169.316 222.031C180.978 222.031 190.432 218.893 190.432 215.021C190.432 211.148 180.978 208.01 169.316 208.01C157.654 208.01 148.2 211.148 148.2 215.021C148.2 218.893 157.654 222.031 169.316 222.031Z" fill="black"/>
<path d="M169.316 222.627C158.603 222.627 147.604 219.782 147.604 215.02C147.604 210.259 158.651 207.414 169.316 207.414C179.981 207.414 191.039 210.259 191.039 215.02C191.039 219.782 179.993 222.627 169.316 222.627ZM169.316 208.605C157.044 208.605 148.795 211.926 148.795 215.02C148.795 218.115 157.044 221.436 169.316 221.436C181.588 221.436 189.849 218.115 189.849 215.02C189.849 211.926 181.6 208.605 169.316 208.605Z" fill="black"/>
<path d="M144.795 200.201V210.426C144.795 214.294 154.246 217.437 165.912 217.437C177.577 217.437 187.04 214.294 187.04 210.426V200.201H144.795Z" fill="#3369FF"/>
<path d="M165.912 218.032C155.199 218.032 144.2 215.187 144.2 210.426V200.201C144.2 200.043 144.263 199.892 144.374 199.78C144.486 199.668 144.637 199.606 144.795 199.606H187.04C187.198 199.606 187.349 199.668 187.461 199.78C187.572 199.892 187.635 200.043 187.635 200.201V210.426C187.635 215.187 176.589 218.032 165.912 218.032ZM145.39 200.796V210.426C145.39 213.521 153.639 216.842 165.912 216.842C178.184 216.842 186.445 213.521 186.445 210.426V200.796H145.39Z" fill="black"/>
<path d="M165.912 207.212C177.574 207.212 187.028 204.073 187.028 200.201C187.028 196.329 177.574 193.19 165.912 193.19C154.249 193.19 144.795 196.329 144.795 200.201C144.795 204.073 154.249 207.212 165.912 207.212Z" fill="black"/>
<path d="M165.912 207.807C155.199 207.807 144.2 204.962 144.2 200.201C144.2 195.44 155.246 192.595 165.912 192.595C176.577 192.595 187.635 195.44 187.635 200.201C187.635 204.962 176.589 207.807 165.912 207.807ZM165.912 193.785C153.639 193.785 145.39 197.106 145.39 200.201C145.39 203.296 153.639 206.617 165.912 206.617C178.184 206.617 186.445 203.296 186.445 200.201C186.445 197.106 178.196 193.785 165.912 193.785Z" fill="black"/>
<path d="M151.604 188.084V198.308C151.604 202.177 161.055 205.307 172.72 205.307C184.385 205.307 193.825 202.177 193.825 198.308V188.084H151.604Z" fill="#3369FF"/>
<path d="M172.72 205.903C162.007 205.903 151.009 203.07 151.009 198.309V188.084C151.009 187.926 151.071 187.774 151.183 187.663C151.295 187.551 151.446 187.489 151.604 187.489H193.824C193.982 187.489 194.134 187.551 194.245 187.663C194.357 187.774 194.42 187.926 194.42 188.084V198.309C194.443 203.07 183.397 205.903 172.72 205.903ZM152.163 188.679V198.309C152.163 201.403 160.412 204.712 172.684 204.712C184.957 204.712 193.217 201.403 193.217 198.309V188.679H152.163Z" fill="black"/>
<path d="M172.72 195.095C184.382 195.095 193.836 191.956 193.836 188.084C193.836 184.212 184.382 181.073 172.72 181.073C161.058 181.073 151.604 184.212 151.604 188.084C151.604 191.956 161.058 195.095 172.72 195.095Z" fill="black"/>
<path d="M172.72 195.713C162.007 195.713 151.009 192.88 151.009 188.119C151.009 183.358 162.055 180.513 172.72 180.513C183.385 180.513 194.443 183.358 194.443 188.119C194.443 192.88 183.397 195.713 172.72 195.713ZM172.72 181.703C160.496 181.668 152.163 185.001 152.163 188.083C152.163 191.166 160.496 194.523 172.72 194.523C184.945 194.523 193.253 191.214 193.253 188.119C193.253 185.024 185.004 181.668 172.72 181.668V181.703Z" fill="black"/>
<path d="M146.974 175.966V186.191C146.974 190.071 156.425 193.202 168.09 193.202C179.755 193.202 189.218 190.071 189.218 186.191V175.978L146.974 175.966Z" fill="#3369FF"/>
<path d="M168.09 193.785C157.377 193.785 146.378 190.94 146.378 186.179V175.966C146.378 175.808 146.441 175.657 146.553 175.545C146.664 175.434 146.816 175.371 146.973 175.371H189.218C189.376 175.371 189.527 175.434 189.639 175.545C189.75 175.657 189.813 175.808 189.813 175.966V186.191C189.813 190.952 178.767 193.785 168.09 193.785ZM147.569 176.561V186.191C147.569 189.298 155.818 192.607 168.09 192.607C180.362 192.607 188.623 189.298 188.623 186.191V176.573L147.569 176.561Z" fill="black"/>
<path d="M168.09 182.977C179.752 182.977 189.206 179.838 189.206 175.966C189.206 172.094 179.752 168.955 168.09 168.955C156.428 168.955 146.974 172.094 146.974 175.966C146.974 179.838 156.428 182.977 168.09 182.977Z" fill="#3369FF"/>
<path d="M168.09 183.56C157.377 183.56 146.378 180.715 146.378 175.966C146.378 171.217 157.413 168.36 168.09 168.36C178.767 168.36 189.813 171.205 189.813 175.966C189.813 180.727 178.767 183.56 168.09 183.56ZM168.09 169.55C155.818 169.55 147.569 172.859 147.569 175.966C147.569 179.073 155.818 182.37 168.09 182.37C180.362 182.37 188.623 179.061 188.623 175.966C188.623 172.871 180.374 169.526 168.09 169.526V169.55Z" fill="black"/>
<path d="M123.691 254.753L124.155 262.371C124.25 267.478 133.999 271.442 145.926 271.216C157.853 270.989 167.447 266.668 167.352 261.562L166.888 253.944L123.691 254.753Z" fill="#3369FF"/>
<path d="M145.021 271.823C140.049 271.916 135.103 271.076 130.44 269.347C126.095 267.585 123.667 265.109 123.619 262.383L123.155 254.789C123.15 254.628 123.205 254.471 123.31 254.349C123.422 254.231 123.576 254.163 123.739 254.158L166.935 253.349C167.087 253.348 167.233 253.406 167.344 253.51C167.455 253.614 167.521 253.757 167.53 253.908L167.995 261.526C168.102 267.073 158.472 271.584 145.986 271.811L145.021 271.823ZM124.381 255.337L124.786 262.371C124.786 264.585 127.036 266.728 130.857 268.323C135.685 270.092 140.812 270.901 145.95 270.704C157.329 270.489 166.876 266.347 166.792 261.657L166.364 254.634L124.381 255.337Z" fill="black"/>
<path d="M145.451 263.616C157.38 263.393 166.974 259.067 166.878 253.953C166.783 248.84 157.034 244.875 145.105 245.098C133.175 245.32 123.582 249.647 123.677 254.76C123.773 259.874 133.521 263.839 145.451 263.616Z" fill="#3369FF"/>
<path d="M144.498 264.205C139.525 264.297 134.58 263.457 129.916 261.729C125.572 259.967 123.143 257.491 123.096 254.765C123.001 249.242 132.618 244.731 145.105 244.505C150.402 244.302 155.687 245.139 160.662 246.969C165.007 248.73 167.435 251.206 167.483 253.932C167.59 259.455 157.96 263.967 145.474 264.193L144.498 264.205ZM146.081 245.707H145.129C133.749 245.921 124.203 250.064 124.286 254.754C124.286 256.944 126.548 259.086 130.369 260.634C135.192 262.406 140.316 263.215 145.45 263.014C156.841 262.812 166.388 258.658 166.292 253.968C166.292 251.778 164.043 249.635 160.222 248.088C155.699 246.415 150.902 245.608 146.081 245.707Z" fill="black"/>
<path d="M160.626 253.051L157.567 253.361C157.365 253.361 157.341 253.361 157.424 253.516C157.744 253.798 157.986 254.157 158.13 254.559C158.273 254.96 158.313 255.392 158.246 255.813C158.02 256.622 157.055 257.182 155.58 257.503C155.175 257.586 154.734 257.658 154.282 257.729L151.33 255.158C151.885 255.141 152.42 254.945 152.854 254.599C152.999 254.371 153.108 254.122 153.175 253.861H153.068L147.354 254.432L147.509 254.706C147.934 255.318 148.23 256.011 148.378 256.741C148.557 257.932 147.604 258.646 145.593 259.003C143.65 259.327 141.661 259.25 139.748 258.777C138.3 258.471 136.92 257.902 135.677 257.098C135.046 256.67 134.487 256.218 133.916 255.777L131.821 255.991L130.38 253.92L132.44 253.706C132.335 253.315 132.255 252.917 132.202 252.516C132.19 252.122 132.297 251.734 132.509 251.403C132.722 251.072 133.029 250.812 133.392 250.659C134.313 250.198 135.316 249.923 136.344 249.849L138.07 251.742C136.653 251.98 135.904 252.468 136.153 253.301L141.796 252.706C141.641 252.289 141.462 251.885 141.331 251.516C141.226 251.303 141.186 251.063 141.218 250.828C141.25 250.592 141.352 250.372 141.51 250.195C142.027 249.727 142.675 249.428 143.367 249.337C144.541 249.095 145.741 249.003 146.938 249.064C148.89 249.148 150.812 249.575 152.616 250.325C153.294 250.623 153.877 250.956 154.52 251.278L154.746 251.397L157.746 251.087L160.626 253.051ZM137.808 255.349C138.291 255.757 138.849 256.069 139.451 256.265C139.992 256.481 140.571 256.581 141.153 256.561C141.735 256.54 142.307 256.399 142.831 256.146C143.248 255.765 142.998 255.301 142.891 254.837L137.808 255.349ZM150.902 251.778C150.306 251.54 149.806 251.313 149.235 251.135C147.89 250.718 146.2 250.837 145.89 251.361C145.736 251.635 145.89 251.956 146.045 252.289L150.902 251.778Z" fill="white"/>
<path d="M159.65 164.896L158.115 172.371C156.925 177.335 165.257 183.691 176.851 186.572C188.444 189.452 198.812 187.762 200.038 182.798L201.573 175.323L159.65 164.896Z" fill="#3369FF"/>
<path d="M187.647 188.572C183.952 188.541 180.275 188.061 176.696 187.143C164.626 184.144 156.21 177.621 157.532 172.228L159.067 164.765C159.083 164.687 159.114 164.613 159.159 164.548C159.204 164.482 159.262 164.427 159.329 164.384C159.469 164.303 159.635 164.277 159.793 164.313L201.716 174.74C201.864 174.777 201.992 174.869 202.074 174.997C202.156 175.126 202.186 175.281 202.157 175.43L200.621 182.906C199.967 185.584 197.05 187.453 192.42 188.203C190.841 188.452 189.245 188.575 187.647 188.572ZM160.103 165.622L158.698 172.49C157.508 177.073 165.935 183.203 176.993 185.989C181.954 187.334 187.131 187.69 192.229 187.036C196.3 186.381 198.931 184.774 199.467 182.656L200.871 175.764L160.103 165.622Z" fill="black"/>
<path d="M201.587 175.343C202.822 170.379 194.437 164.021 182.858 161.14C171.279 158.26 160.892 159.948 159.657 164.912C158.422 169.875 166.808 176.233 178.387 179.114C189.965 181.994 200.353 180.306 201.587 175.343Z" fill="#3369FF"/>
<path d="M189.17 181.096C185.48 181.065 181.806 180.585 178.231 179.668C173.064 178.491 168.179 176.312 163.852 173.252C160.103 170.419 158.412 167.396 159.091 164.753C159.769 162.111 162.662 160.242 167.292 159.492C177.898 158.328 188.571 160.982 197.395 166.979C201.133 169.812 202.835 172.824 202.157 175.466C201.49 178.121 198.586 179.989 193.943 180.739C192.364 180.985 190.768 181.104 189.17 181.096ZM172.053 160.313C170.515 160.308 168.979 160.424 167.459 160.659C163.388 161.325 160.757 162.92 160.222 165.039C159.686 167.158 161.281 169.8 164.566 172.3C173.134 178.088 183.472 180.66 193.753 179.561C197.836 178.906 200.466 177.311 200.99 175.18C201.526 173.062 199.943 170.419 196.657 167.92C192.45 164.962 187.708 162.852 182.695 161.706C179.216 160.818 175.644 160.35 172.053 160.313Z" fill="black"/>
<path d="M195.753 172.836L192.717 172.336C192.527 172.336 192.491 172.336 192.551 172.455C192.773 172.807 192.906 173.207 192.939 173.622C192.972 174.036 192.904 174.453 192.741 174.835C192.313 175.561 191.277 175.871 189.718 175.788C189.313 175.788 188.861 175.704 188.408 175.669L186.23 172.407C186.77 172.538 187.337 172.492 187.849 172.276C188.043 172.089 188.211 171.877 188.349 171.645L188.254 171.574L182.588 170.645C182.588 170.741 182.588 170.836 182.671 170.943C182.92 171.649 183.026 172.398 182.981 173.145C182.85 174.335 181.79 174.788 179.707 174.597C177.744 174.41 175.84 173.822 174.113 172.871C172.797 172.199 171.615 171.291 170.625 170.193C170.125 169.61 169.72 169.003 169.268 168.455L167.185 168.122L166.328 165.741L168.375 166.075C168.374 165.677 168.398 165.279 168.447 164.884C168.532 164.499 168.733 164.15 169.022 163.882C169.311 163.614 169.675 163.44 170.066 163.384C171.072 163.186 172.107 163.186 173.113 163.384L174.303 165.658C172.863 165.527 172.018 165.789 172.03 166.658L177.648 167.562C177.648 167.11 177.541 166.682 177.517 166.253C177.478 166.026 177.506 165.793 177.597 165.582C177.688 165.371 177.838 165.191 178.029 165.063C178.646 164.738 179.349 164.613 180.041 164.706C181.255 164.776 182.456 165.004 183.612 165.384C185.477 165.965 187.222 166.876 188.766 168.074C189.349 168.527 189.825 169.003 190.361 169.491L190.539 169.657L193.527 170.134L195.753 172.836ZM173.137 169.134C173.494 169.655 173.951 170.1 174.482 170.443C174.95 170.789 175.484 171.036 176.051 171.169C176.618 171.302 177.206 171.319 177.779 171.217C178.279 170.955 178.16 170.431 178.172 170.026L173.137 169.134ZM186.766 169.062C186.242 168.669 185.826 168.312 185.326 168.003C184.135 167.241 182.469 166.92 182.04 167.348C181.802 167.574 181.886 167.931 181.945 168.289L186.766 169.062Z" fill="white"/>
<path d="M108.038 179.049L114.549 183.037C118.787 185.893 127.643 180.18 134.285 170.288C140.927 160.397 142.915 150.053 138.665 147.196L132.166 143.208L108.038 179.049Z" fill="#3369FF"/>
<path d="M117.156 184.334C116.115 184.356 115.091 184.066 114.216 183.501L107.729 179.513C107.595 179.426 107.502 179.289 107.469 179.133C107.435 178.977 107.464 178.815 107.55 178.68L131.678 142.839C131.761 142.711 131.891 142.621 132.04 142.587C132.189 142.554 132.346 142.58 132.475 142.661L138.975 146.648C143.581 149.755 141.724 160.254 134.785 170.586C129.107 179.049 122.048 184.334 117.156 184.334ZM108.824 178.823L114.775 182.501C118.691 185.132 127.345 179.358 133.713 169.919C140.082 160.48 142.153 150.279 138.248 147.648L132.297 143.97L108.824 178.823Z" fill="black"/>
<path d="M127.783 166.244C134.445 156.346 136.405 146.006 132.162 143.151C127.919 140.295 119.079 146.005 112.417 155.904C105.755 165.802 103.795 176.142 108.038 178.997C112.281 181.853 121.121 176.143 127.783 166.244Z" fill="#3369FF"/>
<path d="M110.645 180.346C109.606 180.368 108.585 180.073 107.717 179.501C105.455 177.978 104.681 174.609 105.562 169.979C108.101 159.618 114.24 150.497 122.881 144.244C126.821 141.709 130.238 141.137 132.499 142.661C134.761 144.184 135.523 147.565 134.654 152.183C132.102 162.538 125.967 171.655 117.335 177.918C115.375 179.336 113.058 180.178 110.645 180.346ZM129.547 143.03C127.363 143.2 125.269 143.975 123.5 145.268C115.123 151.352 109.172 160.209 106.705 170.264C105.943 174.311 106.538 177.347 108.348 178.597C110.157 179.846 113.192 179.239 116.68 177.002C125.052 170.912 131.001 162.058 133.475 152.005C134.249 147.958 133.654 144.934 131.833 143.673C131.153 143.232 130.357 143.008 129.547 143.03Z" fill="black"/>
<path d="M127.833 147.791L126.333 150.481C126.238 150.648 126.25 150.696 126.333 150.684C126.753 150.58 127.192 150.585 127.609 150.7C128.026 150.815 128.406 151.034 128.714 151.338C129.25 151.981 129.178 153.052 128.571 154.493C128.404 154.874 128.202 155.266 128.012 155.683L124.203 156.611C124.509 156.151 124.66 155.604 124.631 155.052C124.517 154.806 124.373 154.574 124.203 154.362L124.107 154.433L121.31 159.444H121.608C122.358 159.449 123.099 159.607 123.786 159.909C124.833 160.42 124.905 161.635 124.036 163.48C123.169 165.258 121.955 166.844 120.465 168.146C119.382 169.158 118.124 169.965 116.751 170.526C116.037 170.8 115.359 170.991 114.656 171.217L113.633 173.05H111.121L112.121 171.24C111.74 171.106 111.37 170.943 111.014 170.752C110.683 170.542 110.424 170.235 110.273 169.874C110.122 169.512 110.086 169.112 110.169 168.729C110.317 167.714 110.665 166.739 111.192 165.86L113.728 165.515C113.121 166.824 113.073 167.717 113.906 167.991C114.827 166.34 115.747 164.686 116.668 163.027C116.227 162.92 115.799 162.825 115.394 162.706C115.16 162.669 114.942 162.564 114.768 162.403C114.594 162.242 114.472 162.032 114.418 161.801C114.319 161.11 114.444 160.405 114.775 159.79C115.247 158.675 115.868 157.63 116.62 156.683C117.801 155.13 119.252 153.803 120.905 152.767C121.536 152.374 122.096 152.088 122.774 151.743L123 151.636L124.476 148.993L127.833 147.791ZM116.632 167.789C117.244 167.628 117.818 167.349 118.322 166.967C118.808 166.647 119.223 166.231 119.541 165.743C119.858 165.256 120.071 164.708 120.167 164.134C120.096 163.575 119.572 163.503 119.132 163.337L116.632 167.789ZM121.215 154.945C120.667 155.314 120.191 155.588 119.727 155.945C118.608 156.814 117.739 158.266 117.989 158.814C118.12 159.111 118.489 159.147 118.846 159.218L121.215 154.945Z" fill="white"/>
<path d="M92.314 201.915L92.7782 209.533C92.8735 214.652 102.622 218.603 114.549 218.389C126.476 218.175 136.07 213.842 135.975 208.724L135.511 201.106L92.314 201.915Z" fill="#3369FF"/>
<path d="M113.561 218.996C101.658 218.996 92.2903 214.925 92.1355 209.545L91.6832 201.951C91.6759 201.872 91.686 201.793 91.7127 201.719C91.7395 201.645 91.7823 201.578 91.838 201.522C91.8899 201.462 91.9537 201.413 92.0253 201.378C92.097 201.343 92.175 201.323 92.2546 201.32L135.499 200.475C135.65 200.471 135.796 200.527 135.907 200.629C136.018 200.731 136.085 200.872 136.094 201.022L136.558 208.64C136.558 211.39 134.285 213.961 130.012 215.889C125.103 217.908 119.845 218.944 114.537 218.937L113.561 218.996ZM92.9449 202.498L93.3735 209.497C93.4687 214.259 103.158 218.008 114.537 217.83C119.688 217.827 124.788 216.812 129.547 214.842C133.309 213.152 135.499 210.926 135.404 208.736L134.975 201.713L92.9449 202.498Z" fill="black"/>
<path d="M114.08 210.778C126.01 210.555 135.603 206.229 135.508 201.115C135.412 196.001 125.664 192.037 113.735 192.259C101.805 192.482 92.2114 196.808 92.3069 201.922C92.4024 207.036 102.151 211 114.08 210.778Z" fill="#3369FF"/>
<path d="M113.109 211.378C101.134 211.378 91.826 207.307 91.6831 201.927C91.5403 196.547 101.206 191.904 113.692 191.666C118.993 191.47 124.281 192.307 129.262 194.13C133.606 195.904 136.023 198.38 136.07 201.106C136.13 203.82 133.797 206.391 129.523 208.319C124.615 210.338 119.357 211.374 114.049 211.366L113.109 211.378ZM114.716 192.845H113.752C102.372 193.059 92.8258 197.201 92.9092 201.903C92.9925 206.605 102.705 210.378 114.085 210.164C119.224 210.168 124.314 209.169 129.071 207.224C132.833 205.522 135.023 203.296 134.916 201.106C134.916 198.927 132.666 196.785 128.845 195.225C124.325 193.558 119.533 192.75 114.716 192.845Z" fill="black"/>
<path d="M129.25 200.225L126.19 200.522C125.988 200.522 125.964 200.582 126.048 200.677C126.367 200.96 126.609 201.319 126.753 201.721C126.896 202.122 126.936 202.553 126.869 202.974C126.643 203.784 125.679 204.343 124.203 204.677C123.798 204.76 123.358 204.819 122.905 204.903L119.953 202.32C120.506 202.3 121.038 202.109 121.477 201.772C121.62 201.538 121.732 201.286 121.81 201.022H121.691L115.978 201.594L116.132 201.856C116.56 202.471 116.855 203.168 117.001 203.903C117.18 205.093 116.228 205.807 114.216 206.153C112.273 206.475 110.285 206.402 108.371 205.938C106.924 205.624 105.545 205.051 104.301 204.248C103.67 203.82 103.11 203.379 102.551 202.927L100.444 203.141L99.0155 201.082L101.075 200.868C100.967 200.476 100.884 200.079 100.825 199.677C100.812 199.282 100.919 198.892 101.131 198.559C101.344 198.226 101.652 197.964 102.015 197.808C102.933 197.35 103.932 197.079 104.955 197.011L106.693 198.892C105.277 199.142 104.515 199.618 104.765 200.451L110.407 199.868C110.252 199.451 110.085 199.034 109.943 198.677C109.846 198.462 109.812 198.225 109.843 197.991C109.875 197.758 109.971 197.538 110.121 197.356C110.637 196.884 111.285 196.581 111.978 196.487C113.152 196.243 114.352 196.155 115.549 196.225C117.502 196.304 119.425 196.731 121.227 197.487C121.917 197.773 122.489 198.106 123.131 198.439L123.358 198.558L126.357 198.249L129.25 200.225ZM106.431 202.522C106.918 202.922 107.475 203.229 108.074 203.427C108.615 203.641 109.194 203.742 109.775 203.724C110.357 203.706 110.928 203.568 111.454 203.32C111.871 202.939 111.633 202.463 111.454 202.01L106.431 202.522ZM119.525 198.951C118.918 198.713 118.418 198.475 117.846 198.296C116.501 197.88 114.811 197.999 114.513 198.523C114.347 198.808 114.513 199.13 114.668 199.451L119.525 198.951Z" fill="white"/>
<path d="M152.735 41.46L157.734 47.1854C160.912 51.1611 171.006 48.3758 180.279 40.9363C189.551 33.4968 194.479 24.2718 191.301 20.2961L186.314 14.5707L152.735 41.46Z" fill="#3369FF"/>
<path d="M162.448 49.6016C161.485 49.6772 160.518 49.5333 159.619 49.1807C158.72 48.8281 157.912 48.2761 157.258 47.5662L152.282 41.8526C152.23 41.7925 152.191 41.7225 152.166 41.6469C152.142 41.5713 152.133 41.4915 152.139 41.4122C152.158 41.2492 152.239 41.0998 152.366 40.9956L185.933 14.1063C186.054 14.0113 186.207 13.9669 186.36 13.9824C186.513 13.9979 186.654 14.0722 186.754 14.1896L191.753 19.9151C193.455 22.0457 193.182 25.4858 190.98 29.6043C188.338 34.1723 184.828 38.1795 180.648 41.4003C174.077 46.6615 167.233 49.6016 162.448 49.6016ZM153.592 41.5432L158.174 46.7925C161.114 50.4587 171.054 47.5543 179.898 40.4719C183.955 37.3529 187.364 33.4711 189.932 29.0448C191.86 25.4738 192.194 22.3671 190.837 20.7126L186.23 15.4276L153.592 41.5432Z" fill="#3D3939"/>
<path d="M175.285 35.2154C184.558 27.7896 189.496 18.5503 186.315 14.5787C183.134 10.6072 173.039 13.4073 163.767 20.833C154.495 28.2588 149.557 37.4981 152.738 41.4697C155.918 45.4412 166.013 42.6411 175.285 35.2154Z" fill="#3369FF"/>
<path d="M157.448 43.8763C156.488 43.9509 155.522 43.8065 154.625 43.4539C153.728 43.1014 152.923 42.5498 152.27 41.8409C148.83 37.5438 153.723 28.1046 163.388 20.4151C167.441 17.0202 172.12 14.4523 177.16 12.8566C181.671 11.6067 185.076 12.0829 186.778 14.2016C190.206 18.4987 185.326 27.926 175.66 35.6274C169.09 40.9719 162.245 43.8763 157.448 43.8763ZM181.6 13.3684C180.205 13.3966 178.821 13.6087 177.481 13.9993C172.599 15.5356 168.066 18.0146 164.138 21.2959C155.282 28.4379 150.283 37.4486 153.199 41.0909C156.115 44.7333 166.066 41.8289 174.91 34.7465C183.754 27.6641 188.766 18.5939 185.849 14.9515C185.304 14.3868 184.64 13.9514 183.904 13.6774C183.169 13.4034 182.382 13.2979 181.6 13.3684Z" fill="#3D3939"/>
<path d="M180.826 17.6774L178.6 19.7843C178.458 19.9152 178.458 19.9628 178.6 19.9866C179.026 20.015 179.437 20.1512 179.795 20.3824C180.153 20.6135 180.447 20.932 180.648 21.3079C180.957 22.0816 180.576 23.0696 179.576 24.2599L178.696 25.2241L174.803 24.986C175.267 24.4861 175.66 24.0099 175.66 23.629C175.636 23.3591 175.572 23.0943 175.47 22.8434H175.363L171.208 26.8072L171.482 26.9262C172.194 27.1482 172.851 27.5173 173.411 28.0094C174.256 28.8069 173.958 29.9734 172.589 31.4732C171.251 32.9146 169.63 34.0653 167.828 34.8537C166.505 35.5075 165.072 35.9111 163.602 36.0441C162.841 36.0441 162.15 36.0441 161.412 36.0441L159.889 37.4844L157.508 36.7225L159.008 35.3061C158.688 35.0656 158.386 34.8031 158.103 34.5205C157.849 34.2227 157.693 33.8543 157.654 33.4649C157.616 33.0755 157.698 32.6837 157.889 32.3422C158.342 31.4386 158.964 30.6304 159.722 29.9615L162.233 30.4019C161.269 31.4613 160.96 32.2946 161.662 32.7826L165.757 28.8783C165.388 28.6522 164.995 28.4379 164.65 28.1999C164.43 28.0937 164.248 27.9226 164.129 27.7097C164.01 27.4968 163.959 27.2523 163.983 27.0095C164.107 26.3253 164.434 25.6945 164.924 25.2002C165.709 24.2933 166.609 23.4929 167.602 22.8196C169.187 21.6952 170.961 20.8647 172.839 20.3675C173.553 20.1771 174.22 20.0938 174.922 19.9628H175.172L177.351 17.8917L180.826 17.6774ZM164.233 33.3539C164.86 33.3824 165.487 33.2895 166.078 33.0802C167.268 32.6755 168.554 31.628 168.673 30.9376C168.792 30.2472 168.292 30.1639 167.923 29.8663L164.233 33.3539ZM172.399 22.522C171.78 22.7006 171.208 22.8196 170.685 23.022C169.363 23.51 168.114 24.6289 168.185 25.2241C168.185 25.5454 168.566 25.7002 168.875 25.8668L172.399 22.522Z" fill="white"/>
<path d="M109.312 6.30981L104.003 11.7377C100.301 15.2372 103.908 25.0693 112.049 33.711C120.191 42.3527 129.797 46.5426 133.475 43.055L138.784 37.6152L109.312 6.30981Z" fill="#3369FF"/>
<path d="M129.964 44.8762C127.985 44.8019 126.041 44.3282 124.25 43.4836C119.495 41.2122 115.229 38.0341 111.692 34.1276C103.194 25.105 99.6821 15.0825 103.682 11.3092L108.979 5.89325C109.031 5.83256 109.098 5.78488 109.172 5.75391C109.246 5.72295 109.327 5.70953 109.407 5.71471C109.569 5.71953 109.723 5.78793 109.836 5.90516L139.32 37.2106C139.425 37.3213 139.484 37.4683 139.484 37.6212C139.484 37.7742 139.425 37.9212 139.32 38.0319L134.011 43.4717C132.898 44.4514 131.445 44.9557 129.964 44.8762ZM109.312 7.16689L104.431 12.1543C101.015 15.3801 104.705 25.0574 112.478 33.3063C115.939 37.1184 120.123 40.2055 124.786 42.3885C128.547 44.0311 131.618 44.1144 133.202 42.6265L138.094 37.6153L109.312 7.16689Z" fill="#3D3939"/>
<path d="M138.856 37.634C142.56 34.1457 138.961 24.3071 130.817 15.6589C122.673 7.01079 113.068 2.82792 109.364 6.31624C105.66 9.80455 109.259 19.6431 117.403 28.2913C125.547 36.9394 135.151 41.1223 138.856 37.634Z" fill="#3369FF"/>
<path d="M135.261 39.4484C130.428 39.4484 123.358 35.4489 116.966 28.7355C108.467 19.7128 104.955 9.69036 108.955 5.92895C110.931 4.06014 114.383 4.06014 118.668 5.92895C123.431 8.19761 127.705 11.3759 131.249 15.2849C134.938 19.0465 137.854 23.4949 139.832 28.3784C141.438 32.7588 141.236 36.1988 139.26 38.0676C138.156 39.0281 136.722 39.5231 135.261 39.4484ZM112.942 5.67897C111.79 5.61296 110.656 5.99223 109.776 6.73836C106.372 9.94032 110.062 19.6176 117.834 27.8784C125.607 36.1393 135.046 40.3887 138.451 37.1867C140.034 35.6988 140.129 32.6278 138.725 28.7712C136.801 24.0316 133.971 19.7132 130.392 16.0586C126.964 12.2612 122.823 9.17521 118.203 6.97642C116.556 6.19118 114.766 5.74973 112.942 5.67897Z" fill="#3D3939"/>
<path d="M135.32 32.4016L133.047 30.3542C132.904 30.2114 132.856 30.2233 132.844 30.3542C132.843 30.7828 132.734 31.2042 132.525 31.5789C132.317 31.9536 132.017 32.2694 131.654 32.4968C130.916 32.8658 129.881 32.5682 128.619 31.6636C128.285 31.4136 127.952 31.1398 127.595 30.8541L127.512 26.9618C127.898 27.3552 128.397 27.6175 128.94 27.7117C129.21 27.6641 129.471 27.5758 129.714 27.4498V27.3427L125.476 23.5218C125.436 23.6138 125.404 23.7095 125.381 23.8074C125.211 24.534 124.895 25.2185 124.453 25.8191C123.727 26.7237 122.536 26.5214 120.882 25.2715C119.342 24.0538 118.066 22.535 117.132 20.8078C116.394 19.5362 115.894 18.1405 115.656 16.6893C115.549 15.9394 115.513 15.2371 115.454 14.5111L113.895 13.1065L114.454 10.6663L115.989 12.0352C116.239 11.7019 116.442 11.3448 116.692 11.071C116.97 10.7967 117.325 10.6135 117.71 10.5454C118.095 10.4774 118.491 10.5279 118.846 10.6901C119.801 11.0619 120.674 11.6158 121.417 12.3209L121.215 14.8562C120.084 13.9873 119.215 13.7373 118.763 14.4872L122.977 18.2606C123.179 17.8678 123.369 17.463 123.572 17.0702C123.659 16.8506 123.81 16.662 124.005 16.5285C124.2 16.3949 124.431 16.3225 124.667 16.3203C125.36 16.381 126.017 16.6555 126.548 17.1059C127.517 17.8182 128.393 18.65 129.154 19.5818C130.394 21.0759 131.361 22.7762 132.011 24.605C132.261 25.3073 132.392 25.9619 132.583 26.6523C132.583 26.7237 132.583 26.8071 132.583 26.9023L134.832 28.902L135.32 32.4016ZM118.37 17.1655C118.393 17.7934 118.534 18.4113 118.787 18.9867C119.287 20.177 120.429 21.3673 121.167 21.3673C121.905 21.3673 121.917 20.9269 122.179 20.5341L118.37 17.1655ZM129.821 24.4383C129.595 23.8313 129.428 23.248 129.178 22.7719C128.595 21.4982 127.369 20.3317 126.798 20.4626C126.476 20.5222 126.357 20.8674 126.214 21.2006L129.821 24.4383Z" fill="white"/>
<path d="M175.97 231.34C171.732 238.398 176.482 254.039 176.482 254.039L182.766 258.61C187.282 261.325 192.692 262.135 197.805 260.861C202.918 259.588 207.316 256.335 210.031 251.819C212.746 247.303 213.555 241.894 212.282 236.781C211.008 231.668 207.756 227.27 203.24 224.555L196.253 221.139C196.253 221.139 180.219 224.281 175.97 231.34Z" fill="#3369FF"/>
<path d="M192.979 262.038C189.276 262.042 185.641 261.033 182.469 259.122L176.136 254.527C176.034 254.449 175.959 254.341 175.922 254.218C175.72 253.563 171.161 238.232 175.47 231.03C179.803 223.888 195.491 220.686 196.158 220.555C196.278 220.521 196.406 220.521 196.527 220.555L203.514 223.972C207.357 226.272 210.339 229.77 212.003 233.928C213.667 238.087 213.92 242.676 212.724 246.993C211.528 251.309 208.949 255.114 205.382 257.823C201.816 260.532 197.458 261.996 192.979 261.99V262.038ZM177.005 253.706L183.124 258.146C187.505 260.725 192.728 261.468 197.655 260.213C202.581 258.958 206.813 255.808 209.427 251.448C212.041 247.087 212.827 241.871 211.612 236.934C210.398 231.997 207.281 227.74 202.942 225.091L196.205 221.77C194.384 222.15 180.314 225.341 176.505 231.649C172.684 237.982 176.493 251.897 177.005 253.682V253.706Z" fill="#3D3939"/>
<path d="M188.682 258.848C199.654 258.848 208.549 249.954 208.549 238.982C208.549 228.01 199.654 219.115 188.682 219.115C177.71 219.115 168.816 228.01 168.816 238.982C168.816 249.954 177.71 258.848 188.682 258.848Z" fill="#3369FF"/>
<path d="M188.659 259.443C184.953 259.448 181.317 258.435 178.148 256.515C175.845 255.131 173.837 253.307 172.238 251.146C170.64 248.986 169.483 246.532 168.833 243.925C168.183 241.317 168.053 238.608 168.45 235.95C168.848 233.292 169.765 230.739 171.149 228.435C172.533 226.132 174.357 224.124 176.518 222.526C178.678 220.928 181.132 219.77 183.739 219.12C186.347 218.471 189.057 218.341 191.714 218.738C194.372 219.135 196.925 220.052 199.229 221.436C203.069 223.741 206.047 227.241 207.706 231.401C209.365 235.56 209.614 240.15 208.414 244.464C207.214 248.779 204.632 252.581 201.063 255.286C197.495 257.992 193.137 259.453 188.659 259.443ZM188.718 219.71C184.059 219.707 179.557 221.393 176.046 224.454C172.535 227.516 170.253 231.747 169.622 236.363C168.992 240.979 170.055 245.667 172.617 249.558C175.178 253.45 179.063 256.281 183.552 257.527C188.041 258.774 192.829 258.35 197.03 256.336C201.231 254.322 204.56 250.854 206.399 246.574C208.238 242.294 208.464 237.492 207.034 233.058C205.604 228.624 202.615 224.859 198.622 222.46C195.63 220.664 192.207 219.714 188.718 219.71Z" fill="#3D3939"/>
<path d="M177.541 229.888C178.374 230.376 179.195 230.876 180.017 231.376C180.183 231.471 180.267 231.459 180.386 231.316C181.36 230.238 182.587 229.42 183.957 228.935C185.388 228.43 186.953 228.464 188.361 229.031C188.742 229.185 189.123 229.364 189.551 229.542L187.254 233.375C186.666 233.04 185.985 232.906 185.314 232.994C184.801 233.13 184.297 233.293 183.802 233.482V233.59L188.563 236.458L188.92 236.101C189.743 235.201 190.67 234.402 191.682 233.72C192.429 233.185 193.308 232.863 194.224 232.788C195.14 232.712 196.059 232.886 196.884 233.292C198.486 233.946 199.769 235.202 200.455 236.791C201.02 238.087 201.161 239.529 200.859 240.91C200.681 241.755 200.395 242.6 200.145 243.481L202.014 244.6L199.895 248.171L197.979 246.981C197.36 247.576 196.788 248.171 196.181 248.695C194.999 249.731 193.502 250.339 191.932 250.421C190.581 250.454 189.252 250.085 188.111 249.361L190.384 245.588C191.053 245.956 191.825 246.094 192.58 245.98C193.336 245.866 194.032 245.507 194.563 244.957L189.432 241.886C188.801 242.469 188.242 243.076 187.528 243.648C186.779 244.371 185.863 244.899 184.861 245.183C183.826 245.439 182.737 245.369 181.743 244.981C180.515 244.54 179.429 243.775 178.6 242.767C178.009 242.036 177.587 241.182 177.365 240.269C177.143 239.355 177.126 238.403 177.315 237.482C177.487 236.736 177.702 236.001 177.958 235.28C177.958 235.196 177.958 235.125 178.053 235.018L175.482 233.47L177.541 229.888ZM196.681 241.386C196.954 240.757 197.045 240.064 196.943 239.386C196.837 238.815 196.525 238.302 196.067 237.945C195.609 237.588 195.035 237.41 194.455 237.446C193.63 237.676 192.881 238.124 192.289 238.744L196.681 241.386ZM181.207 236.934C181.122 237.518 181.083 238.107 181.088 238.696C181.115 239.015 181.21 239.324 181.368 239.603C181.527 239.881 181.744 240.121 182.004 240.307C182.265 240.493 182.563 240.62 182.877 240.679C183.192 240.737 183.516 240.727 183.826 240.648C184.457 240.375 185.021 239.969 185.48 239.458L181.207 236.934Z" fill="white"/>
<path d="M106.312 227.281C98.2419 225.638 85.0651 235.315 85.0651 235.315L82.8511 242.755C82.3266 245.311 82.3107 247.945 82.8042 250.507C83.2978 253.069 84.2911 255.508 85.7274 257.686C87.1638 259.864 89.0151 261.738 91.1756 263.201C93.3361 264.663 95.7635 265.686 98.3193 266.21C103.481 267.269 108.852 266.235 113.25 263.334C117.649 260.433 120.715 255.904 121.775 250.742L122.679 243.029C122.679 243.029 114.371 228.935 106.312 227.281Z" fill="#3369FF"/>
<path d="M102.36 267.216C99.3204 267.221 96.3174 266.549 93.5695 265.249C90.8216 263.949 88.3976 262.054 86.4737 259.7C84.5498 257.346 83.1741 254.594 82.4466 251.642C81.719 248.691 81.658 245.614 82.2677 242.636L84.4936 235.149C84.5292 235.022 84.6096 234.912 84.7198 234.839C85.2673 234.435 98.2061 225.019 106.431 226.697C114.656 228.388 122.846 242.172 123.191 242.719C123.249 242.833 123.274 242.961 123.262 243.088L122.37 250.813C121.436 255.435 118.935 259.592 115.289 262.581C111.642 265.57 107.075 267.208 102.36 267.216ZM85.5768 235.673L83.4223 242.933C82.4026 247.945 83.4156 253.157 86.2383 257.421C89.061 261.686 93.4623 264.655 98.4739 265.675C103.486 266.694 108.697 265.681 112.962 262.859C117.227 260.036 120.195 255.635 121.215 250.623L122.084 243.16C121.12 241.565 113.454 229.352 106.217 227.864C98.956 226.388 87.1004 234.601 85.5768 235.673Z" fill="#3D3939"/>
<path d="M103.325 261.669C114.296 261.669 123.191 252.775 123.191 241.803C123.191 230.831 114.296 221.936 103.325 221.936C92.3526 221.936 83.4581 230.831 83.4581 241.803C83.4581 252.775 92.3526 261.669 103.325 261.669Z" fill="#3369FF"/>
<path d="M103.36 262.276C100.473 262.32 97.6095 261.752 94.9574 260.61C92.3053 259.469 89.9246 257.779 87.9717 255.652C86.0188 253.526 84.5378 251.01 83.626 248.27C82.7143 245.53 82.3923 242.629 82.6813 239.756C82.9703 236.883 83.8637 234.104 85.3028 231.601C86.7419 229.097 88.6943 226.927 91.0316 225.232C93.369 223.536 96.0385 222.355 98.8649 221.764C101.691 221.174 104.611 221.188 107.431 221.805C112.748 222.897 117.414 226.056 120.403 230.587C123.392 235.119 124.459 240.651 123.369 245.969C122.407 250.568 119.894 254.697 116.252 257.665C112.61 260.634 108.059 262.261 103.36 262.276ZM103.277 222.531C99.6355 222.544 96.0722 223.588 92.9997 225.542C89.9273 227.497 87.4714 230.282 85.9167 233.575C84.362 236.868 83.7721 240.533 84.2152 244.148C84.6584 247.762 86.1165 251.177 88.4206 253.997C90.7247 256.816 93.7806 258.926 97.2342 260.08C100.688 261.234 104.398 261.387 107.934 260.519C111.471 259.651 114.689 257.8 117.217 255.178C119.744 252.557 121.477 249.273 122.215 245.707C123.238 240.699 122.232 235.49 119.417 231.223C116.603 226.956 112.211 223.98 107.205 222.948C105.916 222.68 104.605 222.541 103.289 222.531H103.277Z" fill="#3D3939"/>
<path d="M108.205 228.269C108.014 229.221 107.824 230.161 107.622 231.102C107.622 231.292 107.622 231.364 107.788 231.435C109.125 231.98 110.304 232.851 111.216 233.97C112.169 235.153 112.656 236.643 112.585 238.16C112.585 238.565 112.526 238.982 112.49 239.422L108.122 238.565C108.251 237.905 108.15 237.22 107.836 236.625C107.543 236.179 107.221 235.754 106.872 235.351H106.788L105.67 240.815L106.122 241.017C107.259 241.495 108.337 242.102 109.336 242.826C110.088 243.353 110.682 244.074 111.055 244.913C111.429 245.752 111.567 246.676 111.454 247.588C111.368 249.312 110.612 250.935 109.348 252.111C108.312 253.073 107.001 253.685 105.598 253.861C104.729 253.968 103.848 253.98 102.932 254.039L102.503 256.17L98.4681 255.337L98.9204 253.146C98.1586 252.766 97.4087 252.432 96.7064 252.028C95.3359 251.261 94.2659 250.053 93.6711 248.599C93.1885 247.335 93.0932 245.955 93.3973 244.636L97.7063 245.528C97.5839 246.283 97.712 247.057 98.0709 247.732C98.4299 248.407 99 248.946 99.6941 249.266C100.099 247.29 100.492 245.35 100.884 243.398C100.111 243.005 99.337 242.612 98.5752 242.207C97.6289 241.742 96.8114 241.051 96.1946 240.196C95.6039 239.31 95.3119 238.259 95.3613 237.196C95.3617 235.891 95.7199 234.61 96.3969 233.494C96.8903 232.693 97.5548 232.01 98.343 231.496C99.1312 230.981 100.023 230.648 100.956 230.518C101.714 230.431 102.478 230.391 103.241 230.399H103.515L104.122 227.459L108.205 228.269ZM103.729 250.147C104.41 250.199 105.092 250.054 105.693 249.73C106.198 249.439 106.579 248.973 106.763 248.42C106.947 247.868 106.923 247.266 106.693 246.731C106.206 246.027 105.535 245.471 104.753 245.124L103.729 250.147ZM102.801 234.125C102.219 234.242 101.646 234.401 101.087 234.601C100.796 234.733 100.537 234.926 100.328 235.167C100.119 235.409 99.9647 235.693 99.8763 235.999C99.788 236.306 99.7675 236.629 99.8162 236.944C99.8649 237.26 99.9816 237.561 100.158 237.827C100.618 238.333 101.177 238.738 101.801 239.017L102.801 234.125Z" fill="white"/>
<path d="M164.84 80.6808C162.769 74.9435 159.043 66.8493 153.854 64.0164C145.521 59.5527 127.762 65.9209 127.762 65.9209L122.881 73.4199C121.698 75.6525 120.894 78.0659 120.501 80.5618L164.84 80.6808Z" fill="#3369FF"/>
<path d="M164.84 81.2761H120.477C120.391 81.2777 120.306 81.2603 120.228 81.2254C120.15 81.1904 120.081 81.1386 120.025 81.0738C119.967 81.0079 119.925 80.9296 119.902 80.845C119.88 80.7604 119.877 80.6717 119.894 80.5857C120.31 77.9982 121.159 75.4993 122.405 73.1938L127.309 65.6591C127.383 65.552 127.486 65.4691 127.607 65.4211C128.345 65.1592 145.688 59.0052 154.175 63.5523C159.448 66.3614 163.221 74.2651 165.447 80.4786C165.48 80.5685 165.49 80.6648 165.478 80.7595C165.465 80.8542 165.43 80.9445 165.375 81.0227C165.32 81.101 165.247 81.1648 165.162 81.2089C165.078 81.253 164.983 81.2761 164.888 81.2761H164.84ZM121.179 80.0858H164.031C161.853 74.2413 158.341 67.1232 153.616 64.6116C146.033 60.5646 130.107 65.802 128.202 66.4923L123.441 73.8128C122.385 75.7789 121.635 77.8941 121.215 80.0858H121.179Z" fill="#3D3939"/>
<path d="M168.625 80.6809C168.852 77.5458 168.43 74.3976 167.386 71.4327C166.342 68.4678 164.698 65.7499 162.557 63.4486C160.416 61.1472 157.824 59.3117 154.942 58.0566C152.06 56.8016 148.95 56.1538 145.807 56.1538C142.664 56.1538 139.554 56.8016 136.672 58.0566C133.79 59.3117 131.198 61.1472 129.057 63.4486C126.916 65.7499 125.272 68.4678 124.228 71.4327C123.184 74.3976 122.762 77.5458 122.989 80.6809H168.625Z" fill="#3369FF"/>
<path d="M168.625 81.2761H122.989C122.839 81.2766 122.694 81.2204 122.584 81.1189C122.473 81.0174 122.405 80.878 122.393 80.7285C122.164 77.5135 122.599 74.2856 123.672 71.246C124.745 68.2065 126.432 65.4205 128.629 63.0616C130.825 60.7027 133.484 58.8214 136.44 57.5351C139.395 56.2488 142.584 55.585 145.807 55.585C149.03 55.585 152.219 56.2488 155.175 57.5351C158.13 58.8214 160.789 60.7027 162.985 63.0616C165.182 65.4205 166.869 68.2065 167.942 71.246C169.015 74.2856 169.45 77.5135 169.221 80.7285C169.209 80.878 169.141 81.0174 169.03 81.1189C168.92 81.2204 168.775 81.2766 168.625 81.2761ZM123.548 80.0858H168.066C168.205 77.0761 167.733 74.0694 166.677 71.2475C165.621 68.4257 164.004 65.8472 161.923 63.6681C159.843 61.489 157.342 59.7544 154.572 58.5693C151.802 57.3843 148.82 56.7732 145.807 56.7732C142.794 56.7732 139.812 57.3843 137.042 58.5693C134.272 59.7544 131.771 61.489 129.691 63.6681C127.61 65.8472 125.993 68.4257 124.937 71.2475C123.881 74.0694 123.409 77.0761 123.548 80.0858Z" fill="#3D3939"/>
<path d="M140.427 78.0027C141.129 78.7169 141.855 79.3953 142.581 80.0976L142.26 80.6809H150.759C150.235 80.1571 149.699 79.6572 149.128 79.1811L148.699 78.8002L151.723 73.1104H151.842C152.091 73.6681 152.306 74.2405 152.485 74.8245C152.634 75.5853 152.52 76.3742 152.163 77.0623L156.71 79.4429C156.889 78.9787 157.079 78.5383 157.222 78.086C157.807 76.4368 157.756 74.6289 157.079 73.0152C156.445 71.4797 155.434 70.1288 154.139 69.0872C153.973 68.9443 153.949 68.8491 154.044 68.6706C154.58 67.6945 155.103 66.7065 155.627 65.7305L151.437 63.5879L149.783 66.5994L149.485 66.5161C148.64 66.2597 147.782 66.0491 146.914 65.8852C145.842 65.7264 144.747 65.8051 143.709 66.1157C142.67 66.4263 141.712 66.9612 140.903 67.6826C139.777 68.6877 138.953 69.9858 138.522 71.4321C138.125 72.5861 138.104 73.8365 138.463 75.0031C138.858 76.1507 139.533 77.1817 140.427 78.0027ZM145.688 70.4441C146.37 70.3973 147.054 70.3973 147.735 70.4441C146.795 72.1939 145.914 73.8365 145.033 75.503C144.431 75.0015 143.944 74.3763 143.605 73.6699C143.502 73.3202 143.476 72.9526 143.528 72.5919C143.581 72.2312 143.71 71.8861 143.908 71.5799C144.105 71.2738 144.367 71.0138 144.674 70.8178C144.981 70.6218 145.327 70.4944 145.688 70.4441Z" fill="white"/>
<path d="M175.422 81.2761H115.621C115.463 81.2761 115.311 81.2134 115.2 81.1018C115.088 80.9901 115.025 80.8388 115.025 80.6809C115.025 80.5231 115.088 80.3717 115.2 80.2601C115.311 80.1485 115.463 80.0858 115.621 80.0858H175.422C175.58 80.0858 175.731 80.1485 175.843 80.2601C175.955 80.3717 176.017 80.5231 176.017 80.6809C176.017 80.8388 175.955 80.9901 175.843 81.1018C175.731 81.2134 175.58 81.2761 175.422 81.2761Z" fill="#3D3939"/>
</svg>
