<svg width="300" height="300" viewBox="0 0 300 300" fill="none" xmlns="http://www.w3.org/2000/svg">
<g clip-path="url(#clip0_8307_1966)">

<path d="M262.113 75.8987C262.113 88.0917 252.229 97.9761 240.036 97.9761C227.843 97.9761 217.959 88.0917 217.959 75.8987C217.959 63.7057 227.843 53.8213 240.036 53.8213C252.229 53.8213 262.113 63.7057 262.113 75.8987Z" fill="#F6F6F6"/>
<path fill-rule="evenodd" clip-rule="evenodd" d="M263.113 75.8987C263.113 88.644 252.781 98.9761 240.036 98.9761C227.291 98.9761 216.959 88.644 216.959 75.8987C216.959 63.1534 227.291 52.8213 240.036 52.8213C252.781 52.8213 263.113 63.1534 263.113 75.8987ZM240.036 97.9761C252.229 97.9761 262.113 88.0917 262.113 75.8987C262.113 63.7057 252.229 53.8213 240.036 53.8213C227.843 53.8213 217.959 63.7057 217.959 75.8987C217.959 88.0917 227.843 97.9761 240.036 97.9761Z" fill="#737373"/>
<path d="M149.247 256.772C232.329 256.772 299.681 247.796 299.681 236.724C299.681 225.651 232.329 216.675 149.247 216.675C66.1644 216.675 -1.18726 225.651 -1.18726 236.724C-1.18726 247.796 66.1644 256.772 149.247 256.772Z" fill="#737373"/>
<path d="M55.3977 107.592H243.089C245.065 107.592 246.67 109.197 246.67 111.173V232.571C246.67 234.546 245.065 236.151 243.089 236.151H55.3977C53.4221 236.151 51.8169 234.546 51.8169 232.571V111.173C51.8169 109.197 53.4221 107.592 55.3977 107.592Z" fill="black"/>
<path d="M237.319 117.613H61.1687V229.575H237.319V117.613Z" fill="#D9D9D9"/>
<path fill-rule="evenodd" clip-rule="evenodd" d="M236.319 118.613H62.1687V228.575H236.319V118.613ZM237.319 117.613V229.575H61.1687V117.613H237.319Z" fill="black"/>
<path d="M39.1573 224.382V234.728C39.1573 236.95 40.977 238.777 43.206 238.777H255.288C257.51 238.777 259.337 236.957 259.337 234.728V224.382H39.1573Z" fill="black"/>
<path d="M125.273 223.921V231.297C125.273 231.953 125.812 232.493 126.469 232.493H172.012C172.669 232.493 173.208 231.953 173.208 231.297V223.921H125.266H125.273Z" fill="#D9D9D9"/>
<path d="M224.042 135.667H71.2224V215.511H224.042V135.667Z" fill="#D9D9D9"/>
<path fill-rule="evenodd" clip-rule="evenodd" d="M70.7224 135.167H224.542V216.011H70.7224V135.167ZM71.7224 136.167V215.011H223.542V136.167H71.7224Z" fill="black"/>
<path d="M218.542 127.154H76.7223C73.4086 127.154 70.7223 129.84 70.7223 133.154V135.667H224.542V133.154C224.542 129.84 221.855 127.154 218.542 127.154Z" fill="#255DF9"/>
<path d="M78.6504 131.605C78.6504 132.684 77.7796 133.555 76.7008 133.555C75.622 133.555 74.7512 132.684 74.7512 131.605C74.7512 130.527 75.622 129.656 76.7008 129.656C77.7796 129.656 78.6504 130.527 78.6504 131.605Z" fill="black"/>
<path d="M85.2142 131.605C85.2142 132.684 84.3434 133.555 83.2646 133.555C82.1858 133.555 81.3149 132.684 81.3149 131.605C81.3149 130.527 82.1858 129.656 83.2646 129.656C84.3434 129.656 85.2142 130.527 85.2142 131.605Z" fill="black"/>
<path d="M89.8215 130.156C90.624 130.156 91.2714 130.803 91.2717 131.605C91.2717 132.408 90.6241 133.055 89.8215 133.055C89.019 133.055 88.3723 132.407 88.3723 131.605C88.3725 130.803 89.0191 130.156 89.8215 130.156Z" fill="#D9D9D9" stroke="black"/>
<path d="M145.289 180.379C145.289 177.929 146.264 176.025 148.207 174.653L149.143 174.004C150.033 173.425 150.651 172.951 150.995 172.58C151.339 172.21 151.515 171.748 151.515 171.196C151.515 169.805 150.352 169.11 148.025 169.11C146.946 169.11 145.829 169.253 144.678 169.545C143.528 169.831 142.436 170.241 141.403 170.767V165.224C143.612 164.216 146.082 163.709 148.818 163.709C151.768 163.709 154.108 164.327 155.837 165.562C157.565 166.796 158.43 168.506 158.43 170.689C158.43 171.911 158.157 172.905 157.604 173.659C157.052 174.413 156.116 175.258 154.797 176.2C153.907 176.85 153.263 177.344 152.854 177.695C152.444 178.046 152.139 178.436 151.937 178.865C151.736 179.3 151.632 179.826 151.632 180.45V181.133H145.296V180.379H145.289ZM146.03 188.996C145.393 188.359 145.075 187.573 145.075 186.637C145.075 185.701 145.393 184.883 146.03 184.259C146.667 183.635 147.466 183.323 148.422 183.323C149.377 183.323 150.157 183.641 150.813 184.278C151.469 184.915 151.801 185.701 151.801 186.637C151.801 187.573 151.469 188.359 150.813 188.996C150.15 189.633 149.357 189.952 148.422 189.952C147.486 189.952 146.66 189.633 146.03 188.996Z" fill="black"/>
<path d="M191.866 146.234H283.46C285.306 146.234 286.807 147.735 286.807 149.581V167.706C286.807 169.552 285.306 171.053 283.46 171.053H191.866C190.02 171.053 188.519 169.552 188.519 167.706V149.581C188.519 147.735 190.02 146.234 191.866 146.234Z" fill="#255DF9"/>
<path fill-rule="evenodd" clip-rule="evenodd" d="M191.866 146.734C190.296 146.734 189.019 148.011 189.019 149.581V167.706C189.019 169.275 190.296 170.553 191.866 170.553H203.315C203.591 170.553 203.815 170.777 203.815 171.053C203.815 171.329 203.591 171.553 203.315 171.553H191.866C189.744 171.553 188.019 169.828 188.019 167.706V149.581C188.019 147.459 189.744 145.734 191.866 145.734H237.663C237.939 145.734 238.163 145.958 238.163 146.234C238.163 146.51 237.939 146.734 237.663 146.734H191.866ZM260.062 146.234C260.062 145.958 260.285 145.734 260.562 145.734H283.46C285.582 145.734 287.307 147.459 287.307 149.581V167.706C287.307 169.828 285.582 171.553 283.46 171.553H214.765C214.488 171.553 214.265 171.329 214.265 171.053C214.265 170.777 214.488 170.553 214.765 170.553H283.46C285.03 170.553 286.307 169.275 286.307 167.706V149.581C286.307 148.011 285.03 146.734 283.46 146.734H260.562C260.285 146.734 260.062 146.51 260.062 146.234Z" fill="black"/>
<path d="M218.628 167.069V150.218C218.628 149.848 218.328 149.548 217.959 149.548C217.589 149.548 217.289 149.848 217.289 150.218V167.069C217.289 167.439 217.589 167.738 217.959 167.738C218.328 167.738 218.628 167.439 218.628 167.069Z" fill="black"/>
<path d="M210.44 162.254L205.871 159.934C206.196 159.005 206.209 158.004 205.897 157.055C205.52 155.911 204.721 154.975 203.648 154.429C202.576 153.883 201.348 153.792 200.204 154.163C199.06 154.54 198.124 155.339 197.578 156.412C197.033 157.49 196.942 158.712 197.312 159.856C197.689 161 198.488 161.935 199.561 162.481C200.633 163.027 201.861 163.118 203.005 162.748C203.954 162.436 204.753 161.832 205.312 161.026L209.881 163.346L210.433 162.254H210.44ZM200.12 161.39C199.333 160.993 198.755 160.311 198.482 159.479C198.209 158.647 198.28 157.75 198.677 156.97C199.073 156.184 199.756 155.606 200.587 155.333C201.419 155.06 202.316 155.125 203.096 155.528C203.882 155.924 204.461 156.606 204.734 157.438C205.007 158.27 204.935 159.167 204.539 159.947C204.142 160.733 203.46 161.312 202.628 161.585C201.796 161.858 200.899 161.786 200.12 161.39Z" fill="black"/>
<path d="M199.652 157.191L200.308 157.523C200.639 156.866 201.445 156.6 202.102 156.938L202.433 156.281C201.413 155.761 200.165 156.171 199.645 157.191H199.652Z" fill="black"/>
<path d="M105.224 179.164H15.0272L15.0272 230.777H105.224L105.224 179.164Z" fill="#F6F6F6"/>
<path fill-rule="evenodd" clip-rule="evenodd" d="M104.224 180.164H16.0272L16.0272 229.777H104.224L104.224 180.164ZM105.224 179.164L105.224 230.777H15.0272L15.0272 179.164H105.224Z" fill="black"/>
<path d="M99.224 173.399H21.0272C17.7135 173.399 15.0272 176.085 15.0272 179.399V180.554H105.224V179.399C105.224 176.085 102.538 173.399 99.224 173.399Z" fill="#255DF9"/>
<path d="M19.6349 178.78C20.5394 178.78 21.2726 178.047 21.2726 177.143C21.2726 176.238 20.5394 175.505 19.6349 175.505C18.7304 175.505 17.9972 176.238 17.9972 177.143C17.9972 178.047 18.7304 178.78 19.6349 178.78Z" fill="black"/>
<path d="M26.7836 177.143C26.7836 178.046 26.0492 178.78 25.1459 178.78C24.2425 178.78 23.5082 178.046 23.5082 177.143C23.5082 176.239 24.2425 175.505 25.1459 175.505C26.0492 175.505 26.7836 176.239 26.7836 177.143Z" fill="black"/>
<path d="M30.6633 176.005C31.2917 176.005 31.801 176.514 31.801 177.143C31.801 177.771 31.2917 178.28 30.6633 178.28C30.035 178.28 29.5256 177.771 29.5256 177.143C29.5256 176.514 30.035 176.005 30.6633 176.005Z" fill="#D9D9D9" stroke="black"/>
<path d="M60.1298 190.978C65.3729 190.978 70.6114 191.884 75.8436 194.002H75.8446C78.4623 195.055 81.0826 196.435 83.705 198.215C85.0222 199.132 86.3294 200.094 87.6337 201.239L87.6366 201.242C88.859 202.296 90.0726 203.446 91.286 204.878C90.0727 206.31 88.8597 207.456 87.6356 208.518L87.6337 208.52C86.3298 209.664 85.0229 210.626 83.7059 211.542C81.0825 213.317 78.4618 214.703 75.8446 215.755L75.8436 215.756C70.6045 217.875 65.3663 218.786 60.1307 218.78C54.8867 218.754 49.6476 217.837 44.4149 215.711L44.413 215.71L43.4305 215.3C41.3032 214.378 39.1745 213.233 37.0438 211.832L36.5516 211.503C35.2337 210.586 33.9267 209.63 32.6229 208.493L32.621 208.491C31.3981 207.436 30.1858 206.297 28.9735 204.878C30.1858 203.459 31.3989 202.317 32.62 201.269L32.6229 201.266C33.9291 200.126 35.2388 199.163 36.5565 198.252L36.5555 198.251C39.177 196.479 41.7966 195.1 44.413 194.048L44.4139 194.047C49.6531 191.922 54.8925 191.004 60.1298 190.978Z" fill="#D9D9D9" stroke="black"/>
<path d="M67.8625 205.685C63.6643 205.685 60.2589 202.28 60.2589 198.081C60.2589 196.392 60.8178 194.838 61.7471 193.578C61.2142 193.5 60.6748 193.448 60.1224 193.448C53.8056 193.448 48.691 198.569 48.691 204.879C48.691 211.189 53.8121 216.311 60.1224 216.311C66.4328 216.311 71.5538 211.189 71.5538 204.879C71.5538 204.827 71.5473 204.782 71.5473 204.73C70.4555 205.334 69.2012 205.685 67.8625 205.685Z" fill="#255DF9"/>
<path d="M28.3173 204.879C30.1694 202.52 32.3855 200.454 34.7381 198.556C37.1166 196.691 39.6642 195.014 42.3807 193.636C45.0842 192.226 47.9761 191.16 50.9526 190.374C53.9355 189.62 57.016 189.237 60.1029 189.204C60.8762 189.23 61.6496 189.204 62.4165 189.276L64.7235 189.49C66.2442 189.737 67.778 189.938 69.2597 190.367C70.7674 190.712 72.1971 191.271 73.6529 191.758L75.765 192.661L76.8113 193.136L77.8186 193.675C83.2256 196.509 87.9827 200.382 91.934 204.879C87.2029 201.22 82.2248 197.964 76.8958 195.605L75.9015 195.157L74.8811 194.78L72.847 194.013C71.4563 193.617 70.085 193.142 68.6683 192.889C67.2711 192.538 65.8413 192.356 64.4181 192.148L62.267 191.979C61.5521 191.921 60.8307 191.96 60.1159 191.94C54.3709 191.921 48.6455 193.272 43.2905 195.56C40.613 196.717 38.0135 198.081 35.5114 199.648C33.0029 201.194 30.5983 202.943 28.3173 204.873V204.879Z" fill="black"/>
<path d="M77.3312 185.312L40.2559 222.387L41.5794 223.711L78.6546 186.635L77.3312 185.312Z" fill="black"/>
<path d="M202.381 57.2329H112.184V107.456H202.381V57.2329Z" fill="#255DF9"/>
<path d="M196.381 50.0781H118.184C114.871 50.0781 112.184 52.7644 112.184 56.0781V57.2333H202.381V56.0781C202.381 52.7644 199.695 50.0781 196.381 50.0781Z" fill="#F6F6F6"/>
<path fill-rule="evenodd" clip-rule="evenodd" d="M111.604 56.078C111.604 52.444 114.55 49.498 118.184 49.498H196.381C200.015 49.498 202.961 52.444 202.961 56.078V57.2332C202.961 57.5535 202.701 57.8132 202.381 57.8132H112.184C111.864 57.8132 111.604 57.5535 111.604 57.2332V56.078ZM118.184 50.658C115.191 50.658 112.764 53.0847 112.764 56.078V56.6532H201.801V56.078C201.801 53.0847 199.374 50.658 196.381 50.658H118.184Z" fill="black"/>
<path d="M116.792 52.6836C117.42 52.6836 117.93 53.193 117.93 53.8213C117.93 54.4496 117.42 54.959 116.792 54.959C116.164 54.959 115.654 54.4496 115.654 53.8213C115.654 53.193 116.164 52.6836 116.792 52.6836Z" fill="#D9D9D9" stroke="black"/>
<path d="M122.303 52.6836C122.93 52.6836 123.441 53.1941 123.441 53.8213C123.441 54.4485 122.93 54.959 122.303 54.959C121.676 54.959 121.165 54.4485 121.165 53.8213C121.165 53.1941 121.676 52.6836 122.303 52.6836Z" fill="#D9D9D9" stroke="black"/>
<path d="M127.82 52.6836C128.449 52.6836 128.958 53.193 128.958 53.8213C128.958 54.4496 128.449 54.959 127.82 54.959C127.192 54.959 126.683 54.4496 126.683 53.8213C126.683 53.193 127.192 52.6836 127.82 52.6836Z" fill="#D9D9D9" stroke="black"/>
<path d="M194.342 70.627H104.145V120.85H194.342V70.627Z" fill="#F6F6F6"/>
<path fill-rule="evenodd" clip-rule="evenodd" d="M103.645 70.127H194.842V121.35H103.645V70.127ZM104.645 71.127V120.35H193.842V71.127H104.645Z" fill="black"/>
<path d="M188.342 63.4717H110.145C106.832 63.4717 104.145 66.158 104.145 69.4717V70.6269H194.342V69.4717C194.342 66.158 191.656 63.4717 188.342 63.4717Z" fill="#F6F6F6"/>
<path fill-rule="evenodd" clip-rule="evenodd" d="M103.565 69.4716C103.565 65.8376 106.511 62.8916 110.145 62.8916H188.342C191.976 62.8916 194.922 65.8376 194.922 69.4716V70.6268C194.922 70.9471 194.662 71.2068 194.342 71.2068H104.145C103.825 71.2068 103.565 70.9471 103.565 70.6268V69.4716ZM110.145 64.0516C107.152 64.0516 104.725 66.4782 104.725 69.4716V70.0468H193.762V69.4716C193.762 66.4782 191.335 64.0516 188.342 64.0516H110.145Z" fill="black"/>
<path d="M108.753 68.853C109.657 68.853 110.391 68.1198 110.391 67.2153C110.391 66.3109 109.657 65.5776 108.753 65.5776C107.848 65.5776 107.115 66.3109 107.115 67.2153C107.115 68.1198 107.848 68.853 108.753 68.853Z" fill="#255DF9"/>
<path d="M115.902 67.2153C115.902 68.1187 115.167 68.853 114.264 68.853C113.361 68.853 112.626 68.1187 112.626 67.2153C112.626 66.312 113.361 65.5776 114.264 65.5776C115.167 65.5776 115.902 66.312 115.902 67.2153Z" fill="black"/>
<path d="M119.781 66.0776C120.41 66.0776 120.919 66.587 120.919 67.2153C120.919 67.8437 120.41 68.353 119.781 68.353C119.153 68.353 118.644 67.8437 118.644 67.2153C118.644 66.587 119.153 66.0776 119.781 66.0776Z" fill="#D9D9D9" stroke="black"/>
<path d="M165.572 111.985H133.091C131.258 111.985 129.816 111.251 129.12 109.977C128.431 108.703 128.607 107.092 129.608 105.558L145.426 81.3174C146.394 79.8357 147.817 78.9844 149.325 78.9844C150.833 78.9844 152.256 79.8357 153.224 81.3174L169.042 105.558C170.043 107.092 170.219 108.703 169.53 109.977C168.841 111.251 167.392 111.985 165.559 111.985H165.572ZM132.487 107.436C132.129 107.982 132.129 108.294 132.149 108.352C132.181 108.385 132.448 108.554 133.097 108.554H165.578C166.228 108.554 166.495 108.385 166.527 108.339C166.54 108.294 166.534 107.982 166.183 107.436L150.365 83.1956C150.046 82.7082 149.663 82.4157 149.338 82.4157C149.013 82.4157 148.63 82.7082 148.311 83.1956L132.493 107.436H132.487Z" fill="#B42318"/>
<path d="M148.331 105.415C148.071 105.155 147.941 104.83 147.941 104.44C147.941 104.05 148.071 103.732 148.331 103.466C148.591 103.206 148.915 103.069 149.305 103.069C149.695 103.069 150.02 103.199 150.287 103.466C150.553 103.725 150.69 104.05 150.69 104.44C150.69 104.83 150.553 105.149 150.287 105.415C150.014 105.675 149.689 105.812 149.305 105.812C148.922 105.812 148.597 105.682 148.331 105.415ZM147.525 89.2852H151.132L150.462 100.834H148.194L147.525 89.2852Z" fill="#B42318"/>
<path d="M82.4294 76.0476C81.391 75.1376 80.3633 74.3883 79.4747 73.7781C77.5799 72.4935 75.5995 71.4336 73.5869 70.6201C69.8616 69.1106 65.9114 68.3506 61.8007 68.3506C57.6471 68.372 53.7932 69.1214 50.0357 70.6522C48.0125 71.4658 46.0321 72.5256 44.1372 73.8102C43.2701 74.4097 42.2531 75.1483 41.204 76.0582C39.8541 77.2128 38.6753 78.5069 37.5429 79.8693C38.6737 81.2298 39.8533 82.5189 41.1933 83.6803C42.2424 84.6009 43.2701 85.3396 44.1479 85.9391C46.032 87.213 48.0125 88.2728 50.0357 89.0863C53.8039 90.6172 57.6578 91.3665 61.8113 91.388H61.8434C65.9114 91.388 69.8616 90.6279 73.5869 89.1185C75.5995 88.3156 77.58 87.2451 79.4962 85.9498C80.3633 85.3396 81.4017 84.6009 82.4186 83.691C83.7706 82.5347 84.9457 81.2316 86.0691 79.8586C84.9407 78.4974 83.769 77.2085 82.4294 76.0476Z" fill="#F6F6F6"/>
<path fill-rule="evenodd" clip-rule="evenodd" d="M79.4748 73.7781C80.3633 74.3883 81.391 75.1376 82.4294 76.0476C83.769 77.2086 84.9408 78.4974 86.0691 79.8586C84.9457 81.2316 83.7706 82.5348 82.4187 83.691C81.4017 84.6009 80.3633 85.3396 79.4962 85.9498C77.58 87.2451 75.5995 88.3156 73.587 89.1185C69.8616 90.6279 65.9114 91.388 61.8435 91.388H61.8114C57.6578 91.3666 53.8039 90.6172 50.0358 89.0864C48.0125 88.2728 46.032 87.213 44.148 85.9391C43.2701 85.3396 42.2425 84.6009 41.1934 83.6803C39.8533 82.5189 38.6737 81.2298 37.5429 79.8693C38.6753 78.5069 39.8541 77.2128 41.2041 76.0583C42.2531 75.1483 43.2702 74.4097 44.1373 73.8102C46.0321 72.5256 48.0125 71.4658 50.0358 70.6522C53.7932 69.1214 57.6471 68.372 61.8007 68.3506C65.9114 68.3506 69.8616 69.1107 73.587 70.6201C75.5995 71.4337 77.58 72.4935 79.4748 73.7781ZM73.9617 69.693C76.0423 70.5341 78.085 71.6277 80.0359 72.9504L80.0409 72.9537C80.9466 73.5758 82.0083 74.3492 83.0864 75.2937C84.4829 76.5043 85.6934 77.8384 86.839 79.2204L87.3646 79.8544L86.8431 80.4918C85.7035 81.8846 84.4886 83.2353 83.0771 84.4437C82.015 85.393 80.9372 86.1585 80.0717 86.7676L80.064 86.773L80.0562 86.7782C78.0883 88.1085 76.0456 89.214 73.96 90.0463C70.1139 91.6043 66.0368 92.388 61.8435 92.388H61.8062C57.5297 92.3659 53.55 91.5932 49.661 90.0135C47.5695 89.1723 45.5272 88.0787 43.5878 86.7675L43.584 86.7649C42.6914 86.1553 41.6275 85.3915 40.536 84.4339C39.1405 83.2241 37.9229 81.8909 36.7739 80.5085L36.2426 79.8693L36.7739 79.2301C37.923 77.8475 39.142 76.5064 40.5515 75.3005C41.6382 74.3582 42.6872 73.597 43.5686 72.9876L43.5761 72.9825C45.5264 71.6602 47.569 70.5665 49.6606 69.7252C53.5395 68.1453 57.5194 67.3727 61.7955 67.3506L61.8007 67.3506C66.0368 67.3506 70.1144 68.1342 73.9617 69.693ZM50.9885 73.1144C49.1365 73.853 47.3167 74.8272 45.5824 75.994C43.9097 77.1315 42.3174 78.4189 40.9364 79.9014C42.3373 81.3847 43.93 82.6589 45.6039 83.8195C47.3381 84.9863 49.1472 85.9498 50.9992 86.6884C54.457 88.0801 57.9896 88.7652 61.8114 88.7866C65.6331 88.7866 69.155 88.1122 72.6128 86.7205C74.4541 85.9819 76.274 85.0184 78.0189 83.8409C79.6848 82.6859 81.2685 81.3977 82.6435 79.9014C81.2604 78.3963 79.6486 77.1176 77.9761 75.9512C76.2418 74.7844 74.4327 73.8209 72.5914 73.0822C69.1336 71.6906 65.6117 71.0162 61.8221 71.0162C57.9789 71.0376 54.4463 71.7227 50.9885 73.1144ZM61.8249 72.0162C65.488 72.0165 68.8821 72.6673 72.218 74.0099L72.2191 74.0104C73.9894 74.7206 75.7341 75.6487 77.4108 76.7762C78.786 77.7355 80.0944 78.7556 81.2551 79.9025C80.103 81.048 78.815 82.0717 77.4544 83.0154C75.7683 84.1527 74.0128 85.0815 72.2405 85.7924L72.2394 85.7929C68.9041 87.1353 65.51 87.7863 61.8142 87.7866C58.1162 87.7656 54.7095 87.1038 51.3726 85.7607L51.3697 85.7596C49.5893 85.0495 47.8448 84.1214 46.1679 82.9937C44.8005 82.0453 43.5059 81.0311 42.337 79.8971C43.4928 78.7635 44.7838 77.7466 46.1427 76.8223C47.8221 75.6926 49.5786 74.7533 51.359 74.0432L51.3619 74.042C54.6984 72.6992 58.1051 72.0372 61.8249 72.0162Z" fill="#737373"/>
<path d="M67.9128 79.8719C67.9128 83.2446 65.1787 85.9788 61.806 85.9788C58.4333 85.9788 55.6992 83.2446 55.6992 79.8719C55.6992 76.4992 58.4333 73.7651 61.806 73.7651C65.1787 73.7651 67.9128 76.4992 67.9128 79.8719Z" fill="#F6F6F6"/>
<path fill-rule="evenodd" clip-rule="evenodd" d="M68.9128 79.8719C68.9128 83.7969 65.731 86.9788 61.806 86.9788C57.881 86.9788 54.6992 83.7969 54.6992 79.8719C54.6992 75.947 57.881 72.7651 61.806 72.7651C65.731 72.7651 68.9128 75.947 68.9128 79.8719ZM61.806 85.9788C65.1787 85.9788 67.9128 83.2446 67.9128 79.8719C67.9128 76.4992 65.1787 73.7651 61.806 73.7651C58.4333 73.7651 55.6992 76.4992 55.6992 79.8719C55.6992 83.2446 58.4333 85.9788 61.806 85.9788Z" fill="#737373"/>
<path d="M75.0328 65.2662L47.1992 93.0997C46.8188 93.4802 46.8188 94.097 47.1992 94.4774C47.5796 94.8578 48.1964 94.8578 48.5769 94.4774L76.4105 66.6438C76.7909 66.2634 76.7909 65.6466 76.4105 65.2662C76.03 64.8857 75.4132 64.8857 75.0328 65.2662Z" fill="#F6F6F6"/>
<path fill-rule="evenodd" clip-rule="evenodd" d="M46.4921 92.3926L74.3257 64.559C75.0967 63.7881 76.3466 63.7881 77.1176 64.559C77.8886 65.33 77.8886 66.58 77.1176 67.3509L49.284 95.1845C48.5131 95.9555 47.2631 95.9555 46.4921 95.1845C45.7212 94.4136 45.7212 93.1636 46.4921 92.3926ZM47.1992 93.0997L75.0328 65.2662C75.4133 64.8857 76.0301 64.8857 76.4105 65.2662C76.7909 65.6466 76.7909 66.2634 76.4105 66.6438L48.5769 94.4774C48.1965 94.8578 47.5797 94.8578 47.1992 94.4774C46.8188 94.097 46.8188 93.4802 47.1992 93.0997Z" fill="#737373"/>
<path d="M26.8474 150.803C26.23 150.803 25.6712 150.919 25.2162 151.108C25.0408 150.016 24.6118 149.009 23.988 148.151C24.4429 147.969 24.9238 147.657 25.3592 147.222C26.3925 146.188 26.7759 144.889 26.2105 144.317C25.6452 143.751 24.3454 144.128 23.3056 145.168C22.8702 145.603 22.5582 146.084 22.3763 146.539C21.5184 145.922 20.5111 145.493 19.4193 145.311C19.6143 144.863 19.7247 144.297 19.7247 143.68C19.7247 142.211 19.0749 141.028 18.2755 141.028C17.4762 141.028 16.8263 142.218 16.8263 143.68C16.8263 144.297 16.9433 144.856 17.1317 145.311C16.0399 145.486 15.0326 145.915 14.1748 146.539C13.9928 146.084 13.6809 145.603 13.2454 145.168C12.2121 144.135 10.9124 143.751 10.3405 144.317C9.77509 144.882 10.152 146.182 11.1918 147.222C11.6272 147.657 12.1082 147.969 12.5631 148.151C11.9457 149.009 11.5168 150.016 11.3413 151.108C10.8929 150.913 10.3275 150.803 9.7101 150.803C8.24787 150.803 7.05859 151.452 7.05859 152.252C7.05859 153.051 8.24787 153.701 9.7101 153.701C10.3275 153.701 10.8864 153.584 11.3413 153.396C11.5168 154.487 11.9457 155.495 12.5631 156.352C12.1082 156.534 11.6272 156.846 11.1918 157.282C10.1585 158.315 9.77509 159.615 10.3405 160.187C10.9059 160.752 12.2056 160.375 13.2454 159.335C13.6809 158.9 13.9928 158.419 14.1748 157.964C15.0326 158.582 16.0399 159.01 17.1317 159.192C16.9368 159.641 16.8263 160.206 16.8263 160.824C16.8263 162.286 17.4762 163.475 18.2755 163.475C19.0749 163.475 19.7247 162.286 19.7247 160.824C19.7247 160.206 19.6078 159.641 19.4193 159.192C20.5111 159.017 21.5184 158.588 22.3763 157.964C22.5582 158.419 22.8702 158.9 23.3056 159.335C24.3389 160.369 25.6387 160.752 26.2105 160.187C26.7824 159.621 26.399 158.322 25.3592 157.282C24.9238 156.846 24.4429 156.534 23.988 156.352C24.6053 155.495 25.0343 154.487 25.2162 153.396C25.6647 153.59 26.23 153.701 26.8474 153.701C28.3097 153.701 29.4989 153.051 29.4989 152.252C29.4989 151.452 28.3097 150.803 26.8474 150.803ZM18.282 156.879C15.728 156.879 13.6549 154.806 13.6549 152.252C13.6549 149.698 15.728 147.625 18.282 147.625C20.836 147.625 22.9092 149.698 22.9092 152.252C22.9092 154.806 20.836 156.879 18.282 156.879Z" fill="#F6F6F6"/>
<path d="M43.4762 124.202C42.671 124.279 41.9565 124.5 41.3866 124.803C41.0224 123.4 40.3382 122.14 39.4182 121.098C39.989 120.805 40.5775 120.338 41.0915 119.716C42.3111 118.24 42.6501 116.498 41.8419 115.822C41.0344 115.155 39.3859 115.807 38.1586 117.292C37.6446 117.914 37.2974 118.58 37.1164 119.196C35.9211 118.497 34.5541 118.062 33.1076 117.96C33.3063 117.351 33.3803 116.6 33.3038 115.795C33.1218 113.879 32.1277 112.417 31.0851 112.516C30.0426 112.615 29.3423 114.247 29.5235 116.154C29.6 116.959 29.8218 117.674 30.124 118.244C28.7218 118.608 27.4611 119.292 26.4196 120.212C26.1259 119.641 25.6595 119.053 25.0376 118.539C23.5619 117.319 21.8192 116.98 21.1433 117.788C20.476 118.596 21.1286 120.244 22.6137 121.472C23.2355 121.986 23.9014 122.333 24.5173 122.514C23.8183 123.709 23.3837 125.076 23.2902 126.522C22.6812 126.323 21.9301 126.249 21.1248 126.326C19.2177 126.507 17.7471 127.502 17.8462 128.544C17.9452 129.587 19.5769 130.287 21.484 130.106C22.2892 130.03 23.0037 129.808 23.5736 129.506C23.9378 130.908 24.622 132.168 25.5335 133.211C24.9628 133.504 24.3742 133.971 23.8603 134.593C22.6406 136.068 22.3016 137.811 23.1099 138.487C23.9173 139.154 25.5658 138.502 26.7932 137.017C27.3071 136.395 27.6544 135.729 27.8353 135.113C29.0307 135.812 30.3976 136.247 31.8441 136.349C31.6454 136.958 31.5714 137.709 31.6479 138.514C31.8291 140.421 32.824 141.892 33.8666 141.793C34.9092 141.694 35.6094 140.062 35.4282 138.155C35.3517 137.35 35.1291 136.627 34.8277 136.065C36.2299 135.701 37.4906 135.017 38.5321 134.097C38.8258 134.668 39.2922 135.256 39.9141 135.77C41.3898 136.99 43.1326 137.329 43.8084 136.52C44.4842 135.712 43.8231 134.064 42.3381 132.837C41.7162 132.323 41.0503 131.976 40.4345 131.795C41.1334 130.6 41.568 129.233 41.67 127.786C42.279 127.985 43.0301 128.059 43.8354 127.982C45.7425 127.801 47.2131 126.806 47.114 125.764C47.015 124.721 45.3833 124.021 43.4762 124.202ZM33.0577 133.189C29.7266 133.505 26.7659 131.058 26.4494 127.727C26.1329 124.396 28.5799 121.435 31.911 121.119C35.2421 120.802 38.2028 123.249 38.5193 126.58C38.8358 129.911 36.3888 132.872 33.0577 133.189Z" fill="#F6F6F6"/>
<path fill-rule="evenodd" clip-rule="evenodd" d="M26.2105 144.317C26.7759 144.889 26.3925 146.188 25.3592 147.222C25.1983 147.383 25.0313 147.527 24.8616 147.653C24.572 147.87 24.2748 148.036 23.988 148.151C24.186 148.423 24.3643 148.711 24.5212 149.011C24.7063 149.365 24.8615 149.738 24.9837 150.125C25.0841 150.443 25.1622 150.772 25.2162 151.108C25.5024 150.989 25.8296 150.899 26.1867 150.849C26.3973 150.819 26.6184 150.803 26.8474 150.803C28.3097 150.803 29.4989 151.452 29.4989 152.252C29.4989 153.051 28.3097 153.701 26.8474 153.701C26.6187 153.701 26.3971 153.686 26.1859 153.657C25.8271 153.607 25.4985 153.518 25.2162 153.396C25.1602 153.732 25.0807 154.06 24.9794 154.379C24.8565 154.765 24.7016 155.137 24.5178 155.491C24.3615 155.792 24.1842 156.08 23.988 156.352C24.2747 156.467 24.5717 156.633 24.8612 156.85C25.031 156.977 25.1982 157.121 25.3592 157.282C26.399 158.322 26.7824 159.621 26.2105 160.187C25.6387 160.752 24.3389 160.369 23.3056 159.335C23.1447 159.175 23.0007 159.007 22.8739 158.838C22.6574 158.548 22.491 158.251 22.3763 157.964C22.104 158.162 21.8167 158.341 21.5164 158.497C21.1621 158.682 20.7897 158.838 20.4027 158.96C20.0842 159.06 19.7558 159.138 19.4193 159.192C19.538 159.475 19.6284 159.804 19.679 160.163C19.7087 160.374 19.7247 160.595 19.7247 160.824C19.7247 162.286 19.0749 163.475 18.2755 163.475C17.4762 163.475 16.8263 162.286 16.8263 160.824C16.8263 160.595 16.8415 160.373 16.8705 160.162C16.9198 159.803 17.009 159.475 17.1317 159.192C16.7953 159.136 16.4669 159.057 16.1485 158.956C15.762 158.833 15.3901 158.678 15.0362 158.494C14.7353 158.338 14.4475 158.16 14.1748 157.964C14.0601 158.251 13.8938 158.548 13.6774 158.837C13.5505 159.007 13.4064 159.174 13.2454 159.335C12.2056 160.375 10.9059 160.752 10.3405 160.187C9.77509 159.615 10.1585 158.315 11.1918 157.282C11.3528 157.121 11.52 156.977 11.6898 156.85C11.9793 156.633 12.2764 156.467 12.5631 156.352C12.3668 156.08 12.1895 155.792 12.0334 155.491C11.8498 155.137 11.6954 154.765 11.5737 154.379C11.4735 154.06 11.3953 153.732 11.3413 153.396C11.0552 153.514 10.7279 153.604 10.3708 153.655C10.1602 153.685 9.93917 153.701 9.7101 153.701C8.24787 153.701 7.05859 153.051 7.05859 152.252C7.05859 151.452 8.24787 150.803 9.7101 150.803C9.93868 150.803 10.1601 150.818 10.3712 150.847C10.7301 150.896 11.0589 150.985 11.3413 151.108C11.3954 150.771 11.4737 150.442 11.5743 150.123C11.6959 149.737 11.8501 149.366 12.0334 149.012C12.1895 148.712 12.3668 148.424 12.5631 148.151C12.2764 148.036 11.9793 147.87 11.6898 147.654C11.52 147.527 11.3528 147.383 11.1918 147.222C10.152 146.182 9.77509 144.882 10.3405 144.317C10.9124 143.751 12.2121 144.135 13.2454 145.168C13.4063 145.329 13.5503 145.496 13.6772 145.666C13.8936 145.955 14.06 146.252 14.1748 146.539C14.447 146.341 14.7344 146.163 15.0347 146.006C15.3891 145.821 15.7616 145.666 16.1488 145.544C16.4672 145.443 16.7954 145.365 17.1317 145.311C17.0132 145.025 16.9229 144.698 16.8723 144.341C16.8424 144.13 16.8263 143.909 16.8263 143.68C16.8263 142.218 17.4762 141.028 18.2755 141.028C19.0749 141.028 19.7247 142.211 19.7247 143.68C19.7247 143.909 19.7096 144.13 19.6806 144.341C19.6313 144.7 19.542 145.029 19.4193 145.311C19.7557 145.367 20.0841 145.447 20.4026 145.548C20.7891 145.671 21.161 145.826 21.5148 146.009C21.8157 146.166 22.1035 146.343 22.3763 146.539C22.4909 146.253 22.6573 145.956 22.8736 145.666C23.0005 145.496 23.1446 145.329 23.3056 145.168C24.3454 144.128 25.6452 143.751 26.2105 144.317ZM22.0168 145.143C22.1867 144.908 22.3812 144.678 22.5985 144.461C23.2139 143.846 23.9399 143.39 24.6556 143.181C25.3304 142.983 26.2562 142.948 26.9177 143.61L26.9217 143.614L26.9217 143.614C27.579 144.278 27.5421 145.203 27.3439 145.878C27.1339 146.593 26.6783 147.317 26.0663 147.929C25.8499 148.145 25.6217 148.339 25.3868 148.508C25.6159 148.941 25.8059 149.397 25.9524 149.873C26.2393 149.827 26.5389 149.803 26.8474 149.803C27.7137 149.803 28.5479 149.993 29.2011 150.35C29.8162 150.686 30.4989 151.315 30.4989 152.252C30.4989 153.189 29.8162 153.817 29.2011 154.154C28.5479 154.511 27.7137 154.701 26.8474 154.701C26.5412 154.701 26.2393 154.678 25.9479 154.633C25.8006 155.106 25.6111 155.561 25.3838 155.993C25.6198 156.163 25.849 156.357 26.0663 156.575C26.6807 157.189 27.1385 157.915 27.3487 158.63C27.5471 159.306 27.5833 160.236 26.9136 160.898C26.2488 161.555 25.3242 161.518 24.6493 161.32C23.9344 161.11 23.2105 160.655 22.5985 160.043C22.3821 159.826 22.1884 159.598 22.0189 159.363C21.5864 159.592 21.1301 159.782 20.655 159.929C20.7007 160.216 20.7247 160.517 20.7247 160.824C20.7247 161.69 20.5344 162.524 20.1774 163.177C19.8412 163.792 19.2125 164.475 18.2755 164.475C17.3385 164.475 16.7098 163.792 16.3736 163.177C16.0166 162.524 15.8263 161.69 15.8263 160.824C15.8263 160.517 15.8491 160.216 15.8948 159.924C15.4209 159.777 14.9658 159.587 14.5343 159.36C14.3643 159.596 14.1699 159.825 13.9526 160.043C13.3372 160.658 12.6112 161.114 11.8955 161.323C11.2207 161.52 10.2948 161.555 9.63338 160.894L9.62935 160.89C8.97208 160.225 9.00898 159.3 9.20716 158.626C9.41711 157.911 9.87274 157.187 10.4847 156.575C10.7021 156.357 10.9314 156.163 11.1674 155.993C10.9402 155.561 10.7511 155.106 10.6049 154.631C10.3182 154.677 10.0185 154.701 9.7101 154.701C8.84385 154.701 8.00967 154.511 7.35643 154.154C6.74138 153.817 6.05859 153.189 6.05859 152.252C6.05859 151.315 6.74138 150.686 7.35643 150.35C8.00967 149.993 8.84384 149.803 9.7101 149.803C10.0149 149.803 10.3155 149.825 10.6056 149.87C10.7517 149.396 10.9405 148.942 11.1674 148.511C10.9314 148.341 10.7021 148.146 10.4847 147.929C9.86935 147.313 9.41339 146.587 9.20432 145.872C9.0072 145.197 8.97195 144.271 9.63338 143.61L9.63742 143.606L9.63743 143.606C10.3023 142.948 11.2268 142.985 11.9017 143.183C12.6166 143.393 13.3406 143.849 13.9526 144.461C14.1689 144.677 14.3626 144.906 14.5321 145.141C14.9647 144.911 15.4211 144.721 15.8963 144.575C15.8505 144.288 15.8263 143.988 15.8263 143.68C15.8263 142.814 16.0166 141.979 16.3736 141.326C16.7098 140.711 17.3385 140.028 18.2755 140.028C19.2104 140.028 19.8396 140.707 20.177 141.323C20.5346 141.976 20.7247 142.811 20.7247 143.68C20.7247 143.986 20.7019 144.288 20.6563 144.579C21.1301 144.727 21.5852 144.916 22.0168 145.143ZM14.6549 152.252C14.6549 154.253 16.2803 155.879 18.282 155.879C20.2838 155.879 21.9092 154.253 21.9092 152.252C21.9092 150.25 20.2838 148.625 18.282 148.625C16.2803 148.625 14.6549 150.25 14.6549 152.252ZM13.6549 152.252C13.6549 154.806 15.728 156.879 18.282 156.879C20.836 156.879 22.9092 154.806 22.9092 152.252C22.9092 149.698 20.836 147.625 18.282 147.625C15.728 147.625 13.6549 149.698 13.6549 152.252Z" fill="#737373"/>
<path fill-rule="evenodd" clip-rule="evenodd" d="M41.8418 115.822C42.6501 116.497 42.3111 118.24 41.0914 119.716C40.9015 119.946 40.7015 120.154 40.4959 120.341C40.145 120.659 39.778 120.913 39.4181 121.098C39.7101 121.428 39.9784 121.781 40.2201 122.153C40.5055 122.593 40.7541 123.059 40.9614 123.549C41.1318 123.952 41.2743 124.37 41.3865 124.802C41.745 124.612 42.1606 124.454 42.6201 124.344C42.8911 124.279 43.1774 124.23 43.4761 124.202C45.3833 124.021 47.0149 124.721 47.114 125.763C47.213 126.806 45.7424 127.801 43.8353 127.982C43.5369 128.01 43.246 128.018 42.967 128.006C42.493 127.987 42.0533 127.911 41.67 127.786C41.6385 128.232 41.5755 128.67 41.4829 129.098C41.3705 129.617 41.2146 130.121 41.0187 130.606C40.8521 131.017 40.6566 131.415 40.4344 131.795C40.8226 131.909 41.2306 132.089 41.635 132.335C41.8722 132.48 42.1081 132.647 42.338 132.837C43.823 134.064 44.4842 135.712 43.8083 136.52C43.1325 137.328 41.3898 136.989 39.914 135.77C39.6843 135.58 39.4758 135.38 39.2893 135.174C38.9711 134.823 38.7172 134.456 38.532 134.096C38.2015 134.388 37.8488 134.657 37.4766 134.898C37.0375 135.184 36.571 135.432 36.0814 135.639C35.6784 135.81 35.2598 135.953 34.8276 136.065C35.0175 136.419 35.1761 136.836 35.2866 137.298C35.3515 137.57 35.3998 137.856 35.4281 138.154C35.6093 140.062 34.9091 141.693 33.8665 141.792C32.824 141.891 31.829 140.421 31.6478 138.514C31.6195 138.215 31.6118 137.924 31.6235 137.645C31.6433 137.171 31.719 136.732 31.8441 136.348C31.3984 136.317 30.9602 136.254 30.5323 136.161C30.013 136.049 29.5087 135.893 29.0244 135.697C28.6127 135.53 28.2153 135.335 27.8353 135.113C27.7212 135.501 27.5411 135.909 27.2948 136.313C27.1503 136.55 26.9831 136.786 26.7931 137.016C25.5658 138.501 23.9173 139.154 23.1098 138.487C22.3015 137.811 22.6405 136.068 23.8602 134.592C24.0502 134.362 24.2504 134.154 24.4562 133.967C24.8069 133.649 25.1737 133.395 25.5335 133.21C25.2437 132.879 24.9768 132.526 24.736 132.152C24.4526 131.714 24.2052 131.248 23.9985 130.758C23.8283 130.356 23.6857 129.937 23.5736 129.505C23.2151 129.695 22.7994 129.853 22.34 129.964C22.069 130.029 21.7827 130.077 21.4839 130.106C19.5768 130.287 17.9452 129.587 17.8461 128.544C17.7471 127.502 19.2177 126.507 21.1248 126.325C21.4229 126.297 21.7136 126.289 21.9924 126.301C22.4667 126.321 22.9066 126.396 23.2901 126.522C23.319 126.075 23.3803 125.637 23.4719 125.208C23.5827 124.69 23.7378 124.186 23.9332 123.703C24.0995 123.291 24.295 122.894 24.5172 122.514C24.129 122.4 23.721 122.219 23.3166 121.973C23.0794 121.829 22.8435 121.661 22.6136 121.471C21.1286 120.244 20.4759 118.596 21.1433 117.788C21.8191 116.98 23.5618 117.319 25.0376 118.539C25.2673 118.728 25.4758 118.928 25.6623 119.134C25.9805 119.485 26.2344 119.852 26.4196 120.212C26.7501 119.92 27.1028 119.652 27.475 119.41C27.9143 119.124 28.3809 118.876 28.8708 118.669C29.2736 118.498 29.6921 118.356 30.124 118.243C29.9339 117.885 29.7756 117.469 29.6653 117.01C29.6002 116.739 29.5518 116.453 29.5235 116.154C29.3423 114.247 30.0425 112.615 31.0851 112.516C32.1276 112.417 33.1218 113.879 33.3038 115.795C33.3321 116.093 33.3398 116.384 33.3281 116.663C33.3083 117.137 33.2326 117.577 33.1075 117.96C33.5532 117.991 33.9914 118.054 34.4193 118.147C34.9386 118.259 35.4429 118.415 35.9272 118.611C36.339 118.778 36.7363 118.973 37.1163 119.196C37.2304 118.807 37.4105 118.399 37.6568 117.995C37.8013 117.758 37.9685 117.522 38.1585 117.292C39.3858 115.807 41.0343 115.154 41.8418 115.822ZM36.4745 117.42C36.667 117.091 36.8921 116.768 37.1486 116.457C37.875 115.578 38.7654 114.894 39.6729 114.532C40.5286 114.192 41.7318 114.031 42.6764 114.812L42.6822 114.817L42.6822 114.817C43.6218 115.602 43.6883 116.813 43.5134 117.717C43.3282 118.676 42.8236 119.677 42.1013 120.551C41.8459 120.86 41.5722 121.14 41.2868 121.391C41.6392 121.926 41.9435 122.498 42.1936 123.1C42.562 123.005 42.9499 122.936 43.3522 122.898C44.482 122.79 45.5936 122.935 46.4898 123.32C47.3337 123.682 48.3021 124.417 48.4182 125.639C48.5343 126.862 47.7217 127.766 46.9612 128.281C46.1534 128.827 45.089 129.179 43.9592 129.286C43.5599 129.324 43.1632 129.332 42.7775 129.309C42.6441 129.945 42.4534 130.562 42.2103 131.153C42.5392 131.345 42.8623 131.57 43.1726 131.827C44.0501 132.552 44.7371 133.442 45.1 134.349C45.4424 135.206 45.6048 136.414 44.8134 137.361C44.0278 138.3 42.8173 138.367 41.9125 138.192C40.9541 138.007 39.9534 137.502 39.0794 136.78C38.7704 136.524 38.4895 136.251 38.2393 135.965C37.7036 136.317 37.132 136.622 36.5305 136.872C36.6258 137.242 36.6943 137.63 36.7324 138.031C36.8397 139.16 36.6948 140.272 36.3102 141.168C35.9479 142.012 35.2126 142.98 33.9905 143.097C32.7683 143.213 31.8638 142.4 31.3491 141.64C30.8025 140.832 30.4509 139.767 30.3436 138.638C30.3056 138.238 30.298 137.842 30.3214 137.456C29.6852 137.322 29.0681 137.132 28.4771 136.889C28.2846 137.218 28.0595 137.541 27.803 137.851C27.0766 138.73 26.1862 139.414 25.2787 139.776C24.423 140.117 23.2198 140.277 22.2752 139.497L22.2694 139.492C21.3298 138.706 21.2633 137.496 21.4382 136.591C21.6234 135.632 22.128 134.632 22.8503 133.758C23.1069 133.447 23.3818 133.165 23.6686 132.914C23.3188 132.379 23.0157 131.809 22.7663 131.208C22.3979 131.303 22.0101 131.372 21.6079 131.41C20.478 131.517 19.3665 131.372 18.4703 130.988C17.6264 130.625 16.658 129.89 16.5419 128.668C16.4258 127.446 17.2384 126.541 17.9989 126.027C18.8067 125.48 19.871 125.128 21.0009 125.021C21.3984 124.983 21.7932 124.976 22.1772 124.999C22.309 124.362 22.499 123.746 22.7415 123.156C22.4125 122.963 22.0894 122.738 21.779 122.481C20.9001 121.755 20.2155 120.865 19.8541 119.957C19.5134 119.101 19.3527 117.898 20.1334 116.954L20.1382 116.948L20.1382 116.948C20.9239 116.008 22.1343 115.942 23.0391 116.117C23.9975 116.302 24.9982 116.806 25.8722 117.529C26.1812 117.784 26.4621 118.058 26.7123 118.343C27.2481 117.991 27.8198 117.686 28.4215 117.436C28.3262 117.068 28.2574 116.68 28.2192 116.278C28.1119 115.148 28.2568 114.036 28.6415 113.14C29.0037 112.296 29.739 111.328 30.9612 111.212C32.1805 111.096 33.0852 111.903 33.6017 112.665C34.149 113.472 34.5004 114.537 34.608 115.671C34.646 116.07 34.6536 116.467 34.6302 116.852C35.2664 116.986 35.8835 117.177 36.4745 117.42ZM27.7536 127.603C28.0016 130.214 30.323 132.132 32.9337 131.884C35.5445 131.636 37.463 129.315 37.215 126.704C36.9669 124.093 34.6456 122.175 32.0348 122.423C29.424 122.671 27.5055 124.992 27.7536 127.603ZM26.4493 127.727C26.7658 131.058 29.7266 133.505 33.0576 133.188C36.3887 132.872 38.8357 129.911 38.5192 126.58C38.2028 123.249 35.242 120.802 31.9109 121.118C28.5798 121.435 26.1328 124.396 26.4493 127.727Z" fill="#737373"/>
<path d="M182.202 237.432C181.63 238.309 181.624 238.822 181.65 238.907C181.695 238.959 182.131 239.232 183.177 239.232H235.674C236.721 239.232 237.156 238.959 237.215 238.887C237.234 238.816 237.228 238.309 236.656 237.425L211.089 198.25C210.576 197.464 209.959 196.996 209.432 196.996C208.906 196.996 208.288 197.464 207.775 198.25L182.209 237.425L182.202 237.432Z" fill="#F6F6F6"/>
<path d="M235.674 244.788H183.177C180.22 244.788 177.881 243.605 176.763 241.545C175.645 239.485 175.931 236.879 177.549 234.403L203.122 195.228C204.688 192.83 206.982 191.453 209.426 191.453C211.869 191.453 214.163 192.83 215.73 195.228L241.302 234.403C242.921 236.879 243.206 239.485 242.089 241.545C240.971 243.605 238.631 244.788 235.674 244.788ZM182.202 237.432C181.63 238.309 181.624 238.822 181.65 238.907C181.695 238.959 182.131 239.232 183.177 239.232H235.674C236.721 239.232 237.156 238.959 237.215 238.887C237.234 238.816 237.228 238.309 236.656 237.425L211.089 198.25C210.576 197.464 209.959 196.996 209.432 196.996C208.906 196.996 208.288 197.464 207.775 198.25L182.209 237.425L182.202 237.432Z" fill="#B42318"/>
<path d="M207.821 234.169C207.398 233.747 207.184 233.22 207.184 232.597C207.184 231.973 207.398 231.453 207.821 231.024C208.243 230.601 208.769 230.387 209.393 230.387C210.017 230.387 210.544 230.601 210.985 231.024C211.421 231.446 211.642 231.973 211.642 232.597C211.642 233.22 211.421 233.74 210.985 234.169C210.55 234.592 210.017 234.806 209.393 234.806C208.769 234.806 208.249 234.592 207.821 234.169ZM206.508 208.103H212.344L211.258 226.767H207.593L206.508 208.103Z" fill="#B42318"/>
<path d="M263.561 162.113L266.15 155.138H267.656L270.283 162.113H268.757L267.008 157.174C266.966 157.063 266.933 156.956 266.908 156.854C266.882 156.753 266.858 156.649 266.836 156.545H266.793C266.774 156.649 266.75 156.754 266.722 156.859C266.696 156.961 266.665 157.066 266.626 157.174L264.872 162.113H263.561ZM264.948 160.545L265.291 159.5H268.433L268.781 160.549L264.948 160.545Z" fill="#F6F6F6"/>
<path d="M257.814 156.235V155.172H263.502V156.235H261.371V162.113H259.95V156.235H257.814Z" fill="#F6F6F6"/>
<path d="M251.267 162.113L253.856 155.138H255.362L257.989 162.113H256.464L254.714 157.174C254.673 157.063 254.639 156.956 254.614 156.854C254.588 156.753 254.565 156.649 254.542 156.545H254.499C254.48 156.649 254.456 156.754 254.428 156.859C254.402 156.961 254.371 157.066 254.333 157.174L252.578 162.113H251.267ZM252.654 160.545L252.998 159.5H256.139L256.487 160.549L252.654 160.545Z" fill="#F6F6F6"/>
<path d="M244.848 162.113V155.172H247.199C248.152 155.172 248.95 155.461 249.592 156.04C250.237 156.618 250.56 157.416 250.56 158.433V158.852C250.56 159.869 250.237 160.667 249.592 161.246C248.95 161.824 248.152 162.113 247.199 162.113H244.848ZM246.26 161.065H247.184C247.763 161.065 248.229 160.877 248.581 160.502C248.934 160.124 249.111 159.58 249.111 158.871V158.414C249.111 157.705 248.934 157.163 248.581 156.788C248.229 156.413 247.763 156.225 247.184 156.225H246.26V161.065Z" fill="#F6F6F6"/>
<path d="M234.052 158.852V158.432C234.052 157.336 234.346 156.495 234.934 155.91C235.525 155.322 236.284 155.028 237.212 155.028C238.144 155.028 238.905 155.322 239.496 155.91C240.09 156.495 240.388 157.336 240.388 158.432V158.852C240.388 159.948 240.09 160.791 239.496 161.379C238.905 161.963 238.144 162.256 237.212 162.256C236.284 162.256 235.525 161.963 234.934 161.379C234.346 160.791 234.052 159.948 234.052 158.852ZM235.506 158.942C235.506 159.67 235.66 160.223 235.968 160.602C236.28 160.98 236.694 161.169 237.212 161.169C237.737 161.169 238.155 160.98 238.466 160.602C238.778 160.223 238.933 159.67 238.933 158.942V158.347C238.933 157.615 238.778 157.061 238.466 156.683C238.155 156.304 237.737 156.115 237.212 156.115C236.694 156.115 236.28 156.304 235.968 156.683C235.66 157.061 235.506 157.615 235.506 158.347V158.942Z" fill="#F6F6F6"/>
<path d="M226.76 162.113V155.172H228.291L230.865 159.563C230.922 159.658 230.973 159.755 231.018 159.854C231.062 159.949 231.102 160.044 231.137 160.14H231.175C231.169 160.035 231.164 159.923 231.161 159.806C231.158 159.685 231.156 159.571 231.156 159.463V155.172H232.386V162.113H230.827L228.262 157.751C228.205 157.656 228.156 157.562 228.114 157.47C228.076 157.374 228.04 157.279 228.005 157.184H227.967C227.97 157.292 227.973 157.401 227.976 157.513C227.983 157.624 227.986 157.734 227.986 157.842V162.113H226.76Z" fill="#F6F6F6"/>
<path fill-rule="evenodd" clip-rule="evenodd" d="M227.936 75.8988C227.936 69.2246 233.362 63.7988 240.036 63.7988C246.71 63.7988 252.136 69.2246 252.136 75.8988C252.136 82.5729 246.71 87.9987 240.036 87.9987C233.362 87.9987 227.936 82.5729 227.936 75.8988ZM240.036 69.0677C236.273 69.0677 233.205 72.1359 233.205 75.8988C233.205 76.8062 233.379 77.6798 233.715 78.4924L242.63 69.5774C241.817 69.2416 240.944 69.0677 240.036 69.0677ZM243.387 68.8201C242.35 68.3254 241.216 68.0677 240.036 68.0677C235.721 68.0677 232.205 71.5836 232.205 75.8988C232.205 77.0787 232.463 78.2124 232.957 79.2497C233.106 79.5607 233.275 79.8631 233.466 80.1555L244.293 69.3285C244 69.1381 243.698 68.9684 243.387 68.8201ZM237.442 82.2202C238.255 82.5559 239.129 82.7298 240.036 82.7298C243.799 82.7298 246.867 79.6617 246.867 75.8988C246.867 74.9913 246.693 74.1177 246.358 73.3051L237.442 82.2202ZM236.685 82.9775C236.374 82.8291 236.072 82.6595 235.779 82.4691L246.606 71.6421C246.797 71.9344 246.966 72.2368 247.115 72.5479C247.609 73.5851 247.867 74.7189 247.867 75.8988C247.867 80.214 244.351 83.7298 240.036 83.7298C238.856 83.7298 237.722 83.4721 236.685 82.9775ZM228.936 75.8988C228.936 69.7769 233.914 64.7988 240.036 64.7988C246.158 64.7988 251.136 69.7769 251.136 75.8988C251.136 82.0206 246.158 86.9987 240.036 86.9987C233.914 86.9987 228.936 82.0206 228.936 75.8988Z" fill="#737373"/>
</g>
<defs>
<clipPath id="clip0_8307_1966">
</clipPath>
</defs>
</svg>
