<svg width="300" height="300" viewBox="0 0 300 300" fill="none" xmlns="http://www.w3.org/2000/svg">
<path d="M9 142.58H126C126.784 142.58 127.42 143.216 127.42 144V221C127.42 221.784 126.784 222.42 126 222.42H9C8.21576 222.42 7.58008 221.784 7.58008 221V144C7.58008 143.216 8.21576 142.58 9 142.58Z" fill="white" stroke="#C6C6C6" stroke-width="1.16" stroke-linecap="round" stroke-linejoin="round"/>
<path d="M123 134H12C9.23858 134 7 136.239 7 139V145H128V139C128 136.239 125.761 134 123 134Z" fill="#3369FF"/>
<path d="M16.9663 139.393C16.9663 140.796 15.825 141.937 14.4221 141.937C13.0191 141.937 11.8779 140.796 11.8779 139.393C11.8779 137.99 13.0191 136.848 14.4221 136.848C15.825 136.848 16.9663 137.99 16.9663 139.393Z" fill="#2B2B2B"/>
<path d="M25.5294 139.393C25.5294 140.796 24.3882 141.937 22.9852 141.937C21.5822 141.937 20.441 140.796 20.441 139.393C20.441 137.99 21.5822 136.848 22.9852 136.848C24.3882 136.848 25.5294 137.99 25.5294 139.393Z" fill="#D9D9D9"/>
<path d="M34.0926 139.393C34.0926 140.796 32.9513 141.937 31.5484 141.937C30.1454 141.937 29.0042 140.796 29.0042 139.393C29.0042 137.99 30.1454 136.848 31.5484 136.848C32.9513 136.848 34.0926 137.99 34.0926 139.393Z" fill="#D9D9D9"/>
<path d="M88.299 168.935L82.2292 162.858L67.6763 177.411L53.1233 162.858L47.0463 168.935L61.5992 183.48L47.0463 198.033L53.1233 204.11L67.6763 189.557L82.2292 204.11L88.299 198.033L73.746 183.48L88.299 168.935Z" fill="#D9D9D9"/>
<path d="M164 49.5801H281C281.784 49.5801 282.42 50.2158 282.42 51V128C282.42 128.784 281.784 129.42 281 129.42H164C163.216 129.42 162.58 128.784 162.58 128V51C162.58 50.2158 163.216 49.5801 164 49.5801Z" fill="white" stroke="#C6C6C6" stroke-width="1.16" stroke-linecap="round" stroke-linejoin="round"/>
<path d="M278 41H167C164.239 41 162 43.2386 162 46V52H283V46C283 43.2386 280.761 41 278 41Z" fill="#3369FF"/>
<path d="M170.327 46.0789C170.327 47.1817 169.43 48.0789 168.327 48.0789C167.224 48.0789 166.327 47.1817 166.327 46.0789C166.327 44.976 167.224 44.0789 168.327 44.0789C169.43 44.0789 170.327 44.976 170.327 46.0789Z" fill="#2B2B2B"/>
<path d="M178.897 46.0789C178.897 47.1817 178 48.0789 176.897 48.0789C175.794 48.0789 174.897 47.1817 174.897 46.0789C174.897 44.976 175.794 44.0789 176.897 44.0789C178 44.0789 178.897 44.976 178.897 46.0789Z" fill="#D9D9D9"/>
<path d="M187.46 46.0789C187.46 47.1817 186.563 48.0789 185.46 48.0789C184.357 48.0789 183.46 47.1817 183.46 46.0789C183.46 44.976 184.357 44.0789 185.46 44.0789C186.563 44.0789 187.46 44.976 187.46 46.0789Z" fill="#D9D9D9"/>
<path d="M242.748 76.165L236.678 70.0952L222.125 84.6409L207.572 70.0952L201.502 76.165L216.048 90.7179L201.502 105.271L207.572 111.341L222.125 96.7877L236.678 111.341L242.748 105.271L228.202 90.7179L242.748 76.165Z" fill="#D9D9D9"/>
<path d="M149.273 258.229C230.839 258.229 296.961 252.514 296.961 245.465C296.961 238.415 230.839 232.7 149.273 232.7C67.7071 232.7 1.58472 238.415 1.58472 245.465C1.58472 252.514 67.7071 258.229 149.273 258.229Z" fill="#D9D9D9"/>
<path d="M220.838 235.47C220.25 239.359 216.346 242.543 212.152 242.543H88.2191C84.032 242.543 80.0776 239.366 79.4379 235.484L58.9169 111.035C58.2772 107.154 61.1776 103.977 65.372 103.977H233.102C237.289 103.977 240.24 107.161 239.651 111.05L220.846 235.47H220.838Z" fill="#2B2B2B"/>
<path d="M198.1 71.592C197.907 71.3954 197.909 71.0789 198.105 70.885V70.884L192.991 65.6965C192.819 65.8655 192.556 65.8854 192.363 65.7561L192.285 65.6917L189.525 62.8899H186.007L185.906 62.8801C185.71 62.8403 185.556 62.686 185.516 62.4905L185.507 62.3899H179.053L179.042 62.4905C178.995 62.7183 178.794 62.8898 178.553 62.8899H171.098L170.998 62.8801C170.802 62.8403 170.648 62.686 170.608 62.4905L170.598 62.3899H164.144L164.135 62.4905C164.088 62.7184 163.886 62.8899 163.644 62.8899H156.19C155.949 62.8899 155.747 62.7184 155.7 62.4905L155.69 62.3899H149.236C149.236 62.666 149.012 62.8899 148.736 62.8899H141.282L141.181 62.8801C140.954 62.8336 140.782 62.6316 140.782 62.3899H134.328C134.328 62.666 134.104 62.8899 133.828 62.8899H126.374C126.098 62.8898 125.874 62.666 125.874 62.3899H119.42C119.42 62.666 119.196 62.8899 118.92 62.8899H111.466C111.19 62.8897 110.966 62.6659 110.966 62.3899H104.512C104.512 62.666 104.288 62.8899 104.012 62.8899H96.5574C96.2815 62.8897 96.0574 62.6659 96.0574 62.3899H89.6033C89.6033 62.666 89.3795 62.8899 89.1033 62.8899H85.8768V65.7317L85.867 65.8323C85.8203 66.06 85.6183 66.2317 85.3768 66.2317V71.9143C85.6529 71.9143 85.8768 72.1382 85.8768 72.4143V79.0969L85.867 79.1975C85.8204 79.4254 85.6184 79.5969 85.3768 79.5969V85.2795C85.6529 85.2795 85.8768 85.5034 85.8768 85.7795V92.4622L85.867 92.5627C85.8205 92.7907 85.6185 92.9622 85.3768 92.9622V98.6448C85.6529 98.6448 85.8768 98.8686 85.8768 99.1448V105.827C85.8768 106.104 85.6529 106.327 85.3768 106.327V112.01C85.6528 112.01 85.8767 112.234 85.8768 112.51V119.193C85.8768 119.469 85.6529 119.693 85.3768 119.693V125.375C85.6528 125.375 85.8766 125.599 85.8768 125.875V132.558C85.8768 132.834 85.6529 133.058 85.3768 133.058V138.741C85.6529 138.741 85.8768 138.965 85.8768 139.241V145.924L85.867 146.025C85.8204 146.252 85.6184 146.424 85.3768 146.424V152.107C85.6529 152.107 85.8768 152.331 85.8768 152.607V159.289L85.867 159.39C85.8204 159.618 85.6184 159.789 85.3768 159.789V165.472C85.6529 165.472 85.8768 165.696 85.8768 165.972V172.655C85.8768 172.931 85.6529 173.155 85.3768 173.155V178.837C85.6529 178.837 85.8767 179.061 85.8768 179.337V186.02C85.8768 186.296 85.6529 186.52 85.3768 186.52V192.202C85.6528 192.202 85.8766 192.426 85.8768 192.702V199.385C85.8768 199.661 85.6529 199.885 85.3768 199.885V205.569C85.6529 205.569 85.8768 205.792 85.8768 206.069V208.909H88.9217C89.1978 208.909 89.4216 209.133 89.4217 209.409H95.5115C95.5116 209.133 95.7355 208.909 96.0115 208.909H103.101C103.377 208.909 103.601 209.133 103.601 209.409H109.691C109.691 209.133 109.915 208.91 110.191 208.909H117.281C117.557 208.909 117.781 209.133 117.781 209.409H123.871C123.871 209.133 124.095 208.91 124.371 208.909H131.461C131.737 208.909 131.961 209.133 131.961 209.409H138.051C138.051 209.133 138.275 208.91 138.551 208.909H145.64C145.917 208.909 146.14 209.133 146.14 209.409H152.231C152.231 209.133 152.455 208.909 152.731 208.909H159.821C160.097 208.91 160.321 209.133 160.321 209.409H166.411C166.411 209.133 166.635 208.909 166.911 208.909H174.001C174.277 208.91 174.501 209.133 174.501 209.409H180.591C180.591 209.133 180.815 208.909 181.091 208.909H188.18C188.456 208.91 188.68 209.133 188.68 209.409H194.77C194.77 209.133 194.994 208.909 195.27 208.909H202.36C202.636 208.909 202.86 209.133 202.86 209.409H208.95C208.95 209.133 209.174 208.909 209.45 208.909H212.495V205.982C212.495 205.706 212.719 205.482 212.995 205.482V199.625C212.719 199.625 212.495 199.401 212.495 199.125V192.269C212.495 191.993 212.719 191.769 212.995 191.769V185.911C212.719 185.911 212.495 185.688 212.495 185.411V178.555C212.495 178.279 212.719 178.055 212.995 178.055V172.198C212.719 172.198 212.495 171.975 212.495 171.698V164.842C212.495 164.566 212.719 164.342 212.995 164.342V158.486C212.719 158.486 212.495 158.262 212.495 157.986V151.129C212.495 150.853 212.719 150.629 212.995 150.629V144.773C212.719 144.773 212.495 144.549 212.495 144.273V137.416C212.495 137.14 212.719 136.916 212.995 136.916V131.06C212.719 131.06 212.495 130.836 212.495 130.56V123.703C212.495 123.427 212.719 123.203 212.995 123.203V117.347C212.719 117.347 212.495 117.123 212.495 116.847V109.99C212.495 109.714 212.719 109.49 212.995 109.49V103.634C212.719 103.634 212.495 103.41 212.495 103.134V96.2776C212.495 96.0015 212.719 95.7776 212.995 95.7776V89.9211C212.719 89.9211 212.495 89.6973 212.495 89.4211V86.1975L209.731 83.3938C209.537 83.1972 209.54 82.8806 209.736 82.6868V82.6858L204.622 77.4983C204.425 77.6915 204.109 77.6889 203.916 77.4924L198.1 71.592ZM198.1 71.592L198.456 71.2405V71.2415H198.457L198.1 71.592Z" fill="#F6F6F6" stroke="black" stroke-linecap="round" stroke-dasharray="7 7"/>
<path d="M211.962 85.3186H190.233V63.5959L211.962 85.3186Z" fill="#2B2B2B" stroke="#2B2B2B"/>
<path d="M184.609 108.884L174.206 98.4741L149.273 123.407L124.34 98.4741L113.93 108.884L138.864 133.81L113.93 158.743L124.34 169.153L149.273 144.219L174.206 169.153L184.609 158.743L159.675 133.81L184.609 108.884Z" fill="#D9D9D9"/>
<path d="M56.0892 120.237H141.103C142.623 120.237 144.217 120.833 145.552 121.819C146.887 122.804 147.927 124.151 148.373 125.604V125.605L153.157 141.11V141.111C153.681 142.804 154.87 144.316 156.343 145.403C157.816 146.489 159.611 147.176 161.383 147.176H161.883V147.16L242.355 147.045C245.334 147.045 247.374 149.425 246.907 152.369L232.629 242.457C232.151 245.464 229.25 247.945 226.203 247.946H78.9359C75.9802 247.945 73.1159 245.624 72.4564 242.749L72.3997 242.47L51.6458 125.537C51.1259 122.608 53.1077 120.237 56.0892 120.237Z" fill="#ECECEC" stroke="black"/>
<path d="M140.674 201.479C140.674 196.928 142.484 193.381 146.096 190.837L147.834 189.63C149.484 188.561 150.632 187.682 151.279 186.984C151.926 186.293 152.253 185.436 152.253 184.411C152.253 181.823 150.087 180.529 145.762 180.529C143.756 180.529 141.677 180.798 139.54 181.336C137.402 181.874 135.367 182.63 133.448 183.611V173.303C137.555 171.428 142.149 170.49 147.238 170.49C152.726 170.49 157.08 171.639 160.286 173.936C163.499 176.233 165.105 179.41 165.105 183.473C165.105 185.748 164.589 187.587 163.564 188.998C162.539 190.401 160.795 191.978 158.345 193.715C156.695 194.922 155.488 195.845 154.732 196.492C153.976 197.139 153.402 197.866 153.024 198.666C152.646 199.473 152.457 200.454 152.457 201.61V202.882H140.674V201.479ZM142.047 217.507C140.863 216.323 140.274 214.861 140.274 213.124C140.274 211.387 140.863 209.868 142.047 208.704C143.225 207.541 144.715 206.967 146.496 206.967C148.277 206.967 149.724 207.556 150.945 208.741C152.173 209.926 152.784 211.387 152.784 213.124C152.784 214.861 152.166 216.323 150.945 217.507C149.716 218.692 148.234 219.281 146.496 219.281C144.759 219.281 143.225 218.692 142.047 217.507Z" fill="#3369FF"/>
<path d="M250.311 122.453H250.518C261.727 122.453 270.823 131.549 270.823 142.758C270.823 153.967 261.735 163.063 250.518 163.063C248.199 163.063 245.972 162.665 243.892 161.948L243.704 161.884L243.522 161.966L234.351 166.122L235.155 156.254L235.173 156.047L235.038 155.889C232.023 152.349 230.207 147.767 230.207 142.751C230.207 131.61 239.184 122.558 250.306 122.448L250.311 122.453Z" fill="white" stroke="#2B2B2B"/>
<path d="M249.072 153.408C248.694 153.03 248.505 152.557 248.505 151.998C248.505 151.438 248.694 150.965 249.072 150.587C249.45 150.209 249.922 150.013 250.482 150.013C251.042 150.013 251.514 150.202 251.907 150.587C252.299 150.965 252.496 151.438 252.496 151.998C252.496 152.557 252.299 153.03 251.907 153.408C251.514 153.786 251.042 153.982 250.482 153.982C249.922 153.982 249.45 153.793 249.072 153.408ZM247.894 130.001H253.135L252.161 146.756H248.868L247.894 130.001Z" fill="#3369FF"/>
<path d="M70.0242 74.0207V54.2921C70.0242 51.9223 68.0833 49.9814 65.7136 49.9814H29.7528C27.3831 49.9814 25.4422 51.9223 25.4422 54.2921V79.1528C25.4422 81.5225 27.3831 83.4634 29.7528 83.4634H80.3974L70.0242 74.0207Z" fill="#2B2B2B"/>
<path d="M41.7253 63.9455C41.7253 65.8355 40.6276 67.3693 39.2683 67.3693C37.9089 67.3693 36.8113 65.8355 36.8113 63.9455C36.8113 62.0555 37.9089 60.5217 39.2683 60.5217C40.6276 60.5217 41.7253 62.0555 41.7253 63.9455Z" fill="white"/>
<path d="M58.0519 63.9455C58.0519 65.8355 56.9542 67.3693 55.5949 67.3693C54.2355 67.3693 53.1379 65.8355 53.1379 63.9455C53.1379 62.0555 54.2355 60.5217 55.5949 60.5217C56.9542 60.5217 58.0519 62.0555 58.0519 63.9455Z" fill="white"/>
<path d="M41.7979 73.5337C42.6412 72.6106 43.8115 71.8836 44.9746 71.4693C47.9259 70.408 50.7754 71.5202 53.0216 73.5337C53.6249 74.0717 54.5118 73.1848 53.9084 72.6469C51.4151 70.408 48.1876 69.0923 44.8728 70.1754C43.419 70.6479 41.9433 71.5056 40.9038 72.6469C40.3586 73.243 41.2455 74.1371 41.7907 73.5337H41.7979Z" fill="white"/>
</svg>
