<svg width="300" height="300" viewBox="0 0 300 300" fill="none" xmlns="http://www.w3.org/2000/svg">
<path d="M270.365 163.165L273.299 94.5591C273.299 94.5591 261.14 99.1472 253.49 92.0156L257.628 169.191L270.365 163.165Z" fill="white"/>
<path d="M257.657 169.66C257.57 169.663 257.485 169.639 257.412 169.592C257.341 169.553 257.282 169.497 257.239 169.428C257.196 169.36 257.171 169.281 257.168 169.2L253.059 92.0253C253.054 91.9276 253.078 91.8307 253.129 91.747C253.179 91.6633 253.254 91.5967 253.343 91.5557C253.431 91.514 253.529 91.5001 253.626 91.5158C253.722 91.5315 253.811 91.5762 253.881 91.6438C261.218 98.4916 273.065 94.1188 273.182 94.0796C273.257 94.0498 273.339 94.0395 273.419 94.0497C273.5 94.06 273.576 94.0905 273.642 94.1383C273.707 94.1869 273.76 94.2504 273.796 94.3236C273.831 94.3968 273.849 94.4776 273.847 94.559L270.912 163.165C270.908 163.254 270.879 163.34 270.829 163.415C270.779 163.489 270.71 163.548 270.629 163.585L257.911 169.611C257.834 169.655 257.745 169.672 257.657 169.66ZM254.037 93.121L258.078 168.447L269.817 162.861L272.751 95.2633C270.188 96.0655 260.885 98.4818 254.037 93.121Z" fill="#D9D9D9"/>
<path d="M274.077 95.2357C274.496 92.0425 270.409 88.8726 264.948 88.1555C259.487 87.4383 254.72 89.4456 254.3 92.6388C253.881 95.832 257.968 99.002 263.429 99.7191C268.89 100.436 273.657 98.4289 274.077 95.2357Z" fill="white"/>
<path d="M264.876 99.5092C264.223 99.513 263.569 99.4771 262.92 99.4016C257.05 98.7657 252.736 95.4885 253 91.9668C253.062 91.3528 253.249 90.7581 253.55 90.2196C253.852 89.681 254.261 89.2102 254.751 88.8363C256.796 87.1342 260.21 86.3711 263.908 86.782C269.778 87.4179 274.092 90.695 273.828 94.2168C273.766 94.8308 273.579 95.4255 273.277 95.964C272.976 96.5026 272.567 96.9734 272.076 97.3472C269.989 98.8594 267.452 99.6213 264.876 99.5092ZM262.059 87.6527C259.685 87.5432 257.343 88.2321 255.407 89.6092C255.018 89.8986 254.693 90.2652 254.452 90.686C254.211 91.1068 254.06 91.5728 254.008 92.0548C253.783 94.9896 257.843 97.8755 263.057 98.4527C266.442 98.8244 269.67 98.1201 271.48 96.6233C271.867 96.3304 272.191 95.9616 272.432 95.5395C272.672 95.1173 272.824 94.6507 272.879 94.1679C273.104 91.2331 269.044 88.2983 263.83 87.77C263.242 87.6973 262.651 87.6581 262.059 87.6527Z" fill="#D9D9D9"/>
<path d="M265.375 99.2842C265.246 99.3023 265.114 99.2682 265.009 99.1893C264.905 99.1104 264.836 98.9932 264.818 98.8635C264.799 98.7338 264.834 98.6022 264.912 98.4976C264.991 98.393 265.109 98.3241 265.238 98.3059C266.325 98.0001 267.349 97.5032 268.261 96.8385C268.731 96.5494 269.133 96.1618 269.439 95.7024C269.744 95.243 269.947 94.7228 270.032 94.1776C270.029 93.2502 269.68 92.3573 269.054 91.6733C268.51 91.03 267.841 90.504 267.087 90.1273C266.334 89.7505 265.512 89.531 264.671 89.482C263.001 89.4549 261.354 89.8808 259.907 90.7146C259.476 90.8773 259.089 91.1392 258.778 91.4791C258.467 91.819 258.24 92.2274 258.117 92.6711C258.076 93.0109 258.108 93.3554 258.209 93.6823C258.31 94.0092 258.478 94.3113 258.703 94.5689C259.158 95.0532 259.721 95.4221 260.347 95.645L260.582 95.7331L260.68 91.8885C260.681 91.807 260.703 91.7272 260.744 91.6569C260.785 91.5866 260.844 91.5282 260.914 91.4874C261.703 91.0059 262.592 90.7145 263.512 90.6364C264.433 90.5583 265.359 90.6956 266.217 91.0374C266.671 91.2041 267.08 91.4756 267.41 91.8298C267.731 92.2581 267.94 92.7601 268.017 93.29C268.094 93.8198 268.037 94.3605 267.85 94.8624C267.68 95.3195 267.419 95.7373 267.083 96.0904C266.747 96.4436 266.342 96.7247 265.894 96.9168C265.12 97.2463 264.276 97.3807 263.438 97.3081C262.24 97.2574 261.059 97.0027 259.946 96.5548C259.186 96.282 258.502 95.8327 257.95 95.2439C257.637 94.8774 257.404 94.45 257.264 93.9887C257.124 93.5274 257.081 93.0421 257.138 92.5635C257.273 91.9581 257.553 91.3944 257.953 90.9207C258.353 90.447 258.863 90.0775 259.437 89.8439C261.069 88.9189 262.924 88.462 264.798 88.5233C265.772 88.5794 266.723 88.8339 267.595 89.2713C268.466 89.7087 269.239 90.3197 269.865 91.0668C270.32 91.5258 270.661 92.0843 270.862 92.6982C271.064 93.3121 271.119 93.9644 271.024 94.6034C270.929 95.2424 270.686 95.8504 270.315 96.3793C269.945 96.9083 269.456 97.3435 268.887 97.6505C267.884 98.3832 266.757 98.9299 265.561 99.2646L265.375 99.2842ZM261.521 96.0852C262.161 96.2521 262.817 96.3472 263.477 96.3689C264.164 96.431 264.855 96.327 265.493 96.0657C265.814 95.9224 266.103 95.7161 266.344 95.459C266.584 95.2019 266.77 94.8993 266.892 94.5689C267.019 94.2295 267.062 93.8638 267.016 93.504C266.97 93.1442 266.837 92.8011 266.627 92.5048C266.404 92.267 266.125 92.0888 265.815 91.9863C265.139 91.7178 264.412 91.6005 263.685 91.6427C262.958 91.685 262.25 91.8857 261.609 92.2309L261.521 96.0852Z" fill="#D9D9D9"/>
<path d="M287.416 161.071L297.638 93.4928C297.638 93.4928 285.097 96.1635 278.259 87.9167L274.18 165.121L287.416 161.071Z" fill="white"/>
<path d="M274.18 165.581C274.07 165.579 273.963 165.542 273.877 165.473C273.814 165.426 273.764 165.363 273.731 165.292C273.699 165.22 273.685 165.141 273.691 165.062L277.77 87.8873C277.776 87.7893 277.811 87.6953 277.87 87.617C277.929 87.5387 278.01 87.4796 278.103 87.4471C278.198 87.4176 278.299 87.4167 278.395 87.4446C278.491 87.4724 278.576 87.5277 278.641 87.6036C285.205 95.5275 297.414 93.0427 297.531 93.0134C297.608 92.9949 297.689 92.9959 297.766 93.0164C297.843 93.0369 297.913 93.0762 297.971 93.1308C298.028 93.1858 298.071 93.2535 298.096 93.3283C298.122 93.4031 298.129 93.483 298.118 93.5612L287.905 161.149C287.89 161.24 287.85 161.325 287.79 161.394C287.729 161.463 287.65 161.514 287.562 161.541L274.317 165.561L274.18 165.581ZM278.69 89.1199L274.698 164.446L286.985 160.719L297.081 94.0895C294.41 94.4808 284.784 95.4003 278.69 89.1199Z" fill="#D9D9D9"/>
<path d="M297.624 93.546C298.575 90.4977 295.034 86.6823 289.717 85.024C284.399 83.3657 279.318 84.4924 278.367 87.5407C277.416 90.5889 280.957 94.4044 286.274 96.0627C291.592 97.721 296.673 96.5942 297.624 93.546Z" fill="white"/>
<path d="M291.094 97.3079C289.646 97.2981 288.205 97.0975 286.809 96.7112C281.106 95.1851 277.144 91.2721 277.78 87.8286C277.9 87.2389 278.144 86.6817 278.497 86.1942C278.849 85.7066 279.302 85.2999 279.824 85.0014C282.025 83.6123 285.518 83.3677 289.167 84.346C294.87 85.8818 298.832 89.7851 298.196 93.2384C298.072 93.8262 297.825 94.3815 297.473 94.8684C297.121 95.3553 296.671 95.7631 296.152 96.0656C294.613 96.9394 292.862 97.3695 291.094 97.3079ZM284.892 84.7373C283.305 84.6781 281.732 85.0536 280.343 85.8231C279.936 86.052 279.582 86.3649 279.306 86.741C279.029 87.1172 278.836 87.548 278.738 88.0047C278.2 90.9395 281.937 94.3927 287.064 95.7721C290.399 96.6721 293.686 96.4666 295.633 95.234C296.039 95.0063 296.392 94.6949 296.669 94.3205C296.945 93.9461 297.139 93.5172 297.237 93.0623C297.775 90.1275 294.039 86.6645 288.912 85.2949C287.602 84.9346 286.251 84.7472 284.892 84.7373Z" fill="#D9D9D9"/>
<path d="M289.255 96.9755C289.135 96.9743 289.02 96.9302 288.93 96.8512C288.84 96.7722 288.782 96.6635 288.766 96.5451C288.752 96.4157 288.789 96.2859 288.869 96.1836C288.95 96.0812 289.067 96.0144 289.196 95.9972C290.294 95.8688 291.359 95.5371 292.336 95.019C292.828 94.8072 293.266 94.4869 293.617 94.082C293.967 93.6771 294.222 93.1981 294.361 92.6809C294.457 91.7424 294.21 90.8009 293.667 90.0298C292.724 88.5719 291.244 87.5453 289.548 87.1733C287.907 86.8679 286.214 87.0237 284.657 87.6233C283.532 88.0146 282.886 88.6016 282.7 89.3157C282.629 89.6508 282.627 89.9966 282.692 90.3327C282.758 90.6689 282.89 90.9884 283.082 91.2722C283.487 91.8223 284.008 92.2765 284.608 92.6027L284.823 92.7201L285.322 88.9538C285.332 88.8685 285.365 88.7875 285.416 88.7188C285.468 88.6501 285.537 88.5962 285.616 88.5625C286.468 88.2105 287.39 88.0609 288.31 88.1254C289.23 88.1899 290.123 88.4667 290.918 88.9342C291.353 89.1682 291.726 89.5038 292.004 89.9125C292.276 90.3731 292.429 90.8948 292.448 91.4297C292.467 91.9647 292.351 92.4958 292.111 92.9744C291.897 93.3997 291.597 93.7759 291.23 94.0791C290.863 94.3822 290.437 94.6057 289.979 94.7353C289.163 94.9379 288.31 94.9379 287.494 94.7353C286.305 94.4966 285.164 94.0601 284.119 93.444C283.383 93.0515 282.75 92.4919 282.27 91.8103C281.997 91.4076 281.811 90.9531 281.721 90.4751C281.632 89.9971 281.642 89.5059 281.751 89.032C281.953 88.453 282.299 87.9347 282.755 87.5257C283.212 87.1167 283.766 86.8305 284.363 86.694C286.095 86.0263 287.979 85.8568 289.803 86.2048C291.753 86.637 293.457 87.8172 294.547 89.4918C295.221 90.4692 295.517 91.6583 295.379 92.8375C295.221 93.5076 294.909 94.1316 294.467 94.6598C294.025 95.188 293.467 95.6058 292.835 95.8799C291.753 96.452 290.577 96.8232 289.362 96.9755H289.255ZM285.723 93.1896C286.353 93.4577 287.009 93.6609 287.68 93.7962C288.348 93.9584 289.046 93.9584 289.714 93.7962C290.035 93.7014 290.333 93.5424 290.591 93.3288C290.848 93.1152 291.059 92.8515 291.211 92.5538C291.383 92.2317 291.473 91.8722 291.473 91.507C291.473 91.1419 291.383 90.7823 291.211 90.4603C291.018 90.179 290.755 89.9531 290.448 89.8049C289.824 89.436 289.127 89.2074 288.406 89.1348C287.685 89.0621 286.956 89.1472 286.271 89.3842L285.723 93.1896Z" fill="#D9D9D9"/>
<path d="M261.022 176.322L260.68 107.629C260.68 107.629 272.644 112.882 280.568 106.191L273.485 183.053L261.022 176.322Z" fill="white"/>
<path d="M273.485 183.542C273.403 183.543 273.322 183.523 273.25 183.483L260.787 176.753C260.71 176.713 260.646 176.653 260.601 176.578C260.556 176.504 260.532 176.419 260.533 176.332L260.191 107.629C260.191 107.547 260.211 107.467 260.251 107.395C260.29 107.323 260.347 107.262 260.416 107.218C260.488 107.179 260.568 107.159 260.65 107.159C260.732 107.159 260.813 107.179 260.885 107.218C260.993 107.218 272.624 112.276 280.245 105.858C280.321 105.797 280.413 105.759 280.51 105.748C280.607 105.738 280.705 105.756 280.793 105.799C280.877 105.847 280.947 105.917 280.993 106.001C281.04 106.086 281.062 106.182 281.057 106.279L273.964 183.141C273.959 183.222 273.933 183.301 273.888 183.37C273.844 183.438 273.782 183.494 273.71 183.532C273.637 183.554 273.56 183.558 273.485 183.542ZM261.511 176.039L273.064 182.28L279.971 107.277C273.006 112.295 263.82 109.36 261.179 108.382L261.511 176.039Z" fill="#D9D9D9"/>
<path d="M270.986 112.561C276.48 112.215 280.77 109.32 280.566 106.095C280.363 102.871 275.744 100.538 270.249 100.885C264.755 101.231 260.465 104.126 260.669 107.351C260.872 110.575 265.491 112.908 270.986 112.561Z" fill="white"/>
<path d="M269.885 113.097C266.569 113.097 263.595 112.119 261.795 110.515C261.318 110.115 260.928 109.623 260.647 109.068C260.366 108.513 260.201 107.907 260.161 107.286C260.034 103.745 264.515 100.712 270.365 100.439C274.062 100.233 277.447 101.192 279.423 102.992C279.898 103.393 280.288 103.885 280.569 104.44C280.849 104.994 281.015 105.6 281.057 106.22C281.184 109.703 276.606 112.794 270.854 113.068C270.534 113.087 270.211 113.097 269.885 113.097ZM271.304 101.358H270.413C265.19 101.642 261.032 104.293 261.14 107.228C261.179 107.716 261.315 108.191 261.54 108.626C261.765 109.061 262.075 109.447 262.45 109.761C264.211 111.366 267.41 112.246 270.795 112.06C276.029 111.777 280.186 109.126 280.079 106.191C280.039 105.702 279.902 105.225 279.675 104.79C279.448 104.355 279.136 103.97 278.758 103.657C277.163 102.209 274.356 101.348 271.304 101.348V101.358Z" fill="#D9D9D9"/>
<path d="M268.467 112.813C268.415 112.823 268.362 112.823 268.31 112.813C267.129 112.41 266.026 111.804 265.053 111.023C264.476 110.625 263.993 110.105 263.64 109.5C263.287 108.895 263.071 108.219 263.008 107.521C263.024 106.347 263.494 105.225 264.319 104.39C264.978 103.678 265.777 103.11 266.665 102.721C267.554 102.332 268.514 102.131 269.484 102.131C271.354 102.187 273.175 102.745 274.757 103.745C275.321 104.008 275.813 104.402 276.195 104.893C276.576 105.385 276.834 105.96 276.948 106.572C276.992 107.054 276.932 107.539 276.773 107.996C276.615 108.453 276.361 108.871 276.029 109.223C275.449 109.798 274.737 110.221 273.955 110.456C272.825 110.843 271.637 111.032 270.443 111.013C269.597 111.04 268.757 110.858 267.997 110.485C267.128 110.036 266.471 109.263 266.168 108.333C265.999 107.826 265.962 107.285 266.06 106.759C266.157 106.234 266.386 105.742 266.725 105.33C267.069 104.987 267.493 104.735 267.958 104.596C268.835 104.306 269.767 104.222 270.681 104.351C271.596 104.48 272.468 104.818 273.231 105.339C273.298 105.385 273.353 105.446 273.39 105.518C273.428 105.589 273.447 105.669 273.446 105.75V109.605L273.691 109.526C274.321 109.346 274.897 109.009 275.363 108.548C275.599 108.303 275.779 108.01 275.892 107.689C276.005 107.369 276.048 107.028 276.019 106.689C275.919 106.229 275.712 105.798 275.415 105.433C275.117 105.067 274.738 104.777 274.307 104.586C272.887 103.676 271.248 103.165 269.562 103.109C268.726 103.11 267.898 103.285 267.132 103.622C266.366 103.958 265.678 104.45 265.111 105.065C264.463 105.718 264.085 106.592 264.055 107.511C264.12 108.065 264.303 108.599 264.592 109.076C264.88 109.554 265.267 109.964 265.728 110.28C266.607 110.985 267.599 111.537 268.662 111.913C268.792 111.934 268.908 112.005 268.985 112.112C269.062 112.218 269.094 112.351 269.073 112.481C269.052 112.61 268.981 112.727 268.875 112.804C268.768 112.881 268.636 112.912 268.506 112.891L268.467 112.813ZM269.826 105.241C269.297 105.239 268.772 105.325 268.271 105.496C267.956 105.578 267.669 105.743 267.44 105.975C267.219 106.26 267.073 106.595 267.015 106.95C266.957 107.306 266.989 107.67 267.107 108.01C267.215 108.349 267.389 108.664 267.619 108.936C267.849 109.208 268.131 109.432 268.447 109.595C269.059 109.881 269.728 110.022 270.404 110.006C271.06 110.02 271.717 109.961 272.36 109.83L272.409 105.985C271.632 105.507 270.739 105.249 269.826 105.241Z" fill="#D9D9D9"/>
<path d="M282.162 233.883H2.27166C2.14194 233.883 2.01752 233.832 1.92579 233.74C1.83406 233.648 1.78253 233.524 1.78253 233.394C1.78253 233.264 1.83406 233.14 1.92579 233.048C2.01752 232.957 2.14194 232.905 2.27166 232.905H282.162C282.292 232.905 282.416 232.957 282.508 233.048C282.6 233.14 282.651 233.264 282.651 233.394C282.651 233.524 282.6 233.648 282.508 233.74C282.416 233.832 282.292 233.883 282.162 233.883Z" fill="#D9D9D9"/>
<path d="M248.618 147.444H296.484V229.295C296.479 231.731 295.51 234.065 293.789 235.788C292.067 237.511 289.734 238.483 287.298 238.491H257.843C255.399 238.491 253.055 237.52 251.327 235.792C249.598 234.063 248.628 231.72 248.628 229.275V147.444H248.618Z" fill="white"/>
<path d="M287.298 239H257.843C255.267 238.997 252.798 237.973 250.977 236.151C249.155 234.33 248.131 231.861 248.129 229.285V147.444C248.129 147.314 248.18 147.19 248.272 147.098C248.364 147.006 248.488 146.955 248.618 146.955H296.484C296.614 146.955 296.738 147.006 296.83 147.098C296.922 147.19 296.973 147.314 296.973 147.444V229.285C296.971 231.854 295.952 234.318 294.139 236.138C292.326 237.958 289.867 238.987 287.298 239ZM249.146 147.933V229.285C249.149 231.601 250.07 233.822 251.708 235.46C253.345 237.097 255.566 238.019 257.882 238.021H287.298C289.613 238.016 291.831 237.094 293.466 235.456C295.102 233.819 296.022 231.6 296.024 229.285V147.933H249.146Z" fill="#D9D9D9"/>
<path d="M23.1186 137.348H10.4892V212.009H23.1186V137.348Z" fill="white"/>
<path d="M23.1672 212.498H10.4498C10.3201 212.498 10.1957 212.447 10.104 212.355C10.0122 212.263 9.96069 212.139 9.96069 212.009V137.348C9.96069 137.218 10.0122 137.094 10.104 137.002C10.1957 136.91 10.3201 136.859 10.4498 136.859H23.1672C23.297 136.859 23.4214 136.91 23.5131 137.002C23.6048 137.094 23.6564 137.218 23.6564 137.348V212.009C23.6564 212.139 23.6048 212.263 23.5131 212.355C23.4214 212.447 23.297 212.498 23.1672 212.498ZM11.027 211.52H22.6292V137.837H10.9781L11.027 211.52Z" fill="#D9D9D9"/>
<path d="M39.8958 122.596H23.1186V197.257H39.8958V122.596Z" fill="white"/>
<path d="M39.8956 197.756H23.1674C23.0376 197.756 22.9132 197.705 22.8215 197.613C22.7298 197.521 22.6782 197.397 22.6782 197.267V122.596C22.6782 122.467 22.7298 122.342 22.8215 122.25C22.9132 122.159 23.0376 122.107 23.1674 122.107H39.8956C40.0254 122.107 40.1498 122.159 40.2415 122.25C40.3332 122.342 40.3848 122.467 40.3848 122.596V197.267C40.3848 197.397 40.3332 197.521 40.2415 197.613C40.1498 197.705 40.0254 197.756 39.8956 197.756ZM23.6076 196.778H39.4065V123.056H23.6076V196.778Z" fill="#D9D9D9"/>
<path d="M68.8719 128.583H39.8958V203.244H68.8719V128.583Z" fill="white"/>
<path d="M68.8718 203.733H39.8957C39.766 203.733 39.6415 203.682 39.5498 203.59C39.4581 203.498 39.4066 203.374 39.4066 203.244V128.583C39.4066 128.453 39.4581 128.329 39.5498 128.237C39.6415 128.146 39.766 128.094 39.8957 128.094H68.8718C69.0015 128.094 69.126 128.146 69.2177 128.237C69.3094 128.329 69.3609 128.453 69.3609 128.583V203.273C69.3535 203.398 69.2986 203.515 69.2077 203.601C69.1168 203.686 68.9966 203.733 68.8718 203.733ZM40.3848 202.755H68.3827V129.072H40.3848V202.755Z" fill="#D9D9D9"/>
<path d="M81.5992 177.682H1.48926V239.587H81.5992V177.682Z" fill="white"/>
<path d="M81.599 240.076H1.48913C1.35941 240.076 1.23499 240.024 1.14326 239.932C1.05153 239.841 1 239.716 1 239.586V177.682C1 177.552 1.05153 177.428 1.14326 177.336C1.23499 177.244 1.35941 177.193 1.48913 177.193H81.599C81.728 177.195 81.8509 177.248 81.9421 177.339C82.0333 177.43 82.0857 177.553 82.0882 177.682V239.586C82.0857 239.715 82.0333 239.838 81.9421 239.93C81.8509 240.021 81.728 240.073 81.599 240.076ZM1.97826 239.097H81.1099V178.171H1.97826V239.097Z" fill="#D9D9D9"/>
<path d="M32.5977 199.008H10.4498C10.3201 199.008 10.1957 198.956 10.104 198.865C10.0122 198.773 9.96069 198.649 9.96069 198.519V186.085C9.96069 185.955 10.0122 185.831 10.104 185.739C10.1957 185.647 10.3201 185.596 10.4498 185.596H32.5585C32.6883 185.596 32.8127 185.647 32.9044 185.739C32.9961 185.831 33.0477 185.955 33.0477 186.085V198.519C33.0481 198.642 33.002 198.761 32.9185 198.852C32.8351 198.942 32.7205 198.998 32.5977 199.008ZM10.9781 198.03H32.1085V186.574H10.9781V198.03Z" fill="#D9D9D9"/>
<path d="M16.1727 147.415C15.5675 147.411 14.9771 147.228 14.4759 146.888C13.9747 146.549 13.5853 146.069 13.3569 145.509C13.1284 144.948 13.0711 144.333 13.1923 143.74C13.3134 143.147 13.6076 142.603 14.0375 142.177C14.4675 141.751 15.014 141.462 15.6081 141.347C16.2021 141.232 16.8171 141.295 17.3753 141.529C17.9335 141.762 18.4099 142.156 18.7443 142.661C19.0787 143.165 19.2561 143.757 19.2542 144.362C19.2529 144.765 19.1721 145.164 19.0165 145.536C18.8608 145.907 18.6333 146.245 18.347 146.528C18.0607 146.812 17.7213 147.036 17.3482 147.188C16.9751 147.34 16.5756 147.417 16.1727 147.415ZM16.1727 142.279C15.7614 142.283 15.3605 142.408 15.0204 142.639C14.6804 142.871 14.4163 143.197 14.2616 143.579C14.1069 143.96 14.0684 144.378 14.151 144.781C14.2336 145.184 14.4336 145.553 14.7258 145.843C15.0179 146.132 15.3892 146.329 15.7929 146.407C16.1965 146.486 16.6145 146.444 16.9941 146.286C17.3737 146.127 17.698 145.86 17.9261 145.518C18.1542 145.176 18.2759 144.774 18.276 144.362C18.2747 144.088 18.2193 143.816 18.1129 143.562C18.0065 143.309 17.8512 143.078 17.6559 142.885C17.4606 142.692 17.2291 142.538 16.9746 142.434C16.7201 142.33 16.4476 142.277 16.1727 142.279Z" fill="#D9D9D9"/>
<path d="M31.5022 134.443C30.8962 134.443 30.3039 134.263 29.8001 133.926C29.2964 133.589 28.9039 133.11 28.6724 132.55C28.441 131.99 28.3809 131.374 28.4999 130.78C28.6188 130.186 28.9114 129.64 29.3406 129.212C29.7698 128.784 30.3163 128.494 30.9109 128.376C31.5055 128.259 32.1215 128.321 32.6808 128.555C33.2401 128.788 33.7177 129.182 34.0529 129.687C34.3882 130.192 34.5662 130.785 34.5642 131.391C34.5642 131.792 34.4849 132.19 34.3309 132.561C34.177 132.932 33.9513 133.269 33.6668 133.552C33.3823 133.836 33.0447 134.06 32.6733 134.213C32.3018 134.366 31.9039 134.444 31.5022 134.443ZM31.5022 129.307C31.0901 129.307 30.6873 129.429 30.3446 129.658C30.0019 129.887 29.7349 130.212 29.5772 130.593C29.4195 130.974 29.3782 131.393 29.4586 131.797C29.539 132.201 29.7374 132.573 30.0289 132.864C30.3203 133.155 30.6915 133.354 31.0957 133.434C31.4999 133.515 31.9189 133.473 32.2996 133.316C32.6804 133.158 33.0058 132.891 33.2348 132.548C33.4637 132.206 33.586 131.803 33.586 131.391C33.5872 131.117 33.5342 130.845 33.43 130.592C33.3257 130.338 33.1723 130.108 32.9785 129.914C32.7848 129.721 32.5546 129.567 32.3012 129.463C32.0478 129.359 31.7762 129.306 31.5022 129.307Z" fill="#D9D9D9"/>
<path d="M61.799 142.279H39.8957C39.766 142.279 39.6415 142.227 39.5498 142.135C39.4581 142.044 39.4066 141.919 39.4066 141.789C39.4066 141.66 39.4581 141.535 39.5498 141.444C39.6415 141.352 39.766 141.3 39.8957 141.3H61.799C61.9287 141.3 62.0531 141.352 62.1448 141.444C62.2366 141.535 62.2881 141.66 62.2881 141.789C62.2881 141.919 62.2366 142.044 62.1448 142.135C62.0531 142.227 61.9287 142.279 61.799 142.279Z" fill="#D9D9D9"/>
<path d="M39.8956 153.236H23.1674C23.0376 153.236 22.9132 153.184 22.8215 153.092C22.7298 153.001 22.6782 152.876 22.6782 152.746C22.6782 152.617 22.7298 152.492 22.8215 152.401C22.9132 152.309 23.0376 152.257 23.1674 152.257H39.8956C40.0254 152.257 40.1498 152.309 40.2415 152.401C40.3332 152.492 40.3848 152.617 40.3848 152.746C40.3848 152.876 40.3332 153.001 40.2415 153.092C40.1498 153.184 40.0254 153.236 39.8956 153.236Z" fill="#D9D9D9"/>
<path d="M229.532 76.2559H69.224C62.0329 76.2559 56.2034 82.0854 56.2034 89.2765V205.611C56.2034 212.803 62.0329 218.632 69.224 218.632H229.532C236.723 218.632 242.553 212.803 242.553 205.611V89.2765C242.553 82.0854 236.723 76.2559 229.532 76.2559Z" fill="white"/>
<path d="M229.581 219.121H69.224C65.6426 219.116 62.2093 217.691 59.6769 215.158C57.1444 212.626 55.7194 209.193 55.7142 205.611V89.2764C55.7194 85.695 57.1444 82.2617 59.6769 79.7292C62.2093 77.1968 65.6426 75.7718 69.224 75.7666H229.581C233.163 75.7692 236.598 77.1934 239.131 79.7264C241.664 82.2594 243.088 85.6942 243.091 89.2764V205.611C243.085 209.193 241.66 212.626 239.128 215.158C236.596 217.691 233.162 219.116 229.581 219.121ZM69.224 76.7449C65.9013 76.7475 62.7153 78.0686 60.3658 80.4181C58.0162 82.7677 56.6951 85.9536 56.6925 89.2764V205.611C56.6977 208.933 58.0196 212.118 60.3686 214.467C62.7176 216.816 65.9021 218.138 69.224 218.143H229.581C232.904 218.14 236.09 216.819 238.439 214.47C240.789 212.12 242.11 208.934 242.112 205.611V89.2764C242.11 85.9536 240.789 82.7677 238.439 80.4181C236.09 78.0686 232.904 76.7475 229.581 76.7449H69.224Z" fill="#2B2B2B"/>
<path d="M225.688 56.4688H83.9282V195H225.688V56.4688Z" fill="black"/>
<path d="M220.688 59.4688H78.9282V194.528H220.688V59.4688Z" fill="#3369FF"/>
<path d="M110 96H190" stroke="black" stroke-width="2" stroke-dasharray="4 4"/>
<path d="M110 136H190" stroke="black" stroke-width="2" stroke-dasharray="4 4"/>
<path d="M110 106H150H162.5M190 106H170" stroke="black" stroke-width="2"/>
<path d="M130 84H170" stroke="black" stroke-width="2"/>
<path d="M110 156H150H162.5M190 156H170" stroke="black" stroke-width="2"/>
<path d="M190 116L150 116L137.5 116M110 116L130 116" stroke="black" stroke-width="2"/>
<path d="M190 126L180 126M110 126L130 126M134.5 126L150 126L175 126" stroke="black" stroke-width="2"/>
<path d="M190 166L180 166M110 166L130 166M134.5 166L150 166H175" stroke="black" stroke-width="2"/>
<path d="M110 146H120M190 146H170M165.5 146L150 146L125 146" stroke="black" stroke-width="2"/>
<path fill-rule="evenodd" clip-rule="evenodd" d="M152.507 127.258L152.512 127.258C154.261 127.251 155.995 127.6 157.613 128.286C159.231 128.972 160.702 129.982 161.937 131.258L161.941 131.261C164.132 133.503 165.501 136.458 165.807 139.624C166.113 142.79 165.338 145.964 163.616 148.606C161.895 151.247 159.337 153.19 156.381 154.11C153.425 155.029 150.25 154.871 147.395 153.66C144.54 152.449 142.177 150.258 140.715 147.456C139.253 144.654 138.784 141.416 139.39 138.297C139.996 135.177 141.638 132.374 144.031 130.363C146.424 128.353 149.42 127.257 152.507 127.258ZM142.361 160.4C145.482 162.108 148.967 163.001 152.508 163C156.306 162.999 160.027 161.968 163.295 160.026L181.084 178.763L183.444 178.955C183.444 178.955 183.444 178.955 183.444 178.955C183.624 178.987 183.808 179.002 183.992 179L183.983 179.995L181.085 178.764C181.46 179.16 181.912 179.474 182.414 179.687C182.914 179.898 183.451 180.005 183.993 180C184.777 180.005 185.544 179.778 186.199 179.347C186.857 178.915 187.373 178.297 187.681 177.572C187.989 176.847 188.076 176.047 187.932 175.273C187.789 174.5 187.421 173.787 186.875 173.222L169.3 154.729C170.555 153.121 171.59 151.332 172.367 149.41C173.991 145.394 174.415 140.976 173.588 136.715C172.761 132.453 170.718 128.534 167.715 125.456C165.217 122.895 162.138 121.004 158.751 119.95C155.364 118.897 151.775 118.716 148.303 119.423C144.831 120.13 141.585 121.703 138.852 124.001C136.119 126.298 133.984 129.249 132.633 132.59C131.282 135.931 130.757 139.56 131.104 143.157C131.45 146.754 132.657 150.209 134.62 153.217C136.583 156.225 139.241 158.693 142.361 160.4ZM183.993 180L183.983 179.995L183.983 180L183.993 180Z" fill="white"/>
<path d="M242.866 195.222H55.8904C55.7607 195.222 55.6362 195.171 55.5445 195.079C55.4528 194.987 55.4012 194.863 55.4012 194.733C55.4037 194.604 55.4561 194.481 55.5473 194.39C55.6385 194.299 55.7614 194.247 55.8904 194.244H242.866C242.995 194.244 243.12 194.296 243.212 194.387C243.303 194.479 243.355 194.604 243.355 194.733C243.355 194.863 243.303 194.987 243.212 195.079C243.12 195.171 242.995 195.222 242.866 195.222Z" fill="#2B2B2B"/>
<path d="M149.383 210.043C151.852 210.043 153.854 208.042 153.854 205.572C153.854 203.103 151.852 201.102 149.383 201.102C146.914 201.102 144.912 203.103 144.912 205.572C144.912 208.042 146.914 210.043 149.383 210.043Z" fill="white"/>
<path d="M149.363 210.522C148.382 210.524 147.421 210.235 146.604 209.69C145.787 209.146 145.15 208.372 144.773 207.465C144.397 206.558 144.298 205.56 144.489 204.597C144.68 203.634 145.152 202.749 145.846 202.055C146.541 201.361 147.425 200.888 148.388 200.697C149.351 200.506 150.349 200.605 151.256 200.982C152.163 201.359 152.937 201.996 153.482 202.813C154.026 203.63 154.315 204.59 154.313 205.572C154.311 206.884 153.788 208.142 152.861 209.069C151.933 209.997 150.675 210.52 149.363 210.522ZM149.363 201.591C148.575 201.589 147.805 201.821 147.149 202.257C146.493 202.693 145.981 203.314 145.678 204.042C145.375 204.769 145.295 205.57 145.447 206.343C145.6 207.116 145.978 207.826 146.535 208.384C147.091 208.942 147.801 209.322 148.573 209.476C149.346 209.631 150.147 209.553 150.875 209.251C151.603 208.95 152.225 208.44 152.663 207.785C153.101 207.13 153.335 206.36 153.335 205.572C153.335 204.518 152.917 203.507 152.172 202.76C151.428 202.014 150.418 201.593 149.363 201.591Z" fill="#D9D9D9"/>
<path d="M183.123 239.459H115.643C113.589 239.459 111.925 241.124 111.925 243.177V243.734C111.925 245.787 113.589 247.452 115.643 247.452H183.123C185.176 247.452 186.84 245.787 186.84 243.734V243.177C186.84 241.124 185.176 239.459 183.123 239.459Z" fill="white"/>
<path d="M183.123 247.931H115.623C114.51 247.931 113.442 247.489 112.655 246.702C111.868 245.915 111.426 244.847 111.426 243.734V243.167C111.426 242.054 111.868 240.986 112.655 240.199C113.442 239.412 114.51 238.97 115.623 238.97H183.123C184.237 238.97 185.305 239.412 186.094 240.199C186.883 240.986 187.327 242.053 187.33 243.167V243.734C187.327 244.848 186.883 245.916 186.094 246.702C185.305 247.489 184.237 247.931 183.123 247.931ZM115.623 239.948C114.769 239.948 113.951 240.288 113.347 240.891C112.744 241.495 112.404 242.313 112.404 243.167V243.734C112.407 244.587 112.747 245.404 113.35 246.007C113.953 246.61 114.77 246.95 115.623 246.953H183.123C183.978 246.953 184.797 246.614 185.402 246.011C186.007 245.407 186.349 244.589 186.351 243.734V243.167C186.351 242.743 186.268 242.324 186.105 241.933C185.943 241.542 185.705 241.187 185.405 240.888C185.105 240.589 184.749 240.352 184.358 240.191C183.966 240.029 183.547 239.947 183.123 239.948H115.623Z" fill="#2B2B2B"/>
<path d="M174.925 239.586H123.831L127.343 218.622H171.413L174.925 239.586Z" fill="white"/>
<path d="M174.925 240.076H123.831C123.759 240.076 123.689 240.06 123.625 240.029C123.561 239.999 123.504 239.955 123.459 239.899C123.412 239.847 123.377 239.785 123.358 239.717C123.34 239.649 123.337 239.577 123.351 239.508L126.863 218.544C126.882 218.431 126.941 218.328 127.029 218.255C127.116 218.181 127.228 218.141 127.343 218.143H171.364C171.48 218.141 171.593 218.18 171.683 218.254C171.772 218.327 171.833 218.43 171.854 218.544L175.414 239.469C175.424 239.538 175.42 239.609 175.401 239.676C175.383 239.743 175.351 239.806 175.307 239.86C175.263 239.922 175.206 239.973 175.14 240.01C175.074 240.047 175.001 240.07 174.925 240.076ZM124.408 239.097H174.299L170.954 219.121H127.753L124.408 239.097Z" fill="#2B2B2B"/>
<path d="M125.591 229.109L172.118 222.789L171.413 218.622H127.343L125.591 229.109Z" fill="#525252"/>
<path d="M125.591 229.598C125.525 229.599 125.459 229.585 125.399 229.558C125.338 229.531 125.284 229.491 125.239 229.442C125.186 229.387 125.146 229.32 125.123 229.247C125.099 229.174 125.092 229.097 125.102 229.021L126.863 218.544C126.882 218.431 126.941 218.328 127.029 218.255C127.116 218.181 127.228 218.141 127.343 218.143H171.364C171.48 218.141 171.593 218.18 171.683 218.254C171.772 218.327 171.833 218.43 171.854 218.544L172.548 222.702C172.559 222.766 172.556 222.832 172.541 222.896C172.526 222.96 172.498 223.02 172.46 223.073C172.421 223.127 172.371 223.172 172.314 223.205C172.257 223.239 172.193 223.261 172.127 223.269L125.601 229.589L125.591 229.598ZM127.753 219.121L126.178 228.532L171.55 222.369L171.002 219.121H127.753Z" fill="#2B2B2B"/>
<path d="M108.638 73.9275C108.111 73.9108 107.602 73.7358 107.176 73.4251C106.75 73.1145 106.428 72.6828 106.251 72.1862C105.273 69.9362 103.649 63.7145 103.776 62.4036C103.923 60.8384 104.676 60.4471 105.116 60.4471C106.095 60.2905 107.073 61.2101 107.777 62.7068C108.502 65.1086 109.081 67.5522 109.509 70.0242C109.521 70.0885 109.52 70.1545 109.507 70.2185C109.494 70.2825 109.468 70.3433 109.431 70.3973C109.394 70.4514 109.347 70.4977 109.293 70.5335C109.238 70.5694 109.177 70.5941 109.113 70.6063C109.048 70.6185 108.982 70.6179 108.918 70.6046C108.854 70.5913 108.794 70.5656 108.739 70.5288C108.685 70.492 108.639 70.4449 108.603 70.3902C108.567 70.3356 108.543 70.2744 108.531 70.2101C108.106 67.8101 107.548 65.4357 106.858 63.0981C106.32 61.8558 105.576 61.3568 105.244 61.4155C104.911 61.4742 104.794 61.8851 104.735 62.5308C104.637 63.509 106.104 69.3786 107.132 71.8242C107.246 72.2104 107.502 72.539 107.849 72.7441C108.195 72.9491 108.607 73.0154 109 72.9297C110.096 72.6362 111.064 71.1492 110.751 68.4786C110.125 63.1568 107.024 56.1916 105.645 54.5873C105.459 54.3013 105.172 54.0967 104.842 54.0149C104.511 53.9331 104.161 53.9804 103.864 54.1471C102.886 54.734 102.348 56.6123 103.444 59.3318C103.468 59.3916 103.48 59.4555 103.48 59.5201C103.48 59.5846 103.467 59.6484 103.442 59.7079C103.417 59.7674 103.38 59.8214 103.334 59.8668C103.289 59.9123 103.234 59.9482 103.175 59.9726C103.115 59.997 103.051 60.0094 102.986 60.0091C102.922 60.0088 102.858 59.9958 102.798 59.9708C102.739 59.9458 102.685 59.9094 102.64 59.8635C102.594 59.8177 102.558 59.7633 102.534 59.7036C101.223 56.4264 102.006 54.1373 103.356 53.3155C103.85 53.0266 104.434 52.9316 104.994 53.0491C105.555 53.1666 106.051 53.4882 106.388 53.9514C108.051 55.9079 111.103 63.1177 111.72 68.3612C112.111 71.6188 110.741 73.4775 109.254 73.8786C109.052 73.9213 108.845 73.9378 108.638 73.9275Z" fill="#2B2B2B"/>
<path d="M291.123 154.233H280.47V161.873H291.123V154.233Z" fill="white"/>
<path d="M291.123 162.362H280.45C280.321 162.362 280.196 162.311 280.105 162.219C280.013 162.127 279.961 162.003 279.961 161.873V154.233C279.961 154.103 280.013 153.979 280.105 153.887C280.196 153.795 280.321 153.744 280.45 153.744H291.104C291.233 153.744 291.358 153.795 291.45 153.887C291.541 153.979 291.593 154.103 291.593 154.233V161.873C291.593 161.999 291.544 162.121 291.457 162.212C291.369 162.303 291.25 162.357 291.123 162.362ZM280.959 161.384H290.634V154.722H280.959V161.384Z" fill="#D9D9D9"/>
<path d="M41.5391 76.2559H13.5999V104.195H41.5391V76.2559Z" fill="white"/>
<path d="M41.539 104.684H13.5998C13.4708 104.682 13.3479 104.629 13.2567 104.538C13.1655 104.447 13.1132 104.324 13.1107 104.195V76.2557C13.1107 76.126 13.1622 76.0016 13.2539 75.9099C13.3456 75.8181 13.4701 75.7666 13.5998 75.7666H41.539C41.6687 75.7666 41.7931 75.8181 41.8848 75.9099C41.9766 76.0016 42.0281 76.126 42.0281 76.2557V104.195C42.0281 104.325 41.9766 104.449 41.8848 104.541C41.7931 104.632 41.6687 104.684 41.539 104.684ZM14.0889 103.706H41.0498V76.7449H14.0889V103.706Z" fill="#D9D9D9"/>
<path d="M36.8043 82.947H18.7358C18.6061 82.947 18.4817 82.8955 18.39 82.8037C18.2982 82.712 18.2467 82.5876 18.2467 82.4579C18.2467 82.3282 18.2982 82.2037 18.39 82.112C18.4817 82.0203 18.6061 81.9688 18.7358 81.9688H36.8043C36.9333 81.9713 37.0562 82.0236 37.1474 82.1148C37.2386 82.206 37.291 82.3289 37.2935 82.4579C37.2935 82.5876 37.2419 82.712 37.1502 82.8037C37.0585 82.8955 36.9341 82.947 36.8043 82.947Z" fill="#D9D9D9"/>
<path d="M36.8043 88.0046H18.7358C18.6061 88.0046 18.4817 87.9531 18.39 87.8614C18.2982 87.7696 18.2467 87.6452 18.2467 87.5155C18.2467 87.3858 18.2982 87.2614 18.39 87.1696C18.4817 87.0779 18.6061 87.0264 18.7358 87.0264H36.8043C36.9341 87.0264 37.0585 87.0779 37.1502 87.1696C37.2419 87.2614 37.2935 87.3858 37.2935 87.5155C37.291 87.6444 37.2386 87.7674 37.1474 87.8586C37.0562 87.9498 36.9333 88.0021 36.8043 88.0046Z" fill="#D9D9D9"/>
<path d="M36.8043 93.043H18.7358C18.6061 93.043 18.4817 92.9914 18.39 92.8997C18.2982 92.808 18.2467 92.6836 18.2467 92.5538C18.2467 92.4241 18.2982 92.2997 18.39 92.208C18.4817 92.1162 18.6061 92.0647 18.7358 92.0647H36.8043C36.9333 92.0672 37.0562 92.1195 37.1474 92.2107C37.2386 92.3019 37.291 92.4249 37.2935 92.5538C37.2935 92.6836 37.2419 92.808 37.1502 92.8997C37.0585 92.9914 36.9341 93.043 36.8043 93.043Z" fill="#D9D9D9"/>
<path d="M31.5021 98.0905H18.7847C18.7204 98.0932 18.6563 98.0831 18.596 98.0609C18.5356 98.0387 18.4802 98.0048 18.433 97.9612C18.3857 97.9176 18.3476 97.8651 18.3206 97.8067C18.2937 97.7483 18.2785 97.6852 18.276 97.621C18.276 97.4912 18.3275 97.3668 18.4193 97.2751C18.511 97.1834 18.6354 97.1318 18.7651 97.1318H31.4825C31.6123 97.1318 31.7367 97.1834 31.8284 97.2751C31.9201 97.3668 31.9717 97.4912 31.9717 97.621C31.9668 97.744 31.9158 97.8606 31.8288 97.9476C31.7417 98.0347 31.6251 98.0857 31.5021 98.0905Z" fill="#D9D9D9"/>
</svg>
