<svg width="306" height="308" viewBox="0 0 306 308" fill="none" xmlns="http://www.w3.org/2000/svg">
<g filter="url(#filter0_d_8307_1273)">

<path d="M273.365 163.165L276.299 94.5591C276.299 94.5591 264.14 99.1472 256.49 92.0156L260.628 169.191L273.365 163.165Z" fill="#F6F6F6"/>
<path d="M260.657 169.66C260.57 169.663 260.485 169.639 260.412 169.592C260.341 169.553 260.282 169.497 260.239 169.428C260.196 169.36 260.171 169.281 260.168 169.2L256.059 92.0253C256.054 91.9276 256.078 91.8307 256.129 91.747C256.179 91.6633 256.254 91.5967 256.343 91.5557C256.431 91.514 256.529 91.5001 256.626 91.5158C256.722 91.5315 256.811 91.5762 256.881 91.6438C264.218 98.4916 276.065 94.1188 276.182 94.0796C276.257 94.0498 276.339 94.0395 276.419 94.0497C276.5 94.06 276.576 94.0905 276.642 94.1383C276.707 94.1869 276.76 94.2504 276.796 94.3236C276.831 94.3968 276.849 94.4776 276.847 94.559L273.912 163.165C273.908 163.254 273.879 163.34 273.829 163.415C273.779 163.489 273.71 163.548 273.629 163.585L260.911 169.611C260.834 169.655 260.745 169.672 260.657 169.66ZM257.037 93.121L261.078 168.447L272.817 162.861L275.751 95.2633C273.188 96.0655 263.885 98.4818 257.037 93.121Z" fill="#737373"/>
<path d="M277.077 95.2357C277.496 92.0425 273.409 88.8726 267.948 88.1555C262.487 87.4383 257.72 89.4456 257.3 92.6388C256.881 95.832 260.968 99.002 266.429 99.7191C271.89 100.436 276.657 98.4289 277.077 95.2357Z" fill="#F6F6F6"/>
<path d="M267.876 99.5092C267.223 99.513 266.569 99.4771 265.92 99.4016C260.05 98.7657 255.736 95.4885 256 91.9668C256.062 91.3528 256.249 90.7581 256.55 90.2196C256.852 89.681 257.261 89.2102 257.751 88.8363C259.796 87.1342 263.21 86.3711 266.908 86.782C272.778 87.4179 277.092 90.695 276.828 94.2168C276.766 94.8308 276.579 95.4255 276.277 95.964C275.976 96.5026 275.567 96.9734 275.076 97.3472C272.989 98.8594 270.452 99.6213 267.876 99.5092ZM265.059 87.6527C262.685 87.5432 260.343 88.2321 258.407 89.6092C258.018 89.8986 257.693 90.2652 257.452 90.686C257.211 91.1068 257.06 91.5728 257.008 92.0548C256.783 94.9896 260.843 97.8755 266.057 98.4527C269.442 98.8244 272.67 98.1201 274.48 96.6233C274.867 96.3304 275.191 95.9616 275.432 95.5395C275.672 95.1173 275.824 94.6507 275.879 94.1679C276.104 91.2331 272.044 88.2983 266.83 87.77C266.242 87.6973 265.651 87.6581 265.059 87.6527Z" fill="#737373"/>
<path d="M268.375 99.2842C268.246 99.3023 268.114 99.2682 268.009 99.1893C267.905 99.1104 267.836 98.9932 267.818 98.8635C267.799 98.7338 267.834 98.6022 267.912 98.4976C267.991 98.393 268.109 98.3241 268.238 98.3059C269.325 98.0001 270.349 97.5032 271.261 96.8385C271.731 96.5494 272.133 96.1618 272.439 95.7024C272.744 95.243 272.947 94.7228 273.032 94.1776C273.029 93.2502 272.68 92.3573 272.054 91.6733C271.51 91.03 270.841 90.504 270.087 90.1273C269.334 89.7505 268.512 89.531 267.671 89.482C266.001 89.4549 264.354 89.8808 262.907 90.7146C262.476 90.8773 262.089 91.1392 261.778 91.4791C261.467 91.819 261.24 92.2274 261.117 92.6711C261.076 93.0109 261.108 93.3554 261.209 93.6823C261.31 94.0092 261.478 94.3113 261.703 94.5689C262.158 95.0532 262.721 95.4221 263.347 95.645L263.582 95.7331L263.68 91.8885C263.681 91.807 263.703 91.7272 263.744 91.6569C263.785 91.5866 263.844 91.5282 263.914 91.4874C264.703 91.0059 265.592 90.7145 266.512 90.6364C267.433 90.5583 268.359 90.6956 269.217 91.0374C269.671 91.2041 270.08 91.4756 270.41 91.8298C270.731 92.2581 270.94 92.7601 271.017 93.29C271.094 93.8198 271.037 94.3605 270.85 94.8624C270.68 95.3195 270.419 95.7373 270.083 96.0904C269.747 96.4436 269.342 96.7247 268.894 96.9168C268.12 97.2463 267.276 97.3807 266.438 97.3081C265.24 97.2574 264.059 97.0027 262.946 96.5548C262.186 96.282 261.502 95.8327 260.95 95.2439C260.637 94.8774 260.404 94.45 260.264 93.9887C260.124 93.5274 260.081 93.0421 260.138 92.5635C260.273 91.9581 260.553 91.3944 260.953 90.9207C261.353 90.447 261.863 90.0775 262.437 89.8439C264.069 88.9189 265.924 88.462 267.798 88.5233C268.772 88.5794 269.723 88.8339 270.595 89.2713C271.466 89.7087 272.239 90.3197 272.865 91.0668C273.32 91.5258 273.661 92.0843 273.862 92.6982C274.064 93.3121 274.119 93.9644 274.024 94.6034C273.929 95.2424 273.686 95.8504 273.315 96.3793C272.945 96.9083 272.456 97.3435 271.887 97.6505C270.884 98.3832 269.757 98.9299 268.561 99.2646L268.375 99.2842ZM264.521 96.0852C265.161 96.2521 265.817 96.3472 266.477 96.3689C267.164 96.431 267.855 96.327 268.493 96.0657C268.814 95.9224 269.103 95.7161 269.344 95.459C269.584 95.2019 269.77 94.8993 269.892 94.5689C270.019 94.2295 270.062 93.8638 270.016 93.504C269.97 93.1442 269.837 92.8011 269.627 92.5048C269.404 92.267 269.125 92.0888 268.815 91.9863C268.139 91.7178 267.412 91.6005 266.685 91.6427C265.958 91.685 265.25 91.8857 264.609 92.2309L264.521 96.0852Z" fill="#737373"/>
<path d="M290.416 161.071L300.638 93.4928C300.638 93.4928 288.097 96.1635 281.259 87.9167L277.18 165.121L290.416 161.071Z" fill="#F6F6F6"/>
<path d="M277.18 165.581C277.07 165.579 276.963 165.542 276.877 165.473C276.814 165.426 276.764 165.363 276.731 165.292C276.699 165.22 276.685 165.141 276.691 165.062L280.77 87.8873C280.776 87.7893 280.811 87.6953 280.87 87.617C280.929 87.5387 281.01 87.4796 281.103 87.4471C281.198 87.4176 281.299 87.4167 281.395 87.4446C281.491 87.4724 281.576 87.5277 281.641 87.6036C288.205 95.5275 300.414 93.0427 300.531 93.0134C300.608 92.9949 300.689 92.9959 300.766 93.0164C300.843 93.0369 300.913 93.0762 300.971 93.1308C301.028 93.1858 301.071 93.2535 301.096 93.3283C301.122 93.4031 301.129 93.483 301.118 93.5612L290.905 161.149C290.89 161.24 290.85 161.325 290.79 161.394C290.729 161.463 290.65 161.514 290.562 161.541L277.317 165.561L277.18 165.581ZM281.69 89.1199L277.698 164.446L289.985 160.719L300.081 94.0895C297.41 94.4808 287.784 95.4003 281.69 89.1199Z" fill="#737373"/>
<path d="M300.624 93.546C301.575 90.4977 298.034 86.6823 292.717 85.024C287.399 83.3657 282.318 84.4924 281.367 87.5407C280.416 90.5889 283.957 94.4044 289.274 96.0627C294.592 97.721 299.673 96.5942 300.624 93.546Z" fill="#F6F6F6"/>
<path d="M294.094 97.3079C292.646 97.2981 291.205 97.0975 289.809 96.7112C284.106 95.1851 280.144 91.2721 280.78 87.8286C280.9 87.2389 281.144 86.6817 281.497 86.1942C281.849 85.7066 282.302 85.2999 282.824 85.0014C285.025 83.6123 288.518 83.3677 292.167 84.346C297.87 85.8818 301.832 89.7851 301.196 93.2384C301.072 93.8262 300.825 94.3815 300.473 94.8684C300.121 95.3553 299.671 95.7631 299.152 96.0656C297.613 96.9394 295.862 97.3695 294.094 97.3079ZM287.892 84.7373C286.305 84.6781 284.732 85.0536 283.343 85.8231C282.936 86.052 282.582 86.3649 282.306 86.741C282.029 87.1172 281.836 87.548 281.738 88.0047C281.2 90.9395 284.937 94.3927 290.064 95.7721C293.399 96.6721 296.686 96.4666 298.633 95.234C299.039 95.0063 299.392 94.6949 299.669 94.3205C299.945 93.9461 300.139 93.5172 300.237 93.0623C300.775 90.1275 297.039 86.6645 291.912 85.2949C290.602 84.9346 289.251 84.7472 287.892 84.7373Z" fill="#737373"/>
<path d="M292.255 96.9755C292.135 96.9743 292.02 96.9302 291.93 96.8512C291.84 96.7722 291.782 96.6635 291.766 96.5451C291.752 96.4157 291.789 96.2859 291.869 96.1836C291.95 96.0812 292.067 96.0144 292.196 95.9972C293.294 95.8688 294.359 95.5371 295.336 95.019C295.828 94.8072 296.266 94.4869 296.617 94.082C296.967 93.6771 297.222 93.1981 297.361 92.6809C297.457 91.7424 297.21 90.8009 296.667 90.0298C295.724 88.5719 294.244 87.5453 292.548 87.1733C290.907 86.8679 289.214 87.0237 287.657 87.6233C286.532 88.0146 285.886 88.6016 285.7 89.3157C285.629 89.6508 285.627 89.9966 285.692 90.3327C285.758 90.6689 285.89 90.9884 286.082 91.2722C286.487 91.8223 287.008 92.2765 287.608 92.6027L287.823 92.7201L288.322 88.9538C288.332 88.8685 288.365 88.7875 288.416 88.7188C288.468 88.6501 288.537 88.5962 288.616 88.5625C289.468 88.2105 290.39 88.0609 291.31 88.1254C292.23 88.1899 293.123 88.4667 293.918 88.9342C294.353 89.1682 294.726 89.5038 295.004 89.9125C295.276 90.3731 295.429 90.8948 295.448 91.4297C295.467 91.9647 295.351 92.4958 295.111 92.9744C294.897 93.3997 294.597 93.7759 294.23 94.0791C293.863 94.3822 293.437 94.6057 292.979 94.7353C292.163 94.9379 291.31 94.9379 290.494 94.7353C289.305 94.4966 288.164 94.0601 287.119 93.444C286.383 93.0515 285.75 92.4919 285.27 91.8103C284.997 91.4076 284.811 90.9531 284.721 90.4751C284.632 89.9971 284.642 89.5059 284.751 89.032C284.953 88.453 285.299 87.9347 285.755 87.5257C286.212 87.1167 286.766 86.8305 287.363 86.694C289.095 86.0263 290.979 85.8568 292.803 86.2048C294.753 86.637 296.457 87.8172 297.547 89.4918C298.221 90.4692 298.517 91.6583 298.379 92.8375C298.221 93.5076 297.909 94.1316 297.467 94.6598C297.025 95.188 296.467 95.6058 295.835 95.8799C294.753 96.452 293.577 96.8232 292.362 96.9755H292.255ZM288.723 93.1896C289.353 93.4577 290.009 93.6609 290.68 93.7962C291.348 93.9584 292.046 93.9584 292.714 93.7962C293.035 93.7014 293.333 93.5424 293.591 93.3288C293.848 93.1152 294.059 92.8515 294.211 92.5538C294.383 92.2317 294.473 91.8722 294.473 91.507C294.473 91.1419 294.383 90.7823 294.211 90.4603C294.018 90.179 293.755 89.9531 293.448 89.8049C292.824 89.436 292.127 89.2074 291.406 89.1348C290.685 89.0621 289.956 89.1472 289.271 89.3842L288.723 93.1896Z" fill="#737373"/>
<path d="M264.022 176.322L263.68 107.629C263.68 107.629 275.644 112.882 283.568 106.191L276.485 183.053L264.022 176.322Z" fill="#F6F6F6"/>
<path d="M276.485 183.542C276.403 183.543 276.322 183.523 276.25 183.483L263.787 176.753C263.71 176.713 263.646 176.653 263.601 176.578C263.556 176.504 263.532 176.419 263.533 176.332L263.191 107.629C263.191 107.547 263.211 107.467 263.251 107.395C263.29 107.323 263.347 107.262 263.416 107.218C263.488 107.179 263.568 107.159 263.65 107.159C263.732 107.159 263.813 107.179 263.885 107.218C263.993 107.218 275.624 112.276 283.245 105.858C283.321 105.797 283.413 105.759 283.51 105.748C283.607 105.738 283.705 105.756 283.793 105.799C283.877 105.847 283.947 105.917 283.993 106.001C284.04 106.086 284.062 106.182 284.057 106.279L276.964 183.141C276.959 183.222 276.933 183.301 276.888 183.37C276.844 183.438 276.782 183.494 276.71 183.532C276.637 183.554 276.56 183.558 276.485 183.542ZM264.511 176.039L276.064 182.28L282.971 107.277C276.006 112.295 266.82 109.36 264.179 108.382L264.511 176.039Z" fill="#737373"/>
<path d="M273.986 112.561C279.48 112.215 283.77 109.32 283.566 106.095C283.363 102.871 278.744 100.538 273.249 100.885C267.755 101.231 263.465 104.126 263.669 107.351C263.872 110.575 268.491 112.908 273.986 112.561Z" fill="#F6F6F6"/>
<path d="M272.885 113.097C269.569 113.097 266.595 112.119 264.795 110.515C264.318 110.115 263.928 109.623 263.647 109.068C263.366 108.513 263.201 107.907 263.161 107.286C263.034 103.745 267.515 100.712 273.365 100.439C277.062 100.233 280.447 101.192 282.423 102.992C282.898 103.393 283.288 103.885 283.569 104.44C283.849 104.994 284.015 105.6 284.057 106.22C284.184 109.703 279.606 112.794 273.854 113.068C273.534 113.087 273.211 113.097 272.885 113.097ZM274.304 101.358H273.413C268.19 101.642 264.032 104.293 264.14 107.228C264.179 107.716 264.315 108.191 264.54 108.626C264.765 109.061 265.075 109.447 265.45 109.761C267.211 111.366 270.41 112.246 273.795 112.06C279.029 111.777 283.186 109.126 283.079 106.191C283.039 105.702 282.902 105.225 282.675 104.79C282.448 104.355 282.136 103.97 281.758 103.657C280.163 102.209 277.356 101.348 274.304 101.348V101.358Z" fill="#737373"/>
<path d="M271.467 112.813C271.415 112.823 271.362 112.823 271.31 112.813C270.129 112.41 269.026 111.804 268.053 111.023C267.476 110.625 266.993 110.105 266.64 109.5C266.287 108.895 266.071 108.219 266.008 107.521C266.024 106.347 266.494 105.225 267.319 104.39C267.978 103.678 268.777 103.11 269.665 102.721C270.554 102.332 271.514 102.131 272.484 102.131C274.354 102.187 276.175 102.745 277.757 103.745C278.321 104.008 278.813 104.402 279.195 104.893C279.576 105.385 279.834 105.96 279.948 106.572C279.992 107.054 279.932 107.539 279.773 107.996C279.615 108.453 279.361 108.871 279.029 109.223C278.449 109.798 277.737 110.221 276.955 110.456C275.825 110.843 274.637 111.032 273.443 111.013C272.597 111.04 271.757 110.858 270.997 110.485C270.128 110.036 269.471 109.263 269.168 108.333C268.999 107.826 268.962 107.285 269.06 106.759C269.157 106.234 269.386 105.742 269.725 105.33C270.069 104.987 270.493 104.735 270.958 104.596C271.835 104.306 272.767 104.222 273.681 104.351C274.596 104.48 275.468 104.818 276.231 105.339C276.298 105.385 276.353 105.446 276.39 105.518C276.428 105.589 276.447 105.669 276.446 105.75V109.605L276.691 109.526C277.321 109.346 277.897 109.009 278.363 108.548C278.599 108.303 278.779 108.01 278.892 107.689C279.005 107.369 279.048 107.028 279.019 106.689C278.919 106.229 278.712 105.798 278.415 105.433C278.117 105.067 277.738 104.777 277.307 104.586C275.887 103.676 274.248 103.165 272.562 103.109C271.726 103.11 270.898 103.285 270.132 103.622C269.366 103.958 268.678 104.45 268.111 105.065C267.463 105.718 267.085 106.592 267.055 107.511C267.12 108.065 267.303 108.599 267.592 109.076C267.88 109.554 268.267 109.964 268.728 110.28C269.607 110.985 270.599 111.537 271.662 111.913C271.792 111.934 271.908 112.005 271.985 112.112C272.062 112.218 272.094 112.351 272.073 112.481C272.052 112.61 271.981 112.727 271.875 112.804C271.768 112.881 271.636 112.912 271.506 112.891L271.467 112.813ZM272.826 105.241C272.297 105.239 271.772 105.325 271.271 105.496C270.956 105.578 270.669 105.743 270.44 105.975C270.219 106.26 270.073 106.595 270.015 106.95C269.957 107.306 269.989 107.67 270.107 108.01C270.215 108.349 270.389 108.664 270.619 108.936C270.849 109.208 271.131 109.432 271.447 109.595C272.059 109.881 272.728 110.022 273.404 110.006C274.06 110.02 274.717 109.961 275.36 109.83L275.409 105.985C274.632 105.507 273.739 105.249 272.826 105.241Z" fill="#737373"/>
<path d="M285.162 233.883H5.27166C5.14194 233.883 5.01752 233.832 4.92579 233.74C4.83406 233.648 4.78253 233.524 4.78253 233.394C4.78253 233.264 4.83406 233.14 4.92579 233.048C5.01752 232.957 5.14194 232.905 5.27166 232.905H285.162C285.292 232.905 285.416 232.957 285.508 233.048C285.6 233.14 285.651 233.264 285.651 233.394C285.651 233.524 285.6 233.648 285.508 233.74C285.416 233.832 285.292 233.883 285.162 233.883Z" fill="#737373"/>
<path d="M251.618 147.444H299.484V229.295C299.479 231.731 298.51 234.065 296.789 235.788C295.067 237.511 292.734 238.483 290.298 238.491H260.843C258.399 238.491 256.055 237.52 254.327 235.792C252.598 234.063 251.628 231.72 251.628 229.275V147.444H251.618Z" fill="#F6F6F6"/>
<path d="M290.298 239H260.843C258.267 238.997 255.798 237.973 253.977 236.151C252.155 234.33 251.131 231.861 251.129 229.285V147.444C251.129 147.314 251.18 147.19 251.272 147.098C251.364 147.006 251.488 146.955 251.618 146.955H299.484C299.614 146.955 299.738 147.006 299.83 147.098C299.922 147.19 299.973 147.314 299.973 147.444V229.285C299.971 231.854 298.952 234.318 297.139 236.138C295.326 237.958 292.867 238.987 290.298 239ZM252.146 147.933V229.285C252.149 231.601 253.07 233.822 254.708 235.46C256.345 237.097 258.566 238.019 260.882 238.021H290.298C292.613 238.016 294.831 237.094 296.466 235.456C298.102 233.819 299.022 231.6 299.024 229.285V147.933H252.146Z" fill="#737373"/>
<path d="M26.1186 137.348H13.4892V212.009H26.1186V137.348Z" fill="#F6F6F6"/>
<path d="M26.1672 212.498H13.4498C13.3201 212.498 13.1957 212.447 13.104 212.355C13.0122 212.263 12.9607 212.139 12.9607 212.009V137.348C12.9607 137.218 13.0122 137.094 13.104 137.002C13.1957 136.91 13.3201 136.859 13.4498 136.859H26.1672C26.297 136.859 26.4214 136.91 26.5131 137.002C26.6048 137.094 26.6564 137.218 26.6564 137.348V212.009C26.6564 212.139 26.6048 212.263 26.5131 212.355C26.4214 212.447 26.297 212.498 26.1672 212.498ZM14.027 211.52H25.6292V137.837H13.9781L14.027 211.52Z" fill="#737373"/>
<path d="M42.8958 122.596H26.1186V197.257H42.8958V122.596Z" fill="#F6F6F6"/>
<path d="M42.8956 197.756H26.1674C26.0376 197.756 25.9132 197.705 25.8215 197.613C25.7298 197.521 25.6782 197.397 25.6782 197.267V122.596C25.6782 122.467 25.7298 122.342 25.8215 122.25C25.9132 122.159 26.0376 122.107 26.1674 122.107H42.8956C43.0254 122.107 43.1498 122.159 43.2415 122.25C43.3332 122.342 43.3848 122.467 43.3848 122.596V197.267C43.3848 197.397 43.3332 197.521 43.2415 197.613C43.1498 197.705 43.0254 197.756 42.8956 197.756ZM26.6076 196.778H42.4065V123.056H26.6076V196.778Z" fill="#737373"/>
<path d="M71.8719 128.583H42.8958V203.244H71.8719V128.583Z" fill="#F6F6F6"/>
<path d="M71.8718 203.733H42.8957C42.766 203.733 42.6415 203.682 42.5498 203.59C42.4581 203.498 42.4066 203.374 42.4066 203.244V128.583C42.4066 128.453 42.4581 128.329 42.5498 128.237C42.6415 128.146 42.766 128.094 42.8957 128.094H71.8718C72.0015 128.094 72.126 128.146 72.2177 128.237C72.3094 128.329 72.3609 128.453 72.3609 128.583V203.273C72.3535 203.398 72.2986 203.515 72.2077 203.601C72.1168 203.686 71.9966 203.733 71.8718 203.733ZM43.3848 202.755H71.3827V129.072H43.3848V202.755Z" fill="#737373"/>
<path d="M84.5992 177.682H4.48926V239.587H84.5992V177.682Z" fill="#F6F6F6"/>
<path d="M84.599 240.076H4.48913C4.35941 240.076 4.23499 240.024 4.14326 239.932C4.05153 239.841 4 239.716 4 239.586V177.682C4 177.552 4.05153 177.428 4.14326 177.336C4.23499 177.244 4.35941 177.193 4.48913 177.193H84.599C84.728 177.195 84.8509 177.248 84.9421 177.339C85.0333 177.43 85.0857 177.553 85.0882 177.682V239.586C85.0857 239.715 85.0333 239.838 84.9421 239.93C84.8509 240.021 84.728 240.073 84.599 240.076ZM4.97826 239.097H84.1099V178.171H4.97826V239.097Z" fill="#737373"/>
<path d="M35.5977 199.008H13.4498C13.3201 199.008 13.1957 198.956 13.104 198.865C13.0122 198.773 12.9607 198.649 12.9607 198.519V186.085C12.9607 185.955 13.0122 185.831 13.104 185.739C13.1957 185.647 13.3201 185.596 13.4498 185.596H35.5585C35.6883 185.596 35.8127 185.647 35.9044 185.739C35.9961 185.831 36.0477 185.955 36.0477 186.085V198.519C36.0481 198.642 36.002 198.761 35.9185 198.852C35.8351 198.942 35.7205 198.998 35.5977 199.008ZM13.9781 198.03H35.1085V186.574H13.9781V198.03Z" fill="#737373"/>
<path d="M19.1727 147.415C18.5675 147.411 17.9771 147.228 17.4759 146.888C16.9747 146.549 16.5853 146.069 16.3569 145.509C16.1284 144.948 16.0711 144.333 16.1923 143.74C16.3134 143.147 16.6076 142.603 17.0375 142.177C17.4675 141.751 18.014 141.462 18.6081 141.347C19.2021 141.232 19.8171 141.295 20.3753 141.529C20.9335 141.762 21.4099 142.156 21.7443 142.661C22.0787 143.165 22.2561 143.757 22.2542 144.362C22.2529 144.765 22.1721 145.164 22.0165 145.536C21.8608 145.907 21.6333 146.245 21.347 146.528C21.0607 146.812 20.7213 147.036 20.3482 147.188C19.9751 147.34 19.5756 147.417 19.1727 147.415ZM19.1727 142.279C18.7614 142.283 18.3605 142.408 18.0204 142.639C17.6804 142.871 17.4163 143.197 17.2616 143.579C17.1069 143.96 17.0684 144.378 17.151 144.781C17.2336 145.184 17.4336 145.553 17.7258 145.843C18.0179 146.132 18.3892 146.329 18.7929 146.407C19.1965 146.486 19.6145 146.444 19.9941 146.286C20.3737 146.127 20.698 145.86 20.9261 145.518C21.1542 145.176 21.2759 144.774 21.276 144.362C21.2747 144.088 21.2193 143.816 21.1129 143.562C21.0065 143.309 20.8512 143.078 20.6559 142.885C20.4606 142.692 20.2291 142.538 19.9746 142.434C19.7201 142.33 19.4476 142.277 19.1727 142.279Z" fill="#737373"/>
<path d="M34.5022 134.443C33.8962 134.443 33.3039 134.263 32.8001 133.926C32.2964 133.589 31.9039 133.11 31.6724 132.55C31.441 131.99 31.3809 131.374 31.4999 130.78C31.6188 130.186 31.9114 129.64 32.3406 129.212C32.7698 128.784 33.3163 128.494 33.9109 128.376C34.5055 128.259 35.1215 128.321 35.6808 128.555C36.2401 128.788 36.7177 129.182 37.0529 129.687C37.3882 130.192 37.5662 130.785 37.5642 131.391C37.5642 131.792 37.4849 132.19 37.3309 132.561C37.177 132.932 36.9513 133.269 36.6668 133.552C36.3823 133.836 36.0447 134.06 35.6733 134.213C35.3018 134.366 34.9039 134.444 34.5022 134.443ZM34.5022 129.307C34.0901 129.307 33.6873 129.429 33.3446 129.658C33.0019 129.887 32.7349 130.212 32.5772 130.593C32.4195 130.974 32.3782 131.393 32.4586 131.797C32.539 132.201 32.7374 132.573 33.0289 132.864C33.3203 133.155 33.6915 133.354 34.0957 133.434C34.4999 133.515 34.9189 133.473 35.2996 133.316C35.6804 133.158 36.0058 132.891 36.2348 132.548C36.4637 132.206 36.586 131.803 36.586 131.391C36.5872 131.117 36.5342 130.845 36.43 130.592C36.3257 130.338 36.1723 130.108 35.9785 129.914C35.7848 129.721 35.5546 129.567 35.3012 129.463C35.0478 129.359 34.7762 129.306 34.5022 129.307Z" fill="#737373"/>
<path d="M64.799 142.279H42.8957C42.766 142.279 42.6415 142.227 42.5498 142.135C42.4581 142.044 42.4066 141.919 42.4066 141.789C42.4066 141.66 42.4581 141.535 42.5498 141.444C42.6415 141.352 42.766 141.3 42.8957 141.3H64.799C64.9287 141.3 65.0531 141.352 65.1448 141.444C65.2366 141.535 65.2881 141.66 65.2881 141.789C65.2881 141.919 65.2366 142.044 65.1448 142.135C65.0531 142.227 64.9287 142.279 64.799 142.279Z" fill="#737373"/>
<path d="M42.8956 153.236H26.1674C26.0376 153.236 25.9132 153.184 25.8215 153.092C25.7298 153.001 25.6782 152.876 25.6782 152.746C25.6782 152.617 25.7298 152.492 25.8215 152.401C25.9132 152.309 26.0376 152.257 26.1674 152.257H42.8956C43.0254 152.257 43.1498 152.309 43.2415 152.401C43.3332 152.492 43.3848 152.617 43.3848 152.746C43.3848 152.876 43.3332 153.001 43.2415 153.092C43.1498 153.184 43.0254 153.236 42.8956 153.236Z" fill="#737373"/>
<path d="M232.532 76.2559H72.224C65.0329 76.2559 59.2034 82.0854 59.2034 89.2765V205.611C59.2034 212.803 65.0329 218.632 72.224 218.632H232.532C239.723 218.632 245.553 212.803 245.553 205.611V89.2765C245.553 82.0854 239.723 76.2559 232.532 76.2559Z" fill="#F6F6F6"/>
<path d="M232.581 219.121H72.224C68.6426 219.116 65.2093 217.691 62.6769 215.158C60.1444 212.626 58.7194 209.193 58.7142 205.611V89.2764C58.7194 85.695 60.1444 82.2617 62.6769 79.7292C65.2093 77.1968 68.6426 75.7718 72.224 75.7666H232.581C236.163 75.7692 239.598 77.1934 242.131 79.7264C244.664 82.2594 246.088 85.6942 246.091 89.2764V205.611C246.085 209.193 244.66 212.626 242.128 215.158C239.596 217.691 236.162 219.116 232.581 219.121ZM72.224 76.7449C68.9013 76.7475 65.7153 78.0686 63.3658 80.4181C61.0162 82.7677 59.6951 85.9536 59.6925 89.2764V205.611C59.6977 208.933 61.0196 212.118 63.3686 214.467C65.7176 216.816 68.9021 218.138 72.224 218.143H232.581C235.904 218.14 239.09 216.819 241.439 214.47C243.789 212.12 245.11 208.934 245.112 205.611V89.2764C245.11 85.9536 243.789 82.7677 241.439 80.4181C239.09 78.0686 235.904 76.7475 232.581 76.7449H72.224Z" fill="black"/>
<path d="M228.688 56.4688H86.9282V195H228.688V56.4688Z" fill="black"/>
<path d="M223.688 59.4688H81.9282V194.528H223.688V59.4688Z" fill="#255DF9"/>
<path d="M113 96H193" stroke="black" stroke-width="2" stroke-dasharray="4 4"/>
<path d="M113 136H193" stroke="black" stroke-width="2" stroke-dasharray="4 4"/>
<path d="M113 106H153H165.5M193 106H173" stroke="black" stroke-width="2"/>
<path d="M133 84H173" stroke="black" stroke-width="2"/>
<path d="M113 156H153H165.5M193 156H173" stroke="black" stroke-width="2"/>
<path d="M193 116L153 116L140.5 116M113 116L133 116" stroke="black" stroke-width="2"/>
<path d="M193 126L183 126M113 126L133 126M137.5 126L153 126L178 126" stroke="black" stroke-width="2"/>
<path d="M193 166L183 166M113 166L133 166M137.5 166L153 166H178" stroke="black" stroke-width="2"/>
<path d="M113 146H123M193 146H173M168.5 146L153 146L128 146" stroke="black" stroke-width="2"/>
<path fill-rule="evenodd" clip-rule="evenodd" d="M155.507 127.258L155.512 127.258C157.261 127.251 158.995 127.6 160.613 128.286C162.231 128.972 163.702 129.982 164.937 131.258L164.941 131.261C167.132 133.503 168.501 136.458 168.807 139.624C169.113 142.79 168.338 145.964 166.616 148.606C164.895 151.247 162.337 153.19 159.381 154.11C156.425 155.029 153.25 154.871 150.395 153.66C147.54 152.449 145.177 150.258 143.715 147.456C142.253 144.654 141.784 141.416 142.39 138.297C142.996 135.177 144.638 132.374 147.031 130.363C149.424 128.353 152.42 127.257 155.507 127.258ZM145.361 160.4C148.482 162.108 151.967 163.001 155.508 163C159.306 162.999 163.027 161.968 166.295 160.026L184.084 178.763L186.444 178.955C186.444 178.955 186.444 178.955 186.444 178.955C186.624 178.987 186.808 179.002 186.992 179L186.983 179.995L184.085 178.764C184.46 179.16 184.912 179.474 185.414 179.687C185.914 179.898 186.451 180.005 186.993 180C187.777 180.005 188.544 179.778 189.199 179.347C189.857 178.915 190.373 178.297 190.681 177.572C190.989 176.847 191.076 176.047 190.932 175.273C190.789 174.5 190.421 173.787 189.875 173.222L172.3 154.729C173.555 153.121 174.59 151.332 175.367 149.41C176.991 145.394 177.415 140.976 176.588 136.715C175.761 132.453 173.718 128.534 170.715 125.456C168.217 122.895 165.138 121.004 161.751 119.95C158.364 118.897 154.775 118.716 151.303 119.423C147.831 120.13 144.585 121.703 141.852 124.001C139.119 126.298 136.984 129.249 135.633 132.59C134.282 135.931 133.757 139.56 134.104 143.157C134.45 146.754 135.657 150.209 137.62 153.217C139.583 156.225 142.241 158.693 145.361 160.4ZM186.993 180L186.983 179.995L186.983 180L186.993 180Z" fill="white"/>
<path d="M245.866 195.222H58.8904C58.7607 195.222 58.6362 195.171 58.5445 195.079C58.4528 194.987 58.4012 194.863 58.4012 194.733C58.4037 194.604 58.4561 194.481 58.5473 194.39C58.6385 194.299 58.7614 194.247 58.8904 194.244H245.866C245.995 194.244 246.12 194.296 246.212 194.387C246.303 194.479 246.355 194.604 246.355 194.733C246.355 194.863 246.303 194.987 246.212 195.079C246.12 195.171 245.995 195.222 245.866 195.222Z" fill="black"/>
<path d="M152.383 210.043C154.852 210.043 156.854 208.042 156.854 205.572C156.854 203.103 154.852 201.102 152.383 201.102C149.914 201.102 147.912 203.103 147.912 205.572C147.912 208.042 149.914 210.043 152.383 210.043Z" fill="#F6F6F6"/>
<path d="M152.363 210.522C151.382 210.524 150.421 210.235 149.604 209.69C148.787 209.146 148.15 208.372 147.773 207.465C147.397 206.558 147.298 205.56 147.489 204.597C147.68 203.634 148.152 202.749 148.846 202.055C149.541 201.361 150.425 200.888 151.388 200.697C152.351 200.506 153.349 200.605 154.256 200.982C155.163 201.359 155.937 201.996 156.482 202.813C157.026 203.63 157.315 204.59 157.313 205.572C157.311 206.884 156.788 208.142 155.861 209.069C154.933 209.997 153.675 210.52 152.363 210.522ZM152.363 201.591C151.575 201.589 150.805 201.821 150.149 202.257C149.493 202.693 148.981 203.314 148.678 204.042C148.375 204.769 148.295 205.57 148.447 206.343C148.6 207.116 148.978 207.826 149.535 208.384C150.091 208.942 150.801 209.322 151.573 209.476C152.346 209.631 153.147 209.553 153.875 209.251C154.603 208.95 155.225 208.44 155.663 207.785C156.101 207.13 156.335 206.36 156.335 205.572C156.335 204.518 155.917 203.507 155.172 202.76C154.428 202.014 153.418 201.593 152.363 201.591Z" fill="#737373"/>
<path d="M186.123 239.459H118.643C116.589 239.459 114.925 241.124 114.925 243.177V243.734C114.925 245.787 116.589 247.452 118.643 247.452H186.123C188.176 247.452 189.84 245.787 189.84 243.734V243.177C189.84 241.124 188.176 239.459 186.123 239.459Z" fill="#F6F6F6"/>
<path d="M186.123 247.931H118.623C117.51 247.931 116.442 247.489 115.655 246.702C114.868 245.915 114.426 244.847 114.426 243.734V243.167C114.426 242.054 114.868 240.986 115.655 240.199C116.442 239.412 117.51 238.97 118.623 238.97H186.123C187.237 238.97 188.305 239.412 189.094 240.199C189.883 240.986 190.327 242.053 190.33 243.167V243.734C190.327 244.848 189.883 245.916 189.094 246.702C188.305 247.489 187.237 247.931 186.123 247.931ZM118.623 239.948C117.769 239.948 116.951 240.288 116.347 240.891C115.744 241.495 115.404 242.313 115.404 243.167V243.734C115.407 244.587 115.747 245.404 116.35 246.007C116.953 246.61 117.77 246.95 118.623 246.953H186.123C186.978 246.953 187.797 246.614 188.402 246.011C189.007 245.407 189.349 244.589 189.351 243.734V243.167C189.351 242.743 189.268 242.324 189.105 241.933C188.943 241.542 188.705 241.187 188.405 240.888C188.105 240.589 187.749 240.352 187.358 240.191C186.966 240.029 186.547 239.947 186.123 239.948H118.623Z" fill="black"/>
<path d="M177.925 239.586H126.831L130.343 218.622H174.413L177.925 239.586Z" fill="#F6F6F6"/>
<path d="M177.925 240.076H126.831C126.759 240.076 126.689 240.06 126.625 240.029C126.561 239.999 126.504 239.955 126.459 239.899C126.412 239.847 126.377 239.785 126.358 239.717C126.34 239.649 126.337 239.577 126.351 239.508L129.863 218.544C129.882 218.431 129.941 218.328 130.029 218.255C130.116 218.181 130.228 218.141 130.343 218.143H174.364C174.48 218.141 174.593 218.18 174.683 218.254C174.772 218.327 174.833 218.43 174.854 218.544L178.414 239.469C178.424 239.538 178.42 239.609 178.401 239.676C178.383 239.743 178.351 239.806 178.307 239.86C178.263 239.922 178.206 239.973 178.14 240.01C178.074 240.047 178.001 240.07 177.925 240.076ZM127.408 239.097H177.299L173.954 219.121H130.753L127.408 239.097Z" fill="black"/>
<path d="M128.591 229.109L175.118 222.789L174.413 218.622H130.343L128.591 229.109Z" fill="#ECECEC"/>
<path d="M128.591 229.598C128.525 229.599 128.459 229.585 128.399 229.558C128.338 229.531 128.284 229.491 128.239 229.442C128.186 229.387 128.146 229.32 128.123 229.247C128.099 229.174 128.092 229.097 128.102 229.021L129.863 218.544C129.882 218.431 129.941 218.328 130.029 218.255C130.116 218.181 130.228 218.141 130.343 218.143H174.364C174.48 218.141 174.593 218.18 174.683 218.254C174.772 218.327 174.833 218.43 174.854 218.544L175.548 222.702C175.559 222.766 175.556 222.832 175.541 222.896C175.526 222.96 175.498 223.02 175.46 223.073C175.421 223.127 175.371 223.172 175.314 223.205C175.257 223.239 175.193 223.261 175.127 223.269L128.601 229.589L128.591 229.598ZM130.753 219.121L129.178 228.532L174.55 222.369L174.002 219.121H130.753Z" fill="black"/>
<path d="M111.638 73.9275C111.111 73.9108 110.602 73.7358 110.176 73.4251C109.75 73.1145 109.428 72.6828 109.251 72.1862C108.273 69.9362 106.649 63.7145 106.776 62.4036C106.923 60.8384 107.676 60.4471 108.116 60.4471C109.095 60.2905 110.073 61.2101 110.777 62.7068C111.502 65.1086 112.081 67.5522 112.509 70.0242C112.521 70.0885 112.52 70.1545 112.507 70.2185C112.494 70.2825 112.468 70.3433 112.431 70.3973C112.394 70.4514 112.347 70.4977 112.293 70.5335C112.238 70.5694 112.177 70.5941 112.113 70.6063C112.048 70.6185 111.982 70.6179 111.918 70.6046C111.854 70.5913 111.794 70.5656 111.739 70.5288C111.685 70.492 111.639 70.4449 111.603 70.3902C111.567 70.3356 111.543 70.2744 111.531 70.2101C111.106 67.8101 110.548 65.4357 109.858 63.0981C109.32 61.8558 108.576 61.3568 108.244 61.4155C107.911 61.4742 107.794 61.8851 107.735 62.5308C107.637 63.509 109.104 69.3786 110.132 71.8242C110.246 72.2104 110.502 72.539 110.849 72.7441C111.195 72.9491 111.607 73.0154 112 72.9297C113.096 72.6362 114.064 71.1492 113.751 68.4786C113.125 63.1568 110.024 56.1916 108.645 54.5873C108.459 54.3013 108.172 54.0967 107.842 54.0149C107.511 53.9331 107.161 53.9804 106.864 54.1471C105.886 54.734 105.348 56.6123 106.444 59.3318C106.468 59.3916 106.48 59.4555 106.48 59.5201C106.48 59.5846 106.467 59.6484 106.442 59.7079C106.417 59.7674 106.38 59.8214 106.334 59.8668C106.289 59.9123 106.234 59.9482 106.175 59.9726C106.115 59.997 106.051 60.0094 105.986 60.0091C105.922 60.0088 105.858 59.9958 105.798 59.9708C105.739 59.9458 105.685 59.9094 105.64 59.8635C105.594 59.8177 105.558 59.7633 105.534 59.7036C104.223 56.4264 105.006 54.1373 106.356 53.3155C106.85 53.0266 107.434 52.9316 107.994 53.0491C108.555 53.1666 109.051 53.4882 109.388 53.9514C111.051 55.9079 114.103 63.1177 114.72 68.3612C115.111 71.6188 113.741 73.4775 112.254 73.8786C112.052 73.9213 111.845 73.9378 111.638 73.9275Z" fill="black"/>
<path d="M294.123 154.233H283.47V161.873H294.123V154.233Z" fill="#F6F6F6"/>
<path d="M294.123 162.362H283.45C283.321 162.362 283.196 162.311 283.105 162.219C283.013 162.127 282.961 162.003 282.961 161.873V154.233C282.961 154.103 283.013 153.979 283.105 153.887C283.196 153.795 283.321 153.744 283.45 153.744H294.104C294.233 153.744 294.358 153.795 294.45 153.887C294.541 153.979 294.593 154.103 294.593 154.233V161.873C294.593 161.999 294.544 162.121 294.457 162.212C294.369 162.303 294.25 162.357 294.123 162.362ZM283.959 161.384H293.634V154.722H283.959V161.384Z" fill="#737373"/>
<path d="M44.5391 76.2559H16.5999V104.195H44.5391V76.2559Z" fill="#F6F6F6"/>
<path d="M44.539 104.684H16.5998C16.4708 104.682 16.3479 104.629 16.2567 104.538C16.1655 104.447 16.1132 104.324 16.1107 104.195V76.2557C16.1107 76.126 16.1622 76.0016 16.2539 75.9099C16.3456 75.8181 16.4701 75.7666 16.5998 75.7666H44.539C44.6687 75.7666 44.7931 75.8181 44.8848 75.9099C44.9766 76.0016 45.0281 76.126 45.0281 76.2557V104.195C45.0281 104.325 44.9766 104.449 44.8848 104.541C44.7931 104.632 44.6687 104.684 44.539 104.684ZM17.0889 103.706H44.0498V76.7449H17.0889V103.706Z" fill="#737373"/>
<path d="M39.8043 82.947H21.7358C21.6061 82.947 21.4817 82.8955 21.39 82.8037C21.2982 82.712 21.2467 82.5876 21.2467 82.4579C21.2467 82.3282 21.2982 82.2037 21.39 82.112C21.4817 82.0203 21.6061 81.9688 21.7358 81.9688H39.8043C39.9333 81.9713 40.0562 82.0236 40.1474 82.1148C40.2386 82.206 40.291 82.3289 40.2935 82.4579C40.2935 82.5876 40.2419 82.712 40.1502 82.8037C40.0585 82.8955 39.9341 82.947 39.8043 82.947Z" fill="#737373"/>
<path d="M39.8043 88.0046H21.7358C21.6061 88.0046 21.4817 87.9531 21.39 87.8614C21.2982 87.7696 21.2467 87.6452 21.2467 87.5155C21.2467 87.3858 21.2982 87.2614 21.39 87.1696C21.4817 87.0779 21.6061 87.0264 21.7358 87.0264H39.8043C39.9341 87.0264 40.0585 87.0779 40.1502 87.1696C40.2419 87.2614 40.2935 87.3858 40.2935 87.5155C40.291 87.6444 40.2386 87.7674 40.1474 87.8586C40.0562 87.9498 39.9333 88.0021 39.8043 88.0046Z" fill="#737373"/>
<path d="M39.8043 93.043H21.7358C21.6061 93.043 21.4817 92.9914 21.39 92.8997C21.2982 92.808 21.2467 92.6836 21.2467 92.5538C21.2467 92.4241 21.2982 92.2997 21.39 92.208C21.4817 92.1162 21.6061 92.0647 21.7358 92.0647H39.8043C39.9333 92.0672 40.0562 92.1195 40.1474 92.2107C40.2386 92.3019 40.291 92.4249 40.2935 92.5538C40.2935 92.6836 40.2419 92.808 40.1502 92.8997C40.0585 92.9914 39.9341 93.043 39.8043 93.043Z" fill="#737373"/>
<path d="M34.5021 98.0905H21.7847C21.7204 98.0932 21.6563 98.0831 21.596 98.0609C21.5356 98.0387 21.4802 98.0048 21.433 97.9612C21.3857 97.9176 21.3476 97.8651 21.3206 97.8067C21.2937 97.7483 21.2785 97.6852 21.276 97.621C21.276 97.4912 21.3275 97.3668 21.4193 97.2751C21.511 97.1834 21.6354 97.1318 21.7651 97.1318H34.4825C34.6123 97.1318 34.7367 97.1834 34.8284 97.2751C34.9201 97.3668 34.9717 97.4912 34.9717 97.621C34.9668 97.744 34.9158 97.8606 34.8288 97.9476C34.7417 98.0347 34.6251 98.0857 34.5021 98.0905Z" fill="#737373"/>
</g>
<defs>
<filter id="filter0_d_8307_1273" x="-1" y="0" width="308" height="308" filterUnits="userSpaceOnUse" color-interpolation-filters="sRGB">
<feFlood flood-opacity="0" result="BackgroundImageFix"/>
<feColorMatrix in="SourceAlpha" type="matrix" values="0 0 0 0 0 0 0 0 0 0 0 0 0 0 0 0 0 0 127 0" result="hardAlpha"/>
<feOffset dy="4"/>
<feGaussianBlur stdDeviation="2"/>
<feComposite in2="hardAlpha" operator="out"/>
<feColorMatrix type="matrix" values="0 0 0 0 0 0 0 0 0 0 0 0 0 0 0 0 0 0 0.25 0"/>
<feBlend mode="normal" in2="BackgroundImageFix" result="effect1_dropShadow_8307_1273"/>
<feBlend mode="normal" in="SourceGraphic" in2="effect1_dropShadow_8307_1273" result="shape"/>
</filter>
</defs>
</svg>
