<svg width="300" height="300" viewBox="0 0 300 300" fill="none" xmlns="http://www.w3.org/2000/svg">
<path d="M9 142.58H126C126.784 142.58 127.42 143.216 127.42 144V221C127.42 221.784 126.784 222.42 126 222.42H9C8.21576 222.42 7.58008 221.784 7.58008 221V144C7.58008 143.216 8.21576 142.58 9 142.58Z" fill="#F6F6F6" stroke="#808080" stroke-width="1.16" stroke-linecap="round" stroke-linejoin="round"/>
<path d="M123 134H12C9.23858 134 7 136.239 7 139V145H128V139C128 136.239 125.761 134 123 134Z" fill="#255DF9"/>
<path d="M16.9663 139.393C16.9663 140.796 15.825 141.937 14.4221 141.937C13.0191 141.937 11.8779 140.796 11.8779 139.393C11.8779 137.99 13.0191 136.849 14.4221 136.849C15.825 136.849 16.9663 137.99 16.9663 139.393Z" fill="#525252"/>
<path d="M25.5294 139.393C25.5294 140.796 24.3882 141.937 22.9852 141.937C21.5822 141.937 20.441 140.796 20.441 139.393C20.441 137.99 21.5822 136.849 22.9852 136.849C24.3882 136.849 25.5294 137.99 25.5294 139.393Z" fill="#737373"/>
<path d="M34.0926 139.393C34.0926 140.796 32.9513 141.937 31.5484 141.937C30.1454 141.937 29.0042 140.796 29.0042 139.393C29.0042 137.99 30.1454 136.849 31.5484 136.849C32.9513 136.849 34.0926 137.99 34.0926 139.393Z" fill="#737373"/>
<path d="M88.299 168.934L82.2292 162.857L67.6763 177.41L53.1233 162.857L47.0463 168.934L61.5992 183.48L47.0463 198.033L53.1233 204.11L67.6763 189.557L82.2292 204.11L88.299 198.033L73.746 183.48L88.299 168.934Z" fill="#737373"/>
<path d="M164 49.5801H281C281.784 49.5801 282.42 50.2158 282.42 51V128C282.42 128.784 281.784 129.42 281 129.42H164C163.216 129.42 162.58 128.784 162.58 128V51C162.58 50.2158 163.216 49.5801 164 49.5801Z" fill="#F6F6F6" stroke="#808080" stroke-width="1.16" stroke-linecap="round" stroke-linejoin="round"/>
<path d="M278 41H167C164.239 41 162 43.2386 162 46V52H283V46C283 43.2386 280.761 41 278 41Z" fill="#255DF9"/>
<path d="M170.327 46.0791C170.327 47.182 169.43 48.0791 168.327 48.0791C167.224 48.0791 166.327 47.182 166.327 46.0791C166.327 44.9762 167.224 44.0791 168.327 44.0791C169.43 44.0791 170.327 44.9762 170.327 46.0791Z" fill="#525252"/>
<path d="M178.897 46.0791C178.897 47.182 178 48.0791 176.897 48.0791C175.794 48.0791 174.897 47.182 174.897 46.0791C174.897 44.9762 175.794 44.0791 176.897 44.0791C178 44.0791 178.897 44.9762 178.897 46.0791Z" fill="#737373"/>
<path d="M187.46 46.0791C187.46 47.182 186.563 48.0791 185.46 48.0791C184.357 48.0791 183.46 47.182 183.46 46.0791C183.46 44.9762 184.357 44.0791 185.46 44.0791C186.563 44.0791 187.46 44.9762 187.46 46.0791Z" fill="#737373"/>
<path d="M242.748 76.165L236.678 70.0952L222.125 84.6409L207.572 70.0952L201.502 76.165L216.048 90.7179L201.502 105.271L207.572 111.341L222.125 96.7877L236.678 111.341L242.748 105.271L228.202 90.7179L242.748 76.165Z" fill="#737373"/>
<path d="M149.273 258.23C230.839 258.23 296.961 252.515 296.961 245.465C296.961 238.415 230.839 232.7 149.273 232.7C67.7071 232.7 1.58472 238.415 1.58472 245.465C1.58472 252.515 67.7071 258.23 149.273 258.23Z" fill="#D9D9D9"/>
<path d="M220.838 235.47C220.25 239.359 216.346 242.543 212.152 242.543H88.2191C84.032 242.543 80.0776 239.366 79.4379 235.484L58.9169 111.035C58.2772 107.154 61.1776 103.977 65.372 103.977H233.102C237.289 103.977 240.24 107.161 239.651 111.05L220.846 235.47H220.838Z" fill="#525252"/>
<path d="M198.1 71.5918C197.907 71.3952 197.909 71.0786 198.105 70.8848V70.8838L192.991 65.6963C192.819 65.8653 192.556 65.8851 192.363 65.7559L192.285 65.6914L189.525 62.8896H186.007L185.906 62.8799C185.71 62.8401 185.556 62.6858 185.516 62.4902L185.507 62.3896H179.053L179.042 62.4902C178.995 62.7181 178.794 62.8896 178.553 62.8896H171.098L170.998 62.8799C170.802 62.84 170.648 62.6858 170.608 62.4902L170.598 62.3896H164.144L164.135 62.4902C164.088 62.7182 163.886 62.8896 163.644 62.8896H156.19C155.949 62.8896 155.747 62.7182 155.7 62.4902L155.69 62.3896H149.236C149.236 62.6658 149.012 62.8896 148.736 62.8896H141.282L141.181 62.8799C140.954 62.8333 140.782 62.6313 140.782 62.3896H134.328C134.328 62.6658 134.104 62.8896 133.828 62.8896H126.374C126.098 62.8895 125.874 62.6657 125.874 62.3896H119.42C119.42 62.6658 119.196 62.8896 118.92 62.8896H111.466C111.19 62.8895 110.966 62.6657 110.966 62.3896H104.512C104.512 62.6658 104.288 62.8896 104.012 62.8896H96.5574C96.2815 62.8894 96.0574 62.6657 96.0574 62.3896H89.6033C89.6033 62.6658 89.3795 62.8896 89.1033 62.8896H85.8768V65.7314L85.867 65.832C85.8203 66.0598 85.6183 66.2314 85.3768 66.2314V71.9141C85.6529 71.9141 85.8768 72.1379 85.8768 72.4141V79.0967L85.867 79.1973C85.8204 79.4251 85.6184 79.5967 85.3768 79.5967V85.2793C85.6529 85.2793 85.8768 85.5032 85.8768 85.7793V92.4619L85.867 92.5625C85.8205 92.7904 85.6185 92.9619 85.3768 92.9619V98.6445C85.6529 98.6445 85.8768 98.8684 85.8768 99.1445V105.827C85.8768 106.103 85.6529 106.327 85.3768 106.327V112.01C85.6528 112.01 85.8767 112.234 85.8768 112.51V119.192C85.8768 119.469 85.6529 119.692 85.3768 119.692V125.375C85.6528 125.375 85.8766 125.599 85.8768 125.875V132.558C85.8768 132.834 85.6529 133.058 85.3768 133.058V138.741C85.6529 138.741 85.8768 138.965 85.8768 139.241V145.924L85.867 146.024C85.8204 146.252 85.6184 146.424 85.3768 146.424V152.106C85.6529 152.106 85.8768 152.33 85.8768 152.606V159.289L85.867 159.39C85.8204 159.618 85.6184 159.789 85.3768 159.789V165.472C85.6529 165.472 85.8768 165.696 85.8768 165.972V172.654C85.8768 172.93 85.6529 173.154 85.3768 173.154V178.837C85.6529 178.837 85.8767 179.061 85.8768 179.337V186.02C85.8768 186.296 85.6529 186.52 85.3768 186.52V192.202C85.6528 192.202 85.8766 192.426 85.8768 192.702V199.385C85.8768 199.661 85.6529 199.885 85.3768 199.885V205.568C85.6529 205.568 85.8768 205.792 85.8768 206.068V208.909H88.9217C89.1978 208.909 89.4216 209.133 89.4217 209.409H95.5115C95.5116 209.133 95.7355 208.909 96.0115 208.909H103.101C103.377 208.909 103.601 209.133 103.601 209.409H109.691C109.691 209.133 109.915 208.909 110.191 208.909H117.281C117.557 208.909 117.781 209.133 117.781 209.409H123.871C123.871 209.133 124.095 208.909 124.371 208.909H131.461C131.737 208.909 131.961 209.133 131.961 209.409H138.051C138.051 209.133 138.275 208.909 138.551 208.909H145.64C145.917 208.909 146.14 209.133 146.14 209.409H152.231C152.231 209.133 152.455 208.909 152.731 208.909H159.821C160.097 208.909 160.321 209.133 160.321 209.409H166.411C166.411 209.133 166.635 208.909 166.911 208.909H174.001C174.277 208.909 174.501 209.133 174.501 209.409H180.591C180.591 209.133 180.815 208.909 181.091 208.909H188.18C188.456 208.909 188.68 209.133 188.68 209.409H194.77C194.77 209.133 194.994 208.909 195.27 208.909H202.36C202.636 208.909 202.86 209.133 202.86 209.409H208.95C208.95 209.133 209.174 208.909 209.45 208.909H212.495V205.981C212.495 205.705 212.719 205.481 212.995 205.481V199.625C212.719 199.625 212.495 199.401 212.495 199.125V192.269C212.495 191.992 212.719 191.769 212.995 191.769V185.911C212.719 185.911 212.495 185.687 212.495 185.411V178.555C212.495 178.279 212.719 178.055 212.995 178.055V172.198C212.719 172.198 212.495 171.974 212.495 171.698V164.842C212.495 164.566 212.719 164.342 212.995 164.342V158.485C212.719 158.485 212.495 158.261 212.495 157.985V151.129C212.495 150.853 212.719 150.629 212.995 150.629V144.772C212.719 144.772 212.495 144.549 212.495 144.272V137.416C212.495 137.14 212.719 136.916 212.995 136.916V131.06C212.719 131.06 212.495 130.836 212.495 130.56V123.703C212.495 123.427 212.719 123.203 212.995 123.203V117.347C212.719 117.347 212.495 117.123 212.495 116.847V109.99C212.495 109.714 212.719 109.49 212.995 109.49V103.634C212.719 103.634 212.495 103.41 212.495 103.134V96.2773C212.495 96.0012 212.719 95.7773 212.995 95.7773V89.9209C212.719 89.9209 212.495 89.697 212.495 89.4209V86.1973L209.731 83.3936C209.537 83.1969 209.54 82.8804 209.736 82.6865V82.6855L204.622 77.498C204.425 77.6912 204.109 77.6887 203.916 77.4922L198.1 71.5918ZM198.1 71.5918L198.456 71.2402V71.2412H198.457L198.1 71.5918Z" fill="#D9D9D9" stroke="black" stroke-linecap="round" stroke-dasharray="7 7"/>
<path d="M211.962 85.3184H190.233V63.5957L211.962 85.3184Z" fill="#525252" stroke="#525252"/>
<path d="M184.609 108.884L174.206 98.4741L149.273 123.407L124.34 98.4741L113.93 108.884L138.864 133.81L113.93 158.743L124.34 169.153L149.273 144.219L174.206 169.153L184.609 158.743L159.675 133.81L184.609 108.884Z" fill="#737373"/>
<path d="M56.0892 120.236H141.103C142.623 120.236 144.217 120.833 145.552 121.818C146.887 122.804 147.927 124.151 148.373 125.604V125.604L153.157 141.109V141.11C153.681 142.804 154.87 144.316 156.343 145.402C157.816 146.488 159.611 147.176 161.383 147.176H161.883V147.16L242.355 147.045C245.334 147.045 247.374 149.425 246.907 152.369L232.629 242.457C232.151 245.464 229.25 247.945 226.203 247.945H78.9359C75.9802 247.945 73.1159 245.624 72.4564 242.749L72.3997 242.47L51.6458 125.537C51.1259 122.608 53.1077 120.236 56.0892 120.236Z" fill="#A0A0A0" stroke="black"/>
<path d="M140.674 201.479C140.674 196.928 142.484 193.381 146.096 190.837L147.834 189.63C149.484 188.561 150.632 187.682 151.279 186.984C151.926 186.293 152.253 185.436 152.253 184.411C152.253 181.823 150.087 180.529 145.762 180.529C143.756 180.529 141.677 180.798 139.54 181.336C137.402 181.874 135.367 182.63 133.448 183.611V173.303C137.555 171.428 142.149 170.49 147.238 170.49C152.726 170.49 157.08 171.639 160.286 173.936C163.499 176.233 165.105 179.41 165.105 183.473C165.105 185.748 164.589 187.587 163.564 188.998C162.539 190.401 160.795 191.978 158.345 193.715C156.695 194.922 155.488 195.845 154.732 196.492C153.976 197.139 153.402 197.866 153.024 198.666C152.646 199.473 152.457 200.454 152.457 201.61V202.882H140.674V201.479ZM142.047 217.507C140.863 216.323 140.274 214.861 140.274 213.124C140.274 211.387 140.863 209.868 142.047 208.704C143.225 207.541 144.715 206.967 146.496 206.967C148.277 206.967 149.724 207.556 150.945 208.741C152.173 209.926 152.784 211.387 152.784 213.124C152.784 214.861 152.166 216.323 150.945 217.507C149.716 218.692 148.234 219.281 146.496 219.281C144.759 219.281 143.225 218.692 142.047 217.507Z" fill="#3D3939"/>
<path d="M250.311 122.453H250.518C261.727 122.453 270.823 131.549 270.823 142.758C270.823 153.967 261.735 163.062 250.518 163.062C248.199 163.062 245.972 162.665 243.892 161.948L243.704 161.884L243.522 161.966L234.351 166.122L235.155 156.254L235.173 156.047L235.038 155.889C232.023 152.349 230.207 147.767 230.207 142.751C230.207 131.61 239.184 122.558 250.306 122.448L250.311 122.453Z" fill="#F6F6F6" stroke="#525252"/>
<path d="M249.072 153.408C248.694 153.03 248.505 152.557 248.505 151.998C248.505 151.438 248.694 150.965 249.072 150.587C249.45 150.209 249.922 150.013 250.482 150.013C251.042 150.013 251.514 150.202 251.907 150.587C252.299 150.965 252.496 151.438 252.496 151.998C252.496 152.557 252.299 153.03 251.907 153.408C251.514 153.786 251.042 153.982 250.482 153.982C249.922 153.982 249.45 153.793 249.072 153.408ZM247.894 130.001H253.135L252.161 146.756H248.868L247.894 130.001Z" fill="#255DF9"/>
<path d="M70.0242 74.0207V54.2921C70.0242 51.9223 68.0833 49.9814 65.7136 49.9814H29.7528C27.3831 49.9814 25.4422 51.9223 25.4422 54.2921V79.1528C25.4422 81.5225 27.3831 83.4634 29.7528 83.4634H80.3974L70.0242 74.0207Z" fill="#525252"/>
<path d="M41.7253 63.9453C41.7253 65.8353 40.6276 67.3691 39.2683 67.3691C37.9089 67.3691 36.8113 65.8353 36.8113 63.9453C36.8113 62.0553 37.9089 60.5215 39.2683 60.5215C40.6276 60.5215 41.7253 62.0553 41.7253 63.9453Z" fill="#F6F6F6"/>
<path d="M58.0519 63.9453C58.0519 65.8353 56.9542 67.3691 55.5949 67.3691C54.2355 67.3691 53.1379 65.8353 53.1379 63.9453C53.1379 62.0553 54.2355 60.5215 55.5949 60.5215C56.9542 60.5215 58.0519 62.0553 58.0519 63.9453Z" fill="#F6F6F6"/>
<path d="M41.7979 73.5337C42.6412 72.6106 43.8115 71.8836 44.9746 71.4693C47.9259 70.408 50.7754 71.5202 53.0216 73.5337C53.6249 74.0717 54.5118 73.1848 53.9084 72.6469C51.4151 70.408 48.1876 69.0923 44.8728 70.1754C43.419 70.6479 41.9433 71.5056 40.9038 72.6469C40.3586 73.243 41.2455 74.1371 41.7907 73.5337H41.7979Z" fill="#F6F6F6"/>
</svg>
