<svg width="300" height="300" viewBox="0 0 300 300" fill="none" xmlns="http://www.w3.org/2000/svg">
<g clip-path="url(#clip0_8304_417)">

<path d="M298.756 47.6194H298.673C291.228 46.6259 279.079 45.1537 277.751 45.3333C277.404 45.4769 277.296 45.4051 277.176 45.3333C277.073 45.2636 276.992 45.1655 276.943 45.0508C276.894 44.9361 276.88 44.8098 276.901 44.687C276.901 44.5194 276.973 44.3518 277.368 44.2561C278.182 43.9329 286.273 38.0083 291.168 34.3458C291.234 34.296 291.309 34.2606 291.39 34.2421C291.47 34.2235 291.554 34.2221 291.635 34.238C291.716 34.2513 291.793 34.2816 291.861 34.327C291.929 34.3724 291.986 34.4319 292.03 34.5014C296.446 41.5152 299.211 46.6858 299.283 46.7336C299.333 46.8249 299.358 46.9276 299.356 47.0316C299.354 47.1356 299.326 47.2373 299.272 47.3268C299.219 47.4162 299.144 47.4902 299.053 47.5415C298.963 47.5928 298.86 47.6196 298.756 47.6194ZM279.606 44.2202C282.215 44.3638 287.374 44.9263 297.619 46.2788C296.626 44.4955 294.388 40.5816 291.324 35.6983C284.932 40.4858 281.521 42.9634 279.642 44.2202H279.606Z" fill="#808080"/>
<path d="M111.298 261.086C111.195 261.084 111.094 261.057 111.005 261.007C110.915 260.957 110.839 260.885 110.783 260.799L103.722 249.021C103.651 248.901 103.624 248.76 103.646 248.623C103.668 248.485 103.737 248.359 103.841 248.267L113.608 239.434C113.699 239.352 113.814 239.299 113.936 239.284C114.058 239.27 114.182 239.292 114.29 239.35C114.397 239.409 114.484 239.499 114.54 239.608C114.595 239.717 114.617 239.84 114.602 239.961L111.897 260.535C111.881 260.661 111.827 260.778 111.741 260.87C111.655 260.963 111.542 261.026 111.418 261.05L111.298 261.086ZM105.002 248.83L110.987 258.704L113.261 241.409L105.002 248.83Z" fill="#808080"/>
<path d="M115.882 262.929L229.588 279.123C231.92 279.432 234.285 278.899 236.26 277.62C238.234 276.341 239.688 274.4 240.36 272.145L299.199 52.0358C300.396 47.4756 297.487 43.466 292.664 43.071L176.721 33.7233C174.429 33.6107 172.165 34.2717 170.294 35.6001C168.423 36.9286 167.053 38.8474 166.403 41.0483L109.946 253.881C109.653 254.868 109.579 255.908 109.729 256.927C109.879 257.947 110.249 258.921 110.814 259.782C111.38 260.644 112.126 261.372 113.001 261.915C113.876 262.458 114.86 262.805 115.882 262.929Z" fill="black"/>
<path d="M230.844 279.853C230.384 279.851 229.924 279.819 229.468 279.758L115.763 263.552C114.663 263.416 113.605 263.046 112.661 262.466C111.718 261.885 110.91 261.109 110.293 260.188C109.679 259.243 109.276 258.177 109.108 257.062C108.941 255.947 109.014 254.809 109.323 253.725L165.781 40.9288C166.471 38.591 167.925 36.5521 169.91 35.1376C171.896 33.723 174.298 33.0144 176.733 33.125L292.676 42.4728C293.851 42.5428 294.997 42.8708 296.031 43.4334C297.065 43.9961 297.963 44.7796 298.66 45.7283C299.302 46.6613 299.727 47.7256 299.905 48.8437C300.083 49.9618 300.01 51.1055 299.69 52.1916L240.85 272.301C240.21 274.465 238.893 276.366 237.092 277.726C235.29 279.085 233.101 279.831 230.844 279.853ZM115.942 262.367L229.647 278.573C231.84 278.865 234.064 278.367 235.922 277.167C237.78 275.967 239.15 274.144 239.785 272.026L298.577 51.9282C298.854 51.0111 298.922 50.0434 298.775 49.0966C298.628 48.1498 298.27 47.2482 297.727 46.4584C297.128 45.6456 296.355 44.9767 295.465 44.5004C294.574 44.0242 293.589 43.7526 292.58 43.7056L176.637 34.3219C174.482 34.2087 172.352 34.8268 170.592 36.076C168.832 37.3252 167.546 39.1322 166.942 41.2041L110.52 254.036C110.253 254.956 110.186 255.923 110.324 256.87C110.463 257.818 110.803 258.725 111.322 259.53C111.849 260.307 112.536 260.962 113.337 261.451C114.138 261.94 115.035 262.252 115.966 262.367H115.942Z" fill="#808080"/>
<path d="M108.486 250.817L222.191 267.011C224.522 267.314 226.886 266.779 228.859 265.501C230.832 264.223 232.287 262.285 232.963 260.033L291.79 39.9234C292.987 35.3632 290.079 31.3536 285.255 30.9587L169.288 21.6109C166.995 21.4998 164.731 22.1612 162.858 23.4892C160.985 24.8173 159.612 26.7351 158.959 28.9359L102.537 241.732C102.238 242.723 102.159 243.768 102.307 244.792C102.455 245.816 102.825 246.796 103.392 247.662C103.959 248.528 104.709 249.259 105.589 249.804C106.469 250.349 107.458 250.695 108.486 250.817Z" fill="#F6F6F6"/>
<path d="M223.447 267.717C222.987 267.715 222.527 267.683 222.071 267.621L108.366 251.415C107.266 251.28 106.208 250.909 105.265 250.329C104.321 249.749 103.513 248.972 102.896 248.052C102.282 247.106 101.877 246.04 101.71 244.925C101.543 243.81 101.617 242.673 101.926 241.589L158.396 28.7922C159.087 26.4567 160.542 24.4207 162.528 23.0102C164.513 21.5997 166.915 20.8962 169.348 21.0124L285.267 30.3602C286.453 30.4224 287.61 30.7466 288.655 31.3095C289.7 31.8725 290.607 32.6601 291.311 33.6157C291.95 34.5501 292.373 35.6143 292.551 36.7319C292.729 37.8494 292.657 38.9925 292.341 40.079L233.501 260.188C232.854 262.355 231.528 264.257 229.718 265.613C227.907 266.968 225.709 267.706 223.447 267.717ZM168.594 22.1854C166.557 22.2418 164.59 22.9398 162.974 24.18C161.358 25.4201 160.175 27.139 159.593 29.0915L103.123 241.888C102.856 242.808 102.789 243.774 102.928 244.722C103.066 245.67 103.406 246.577 103.925 247.382C104.452 248.158 105.139 248.813 105.94 249.302C106.741 249.791 107.638 250.104 108.569 250.218L222.274 266.424C224.461 266.708 226.677 266.205 228.528 265.006C230.378 263.806 231.742 261.989 232.376 259.877L291.18 39.7797C291.455 38.8623 291.521 37.895 291.374 36.9487C291.227 36.0023 290.87 35.1007 290.33 34.3099C289.73 33.4956 288.955 32.8257 288.062 32.3494C287.17 31.8731 286.182 31.6024 285.171 31.5571L169.24 22.2093L168.594 22.1854Z" fill="#808080"/>
<path d="M280.527 54.4059L161.831 44.1245L116.289 215.831L233.25 231.379L280.527 54.4059Z" fill="#255DF9"/>
<path d="M298 48.5C298 48.5 297.5 44 292.5 37.5C292.5 37.5 290.892 46.5865 291 46C291.5 45 298 48.5 298 48.5Z" fill="black"/>
<path d="M111.5 259.5L106 250.5L112.5 252L111.5 259.5Z" fill="black"/>
<path d="M228.463 207.716C228.349 207.717 228.237 207.684 228.142 207.623C228.046 207.561 227.97 207.473 227.924 207.369L203.986 156.752C203.952 156.681 203.932 156.604 203.928 156.524C203.924 156.445 203.935 156.366 203.962 156.291C203.989 156.217 204.03 156.148 204.083 156.09C204.137 156.031 204.201 155.984 204.273 155.951C204.416 155.885 204.579 155.878 204.727 155.932C204.875 155.986 204.996 156.096 205.063 156.238L229.001 206.867C229.035 206.937 229.055 207.014 229.059 207.092C229.063 207.17 229.051 207.249 229.024 207.322C228.998 207.396 228.956 207.463 228.903 207.521C228.85 207.578 228.785 207.624 228.714 207.657C228.635 207.693 228.55 207.714 228.463 207.716Z" fill="#F6F6F6"/>
<path d="M155.464 249.536L177.654 252.66C179.064 252.833 180.489 252.5 181.675 251.72C182.861 250.939 183.731 249.762 184.129 248.399L186.332 240.128C186.516 239.5 186.56 238.839 186.46 238.193C186.36 237.546 186.118 236.929 185.752 236.386C185.387 235.843 184.906 235.388 184.344 235.052C183.782 234.716 183.153 234.508 182.502 234.443L160.287 231.427C158.891 231.274 157.486 231.618 156.318 232.397C155.149 233.176 154.292 234.341 153.896 235.688L151.705 243.887C151.521 244.507 151.475 245.161 151.571 245.801C151.667 246.441 151.903 247.052 152.262 247.591C152.62 248.13 153.093 248.584 153.646 248.92C154.2 249.256 154.82 249.466 155.464 249.536Z" fill="#F6F6F6"/>
<path d="M178.396 253.354C178.12 253.358 177.844 253.338 177.571 253.294L155.38 250.182C154.653 250.098 153.953 249.857 153.329 249.474C152.705 249.092 152.172 248.578 151.768 247.968C151.363 247.358 151.096 246.667 150.986 245.944C150.876 245.22 150.926 244.481 151.131 243.779L153.309 235.58C153.745 234.092 154.692 232.804 155.984 231.946C157.276 231.088 158.83 230.713 160.371 230.888L182.586 233.893C183.324 233.98 184.036 234.225 184.672 234.611C185.308 234.997 185.854 235.515 186.272 236.131C186.671 236.745 186.935 237.438 187.044 238.163C187.153 238.887 187.106 239.627 186.906 240.332L184.728 248.567C184.33 249.941 183.499 251.15 182.358 252.012C181.217 252.875 179.827 253.346 178.396 253.354ZM155.548 248.997L177.738 252.109C179.001 252.263 180.278 251.964 181.341 251.265C182.404 250.565 183.184 249.512 183.543 248.291L185.757 240.021C185.91 239.479 185.947 238.911 185.864 238.354C185.782 237.797 185.582 237.263 185.279 236.789C184.952 236.318 184.529 235.922 184.038 235.627C183.547 235.332 182.999 235.145 182.43 235.077L160.204 232.073C158.952 231.93 157.691 232.233 156.642 232.929C155.593 233.626 154.824 234.671 154.47 235.879L152.292 244.09C152.128 244.629 152.086 245.196 152.167 245.753C152.249 246.31 152.453 246.842 152.764 247.311C153.075 247.78 153.486 248.174 153.967 248.466C154.448 248.757 154.988 248.939 155.548 248.997Z" fill="#525252"/>
<path d="M245.411 39.6481L211.503 36.8115C211.424 36.8044 211.348 36.7819 211.278 36.7453C211.208 36.7087 211.146 36.6587 211.095 36.5981C211.045 36.5376 211.006 36.4676 210.983 36.3923C210.959 36.317 210.951 36.2378 210.958 36.1592C210.965 36.0806 210.987 36.0042 211.024 35.9343C211.061 35.8644 211.111 35.8024 211.171 35.7518C211.232 35.7012 211.302 35.6631 211.377 35.6395C211.452 35.616 211.532 35.6075 211.61 35.6146L245.506 38.4393C245.665 38.4393 245.817 38.5023 245.93 38.6146C246.042 38.7268 246.105 38.879 246.105 39.0377C246.105 39.1964 246.042 39.3487 245.93 39.4609C245.817 39.5731 245.665 39.6362 245.506 39.6362L245.411 39.6481Z" fill="#737373"/>
<path d="M206.799 36.4166L202.298 36.0455C202.22 36.0396 202.144 36.018 202.074 35.982C202.004 35.9461 201.943 35.8965 201.892 35.8362C201.842 35.776 201.805 35.7062 201.782 35.6312C201.759 35.5561 201.752 35.4772 201.76 35.3992C201.775 35.2415 201.851 35.0959 201.972 34.9932C202.092 34.8904 202.248 34.8386 202.406 34.8486L206.894 35.2316C207.053 35.2316 207.205 35.2947 207.318 35.4069C207.43 35.5192 207.493 35.6714 207.493 35.8301C207.493 35.9888 207.43 36.141 207.318 36.2533C207.205 36.3655 207.053 36.4285 206.894 36.4285L206.799 36.4166Z" fill="#737373"/>
<path d="M240.096 149.152C240.096 149.152 254.675 101.085 242.035 90.4324L180.18 82.9877C180.18 82.9877 169.575 94.035 168.043 102.521C166.511 111.007 153.68 129.08 158.468 139.864L240.096 149.152Z" fill="black"/>
<path d="M240.096 149.751H240.037L158.396 140.451C158.294 140.438 158.196 140.4 158.112 140.339C158.028 140.279 157.961 140.198 157.917 140.104C154.602 132.611 159.449 121.803 163.351 113.114C165.278 108.829 166.942 105.119 167.421 102.414C168.965 93.8438 179.27 83.0239 179.713 82.569C179.777 82.5022 179.856 82.4513 179.943 82.4201C180.03 82.389 180.124 82.3785 180.216 82.3895L242.071 89.8462C242.185 89.8617 242.292 89.9071 242.382 89.9778C255.177 100.75 241.186 147.357 240.635 149.332C240.599 149.448 240.527 149.551 240.431 149.626C240.335 149.701 240.218 149.744 240.096 149.751ZM158.923 139.302L239.665 148.506C241.126 143.503 253.083 100.941 241.784 91.055L180.407 83.6582C178.947 85.2381 169.994 95.1005 168.63 102.677C168.115 105.526 166.427 109.296 164.476 113.652C160.79 121.947 156.086 132.3 158.923 139.302Z" fill="#808080"/>
<path d="M245.937 150.565H245.854L142.477 136.058C142.323 136.035 142.183 135.951 142.089 135.826C141.995 135.701 141.954 135.543 141.975 135.388C141.996 135.231 142.078 135.089 142.204 134.992C142.329 134.896 142.488 134.853 142.645 134.873L246.021 149.38C246.179 149.404 246.321 149.488 246.418 149.616C246.514 149.743 246.556 149.904 246.536 150.062C246.511 150.203 246.437 150.33 246.328 150.422C246.218 150.514 246.08 150.564 245.937 150.565Z" fill="#808080"/>
<path d="M242.035 90.4325C242.035 90.4325 235.764 91.2942 231.922 104.34C226.045 124.305 218.301 166.435 213.406 182.282C206.224 205.335 187.074 208.614 187.074 208.614L106.104 196.873C106.104 196.873 139.054 185.454 144.62 166.04C150.473 145.586 158.576 106.938 160.766 98.3081C164.632 83.0237 180.216 83.0237 180.216 83.0237L242.035 90.4325Z" fill="#F6F6F6"/>
<path d="M187.038 209.177H186.954L105.984 197.435C105.851 197.415 105.728 197.351 105.635 197.253C105.542 197.156 105.484 197.03 105.469 196.896C105.456 196.763 105.488 196.63 105.56 196.517C105.631 196.404 105.738 196.319 105.864 196.274C106.199 196.166 138.599 184.724 144.009 165.837C148.067 151.654 153.273 128.458 156.709 113.102C158.253 106.22 159.473 100.774 160.144 98.1285C164.081 82.5688 180.024 82.3893 180.18 82.3893L242.107 89.8459C242.251 89.8633 242.384 89.9324 242.481 90.0402C242.578 90.1481 242.632 90.2875 242.634 90.4324C242.633 90.577 242.58 90.7164 242.486 90.826C242.392 90.9356 242.262 91.0082 242.119 91.0309C242.023 91.0309 236.135 92.1201 232.544 104.508C229.564 114.61 226.129 130.361 222.789 145.597C219.534 160.523 216.446 174.622 214.028 182.462C210.294 194.539 203.256 201.157 197.918 204.581C194.646 206.772 190.992 208.331 187.146 209.177H187.038ZM108.438 196.585L187.026 207.98C188.426 207.692 206.176 203.731 212.831 182.103C215.225 174.311 218.325 160.235 221.58 145.346C224.908 130.086 228.367 114.311 231.347 104.173C233.873 95.615 237.439 92.2038 239.725 90.7556L180.108 83.5742C179.557 83.5742 165.015 83.7777 161.305 98.4277C160.646 101.049 159.426 106.483 157.882 113.365C154.434 128.733 149.228 151.953 145.158 166.172C142.226 176.382 131.789 184.341 123.543 189.212C118.7 192.045 113.65 194.51 108.438 196.585Z" fill="#808080"/>
<path d="M203.112 183.682H203.04L192.089 182.486C191.932 182.468 191.789 182.388 191.69 182.265C191.591 182.142 191.545 181.984 191.562 181.827C191.57 181.749 191.593 181.673 191.63 181.604C191.667 181.535 191.718 181.474 191.78 181.424C191.841 181.375 191.912 181.339 191.988 181.318C192.063 181.296 192.142 181.291 192.22 181.301L203.184 182.498C203.341 182.516 203.484 182.595 203.583 182.718C203.682 182.842 203.728 182.999 203.711 183.156C203.691 183.301 203.619 183.434 203.509 183.53C203.399 183.627 203.259 183.681 203.112 183.682Z" fill="#737373"/>
<path d="M183.256 181.433H183.184L150.401 177.71C150.244 177.692 150.101 177.613 150.002 177.49C149.903 177.366 149.857 177.209 149.874 177.052C149.882 176.974 149.905 176.898 149.942 176.828C149.979 176.759 150.03 176.698 150.092 176.649C150.153 176.6 150.224 176.564 150.3 176.542C150.375 176.521 150.455 176.515 150.533 176.525L183.328 180.236C183.486 180.245 183.635 180.317 183.74 180.436C183.846 180.555 183.9 180.711 183.89 180.87C183.881 181.029 183.808 181.177 183.689 181.283C183.57 181.388 183.414 181.442 183.256 181.433Z" fill="#737373"/>
<path d="M193.322 196.19H193.25L183.184 194.993C183.105 194.984 183.029 194.959 182.96 194.92C182.891 194.881 182.831 194.829 182.782 194.767C182.733 194.705 182.697 194.634 182.675 194.558C182.654 194.481 182.648 194.402 182.657 194.323C182.667 194.244 182.692 194.168 182.73 194.099C182.769 194.03 182.821 193.97 182.883 193.921C182.946 193.872 183.017 193.836 183.093 193.814C183.169 193.793 183.249 193.787 183.328 193.796L193.393 194.993C193.472 194.998 193.549 195.018 193.62 195.053C193.691 195.087 193.754 195.135 193.806 195.194C193.858 195.253 193.898 195.321 193.924 195.396C193.95 195.47 193.961 195.549 193.956 195.628C193.951 195.706 193.931 195.783 193.897 195.854C193.862 195.925 193.814 195.988 193.755 196.04C193.696 196.093 193.628 196.133 193.553 196.158C193.479 196.184 193.4 196.195 193.322 196.19Z" fill="#737373"/>
<path d="M172.029 193.773H171.957L140.61 190.182C140.452 190.164 140.306 190.085 140.206 189.96C140.106 189.836 140.06 189.676 140.078 189.518C140.095 189.359 140.175 189.214 140.299 189.114C140.424 189.014 140.583 188.968 140.742 188.985L172.101 192.576C172.257 192.594 172.401 192.673 172.5 192.796C172.598 192.92 172.644 193.077 172.627 193.234C172.61 193.381 172.54 193.517 172.429 193.616C172.319 193.715 172.177 193.771 172.029 193.773Z" fill="#737373"/>
<path d="M187.038 208.578C182.301 204.202 178.659 198.775 176.403 192.734C174.148 186.692 173.342 180.206 174.052 173.796L89.0719 158.464C89.0719 158.464 96.361 186.914 106.056 196.837L187.038 208.578Z" fill="#F6F6F6"/>
<path d="M187.038 209.177H186.954L105.984 197.435C105.853 197.413 105.731 197.35 105.637 197.256C95.942 187.333 88.7965 159.781 88.4973 158.608C88.4726 158.511 88.4728 158.41 88.4979 158.314C88.523 158.218 88.5722 158.129 88.6409 158.057C88.7088 157.981 88.795 157.923 88.8913 157.89C88.9877 157.856 89.091 157.848 89.1915 157.866L174.171 173.198C174.318 173.23 174.448 173.314 174.536 173.436C174.625 173.557 174.665 173.707 174.65 173.856C173.979 180.168 174.784 186.549 177.003 192.496C179.221 198.443 182.792 203.793 187.433 208.123C187.533 208.199 187.606 208.305 187.641 208.425C187.677 208.545 187.673 208.674 187.63 208.791C187.587 208.909 187.508 209.01 187.403 209.079C187.299 209.149 187.175 209.183 187.05 209.177H187.038ZM106.355 196.274L185.254 207.716C180.974 203.336 177.696 198.078 175.648 192.306C173.6 186.534 172.831 180.386 173.393 174.287L89.8977 159.218C91.2382 164.114 97.9169 187.453 106.355 196.274Z" fill="#808080"/>
<path d="M220.695 109.092H220.635L167.971 103.107C167.892 103.1 167.815 103.077 167.745 103.039C167.674 103 167.613 102.948 167.564 102.886C167.514 102.823 167.478 102.751 167.458 102.674C167.437 102.597 167.433 102.516 167.445 102.437C167.463 102.28 167.542 102.137 167.665 102.038C167.789 101.94 167.946 101.894 168.103 101.911L220.766 107.895C220.925 107.903 221.074 107.974 221.181 108.091C221.287 108.209 221.343 108.365 221.335 108.523C221.327 108.682 221.256 108.831 221.138 108.938C221.021 109.044 220.865 109.1 220.707 109.092H220.695Z" fill="#737373"/>
<path d="M218.492 122.641H218.421L208.534 121.516C208.456 121.507 208.38 121.482 208.311 121.443C208.242 121.404 208.181 121.352 208.132 121.29C208.083 121.228 208.047 121.156 208.026 121.08C208.004 121.004 207.998 120.924 208.008 120.846C208.017 120.767 208.042 120.691 208.081 120.622C208.119 120.553 208.171 120.493 208.234 120.444C208.296 120.395 208.367 120.359 208.443 120.337C208.52 120.316 208.599 120.31 208.678 120.319L218.552 121.432C218.631 121.436 218.708 121.456 218.779 121.489C218.85 121.523 218.914 121.57 218.967 121.629C219.019 121.687 219.06 121.755 219.087 121.829C219.113 121.903 219.125 121.982 219.121 122.061C219.117 122.139 219.097 122.216 219.064 122.287C219.03 122.358 218.983 122.422 218.924 122.475C218.866 122.528 218.798 122.569 218.724 122.595C218.65 122.621 218.571 122.633 218.492 122.629V122.641Z" fill="#737373"/>
<path d="M197.535 120.259L165.841 116.668C165.682 116.651 165.537 116.571 165.437 116.447C165.337 116.322 165.291 116.163 165.308 116.004C165.326 115.845 165.406 115.7 165.53 115.6C165.655 115.5 165.814 115.454 165.973 115.472L197.666 119.062C197.745 119.067 197.822 119.087 197.893 119.121C197.963 119.156 198.027 119.204 198.079 119.263C198.131 119.322 198.171 119.39 198.197 119.465C198.223 119.539 198.234 119.618 198.229 119.697C198.224 119.775 198.204 119.852 198.17 119.923C198.135 119.994 198.087 120.057 198.028 120.109C197.969 120.161 197.901 120.202 197.826 120.227C197.752 120.253 197.673 120.264 197.595 120.259H197.535Z" fill="#737373"/>
<path d="M215.237 135.268H215.165L198.875 133.425C198.717 133.404 198.574 133.322 198.476 133.197C198.377 133.072 198.332 132.913 198.349 132.755C198.37 132.597 198.451 132.453 198.577 132.355C198.702 132.257 198.861 132.211 199.019 132.228L215.297 134.083C215.375 134.091 215.451 134.114 215.52 134.151C215.589 134.188 215.65 134.239 215.7 134.301C215.749 134.362 215.785 134.433 215.806 134.509C215.828 134.584 215.833 134.664 215.823 134.742C215.806 134.885 215.737 135.018 215.629 135.115C215.521 135.212 215.382 135.266 215.237 135.268Z" fill="#737373"/>
<path d="M183.256 131.642H183.184L162.525 129.248C162.447 129.239 162.371 129.215 162.301 129.177C162.232 129.139 162.171 129.088 162.122 129.026C162.072 128.964 162.035 128.893 162.013 128.818C161.991 128.742 161.984 128.662 161.993 128.583C162.002 128.505 162.026 128.429 162.064 128.359C162.102 128.29 162.153 128.229 162.215 128.18C162.276 128.13 162.347 128.093 162.423 128.071C162.499 128.049 162.579 128.042 162.657 128.051L183.328 130.385C183.485 130.406 183.629 130.488 183.727 130.613C183.826 130.738 183.871 130.897 183.854 131.055C183.848 131.211 183.783 131.358 183.672 131.467C183.56 131.576 183.412 131.639 183.256 131.642Z" fill="#737373"/>
<path d="M212.46 147.225H212.388L198.803 145.633C198.645 145.612 198.502 145.531 198.404 145.405C198.305 145.28 198.26 145.121 198.277 144.963C198.3 144.807 198.383 144.665 198.507 144.567C198.632 144.469 198.789 144.423 198.947 144.437L212.52 145.981C212.678 145.988 212.828 146.059 212.934 146.177C213.041 146.295 213.096 146.45 213.088 146.609C213.08 146.768 213.01 146.917 212.892 147.023C212.774 147.13 212.619 147.185 212.46 147.177V147.225Z" fill="#737373"/>
<path d="M184.381 144.042H184.309L159.737 141.253C159.58 141.235 159.436 141.155 159.338 141.032C159.239 140.909 159.193 140.752 159.21 140.595C159.231 140.437 159.313 140.293 159.438 140.195C159.563 140.097 159.722 140.051 159.88 140.068L184.441 142.857C184.599 142.857 184.752 142.92 184.864 143.032C184.976 143.144 185.039 143.296 185.039 143.455C185.039 143.614 184.976 143.766 184.864 143.878C184.752 143.991 184.599 144.054 184.441 144.054L184.381 144.042Z" fill="#737373"/>
<path d="M209.575 160.463L197.523 159.098C197.366 159.08 197.222 159.001 197.124 158.878C197.025 158.755 196.979 158.597 196.996 158.44C197.003 158.362 197.026 158.286 197.064 158.217C197.101 158.147 197.152 158.086 197.213 158.037C197.275 157.988 197.346 157.952 197.421 157.931C197.497 157.909 197.576 157.904 197.654 157.914L209.707 159.278C209.866 159.288 210.014 159.36 210.12 159.479C210.225 159.598 210.279 159.754 210.27 159.912C210.26 160.071 210.188 160.22 210.069 160.325C209.95 160.431 209.794 160.484 209.635 160.475L209.575 160.463Z" fill="#737373"/>
<path d="M190.006 158.249H189.934L156.864 154.49C156.707 154.472 156.564 154.393 156.465 154.27C156.366 154.146 156.321 153.989 156.337 153.832C156.345 153.754 156.368 153.678 156.405 153.608C156.443 153.539 156.494 153.478 156.555 153.429C156.616 153.38 156.687 153.344 156.763 153.322C156.838 153.301 156.918 153.295 156.996 153.305L190.066 157.052C190.225 157.06 190.374 157.13 190.48 157.248C190.587 157.366 190.642 157.521 190.634 157.68C190.627 157.839 190.556 157.988 190.438 158.094C190.32 158.201 190.165 158.257 190.006 158.249Z" fill="#737373"/>
<path d="M206.535 171.175H206.464L192.101 169.547C191.944 169.529 191.801 169.45 191.702 169.327C191.603 169.203 191.557 169.046 191.574 168.889C191.582 168.811 191.605 168.735 191.642 168.666C191.679 168.596 191.73 168.535 191.792 168.486C191.853 168.437 191.924 168.401 192 168.38C192.075 168.358 192.154 168.353 192.233 168.363L206.595 169.99C206.754 170 206.902 170.072 207.008 170.191C207.113 170.31 207.167 170.466 207.158 170.625C207.148 170.783 207.076 170.932 206.957 171.037C206.838 171.143 206.682 171.197 206.523 171.187L206.535 171.175Z" fill="#737373"/>
<path d="M185.674 168.817L153.884 165.226C153.725 165.209 153.58 165.129 153.48 165.005C153.38 164.88 153.334 164.721 153.351 164.562C153.369 164.403 153.449 164.258 153.573 164.158C153.698 164.058 153.857 164.012 154.016 164.029L185.805 167.62C185.964 167.63 186.112 167.702 186.218 167.821C186.323 167.94 186.377 168.096 186.368 168.255C186.358 168.413 186.286 168.562 186.167 168.667C186.048 168.773 185.892 168.827 185.733 168.817H185.674Z" fill="#737373"/>
<path d="M20.3658 91.0353L47.8416 150.092C50.1169 154.982 55.9261 157.103 60.8167 154.827L151.442 112.664C156.332 110.389 158.452 104.58 156.177 99.6893L128.701 40.6328C126.426 35.7422 120.617 33.6221 115.726 35.8974L25.1012 78.0603C20.2106 80.3356 18.0905 86.1447 20.3658 91.0353Z" fill="#F6F6F6"/>
<path d="M56.7196 156.405C54.7442 156.408 52.8093 155.846 51.1426 154.786C49.4758 153.726 48.1468 152.211 47.312 150.421L19.7833 91.3661C18.6256 88.8741 18.5048 86.0243 19.4475 83.4433C20.3901 80.8622 22.3191 78.7611 24.8103 77.6018L115.439 35.4351C117.931 34.2774 120.781 34.1566 123.362 35.0992C125.943 36.0419 128.044 37.9708 129.204 40.462L156.672 99.5169C157.248 100.75 157.574 102.084 157.634 103.443C157.693 104.803 157.484 106.16 157.018 107.439C156.552 108.717 155.839 109.891 154.919 110.893C153.999 111.896 152.891 112.707 151.657 113.281L61.0284 155.448C59.6783 156.075 58.2082 156.402 56.7196 156.405ZM119.844 35.5907C118.513 35.5916 117.198 35.8815 115.99 36.4405L25.3609 78.6071C23.159 79.6337 21.4546 81.4923 20.622 83.7746C19.7894 86.0569 19.8968 88.5763 20.9204 90.7796L48.449 149.846C49.478 152.049 51.3388 153.754 53.623 154.586C55.9072 155.419 58.4284 155.311 60.6334 154.287L151.215 112.12C153.416 111.094 155.121 109.235 155.953 106.953C156.786 104.671 156.679 102.151 155.655 99.9478L128.126 40.8809C127.389 39.3049 126.219 37.9708 124.753 37.0341C123.286 36.0975 121.584 35.5969 119.844 35.5907Z" fill="#808080"/>
<path d="M99.631 64.1681L106.563 79.0679C108.208 82.604 112.408 84.1369 115.945 82.4918L126.493 77.5843C130.029 75.9391 131.562 71.7389 129.917 68.2028L122.984 53.303C121.339 49.7669 117.139 48.234 113.603 49.8792L103.055 54.7866C99.5188 56.4318 97.9859 60.632 99.631 64.1681Z" fill="#255DF9"/>
<path d="M34.7063 86.5811C32.5307 87.5933 31.5876 90.1775 32.5998 92.3531C33.612 94.5287 36.1962 95.4718 38.3718 94.4596L58.6759 85.0133C60.8515 84.0011 61.7946 81.4169 60.7824 79.2413C59.7702 77.0657 57.186 76.1225 55.0104 77.1347L34.7063 86.5811Z" fill="#737373"/>
<path d="M122.386 102.385L124.33 106.563C124.84 107.66 126.143 108.135 127.24 107.625L142.519 100.516C143.616 100.006 144.092 98.7029 143.581 97.6062L141.638 93.4282C141.127 92.3314 139.825 91.8559 138.728 92.3662L123.448 99.4749C122.351 99.9852 121.876 101.288 122.386 102.385Z" fill="#737373"/>
<path d="M99.0647 113.247L101.008 117.425C101.519 118.522 102.822 118.997 103.918 118.487L119.198 111.378C120.295 110.868 120.77 109.565 120.26 108.468L118.316 104.29C117.806 103.193 116.503 102.718 115.406 103.228L100.127 110.337C99.0299 110.847 98.5544 112.15 99.0647 113.247Z" fill="#737373"/>
<path d="M75.7271 124.091L77.6709 128.269C78.1812 129.366 79.484 129.841 80.5808 129.331L95.8604 122.222C96.9572 121.712 97.4326 120.409 96.9224 119.312L94.9786 115.134C94.4683 114.038 93.1655 113.562 92.0687 114.072L76.7891 121.181C75.6923 121.692 75.2169 122.994 75.7271 124.091Z" fill="#737373"/>
<path d="M52.4056 134.941L54.3494 139.119C54.8597 140.216 56.1624 140.691 57.2592 140.181L72.5388 133.072C73.6356 132.562 74.1111 131.259 73.6008 130.162L71.657 125.984C71.1467 124.888 69.8439 124.412 68.7471 124.922L53.4675 132.031C52.3708 132.541 51.8953 133.844 52.4056 134.941Z" fill="#737373"/>
<path d="M222.586 81.0008C222.485 81.0017 222.386 80.9769 222.298 80.9287C222.21 80.8805 222.136 80.8106 222.083 80.7255L206.033 55.5906C205.957 55.4575 205.935 55.3004 205.971 55.1516C206.008 55.0027 206.1 54.8736 206.229 54.7907C206.358 54.7079 206.513 54.6776 206.664 54.7062C206.815 54.7348 206.948 54.82 207.038 54.9443L223.088 80.0792C223.174 80.2126 223.203 80.3744 223.169 80.5292C223.136 80.684 223.042 80.8192 222.909 80.905C222.814 80.9707 222.701 81.0043 222.586 81.0008Z" fill="#F6F6F6"/>
<path d="M174.052 73.6998C173.941 73.6998 173.832 73.6698 173.737 73.6128C173.643 73.5559 173.565 73.4743 173.513 73.3767L165.314 57.5417C165.277 57.4728 165.254 57.3971 165.246 57.3191C165.239 57.2411 165.247 57.1625 165.271 57.0877C165.294 57.013 165.332 56.9437 165.383 56.8839C165.433 56.8242 165.496 56.7752 165.566 56.7398C165.635 56.7023 165.712 56.6791 165.791 56.6715C165.87 56.6639 165.949 56.672 166.025 56.6954C166.101 56.7187 166.171 56.7569 166.232 56.8077C166.293 56.8585 166.343 56.9208 166.379 56.9911L174.578 72.8261C174.651 72.9677 174.665 73.1321 174.618 73.2841C174.571 73.4361 174.466 73.5638 174.327 73.64C174.239 73.6758 174.146 73.696 174.052 73.6998Z" fill="#F6F6F6"/>
<path d="M40.3462 166.495L35.3312 172.253C32.1355 176.25 21.9738 173.449 12.662 165.969C3.35009 158.488 -1.629 149.224 1.60262 145.215L6.62959 139.458L40.3462 166.495Z" fill="#F6F6F6"/>
<path d="M30.5914 174.682C25.8038 174.682 18.8977 171.726 12.2789 166.436C8.07803 163.195 4.5492 159.166 1.88984 154.574C-0.324422 150.421 -0.599704 146.974 1.09989 144.844L6.13883 139.063C6.24059 138.946 6.38338 138.874 6.53731 138.861C6.69124 138.847 6.84439 138.894 6.96469 138.991L40.7172 165.981C40.782 166.028 40.8358 166.089 40.875 166.16C40.9143 166.23 40.938 166.308 40.9446 166.388C40.9577 166.552 40.9062 166.715 40.801 166.843L35.774 172.6C35.1269 173.32 34.3232 173.882 33.4248 174.243C32.5263 174.604 31.557 174.755 30.5914 174.682ZM6.65349 140.283L2.0215 145.634C0.669003 147.321 1.00414 150.421 2.94311 154.012C5.52453 158.467 8.95211 162.374 13.033 165.514C21.9259 172.695 31.92 175.556 34.8644 171.893L39.4844 166.579L6.65349 140.283Z" fill="#808080"/>
<path d="M40.3422 166.485C43.5405 162.492 38.5751 153.201 29.2517 145.735C19.9283 138.268 9.77754 135.452 6.57927 139.446C3.38101 143.439 8.34639 152.73 17.6698 160.196C26.9931 167.663 37.1439 170.479 40.3422 166.485Z" fill="#F6F6F6"/>
<path d="M35.6063 168.913C30.8187 168.913 23.9007 165.956 17.3058 160.678C13.0982 157.441 9.56484 153.411 6.90471 148.817C4.69045 144.664 4.41517 141.217 6.12673 139.086C7.82632 136.956 11.2614 136.465 15.7857 137.722C20.8501 139.312 25.5545 141.878 29.6338 145.274C39.3646 153.066 44.2719 162.545 40.8128 166.818C40.1626 167.542 39.3553 168.107 38.4528 168.47C37.5502 168.833 36.5765 168.985 35.6063 168.913ZM11.3213 138.248C10.5379 138.174 9.74799 138.278 9.01024 138.551C8.2725 138.825 7.60597 139.261 7.06031 139.828C5.68388 141.54 6.01901 144.616 7.96995 148.206C10.5478 152.66 13.9713 156.568 18.0478 159.709C26.9408 166.89 36.9468 169.751 39.8792 166.088C42.8116 162.426 37.7847 153.293 28.8797 146.172C24.9298 142.876 20.3712 140.387 15.4625 138.847C14.1158 138.46 12.7225 138.258 11.3213 138.248Z" fill="#808080"/>
<path d="M15.6182 142.737L17.8085 144.819H18.0599C18.766 144.951 19.4363 145.047 20.1544 145.226C22.0415 145.731 23.8245 146.566 25.4208 147.692C26.4189 148.369 27.3242 149.174 28.1138 150.086C28.61 150.579 28.9404 151.215 29.0594 151.905C29.0838 152.149 29.0326 152.395 28.9127 152.609C28.7928 152.823 28.61 152.995 28.3891 153.102C28.042 153.341 27.659 153.557 27.276 153.796L31.3933 157.71C32.0995 157.207 31.7883 156.357 30.8188 155.316L33.3442 154.885C34.1124 155.552 34.7392 156.366 35.1875 157.279C35.3778 157.622 35.4602 158.015 35.4239 158.406C35.3876 158.796 35.2343 159.167 34.984 159.469C34.7326 159.745 34.3855 159.984 34.0744 160.259L35.5705 161.684L33.1767 162.438L31.6447 160.989C30.9026 160.989 30.2084 160.989 29.4424 160.989C27.9658 160.848 26.5265 160.443 25.1934 159.793C23.3848 158.994 21.7563 157.837 20.4058 156.393C19.0294 154.885 18.7301 153.7 19.5799 152.898C20.1475 152.41 20.8067 152.04 21.5189 151.809L21.8062 151.702L17.629 147.752H17.5093C17.4146 148.007 17.3504 148.272 17.3178 148.542C17.4538 149.082 17.7601 149.565 18.1915 149.918L14.2777 150.158C13.9665 149.822 13.6553 149.499 13.38 149.176C12.3746 147.979 11.9916 146.986 12.3028 146.208C12.5076 145.832 12.8033 145.513 13.163 145.281C13.5226 145.049 13.9346 144.911 14.3615 144.879C14.4931 144.879 14.4931 144.807 14.3615 144.676C13.6074 143.982 12.8653 143.275 12.1233 142.569L15.6182 142.737ZM25.0737 154.825C24.7027 155.125 24.2239 155.352 24.3196 155.915C24.4154 156.477 25.72 157.65 26.9289 158.057C27.5235 158.27 28.1531 158.367 28.7841 158.344L25.0737 154.825ZM24.1162 150.816C24.4393 150.636 24.7625 150.493 24.8104 150.17C24.8942 149.571 23.6135 148.434 22.2969 147.955C21.7343 147.74 21.1957 147.62 20.5734 147.441L24.1162 150.816Z" fill="#737373"/>
<path d="M79.2573 227.226L82.1897 234.275C84.3441 238.919 77.3183 246.759 66.4984 251.81C55.6784 256.861 45.1457 257.172 42.9794 252.54L40.047 245.478L79.2573 227.226Z" fill="#F6F6F6"/>
<path d="M50.8308 256.43C46.6537 256.43 43.5657 255.233 42.4526 252.839L39.5082 245.766C39.4502 245.622 39.4488 245.462 39.5043 245.318C39.5599 245.173 39.6682 245.055 39.8074 244.988L79.0178 226.735C79.0912 226.702 79.1708 226.685 79.2512 226.685C79.3316 226.685 79.4111 226.702 79.4846 226.735C79.56 226.766 79.6284 226.811 79.686 226.869C79.7435 226.926 79.789 226.995 79.8197 227.07L82.7521 234.12C85.0741 239.111 78.0603 247.154 66.7615 252.42C61.7893 254.854 56.3627 256.22 50.8308 256.43ZM40.8248 245.778L43.5298 252.301C45.5046 256.538 55.9057 256.071 66.2708 251.259C76.6359 246.448 83.6498 238.788 81.6629 234.503L78.9699 228.004L40.8248 245.778Z" fill="#808080"/>
<path d="M63.5561 244.758C74.3844 239.715 81.4115 231.868 79.2517 227.23C77.0919 222.592 66.5629 222.919 55.7346 227.962C44.9063 233.004 37.8792 240.852 40.039 245.49C42.1988 250.128 52.7278 249.8 63.5561 244.758Z" fill="#F6F6F6"/>
<path d="M47.8627 249.357C43.5539 249.357 40.5976 248.088 39.4845 245.766C37.0907 240.763 44.1643 232.708 55.463 227.453C66.7617 222.199 77.4381 221.996 79.772 227.011C82.106 232.026 75.0921 240.069 63.7934 245.335C59.0218 247.662 53.8424 249.036 48.545 249.381L47.8627 249.357ZM71.4775 224.629C66.0986 224.85 60.8244 226.187 55.9897 228.555C45.6604 233.342 38.6107 241.026 40.5856 245.311C41.5192 247.298 44.4396 248.351 48.533 248.232C53.6703 247.898 58.6922 246.56 63.3147 244.294C73.6439 239.506 80.6936 231.822 78.7068 227.537C77.7971 225.526 75.1161 224.629 71.4775 224.629Z" fill="#808080"/>
<path d="M46.989 238.848L49.8256 237.806L49.9812 237.603C50.4121 237.029 50.7831 236.406 51.2739 235.903C52.5679 234.449 54.1073 233.234 55.8221 232.313C56.876 231.722 58.0027 231.271 59.1734 230.972C59.8385 230.756 60.5549 230.756 61.2201 230.972C61.4386 231.062 61.6258 231.214 61.7578 231.41C61.8899 231.606 61.961 231.837 61.9621 232.073C61.9621 232.492 62.0459 232.935 62.0818 233.378L67.42 231.427C67.2764 230.565 66.3907 230.47 65.0262 230.876L65.7563 228.483C66.7094 228.093 67.7308 227.897 68.7605 227.908C69.1575 227.889 69.5505 227.994 69.885 228.209C70.2196 228.423 70.4791 228.736 70.6277 229.105C70.7571 229.497 70.861 229.897 70.9389 230.302L72.8779 229.596L72.4948 232.073L70.52 232.815C70.1848 233.474 69.8976 234.108 69.5146 234.778C68.7459 236.041 67.7568 237.156 66.5941 238.07C65.0847 239.339 63.328 240.28 61.4355 240.835C59.4726 241.409 58.2877 241.146 57.9406 240.033C57.7542 239.31 57.7135 238.557 57.8209 237.818C57.8209 237.711 57.8209 237.603 57.8209 237.507L52.4348 239.506L52.3391 239.59C52.5216 239.79 52.7311 239.963 52.9615 240.105C53.5038 240.228 54.0718 240.169 54.5773 239.937L53.0572 243.528C52.6144 243.659 52.1955 243.791 51.7885 243.887C50.2685 244.27 49.2032 244.174 48.6407 243.54C48.401 243.194 48.2504 242.795 48.2024 242.377C48.1543 241.96 48.2103 241.537 48.3654 241.146C48.3654 241.026 48.3654 241.002 48.1739 241.074L45.2894 242.139L46.989 238.848ZM62.022 235.736C62.1297 236.203 62.1177 236.729 62.6563 236.933C63.2389 236.926 63.8137 236.799 64.345 236.56C64.8764 236.322 65.3527 235.976 65.7443 235.544C66.1983 235.103 66.5639 234.579 66.8216 234L62.022 235.736ZM58.0004 234.814C58.0004 234.455 58.0004 234.084 57.7251 233.905C57.2344 233.569 55.6545 234.204 54.6252 235.173C54.1943 235.58 53.8472 236.011 53.4283 236.49L58.0004 234.814Z" fill="#737373"/>
<path d="M50.5917 183.18C46.3307 190.278 51.1063 206.005 51.1063 206.005L57.414 210.601C59.6624 211.953 62.1553 212.85 64.7501 213.239C67.345 213.628 69.9911 213.502 72.5374 212.869C75.0837 212.235 77.4802 211.106 79.5902 209.547C81.7003 207.987 83.4824 206.027 84.8349 203.779C86.1874 201.53 87.0839 199.037 87.473 196.442C87.8621 193.848 87.7363 191.201 87.1028 188.655C86.4693 186.109 85.3405 183.712 83.7808 181.602C82.2211 179.492 80.261 177.71 78.0126 176.358L71.0227 172.923C71.0227 172.923 54.8526 176.094 50.5917 183.18Z" fill="#F6F6F6"/>
<path d="M67.6713 214.06C63.9506 214.053 60.3016 213.036 57.1146 211.116L50.7472 206.496C50.6442 206.417 50.5687 206.308 50.5317 206.184C50.3282 205.526 45.7441 190.11 50.0769 182.869C54.4336 175.687 70.2087 172.468 70.879 172.336C71.0002 172.301 71.1288 172.301 71.25 172.336L78.2638 175.771C82.1251 178.087 85.1206 181.606 86.7913 185.787C88.462 189.968 88.7159 194.582 87.5139 198.921C86.312 203.26 83.7205 207.086 80.1366 209.811C76.5527 212.537 72.174 214.013 67.6713 214.012V214.06ZM51.6209 205.682L57.7729 210.146C62.1775 212.777 67.4457 213.554 72.4222 212.307C77.3988 211.059 81.6775 207.889 84.3201 203.491C86.9625 199.087 87.7496 193.815 86.5087 188.831C85.2678 183.847 82.1003 179.559 77.7013 176.908L70.9149 173.593C69.0836 173.976 54.9363 177.184 51.1062 183.527C47.2762 189.919 51.1062 203.85 51.6209 205.646V205.682Z" fill="#808080"/>
<path d="M63.3624 210.84C74.3949 210.84 83.3386 201.897 83.3386 190.864C83.3386 179.832 74.3949 170.888 63.3624 170.888C52.3298 170.888 43.3862 179.832 43.3862 190.864C43.3862 201.897 52.3298 210.84 63.3624 210.84Z" fill="#F6F6F6"/>
<path d="M63.3267 211.463C60.1584 211.454 57.035 210.714 54.1997 209.3C51.3644 207.887 48.8939 205.837 46.9808 203.312C45.0677 200.786 43.7637 197.853 43.1704 194.741C42.577 191.629 42.7105 188.422 43.5603 185.369C44.4101 182.317 45.9532 179.503 48.0695 177.145C50.1858 174.787 52.818 172.95 55.7609 171.777C58.7038 170.603 61.878 170.125 65.036 170.38C68.1939 170.635 71.2504 171.616 73.9671 173.246C77.8293 175.563 80.8244 179.084 82.4926 183.268C84.1607 187.452 84.4099 192.067 83.2018 196.407C81.9937 200.746 79.3951 204.568 75.8048 207.288C72.2145 210.008 67.8308 211.475 63.3267 211.463ZM63.3985 171.51C58.7103 171.503 54.1786 173.196 50.6432 176.275C47.1078 179.354 44.8084 183.61 44.1713 188.255C43.5342 192.899 44.6025 197.617 47.1783 201.534C49.7541 205.452 53.6626 208.302 58.1795 209.558C62.6964 210.813 67.5153 210.389 71.7431 208.363C75.9709 206.337 79.3209 202.847 81.1722 198.54C83.0235 194.233 83.2506 189.401 81.8113 184.939C80.372 180.477 77.3639 176.688 73.3447 174.275C70.3427 172.463 66.9052 171.499 63.3985 171.486V171.51Z" fill="#808080"/>
<path d="M52.1596 181.708L54.6492 183.216C54.8168 183.312 54.9005 183.3 55.0202 183.156C55.9975 182.07 57.2322 181.247 58.6109 180.762C60.0496 180.255 61.6241 180.289 63.0394 180.858C63.4225 181.014 63.7935 181.193 64.2363 181.373L61.9144 185.227C61.3301 184.883 60.6464 184.748 59.9754 184.844C59.4598 184.978 58.9523 185.142 58.4553 185.335V185.43L63.2429 188.327L63.59 187.968C64.4242 187.065 65.36 186.262 66.3788 185.574C67.1291 185.034 68.0126 184.708 68.9342 184.632C69.8557 184.556 70.7806 184.733 71.6092 185.143C73.2209 185.8 74.5103 187.064 75.1999 188.662C75.7681 189.961 75.9106 191.406 75.6069 192.791C75.4273 193.653 75.1401 194.503 74.8887 195.389L76.7559 196.514L74.6254 200.104L72.7104 198.907C72.076 199.506 71.5135 200.104 70.9031 200.631C69.7141 201.673 68.2089 202.284 66.6301 202.366C65.2722 202.4 63.935 202.029 62.7881 201.301L65.0622 197.507C65.7367 197.879 66.5147 198.018 67.2761 197.903C68.0375 197.788 68.7401 197.426 69.2753 196.873L64.1166 193.785C63.4823 194.371 62.8479 194.982 62.2016 195.556C61.4442 196.284 60.5193 196.814 59.5086 197.1C58.4706 197.359 57.3773 197.284 56.3847 196.885C55.1469 196.453 54.053 195.687 53.2249 194.67C52.6312 193.934 52.2067 193.077 51.9812 192.158C51.7558 191.24 51.735 190.283 51.9203 189.356C52.0639 188.602 52.3631 187.872 52.5786 187.142C52.5786 187.058 52.5786 186.974 52.6743 186.879L50.089 185.323L52.1596 181.708ZM71.4058 193.27C71.6826 192.643 71.774 191.949 71.6691 191.271C71.5619 190.695 71.2467 190.177 70.7834 189.818C70.32 189.458 69.7408 189.281 69.1556 189.32C68.3274 189.548 67.5779 189.999 66.9892 190.625L71.4058 193.27ZM55.9059 188.806C55.8208 189.392 55.7808 189.984 55.7862 190.577C55.8128 190.898 55.909 191.209 56.0681 191.489C56.2272 191.768 56.4454 192.01 56.7074 192.197C56.9695 192.384 57.2691 192.511 57.5854 192.571C57.9018 192.63 58.2272 192.619 58.5391 192.54C59.1693 192.264 59.7326 191.856 60.1908 191.343L55.9059 188.806Z" fill="#737373"/>
</g>
<defs>
<clipPath id="clip0_8304_417">
</clipPath>
</defs>
</svg>
