<svg width="300" height="286" viewBox="0 0 300 286" fill="none" xmlns="http://www.w3.org/2000/svg">
<path d="M251.546 239.523C251.546 239.523 229.881 195.578 295.966 176.419C295.966 176.419 300.571 243.015 251.546 239.523Z" fill="#255DF9"/>
<mask id="mask0_8305_833" style="mask-type:luminance" maskUnits="userSpaceOnUse" x="248" y="176" width="49" height="64">
<path d="M251.546 239.523C251.546 239.523 229.881 195.578 295.966 176.419C295.966 176.419 300.571 243.015 251.546 239.523Z" fill="white"/>
</mask>
<g mask="url(#mask0_8305_833)">
<path d="M304.829 186.644L304.454 186.012C291.388 193.787 279.496 196.508 275.989 197.195C279.26 193.336 282.49 189.795 285.408 186.727C286.72 186.484 295.722 184.617 304.863 177.808L304.419 177.218C296.723 182.944 289.151 185.117 286.311 185.783C292.659 179.189 297.348 175.01 297.487 174.885L296.994 174.337C296.855 174.462 292.062 178.731 285.602 185.457C286.227 177.086 290.339 168.888 290.381 168.805L289.721 168.472C289.672 168.562 285.206 177.468 284.81 186.283C281.879 189.358 278.649 192.912 275.37 196.785C275.607 185.832 280.302 172.997 280.351 172.865L279.656 172.609C279.608 172.747 274.606 186.408 274.62 197.681C271.46 201.457 268.279 205.525 265.306 209.752C264.729 193.974 269.397 177.697 269.446 177.53L268.737 177.329C268.688 177.502 263.791 194.557 264.611 210.758C262.409 213.937 260.339 217.207 258.492 220.497C255.22 203.532 259.436 188.136 259.478 187.977L258.762 187.775C258.714 187.935 254.303 204.025 257.929 221.504C256.123 224.822 254.553 228.167 253.324 231.471C249.142 219.609 248.33 202.616 248.51 201.63L247.781 201.499C247.586 202.561 248.336 220.289 252.928 232.554C251.803 235.761 251.011 238.933 250.636 242.015L251.372 242.106C251.726 239.128 252.49 236.067 253.56 232.964C254.421 233.144 256.908 233.568 261.194 233.568C261.534 233.568 261.881 233.568 262.242 233.561C267.772 233.477 277.1 232.631 290.138 229.111L289.943 228.403C267.702 234.408 256.033 232.7 253.803 232.263C255.039 228.827 256.658 225.349 258.533 221.899C259.131 221.955 260.68 222.08 262.937 222.08C270.05 222.08 284.018 220.823 296.174 212.174L295.743 211.577C280.504 222.42 262.354 221.483 258.922 221.191C260.812 217.79 262.944 214.41 265.222 211.119C267.501 210.89 287.804 208.565 301.328 198.028L300.876 197.445C288.353 207.197 269.904 209.835 265.785 210.314C268.793 206.024 272.022 201.894 275.232 198.07C276.975 197.778 290.179 195.349 304.822 186.637L304.829 186.644Z" fill="#F6F6F6"/>
</g>
<path d="M50.1992 234.88C50.1992 234.88 11.8153 244.028 8.46033 188.9C8.46033 188.9 61.6254 197.132 50.1992 234.88Z" fill="#3D3939"/>
<mask id="mask1_8305_833" style="mask-type:luminance" maskUnits="userSpaceOnUse" x="8" y="188" width="44" height="48">
<path d="M50.1992 234.88C50.1992 234.88 11.8153 244.028 8.46033 188.9C8.46033 188.9 61.6254 197.132 50.1992 234.88Z" fill="white"/>
</mask>
<g mask="url(#mask1_8305_833)">
<path d="M18.0737 183.777L17.511 183.958C21.3036 195.564 21.3453 205.358 21.255 208.225C18.7961 204.976 16.5872 201.825 14.6979 198.993C14.7396 197.924 14.8646 190.545 11.1346 182.181L10.5928 182.424C13.7324 189.462 14.1005 195.772 14.1144 198.118C10.0579 191.982 7.59902 187.567 7.52956 187.435L7.0086 187.72C7.08501 187.852 9.58559 192.364 13.7324 198.611C7.26561 196.64 1.54901 191.961 1.48649 191.912L1.1114 192.371C1.17392 192.419 7.38369 197.5 14.2464 199.381C16.1496 202.22 18.3654 205.379 20.8312 208.634C12.2598 206.503 3.00073 200.548 2.91043 200.485L2.58397 200.985C2.68121 201.047 12.5377 207.392 21.4008 209.377C23.8111 212.521 26.4437 215.735 29.236 218.81C16.7261 216.457 4.75808 209.918 4.64 209.849L4.35521 210.37C4.48024 210.439 17.0248 217.304 29.9028 219.539C32.0144 221.823 34.2163 224.03 36.4807 226.057C22.5678 225.606 11.211 219.567 11.0929 219.504L10.8081 220.025C10.9262 220.087 22.79 226.397 37.1753 226.668C39.4675 228.674 41.8153 230.493 44.1978 232.047C34.1329 233.214 20.6298 230.833 19.8935 230.513L19.6574 231.062C20.4562 231.402 34.5289 233.963 44.9827 232.547C47.3096 233.998 49.6574 235.185 52.019 236.018L52.2205 235.463C49.9422 234.657 47.6708 233.512 45.4272 232.124C45.719 231.478 46.4969 229.611 47.254 226.258C47.3165 225.995 47.3721 225.717 47.4346 225.432C48.3446 221.087 49.3378 213.639 48.8794 202.803L48.289 202.831C49.0739 221.302 45.6564 230.139 44.9202 231.804C42.4404 230.229 39.9954 228.341 37.6129 226.258C37.7657 225.8 38.1408 224.613 38.5367 222.843C39.794 217.276 41.2804 206.121 36.6405 195.071L36.0917 195.3C41.9125 209.155 37.9602 223.197 37.1267 225.828C34.7859 223.746 32.5076 221.476 30.3265 219.109C30.5488 217.283 32.32 200.978 26.4298 188.518L25.8949 188.768C31.3476 200.305 30.1459 215.208 29.7917 218.519C26.9507 215.402 24.2834 212.14 21.8384 208.947C21.9148 207.531 22.3455 196.764 18.0945 183.756L18.0737 183.777Z" fill="#255DF9"/>
</g>
<path d="M40.8357 80.0388H248.968C251.76 80.0389 254.024 82.3013 254.024 85.0916V210.426C254.024 213.216 251.76 215.478 248.968 215.478H40.8357C38.0428 215.478 35.7793 213.216 35.7791 210.426V85.0916C35.7792 82.3014 38.0428 80.0389 40.8357 80.0388Z" fill="#255DF9" stroke="black"/>
<path d="M248.342 86.2302H41.4679V209.287H248.342V86.2302Z" fill="#F6F6F6" stroke="black" stroke-width="1.16" stroke-linecap="round" stroke-linejoin="round"/>
<path d="M178.937 215.978H110.866V233.012H178.937V215.978Z" fill="#F6F6F6" stroke="black" stroke-width="1.16" stroke-linecap="round" stroke-linejoin="round"/>
<path d="M211.514 242.8C199.067 232.755 173.908 225.89 144.895 225.89C115.881 225.89 90.7293 232.755 78.275 242.8H211.507H211.514Z" fill="#F6F6F6" stroke="black" stroke-width="1.16" stroke-linecap="round" stroke-linejoin="round"/>
<path d="M78.282 244.535H206.082C207.819 244.535 209.555 244.576 211.292 244.535C211.368 244.535 211.445 244.535 211.514 244.535C213.751 244.535 213.751 241.064 211.514 241.064H83.7207C81.9842 241.064 80.2477 241.023 78.5112 241.064C78.4348 241.064 78.3584 241.064 78.2889 241.064C76.0523 241.064 76.0523 244.535 78.2889 244.535H78.282Z" fill="#2B2B2B"/>
<path d="M236.86 105.132H52.79V200.922H236.86V105.132Z" fill="#F6F6F6" stroke="black" stroke-width="1.16" stroke-linecap="round" stroke-linejoin="round"/>
<path d="M231.034 94.7888H58.7622C55.4485 94.7888 52.7622 97.4751 52.7622 100.789V105.048H237.034V100.789C237.034 97.4751 234.348 94.7888 231.034 94.7888Z" fill="#F6F6F6" stroke="black" stroke-width="1.16" stroke-linecap="round" stroke-linejoin="round"/>
<path d="M61.7226 100.155C61.7226 101.453 60.6738 102.501 59.3749 102.501C58.076 102.501 57.0271 101.453 57.0271 100.155C57.0271 98.8565 58.076 97.8083 59.3749 97.8083C60.6738 97.8083 61.7226 98.8565 61.7226 100.155Z" fill="#255DF9"/>
<path d="M69.6341 100.155C69.6341 101.453 68.5853 102.501 67.2864 102.501C65.9875 102.501 64.9386 101.453 64.9386 100.155C64.9386 98.8565 65.9875 97.8083 67.2864 97.8083C68.5853 97.8083 69.6341 98.8565 69.6341 100.155Z" fill="black"/>
<path d="M77.5458 100.155C77.5458 101.453 76.4969 102.501 75.198 102.501C73.8991 102.501 72.8502 101.453 72.8502 100.155C72.8502 98.8565 73.8991 97.8083 75.198 97.8083C76.4969 97.8083 77.5458 98.8565 77.5458 100.155Z" fill="#808080"/>
<path d="M210.014 150.084C210.014 156.428 204.554 161.62 197.886 161.62H95.3623C88.6941 161.62 83.2345 156.428 83.2345 150.084C83.2345 143.739 88.6941 138.547 95.3623 138.547H197.886C204.554 138.547 210.014 143.739 210.014 150.084Z" fill="#2B2B2B"/>
<path d="M108.595 155.519L104.385 151.604C105.017 150.709 105.351 149.633 105.309 148.515C105.26 147.168 104.691 145.912 103.698 144.996C102.711 144.073 101.419 143.594 100.065 143.642C98.7173 143.691 97.46 144.26 96.5432 145.253C95.6193 146.238 95.14 147.529 95.1887 148.883C95.2373 150.23 95.8069 151.486 96.8002 152.402C97.7865 153.325 99.0785 153.804 100.433 153.756C101.551 153.714 102.6 153.312 103.448 152.617L107.657 156.532L108.595 155.526V155.519ZM97.7448 151.403C97.0224 150.729 96.6057 149.82 96.5709 148.841C96.5362 147.856 96.8835 146.919 97.5573 146.197C98.231 145.475 99.141 145.058 100.12 145.024C101.107 144.989 102.044 145.336 102.767 146.009C103.489 146.683 103.906 147.592 103.941 148.571C103.975 149.556 103.628 150.493 102.954 151.215C102.281 151.937 101.371 152.354 100.391 152.388C99.4049 152.423 98.4672 152.076 97.7448 151.403Z" fill="#255DF9"/>
<path d="M126.842 151.076C127.498 151.076 128.03 150.545 128.03 149.889C128.03 149.234 127.498 148.702 126.842 148.702C126.186 148.702 125.654 149.234 125.654 149.889C125.654 150.545 126.186 151.076 126.842 151.076Z" fill="#002999"/>
<path d="M140.734 151.076C141.39 151.076 141.922 150.545 141.922 149.889C141.922 149.234 141.39 148.702 140.734 148.702C140.078 148.702 139.546 149.234 139.546 149.889C139.546 150.545 140.078 151.076 140.734 151.076Z" fill="#002999"/>
<path d="M154.626 151.076C155.282 151.076 155.814 150.545 155.814 149.889C155.814 149.234 155.282 148.702 154.626 148.702C153.97 148.702 153.438 149.234 153.438 149.889C153.438 150.545 153.97 151.076 154.626 151.076Z" fill="#002999"/>
<path d="M168.518 151.076C169.174 151.076 169.706 150.545 169.706 149.889C169.706 149.234 169.174 148.702 168.518 148.702C167.862 148.702 167.33 149.234 167.33 149.889C167.33 150.545 167.862 151.076 168.518 151.076Z" fill="#002999"/>
<path d="M277.842 64.1775H186.154V154.415H277.842V64.1775Z" fill="#F6F6F6" stroke="black" stroke-width="1.16" stroke-linecap="round" stroke-linejoin="round"/>
<path d="M271.842 53.0713H192.154C188.84 53.0713 186.154 55.7576 186.154 59.0713V64.8716H277.842V59.0713C277.842 55.7576 275.156 53.0713 271.842 53.0713Z" fill="#255DF9" stroke="black" stroke-width="1.16" stroke-linecap="round" stroke-linejoin="round"/>
<path d="M196.268 59.1797C196.268 60.6165 195.101 61.7827 193.663 61.7827C192.225 61.7827 191.058 60.6165 191.058 59.1797C191.058 57.7428 192.225 56.5767 193.663 56.5767C195.101 56.5767 196.268 57.7428 196.268 59.1797Z" fill="black"/>
<path d="M205.034 59.1797C205.034 60.6165 203.867 61.7827 202.429 61.7827C200.991 61.7827 199.824 60.6165 199.824 59.1797C199.824 57.7428 200.991 56.5767 202.429 56.5767C203.867 56.5767 205.034 57.7428 205.034 59.1797Z" fill="#525252"/>
<path d="M213.8 59.1797C213.8 60.6165 212.633 61.7827 211.195 61.7827C209.757 61.7827 208.59 60.6165 208.59 59.1797C208.59 57.7428 209.757 56.5767 211.195 56.5767C212.633 56.5767 213.8 57.7428 213.8 59.1797Z" fill="#525252"/>
<path d="M251.129 116.45L247.342 120.234L281.296 154.165L285.083 150.381L251.129 116.45Z" fill="#F47971"/>
<path d="M252.31 114.287L245.184 121.409L255.12 131.338L262.246 124.216L252.31 114.287Z" fill="white" stroke="black" stroke-width="1.16" stroke-linecap="round" stroke-linejoin="round"/>
<g opacity="0.2">
<path d="M249.238 118.341C240.354 127.219 225.906 127.219 217.029 118.341C208.152 109.463 208.152 95.0249 217.029 86.1539C225.906 77.2759 240.361 77.2759 249.238 86.1539C258.122 95.0319 258.115 109.47 249.238 118.341Z" fill="#F6F6F6"/>
</g>
<path d="M251.398 120.5C241.327 130.565 224.934 130.565 214.862 120.5C204.79 110.435 204.79 94.0532 214.862 83.9882C224.934 73.9232 241.327 73.9232 251.398 83.9882C261.47 94.0532 261.47 110.435 251.398 120.5ZM218.655 87.7712C210.674 95.7469 210.674 108.734 218.655 116.71C226.636 124.685 239.632 124.685 247.613 116.71C255.594 108.734 255.594 95.7469 247.613 87.7712C239.632 79.7956 226.636 79.7956 218.655 87.7712Z" fill="#F47971"/>
<path d="M244.459 94.2545L241.125 90.9226L233.13 98.9121L225.142 90.9226L221.801 94.2545L229.796 102.244L221.801 110.233L225.142 113.565L233.13 105.576L241.125 113.565L244.459 110.233L236.471 102.244L244.459 94.2545Z" fill="#808080"/>
<path d="M87.5516 170.297C87.1793 169.941 86.6839 169.742 86.1685 169.742H47.4758C46.3713 169.742 45.4758 170.637 45.4758 171.742V242.646C45.4758 243.751 46.3713 244.646 47.4758 244.646H107.477C108.581 244.646 109.477 243.751 109.477 242.646V192.142C109.477 191.596 109.254 191.074 108.86 190.697L87.5516 170.297Z" fill="#F47971"/>
<path d="M86.9716 169.742L109.477 191.288H86.9716V169.742Z" fill="#F3ABA5"/>
<path d="M70.6483 198.528C70.6483 200.777 69.3424 202.595 67.7309 202.595C66.1195 202.595 64.8136 200.77 64.8136 198.528C64.8136 196.286 66.1195 194.46 67.7309 194.46C69.3424 194.46 70.6483 196.286 70.6483 198.528Z" fill="white"/>
<path d="M87.1383 202.595C88.7495 202.595 90.0556 200.774 90.0556 198.528C90.0556 196.281 88.7495 194.46 87.1383 194.46C85.5271 194.46 84.2209 196.281 84.2209 198.528C84.2209 200.774 85.5271 202.595 87.1383 202.595Z" fill="white"/>
<path d="M69.3146 210.744C70.5302 209.412 72.2181 208.37 73.899 207.766C78.1569 206.232 82.269 207.836 85.5059 210.744C86.3741 211.522 87.6591 210.244 86.7909 209.46C83.1998 206.232 78.539 204.337 73.7601 205.899C71.6624 206.586 69.5369 207.822 68.0365 209.46C67.2516 210.321 68.5297 211.605 69.3216 210.744H69.3146Z" fill="white"/>
<path d="M65.1053 43.4436H18.4348C15.6494 43.4436 13.3711 45.7204 13.3711 48.5039V81.2185C13.3711 84.002 15.6494 86.2788 18.4348 86.2788H34.8344L41.7735 94.7264L48.7126 86.2788H65.1122C67.8976 86.2788 70.1759 84.002 70.1759 81.2185V48.5039C70.1759 45.7204 67.8976 43.4436 65.1122 43.4436H65.1053Z" fill="#808080"/>
<path d="M41.7736 49.5173C33.2508 49.5173 26.3186 56.4448 26.3186 64.9619C26.3186 73.4789 33.2508 80.4064 41.7736 80.4064C50.2964 80.4064 57.2285 73.4789 57.2285 64.9619C57.2285 56.4448 50.2964 49.5173 41.7736 49.5173ZM41.7736 52.4327C44.7048 52.4327 47.4068 53.4461 49.5462 55.1398L31.9449 72.7293C30.2501 70.5913 29.2359 67.8981 29.2359 64.9619C29.2359 58.0552 34.8622 52.4327 41.7736 52.4327ZM41.7736 77.498C38.8423 77.498 36.1403 76.4845 34.0009 74.7908L51.6022 57.2014C53.2971 59.3394 54.3112 62.0326 54.3112 64.9688C54.3112 71.8824 48.6849 77.498 41.7736 77.498Z" fill="#F6F6F6"/>
<path d="M244.745 175.542C244.375 175.183 243.881 174.981 243.366 174.977L207.465 174.739C206.361 174.732 205.459 175.621 205.452 176.725L205.013 242.611C205.006 243.716 205.896 244.617 207 244.624L262.708 244.987C263.813 244.994 264.714 244.105 264.721 243L265.029 196.077C265.033 195.532 264.813 195.009 264.422 194.629L244.745 175.542Z" fill="#F6F6F6" stroke="#737373" stroke-width="1.16" stroke-linecap="round" stroke-linejoin="round"/>
<path d="M244.169 174.982L265.035 195.223L244.037 195.085L244.169 174.982Z" fill="#F6F6F6" stroke="#737373" stroke-width="1.16" stroke-linecap="round" stroke-linejoin="round"/>
<path d="M247.746 201.033L244.058 197.299L235.111 206.128L226.276 197.181L222.539 200.867L231.374 209.807L222.421 218.637L226.109 222.371L235.063 213.542L243.891 222.489L247.628 218.803L238.793 209.863L247.746 201.033Z" fill="#F47971"/>
<path d="M49.4119 121.84C49.2388 121.354 48.8848 120.954 48.4237 120.723L27.7644 110.372C26.7772 109.878 25.5759 110.277 25.0808 111.264L5.89709 149.51C5.40171 150.498 5.80106 151.7 6.78892 152.195L38.9431 168.305C39.9303 168.799 41.1317 168.4 41.6267 167.413L55.2886 140.171C55.5332 139.684 55.5679 139.117 55.3848 138.604L49.4119 121.84Z" fill="#F6F6F6" stroke="#808080" stroke-width="1.16" stroke-linecap="round" stroke-linejoin="round"/>
<path d="M49.1422 121.083L55.6715 139.408L43.1061 133.112L49.1422 121.083Z" fill="#F6F6F6" stroke="#808080" stroke-width="1.16" stroke-linecap="round" stroke-linejoin="round"/>
<path d="M43.5714 137.777L42.467 134.445L34.479 137.104L31.8187 129.114L28.4846 130.225L31.138 138.207L23.15 140.859L24.2614 144.191L32.2494 141.539L34.9027 149.522L38.2368 148.418L35.5835 140.435L43.5714 137.777Z" fill="#737373"/>
<path d="M131.156 43.6251C130.924 43.5132 130.657 43.4952 130.412 43.5749L113.206 49.1733C112.681 49.3442 112.394 49.9086 112.565 50.4338L122.844 82.0034C123.015 82.5284 123.579 82.8156 124.104 82.6448L150.799 73.962C151.324 73.7911 151.612 73.2266 151.441 72.7013L144.117 50.2148C144.032 49.9556 143.846 49.742 143.6 49.6237L131.156 43.6251Z" fill="#F6F6F6" stroke="#737373" stroke-width="1.16" stroke-linecap="round" stroke-linejoin="round"/>
<path d="M130.794 43.4507L143.985 49.809L133.927 53.0784L130.794 43.4507Z" fill="#F6F6F6" stroke="#737373" stroke-width="1.16" stroke-linecap="round" stroke-linejoin="round"/>
<path d="M136.65 55.3342L134.295 54.1333L131.419 59.7766L125.772 56.9029L124.577 59.256L130.218 62.1298L127.349 67.7731L129.704 68.967L132.572 63.3306L138.219 66.1974L139.421 63.8443L133.774 60.9705L136.65 55.3342Z" fill="#737373"/>
<path d="M188.03 40.2366H187.195C186.732 40.2366 186.333 39.9169 186.2 39.4728C185.933 38.5767 185.578 37.7195 185.146 36.9082C184.93 36.5008 184.989 35.9955 185.316 35.6703L185.911 35.0792C186.814 34.1838 186.814 32.7191 185.925 31.8237L184.584 30.4771C183.688 29.5747 182.223 29.5747 181.327 30.4632L180.734 31.0523C180.405 31.3785 179.898 31.4332 179.491 31.2124C178.684 30.7739 177.83 30.4144 176.938 30.1429C176.497 30.0085 176.18 29.6107 176.18 29.1492V28.3114C176.187 27.0411 175.159 26.0068 173.887 25.9999H171.991C170.72 25.986 169.685 27.0203 169.678 28.2905V29.1238C169.678 29.5874 169.358 29.9865 168.914 30.1189C168.017 30.3861 167.159 30.7409 166.346 31.1725C165.939 31.3888 165.435 31.3299 165.11 31.0031L164.517 30.4077C163.621 29.5053 162.156 29.5053 161.26 30.3938L159.912 31.7335C159.009 32.6289 159.009 34.0935 159.898 34.989L160.487 35.5809C160.814 35.9094 160.869 36.4174 160.647 36.8244C160.209 37.6308 159.849 38.4831 159.578 39.3743C159.443 39.8156 159.045 40.1325 158.584 40.1325H157.745C156.474 40.1256 155.439 41.1529 155.432 42.4232V44.3251C155.418 45.5954 156.453 46.6296 157.724 46.6366H158.559C159.022 46.6366 159.421 46.9563 159.554 47.4004C159.821 48.2965 160.176 49.1537 160.607 49.9649C160.824 50.3724 160.765 50.8777 160.438 51.2029L159.843 51.794C158.94 52.6894 158.94 54.1541 159.829 55.0495L161.169 56.3961C162.065 57.2985 163.531 57.2985 164.427 56.41L165.02 55.8209C165.348 55.4947 165.856 55.44 166.262 55.6608C167.07 56.0993 167.923 56.4588 168.815 56.7303C169.257 56.8647 169.574 57.2625 169.574 57.724V58.5618C169.567 59.8321 170.595 60.8664 171.866 60.8733H173.762C175.034 60.8872 176.069 59.8529 176.076 58.5827V57.7494C176.076 57.2858 176.395 56.8867 176.84 56.7543C177.737 56.4871 178.595 56.1323 179.407 55.7007C179.814 55.4844 180.319 55.5433 180.644 55.8701L181.236 56.4655C182.132 57.3679 183.598 57.3679 184.494 56.4794L185.842 55.1397C186.745 54.2443 186.745 52.7797 185.856 51.8842L185.267 51.2923C184.94 50.9638 184.885 50.4558 185.106 50.0488C185.545 49.2424 185.904 48.39 186.176 47.4989C186.311 47.0576 186.708 46.7407 187.17 46.7407H188.009C189.28 46.7476 190.315 45.7203 190.322 44.45V42.5481C190.336 41.2778 189.301 40.2436 188.03 40.2366ZM172.853 49.8712C169.296 49.8574 166.427 46.9698 166.441 43.4227C166.455 39.8757 169.345 37.002 172.894 37.0158C176.451 37.0297 179.319 39.9173 179.305 43.4644C179.292 47.0183 176.402 49.8851 172.853 49.8712Z" fill="#F6F6F6" stroke="#737373" stroke-width="1.16" stroke-linecap="round" stroke-linejoin="round"/>
<path d="M172.908 34.2672C167.837 34.2463 163.718 38.3417 163.698 43.4089C163.677 48.4761 167.775 52.5924 172.846 52.6132C177.916 52.634 182.035 48.5386 182.056 43.4714C182.077 38.4042 177.979 34.288 172.908 34.2672ZM172.859 49.1356C169.713 49.1217 167.171 46.5673 167.178 43.4228C167.191 40.2784 169.748 37.7379 172.894 37.7448C176.041 37.7587 178.583 40.3131 178.576 43.4575C178.562 46.602 176.006 49.1425 172.859 49.1356Z" fill="#F6F6F6" stroke="#737373" stroke-width="1.16" stroke-linecap="round" stroke-linejoin="round"/>
</svg>
