<svg width="300" height="300" viewBox="0 0 300 300" fill="none" xmlns="http://www.w3.org/2000/svg">
<g clip-path="url(#clip0_5868_519)">

<path d="M213.358 245.738C240.973 245.738 263.36 239.09 263.36 230.889C263.36 222.688 240.973 216.039 213.358 216.039C185.742 216.039 163.355 222.688 163.355 230.889C163.355 239.09 185.742 245.738 213.358 245.738Z" fill="#2B2B2B" stroke="#2B2B2B" stroke-width="1.16" stroke-linecap="round" stroke-linejoin="round"/>
<path d="M213.358 222.869C237.013 222.869 256.821 227.752 262.014 234.303C262.883 233.206 263.36 232.065 263.36 230.889C263.36 222.691 240.973 216.039 213.358 216.039C185.742 216.039 163.355 222.691 163.355 230.889C163.355 232.065 163.833 233.206 164.702 234.303C169.901 227.752 189.703 222.869 213.358 222.869Z" fill="white" stroke="#2B2B2B" stroke-width="1.16" stroke-linecap="round" stroke-linejoin="round"/>
<path d="M206.534 243.87C189.831 243.115 177.224 239.693 177.224 235.579C177.224 235.152 177.359 234.724 177.63 234.311" stroke="white" stroke-width="1.16" stroke-linecap="round" stroke-linejoin="round"/>
<path d="M245.297 231.509C248.16 232.714 249.784 234.104 249.784 235.579C249.784 240.242 233.544 244.027 213.507 244.027C213.222 244.027 212.93 244.027 212.645 244.027" stroke="white" stroke-width="1.16" stroke-linecap="round" stroke-linejoin="round"/>
<path d="M182.11 231.345C188.392 228.828 200.102 227.132 213.507 227.132C222.119 227.132 230.025 227.83 236.251 228.999" stroke="white" stroke-width="1.16" stroke-linecap="round" stroke-linejoin="round"/>
<path d="M206.057 238.481C201.826 237.889 198.998 236.813 198.998 235.579C198.998 233.712 205.494 232.2 213.507 232.2C221.52 232.2 228.017 233.712 228.017 235.579C228.017 237.176 223.237 238.516 216.819 238.866" stroke="white" stroke-width="1.16" stroke-linecap="round" stroke-linejoin="round"/>
<path d="M12.5504 171.199C34.3535 165.004 80.2389 152.757 105.568 151.837C139.586 150.597 197.111 175.362 232.988 179.697C268.866 184.031 292.984 182.79 292.984 182.79" stroke="#D9D9D9" stroke-width="1.16" stroke-linecap="round" stroke-linejoin="round"/>
<path d="M0.413116 174.749C0.413116 174.749 2.30067 174.172 5.59855 173.209" stroke="#D9D9D9" stroke-width="1.16" stroke-linecap="round" stroke-linejoin="round"/>
<path d="M283.29 136.161C274.507 134.236 260.632 132.012 244.99 132.532C218.379 133.423 189.61 136.952 153.989 141.543C118.36 146.134 67.6813 120.755 33.2067 130.173C-1.26076 139.59 1.33908 142.427 1.33908 142.427" stroke="#D9D9D9" stroke-width="1.16" stroke-linecap="round" stroke-linejoin="round"/>
<path d="M293.098 138.713C293.098 138.713 291.752 138.271 289.323 137.622" stroke="#D9D9D9" stroke-width="1.16" stroke-linecap="round" stroke-linejoin="round"/>
<path d="M255.305 64.2388C255.304 64.2383 255.304 64.2377 255.304 64.237C254.614 61.3344 252.513 58.9834 249.764 57.9613C248.677 57.5572 247.871 56.4964 247.967 55.341C248.014 54.7814 248.039 54.2157 248.039 53.6446C248.039 42.1244 238.708 32.7927 227.204 32.7927C218.108 32.7927 210.379 38.6292 207.539 46.762C207.041 48.1865 205.231 48.8811 203.85 48.2719C202.218 47.5517 200.414 47.1502 198.514 47.1502C191.156 47.1502 185.194 53.117 185.194 60.4811C185.194 61.2662 185.266 62.0358 185.4 62.7852C185.556 63.6605 186.354 64.2451 187.243 64.2451H255.302C255.306 64.2451 255.307 64.2411 255.305 64.2388Z" fill="white" stroke="#D9D9D9" stroke-width="1.16" stroke-linecap="round" stroke-linejoin="round"/>
<path d="M21.608 62.299C22.9064 62.299 23.8143 60.9884 22.7657 60.2227C22.1658 59.7846 21.4271 59.5259 20.6277 59.5259C19.8284 59.5259 19.0897 59.7846 18.4898 60.2227C17.4412 60.9884 18.3491 62.299 19.6475 62.299H21.608Z" fill="white" stroke="#D9D9D9" stroke-width="1.16" stroke-linecap="round" stroke-linejoin="round"/>
<path d="M59.8675 62.2997C59.8675 62.2992 59.8674 62.2987 59.8673 62.2983C59.585 61.1135 58.8374 60.109 57.8292 59.4917C56.9294 58.9409 56.1778 57.9788 56.1778 56.9238C56.1778 51.0782 51.4412 46.3375 45.6004 46.3375C41.5622 46.3375 38.0553 48.6016 36.2725 51.9325C35.5607 53.2624 33.6638 53.9812 32.177 53.7269C31.8057 53.6634 31.4239 53.6303 31.0342 53.6303C27.3018 53.6303 24.2746 56.6601 24.2746 60.3956C24.2746 60.5434 24.2796 60.6901 24.2893 60.8357C24.3481 61.7211 25.1619 62.3061 26.0492 62.3061H59.8611C59.8646 62.3061 59.8675 62.3033 59.8675 62.2997Z" fill="white" stroke="#D9D9D9" stroke-width="1.16" stroke-linecap="round" stroke-linejoin="round"/>
<path d="M153.133 86.253C153.13 86.2556 153.126 86.2543 153.125 86.2507C152.746 84.6578 151.683 83.3329 150.264 82.5817C149.246 82.0426 148.441 80.9942 148.47 79.8425C148.473 79.7372 148.475 79.6315 148.475 79.5254C148.475 72.213 142.499 66.2982 135.143 66.2982C129.748 66.2982 125.094 69.4787 123.003 74.0563C122.379 75.4218 120.544 76.129 119.099 75.7216C118.365 75.5148 117.591 75.4034 116.79 75.4034C112.08 75.4034 108.267 79.1866 108.267 83.8592C108.267 84.1745 108.286 84.4838 108.321 84.7877C108.422 85.666 109.229 86.2448 110.113 86.2448H153.13C153.134 86.2448 153.136 86.25 153.133 86.253Z" fill="white" stroke="#D9D9D9" stroke-width="1.16" stroke-linecap="round" stroke-linejoin="round"/>
<path d="M89.5128 181.008C89.2849 181.008 89.0569 180.951 88.8432 180.823C88.2093 180.445 87.9885 179.618 88.3589 178.969C88.7008 178.378 174.325 84.9258 213.5 50.6504C213.778 50.408 214.198 50.4365 214.44 50.7217C214.683 51.0068 214.647 51.4346 214.369 51.6769C175.357 85.8027 91.0015 179.739 90.6596 180.331C90.4103 180.766 89.9687 181.008 89.5057 181.008H89.5128Z" fill="#2B2B2B"/>
<path d="M94.2353 162.402C94.2353 162.402 98.4805 157.868 101.03 157.868C103.58 157.868 108.388 162.117 108.111 164.384C107.826 166.651 103.58 164.669 103.58 164.669C103.58 164.669 99.6201 170.051 95.6527 169.203C91.6924 168.355 94.2353 162.402 94.2353 162.402Z" fill="white" stroke="#2B2B2B" stroke-width="1.16" stroke-linecap="round" stroke-linejoin="round"/>
<path d="M103.58 164.669C103.58 164.669 106.18 166.465 106.408 167.734C106.636 169.003 103.523 172.582 100.069 173.388C96.6072 174.193 94.7623 172.233 95.8023 170.386C96.8422 168.54 100.981 164.826 103.58 164.662V164.669Z" fill="white" stroke="#2B2B2B" stroke-width="1.16" stroke-linecap="round" stroke-linejoin="round"/>
<path d="M210.259 148.251V54.4785C210.259 54.4785 208.372 61.2652 208.372 61.7571" stroke="#2B2B2B" stroke-width="1.16" stroke-linecap="round" stroke-linejoin="round"/>
<path d="M249.328 153.192H177.48V210.807H249.328V153.192Z" fill="#3369FF" stroke="#2B2B2B" stroke-width="1.16" stroke-linecap="round" stroke-linejoin="round"/>
<path d="M211.278 152.949V149.656C211.278 149.199 210.907 148.829 210.452 148.829C209.996 148.829 209.625 149.199 209.625 149.656V152.949H211.278Z" fill="#2B2B2B"/>
<path d="M217.895 144.922L217.881 145.086C217.738 144.844 217.482 144.665 217.176 144.665C216.72 144.665 216.349 145.036 216.349 145.492V154.304C216.349 155.708 215.21 156.841 213.814 156.841C213.45 156.841 213.116 156.763 212.802 156.628C212.581 156.948 212.361 157.561 213.016 158.417C213.272 158.467 213.543 158.495 213.814 158.495C216.121 158.495 218.002 156.613 218.002 154.304V150.219H219.897L217.895 144.915V144.922Z" fill="#2B2B2B"/>
<path d="M210.323 53.5946C210.323 53.5946 211.791 48.3763 210.487 48.861C209.184 49.3529 210.323 53.5946 210.323 53.5946Z" stroke="#2B2B2B" stroke-width="1.16" stroke-linecap="round" stroke-linejoin="round"/>
<path d="M210.323 53.5946C210.323 53.5946 204.782 51.6342 205.273 53.4306C205.765 55.2271 210.323 53.5946 210.323 53.5946Z" stroke="#2B2B2B" stroke-width="1.16" stroke-linecap="round" stroke-linejoin="round"/>
<path d="M90.8519 99.0908C90.8519 99.0908 84.014 95.2555 70.6088 97.1732C57.2036 99.0908 54.6465 110.155 56.8332 121.654C59.0199 133.152 71.6986 142.89 73.6146 142.071C75.5307 141.251 73.0662 115.516 77.4467 110.583C81.8201 105.656 96.0516 106.476 96.8707 102.641C97.6898 98.8057 90.8519 99.0837 90.8519 99.0837V99.0908Z" fill="#3369FF" stroke="#2B2B2B" stroke-width="1.16" stroke-linecap="round" stroke-linejoin="round"/>
<path d="M67.026 105.92L68.4221 114.981C68.4221 114.981 59.8319 138.442 61.228 141.693C62.6169 144.943 75.6161 146.105 75.6161 146.105C75.6161 146.105 96.7354 148.658 103.003 146.105C109.272 143.553 106.024 136.118 105.326 134.029C104.627 131.94 100.681 115.216 100.681 115.216C100.681 115.216 102.078 111.267 102.078 109.178C102.078 107.089 101.842 101.279 100.916 99.8892C99.9905 98.4991 83.7433 96.8666 76.5492 98.0286C69.3552 99.1906 66.1071 101.051 67.0331 105.927L67.026 105.92Z" fill="#3369FF" stroke="#2B2B2B" stroke-width="1.16" stroke-linecap="round" stroke-linejoin="round"/>
<path d="M70.737 116.371C70.737 116.371 70.5019 136.581 71.6629 140.531C72.824 144.48 77.4681 149.128 87.2121 147.966C96.9633 146.804 97.8893 137.515 97.8893 137.515L97.1912 115.915L70.7299 116.378L70.737 116.371Z" fill="white" stroke="#2B2B2B" stroke-width="1.16" stroke-linecap="round" stroke-linejoin="round"/>
<path d="M85.7092 132.625C86.6691 132.625 87.4472 131.846 87.4472 130.885C87.4472 129.925 86.6691 129.146 85.7092 129.146C84.7493 129.146 83.9712 129.925 83.9712 130.885C83.9712 131.846 84.7493 132.625 85.7092 132.625Z" stroke="#2B2B2B" stroke-width="1.16" stroke-miterlimit="10"/>
<path d="M87.2192 138.207C87.2192 138.848 86.6993 139.369 86.0582 139.369C85.4172 139.369 84.8972 138.848 84.8972 138.207C84.8972 137.565 85.4172 137.045 86.0582 137.045C86.6993 137.045 87.2192 137.565 87.2192 138.207Z" fill="#2B2B2B"/>
<path d="M80.2033 123.436C80.944 124.234 81.2076 125.197 80.7802 125.596C80.36 125.988 79.4126 125.66 78.6718 124.862C77.9311 124.063 77.6675 123.101 78.0949 122.702C78.5223 122.302 79.4625 122.637 80.2033 123.436Z" fill="#2B2B2B"/>
<path d="M89.6339 123.436C88.8931 124.234 88.6296 125.197 89.0569 125.596C89.4772 125.988 90.4245 125.66 91.1653 124.861C91.9061 124.063 92.1696 123.101 91.7423 122.701C91.322 122.309 90.3747 122.637 89.6339 123.436Z" fill="#2B2B2B"/>
<path d="M75.2458 120.698C75.2458 120.698 76.7772 118.146 80.0893 118.916" stroke="#2B2B2B" stroke-width="1.16" stroke-linecap="round" stroke-linejoin="round"/>
<path d="M89.2635 119.166C89.2635 119.166 92.5756 118.146 93.5942 120.948" stroke="#2B2B2B" stroke-width="1.16" stroke-linecap="round" stroke-linejoin="round"/>
<path d="M100.439 248.796C100.439 248.796 104.086 246.608 106.109 245.745C106.323 245.653 106.522 245.574 106.693 245.517C108.481 244.918 113.538 245.218 118.303 242.238C123.069 239.258 120.682 235.679 117.114 234.788C113.545 233.897 109.67 232.699 109.67 232.699L108.78 218.691C108.78 218.691 98.0602 221.671 94.4917 223.161C90.916 224.651 93.003 245.809 93.3022 247.599C93.6013 249.388 93.6013 250.579 100.446 248.789L100.439 248.796Z" fill="#2B2B2B" stroke="#2B2B2B" stroke-width="1.16" stroke-linecap="round" stroke-linejoin="round"/>
<path d="M112.349 242.238C106.095 243.428 106.095 244.619 99.2497 245.817C96.3436 246.323 94.4062 246.394 93.1383 246.316C93.2095 246.95 93.2594 247.399 93.295 247.606C93.5942 249.395 93.5942 250.586 100.439 248.796C100.439 248.796 104.086 246.608 106.109 245.745C106.323 245.653 106.522 245.574 106.693 245.517C108.481 244.918 113.538 245.218 118.303 242.238C119.828 241.283 120.618 240.27 120.868 239.301C118.652 240.37 115.582 241.625 112.349 242.238Z" fill="white" stroke="#2B2B2B" stroke-width="1.16" stroke-linecap="round" stroke-linejoin="round"/>
<path d="M114.835 234.603C114.835 234.603 114.599 250.864 114.136 254.35C113.674 257.836 114.372 262.248 119.707 262.248C125.042 262.248 135.491 258.762 139.202 258.064C142.913 257.365 148.953 255.74 151.503 249.937C154.053 244.127 138.504 244.826 138.504 244.826L139.43 232.977C139.43 232.977 123.418 236.228 114.827 234.603H114.835Z" fill="#2B2B2B" stroke="#2B2B2B" stroke-width="1.16" stroke-linecap="round" stroke-linejoin="round"/>
<path d="M151.503 249.937C151.809 249.238 151.852 248.64 151.695 248.119C150.534 249.709 148.583 251.662 145.47 252.96C139.9 255.284 129.458 257.836 121.566 258.998C117.961 259.525 115.675 258.941 114.243 258.149C114.756 260.402 116.259 262.248 119.714 262.248C125.049 262.248 135.498 258.763 139.209 258.064C142.92 257.365 148.96 255.74 151.51 249.937H151.503Z" fill="white" stroke="#2B2B2B" stroke-width="1.16" stroke-linecap="round" stroke-linejoin="round"/>
<path d="M138.511 244.826C138.511 244.826 139.672 248.775 136.424 251.327" stroke="white" stroke-linecap="round" stroke-linejoin="round"/>
<path d="M113.211 226.006C113.211 226.006 112.854 233.07 113.246 234.489C114.735 239.85 115.205 238.595 126.345 238.36C137.485 238.125 141.987 233.669 143.148 230.882C144.309 228.094 143.148 222.056 142.685 219.967C142.222 217.879 138.504 217.18 137.115 217.415C135.726 217.651 113.909 223.689 113.211 226.013V226.006Z" fill="white" stroke="#2B2B2B" stroke-width="1.16" stroke-linecap="round" stroke-linejoin="round"/>
<path d="M36.6186 243.664V259.276C36.6186 260.53 37.3166 261.678 38.4278 262.256L63.5002 275.216C64.4048 275.686 65.4732 275.715 66.4063 275.294L103.338 261.208C104.542 260.666 105.318 259.468 105.318 258.149V239.258L63.0799 252.033L36.6186 243.671V243.664Z" fill="#3369FF"/>
<path d="M64.939 251.463L63.0799 252.026L36.6186 243.664V259.276C36.6186 260.53 37.3166 261.678 38.4278 262.256L63.5002 275.216C63.9489 275.451 64.4404 275.572 64.9319 275.587V251.47L64.939 251.463Z" fill="#003DE6"/>
<path d="M36.6186 243.664V259.276C36.6186 260.53 37.3166 261.678 38.4278 262.256L63.5002 275.216C64.4048 275.686 65.4732 275.715 66.4063 275.294L103.338 261.208C104.542 260.666 105.318 259.468 105.318 258.149V239.258L63.0799 252.033L36.6186 243.671V243.664Z" stroke="#2B2B2B" stroke-width="1.16" stroke-linecap="round" stroke-linejoin="round"/>
<path d="M75.2101 217.308L34.6954 230.304C34.0472 230.511 33.6056 231.117 33.6056 231.801V243.364C33.6056 243.97 33.9546 244.526 34.5031 244.783L62.7167 258.235C63.1013 258.42 63.5429 258.435 63.9418 258.292L106.394 242.416C107.007 242.188 107.413 241.596 107.413 240.94L107.491 230.097C107.491 229.356 106.978 228.722 106.259 228.558L76.0364 217.266C75.7657 217.208 75.4808 217.223 75.2173 217.301L75.2101 217.308Z" fill="white"/>
<mask id="mask0_5868_519" style="mask-type:luminance" maskUnits="userSpaceOnUse" x="33" y="217" width="75" height="42">
<path d="M75.2101 217.308L34.6954 230.304C34.0472 230.511 33.6056 231.117 33.6056 231.801V243.364C33.6056 243.97 33.9546 244.526 34.5031 244.783L62.7167 258.235C63.1013 258.42 63.5429 258.435 63.9418 258.292L106.394 242.416C107.007 242.188 107.413 241.596 107.413 240.94L107.491 230.097C107.491 229.356 106.978 228.722 106.259 228.558L76.0364 217.266C75.7657 217.208 75.4808 217.223 75.2173 217.301L75.2101 217.308Z" fill="white"/>
</mask>
<g mask="url(#mask0_5868_519)">
<path d="M62.6953 258.235H62.7095C63.0942 258.427 63.5358 258.442 63.9347 258.292L106.387 242.416C106.999 242.188 107.405 241.596 107.405 240.94L107.484 230.097C107.484 229.72 107.348 229.363 107.113 229.085L63.3078 245.282L62.6953 258.228V258.235Z" fill="#99B4FF"/>
<path d="M33.6056 231.801V243.364C33.6056 243.97 33.9546 244.526 34.5031 244.783L62.7167 258.235C62.909 258.328 63.1084 258.377 63.315 258.385V245.282L33.6483 231.53C33.6341 231.616 33.6056 231.701 33.6056 231.794V231.801Z" fill="#99B4FF"/>
</g>
<path d="M75.2101 217.308L34.6954 230.304C34.0472 230.511 33.6056 231.117 33.6056 231.801V243.364C33.6056 243.97 33.9546 244.526 34.5031 244.783L62.7167 258.235C63.1013 258.42 63.5429 258.435 63.9418 258.292L106.394 242.416C107.007 242.188 107.413 241.596 107.413 240.94L107.491 230.097C107.491 229.356 106.978 228.722 106.259 228.558L76.0364 217.266C75.7657 217.208 75.4808 217.223 75.2173 217.301L75.2101 217.308Z" stroke="#2B2B2B" stroke-width="1.16" stroke-linecap="round" stroke-linejoin="round"/>
<path d="M130.847 196.043C130.847 196.043 136.182 198.595 138.967 203.707C141.752 208.818 139.665 218.57 138.041 221.593C136.417 224.615 125.505 226.006 121.794 226.006C118.083 226.006 117.384 225.542 117.384 225.542C117.384 225.542 105.546 227.866 98.1243 229.256C90.6952 230.654 92.5542 213.231 94.8763 205.332C97.1983 197.433 110.198 193.484 115.533 193.484C120.868 193.484 130.854 196.036 130.854 196.036L130.847 196.043Z" fill="#2B2B2B" stroke="#2B2B2B" stroke-width="1.16" stroke-linecap="round" stroke-linejoin="round"/>
<path d="M115 227.311C115 227.311 124.979 223.825 129.16 215" stroke="white" stroke-linecap="round" stroke-linejoin="round"/>
<path d="M123.486 222.389C123.486 222.389 127.962 220.958 132.321 216.959" stroke="white" stroke-linecap="round" stroke-linejoin="round"/>
<path d="M103.459 203.706C103.459 203.706 106.244 218.342 104.848 224.38C103.459 230.418 95.3322 231.352 93.4731 230.653C91.614 229.955 92.5471 215.555 92.5471 208.354C92.5471 201.154 99.7412 201.618 103.452 203.706H103.459Z" fill="white" stroke="#2B2B2B" stroke-width="1.16" stroke-linecap="round" stroke-linejoin="round"/>
<path d="M44.2828 164.683C44.2828 164.683 42.6587 174.207 43.8198 178.855C44.9808 183.503 47.0678 186.055 47.0678 186.055C47.0678 186.055 41.2627 194.653 42.4237 201.853C43.5847 209.053 46.6048 209.98 46.6048 209.98C46.6048 209.98 44.0548 223.218 48.6918 227.866C53.3359 232.514 63.5429 237.625 74.9181 235.53C86.2933 233.441 93.9504 232.977 96.2724 229.028C98.5945 225.079 97.1984 207.656 97.1984 207.656C97.1984 207.656 96.7354 188.379 96.2724 176.531C95.8094 164.683 94.1854 155.159 88.6153 150.518C83.0453 145.87 58.443 153.07 51.0138 157.954C43.5847 162.83 44.2828 164.69 44.2828 164.69V164.683Z" fill="white"/>
<path d="M44.2828 164.683C44.2828 164.683 42.6587 174.207 43.8198 178.855C44.9808 183.503 47.0678 186.055 47.0678 186.055C47.0678 186.055 41.2627 194.653 42.4237 201.853C43.5847 209.053 46.6048 209.98 46.6048 209.98C46.6048 209.98 44.0548 223.218 48.6918 227.866C53.3359 232.514 63.5429 237.625 74.9181 235.53C86.2933 233.441 93.9504 232.977 96.2724 229.028C98.5945 225.079 97.1984 207.656 97.1984 207.656C97.1984 207.656 96.7354 188.379 96.2724 176.531C95.8094 164.683 94.1854 155.159 88.6153 150.518C83.0453 145.87 58.443 153.07 51.0138 157.954C43.5847 162.83 44.2828 164.69 44.2828 164.69V164.683Z" stroke="#2B2B2B" stroke-width="1.16" stroke-linecap="round" stroke-linejoin="round"/>
<path d="M47.0678 186.055C47.0678 186.055 57.5099 194.182 71.898 189.541" stroke="#2B2B2B" stroke-width="1.16" stroke-linecap="round" stroke-linejoin="round"/>
<path d="M46.5977 209.98C46.5977 209.98 58.4358 221.593 77.9311 210.443" stroke="#2B2B2B" stroke-width="1.16" stroke-linecap="round" stroke-linejoin="round"/>
<path d="M92.7893 153.306C92.7893 153.306 88.3803 146.569 82.3472 142.855C76.3142 139.141 60.765 136.353 54.4969 135.191C48.2288 134.029 41.4977 134.493 39.6458 141.465C37.7867 148.437 38.0218 160.05 39.8808 165.161C41.7399 170.272 49.3969 173.288 55.43 169.809C61.463 166.323 78.1732 152.849 83.9784 152.158C89.7835 151.459 92.3335 155.872 92.7964 153.32L92.7893 153.306Z" fill="white"/>
<path d="M92.7893 153.306C92.7893 153.306 88.3803 146.569 82.3472 142.855C76.3142 139.141 60.765 136.353 54.4969 135.191C48.2288 134.029 41.4977 134.493 39.6458 141.465C37.7867 148.437 38.0218 160.05 39.8808 165.161C41.7399 170.272 49.3969 173.288 55.43 169.809C61.463 166.323 78.1732 152.849 83.9784 152.158C89.7835 151.459 92.3335 155.872 92.7964 153.32L92.7893 153.306Z" stroke="#2B2B2B" stroke-width="1.16" stroke-linecap="round" stroke-linejoin="round"/>
<path d="M117.855 184.893C117.855 184.893 123.19 185.592 126.673 186.982C130.156 188.372 132.478 196.97 131.082 198.132C129.693 199.294 126.901 197.896 126.901 197.896C126.901 197.896 122.955 199.294 120.17 199.522C117.385 199.757 114.364 186.512 117.847 184.886L117.855 184.893Z" fill="white" stroke="#2B2B2B" stroke-width="1.16" stroke-linecap="round" stroke-linejoin="round"/>
<path d="M100.211 184.195C100.211 184.195 101.137 184.195 106.244 181.871C111.351 179.547 115.525 179.547 118.781 184.658C122.029 189.77 123.425 196.043 121.566 199.757C119.707 203.471 112.748 206.03 109.029 206.03C105.311 206.03 104.848 201.154 104.848 201.154C104.848 201.154 104.385 193.491 102.063 190.703C99.7412 187.916 99.2782 184.893 100.204 184.202L100.211 184.195Z" fill="white" stroke="#2B2B2B" stroke-width="1.16" stroke-linecap="round" stroke-linejoin="round"/>
<path d="M83.0381 153.306C88.1452 151.445 94.6412 152.607 96.9633 159.116C99.2853 165.617 101.372 184.665 101.372 184.665C101.372 184.665 107.177 185.364 109.492 187.916C111.814 190.468 112.975 196.977 112.512 200.228C112.049 203.478 103.922 209.517 94.6412 209.752C85.3602 209.987 78.6291 205.567 75.3811 193.726C72.1331 181.878 73.4223 163.806 73.4223 163.806C73.4223 163.806 74.6047 158.495 76.3711 157.312" fill="white"/>
<path d="M82 153C87.1071 151.139 94.6412 152.607 96.9633 159.116C99.2853 165.617 101.372 184.665 101.372 184.665C101.372 184.665 107.177 185.364 109.492 187.916C111.814 190.468 112.975 196.977 112.512 200.228C112.049 203.478 103.922 209.516 94.6412 209.752C85.3602 209.987 78.6291 205.567 75.3811 193.726C73.6925 187.566 69.2664 163.016 77.5 157.5" stroke="#2B2B2B" stroke-width="1.16" stroke-linecap="round" stroke-linejoin="round"/>
<path d="M101.372 184.665C101.372 184.665 103.182 193.127 93.8649 197.789" stroke="#2B2B2B" stroke-width="1.16" stroke-linecap="round" stroke-linejoin="round"/>
<path d="M186.027 188.843L195.437 166.572H201.078V188.843H203.521V193.548H201.078V199.529H195.999V193.548H186.027V188.843ZM195.999 188.843V176.46L190.778 188.843H195.999Z" fill="#99B4FF"/>
<path d="M205.459 174.485C205.459 169.21 208.236 166.202 213.315 166.202C218.394 166.202 221.172 169.217 221.172 174.485V191.623C221.172 196.898 218.394 199.907 213.315 199.907C208.236 199.907 205.459 196.891 205.459 191.623V174.485ZM210.63 191.951C210.63 194.304 211.663 195.202 213.308 195.202C214.953 195.202 215.986 194.304 215.986 191.951V174.157C215.986 171.805 214.953 170.907 213.308 170.907C211.663 170.907 210.63 171.805 210.63 174.157V191.951Z" fill="#99B4FF"/>
<path d="M225.794 174.485C225.794 169.21 228.572 166.202 233.651 166.202C238.729 166.202 241.507 169.217 241.507 174.485V191.623C241.507 196.898 238.729 199.907 233.651 199.907C228.572 199.907 225.794 196.891 225.794 191.623V174.485ZM230.965 191.951C230.965 194.304 231.998 195.202 233.644 195.202C235.289 195.202 236.322 194.304 236.322 191.951V174.157C236.322 171.805 235.289 170.907 233.644 170.907C231.998 170.907 230.965 171.805 230.965 174.157V191.951Z" fill="#99B4FF"/>
</g>
<defs>
<clipPath id="clip0_5868_519">
<rect width="300" height="300" fill="white"/>
</clipPath>
</defs>
</svg>
