<svg width="300" height="300" viewBox="0 0 300 300" fill="none" xmlns="http://www.w3.org/2000/svg">
<path d="M230.782 291.43L248.393 204.315L254.205 150.849C254.205 150.849 195.721 93.3874 179.011 74.5653C162.301 55.7432 143.479 28.7411 134.869 30.7592C126.258 32.7773 124.603 42.5987 130.24 54.6938C132.555 59.6583 136.066 65.1744 137.654 70.3139C138.999 74.498 138.555 86.2837 134.505 89.2436C129.648 92.7954 125.007 75.6282 118.845 78.6822C115.603 80.2832 112.387 88.6112 115.159 97.5178C116.824 101.797 118.916 105.899 121.401 109.761C126.473 117.927 126.514 123.026 129.756 131.973C133.093 141.176 132.245 128.744 129.137 137.18C125.357 147.418 120.042 159.393 119.814 170.492C119.464 188.238 140.829 216.962 149.614 230.968C158.4 244.973 141.448 278.231 141.448 278.231L230.782 291.43Z" fill="white"/>
<path d="M230.782 292.116H230.701L141.353 278.945C141.249 278.93 141.149 278.89 141.063 278.829C140.976 278.768 140.905 278.688 140.856 278.595C140.809 278.498 140.785 278.393 140.785 278.285C140.785 278.178 140.809 278.073 140.856 277.976C141.03 277.64 157.552 244.906 149.062 231.385C147.623 229.084 145.793 226.326 143.869 223.407C133.913 208.338 118.858 185.574 119.154 170.533C119.343 161.034 123.191 150.85 126.675 141.862C127.307 140.207 127.926 138.58 128.518 137.005C128.822 136.01 129.276 135.066 129.864 134.207C129.622 133.696 129.366 133.05 129.083 132.256C127.98 129.229 127.254 126.673 126.567 124.184C125.383 119.233 123.431 114.498 120.782 110.151C118.262 106.237 116.148 102.076 114.472 97.7333C111.58 88.3963 114.93 79.853 118.509 78.0771C122.087 76.3012 125.236 80.4046 127.926 84.0641C128.941 85.575 130.108 86.9772 131.411 88.2483C132.756 89.3919 133.537 89.1228 134.102 88.7057C137.788 86.0149 138.326 74.7136 137.021 70.516C135.765 66.9848 134.198 63.5721 132.339 60.3179C131.357 58.4612 130.429 56.7122 129.648 54.9363C126.043 47.1733 125.316 40.3118 127.603 35.5895C128.291 34.1849 129.292 32.9564 130.528 31.998C131.764 31.0396 133.202 30.3766 134.734 30.0599C141.596 28.4858 153.26 42.599 166.768 58.959C170.992 64.0715 175.365 69.3589 179.549 74.0813C196.03 92.6612 254.111 149.693 254.703 150.271C254.775 150.342 254.829 150.429 254.861 150.525C254.894 150.621 254.904 150.722 254.891 150.823L249.093 204.356L231.468 291.524C231.451 291.692 231.37 291.847 231.243 291.957C231.115 292.067 230.95 292.124 230.782 292.116ZM142.457 277.72L230.257 290.663L247.747 204.194L253.506 151.038C249.469 147.002 194.51 93.0379 178.527 75.0096C174.329 70.2738 169.943 64.9729 165.718 59.847C153.61 45.1822 141.071 29.9926 135.03 31.4188C133.689 31.6792 132.428 32.2491 131.347 33.0829C130.265 33.9168 129.394 34.9916 128.801 36.2218C126.715 40.5002 127.455 47.133 130.859 54.4116C131.653 56.1068 132.568 57.8423 133.55 59.6855C135.437 63.019 137.027 66.5127 138.299 70.1258C139.645 74.31 139.376 86.5262 134.895 89.8089C133.55 90.7776 132.11 90.6027 130.55 89.2842C129.155 87.9564 127.914 86.4761 126.85 84.8713C124.374 81.4809 121.805 77.9695 119.141 79.3014C116.477 80.6333 113.06 88.5308 115.804 97.3566C117.455 101.586 119.519 105.641 121.966 109.465C124.69 113.916 126.693 118.77 127.899 123.847C128.586 126.283 129.245 128.812 130.388 131.799C130.631 132.485 130.859 133.037 131.048 133.454C131.164 133.44 131.281 133.44 131.397 133.454C131.761 133.571 132.075 133.807 132.287 134.124C132.499 134.442 132.598 134.822 132.568 135.203C132.601 135.44 132.543 135.682 132.406 135.879C132.268 136.075 132.062 136.214 131.828 136.265C131.451 136.265 131.075 136.185 130.631 135.539C130.298 136.132 130.019 136.753 129.796 137.396C129.204 138.983 128.586 140.625 127.94 142.279C124.549 151.159 120.702 161.223 120.513 170.533C120.231 185.144 135.138 207.706 144.999 222.64C146.937 225.573 148.766 228.331 150.22 230.645C158.4 243.682 145.094 272.339 142.457 277.72Z" fill="#3D3939"/>
<path d="M95.9427 207.487L185.882 235.466C189.508 236.594 193.361 234.569 194.489 230.943L254.315 38.6279C255.443 35.0024 253.418 31.149 249.793 30.0211L159.853 2.04242C156.227 0.914566 152.374 2.93937 151.246 6.56494L91.4202 198.88C90.2923 202.506 92.3171 206.359 95.9427 207.487Z" fill="white"/>
<path d="M187.931 236.43C187.174 236.43 186.421 236.317 185.698 236.094L95.7578 208.109C93.8578 207.508 92.2712 206.183 91.342 204.42C90.4127 202.657 90.2155 200.599 90.7933 198.692L150.636 6.34048C151.235 4.43842 152.56 2.84958 154.324 1.9198C156.087 0.99002 158.147 0.794564 160.054 1.37598L249.98 29.3602C251.883 29.9583 253.471 31.2834 254.401 33.0473C255.331 34.8111 255.526 36.8708 254.945 38.778L195.156 231.116C194.672 232.654 193.712 233.999 192.412 234.955C191.113 235.91 189.544 236.427 187.931 236.43ZM96.1614 206.818L186.088 234.802C187.654 235.289 189.349 235.138 190.805 234.382C192.261 233.627 193.36 232.327 193.864 230.766L253.694 38.4147C254.184 36.8482 254.035 35.1514 253.279 33.6945C252.523 32.2376 251.221 31.139 249.658 30.6383L159.731 2.6541C158.165 2.16376 156.468 2.31295 155.011 3.06912C153.554 3.8253 152.456 5.12705 151.955 6.69029L92.1252 199.055C91.6353 200.62 91.7848 202.315 92.5412 203.769C93.2976 205.224 94.5992 206.32 96.1614 206.818Z" fill="#3D3939"/>
<path d="M103.521 178.307L195.761 207.001L244.948 48.8842L152.709 20.1901L103.521 178.307Z" fill="#ECECEC"/>
<path d="M151.847 218.442C151.351 218.444 150.856 218.371 150.381 218.227L132.891 212.764C132.277 212.573 131.707 212.262 131.213 211.85C130.719 211.438 130.311 210.933 130.012 210.363C129.714 209.793 129.53 209.17 129.472 208.53C129.415 207.889 129.484 207.243 129.675 206.629L131.761 199.902C132.148 198.662 133.011 197.626 134.161 197.02C135.311 196.415 136.654 196.29 137.896 196.674L155.386 202.136C156.626 202.523 157.663 203.386 158.268 204.536C158.873 205.686 158.998 207.029 158.615 208.271L156.529 214.998C156.215 215.994 155.592 216.865 154.751 217.484C153.909 218.104 152.892 218.439 151.847 218.442ZM136.375 197.817C135.617 197.818 134.879 198.061 134.269 198.511C133.659 198.961 133.209 199.595 132.985 200.32L130.9 207.047C130.758 207.493 130.707 207.962 130.748 208.428C130.79 208.894 130.923 209.348 131.141 209.762C131.358 210.176 131.656 210.543 132.017 210.841C132.377 211.139 132.793 211.363 133.241 211.5L150.731 216.962C151.177 217.103 151.646 217.155 152.113 217.113C152.579 217.072 153.032 216.939 153.446 216.721C153.86 216.503 154.227 216.206 154.525 215.845C154.824 215.485 155.048 215.069 155.184 214.621L157.269 207.894C157.548 206.991 157.458 206.015 157.019 205.178C156.581 204.342 155.829 203.712 154.928 203.427L137.438 197.979C137.094 197.872 136.736 197.817 136.375 197.817Z" fill="#D9D9D9"/>
<path d="M220.557 31.6741H220.368L194.093 23.5076C193.914 23.4541 193.765 23.3319 193.676 23.1679C193.588 23.0039 193.568 22.8115 193.622 22.6331C193.675 22.4547 193.798 22.3048 193.962 22.2165C194.126 22.1282 194.318 22.1087 194.496 22.1622L220.759 30.3287C220.928 30.3844 221.07 30.5041 221.153 30.6624C221.236 30.8207 221.254 31.0051 221.203 31.1763C221.164 31.3186 221.08 31.4443 220.964 31.5342C220.847 31.6242 220.704 31.6733 220.557 31.6741Z" fill="#D9D9D9"/>
<path d="M190.716 22.0412H190.514L186.989 20.938C186.811 20.8845 186.661 20.7623 186.573 20.5983C186.484 20.4343 186.465 20.2419 186.518 20.0635C186.572 19.8851 186.694 19.7352 186.858 19.6469C187.022 19.5586 187.214 19.5391 187.393 19.5926L190.918 20.6958C191.088 20.7515 191.229 20.8712 191.312 21.0295C191.395 21.1878 191.413 21.3722 191.362 21.5434C191.321 21.6846 191.237 21.8091 191.121 21.8987C191.005 21.9883 190.863 22.0382 190.716 22.0412Z" fill="#D9D9D9"/>
<path d="M143.923 96.4685C143.43 98.3 142.396 99.94 140.956 101.174C139.515 102.408 137.736 103.178 135.851 103.384C131.163 103.944 126.436 102.73 122.598 99.98C120.393 98.4354 118.51 96.4748 117.055 94.2083C114.553 90.2932 113.759 85.8399 115.306 82.4226C117.836 76.8392 126.554 75.5476 134.061 78.8439C141.084 81.9248 145.08 91.2484 143.923 96.4685Z" fill="white"/>
<path d="M133.55 104.232C129.484 104.162 125.533 102.873 122.208 100.532C119.929 98.94 117.986 96.9147 116.49 94.5718C113.8 90.3203 113.1 85.6652 114.688 82.1403C117.311 76.382 126.11 74.633 134.33 78.2387C141.555 81.4003 145.847 90.8854 144.569 96.6168C144.058 98.5829 142.961 100.347 141.422 101.674C139.884 103 137.978 103.827 135.958 104.043C135.162 104.174 134.357 104.237 133.55 104.232ZM125.76 77.7409C121.213 77.7409 117.351 79.4899 115.898 82.7054C114.445 85.9209 115.118 89.9705 117.594 93.8452C119.003 96.0424 120.831 97.9398 122.975 99.4286C126.66 102.083 131.206 103.259 135.716 102.725C137.473 102.546 139.134 101.838 140.479 100.694C141.824 99.5507 142.791 98.0256 143.25 96.3208C144.286 91.6657 140.761 82.5305 133.833 79.463C131.289 78.3389 128.541 77.7526 125.76 77.7409Z" fill="#3D3939"/>
<path d="M134.519 122.004C134.928 123.279 135.043 124.631 134.854 125.957C134.665 127.283 134.178 128.549 133.429 129.659C132.392 130.916 131.074 131.912 129.581 132.565C125.545 134.53 120.715 135.256 116.706 133.346C114.3 132.032 112.221 130.192 110.625 127.964C107.705 124.251 105.149 119.892 105.243 115.169C105.404 108.335 112.818 100.572 119.894 103.787C125.76 106.371 132.837 116.017 134.519 122.004Z" fill="white"/>
<path d="M121.912 135.148C120.011 135.174 118.129 134.764 116.41 133.951C113.907 132.579 111.75 130.656 110.1 128.327C106.238 123.417 104.489 119.219 104.584 115.102C104.734 112.857 105.409 110.679 106.554 108.742C107.699 106.805 109.282 105.163 111.176 103.949C112.483 103.053 113.998 102.507 115.576 102.363C117.154 102.22 118.743 102.483 120.19 103.128C126.204 105.819 133.456 115.694 135.164 121.829C135.603 123.205 135.723 124.662 135.516 126.091C135.308 127.519 134.779 128.882 133.967 130.076C132.88 131.407 131.498 132.466 129.931 133.171C127.445 134.437 124.702 135.114 121.912 135.148ZM116.531 103.666C114.896 103.67 113.297 104.137 111.916 105.012C110.21 106.108 108.783 107.588 107.748 109.332C106.714 111.077 106.1 113.039 105.956 115.062C105.862 118.856 107.53 122.784 111.176 127.426C112.711 129.59 114.711 131.383 117.029 132.673C120.446 134.328 124.926 134.018 129.312 131.893C130.714 131.3 131.951 130.377 132.918 129.202C133.607 128.176 134.053 127.007 134.223 125.783C134.394 124.56 134.283 123.313 133.9 122.138C132.299 116.394 125.262 106.841 119.652 104.299C118.661 103.861 117.587 103.645 116.504 103.666H116.531Z" fill="#3D3939"/>
<path d="M124.603 141.041C125.723 142.472 126.517 144.129 126.931 145.898C127.251 147.911 126.994 149.973 126.189 151.845C125.384 153.717 124.065 155.322 122.383 156.473C120.682 157.588 118.775 158.352 116.774 158.72C114.773 159.087 112.719 159.051 110.732 158.612C108.366 158.178 106.117 157.25 104.133 155.89C102.149 154.529 100.473 152.766 99.2155 150.715C97.9944 148.638 97.3371 146.277 97.3088 143.868C97.2804 141.459 97.8821 139.084 99.0541 136.978C105.579 126.054 118.912 133.359 124.603 141.041Z" fill="white"/>
<path d="M114.096 159.621C112.921 159.617 111.75 159.5 110.598 159.271C108.139 158.817 105.803 157.85 103.743 156.434C101.682 155.017 99.9426 153.183 98.637 151.051C97.3504 148.871 96.6584 146.392 96.6301 143.861C96.6017 141.33 97.2381 138.836 98.4755 136.628C99.3599 134.96 100.658 133.546 102.246 132.524C103.834 131.501 105.658 130.904 107.543 130.789C114.001 130.426 121.307 135.485 125.141 140.638C126.324 142.146 127.16 143.896 127.59 145.764C127.931 147.904 127.659 150.097 126.807 152.089C125.955 154.082 124.557 155.793 122.773 157.025C120.216 158.76 117.186 159.667 114.096 159.621ZM108.176 132.121H107.611C105.946 132.218 104.334 132.746 102.936 133.654C101.537 134.563 100.398 135.819 99.6326 137.301C98.5169 139.301 97.9447 141.558 97.973 143.848C98.0013 146.138 98.6292 148.38 99.794 150.352C101.003 152.323 102.613 154.018 104.521 155.326C106.429 156.633 108.591 157.524 110.867 157.94C112.763 158.366 114.725 158.406 116.637 158.057C118.548 157.707 120.37 156.977 121.993 155.908C123.565 154.83 124.801 153.33 125.558 151.581C126.315 149.831 126.562 147.903 126.271 146.019C125.88 144.347 125.127 142.781 124.065 141.432C120.553 136.723 114.055 132.121 108.176 132.121Z" fill="#3D3939"/>
<path d="M236.407 245.795C240.74 245.741 244.216 249.359 243.99 253.686L241.967 292.392C241.759 296.376 238.467 299.5 234.477 299.5H131.307C126.035 299.5 122.409 294.204 124.315 289.289L138.883 251.714C139.99 248.859 142.721 246.964 145.782 246.926L236.407 245.795Z" fill="#3369FF" stroke="#3D3939"/>
<path d="M247.438 207.356C247.438 207.356 263.946 152.06 260.892 139.144C257.838 126.229 251.878 73.9734 246.509 71.9553C241.141 69.9373 230.365 84.8039 230.647 101.07C230.723 110.668 232.275 120.197 235.248 129.323C235.248 129.323 217.409 137.18 215.404 180.986" fill="white"/>
<path d="M247.438 208.056H247.249C247.079 208 246.937 207.881 246.852 207.723C246.767 207.565 246.745 207.381 246.792 207.208C246.967 206.656 263.206 151.953 260.246 139.346C259.318 135.31 258.107 127.695 256.708 118.842C254.017 102.025 249.644 73.8928 246.294 72.6416C245.642 72.5107 244.969 72.5324 244.327 72.7051C243.686 72.8779 243.092 73.1969 242.594 73.6372C237.051 77.5254 231.172 89.1362 231.333 101.124C231.433 110.628 232.97 120.063 235.894 129.108C235.954 129.267 235.951 129.443 235.886 129.6C235.821 129.758 235.699 129.885 235.544 129.955C235.544 129.955 231.132 131.987 226.584 139.225C222.36 145.952 217.166 158.653 216.09 181.027C216.089 181.117 216.069 181.206 216.031 181.288C215.994 181.37 215.94 181.444 215.873 181.504C215.807 181.565 215.728 181.611 215.643 181.64C215.557 181.669 215.467 181.68 215.377 181.672C215.201 181.662 215.036 181.583 214.918 181.452C214.799 181.321 214.737 181.149 214.745 180.973C216.574 141.055 231.32 130.749 234.441 129C231.603 119.957 230.107 110.547 230.001 101.07C229.827 88.6518 236.015 76.5567 241.841 72.4667C242.505 71.8829 243.304 71.4719 244.165 71.2701C245.026 71.0683 245.924 71.0819 246.779 71.3097C250.573 72.7358 253.842 91.8 258.053 118.56C259.398 127.399 260.65 135.028 261.564 138.97C264.605 151.926 248.756 205.271 248.11 207.585C248.068 207.728 247.979 207.852 247.856 207.938C247.734 208.023 247.587 208.065 247.438 208.056Z" fill="#3D3939"/>
<path d="M177.531 27.9341H50.6871C47.5006 27.9341 44.4447 29.1999 42.1916 31.453C39.9385 33.7061 38.6727 36.7621 38.6727 39.9485V123.699C38.6709 125.278 38.9804 126.842 39.5834 128.301C40.1863 129.76 41.071 131.086 42.1868 132.204C43.3027 133.321 44.6277 134.207 46.0863 134.811C47.5448 135.416 49.1082 135.727 50.6871 135.727H158.238L175.943 158.249V135.727H177.531C179.11 135.727 180.673 135.416 182.132 134.811C183.59 134.207 184.915 133.321 186.031 132.204C187.147 131.086 188.032 129.76 188.635 128.301C189.238 126.842 189.547 125.278 189.545 123.699V39.9485C189.545 38.3707 189.235 36.8084 188.631 35.3508C188.027 33.8931 187.142 32.5687 186.026 31.453C184.911 30.3374 183.586 29.4524 182.129 28.8486C180.671 28.2448 179.109 27.9341 177.531 27.9341Z" fill="white"/>
<path d="M175.943 158.922C175.839 158.921 175.737 158.896 175.643 158.849C175.55 158.803 175.469 158.735 175.405 158.653L157.915 136.4H50.6871C47.3221 136.393 44.0972 135.052 41.7191 132.671C39.3409 130.29 38.0036 127.064 38 123.699V39.9483C38.0036 36.5846 39.3414 33.3596 41.7199 30.9811C44.0984 28.6026 47.3234 27.2648 50.6871 27.2612H177.531C180.895 27.2648 184.12 28.6026 186.498 30.9811C188.877 33.3596 190.215 36.5846 190.218 39.9483V123.699C190.215 127.064 188.877 130.29 186.499 132.671C184.121 135.052 180.896 136.393 177.531 136.4H176.616V158.249C176.613 158.388 176.568 158.524 176.486 158.636C176.404 158.749 176.29 158.835 176.159 158.881C176.09 158.908 176.017 158.921 175.943 158.922ZM50.6871 28.6066C47.6802 28.6102 44.7974 29.8063 42.6712 31.9325C40.545 34.0587 39.349 36.9414 39.3454 39.9483V123.699C39.3489 126.707 40.5446 129.591 42.6704 131.72C44.7962 133.848 47.6789 135.047 50.6871 135.054H158.238C158.341 135.056 158.442 135.079 158.535 135.123C158.628 135.167 158.71 135.231 158.776 135.31L175.271 156.298V135.727C175.271 135.549 175.342 135.378 175.468 135.251C175.594 135.125 175.765 135.054 175.943 135.054H177.531C180.539 135.047 183.422 133.848 185.548 131.72C187.674 129.591 188.869 126.707 188.873 123.699V39.9483C188.869 36.9414 187.673 34.0587 185.547 31.9325C183.421 29.8063 180.538 28.6102 177.531 28.6066H50.6871Z" fill="#3D3939"/>
<path d="M134.737 104.891C131.781 104.891 129.001 103.74 126.911 101.65L115.61 90.3498C114.817 89.5542 113.434 89.5567 112.641 90.3498L101.299 101.692C99.209 103.781 96.429 104.932 93.4729 104.932H91.246L105.558 119.244C110.028 123.714 117.275 123.714 121.745 119.244L136.099 104.891H134.737Z" fill="#3369FF"/>
<path d="M93.4725 64.9184C96.4286 64.9184 99.2086 66.0697 101.299 68.1591L112.64 79.5027C113.457 80.3195 114.791 80.3231 115.61 79.5016L126.91 68.2002C129.001 66.1109 131.781 64.9599 134.737 64.9599H136.098L121.745 50.6066C117.275 46.1367 110.028 46.1367 105.558 50.6066L91.246 64.9184H93.4725Z" fill="#3369FF"/>
<path d="M139.296 68.1581L147.97 76.832C152.44 81.3016 152.44 88.5487 147.97 93.019L139.297 101.692C139.105 101.616 138.899 101.568 138.681 101.568H134.737C132.698 101.568 130.702 100.741 129.262 99.2995L117.961 88.0002C115.913 85.9498 112.34 85.9509 110.29 87.9991L98.9481 99.3409C97.5072 100.782 95.5118 101.609 93.4728 101.609H88.6237C88.4171 101.609 88.2232 101.658 88.0407 101.727L79.3329 93.019C74.863 88.5487 74.863 81.3016 79.3329 76.832L88.0411 68.1238C88.2236 68.1925 88.4171 68.2414 88.6237 68.2414H93.4728C95.5118 68.2414 97.5072 69.0681 98.9481 70.5097L110.291 81.8526C111.348 82.909 112.737 83.4384 114.126 83.4384C115.515 83.4384 116.904 82.909 117.961 81.8516L129.262 70.5508C130.702 69.1093 132.698 68.2825 134.737 68.2825H138.681C138.899 68.2825 139.105 68.2347 139.296 68.1581Z" fill="#3369FF"/>
</svg>
