<svg width="300" height="300" viewBox="0 0 300 300" fill="none" xmlns="http://www.w3.org/2000/svg">
<path fill-rule="evenodd" clip-rule="evenodd" d="M141.178 0.00589354C171.565 0.320486 200.681 14.5854 222.696 35.4934C243.012 54.788 245.522 84.3737 256.934 109.942C270.209 139.682 299.146 165.064 294.94 197.35C290.56 230.972 263.583 258.023 235.214 276.671C207.668 294.779 173.705 303.886 141.178 298.427C111.211 293.397 91.8491 266.845 67.6174 248.542C44.0129 230.713 9.09205 221.348 1.36849 192.825C-6.3386 164.364 20.5773 139.357 30.5354 111.6C40.0724 85.0167 38.5237 53.8628 58.4227 33.7927C79.9127 12.1178 110.629 -0.310387 141.178 0.00589354Z" fill="#F3ABA5"/>
<path d="M232.583 234.546H232.277C230.868 234.47 229.546 233.839 228.603 232.79C227.659 231.741 227.169 230.361 227.242 228.951L234.714 88.8923C234.79 87.4792 235.424 86.1542 236.477 85.2087C237.53 84.2632 238.916 83.7747 240.329 83.8507C241.742 83.9266 243.067 84.5608 244.012 85.6137C244.958 86.6666 245.446 88.0519 245.37 89.465L237.898 229.511C237.823 230.87 237.231 232.149 236.242 233.086C235.254 234.022 233.945 234.544 232.583 234.546Z" fill="black"/>
<path d="M56.227 183.45C53.6042 183.494 50.9967 183.042 48.5414 182.118C38.8179 178.309 35.661 172.009 34.7286 167.467C31.3187 150.737 51.5384 130.331 53.8561 128.066C54.3513 127.557 54.9433 127.152 55.5973 126.875C56.2513 126.598 56.9542 126.454 57.6645 126.453C58.3748 126.451 59.0782 126.592 59.7334 126.866C60.3886 127.14 60.9823 127.543 61.4797 128.05C61.977 128.557 62.368 129.159 62.6295 129.819C62.891 130.479 63.0178 131.185 63.0025 131.896C62.9872 132.606 62.83 133.306 62.5403 133.954C62.2505 134.603 61.834 135.187 61.3152 135.672C54.1624 142.705 43.4532 156.984 45.1715 165.349C45.3979 166.441 46.0772 169.771 52.4309 172.262C63.8993 176.764 87.1693 158.422 99.1439 145.808C100.13 144.851 101.449 144.312 102.824 144.304C104.199 144.296 105.523 144.819 106.521 145.765C107.518 146.711 108.112 148.006 108.177 149.38C108.242 150.753 107.773 152.098 106.869 153.134C103.619 156.451 77.3658 183.45 56.227 183.45Z" fill="black"/>
<path d="M81.7615 69.6983C81.7615 69.6983 69.7736 63.984 66.6967 74.0539C63.6197 84.1238 63.0203 114.16 60.1965 117.61C57.1972 120.855 53.9748 123.886 50.5529 126.681L63.4732 152.349L92.1377 139.455C92.1377 139.455 82.1478 83.5643 81.7615 69.6983Z" fill="white"/>
<path d="M63.4066 153.001C63.2772 152.999 63.1507 152.962 63.0405 152.894C62.9303 152.826 62.8405 152.73 62.7806 152.615L49.8736 126.961C49.8016 126.822 49.7796 126.663 49.8111 126.51C49.8427 126.358 49.9259 126.22 50.0467 126.122C53.4303 123.345 56.6211 120.341 59.5971 117.131C60.9291 115.506 61.8349 106.155 62.7007 97.1507C63.5665 88.1464 64.4722 78.7558 65.9774 73.8541C66.287 72.6172 66.8686 71.4649 67.6796 70.481C68.4907 69.4971 69.5109 68.7064 70.666 68.1665C75.5278 66.0353 81.7348 68.9523 82.0012 69.0855C82.1129 69.1388 82.2079 69.2215 82.276 69.3248C82.344 69.4281 82.3826 69.548 82.3875 69.6716C82.8271 83.3379 92.6572 138.775 92.7505 139.322C92.7788 139.475 92.7549 139.633 92.6824 139.771C92.6099 139.908 92.4931 140.018 92.3508 140.081L63.6863 153.001C63.594 153.019 63.499 153.019 63.4066 153.001ZM51.3388 126.828L63.713 151.416L91.2986 139.002C90.2996 133.328 81.6283 83.8041 81.0289 70.1112C79.6969 69.5517 74.8618 67.7802 71.2121 69.3919C70.2422 69.8543 69.3875 70.5269 68.7101 71.361C68.0327 72.1951 67.5496 73.1696 67.296 74.2137C65.8308 78.9823 64.9384 88.2663 64.0726 97.2439C62.9537 108.939 62.1545 116.185 60.6627 118.01C57.7743 121.185 54.658 124.146 51.3388 126.867V126.828Z" fill="#3D3939"/>
<path d="M147.029 263.943C145.746 263.958 144.501 263.51 143.522 262.68C142.543 261.85 141.897 260.696 141.701 259.428L124.931 149.791C124.718 148.394 125.068 146.969 125.905 145.83C126.741 144.691 127.996 143.931 129.394 143.717C130.791 143.503 132.216 143.854 133.355 144.69C134.494 145.527 135.254 146.782 135.467 148.179L152.357 257.816C152.463 258.508 152.432 259.214 152.265 259.893C152.098 260.573 151.799 261.213 151.384 261.777C150.97 262.341 150.449 262.818 149.85 263.181C149.251 263.543 148.587 263.784 147.895 263.89C147.608 263.93 147.319 263.948 147.029 263.943Z" fill="black"/>
<path d="M178.704 263.943H178.091C177.396 263.864 176.723 263.648 176.111 263.308C175.499 262.969 174.96 262.512 174.524 261.964C174.089 261.416 173.766 260.788 173.573 260.115C173.381 259.442 173.323 258.738 173.403 258.042C177.305 224.223 183.313 168.958 183.1 162.312C182.821 161.104 182.973 159.837 183.528 158.729C184.084 157.62 185.008 156.741 186.142 156.241C187.276 155.74 188.549 155.652 189.742 155.989C190.935 156.326 191.972 157.069 192.677 158.089C194.222 160.314 194.688 160.98 189.32 211.223C186.776 235.092 183.992 259.028 183.992 259.268C183.833 260.558 183.207 261.745 182.233 262.607C181.259 263.468 180.004 263.943 178.704 263.943Z" fill="black"/>
<path d="M160.669 300C207.772 300 245.956 295.462 245.956 289.864C245.956 284.265 207.772 279.727 160.669 279.727C113.566 279.727 75.3811 284.265 75.3811 289.864C75.3811 295.462 113.566 300 160.669 300Z" fill="#ECECEC"/>
<path d="M158.471 192.615C206.619 192.615 245.65 153.583 245.65 105.436C245.65 57.2879 206.619 18.2565 158.471 18.2565C110.323 18.2565 71.2921 57.2879 71.2921 105.436C71.2921 153.583 110.323 192.615 158.471 192.615Z" fill="#B3B3B3"/>
<path d="M158.564 18.2299C180.975 18.2163 202.533 26.8219 218.773 42.2646C235.014 57.7074 244.694 78.8045 245.808 101.187C246.923 123.57 239.387 145.525 224.76 162.504C210.134 179.484 189.538 190.188 167.237 192.401C144.936 194.614 122.638 188.165 104.96 174.391C87.2822 160.616 75.5789 140.571 72.2733 118.405C68.9678 96.2398 74.3132 73.6519 87.2027 55.3189C100.092 36.9859 119.538 24.312 141.515 19.9216C147.129 18.7994 152.839 18.2328 158.564 18.2299ZM158.564 16.8979C135.072 16.8732 112.532 26.1818 95.9032 42.7758C79.2742 59.3698 69.9182 81.8901 69.8935 105.382C69.8688 128.875 79.1773 151.414 95.7714 168.043C112.365 184.672 134.886 194.028 158.378 194.053C170.01 194.065 181.531 191.786 192.282 187.346C203.034 182.906 212.805 176.392 221.039 168.175C229.273 159.959 235.808 150.201 240.27 139.459C244.733 128.717 247.036 117.201 247.049 105.569C247.061 93.9366 244.782 82.4159 240.342 71.6645C235.902 60.9131 229.387 51.1415 221.171 42.9076C212.954 34.6738 203.197 28.1389 192.454 23.6762C181.712 19.2134 170.197 16.9102 158.564 16.8979Z" fill="#3D3939"/>
<path d="M128.266 106.251C132.015 105.524 133.656 97.7228 131.931 88.8266C130.206 79.9303 125.769 73.3077 122.02 74.0345C118.271 74.7613 116.631 82.5624 118.355 91.4586C120.08 100.355 124.517 106.977 128.266 106.251Z" fill="black"/>
<path d="M184.56 95.3526C188.309 94.6258 189.949 86.8248 188.225 77.9285C186.5 69.0323 182.063 62.4096 178.314 63.1364C174.565 63.8633 172.924 71.6643 174.649 80.5605C176.374 89.4568 180.811 96.0794 184.56 95.3526Z" fill="black"/>
<path d="M121.548 170.876C121.086 170.876 120.638 170.715 120.281 170.421C119.924 170.127 119.68 169.718 119.59 169.265C117.552 158.995 120.922 148.352 128.914 139.268C136.906 130.184 148.494 123.99 161.681 121.393C189.027 115.958 214.655 128.612 218.824 149.591C218.926 150.121 218.814 150.67 218.512 151.117C218.209 151.564 217.742 151.873 217.212 151.975C216.682 152.078 216.133 151.966 215.686 151.663C215.239 151.361 214.93 150.894 214.828 150.364C211.098 131.556 187.575 120.314 162.387 125.309C150.093 127.746 139.264 133.647 131.911 141.919C124.559 150.191 121.695 159.475 123.48 168.492C123.581 169.011 123.473 169.55 123.178 169.989C122.884 170.429 122.427 170.733 121.908 170.836L121.548 170.876Z" fill="black"/>
<path d="M65.7721 151.55L52.5678 124.868C51.3573 122.422 48.393 121.421 45.9469 122.631L44.6457 123.275C42.1996 124.486 41.198 127.45 42.4085 129.896L55.6128 156.578C56.8233 159.024 59.7875 160.025 62.2336 158.815L63.5349 158.171C65.9809 156.96 66.9826 153.996 65.7721 151.55Z" fill="white"/>
<path d="M60.0632 160.021C59.0104 160.021 57.9785 159.726 57.0841 159.171C56.1898 158.615 55.4684 157.821 55.0016 156.877L41.8015 130.237C41.4726 129.574 41.2774 128.853 41.2273 128.115C41.1771 127.376 41.2728 126.635 41.5091 125.934C41.7453 125.233 42.1175 124.585 42.6042 124.027C43.0909 123.47 43.6826 123.014 44.3457 122.685L45.6777 122.046C46.3377 121.716 47.0566 121.52 47.7928 121.47C48.529 121.419 49.2679 121.515 49.9667 121.753C51.3828 122.231 52.5515 123.251 53.2167 124.59L66.4168 151.23C66.7458 151.893 66.9409 152.614 66.9911 153.352C67.0413 154.09 66.9455 154.831 66.7092 155.533C66.473 156.234 66.1009 156.882 65.6142 157.44C65.1275 157.997 64.5357 158.453 63.8727 158.782L62.5407 159.421C61.7702 159.804 60.9235 160.009 60.0632 160.021ZM56.2404 156.278C56.7438 157.286 57.6264 158.055 58.6948 158.414C59.7632 158.773 60.9305 158.695 61.9413 158.196L63.2733 157.557C64.2842 157.055 65.0552 156.174 65.4173 155.105C65.7793 154.037 65.7029 152.868 65.2047 151.856L52.0046 125.216C51.4971 124.205 50.6118 123.434 49.5404 123.071C49.0104 122.893 48.4505 122.822 47.8928 122.861C47.3351 122.899 46.7906 123.048 46.2904 123.298L44.9584 123.937C44.4565 124.184 44.0084 124.527 43.64 124.948C43.2715 125.368 42.99 125.858 42.8117 126.388C42.6334 126.918 42.5618 127.478 42.601 128.036C42.6403 128.594 42.7896 129.138 43.0403 129.638L56.2404 156.278Z" fill="#3D3939"/>
<path d="M100.911 119.353C106.654 118.214 110.724 114.33 109.999 110.679C109.275 107.028 104.032 104.991 98.2878 106.131C92.544 107.27 88.4749 111.154 89.1992 114.805C89.9234 118.456 95.1669 120.492 100.911 119.353Z" fill="white"/>
<path d="M219.661 96.3279C225.404 95.1885 229.473 91.305 228.749 87.6538C228.025 84.0026 222.781 81.9663 217.038 83.1057C211.294 84.2451 207.225 88.1286 207.949 91.7798C208.673 95.431 213.917 97.4673 219.661 96.3279Z" fill="white"/>
<path d="M108.814 82.9516C108.814 82.9516 127.009 74.9596 129.287 62.7852L108.814 82.9516Z" fill="#B3B3B3"/>
<path d="M108.814 84.9496C108.332 84.9848 107.853 84.8439 107.466 84.5528C107.08 84.2617 106.812 83.8403 106.713 83.3668C106.614 82.8933 106.69 82.3999 106.927 81.9781C107.164 81.5564 107.546 81.2349 108.002 81.0735C108.175 80.9935 125.318 73.3079 127.316 62.3589C127.365 62.0966 127.465 61.8464 127.611 61.6227C127.756 61.3991 127.944 61.2063 128.165 61.0554C128.385 60.9045 128.633 60.7984 128.894 60.7433C129.155 60.6881 129.424 60.6849 129.687 60.7339C129.949 60.7829 130.199 60.8831 130.423 61.0287C130.647 61.1744 130.839 61.3627 130.99 61.5828C131.141 61.803 131.247 62.0507 131.302 62.3119C131.358 62.573 131.361 62.8425 131.312 63.1049C128.874 76.1051 110.466 84.4168 109.68 84.7231C109.414 84.8673 109.117 84.945 108.814 84.9496Z" fill="black"/>
<path d="M194.888 66.4215C194.888 66.4215 174.988 65.942 168.248 55.5924L194.888 66.4215Z" fill="#B3B3B3"/>
<path d="M194.888 68.4061C194.035 68.4061 173.869 67.7668 166.65 56.6712C166.473 56.4568 166.342 56.2079 166.267 55.9403C166.192 55.6728 166.174 55.3924 166.213 55.1173C166.252 54.8422 166.348 54.5783 166.496 54.3424C166.643 54.1066 166.837 53.9041 167.067 53.7478C167.297 53.5915 167.557 53.4848 167.83 53.4347C168.104 53.3845 168.384 53.3919 168.655 53.4565C168.925 53.521 169.179 53.6412 169.4 53.8095C169.621 53.9777 169.805 54.1902 169.94 54.4335C176.013 63.7574 194.741 64.3435 194.941 64.3568C195.471 64.3568 195.979 64.5674 196.354 64.942C196.729 65.3167 196.939 65.8249 196.939 66.3548C196.939 66.8847 196.729 67.3929 196.354 67.7676C195.979 68.1423 195.471 68.3528 194.941 68.3528L194.888 68.4061Z" fill="black"/>
<path d="M64.6319 120.474C64.6319 120.474 64.1523 97.5234 69.4936 89.1585C74.8349 80.7936 86.4499 77.6901 83.9458 86.6943C81.4416 95.6986 74.6218 106.474 74.6218 106.474C74.6218 106.474 79.6434 125.722 73.3964 137.217" fill="white"/>
<path d="M73.3831 137.91C73.2673 137.91 73.1531 137.883 73.0501 137.83C72.8903 137.742 72.7712 137.595 72.7189 137.421C72.6665 137.246 72.685 137.058 72.7704 136.897C78.8177 125.775 73.9959 106.834 73.9426 106.648C73.9185 106.556 73.9132 106.46 73.9269 106.367C73.9407 106.273 73.9732 106.183 74.0225 106.102C74.1024 105.995 80.8423 95.2991 83.2799 86.508C83.7327 84.9096 83.9325 82.8583 82.4141 82.179C79.7501 80.9935 73.5163 84.1503 70.0798 89.5316C64.9116 97.6168 65.3112 120.234 65.3112 120.46C65.313 120.55 65.2972 120.638 65.2647 120.721C65.2322 120.805 65.1836 120.88 65.1217 120.945C65.0599 121.009 64.986 121.061 64.9042 121.096C64.8225 121.132 64.7345 121.151 64.6452 121.153C64.4661 121.153 64.2938 121.084 64.1647 120.96C64.0355 120.836 63.9595 120.666 63.9526 120.487C63.9526 119.541 63.5397 97.2305 68.9343 88.799C72.544 83.138 79.3771 79.3152 82.9868 80.9269C84.079 81.4064 85.744 82.8316 84.6252 86.8676C82.3075 95.2192 76.4201 104.876 75.3012 106.581C75.9406 109.139 79.9099 126.561 73.9692 137.55C73.9123 137.657 73.8281 137.746 73.725 137.809C73.622 137.873 73.504 137.907 73.3831 137.91Z" fill="#3D3939"/>
<path d="M245.956 206.867C245.956 206.867 242.32 227.366 241.96 233.747C241.601 240.127 232.104 265.035 219.823 266.54C207.542 268.046 225.99 254.246 225.71 245.228C225.43 236.211 218.451 244.189 215.827 253.553C213.203 262.917 208.208 253.114 210.499 244.483C212.79 235.851 214.002 235.731 214.748 228.605C215.494 221.479 214.255 198.609 214.255 198.609L245.956 206.867Z" fill="white"/>
<path d="M218.198 267.326C216.626 267.326 215.653 266.953 215.187 266.181C214.148 264.422 216.16 261.599 218.943 257.669C221.727 253.74 225.124 248.958 225.017 245.268C224.937 242.937 224.405 242.045 223.925 241.992C222.327 241.805 218.424 246.76 216.466 253.753C215.334 257.749 213.802 258.295 212.683 258.002C210.019 257.296 208.168 250.53 209.779 244.323C210.698 240.819 211.458 238.675 212.07 236.957C213.12 234.263 213.775 231.432 214.015 228.552C214.748 221.559 213.522 198.888 213.509 198.649C213.502 198.542 213.521 198.435 213.566 198.337C213.61 198.24 213.677 198.154 213.762 198.089C213.846 198.019 213.945 197.971 214.052 197.948C214.159 197.924 214.269 197.927 214.375 197.956L246.129 206.201C246.297 206.245 246.441 206.35 246.535 206.496C246.629 206.641 246.665 206.816 246.636 206.987C246.636 207.187 242.999 227.526 242.64 233.787C242.28 240.047 232.716 265.648 219.903 267.22C219.337 267.291 218.768 267.326 218.198 267.326ZM223.845 240.62H224.085C225.524 240.793 226.296 242.338 226.389 245.215C226.509 249.358 223.086 254.193 220.062 258.455C218.051 261.279 215.787 264.476 216.373 265.461C216.506 265.674 217.092 266.154 219.729 265.834C231.624 264.382 240.921 239.448 241.268 233.693C241.614 227.939 244.544 210.903 245.17 207.36L214.934 199.501C215.161 203.937 216.053 222.318 215.387 228.685C215.127 231.674 214.445 234.611 213.362 237.41C212.763 239.101 212.03 241.206 211.111 244.656C209.606 250.423 211.484 256.244 213.043 256.644C213.549 256.777 214.375 255.991 215.147 253.354C216.879 247.226 220.808 240.62 223.845 240.62Z" fill="#3D3939"/>
<path d="M213.836 203.273L248.15 212.57C250.983 213.337 253.902 211.663 254.67 208.83L254.854 208.149C255.622 205.316 253.948 202.397 251.115 201.629L216.801 192.332C213.968 191.564 211.049 193.239 210.281 196.072L210.097 196.753C209.329 199.586 211.003 202.505 213.836 203.273Z" fill="white"/>
<path d="M249.593 213.46C249.062 213.456 248.534 213.384 248.021 213.247L213.682 203.923C212.146 203.505 210.838 202.495 210.047 201.114C209.255 199.733 209.044 198.094 209.46 196.557L209.646 195.878C210.059 194.349 211.059 193.044 212.428 192.248C213.798 191.453 215.426 191.23 216.959 191.629L251.284 200.953C252.044 201.158 252.757 201.511 253.38 201.992C254.004 202.473 254.527 203.072 254.919 203.754C255.311 204.437 255.565 205.191 255.666 205.971C255.766 206.752 255.712 207.545 255.507 208.305L255.32 208.998C254.974 210.268 254.221 211.389 253.177 212.19C252.133 212.991 250.855 213.428 249.539 213.434L249.593 213.46ZM215.44 192.841C214.424 192.844 213.437 193.18 212.631 193.799C211.825 194.417 211.244 195.283 210.978 196.264L210.792 196.944C210.632 197.53 210.59 198.141 210.667 198.744C210.744 199.346 210.939 199.927 211.241 200.454C211.543 200.981 211.945 201.443 212.426 201.815C212.907 202.186 213.456 202.459 214.042 202.618L248.367 211.942C248.953 212.101 249.565 212.144 250.167 212.067C250.77 211.989 251.351 211.794 251.878 211.493C252.405 211.191 252.867 210.788 253.238 210.307C253.61 209.827 253.883 209.278 254.042 208.692L254.228 207.999C254.393 207.407 254.437 206.788 254.36 206.178C254.282 205.569 254.084 204.98 253.776 204.448C253.469 203.916 253.058 203.451 252.568 203.079C252.079 202.708 251.52 202.438 250.925 202.285L216.599 192.961C216.202 192.87 215.795 192.829 215.387 192.841H215.44Z" fill="#3D3939"/>
<path d="M160.669 241.193C160.669 241.193 123.08 233.853 122.774 237.516C122.467 241.179 123.999 271.176 123.999 271.176C123.999 271.176 88.0351 290.503 93.5762 292.954C99.1173 295.405 160.669 284.029 160.669 284.029V241.193Z" fill="white"/>
<path d="M96.693 293.966C95.5469 294.037 94.3973 293.906 93.2964 293.58C93.0198 293.478 92.779 293.298 92.6038 293.062C92.4286 292.825 92.3267 292.542 92.3107 292.248C92.3107 291.395 92.2042 289.171 108.082 279.501C114.808 275.411 121.628 271.682 123.293 270.776C123.093 266.94 121.801 240.939 122.094 237.476C122.113 237.292 122.171 237.114 122.262 236.954C122.354 236.793 122.478 236.654 122.627 236.544C126.103 233.88 155.048 239.407 160.802 240.54C160.961 240.568 161.104 240.652 161.206 240.777C161.309 240.901 161.364 241.058 161.361 241.219V284.056C161.361 284.216 161.305 284.372 161.203 284.496C161.101 284.62 160.959 284.704 160.802 284.735C155.154 285.748 110.226 293.966 96.693 293.966ZM126.556 237.143C124.825 237.143 123.732 237.303 123.439 237.649C123.16 241.166 124.678 270.843 124.691 271.149C124.694 271.278 124.663 271.405 124.599 271.518C124.536 271.63 124.444 271.724 124.332 271.788C109.2 279.927 93.6028 289.784 93.696 292.194C93.696 292.194 93.696 292.274 93.8558 292.328C98.1715 294.246 142.5 286.667 159.989 283.457V241.765C146.696 239.181 132.683 237.143 126.556 237.143Z" fill="#3D3939"/>
<path d="M164.798 241.193C164.798 241.193 202.387 233.853 202.693 237.516C203 241.179 201.468 271.176 201.468 271.176C201.468 271.176 237.432 290.503 231.891 292.954C226.349 295.405 164.798 284.029 164.798 284.029V241.193Z" fill="white"/>
<path d="M228.774 293.966C215.254 293.966 170.312 285.748 164.665 284.709C164.507 284.678 164.365 284.593 164.263 284.469C164.161 284.345 164.105 284.19 164.105 284.029V241.193C164.105 241.032 164.161 240.876 164.263 240.753C164.365 240.629 164.507 240.544 164.665 240.513C170.432 239.394 199.297 233.853 202.84 236.517C202.992 236.623 203.119 236.762 203.211 236.923C203.303 237.085 203.358 237.264 203.373 237.45C203.666 240.926 202.374 266.927 202.174 270.749C208.221 274.013 233.316 287.839 233.156 292.221C233.14 292.515 233.038 292.798 232.863 293.035C232.688 293.272 232.447 293.452 232.17 293.553C231.071 293.888 229.921 294.028 228.774 293.966ZM165.477 283.457C182.966 286.667 227.295 294.233 231.611 292.328C231.717 292.328 231.784 292.235 231.784 292.195C231.877 289.784 216.28 279.927 201.148 271.788C201.034 271.726 200.94 271.633 200.877 271.52C200.813 271.407 200.783 271.279 200.789 271.149C200.789 270.843 202.307 241.166 202.014 237.583C200.682 236.038 182.5 238.462 165.477 241.765V283.457Z" fill="#3D3939"/>
<path d="M66.4569 9.71857C64.2591 5.94903 59.1709 4.63035 54.9351 5.72259C50.6994 6.81483 47.1962 9.71857 44.146 12.8354C43.1509 13.6687 42.4774 14.8227 42.2412 16.0988C42.1613 17.4308 43.3867 18.7628 44.5988 18.3366C38.7514 17.2976 33.9429 22.932 31.3721 28.2733C30.0401 30.9372 29.0145 34.0008 30.2133 36.6515C31.4121 39.3022 34.6622 40.6475 37.6458 40.9672C43.3274 41.5713 49.0191 39.9211 53.4966 36.3718C55.2773 38.1051 57.4697 39.357 59.8675 40.0098C62.2653 40.6626 64.7897 40.6948 67.2034 40.1034C69.617 39.512 71.8406 38.3163 73.665 36.629C75.4894 34.9416 76.8546 32.818 77.6323 30.4577C76.5134 31.1637 78.2717 32.5889 79.577 32.6555C82.7605 32.842 86.0505 33.0152 89.0208 31.843C95.7607 29.179 96.5599 12.9553 92.0578 7.6673C87.2893 2.03296 69.5471 2.326 66.4569 9.71857Z" fill="white"/>
<path d="M40.0167 41.7529C39.1979 41.7551 38.3796 41.7106 37.5659 41.6197C33.6365 41.1802 30.7327 39.4619 29.5739 36.9045C28.2419 33.8942 29.4807 30.5375 30.7327 27.9535C31.9848 25.3694 35.8343 18.4564 41.8949 17.5772C41.6381 17.0996 41.5182 16.5603 41.5485 16.0188C41.7864 14.58 42.5275 13.2724 43.6398 12.3292C46.3038 9.54531 50.06 6.18869 54.7486 5.01653C58.638 4.0575 63.6596 5.01653 66.3769 8.38648C67.9886 5.89565 71.3985 4.09746 75.9406 3.3915C81.8147 2.47242 89.4071 3.47142 92.5639 7.17436C95.4011 10.5044 96.3867 18.0967 94.8017 24.4903C93.7627 28.6195 91.8047 31.4566 89.2606 32.4823C86.1038 33.721 82.6006 33.5212 79.5237 33.3481C78.7924 33.2819 78.0948 33.0094 77.5124 32.5622C76.4878 34.7149 74.9736 36.598 73.091 38.0608C71.2084 39.5236 69.0095 40.5254 66.6703 40.9863C64.3312 41.4471 61.9166 41.3541 59.6199 40.7147C57.3231 40.0754 55.2078 38.9073 53.4432 37.3041C49.5673 40.2014 44.8558 41.7626 40.0167 41.7529ZM43.2268 18.8693C38.4317 18.8693 34.3291 23.7177 31.9848 28.5529C30.8659 30.8705 29.7204 33.8808 30.8393 36.345C32.1713 39.3154 36.1673 40.0746 37.7257 40.2478C43.2296 40.8504 48.7478 39.2457 53.0703 35.7856C53.1961 35.6769 53.3569 35.617 53.5232 35.617C53.6895 35.617 53.8502 35.6769 53.976 35.7856C55.6024 37.3937 57.6006 38.5754 59.7933 39.2257C61.986 39.8761 64.3054 39.9751 66.5455 39.5139C68.7856 39.0527 70.8773 38.0456 72.6347 36.5819C74.3922 35.1183 75.7611 33.2434 76.6199 31.1236C76.5857 30.8605 76.6308 30.5932 76.7494 30.3559C76.8681 30.1185 77.0549 29.9221 77.2859 29.7916C77.4 29.7083 77.5376 29.6634 77.6789 29.6634C77.8201 29.6634 77.9578 29.7083 78.0718 29.7916C78.1831 29.8764 78.2649 29.9941 78.3056 30.128C78.3462 30.2619 78.3437 30.4052 78.2982 30.5375C78.2982 30.724 78.1784 30.9105 78.1118 31.097C78.5167 31.5133 79.0532 31.7769 79.6302 31.8429C82.574 32.0161 85.9039 32.2025 88.7811 31.0703C90.8989 30.2312 92.5772 27.7404 93.4963 24.0507C94.9615 18.1766 94.0824 10.9572 91.5383 7.98688C88.9942 5.01653 82.4807 3.81774 76.1671 4.75013C71.4785 5.48273 68.1751 7.41412 67.0962 9.97155C67.0477 10.0926 66.9655 10.1972 66.8592 10.2728C66.7529 10.3484 66.6271 10.3918 66.4968 10.3978C66.3699 10.4063 66.2431 10.3798 66.1304 10.321C66.0176 10.2623 65.9232 10.1736 65.8574 10.0648C63.7262 6.40181 58.8245 5.42945 55.0949 6.36185C50.7393 7.44076 47.2228 10.6376 44.6388 13.2882C43.7695 14.0113 43.1689 15.006 42.9338 16.112C42.9322 16.3694 42.9904 16.6236 43.1036 16.8547C43.2169 17.0858 43.3821 17.2876 43.5865 17.444C43.9461 17.444 44.3191 17.444 44.7054 17.5772C44.8532 17.6032 44.9883 17.6774 45.0895 17.7883C45.1907 17.8991 45.2523 18.0404 45.2648 18.19C45.2769 18.341 45.2392 18.4918 45.1574 18.6193C45.0756 18.7468 44.9542 18.844 44.8119 18.8959C44.2896 19.0823 43.7146 19.0535 43.2135 18.816L43.2268 18.8693Z" fill="#D9D9D9"/>
<path d="M77.3792 31.1636C76.6255 31.1511 75.8735 31.0888 75.1281 30.9771C72.3975 30.5775 68.9343 29.4719 67.9487 26.4217C67.8938 26.2485 67.9091 26.0608 67.9913 25.8988C68.0735 25.7369 68.2161 25.6137 68.3882 25.5559C68.5613 25.501 68.7491 25.5163 68.911 25.5985C69.073 25.6807 69.1961 25.8233 69.254 25.9954C70.0532 28.4996 73.4098 29.3387 75.3279 29.6184C76.7567 29.9052 78.2341 29.8366 79.6302 29.4186C80.7516 28.9213 81.7313 28.1522 82.4807 27.1809C83.6413 25.7845 84.5434 24.1922 85.1447 22.479C85.2048 22.3023 85.3325 22.1568 85.4999 22.0743C85.6673 21.9919 85.8605 21.9793 86.0371 22.0394C86.2138 22.0995 86.3593 22.2272 86.4418 22.3946C86.5242 22.5619 86.5367 22.7552 86.4767 22.9318C85.8262 24.8053 84.8375 26.5434 83.5596 28.06C82.6672 29.2227 81.4938 30.1394 80.1497 30.724C79.2619 31.0429 78.3221 31.192 77.3792 31.1636Z" fill="#D9D9D9"/>
<path d="M221.248 7.81377C219.039 7.32174 216.726 7.65822 214.749 8.7593C212.772 9.86037 211.269 11.6493 210.524 13.7862C209.779 15.9232 209.846 18.2592 210.71 20.3504C211.575 22.4417 213.178 24.1425 215.214 25.1297C216.272 25.4548 217.271 25.9497 218.171 26.5949C218.762 27.2399 219.264 27.9611 219.663 28.7394C222.46 33.2149 228.427 34.9998 233.595 33.9475C238.764 32.8952 243.186 29.4587 246.622 25.4494C246.188 25.8509 245.929 26.4071 245.902 26.9978C245.875 27.5885 246.081 28.1662 246.476 28.6062C247.319 29.4687 248.407 30.0501 249.593 30.2712C253.229 31.2436 257.265 31.6032 260.622 29.8849C262.288 29.0965 263.631 27.7561 264.423 26.0907C265.214 24.4254 265.405 22.5376 264.964 20.7474C265.63 23.0251 268.507 22.0794 269.493 21.0538C270.825 19.7218 270.691 15.8723 270.465 14.2073C269.799 9.06585 264.991 3.68459 259.37 4.12415C258.252 4.35095 257.108 4.41377 255.973 4.31063C254.121 3.91103 252.949 2.09952 251.258 1.23372C250.241 0.791692 249.129 0.613638 248.026 0.716097C246.922 0.818555 245.862 1.1982 244.944 1.8198C243.104 3.06311 241.517 4.64525 240.269 6.48178C239.496 4.59035 237.059 4.13747 235.021 4.16411C229.693 4.23071 226.669 5.32295 223.033 8.77281C222.48 8.37955 221.881 8.05734 221.248 7.81377Z" fill="white"/>
<path d="M230.612 34.9731C228.354 35.0386 226.115 34.5378 224.101 33.5164C222.086 32.4951 220.359 30.9856 219.077 29.1256C218.957 28.9525 218.85 28.766 218.744 28.5795C218.472 27.9689 218.063 27.4297 217.547 27.0044C217.032 26.5791 216.425 26.2793 215.773 26.1287L214.961 25.7957C212.701 24.7797 210.903 22.9538 209.923 20.6779C208.942 18.402 208.85 15.8414 209.664 13.5009C210.478 11.1603 212.14 9.20978 214.321 8.03377C216.502 6.85775 219.045 6.54164 221.448 7.14774C221.982 7.32345 222.482 7.58925 222.926 7.93362C226.483 4.71019 229.586 3.59132 235.007 3.52472C237.512 3.52472 239.31 4.11079 240.335 5.30959C241.479 3.702 242.911 2.32008 244.558 1.23369C245.577 0.549753 246.753 0.134894 247.976 0.0277589C249.198 -0.0793757 250.428 0.124697 251.551 0.620969C252.286 1.02738 252.97 1.51919 253.589 2.08617C254.136 2.76107 254.87 3.26076 255.698 3.52352C256.527 3.78627 257.414 3.80059 258.251 3.56468L259.29 3.4448C265.377 2.95196 270.425 8.67954 271.144 14.1008C271.144 14.3272 271.85 19.6552 269.959 21.52C269.444 22.0053 268.824 22.3658 268.147 22.5736C267.47 22.7815 266.755 22.8311 266.056 22.7188H265.91C265.861 24.3448 265.368 25.9264 264.482 27.2911C263.597 28.6557 262.353 29.7511 260.888 30.4576C257.838 31.9761 253.962 32.1226 249.38 30.8972C248.085 30.6688 246.891 30.0507 245.956 29.1256C245.672 28.7723 245.464 28.3643 245.344 27.9269C242.223 31.2795 238.183 33.6377 233.729 34.7067C232.701 34.9007 231.657 34.99 230.612 34.9731ZM219.157 8.21334C217.361 8.22628 215.61 8.77603 214.129 9.79193C212.647 10.8078 211.504 12.2434 210.845 13.9143C210.218 15.9513 210.341 18.1456 211.191 20.1001C212.041 22.0546 213.563 23.6402 215.48 24.5702L216.266 24.8766C217.063 25.0847 217.805 25.4659 218.438 25.9931C219.071 26.5203 219.58 27.1806 219.929 27.9269L220.236 28.433C222.726 32.429 228.228 34.427 233.462 33.3481C238.226 32.1443 242.479 29.4462 245.597 25.6491C245.759 25.3647 245.982 25.1193 246.249 24.9299C246.387 24.8403 246.553 24.8028 246.716 24.8239C246.879 24.845 247.029 24.9235 247.139 25.0452C247.25 25.1669 247.314 25.324 247.319 25.4884C247.324 25.6527 247.271 25.8135 247.169 25.9422L246.729 26.435C246.683 26.5504 246.651 26.6713 246.636 26.7947C246.577 27.2997 246.72 27.8075 247.035 28.2066C247.797 28.9062 248.746 29.369 249.766 29.5386C254.015 30.6841 257.571 30.5642 260.302 29.2056C261.829 28.4952 263.062 27.2769 263.791 25.7587C264.52 24.2404 264.699 22.5163 264.298 20.8806C264.247 20.704 264.268 20.5142 264.357 20.3531C264.445 20.192 264.594 20.0727 264.771 20.0215C264.947 19.9702 265.137 19.9913 265.298 20.08C265.459 20.1686 265.579 20.3177 265.63 20.4943C265.67 20.6957 265.766 20.8817 265.907 21.0303C266.049 21.1789 266.23 21.2841 266.429 21.3335C266.897 21.3859 267.37 21.3382 267.818 21.1935C268.266 21.0488 268.678 20.8105 269.027 20.4943C269.999 19.522 270.066 16.2453 269.799 14.234C269.173 9.41213 264.604 4.33724 259.436 4.75015L258.464 4.85671C257.436 5.12047 256.354 5.09324 255.34 4.77806C254.327 4.46288 253.42 3.87216 252.723 3.07184C252.19 2.5616 251.6 2.11464 250.965 1.73984C250.048 1.3581 249.052 1.2094 248.064 1.30703C247.076 1.40465 246.128 1.74556 245.304 2.29928C243.556 3.51905 242.051 5.05506 240.868 6.82806C240.794 6.92345 240.696 6.99768 240.584 7.04336C240.472 7.08903 240.35 7.10456 240.23 7.08839C240.11 7.07222 239.996 7.02492 239.9 6.9512C239.804 6.87749 239.729 6.77992 239.683 6.66822C238.99 4.98991 236.486 4.76347 235.087 4.79011C229.826 4.79011 227.016 5.92231 223.539 9.19901C223.429 9.2999 223.29 9.36328 223.141 9.38004C222.993 9.39679 222.843 9.36606 222.713 9.29225L222.167 8.93262C221.852 8.68637 221.502 8.48882 221.128 8.34654C220.479 8.21881 219.817 8.17405 219.157 8.21334Z" fill="#D9D9D9"/>
<path d="M248.008 26.5416C247.562 26.5351 247.118 26.504 246.676 26.4484C244.517 26.1232 242.499 25.1824 240.861 23.739C239.224 22.2955 238.038 20.4105 237.445 18.3099C237.421 18.2233 237.414 18.1328 237.425 18.0436C237.436 17.9544 237.465 17.8682 237.509 17.7902C237.554 17.7121 237.614 17.6437 237.685 17.5889C237.756 17.534 237.838 17.4939 237.924 17.4708C238.101 17.4261 238.288 17.4527 238.445 17.545C238.602 17.6372 238.717 17.7876 238.764 17.9636C239.258 19.8197 240.291 21.4879 241.732 22.7577C243.173 24.0276 244.958 24.8421 246.862 25.0986C248.765 25.355 250.702 25.042 252.428 24.1988C254.154 23.3557 255.591 22.0204 256.559 20.3612C256.604 20.2823 256.665 20.2133 256.738 20.1583C256.81 20.1033 256.893 20.0635 256.981 20.0411C257.069 20.0187 257.161 20.0143 257.251 20.0281C257.341 20.0419 257.427 20.0737 257.505 20.1214C257.658 20.2154 257.768 20.3652 257.813 20.5392C257.858 20.7131 257.833 20.8977 257.744 21.0538C256.727 22.7257 255.298 24.1083 253.593 25.0692C251.888 26.0302 249.965 26.5371 248.008 26.5416Z" fill="#D9D9D9"/>
<path d="M220.062 15.1796C219.895 14.2214 219.992 13.2354 220.345 12.3288C220.698 11.4222 221.292 10.6294 222.063 10.0365C222.835 9.44363 223.754 9.07324 224.72 8.96551C225.687 8.85778 226.665 9.01683 227.548 9.42541" fill="white"/>
<path d="M220.062 15.8057C219.901 15.8082 219.744 15.7533 219.62 15.6508C219.496 15.5483 219.412 15.4049 219.383 15.2462C219.189 14.1626 219.297 13.0465 219.694 12.0198C220.091 10.9931 220.763 10.0953 221.636 9.42452C222.509 8.75371 223.549 8.33565 224.644 8.21601C225.738 8.09636 226.844 8.27974 227.841 8.7461C227.996 8.83075 228.112 8.97101 228.167 9.13836C228.221 9.30571 228.21 9.48759 228.136 9.64704C228.061 9.80649 227.928 9.93153 227.765 9.99676C227.601 10.062 227.419 10.0625 227.255 9.99817C226.487 9.63725 225.635 9.49477 224.791 9.58634C223.947 9.67791 223.145 10 222.472 10.5173C221.799 11.0346 221.282 11.7271 220.977 12.519C220.672 13.3108 220.59 14.1715 220.742 15.0065C220.773 15.1865 220.731 15.3716 220.627 15.5213C220.522 15.671 220.362 15.7732 220.182 15.8057H220.062Z" fill="#D9D9D9"/>
<path d="M55.2015 46.1885C55.1981 46.0129 55.1269 45.8455 55.0027 45.7213C54.8785 45.5971 54.7111 45.5259 54.5355 45.5225C54.3589 45.5225 54.1895 45.5926 54.0646 45.7175C53.9397 45.8424 53.8695 46.0118 53.8695 46.1885C54.096 48.1998 54.3357 50.1844 54.5622 52.2224C54.5656 52.398 54.6368 52.5654 54.761 52.6896C54.8852 52.8137 55.0526 52.885 55.2282 52.8884C55.4037 52.885 55.5712 52.8137 55.6953 52.6896C55.8195 52.5654 55.8908 52.398 55.8942 52.2224C55.6677 50.2111 55.428 48.1998 55.2015 46.1885Z" fill="#D9D9D9"/>
<path d="M68.4414 54.8864C68.3977 54.8103 68.3394 54.7436 68.2699 54.6901C68.2003 54.6365 68.121 54.5971 68.0362 54.5743C67.9515 54.5514 67.8631 54.5454 67.7761 54.5567C67.689 54.568 67.6051 54.5963 67.529 54.64C67.4529 54.6838 67.3862 54.742 67.3326 54.8116C67.279 54.8811 67.2397 54.9605 67.2168 55.0452C67.1939 55.1299 67.188 55.2183 67.1992 55.3054C67.2105 55.3924 67.2388 55.4763 67.2826 55.5524C67.4548 55.8039 67.602 56.0716 67.7221 56.3516V56.4582V56.618C67.7221 56.7646 67.8287 56.9111 67.8687 57.0576C67.9512 57.3369 68.0135 57.6218 68.0551 57.9101V58.0299C68.0551 58.0299 68.0551 58.1498 68.0551 58.2031C68.0551 58.2564 68.0551 58.5361 68.0551 58.6959C68.0551 58.8726 68.1253 59.042 68.2502 59.1669C68.3751 59.2918 68.5445 59.3619 68.7211 59.3619C68.8978 59.3619 69.0672 59.2918 69.1921 59.1669C69.317 59.042 69.3871 58.8726 69.3871 58.6959C69.4203 57.3642 69.0935 56.0481 68.4414 54.8864Z" fill="#D9D9D9"/>
<path d="M79.0973 49.5186C78.9242 48.5196 78.7643 47.5206 78.5912 46.5216C78.5444 46.3525 78.4329 46.2088 78.2807 46.1215C78.1286 46.0342 77.9482 46.0104 77.7787 46.0554C77.6105 46.1079 77.4687 46.2226 77.3821 46.376C77.2955 46.5294 77.2706 46.7101 77.3125 46.8812C77.4723 47.8802 77.6455 48.8792 77.8053 49.8782C77.855 50.0482 77.9691 50.1922 78.1234 50.2792C78.2777 50.3663 78.4599 50.3897 78.6311 50.3444C78.7993 50.2919 78.9411 50.1772 79.0278 50.0238C79.1144 49.8704 79.1392 49.6897 79.0973 49.5186Z" fill="#D9D9D9"/>
<path d="M233.089 46.0286L232.077 42.5255C232.054 42.438 232.014 42.3559 231.96 42.2838C231.906 42.2117 231.837 42.151 231.759 42.1053C231.682 42.0595 231.595 42.0295 231.506 42.0171C231.416 42.0046 231.325 42.0099 231.238 42.0326C231.15 42.0554 231.068 42.0951 230.996 42.1496C230.924 42.2041 230.863 42.2722 230.818 42.3501C230.772 42.4281 230.742 42.5142 230.729 42.6037C230.717 42.6932 230.722 42.7843 230.745 42.8718L231.744 46.3749C231.79 46.5516 231.904 46.7027 232.061 46.7952C232.219 46.8876 232.407 46.9137 232.583 46.8678C232.76 46.8219 232.911 46.7076 233.003 46.5503C233.096 46.3929 233.122 46.2053 233.076 46.0286H233.089Z" fill="#D9D9D9"/>
<path d="M246.929 50.0379C246.753 50.0413 246.586 50.1126 246.462 50.2367C246.337 50.3609 246.266 50.5283 246.263 50.7039V54.6999C246.263 54.8765 246.333 55.0459 246.458 55.1708C246.583 55.2957 246.752 55.3659 246.929 55.3659C247.104 55.3625 247.272 55.2912 247.396 55.167C247.52 55.0429 247.591 54.8754 247.595 54.6999V50.7039C247.591 50.5283 247.52 50.3609 247.396 50.2367C247.272 50.1126 247.104 50.0413 246.929 50.0379Z" fill="#D9D9D9"/>
<path d="M260.155 50.7039C260.149 50.5294 260.077 50.3638 259.953 50.2403C259.83 50.1168 259.664 50.0445 259.489 50.0379C259.156 50.0379 258.77 50.3443 258.823 50.7039L259.583 56.7245C259.583 56.9012 259.653 57.0706 259.778 57.1955C259.903 57.3204 260.072 57.3905 260.249 57.3905C260.425 57.3905 260.595 57.3204 260.72 57.1955C260.844 57.0706 260.915 56.9012 260.915 56.7245L260.155 50.7039Z" fill="#D9D9D9"/>
<path d="M253.922 80.0478C253.746 80.0512 253.579 80.1225 253.455 80.2466C253.33 80.3708 253.259 80.5382 253.256 80.7138V83.2046C253.256 83.3812 253.326 83.5506 253.451 83.6755C253.576 83.8004 253.745 83.8706 253.922 83.8706C254.098 83.8706 254.268 83.8004 254.393 83.6755C254.517 83.5506 254.588 83.3812 254.588 83.2046V80.7138C254.588 80.5372 254.517 80.3678 254.393 80.2429C254.268 80.118 254.098 80.0478 253.922 80.0478Z" fill="#D9D9D9"/>
<path d="M267.601 94.0205C267.095 92.3555 266.602 90.6905 266.096 89.0255C266.044 88.8573 265.929 88.7155 265.775 88.6289C265.622 88.5423 265.441 88.5174 265.27 88.5593C265.104 88.6089 264.963 88.7216 264.878 88.8734C264.794 89.0252 264.772 89.2041 264.817 89.3718C265.31 91.0501 265.816 92.7151 266.323 94.3801C266.346 94.4676 266.387 94.5495 266.442 94.6213C266.497 94.6931 266.566 94.7532 266.645 94.7984C266.723 94.8435 266.81 94.8728 266.9 94.8844C266.99 94.8961 267.081 94.8899 267.168 94.8663C267.256 94.8427 267.338 94.8021 267.41 94.7468C267.481 94.6915 267.541 94.6226 267.587 94.5441C267.632 94.4655 267.661 94.3789 267.673 94.289C267.684 94.1992 267.678 94.1079 267.655 94.0205H267.601Z" fill="#D9D9D9"/>
<path d="M45.4779 61.7195C45.4745 61.544 45.4032 61.3765 45.2791 61.2524C45.1549 61.1282 44.9875 61.0569 44.8119 61.0535C44.6353 61.0535 44.4659 61.1237 44.341 61.2486C44.2161 61.3735 44.1459 61.5429 44.1459 61.7195C44.3057 63.2114 44.4656 64.7165 44.6387 66.2217C44.6387 66.3983 44.7089 66.5677 44.8338 66.6926C44.9587 66.8175 45.1281 66.8877 45.3047 66.8877C45.4803 66.8842 45.6477 66.813 45.7719 66.6888C45.8961 66.5647 45.9673 66.3972 45.9707 66.2217C45.7976 64.7165 45.6377 63.2114 45.4779 61.7195Z" fill="#D9D9D9"/>
<path d="M52.0046 90.5439C51.4996 88.6426 51.3639 86.6621 51.605 84.7098C51.605 84.5331 51.5348 84.3637 51.4099 84.2388C51.285 84.1139 51.1156 84.0438 50.939 84.0438C50.7623 84.0438 50.5929 84.1139 50.468 84.2388C50.3431 84.3637 50.273 84.5331 50.273 84.7098C50.0253 86.7835 50.1745 88.8855 50.7125 90.9035C50.7602 91.0749 50.874 91.2202 51.0289 91.3077C51.1838 91.3951 51.367 91.4174 51.5384 91.3697C51.7097 91.322 51.8551 91.2082 51.9425 91.0534C52.0299 90.8985 52.0523 90.7152 52.0046 90.5439Z" fill="#D9D9D9"/>
<path d="M58.9045 67.5403C58.7289 67.5438 58.5615 67.615 58.4373 67.7392C58.3132 67.8634 58.2419 68.0308 58.2385 68.2063V71.2033C58.2385 71.38 58.3087 71.5494 58.4336 71.6743C58.5585 71.7992 58.7279 71.8693 58.9045 71.8693C59.0811 71.8693 59.2506 71.7992 59.3754 71.6743C59.5003 71.5494 59.5705 71.38 59.5705 71.2033V68.2063C59.5671 68.0308 59.4958 67.8634 59.3717 67.7392C59.2475 67.615 59.0801 67.5438 58.9045 67.5403Z" fill="#D9D9D9"/>
</svg>
