<svg width="200" height="200" viewBox="0 0 200 200" fill="none" xmlns="http://www.w3.org/2000/svg">
<g clip-path="url(#clip0_8604_132476)">
<path fill-rule="evenodd" clip-rule="evenodd" d="M94.2363 2.00385C114.089 2.20938 133.111 11.5291 147.494 25.189C160.768 37.7948 162.408 57.1241 169.864 73.8287C178.537 93.2592 197.442 109.842 194.694 130.936C191.833 152.902 174.207 170.575 155.673 182.759C137.676 194.589 115.487 200.539 94.2363 196.972C74.6579 193.686 62.0081 176.338 46.1767 164.381C30.7551 152.732 7.94014 146.614 2.89408 127.979C-2.14122 109.384 15.4438 93.0468 21.9498 74.9122C28.1807 57.5442 27.1688 37.1904 40.1695 24.0779C54.2096 9.917 74.2773 1.79721 94.2363 2.00385Z" fill="#DFE7FF"/>
<path d="M153.954 155.237H153.754C152.834 155.187 151.97 154.774 151.354 154.089C150.737 153.404 150.417 152.502 150.465 151.582L155.347 60.0762C155.396 59.153 155.811 58.2873 156.498 57.6696C157.186 57.0519 158.091 56.7328 159.015 56.7824C159.938 56.832 160.804 57.2463 161.421 57.9342C162.039 58.6221 162.358 59.5272 162.308 60.4504L157.426 151.947C157.378 152.835 156.99 153.671 156.345 154.283C155.699 154.894 154.844 155.236 153.954 155.237Z" fill="black"/>
<path d="M38.735 121.854C37.0214 121.883 35.3179 121.587 33.7138 120.984C27.3611 118.495 25.2986 114.379 24.6894 111.411C22.4616 100.481 35.6718 87.1493 37.186 85.6699C37.5096 85.3372 37.8963 85.0725 38.3236 84.8915C38.7509 84.7105 39.2101 84.6167 39.6742 84.6157C40.1382 84.6147 40.5978 84.7066 41.0259 84.8858C41.4539 85.065 41.8418 85.328 42.1668 85.6593C42.4917 85.9906 42.7471 86.3836 42.918 86.8151C43.0888 87.2465 43.1717 87.7078 43.1617 88.1717C43.1517 88.6357 43.049 89.093 42.8597 89.5167C42.6704 89.9403 42.3983 90.3219 42.0593 90.6389C37.3862 95.2338 30.3895 104.563 31.5121 110.028C31.66 110.741 32.1038 112.917 36.2549 114.544C43.7476 117.486 58.9506 105.503 66.7741 97.2614C67.4186 96.6358 68.28 96.2836 69.1782 96.2784C70.0764 96.2732 70.9419 96.6154 71.5937 97.2334C72.2454 97.8515 72.6331 98.6976 72.6755 99.5948C72.7179 100.492 72.4119 101.371 71.8214 102.048C69.6981 104.215 52.5457 121.854 38.735 121.854Z" fill="black"/>
<path d="M55.4175 47.536C55.4175 47.536 47.5853 43.8027 45.5751 50.3817C43.5649 56.9606 43.1732 76.5845 41.3283 78.8384C39.3688 80.9582 37.2635 82.9384 35.0278 84.7647L43.4691 101.534L62.1966 93.1103C62.1966 93.1103 55.6698 56.5951 55.4175 47.536Z" fill="white"/>
<path d="M43.4257 101.961C43.3411 101.96 43.2585 101.935 43.1865 101.891C43.1145 101.847 43.0559 101.784 43.0167 101.709L34.5841 84.9479C34.5371 84.8574 34.5227 84.7535 34.5433 84.6537C34.5639 84.5538 34.6183 84.4641 34.6972 84.3996C36.9079 82.5853 38.9925 80.6227 40.9368 78.5255C41.8071 77.4638 42.3988 71.3548 42.9645 65.472C43.5301 59.5892 44.1219 53.454 45.1053 50.2516C45.3076 49.4434 45.6875 48.6906 46.2174 48.0478C46.7473 47.405 47.4138 46.8884 48.1685 46.5356C51.3449 45.1433 55.4002 47.0491 55.5742 47.1361C55.6471 47.1709 55.7092 47.225 55.7537 47.2924C55.7982 47.3599 55.8234 47.4383 55.8266 47.519C56.1138 56.4476 62.5361 92.6669 62.597 93.0237C62.6156 93.1237 62.5999 93.227 62.5525 93.317C62.5052 93.407 62.4289 93.4784 62.3359 93.5197L43.6085 101.961C43.5481 101.973 43.486 101.973 43.4257 101.961ZM35.5414 84.8609L43.6259 100.925L61.6485 92.8148C60.9958 89.1076 55.3305 56.7522 54.9389 47.8062C54.0687 47.4407 50.9097 46.2833 48.5253 47.3363C47.8916 47.6383 47.3332 48.0778 46.8906 48.6227C46.4481 49.1677 46.1325 49.8043 45.9668 50.4865C45.0095 53.602 44.4265 59.6675 43.8608 65.5329C43.1298 73.1736 42.6077 77.9077 41.633 79.0999C39.7459 81.1745 37.71 83.1086 35.5414 84.887V84.8609Z" fill="#3D3939"/>
<path d="M98.0591 174.443C97.2209 174.452 96.4073 174.159 95.7678 173.617C95.1283 173.075 94.7059 172.321 94.5781 171.492L83.6218 99.8633C83.4822 98.9505 83.7109 98.0196 84.2576 97.2754C84.8043 96.5312 85.6243 96.0347 86.5371 95.895C87.4499 95.7554 88.3808 95.9841 89.125 96.5308C89.8692 97.0775 90.3658 97.8975 90.5054 98.8103L101.54 170.439C101.609 170.891 101.589 171.353 101.48 171.797C101.371 172.241 101.175 172.659 100.905 173.028C100.634 173.396 100.293 173.708 99.9019 173.944C99.5107 174.181 99.0767 174.339 98.6247 174.408C98.4373 174.434 98.2482 174.446 98.0591 174.443Z" fill="black"/>
<path d="M118.753 174.443H118.353C117.899 174.391 117.459 174.25 117.059 174.028C116.659 173.806 116.307 173.508 116.023 173.15C115.738 172.792 115.527 172.381 115.401 171.942C115.276 171.502 115.238 171.042 115.29 170.588C117.84 148.492 121.764 112.386 121.625 108.044C121.443 107.254 121.542 106.427 121.905 105.703C122.268 104.979 122.872 104.404 123.613 104.077C124.354 103.75 125.186 103.692 125.965 103.913C126.744 104.133 127.422 104.618 127.882 105.285C128.892 106.738 129.196 107.173 125.689 139.999C124.027 155.593 122.208 171.232 122.208 171.388C122.104 172.231 121.695 173.007 121.059 173.57C120.423 174.132 119.603 174.443 118.753 174.443Z" fill="black"/>
<path d="M106.97 198C137.744 198 162.691 195.035 162.691 191.377C162.691 187.72 137.744 184.755 106.97 184.755C76.1963 184.755 51.249 187.72 51.249 191.377C51.249 195.035 76.1963 198 106.97 198Z" fill="#ECECEC"/>
<path d="M105.535 127.842C136.991 127.842 162.492 102.341 162.492 70.8847C162.492 39.4282 136.991 13.9277 105.535 13.9277C74.0781 13.9277 48.5776 39.4282 48.5776 70.8847C48.5776 102.341 74.0781 127.842 105.535 127.842Z" fill="#B3B3B3"/>
<path d="M105.595 13.9103C120.237 13.9014 134.321 19.5237 144.932 29.613C155.543 39.7022 161.867 53.4857 162.595 68.1092C163.323 82.7327 158.399 97.0762 148.844 108.17C139.288 119.263 125.832 126.257 111.261 127.702C96.6913 129.148 82.1233 124.935 70.5739 115.935C59.0244 106.936 51.3783 93.8397 49.2187 79.3582C47.059 64.8767 50.5514 50.1193 58.9725 38.1418C67.3936 26.1642 80.0985 17.8839 94.4565 15.0155C98.1242 14.2824 101.855 13.9122 105.595 13.9103ZM105.595 13.0401C90.2472 13.0239 75.5212 19.1055 64.6569 29.9469C53.7926 40.7884 47.68 55.5016 47.6639 70.8499C47.6477 86.1981 53.7293 100.924 64.5707 111.788C75.4122 122.653 90.1254 128.765 105.474 128.782C113.073 128.79 120.6 127.301 127.624 124.4C134.649 121.499 141.033 117.243 146.412 111.875C151.792 106.507 156.061 100.131 158.977 93.1132C161.892 86.0951 163.397 78.5714 163.405 70.9717C163.413 63.372 161.924 55.8452 159.023 48.8209C156.123 41.7966 151.867 35.4125 146.498 30.0331C141.13 24.6536 134.755 20.3842 127.737 17.4685C120.719 14.5529 113.195 13.0481 105.595 13.0401Z" fill="#3D3939"/>
<path d="M85.8006 71.4171C88.2498 70.9422 89.3218 65.8456 88.195 60.0334C87.0681 54.2211 84.1691 49.8944 81.7199 50.3692C79.2707 50.8441 78.1987 55.9407 79.3255 61.7529C80.4524 67.5652 83.3514 71.8919 85.8006 71.4171Z" fill="black"/>
<path d="M122.579 64.297C125.028 63.8221 126.1 58.7255 124.974 52.9132C123.847 47.101 120.948 42.7742 118.498 43.2491C116.049 43.7239 114.977 48.8206 116.104 54.6328C117.231 60.445 120.13 64.7718 122.579 64.297Z" fill="black"/>
<path d="M81.4115 113.639C81.1094 113.639 80.8167 113.534 80.5834 113.342C80.3501 113.15 80.1907 112.883 80.1323 112.586C78.8008 105.877 81.0025 98.9235 86.2239 92.9885C91.4453 87.0535 99.0164 83.0069 107.632 81.3099C125.498 77.7594 142.241 86.0266 144.965 99.7328C145.032 100.079 144.958 100.438 144.761 100.73C144.564 101.022 144.258 101.224 143.912 101.291C143.566 101.357 143.207 101.284 142.915 101.087C142.623 100.889 142.421 100.584 142.354 100.238C139.917 87.9498 124.549 80.605 108.093 83.8684C100.061 85.461 92.9857 89.3161 88.182 94.7203C83.3782 100.124 81.5073 106.19 82.6734 112.081C82.7399 112.421 82.6691 112.772 82.4766 113.06C82.2841 113.347 81.9856 113.546 81.6465 113.613L81.4115 113.639Z" fill="black"/>
<path d="M44.9711 101.013L36.3444 83.5806C35.5535 81.9825 33.6168 81.3281 32.0187 82.119L31.1686 82.5397C29.5705 83.3306 28.9161 85.2673 29.707 86.8654L38.3337 104.297C39.1246 105.895 41.0612 106.55 42.6594 105.759L43.5095 105.338C45.1076 104.547 45.762 102.611 44.9711 101.013Z" fill="white"/>
<path d="M41.2414 106.547C40.5535 106.547 39.8794 106.354 39.2951 105.992C38.7107 105.629 38.2395 105.11 37.9345 104.493L29.3104 87.0884C29.0955 86.6553 28.968 86.184 28.9352 85.7017C28.9024 85.2193 28.965 84.7351 29.1194 84.2769C29.2737 83.8187 29.5168 83.3954 29.8348 83.0312C30.1528 82.6669 30.5394 82.3689 30.9726 82.1541L31.8428 81.7364C32.274 81.5208 32.7437 81.3929 33.2247 81.36C33.7057 81.3272 34.1884 81.39 34.645 81.545C35.5702 81.8575 36.3337 82.524 36.7684 83.3986L45.3924 100.803C45.6073 101.236 45.7348 101.708 45.7676 102.19C45.8004 102.672 45.7378 103.157 45.5835 103.615C45.4291 104.073 45.186 104.496 44.868 104.86C44.5501 105.225 44.1634 105.523 43.7303 105.738L42.86 106.155C42.3566 106.405 41.8035 106.539 41.2414 106.547ZM38.7438 104.101C39.0727 104.76 39.6493 105.262 40.3474 105.497C41.0454 105.732 41.808 105.681 42.4684 105.355L43.3386 104.937C43.9991 104.61 44.5029 104.034 44.7394 103.335C44.9759 102.637 44.926 101.874 44.6005 101.212L35.9764 83.8076C35.6449 83.1471 35.0665 82.6437 34.3665 82.4065C34.0202 82.2902 33.6544 82.2435 33.2901 82.2689C32.9257 82.2943 32.5699 82.3913 32.2431 82.5544L31.3729 82.9721C31.045 83.1333 30.7523 83.3577 30.5115 83.6325C30.2708 83.9074 30.0869 84.2271 29.9704 84.5734C29.8539 84.9197 29.8071 85.2856 29.8328 85.65C29.8584 86.0144 29.9559 86.3702 30.1198 86.6968L38.7438 104.101Z" fill="#3D3939"/>
<path d="M67.9282 79.9771C71.6808 79.2327 74.3393 76.6955 73.8661 74.3101C73.3929 71.9246 69.9672 70.5943 66.2146 71.3387C62.462 72.0831 59.8035 74.6203 60.2767 77.0058C60.7499 79.3912 64.1756 80.7215 67.9282 79.9771Z" fill="white"/>
<path d="M145.511 64.9342C149.264 64.1898 151.923 61.6525 151.449 59.2671C150.976 56.8816 147.55 55.5513 143.798 56.2957C140.045 57.0401 137.387 59.5773 137.86 61.9628C138.333 64.3482 141.759 65.6786 145.511 64.9342Z" fill="white"/>
<path d="M73.092 56.1949C73.092 56.1949 84.9795 50.9735 86.4676 43.0195Z" fill="#B3B3B3"/>
<path d="M73.0919 57.5002C72.7767 57.5232 72.4638 57.4311 72.2114 57.2409C71.9589 57.0508 71.784 56.7755 71.7192 56.4661C71.6543 56.1568 71.7039 55.8344 71.8588 55.5588C72.0136 55.2833 72.2632 55.0733 72.5611 54.9678C72.6742 54.9156 83.8742 49.8943 85.1795 42.741C85.2115 42.5695 85.277 42.4061 85.3721 42.26C85.4673 42.1139 85.5903 41.9879 85.7342 41.8893C85.878 41.7907 86.0398 41.7214 86.2105 41.6854C86.3811 41.6494 86.5571 41.6473 86.7285 41.6793C86.9 41.7113 87.0634 41.7767 87.2095 41.8719C87.3557 41.9671 87.4816 42.0901 87.5802 42.2339C87.6788 42.3778 87.7481 42.5396 87.7841 42.7102C87.8202 42.8808 87.8222 43.0569 87.7902 43.2283C86.1977 51.7218 74.171 57.1521 73.6576 57.3522C73.4837 57.4464 73.2897 57.4972 73.0919 57.5002Z" fill="black"/>
<path d="M129.327 45.3953C129.327 45.3953 116.325 45.082 111.922 38.3203Z" fill="#B3B3B3"/>
<path d="M129.327 46.6919C128.77 46.6919 115.594 46.2742 110.878 39.0252C110.762 38.8851 110.677 38.7224 110.628 38.5476C110.579 38.3728 110.567 38.1897 110.592 38.0099C110.618 37.8302 110.681 37.6577 110.777 37.5037C110.873 37.3496 111 37.2173 111.151 37.1152C111.301 37.013 111.471 36.9434 111.649 36.9106C111.828 36.8778 112.011 36.8827 112.188 36.9248C112.364 36.967 112.53 37.0456 112.675 37.1555C112.819 37.2654 112.939 37.4042 113.027 37.5632C116.995 43.6548 129.231 44.0377 129.362 44.0464C129.708 44.0464 130.04 44.184 130.285 44.4288C130.529 44.6736 130.667 45.0056 130.667 45.3518C130.667 45.698 130.529 46.03 130.285 46.2748C130.04 46.5196 129.708 46.6571 129.362 46.6571L129.327 46.6919Z" fill="black"/>
<path d="M44.2263 80.7093C44.2263 80.7093 43.913 65.7151 47.4026 60.2501C50.8923 54.785 58.4807 52.7573 56.8447 58.6401C55.2086 64.5229 50.753 71.5631 50.753 71.5631C50.753 71.5631 54.0338 84.138 49.9524 91.6482" fill="white"/>
<path d="M49.9436 92.1011C49.868 92.1015 49.7933 92.0835 49.7261 92.0489C49.6216 91.9918 49.5438 91.8958 49.5096 91.7818C49.4754 91.6678 49.4875 91.5449 49.5433 91.4397C53.4942 84.1732 50.3439 71.7985 50.3091 71.6766C50.2934 71.6167 50.2899 71.5542 50.2989 71.4929C50.3079 71.4316 50.3291 71.3728 50.3613 71.3198C50.4135 71.2502 54.8169 64.2622 56.4095 58.5187C56.7053 57.4744 56.8359 56.1342 55.8438 55.6904C54.1033 54.9159 50.0306 56.9784 47.7854 60.4941C44.4089 65.7764 44.67 80.5531 44.67 80.701C44.6711 80.7593 44.6608 80.8172 44.6396 80.8715C44.6183 80.9258 44.5866 80.9754 44.5462 81.0174C44.5058 81.0594 44.4575 81.0931 44.4041 81.1164C44.3506 81.1398 44.2931 81.1524 44.2349 81.1535C44.1178 81.1536 44.0053 81.1083 43.9209 81.0272C43.8365 80.9461 43.7868 80.8354 43.7823 80.7184C43.7823 80.1005 43.5126 65.5241 47.037 60.0155C49.3954 56.317 53.8597 53.8194 56.218 54.8724C56.9316 55.1857 58.0194 56.1168 57.2884 58.7536C55.7742 64.21 51.9277 70.5192 51.1967 71.6331C51.6145 73.304 54.2078 84.6867 50.3265 91.8661C50.2894 91.9358 50.2343 91.9943 50.167 92.0356C50.0997 92.0769 50.0226 92.0995 49.9436 92.1011Z" fill="#3D3939"/>
<path d="M162.691 137.153C162.691 137.153 160.316 150.546 160.081 154.715C159.846 158.883 153.641 175.156 145.617 176.14C137.594 177.123 149.647 168.108 149.464 162.216C149.281 156.325 144.721 161.537 143.007 167.655C141.292 173.773 138.029 167.368 139.526 161.729C141.023 156.09 141.814 156.011 142.302 151.356C142.789 146.7 141.98 131.758 141.98 131.758L162.691 137.153Z" fill="white"/>
<path d="M144.556 176.653C143.529 176.653 142.894 176.409 142.589 175.904C141.91 174.756 143.224 172.911 145.043 170.344C146.862 167.776 149.081 164.652 149.011 162.242C148.959 160.719 148.611 160.136 148.298 160.101C147.253 159.979 144.704 163.216 143.424 167.785C142.685 170.396 141.684 170.753 140.953 170.561C139.212 170.1 138.003 165.679 139.056 161.624C139.656 159.335 140.152 157.934 140.553 156.812C141.238 155.052 141.666 153.202 141.823 151.32C142.302 146.752 141.501 131.94 141.492 131.784C141.488 131.714 141.501 131.644 141.529 131.58C141.558 131.516 141.602 131.461 141.658 131.418C141.713 131.372 141.778 131.341 141.847 131.326C141.917 131.31 141.989 131.312 142.058 131.331L162.805 136.718C162.914 136.747 163.008 136.815 163.07 136.91C163.131 137.005 163.154 137.12 163.135 137.231C163.135 137.362 160.759 150.65 160.524 154.74C160.29 158.83 154.041 175.556 145.67 176.583C145.3 176.63 144.928 176.653 144.556 176.653ZM148.245 159.205H148.402C149.342 159.318 149.847 160.327 149.908 162.207C149.986 164.913 147.749 168.072 145.774 170.857C144.46 172.702 142.981 174.791 143.363 175.435C143.45 175.574 143.833 175.887 145.556 175.678C153.328 174.73 159.402 158.439 159.628 154.679C159.854 150.92 161.769 139.79 162.178 137.475L142.424 132.34C142.572 135.238 143.155 147.248 142.719 151.407C142.549 153.36 142.104 155.279 141.397 157.107C141.005 158.213 140.526 159.588 139.926 161.841C138.943 165.61 140.17 169.413 141.188 169.674C141.519 169.761 142.058 169.247 142.563 167.524C143.694 163.521 146.261 159.205 148.245 159.205Z" fill="#3D3939"/>
<path d="M141.707 134.805L164.125 140.879C165.976 141.381 167.883 140.287 168.384 138.436L168.505 137.991C169.006 136.14 167.913 134.233 166.062 133.731L143.643 127.657C141.792 127.155 139.885 128.249 139.384 130.1L139.263 130.546C138.762 132.396 139.856 134.303 141.707 134.805Z" fill="white"/>
<path d="M165.067 141.461C164.72 141.458 164.375 141.411 164.04 141.322L141.606 135.23C140.602 134.957 139.748 134.297 139.23 133.395C138.713 132.492 138.575 131.422 138.847 130.418L138.969 129.974C139.238 128.975 139.892 128.122 140.786 127.603C141.681 127.083 142.745 126.937 143.746 127.198L166.172 133.289C166.669 133.424 167.134 133.654 167.542 133.968C167.949 134.282 168.291 134.674 168.547 135.12C168.803 135.566 168.969 136.058 169.035 136.568C169.101 137.078 169.065 137.597 168.931 138.093L168.809 138.546C168.583 139.375 168.091 140.107 167.409 140.631C166.727 141.154 165.892 141.44 165.032 141.444L165.067 141.461ZM142.754 127.99C142.09 127.991 141.445 128.211 140.919 128.615C140.392 129.019 140.013 129.585 139.839 130.226L139.717 130.67C139.613 131.053 139.585 131.452 139.636 131.846C139.686 132.24 139.813 132.619 140.011 132.964C140.208 133.308 140.471 133.61 140.785 133.853C141.099 134.095 141.458 134.273 141.841 134.377L164.267 140.469C164.649 140.573 165.049 140.601 165.443 140.55C165.836 140.5 166.216 140.373 166.56 140.175C166.904 139.978 167.207 139.715 167.449 139.401C167.692 139.087 167.87 138.728 167.974 138.345L168.096 137.893C168.203 137.506 168.232 137.102 168.182 136.703C168.131 136.305 168.001 135.921 167.8 135.573C167.599 135.225 167.331 134.921 167.011 134.679C166.691 134.436 166.326 134.26 165.937 134.16L143.511 128.068C143.252 128.008 142.986 127.982 142.72 127.99H142.754Z" fill="#3D3939"/>
<path d="M106.97 159.579C106.97 159.579 82.4122 154.784 82.2121 157.177C82.0119 159.57 83.0127 179.168 83.0127 179.168C83.0127 179.168 59.5163 191.795 63.1365 193.396C66.7567 194.997 106.97 187.566 106.97 187.566V159.579Z" fill="white"/>
<path d="M65.1727 194.058C64.4239 194.104 63.6728 194.019 62.9536 193.806C62.7728 193.739 62.6155 193.622 62.501 193.467C62.3866 193.312 62.32 193.128 62.3096 192.935C62.3096 192.378 62.24 190.925 72.6132 184.607C77.0079 181.936 81.4635 179.499 82.5513 178.907C82.4207 176.401 81.5766 159.414 81.7681 157.151C81.7806 157.031 81.8181 156.915 81.878 156.81C81.9379 156.705 82.019 156.614 82.1162 156.542C84.3875 154.802 103.298 158.413 107.057 159.153C107.161 159.171 107.255 159.226 107.321 159.308C107.388 159.389 107.424 159.491 107.423 159.597V187.583C107.423 187.688 107.386 187.79 107.319 187.871C107.253 187.952 107.16 188.007 107.057 188.027C103.367 188.689 74.0143 194.058 65.1727 194.058ZM84.6834 156.934C83.5521 156.934 82.8385 157.038 82.647 157.264C82.4643 159.562 83.4563 178.951 83.465 179.151C83.4669 179.235 83.4461 179.318 83.4048 179.392C83.3635 179.465 83.3031 179.526 83.2301 179.569C73.3442 184.886 63.1537 191.325 63.2146 192.901C63.2146 192.901 63.2146 192.953 63.3191 192.988C66.1386 194.241 95.1001 189.289 106.526 187.192V159.953C97.8413 158.265 88.6865 156.934 84.6834 156.934Z" fill="#3D3939"/>
<path d="M109.668 159.579C109.668 159.579 134.226 154.784 134.426 157.177C134.626 159.57 133.626 179.168 133.626 179.168C133.626 179.168 157.122 191.795 153.502 193.396C149.882 194.997 109.668 187.566 109.668 187.566V159.579Z" fill="white"/>
<path d="M151.466 194.058C142.633 194.058 113.271 188.689 109.581 188.01C109.478 187.99 109.385 187.934 109.319 187.853C109.252 187.773 109.216 187.671 109.216 187.566V159.579C109.216 159.474 109.252 159.373 109.319 159.292C109.385 159.211 109.478 159.156 109.581 159.135C113.349 158.404 132.207 154.784 134.522 156.525C134.622 156.594 134.705 156.685 134.765 156.79C134.825 156.895 134.861 157.013 134.87 157.134C135.062 159.405 134.217 176.392 134.087 178.89C138.038 181.022 154.433 190.055 154.329 192.918C154.318 193.11 154.252 193.295 154.137 193.45C154.023 193.604 153.865 193.722 153.685 193.788C152.966 194.007 152.215 194.099 151.466 194.058ZM110.112 187.192C121.538 189.289 150.5 194.232 153.319 192.988C153.389 192.988 153.432 192.927 153.432 192.901C153.493 191.325 143.303 184.886 133.417 179.569C133.343 179.528 133.281 179.467 133.24 179.393C133.198 179.32 133.178 179.236 133.182 179.151C133.182 178.951 134.174 159.562 133.982 157.221C133.112 156.211 121.234 157.795 110.112 159.953V187.192Z" fill="#3D3939"/>
<path d="M45.4184 8.3495C43.9826 5.88673 40.6583 5.0252 37.8909 5.73879C35.1236 6.45238 32.8348 8.3495 30.842 10.3859C30.1919 10.9302 29.7518 11.6842 29.5976 12.5179C29.5453 13.3882 30.346 14.2584 31.1379 13.9799C27.3175 13.3011 24.176 16.9822 22.4964 20.4719C21.6262 22.2124 20.9561 24.2139 21.7393 25.9457C22.5225 27.6774 24.6459 28.5564 26.5952 28.7652C30.3072 29.1599 34.0258 28.0818 36.951 25.7629C38.1145 26.8954 39.5468 27.7133 41.1134 28.1398C42.6799 28.5663 44.3292 28.5873 45.9062 28.2009C47.4831 27.8145 48.9358 27.0334 50.1278 25.931C51.3197 24.8286 52.2116 23.4411 52.7197 21.8991C51.9887 22.3603 53.1374 23.2915 53.9903 23.335C56.0701 23.4568 58.2196 23.5699 60.1602 22.8041C64.5636 21.0637 65.0858 10.4642 62.1444 7.00933C59.0289 3.32823 47.4374 3.51969 45.4184 8.3495Z" fill="white"/>
<path d="M28.1444 29.2784C27.6094 29.2797 27.0748 29.2507 26.5431 29.1913C23.9759 28.9042 22.0788 27.7815 21.3217 26.1107C20.4515 24.144 21.2608 21.951 22.0788 20.2627C22.8969 18.5745 25.4118 14.0579 29.3714 13.4836C29.2036 13.1715 29.1253 12.8191 29.1452 12.4654C29.3006 11.5254 29.7848 10.6711 30.5114 10.0548C32.2519 8.23604 34.706 6.04305 37.7692 5.27724C40.3103 4.65067 43.5911 5.27724 45.3664 7.47894C46.4193 5.8516 48.6472 4.67678 51.6147 4.21555C55.4524 3.61509 60.4127 4.26777 62.4752 6.68702C64.3288 8.86261 64.9728 13.823 63.9372 18.0001C63.2584 20.6978 61.9792 22.5514 60.317 23.2215C58.2546 24.0308 55.9658 23.9003 53.9556 23.7872C53.4778 23.7439 53.0221 23.5659 52.6415 23.2737C51.9721 24.6802 50.9829 25.9105 49.7529 26.8661C48.5229 27.8218 47.0863 28.4764 45.5581 28.7775C44.0298 29.0786 42.4523 29.0178 40.9518 28.6001C39.4512 28.1823 38.0692 27.4192 36.9164 26.3718C34.3841 28.2647 31.3059 29.2846 28.1444 29.2784ZM30.2417 14.3277C27.1088 14.3277 24.4285 17.4954 22.8969 20.6543C22.1659 22.1685 21.4175 24.1353 22.1485 25.7452C23.0187 27.6858 25.6294 28.1819 26.6476 28.295C30.2434 28.6887 33.8487 27.6403 36.6727 25.3797C36.7549 25.3087 36.8599 25.2696 36.9686 25.2696C37.0772 25.2696 37.1822 25.3087 37.2645 25.3797C38.327 26.4303 39.6325 27.2023 41.0651 27.6273C42.4976 28.0522 44.0129 28.1169 45.4765 27.8155C46.9401 27.5142 48.3066 26.8562 49.4548 25.9C50.603 24.9437 51.4974 23.7188 52.0585 22.3339C52.0361 22.162 52.0655 21.9873 52.1431 21.8323C52.2206 21.6772 52.3426 21.5489 52.4936 21.4636C52.5681 21.4092 52.658 21.3798 52.7503 21.3798C52.8426 21.3798 52.9325 21.4092 53.007 21.4636C53.0798 21.519 53.1332 21.5959 53.1597 21.6834C53.1863 21.7709 53.1846 21.8645 53.155 21.951C53.155 22.0728 53.0766 22.1946 53.0331 22.3165C53.2977 22.5885 53.6482 22.7607 54.0252 22.8038C55.9484 22.9169 58.124 23.0388 60.0037 22.2991C61.3874 21.7508 62.4839 20.1235 63.0844 17.7129C64.0416 13.8752 63.4673 9.1585 61.8051 7.21787C60.143 5.27724 55.8875 4.49403 51.7626 5.10319C48.6994 5.58182 46.5412 6.84366 45.8363 8.51452C45.8046 8.59363 45.7509 8.66196 45.6814 8.71134C45.612 8.76072 45.5298 8.78907 45.4447 8.79299C45.3618 8.79857 45.279 8.78122 45.2053 8.74284C45.1316 8.70446 45.0699 8.64655 45.027 8.57543C43.6346 6.18228 40.4321 5.54701 37.9955 6.15618C35.1498 6.86107 32.8524 8.94964 31.1641 10.6814C30.5962 11.1539 30.2038 11.8037 30.0502 12.5263C30.0492 12.6945 30.0872 12.8605 30.1611 13.0115C30.2351 13.1625 30.3431 13.2943 30.4766 13.3965C30.7116 13.3965 30.9552 13.3965 31.2076 13.4836C31.3042 13.5005 31.3925 13.549 31.4586 13.6214C31.5247 13.6939 31.565 13.7861 31.5731 13.8839C31.581 13.9825 31.5564 14.0811 31.5029 14.1644C31.4495 14.2477 31.3702 14.3112 31.2772 14.3451C30.936 14.4669 30.5603 14.4481 30.2329 14.2929L30.2417 14.3277Z" fill="#D9D9D9"/>
<path d="M52.5545 22.3601C52.0621 22.3519 51.5708 22.3112 51.0838 22.2383C49.2998 21.9772 47.0372 21.2549 46.3932 19.2621C46.3574 19.1489 46.3674 19.0263 46.4211 18.9205C46.4748 18.8147 46.5679 18.7342 46.6804 18.6964C46.7935 18.6605 46.9162 18.6706 47.022 18.7243C47.1278 18.778 47.2082 18.8711 47.246 18.9836C47.7682 20.6196 49.9612 21.1679 51.2143 21.3506C52.1478 21.538 53.1131 21.4931 54.0252 21.2201C54.7578 20.8951 55.3979 20.3926 55.8875 19.7581C56.6457 18.8458 57.2351 17.8055 57.628 16.6862C57.6672 16.5708 57.7507 16.4757 57.86 16.4218C57.9694 16.368 58.0956 16.3597 58.211 16.399C58.3264 16.4382 58.4215 16.5217 58.4754 16.631C58.5292 16.7404 58.5374 16.8666 58.4982 16.982C58.0732 18.206 57.4273 19.3416 56.5924 20.3324C56.0093 21.0921 55.2427 21.691 54.3646 22.0729C53.7845 22.2812 53.1705 22.3787 52.5545 22.3601Z" fill="#D9D9D9"/>
<path d="M146.549 7.10477C145.105 6.78331 143.595 7.00315 142.303 7.72251C141.011 8.44188 140.029 9.61066 139.542 11.0068C139.056 12.4029 139.099 13.9291 139.664 15.2954C140.229 16.6617 141.276 17.7729 142.606 18.4178C143.298 18.6303 143.95 18.9536 144.538 19.3751C144.924 19.7965 145.252 20.2677 145.513 20.7762C147.34 23.7002 151.239 24.8663 154.616 24.1788C157.992 23.4913 160.881 21.2461 163.127 18.6267C162.843 18.889 162.674 19.2524 162.656 19.6383C162.638 20.0242 162.773 20.4017 163.031 20.6892C163.582 21.2526 164.293 21.6325 165.067 21.777C167.443 22.4122 170.08 22.6472 172.273 21.5246C173.362 21.0095 174.239 20.1337 174.756 19.0457C175.273 17.9577 175.398 16.7244 175.11 15.5548C175.545 17.0429 177.425 16.425 178.069 15.7549C178.939 14.8847 178.852 12.3697 178.704 11.2819C178.269 7.92279 175.127 4.40704 171.455 4.69422C170.725 4.84239 169.977 4.88344 169.236 4.81605C168.026 4.55498 167.26 3.37146 166.155 2.80581C165.491 2.51701 164.764 2.40068 164.043 2.46762C163.322 2.53456 162.63 2.7826 162.03 3.18871C160.828 4.00101 159.791 5.03467 158.976 6.23454C158.471 4.9988 156.878 4.70292 155.547 4.72032C152.066 4.76384 150.09 5.47743 147.715 7.73134C147.354 7.47441 146.962 7.2639 146.549 7.10477Z" fill="white"/>
<path d="M152.666 24.8491C151.191 24.8919 149.729 24.5647 148.412 23.8974C147.096 23.2301 145.968 22.2439 145.13 21.0288C145.052 20.9156 144.982 20.7938 144.913 20.672C144.735 20.273 144.468 19.9208 144.131 19.6429C143.794 19.365 143.397 19.1692 142.972 19.0707L142.441 18.8532C140.964 18.1894 139.79 16.9965 139.149 15.5096C138.509 14.0227 138.449 12.3497 138.981 10.8206C139.512 9.29143 140.598 8.01706 142.023 7.24873C143.448 6.4804 145.109 6.27387 146.679 6.66986C147.028 6.78465 147.355 6.95831 147.645 7.1833C149.969 5.07733 151.996 4.34633 155.538 4.30281C157.174 4.30281 158.349 4.68572 159.019 5.46893C159.767 4.41864 160.702 3.51578 161.778 2.80601C162.444 2.35917 163.212 2.08813 164.011 2.01814C164.81 1.94814 165.613 2.08147 166.347 2.4057C166.827 2.67122 167.273 2.99254 167.678 3.36296C168.036 3.8039 168.515 4.13036 169.056 4.30203C169.598 4.4737 170.177 4.48305 170.724 4.32892L171.403 4.2506C175.38 3.92862 178.678 7.67063 179.148 11.2125C179.148 11.3604 179.609 14.8414 178.373 16.0597C178.037 16.3768 177.632 16.6123 177.19 16.7481C176.747 16.8839 176.28 16.9163 175.823 16.8429H175.728C175.696 17.9053 175.374 18.9386 174.795 19.8302C174.217 20.7217 173.404 21.4374 172.447 21.899C170.454 22.8911 167.922 22.9868 164.928 22.1862C164.082 22.0369 163.302 21.6332 162.692 21.0288C162.506 20.7979 162.37 20.5313 162.291 20.2455C160.252 22.4359 157.613 23.9767 154.703 24.675C154.032 24.8018 153.349 24.8601 152.666 24.8491ZM145.182 7.36605C144.009 7.3745 142.865 7.73368 141.897 8.39739C140.93 9.06111 140.183 9.99905 139.752 11.0907C139.342 12.4215 139.423 13.8551 139.978 15.132C140.533 16.409 141.528 17.445 142.781 18.0526L143.294 18.2527C143.815 18.3887 144.299 18.6378 144.713 18.9822C145.127 19.3266 145.459 19.758 145.687 20.2455L145.887 20.5762C147.515 23.1869 151.109 24.4923 154.529 23.7874C157.641 23.001 160.419 21.2382 162.457 18.7574C162.563 18.5716 162.708 18.4113 162.883 18.2875C162.973 18.229 163.081 18.2045 163.188 18.2183C163.294 18.2321 163.392 18.2833 163.465 18.3629C163.537 18.4424 163.578 18.545 163.582 18.6524C163.585 18.7598 163.55 18.8649 163.484 18.9489L163.196 19.2709C163.166 19.3462 163.145 19.4252 163.135 19.5058C163.097 19.8358 163.191 20.1676 163.396 20.4283C163.894 20.8854 164.514 21.1877 165.18 21.2985C167.957 22.0469 170.28 21.9686 172.064 21.081C173.062 20.6169 173.867 19.8209 174.343 18.829C174.819 17.8371 174.937 16.7107 174.675 15.642C174.641 15.5266 174.655 15.4026 174.713 15.2974C174.771 15.1921 174.868 15.1142 174.984 15.0807C175.099 15.0472 175.223 15.061 175.328 15.1189C175.434 15.1768 175.512 15.2742 175.545 15.3896C175.571 15.5212 175.634 15.6427 175.726 15.7398C175.819 15.8369 175.937 15.9056 176.067 15.9379C176.373 15.9721 176.682 15.9409 176.975 15.8464C177.267 15.7519 177.536 15.5962 177.764 15.3896C178.399 14.7544 178.443 12.6136 178.269 11.2995C177.86 8.14926 174.875 4.83366 171.498 5.10343L170.863 5.17305C170.191 5.34537 169.485 5.32758 168.822 5.12167C168.16 4.91575 167.568 4.52981 167.112 4.00693C166.764 3.67358 166.379 3.38157 165.964 3.1367C165.365 2.88729 164.714 2.79014 164.068 2.85392C163.423 2.91771 162.803 3.14044 162.265 3.5022C161.123 4.29911 160.14 5.30264 159.367 6.461C159.319 6.52332 159.255 6.57182 159.181 6.60166C159.108 6.6315 159.028 6.64164 158.95 6.63108C158.872 6.62052 158.798 6.58961 158.735 6.54145C158.672 6.49329 158.623 6.42955 158.593 6.35657C158.14 5.26008 156.504 5.11214 155.59 5.12954C152.153 5.12954 150.317 5.86924 148.046 8.01002C147.974 8.07594 147.883 8.11734 147.786 8.12829C147.689 8.13924 147.591 8.11916 147.506 8.07094L147.149 7.83598C146.943 7.6751 146.715 7.54603 146.47 7.45307C146.046 7.36962 145.614 7.34038 145.182 7.36605Z" fill="#D9D9D9"/>
<path d="M164.032 19.3405C163.741 19.3363 163.45 19.3159 163.161 19.2796C161.751 19.0671 160.432 18.4525 159.363 17.5095C158.293 16.5664 157.518 15.3348 157.131 13.9625C157.115 13.9059 157.11 13.8468 157.118 13.7885C157.125 13.7302 157.144 13.6739 157.173 13.6229C157.202 13.5719 157.241 13.5272 157.287 13.4914C157.334 13.4556 157.387 13.4293 157.444 13.4142C157.559 13.385 157.681 13.4024 157.784 13.4627C157.887 13.523 157.961 13.6212 157.992 13.7362C158.315 14.9489 158.99 16.0388 159.931 16.8684C160.873 17.698 162.039 18.2302 163.283 18.3977C164.526 18.5653 165.792 18.3607 166.92 17.8099C168.047 17.2591 168.986 16.3866 169.619 15.3026C169.648 15.2511 169.688 15.206 169.735 15.1701C169.783 15.1342 169.837 15.1081 169.894 15.0935C169.952 15.0789 170.012 15.076 170.071 15.085C170.129 15.094 170.186 15.1148 170.236 15.146C170.336 15.2074 170.409 15.3053 170.438 15.4189C170.467 15.5326 170.451 15.6531 170.393 15.7552C169.728 16.8475 168.794 17.7508 167.681 18.3786C166.567 19.0064 165.31 19.3376 164.032 19.3405Z" fill="#D9D9D9"/>
<path d="M145.774 11.9172C145.664 11.2912 145.728 10.647 145.959 10.0547C146.189 9.46236 146.578 8.94443 147.081 8.55707C147.585 8.16972 148.186 7.92773 148.817 7.85735C149.449 7.78696 150.088 7.89088 150.665 8.15782" fill="white"/>
<path d="M145.774 12.3266C145.669 12.3282 145.566 12.2923 145.485 12.2254C145.404 12.1584 145.349 12.0647 145.33 11.9611C145.204 11.2531 145.274 10.5239 145.534 9.85311C145.793 9.18235 146.232 8.5958 146.802 8.15754C147.373 7.71928 148.052 7.44614 148.767 7.36798C149.482 7.28981 150.205 7.40961 150.856 7.7143C150.957 7.76961 151.033 7.86124 151.069 7.97058C151.105 8.07991 151.097 8.19875 151.049 8.30292C151 8.40709 150.913 8.48879 150.807 8.5314C150.7 8.57401 150.581 8.57434 150.474 8.53232C149.972 8.29652 149.415 8.20343 148.863 8.26326C148.312 8.32308 147.788 8.53352 147.349 8.87149C146.909 9.20945 146.571 9.66191 146.372 10.1793C146.172 10.6966 146.119 11.2589 146.218 11.8044C146.238 11.9221 146.211 12.0429 146.143 12.1407C146.074 12.2385 145.97 12.3053 145.853 12.3266H145.774Z" fill="#D9D9D9"/>
<path d="M38.0651 32.1763C38.0628 32.0616 38.0163 31.9522 37.9352 31.8711C37.854 31.79 37.7446 31.7434 37.6299 31.7412C37.5145 31.7412 37.4039 31.7871 37.3223 31.8687C37.2407 31.9503 37.1948 32.0609 37.1948 32.1763C37.3428 33.4904 37.4994 34.787 37.6474 36.1185C37.6496 36.2332 37.6961 36.3426 37.7773 36.4237C37.8584 36.5048 37.9678 36.5514 38.0825 36.5536C38.1972 36.5514 38.3066 36.5048 38.3877 36.4237C38.4688 36.3426 38.5154 36.2332 38.5176 36.1185C38.3696 34.8044 38.213 33.4904 38.0651 32.1763Z" fill="#D9D9D9"/>
<path d="M46.7151 37.8592C46.6865 37.8095 46.6484 37.7659 46.603 37.7309C46.5576 37.6959 46.5057 37.6702 46.4504 37.6552C46.395 37.6403 46.3373 37.6364 46.2804 37.6438C46.2235 37.6511 46.1687 37.6696 46.119 37.6982C46.0692 37.7268 46.0256 37.7649 45.9906 37.8103C45.9557 37.8557 45.9299 37.9076 45.915 37.9629C45.9001 38.0183 45.8962 38.076 45.9035 38.1329C45.9109 38.1898 45.9294 38.2446 45.958 38.2943C46.0705 38.4586 46.1667 38.6335 46.2451 38.8165V38.8861V38.9905C46.2451 39.0862 46.3148 39.182 46.3409 39.2777C46.3948 39.4602 46.4355 39.6463 46.4627 39.8346V39.913C46.4627 39.913 46.4627 39.9913 46.4627 40.0261C46.4627 40.0609 46.4627 40.2436 46.4627 40.3481C46.4627 40.4635 46.5085 40.5741 46.5901 40.6557C46.6717 40.7373 46.7824 40.7832 46.8978 40.7832C47.0132 40.7832 47.1239 40.7373 47.2055 40.6557C47.2871 40.5741 47.3329 40.4635 47.3329 40.3481C47.3546 39.478 47.1411 38.6181 46.7151 37.8592Z" fill="#D9D9D9"/>
<path d="M53.6769 34.3523C53.5638 33.6997 53.4593 33.047 53.3462 32.3943C53.3157 32.2839 53.2428 32.1899 53.1434 32.1329C53.044 32.0759 52.9261 32.0604 52.8154 32.0897C52.7055 32.124 52.6128 32.199 52.5563 32.2992C52.4997 32.3994 52.4834 32.5175 52.5108 32.6293C52.6152 33.2819 52.7283 33.9346 52.8328 34.5873C52.8652 34.6984 52.9398 34.7924 53.0406 34.8493C53.1414 34.9062 53.2604 34.9215 53.3723 34.8919C53.4822 34.8576 53.5748 34.7826 53.6314 34.6824C53.688 34.5822 53.7043 34.4641 53.6769 34.3523Z" fill="#D9D9D9"/>
<path d="M154.285 32.072L153.624 29.7832C153.609 29.7261 153.583 29.6724 153.547 29.6253C153.512 29.5782 153.467 29.5386 153.416 29.5087C153.365 29.4788 153.309 29.4592 153.251 29.4511C153.192 29.4429 153.133 29.4464 153.075 29.4612C153.018 29.4761 152.965 29.5021 152.918 29.5377C152.87 29.5732 152.831 29.6178 152.801 29.6687C152.771 29.7196 152.751 29.7759 152.743 29.8344C152.735 29.8928 152.739 29.9523 152.753 30.0095L153.406 32.2982C153.436 32.4136 153.511 32.5124 153.614 32.5728C153.716 32.6331 153.839 32.6502 153.954 32.6202C154.07 32.5902 154.169 32.5156 154.229 32.4128C154.289 32.3099 154.306 32.1874 154.276 32.072H154.285Z" fill="#D9D9D9"/>
<path d="M163.327 34.6914C163.212 34.6936 163.103 34.7402 163.022 34.8213C162.94 34.9024 162.894 35.0118 162.892 35.1265V37.7372C162.892 37.8526 162.937 37.9633 163.019 38.0449C163.101 38.1265 163.211 38.1724 163.327 38.1724C163.441 38.1701 163.551 38.1236 163.632 38.0424C163.713 37.9613 163.76 37.8519 163.762 37.7372V35.1265C163.76 35.0118 163.713 34.9024 163.632 34.8213C163.551 34.7402 163.441 34.6936 163.327 34.6914Z" fill="#D9D9D9"/>
<path d="M171.968 35.1265C171.964 35.0125 171.917 34.9043 171.836 34.8236C171.755 34.7429 171.647 34.6957 171.533 34.6914C171.316 34.6914 171.063 34.8916 171.098 35.1265L171.594 39.06C171.594 39.1754 171.64 39.2861 171.721 39.3677C171.803 39.4493 171.914 39.4951 172.029 39.4951C172.145 39.4951 172.255 39.4493 172.337 39.3677C172.418 39.2861 172.464 39.1754 172.464 39.06L171.968 35.1265Z" fill="#D9D9D9"/>
<path d="M167.896 54.2979C167.781 54.3001 167.671 54.3466 167.59 54.4278C167.509 54.5089 167.463 54.6183 167.46 54.733V56.3603C167.46 56.4757 167.506 56.5864 167.588 56.668C167.669 56.7496 167.78 56.7954 167.896 56.7954C168.011 56.7954 168.122 56.7496 168.203 56.668C168.285 56.5864 168.331 56.4757 168.331 56.3603V54.733C168.331 54.6176 168.285 54.5069 168.203 54.4253C168.122 54.3437 168.011 54.2979 167.896 54.2979Z" fill="#D9D9D9"/>
<path d="M176.833 63.4267C176.502 62.3389 176.18 61.2511 175.849 60.1633C175.815 60.0534 175.74 59.9607 175.64 59.9042C175.54 59.8476 175.422 59.8313 175.31 59.8587C175.201 59.8911 175.109 59.9647 175.054 60.0639C174.999 60.1631 174.984 60.2799 175.014 60.3895C175.336 61.486 175.667 62.5738 175.997 63.6616C176.013 63.7188 176.039 63.7723 176.075 63.8192C176.111 63.8661 176.157 63.9054 176.208 63.9349C176.259 63.9644 176.316 63.9835 176.374 63.9911C176.433 63.9987 176.493 63.9947 176.55 63.9793C176.607 63.9638 176.661 63.9373 176.707 63.9012C176.754 63.865 176.794 63.82 176.823 63.7687C176.853 63.7174 176.872 63.6608 176.879 63.6021C176.887 63.5434 176.883 63.4838 176.868 63.4267H176.833Z" fill="#D9D9D9"/>
<path d="M31.7123 42.3233C31.71 42.2086 31.6635 42.0992 31.5824 42.0181C31.5012 41.937 31.3919 41.8904 31.2772 41.8882C31.1618 41.8882 31.0511 41.934 30.9695 42.0156C30.8879 42.0972 30.842 42.2079 30.842 42.3233C30.9465 43.298 31.0509 44.2813 31.164 45.2647C31.164 45.3801 31.2099 45.4908 31.2915 45.5724C31.3731 45.654 31.4837 45.6998 31.5991 45.6998C31.7138 45.6976 31.8232 45.651 31.9044 45.5699C31.9855 45.4888 32.032 45.3794 32.0343 45.2647C31.9211 44.2813 31.8167 43.298 31.7123 42.3233Z" fill="#D9D9D9"/>
<path d="M35.9763 61.1554C35.6463 59.9133 35.5577 58.6194 35.7152 57.3438C35.7152 57.2284 35.6693 57.1177 35.5877 57.0361C35.5061 56.9545 35.3955 56.9087 35.2801 56.9087C35.1647 56.9087 35.054 56.9545 34.9724 57.0361C34.8908 57.1177 34.8449 57.2284 34.8449 57.3438C34.6831 58.6987 34.7806 60.072 35.1321 61.3904C35.1633 61.5023 35.2376 61.5973 35.3388 61.6544C35.44 61.7116 35.5597 61.7261 35.6717 61.695C35.7836 61.6638 35.8786 61.5895 35.9357 61.4883C35.9928 61.3871 36.0074 61.2674 35.9763 61.1554Z" fill="#D9D9D9"/>
<path d="M40.4842 46.1265C40.3695 46.1287 40.2601 46.1753 40.179 46.2564C40.0979 46.3375 40.0513 46.4469 40.0491 46.5616V48.5196C40.0491 48.635 40.0949 48.7457 40.1765 48.8273C40.2581 48.9089 40.3688 48.9547 40.4842 48.9547C40.5996 48.9547 40.7103 48.9089 40.7919 48.8273C40.8735 48.7457 40.9193 48.635 40.9193 48.5196V46.5616C40.9171 46.4469 40.8705 46.3375 40.7894 46.2564C40.7083 46.1753 40.5989 46.1287 40.4842 46.1265Z" fill="#D9D9D9"/>
</g>
<defs>
<clipPath id="clip0_8604_132476">
<rect width="196" height="196" fill="white" transform="translate(2 2)"/>
</clipPath>
</defs>
</svg>
