<svg width="200" height="200" viewBox="0 0 200 200" fill="none" xmlns="http://www.w3.org/2000/svg">
<path d="M151.772 57.3228L149.525 61.4017H154.018L151.772 57.3228Z" fill="#2B2B2B"/>
<path fill-rule="evenodd" clip-rule="evenodd" d="M151.772 57.1172C151.842 57.1172 151.906 57.1564 151.941 57.2199L154.187 61.2989C154.222 61.3626 154.222 61.4409 154.187 61.5046C154.152 61.5682 154.088 61.6074 154.018 61.6074H149.525C149.455 61.6074 149.391 61.5682 149.356 61.5046C149.321 61.4409 149.321 61.3626 149.356 61.2989L151.602 57.2199C151.637 57.1564 151.702 57.1172 151.772 57.1172ZM149.865 61.1962H153.678L151.772 57.7338L149.865 61.1962Z" fill="#2B2B2B"/>
<path d="M38.6633 96.1547L36.2356 97.6244V94.683L38.6633 96.1547Z" fill="#2B2B2B" stroke="#2B2B2B"/>
<path d="M161.458 129.721L163.704 125.638H159.212L161.458 129.721Z" fill="#003BE0"/>
<path d="M157.906 71.1921C157.906 70.8303 157.628 70.5383 157.283 70.5383C156.938 70.5383 156.66 70.8303 156.66 71.1921C156.66 71.554 156.938 71.8459 157.283 71.8459C157.628 71.8459 157.906 71.554 157.906 71.1921Z" fill="#2B2B2B"/>
<path fill-rule="evenodd" clip-rule="evenodd" d="M157.514 71.1921C157.514 71.0574 157.411 70.9495 157.283 70.9495C157.154 70.9495 157.052 71.0574 157.052 71.1921C157.052 71.3269 157.154 71.4347 157.283 71.4347C157.411 71.4347 157.514 71.3269 157.514 71.1921ZM157.283 70.5383C157.628 70.5383 157.906 70.8303 157.906 71.1921C157.906 71.554 157.628 71.8459 157.283 71.8459C156.938 71.8459 156.66 71.554 156.66 71.1921C156.66 70.8303 156.938 70.5383 157.283 70.5383Z" fill="#2B2B2B"/>
<path d="M150.239 130.662C150.239 130.301 149.96 130.009 149.615 130.009C149.271 130.009 148.992 130.301 148.992 130.662C148.992 131.024 149.271 131.316 149.615 131.316C149.96 131.316 150.239 131.024 150.239 130.662Z" fill="#2B2B2B"/>
<path fill-rule="evenodd" clip-rule="evenodd" d="M148.796 130.662C148.796 130.187 149.162 129.803 149.615 129.803C150.069 129.803 150.435 130.187 150.435 130.662C150.435 131.138 150.069 131.522 149.615 131.522C149.162 131.522 148.796 131.138 148.796 130.662ZM149.615 130.214C149.379 130.214 149.188 130.414 149.188 130.662C149.188 130.911 149.379 131.111 149.615 131.111C149.852 131.111 150.043 130.911 150.043 130.662C150.043 130.414 149.852 130.214 149.615 130.214Z" fill="#2B2B2B"/>
<path d="M80.749 102.648C80.749 102.286 80.4707 101.994 80.1257 101.994C79.7808 101.994 79.5024 102.286 79.5024 102.648C79.5024 103.01 79.7808 103.302 80.1257 103.302C80.4707 103.302 80.749 103.01 80.749 102.648Z" fill="#003BE0"/>
<path d="M58.0442 123.557C58.0442 123.195 57.7659 122.903 57.4209 122.903C57.0759 122.903 56.7976 123.195 56.7976 123.557C56.7976 123.919 57.0759 124.211 57.4209 124.211C57.7659 124.211 58.0442 123.919 58.0442 123.557Z" fill="#003BE0"/>
<path d="M143.61 141.547C143.61 141.185 143.332 140.893 142.987 140.893C142.642 140.893 142.364 141.185 142.364 141.547C142.364 141.908 142.642 142.2 142.987 142.2C143.332 142.2 143.61 141.908 143.61 141.547Z" fill="#003BE0"/>
<path d="M167.687 59.5677C167.687 59.2059 167.408 58.9139 167.063 58.9139C166.718 58.9139 166.44 59.2059 166.44 59.5677C166.44 59.9296 166.718 60.2215 167.063 60.2215C167.408 60.2215 167.687 59.9296 167.687 59.5677Z" fill="#003BE0"/>
<path d="M144.233 109.022C144.233 108.66 143.955 108.368 143.61 108.368C143.265 108.368 142.987 108.66 142.987 109.022C142.987 109.383 143.265 109.675 143.61 109.675C143.955 109.675 144.233 109.383 144.233 109.022Z" fill="#2B2B2B"/>
<path fill-rule="evenodd" clip-rule="evenodd" d="M143.841 109.022C143.841 108.887 143.739 108.779 143.61 108.779C143.482 108.779 143.379 108.887 143.379 109.022C143.379 109.156 143.482 109.264 143.61 109.264C143.739 109.264 143.841 109.156 143.841 109.022ZM143.61 108.368C143.955 108.368 144.233 108.66 144.233 109.022C144.233 109.383 143.955 109.675 143.61 109.675C143.265 109.675 142.987 109.383 142.987 109.022C142.987 108.66 143.265 108.368 143.61 108.368Z" fill="#2B2B2B"/>
<path d="M74.0654 81.7473C74.0654 81.3854 73.7871 81.0935 73.4421 81.0935C73.0972 81.0935 72.8188 81.3854 72.8188 81.7473C72.8188 82.1091 73.0972 82.4011 73.4421 82.4011C73.7871 82.4011 74.0654 82.1091 74.0654 81.7473Z" fill="#2B2B2B"/>
<path fill-rule="evenodd" clip-rule="evenodd" d="M72.6228 81.7472C72.6228 81.2718 72.9889 80.8878 73.4421 80.8878C73.8953 80.8878 74.2614 81.2718 74.2614 81.7472C74.2614 82.2226 73.8953 82.6066 73.4421 82.6066C72.9889 82.6066 72.6228 82.2226 72.6228 81.7472ZM73.4421 81.299C73.2054 81.299 73.0148 81.4989 73.0148 81.7472C73.0148 81.9955 73.2054 82.1954 73.4421 82.1954C73.6788 82.1954 73.8694 81.9955 73.8694 81.7472C73.8694 81.4989 73.6788 81.299 73.4421 81.299Z" fill="#2B2B2B"/>
<path d="M23.313 75.2875C23.313 74.9256 23.0346 74.6337 22.6897 74.6337C22.3447 74.6337 22.0664 74.9256 22.0664 75.2875C22.0664 75.6493 22.3447 75.9413 22.6897 75.9413C23.0346 75.9413 23.313 75.6493 23.313 75.2875Z" fill="#2B2B2B" stroke="#2B2B2B" stroke-linecap="round" stroke-linejoin="round"/>
<path d="M75.1079 107.459C75.1079 107.097 74.8296 106.805 74.4846 106.805C74.1396 106.805 73.8613 107.097 73.8613 107.459C73.8613 107.821 74.1396 108.113 74.4846 108.113C74.8296 108.113 75.1079 107.821 75.1079 107.459Z" fill="#2B2B2B"/>
<path fill-rule="evenodd" clip-rule="evenodd" d="M74.7159 107.459C74.7159 107.324 74.6131 107.216 74.4846 107.216C74.3562 107.216 74.2533 107.324 74.2533 107.459C74.2533 107.594 74.3561 107.702 74.4846 107.702C74.6131 107.702 74.7159 107.594 74.7159 107.459ZM74.4846 106.805C74.8296 106.805 75.1079 107.097 75.1079 107.459C75.1079 107.821 74.8296 108.113 74.4846 108.113C74.1396 108.113 73.8613 107.821 73.8613 107.459C73.8613 107.097 74.1396 106.805 74.4846 106.805Z" fill="#2B2B2B"/>
<path d="M62.9365 127.677C62.9365 127.315 62.6582 127.023 62.3132 127.023C61.9683 127.023 61.6899 127.315 61.6899 127.677C61.6899 128.039 61.9683 128.331 62.3132 128.331C62.6582 128.331 62.9365 128.039 62.9365 127.677Z" fill="#003BE0"/>
<path d="M119.271 17.2568V65.7852H36.4451V17.2568H119.271Z" fill="white" stroke="#2B2B2B" stroke-width="1.16" stroke-linecap="round" stroke-linejoin="round"/>
<path d="M119.851 13.5475C119.851 10.7861 117.612 8.54749 114.851 8.54749H40.865C38.1036 8.54749 35.865 10.7861 35.865 13.5475V16.6767H119.851V13.5475Z" fill="#2B2B2B"/>
<path d="M40.1376 13.8271C40.7763 13.8271 41.294 13.2841 41.294 12.6141C41.294 11.9442 40.7763 11.4011 40.1376 11.4011C39.4989 11.4011 38.9812 11.9442 38.9812 12.6141C38.9812 13.2841 39.4989 13.8271 40.1376 13.8271Z" fill="#003BE0"/>
<path d="M45.0219 13.8271C45.6605 13.8271 46.1783 13.2841 46.1783 12.6141C46.1783 11.9442 45.6605 11.4011 45.0219 11.4011C44.3832 11.4011 43.8655 11.9442 43.8655 12.6141C43.8655 13.2841 44.3832 13.8271 45.0219 13.8271Z" fill="#003BE0"/>
<path d="M51.0589 12.6141C51.0589 11.9439 50.5415 11.4011 49.9025 11.4011C49.2635 11.4011 48.7461 11.9439 48.7461 12.6141C48.7461 13.2844 49.2635 13.8271 49.9025 13.8271C50.5415 13.8271 51.0589 13.2844 51.0589 12.6141Z" fill="#003BE0"/>
<path fill-rule="evenodd" clip-rule="evenodd" d="M53.4656 11.5574C53.4656 11.4439 53.5533 11.3518 53.6616 11.3518H117.683C117.791 11.3518 117.879 11.4439 117.879 11.5574C117.879 11.6709 117.791 11.763 117.683 11.763H53.6616C53.5533 11.763 53.4656 11.6709 53.4656 11.5574Z" fill="white"/>
<path fill-rule="evenodd" clip-rule="evenodd" d="M53.4656 13.6626C53.4656 13.5491 53.5533 13.457 53.6616 13.457H117.683C117.791 13.457 117.879 13.5491 117.879 13.6626C117.879 13.7762 117.791 13.8682 117.683 13.8682H53.6616C53.5533 13.8682 53.4656 13.7762 53.4656 13.6626Z" fill="white"/>
<path d="M60.7372 83.4744L48.9301 90.3659L37.1231 83.4744C31.1412 79.9834 27.4329 73.3673 27.4329 66.1839V36.8455L48.9262 28.3422L70.4196 36.8455V66.1839C70.4196 73.3632 66.7113 79.9792 60.7293 83.4744H60.7372Z" fill="#003BE0"/>
<path d="M58.7694 79.4489L48.9341 85.1932L39.0989 79.4489C34.1165 76.5376 31.0276 71.0277 31.0276 65.0449V39.7321L48.9341 32.6473L66.8407 39.7321V65.0449C66.8407 71.0277 63.7518 76.5376 58.7694 79.4489Z" fill="#7096FF"/>
<path fill-rule="evenodd" clip-rule="evenodd" d="M69.0361 67.6024C69.1444 67.6025 69.232 67.6946 69.232 67.8082C69.228 73.6154 65.8171 79.2675 60.8135 81.7563C60.7157 81.8049 60.5988 81.7612 60.5524 81.6586C60.506 81.556 60.5477 81.4334 60.6455 81.3847C65.5124 78.9639 68.8361 73.4563 68.84 67.8079C68.84 67.6943 68.9279 67.6023 69.0361 67.6024Z" fill="#2B2B2B"/>
<path d="M29.2166 37.6268L45.563 30.8628" stroke="white" stroke-linecap="round" stroke-linejoin="round"/>
<path d="M48.9341 28.3422V90.3659" stroke="#2B2B2B" stroke-linecap="round" stroke-linejoin="round"/>
<path d="M52.3139 75.2159C60.1057 73.2567 64.908 65.0428 63.0403 56.8697C61.1725 48.6965 53.3419 43.659 45.5501 45.6182C37.7584 47.5774 32.956 55.7913 34.8238 63.9645C36.6915 72.1377 44.5221 77.1751 52.3139 75.2159Z" fill="white"/>
<path d="M48.5382 71.7637L37.1506 57.6394L41.1098 54.1237L47.9816 62.6477L58.303 45.8794L62.6581 48.8276L48.5382 71.7637Z" fill="#003BE0"/>
<path d="M147.73 26.5132C147.73 25.9609 147.282 25.5132 146.73 25.5132H103.348C102.796 25.5132 102.348 25.9609 102.348 26.5132V35.1013C102.348 35.6536 102.796 36.1013 103.348 36.1013H137.813C138.178 36.1013 138.514 36.2997 138.689 36.619L139.355 37.8283C139.735 38.5186 140.727 38.5186 141.107 37.8283L141.773 36.619C141.949 36.2997 142.284 36.1013 142.649 36.1013H146.73C147.282 36.1013 147.73 35.6536 147.73 35.1013V26.5132Z" fill="#003BE0"/>
<path d="M108.251 33.482L105.735 30.3652L106.609 29.588L108.13 31.4713L110.407 27.7665L111.368 28.4203L108.251 33.482Z" fill="white"/>
<path fill-rule="evenodd" clip-rule="evenodd" d="M113.987 28.704C113.987 28.5905 114.074 28.4984 114.183 28.4984H144.931C145.039 28.4984 145.127 28.5905 145.127 28.704C145.127 28.8176 145.039 28.9096 144.931 28.9096H114.183C114.074 28.9096 113.987 28.8176 113.987 28.704Z" fill="#2B2B2B"/>
<path fill-rule="evenodd" clip-rule="evenodd" d="M113.987 30.8092C113.987 30.6957 114.074 30.6036 114.183 30.6036H144.931C145.039 30.6036 145.127 30.6957 145.127 30.8092C145.127 30.9228 145.039 31.0148 144.931 31.0148H114.183C114.074 31.0148 113.987 30.9228 113.987 30.8092Z" fill="#2B2B2B"/>
<path fill-rule="evenodd" clip-rule="evenodd" d="M113.987 32.9146C113.987 32.801 114.074 32.709 114.183 32.709H144.931C145.039 32.709 145.127 32.801 145.127 32.9146C145.127 33.0281 145.039 33.1202 144.931 33.1202H114.183C114.074 33.1202 113.987 33.0281 113.987 32.9146Z" fill="#2B2B2B"/>
<path d="M126.919 43.6819H170.301C170.577 43.6819 170.801 43.9057 170.801 44.1819V52.7698C170.801 53.0459 170.577 53.2698 170.301 53.2698H135.836C135.289 53.2698 134.785 53.5673 134.521 54.0461L133.855 55.2561C133.665 55.6008 133.169 55.6011 132.979 55.2561L132.314 54.0461C132.051 53.5673 131.547 53.2698 131 53.2698H126.919C126.643 53.2698 126.419 53.0459 126.419 52.7698V44.1819C126.419 43.9057 126.643 43.6819 126.919 43.6819Z" fill="white" stroke="#2B2B2B"/>
<path d="M164.417 51.1507L161.901 48.0339L162.775 47.2567L164.292 49.14L166.573 45.4352L167.534 46.0849L164.417 51.1507Z" fill="#003BE0"/>
<path fill-rule="evenodd" clip-rule="evenodd" d="M128.04 46.3645C128.04 46.251 128.128 46.1589 128.236 46.1589H158.984C159.093 46.1589 159.18 46.251 159.18 46.3645C159.18 46.4781 159.093 46.5701 158.984 46.5701H128.236C128.128 46.5701 128.04 46.4781 128.04 46.3645Z" fill="#2B2B2B"/>
<path fill-rule="evenodd" clip-rule="evenodd" d="M128.04 48.4699C128.04 48.3563 128.128 48.2643 128.236 48.2643H158.984C159.093 48.2643 159.18 48.3563 159.18 48.4699C159.18 48.5834 159.093 48.6755 158.984 48.6755H128.236C128.128 48.6755 128.04 48.5834 128.04 48.4699Z" fill="#2B2B2B"/>
<path fill-rule="evenodd" clip-rule="evenodd" d="M128.04 50.5751C128.04 50.4616 128.128 50.3695 128.236 50.3695H158.984C159.093 50.3695 159.18 50.4616 159.18 50.5751C159.18 50.6886 159.093 50.7807 158.984 50.7807H128.236C128.128 50.7807 128.04 50.6886 128.04 50.5751Z" fill="#2B2B2B"/>
<path d="M149.925 190.971C149.925 187.904 129.439 187.904 104.171 187.904C78.9024 187.904 58.4165 187.904 58.4165 190.971C58.4165 194.039 78.9024 194.039 104.171 194.039C129.439 194.039 149.925 194.039 149.925 190.971Z" fill="#D9D9D9"/>
<path d="M134.813 187.925C132.458 185.351 132.458 181.276 133.924 178.056C127.303 178.221 121.109 178.71 114.484 178.874C114.598 182.674 114.712 186.473 114.825 190.272L137.773 190.971C137.773 189.327 135.648 188.842 134.81 187.929L134.813 187.925Z" fill="#2B2B2B"/>
<path d="M125.609 182.094C127.275 182.044 128.937 181.995 130.603 181.946" stroke="white" stroke-linecap="round" stroke-linejoin="round"/>
<path d="M125.903 183.541C127.699 183.545 129.49 183.554 131.285 183.558" stroke="white" stroke-linecap="round" stroke-linejoin="round"/>
<path d="M126.389 185.198L131.576 185.256" stroke="white" stroke-linecap="round" stroke-linejoin="round"/>
<path d="M87.9264 187.596C85.986 186.309 85.1158 183.677 84.6376 181.325C84.2456 179.405 84.4455 177.003 85.351 175.285C78.9732 173.615 72.756 172.139 66.3782 170.47C65.7706 174.894 65.1669 179.323 64.5593 183.747C67.86 185.897 71.1684 188.163 74.4652 190.314L90.6352 190.375C90.9135 188.648 89.0084 188.315 87.9225 187.596H87.9264Z" fill="#2B2B2B"/>
<path d="M76.876 179.483C78.5381 179.446 80.2001 179.413 81.8661 179.376" stroke="white" stroke-linecap="round" stroke-linejoin="round"/>
<path d="M76.582 181.045C78.5068 181.091 80.4315 181.14 82.3562 181.185" stroke="white" stroke-linecap="round" stroke-linejoin="round"/>
<path d="M77.166 182.707C79.2201 182.768 81.2781 182.826 83.3322 182.887" stroke="white" stroke-linecap="round" stroke-linejoin="round"/>
<path d="M132.72 92.8988L93.093 96.0691C89.6669 108.08 86.2409 120.087 82.8148 132.097C76.6525 142.665 68.6205 157.094 64.9709 171.276C72.3249 173.685 79.667 175.889 87.0209 178.299C91.8151 167.723 96.8013 157.172 101.592 146.6C104.975 139.133 108.354 131.892 111.682 124.4C112.524 130.666 112.971 137.019 113.814 143.286C113.508 156.267 113.156 167.641 112.744 179.906C120.278 180.03 128.056 179.602 135.59 179.725C135.641 166.946 135.645 154.191 135.7 141.407C135.766 125.263 133.677 109.017 132.724 92.9029L132.72 92.8988Z" fill="#003BE0"/>
<path d="M111.623 124.639C112.403 122.356 113.179 120.074 113.955 117.792Z" fill="#2B2B2B"/>
<path fill-rule="evenodd" clip-rule="evenodd" d="M114.021 117.599C114.123 117.637 114.176 117.754 114.14 117.861C113.364 120.143 112.587 122.426 111.807 124.708C111.771 124.815 111.659 124.87 111.557 124.832C111.455 124.794 111.402 124.676 111.438 124.569C112.218 122.287 112.994 120.005 113.771 117.723C113.807 117.616 113.919 117.56 114.021 117.599Z" fill="#2B2B2B"/>
<path fill-rule="evenodd" clip-rule="evenodd" d="M94.7822 101.612C94.8861 101.644 94.9459 101.758 94.9157 101.867C92.1502 111.855 89.3846 121.843 86.6191 131.827C86.6681 131.847 86.7138 131.875 86.7554 131.911C86.8615 132.004 86.9231 132.135 86.9616 132.259C87.0375 132.503 87.0502 132.814 87.0597 133.044L87.0598 133.047C87.0832 133.616 86.7448 134.113 86.3569 134.427M84.5881 134.972C78.3649 145.173 72.9783 155.762 68.9609 167.112C68.9232 167.218 68.8104 167.273 68.7089 167.233C68.6074 167.194 68.5557 167.075 68.5934 166.969C72.637 155.545 78.0617 144.895 84.3234 134.643C84.3645 134.576 84.439 134.539 84.5144 134.55C85.079 134.629 85.669 134.466 86.1166 134.102L86.117 134.102C86.4503 133.832 86.684 133.449 86.6682 133.065C86.6581 132.818 86.6451 132.567 86.589 132.386C86.5613 132.298 86.5301 132.25 86.504 132.227C86.4859 132.211 86.4588 132.196 86.3967 132.206C86.3305 132.217 86.2634 132.192 86.2191 132.139C86.1747 132.086 86.1592 132.013 86.1779 131.946C88.9636 121.889 91.7493 111.828 94.535 101.768L94.5393 101.752C94.5695 101.643 94.6782 101.58 94.7822 101.612" fill="#2B2B2B"/>
<path d="M66.6526 166.588C73.9634 169.137 81.2781 171.687 88.5889 174.232Z" fill="#2B2B2B"/>
<path d="M66.6526 166.588C73.9634 169.137 81.2781 171.687 88.5889 174.232" stroke="#2B2B2B" stroke-linecap="round" stroke-linejoin="round"/>
<path d="M113.477 175.264C120.686 175.026 127.891 174.787 135.1 174.549Z" fill="#2B2B2B"/>
<path d="M113.477 175.264C120.686 175.026 127.891 174.787 135.1 174.549" stroke="#2B2B2B" stroke-linecap="round" stroke-linejoin="round"/>
<path fill-rule="evenodd" clip-rule="evenodd" d="M112.922 120.715C113.029 120.695 113.13 120.77 113.149 120.882L116.583 141.581C116.59 141.629 116.582 141.677 116.559 141.719C116.306 142.182 116.149 142.769 116.15 143.328C116.151 143.887 116.309 144.396 116.653 144.736C116.695 144.777 116.717 144.834 116.715 144.894C116.516 150.036 116.296 155.161 116.076 160.287C115.866 165.18 115.655 170.074 115.464 174.981C115.46 175.094 115.369 175.182 115.26 175.178C115.152 175.173 115.068 175.077 115.073 174.964C115.264 170.042 115.474 165.154 115.684 160.266C115.903 155.178 116.122 150.09 116.32 144.968C115.92 144.531 115.759 143.93 115.758 143.328C115.757 142.721 115.918 142.092 116.184 141.58L112.762 120.953C112.744 120.841 112.815 120.734 112.922 120.715Z" fill="#2B2B2B"/>
<path d="M145.127 69.2102C148.804 71.8089 152.273 79.5845 150.76 84.5763C149.243 89.5682 145.429 91.4679 141.952 92.3396C138.479 93.2113 130.16 89.6586 130.16 89.6586L127.307 78.9924L136.585 69.8105L145.127 69.2102Z" fill="white"/>
<path d="M139.212 73.5071C137.169 71.225 135.809 68.4125 133.626 66.2784C129.584 62.331 123.986 60.7315 118.463 60.6575C115.739 60.6205 113.061 60.4848 110.337 60.4478C110.243 61.1509 109.769 61.7718 109.149 62.0596C108.534 62.3474 107.797 62.3146 107.185 62.0062C106.578 61.6978 106.115 61.1057 105.86 60.4478C103.465 61.4264 101.066 62.4009 98.671 63.3795C93.1713 65.6205 88.2634 69.5638 85.4058 74.9833C88.5614 76.2991 91.5484 77.8493 94.704 79.1651C94.1278 84.9094 93.4966 90.6948 92.9204 96.4432L132.293 97.6768C131.905 91.5213 130.991 85.3699 129.451 79.4159C132.701 77.4216 135.962 75.4973 139.212 73.503V73.5071Z" fill="#2B2B2B"/>
<path fill-rule="evenodd" clip-rule="evenodd" d="M85.2591 74.8425C85.2911 74.7341 85.401 74.6734 85.5043 74.707L100.824 79.6901C100.928 79.7237 100.986 79.8389 100.954 79.9473C100.922 80.0558 100.812 80.1165 100.708 80.0828L85.3882 75.0998C85.2849 75.0661 85.227 74.951 85.2591 74.8425Z" fill="white"/>
<path fill-rule="evenodd" clip-rule="evenodd" d="M114.233 60.6557C114.336 60.6917 114.391 60.8082 114.357 60.9159C113.568 63.3899 111.323 65.2701 108.847 65.529C106.371 65.7878 103.816 64.4116 102.574 62.1498C102.52 62.0515 102.552 61.9257 102.646 61.8691C102.74 61.8124 102.86 61.8462 102.914 61.9446C104.079 64.0662 106.486 65.3626 108.808 65.1198C111.131 64.877 113.245 63.1059 113.985 60.7855C114.019 60.6778 114.13 60.6197 114.233 60.6557Z" fill="#2B2B2B"/>
<path fill-rule="evenodd" clip-rule="evenodd" d="M100.8 65.0964C99.7883 64.219 98.2677 63.9676 97.1773 64.6614C97.0848 64.7203 96.9642 64.6894 96.9081 64.5923C96.8519 64.4952 96.8815 64.3688 96.974 64.3099C98.2356 63.507 99.9371 63.8147 101.05 64.7793C102.163 65.7402 102.743 67.236 102.903 68.7057L102.904 68.7063C103.06 70.1749 102.839 71.6532 102.576 73.0734L102.576 73.0735C102.147 75.3883 101.584 77.6783 100.9 79.9226C100.867 80.0308 100.757 80.0904 100.654 80.0558C100.551 80.0212 100.494 79.9055 100.527 79.7973C101.207 77.568 101.765 75.2937 102.191 72.995C102.453 71.5782 102.663 70.1535 102.514 68.7522C102.361 67.3519 101.812 65.9696 100.801 65.0967L100.8 65.0964Z" fill="white"/>
<path fill-rule="evenodd" clip-rule="evenodd" d="M121.615 60.8764C121.719 60.8427 121.829 60.9033 121.861 61.0118C122.933 64.6345 124.606 68.0272 126.277 71.414C126.902 72.678 127.526 73.943 128.15 75.2079L128.152 75.2108C128.776 76.4758 129.4 77.7407 130.025 79.0046C130.075 79.1054 130.037 79.2295 129.941 79.2817C129.845 79.334 129.727 79.2947 129.677 79.1939C129.051 77.9294 128.427 76.6639 127.803 75.3984C127.179 74.133 126.554 72.8677 125.929 71.6034L125.928 71.601C124.26 68.2204 122.57 64.7963 121.486 61.1337C121.454 61.0252 121.512 60.91 121.615 60.8764Z" fill="white"/>
<path d="M108.087 111.341C108.087 111.341 114.527 114.77 119.518 115.769L126.715 112.644L128.349 109.996L113.508 104.309L105.79 107.459L108.083 111.341H108.087Z" fill="white"/>
<path d="M120.11 113.421C122.293 112.677 124.477 111.937 126.66 111.193Z" fill="#2B2B2B"/>
<path fill-rule="evenodd" clip-rule="evenodd" d="M126.846 111.129C126.88 111.237 126.823 111.353 126.721 111.388C125.629 111.76 124.537 112.131 123.446 112.502L123.445 112.503C122.353 112.874 121.262 113.245 120.17 113.617C120.067 113.652 119.957 113.593 119.923 113.485C119.89 113.377 119.946 113.261 120.049 113.226C121.141 112.854 122.233 112.483 123.324 112.111L123.324 112.111L123.325 112.111C124.416 111.74 125.508 111.369 126.599 110.997C126.702 110.962 126.813 111.021 126.846 111.129Z" fill="#2B2B2B"/>
<path d="M139.945 83.8115L135.684 83.4373C135.762 82.4258 135.723 81.4389 135.558 80.5014C134.5 74.4035 128.914 70.345 123.101 71.4552C117.287 72.5654 113.418 78.4249 114.477 84.5228C114.637 85.4562 114.931 86.3978 115.347 87.3189L111.478 89.2391C110.902 87.9645 110.494 86.6445 110.267 85.3246C108.789 76.7925 114.202 68.5934 122.336 67.0391C130.47 65.4889 138.287 71.1674 139.765 79.6955C139.996 81.0236 140.055 82.4052 139.941 83.8073L139.945 83.8115Z" fill="#003BE0"/>
<path fill-rule="evenodd" clip-rule="evenodd" d="M121.002 68.4169C121.027 68.5271 120.963 68.6385 120.858 68.6656C116.948 69.6728 113.613 72.867 112.306 76.8593C112.271 76.9666 112.159 77.0238 112.057 76.9869C111.955 76.95 111.9 76.8331 111.935 76.7257C113.286 72.601 116.725 69.3068 120.765 68.2662C120.87 68.2392 120.976 68.3066 121.002 68.4169Z" fill="white"/>
<path d="M108.15 87.6766C108.02 89.3008 108.581 93.9061 108.875 95.5879C110.666 105.913 120.094 112.759 129.937 110.884C139.78 109.005 146.307 99.1159 144.519 88.7909C144.229 87.1133 143.206 82.5943 142.544 81.1182L108.154 87.6766H108.15Z" fill="#7096FF"/>
<path d="M130.31 91.8421C129.953 89.782 128.067 88.4128 126.103 88.7869C124.139 89.1611 122.834 91.1389 123.191 93.199C123.481 94.8684 124.778 96.0691 126.303 96.2665L126.35 104.429L131.121 103.52L128.428 95.8635C129.788 95.111 130.6 93.5115 130.31 91.8421Z" fill="#2B2B2B"/>
<path fill-rule="evenodd" clip-rule="evenodd" d="M129.924 91.9156C129.606 90.079 127.924 88.8579 126.173 89.1915C124.423 89.5251 123.259 91.2887 123.576 93.1253M130.31 91.8421C129.953 89.782 128.067 88.4128 126.103 88.7869C124.139 89.1611 122.834 91.1389 123.191 93.199C123.481 94.8684 124.778 96.0691 126.303 96.2665L126.35 104.429L131.121 103.52L128.428 95.8635C129.788 95.111 130.6 93.5115 130.31 91.8421ZM130.592 103.203L127.941 95.6678L128.245 95.4998C129.461 94.8269 130.182 93.3997 129.924 91.9156M130.592 103.203L126.739 103.937L126.693 95.9026L126.351 95.8584C124.989 95.6821 123.835 94.6101 123.576 93.1253" fill="#2B2B2B"/>
<path fill-rule="evenodd" clip-rule="evenodd" d="M125.646 88.014C125.674 88.1237 125.612 88.2364 125.507 88.2658C124.63 88.5124 123.838 89.0926 123.316 89.8714L123.315 89.872C122.789 90.6507 122.535 91.6265 122.61 92.5775C122.619 92.6907 122.538 92.79 122.431 92.7993C122.323 92.8086 122.228 92.7244 122.219 92.6113C122.137 91.5641 122.416 90.4923 122.995 89.6345C123.571 88.7769 124.44 88.1401 125.406 87.8686C125.51 87.8392 125.618 87.9043 125.646 88.014Z" fill="#2B2B2B"/>
<path fill-rule="evenodd" clip-rule="evenodd" d="M143.348 92.3356C143.456 92.3383 143.542 92.4325 143.539 92.5461C143.408 98.3122 140.459 103.925 135.882 107.12C135.792 107.183 135.671 107.158 135.611 107.063C135.551 106.969 135.575 106.841 135.665 106.778C140.136 103.657 143.02 98.1683 143.147 92.5363C143.15 92.4228 143.24 92.3329 143.348 92.3356Z" fill="#2B2B2B"/>
<path d="M103.932 51.2371C104.159 51.2946 104.387 51.3522 104.61 51.4056Z" fill="#2B2B2B"/>
<path fill-rule="evenodd" clip-rule="evenodd" d="M103.741 51.1889C103.767 51.0785 103.873 51.0106 103.978 51.0373C104.205 51.0949 104.432 51.1522 104.654 51.2053C104.759 51.2305 104.825 51.3407 104.801 51.4514C104.777 51.5621 104.672 51.6314 104.566 51.6062C104.342 51.5524 104.114 51.4946 103.887 51.4372L103.886 51.437C103.781 51.4103 103.716 51.2993 103.741 51.1889Z" fill="#2B2B2B"/>
<path d="M108.385 49.3745C106.77 49.3539 105.171 50.275 104.316 51.71C103.461 53.1492 103.375 55.0571 104.1 56.5703L111.811 54.5678C112.019 53.6467 112.199 52.7257 112.407 51.8046C111.58 50.349 110.004 49.395 108.385 49.3745Z" fill="#2B2B2B"/>
<path fill-rule="evenodd" clip-rule="evenodd" d="M108.38 49.7856L108.38 49.7856C106.903 49.7668 105.431 50.614 104.649 51.9276C103.921 53.1533 103.802 54.7571 104.322 56.0891L111.484 54.2291C111.567 53.8531 111.646 53.4765 111.726 53.0975L111.726 53.0961C111.812 52.6917 111.897 52.2846 111.988 51.8768C111.211 50.6219 109.811 49.8038 108.38 49.7856ZM112.407 51.8046C112.303 52.2651 112.206 52.7257 112.109 53.1862C112.012 53.6467 111.915 54.1073 111.811 54.5678L104.1 56.5703C103.375 55.0571 103.461 53.1492 104.316 51.71C105.171 50.275 106.77 49.3539 108.385 49.3745C110.004 49.395 111.58 50.349 112.407 51.8046Z" fill="#2B2B2B"/>
<path d="M112.791 61.0274C112.176 61.0274 111.533 61.0768 110.917 61.0768C110.917 60.5669 110.937 60.02 110.933 59.5101C111.76 59.3004 112.497 58.7165 112.913 57.9394C113.328 57.1581 113.481 56.2288 113.187 55.39C112.807 54.3209 112.462 53.1655 112.082 52.0923C111.552 52.6926 110.784 53.0421 110.012 52.9311C109.067 53.8892 107.483 54.1523 106.307 53.5356C106.272 54.1688 106.331 54.6581 106.296 55.2913C105.614 54.9665 104.747 55.131 104.214 55.6861C103.681 56.2412 103.52 57.1499 103.83 57.8654C104.136 58.5808 104.888 59.0619 105.637 59.0167C105.531 59.7445 105.343 60.4805 105.233 61.2083C104.759 61.4057 104.187 61.6154 103.712 61.8128C104.72 63.4164 106.566 64.3909 108.393 64.2676C110.22 64.1442 111.991 62.7585 112.787 61.0315L112.791 61.0274Z" fill="white"/>
<path fill-rule="evenodd" clip-rule="evenodd" d="M112.12 51.8906C112.186 51.9045 112.241 51.9537 112.265 52.0207C112.454 52.5542 112.634 53.1074 112.814 53.6572L112.82 53.6763C113.001 54.2334 113.182 54.7868 113.371 55.3182L113.371 55.3191C113.689 56.2275 113.52 57.2198 113.084 58.0396L113.083 58.04C112.667 58.8198 111.947 59.4151 111.129 59.6677C111.129 59.8974 111.125 60.1393 111.121 60.3782C111.118 60.5451 111.116 60.7106 111.114 60.8696C111.355 60.8659 111.599 60.8564 111.847 60.8467L111.849 60.8466C112.162 60.8343 112.48 60.8219 112.791 60.8219C112.87 60.8219 112.942 60.872 112.972 60.9488C112.997 61.013 112.99 61.0853 112.954 61.1417C112.127 62.9176 110.304 64.3446 108.405 64.4728C106.508 64.6009 104.594 63.5906 103.549 61.9259C103.516 61.8743 103.508 61.81 103.525 61.751C103.543 61.692 103.585 61.6445 103.64 61.6217C103.879 61.5222 104.143 61.4198 104.403 61.3183L104.405 61.3178C104.629 61.2306 104.851 61.1441 105.058 61.0598C105.11 60.7382 105.175 60.4163 105.239 60.0993L105.245 60.0699C105.303 59.7833 105.36 59.5007 105.406 59.2205C104.662 59.1666 103.957 58.6657 103.651 57.95C103.308 57.1558 103.485 56.1554 104.076 55.5402C104.599 54.9956 105.407 54.7911 106.11 55.0016C106.114 54.8017 106.11 54.6118 106.106 54.418L106.105 54.4152C106.1 54.136 106.094 53.8485 106.112 53.5236C106.116 53.4546 106.152 53.3922 106.209 53.3576C106.266 53.323 106.336 53.3208 106.395 53.3517C107.496 53.9291 108.99 53.6814 109.876 52.7833C109.919 52.7395 109.979 52.7189 110.038 52.7274C110.737 52.8279 111.444 52.5121 111.938 51.9527C111.984 51.9003 112.053 51.8768 112.12 51.8906ZM112.463 61.2372C112.265 61.2418 112.064 61.2496 111.861 61.2576L111.86 61.2576C111.546 61.2699 111.229 61.2824 110.917 61.2824C110.809 61.2824 110.721 61.1903 110.721 61.0768C110.721 60.8343 110.725 60.5952 110.729 60.3575C110.734 60.0747 110.739 59.7939 110.737 59.5118C110.736 59.4163 110.798 59.3328 110.887 59.3103C111.661 59.114 112.353 58.5659 112.742 57.8389C113.136 57.0963 113.272 56.2304 113.003 55.4615C112.812 54.9239 112.63 54.3652 112.449 53.8092L112.443 53.7927C112.297 53.3434 112.151 52.8961 112.001 52.4601C111.476 52.9399 110.787 53.217 110.079 53.1463C109.143 54.039 107.676 54.3205 106.493 53.8454C106.49 54.0379 106.493 54.2216 106.497 54.409L106.497 54.4118C106.503 54.6909 106.509 54.9785 106.491 55.3034C106.487 55.371 106.452 55.4324 106.397 55.4674C106.342 55.5024 106.273 55.5066 106.215 55.4786C105.607 55.1892 104.828 55.3368 104.352 55.832C103.877 56.3269 103.733 57.1437 104.008 57.7804L104.009 57.7813C104.281 58.419 104.958 58.8518 105.626 58.8115C105.685 58.8079 105.742 58.8325 105.782 58.8783C105.822 58.9242 105.84 58.9864 105.831 59.0477C105.777 59.4184 105.702 59.79 105.628 60.1552L105.623 60.1803C105.551 60.5388 105.48 60.891 105.427 61.2405C105.416 61.3123 105.37 61.3727 105.306 61.3995C105.066 61.499 104.803 61.6014 104.542 61.7028L104.541 61.7034C104.362 61.7729 104.185 61.8419 104.016 61.9098C105.01 63.3269 106.706 64.1755 108.38 64.0624C110.024 63.9515 111.637 62.7655 112.463 61.2372Z" fill="#2B2B2B"/>
<path d="M108.785 56.0438C109.001 56.0438 109.177 55.8597 109.177 55.6326C109.177 55.4055 109.001 55.2214 108.785 55.2214C108.568 55.2214 108.393 55.4055 108.393 55.6326C108.393 55.8597 108.568 56.0438 108.785 56.0438Z" fill="#2B2B2B"/>
<path fill-rule="evenodd" clip-rule="evenodd" d="M109.177 55.6326C109.177 55.8597 109.001 56.0438 108.785 56.0438C108.568 56.0438 108.393 55.8597 108.393 55.6326C108.393 55.4055 108.568 55.2214 108.785 55.2214C109.001 55.2214 109.177 55.4055 109.177 55.6326Z" fill="#2B2B2B"/>
<path d="M112.019 54.9131C112.235 54.9131 112.411 54.729 112.411 54.5019C112.411 54.2748 112.235 54.0907 112.019 54.0907C111.802 54.0907 111.627 54.2748 111.627 54.5019C111.627 54.729 111.802 54.9131 112.019 54.9131Z" fill="#2B2B2B"/>
<path fill-rule="evenodd" clip-rule="evenodd" d="M112.411 54.5019C112.411 54.729 112.235 54.9131 112.019 54.9131C111.802 54.9131 111.627 54.729 111.627 54.5019C111.627 54.2748 111.802 54.0907 112.019 54.0907C112.235 54.0907 112.411 54.2748 112.411 54.5019Z" fill="#2B2B2B"/>
<path fill-rule="evenodd" clip-rule="evenodd" d="M110.603 54.5317C110.702 54.4859 110.818 54.5329 110.861 54.6368C111.037 55.0553 111.217 55.474 111.398 55.8935C111.423 55.9535 111.42 56.0227 111.389 56.0799C111.358 56.137 111.303 56.1751 111.241 56.1824C111.18 56.1895 111.102 56.2051 111.015 56.2233C111.005 56.2254 110.995 56.2274 110.985 56.2295C110.911 56.2453 110.831 56.2621 110.764 56.272C110.657 56.2881 110.558 56.21 110.543 56.0976C110.527 55.9852 110.602 55.881 110.709 55.865C110.764 55.8568 110.832 55.8425 110.908 55.8264C110.917 55.8244 110.927 55.8225 110.936 55.8205C110.791 55.4816 110.645 55.1422 110.503 54.8028C110.459 54.6989 110.504 54.5775 110.603 54.5317Z" fill="#2B2B2B"/>
<path d="M110.153 56.7634C110.196 56.9279 110.329 57.0595 110.486 57.1006C110.643 57.1417 110.819 57.0842 110.929 56.9608" fill="#2B2B2B"/>
<path fill-rule="evenodd" clip-rule="evenodd" d="M110.101 56.5653C110.205 56.5352 110.313 56.5995 110.342 56.709C110.365 56.799 110.443 56.8773 110.534 56.9012C110.619 56.9236 110.723 56.8911 110.786 56.8206C110.86 56.7376 110.984 56.7331 111.063 56.8106C111.142 56.8881 111.146 57.0181 111.072 57.1012C110.915 57.2774 110.667 57.36 110.439 57.3001C110.216 57.2418 110.027 57.057 109.964 56.818C109.935 56.7085 109.996 56.5954 110.101 56.5653Z" fill="#2B2B2B"/>
<path fill-rule="evenodd" clip-rule="evenodd" d="M109.254 54.0805C109.043 53.9933 108.802 53.9966 108.593 54.0873C108.385 54.1781 108.212 54.3569 108.127 54.5725C108.085 54.6774 107.971 54.7271 107.871 54.6835C107.771 54.64 107.723 54.5197 107.765 54.4148C107.891 54.0959 108.142 53.8389 108.443 53.7076C108.744 53.5763 109.091 53.5713 109.397 53.6979C109.498 53.7396 109.548 53.8589 109.508 53.9646C109.468 54.0702 109.355 54.1221 109.254 54.0805Z" fill="#2B2B2B"/>
<path fill-rule="evenodd" clip-rule="evenodd" d="M112.074 53.0104C112.104 53.1196 112.043 53.2333 111.939 53.2645C111.829 53.2976 111.72 53.3296 111.611 53.3614L111.611 53.3615C111.502 53.3934 111.394 53.4251 111.285 53.4578C111.18 53.489 111.072 53.4258 111.042 53.3166C111.013 53.2074 111.073 53.0936 111.177 53.0624C111.287 53.0294 111.396 52.9974 111.505 52.9655L111.505 52.9655C111.614 52.9336 111.722 52.9019 111.832 52.8692C111.936 52.838 112.044 52.9012 112.074 53.0104Z" fill="#2B2B2B"/>
<path d="M104.951 56.5455C105.284 56.5579 105.613 56.5661 105.947 56.5784Z" fill="#2B2B2B"/>
<path fill-rule="evenodd" clip-rule="evenodd" d="M104.755 56.5383C104.759 56.4248 104.85 56.3361 104.958 56.3401C105.124 56.3462 105.289 56.3514 105.455 56.3565L105.455 56.3565C105.62 56.3616 105.786 56.3668 105.953 56.373C106.062 56.377 106.146 56.4722 106.142 56.5857C106.139 56.6992 106.048 56.7879 105.94 56.7839C105.774 56.7778 105.609 56.7727 105.443 56.7675L105.443 56.7675C105.277 56.7624 105.111 56.7572 104.944 56.751C104.836 56.747 104.751 56.6518 104.755 56.5383Z" fill="#2B2B2B"/>
<path d="M108.009 59.4806C108.981 59.7725 110.027 59.7725 111 59.4806Z" fill="#2B2B2B"/>
<path fill-rule="evenodd" clip-rule="evenodd" d="M107.82 59.424C107.85 59.3148 107.958 59.2516 108.062 59.2829C108.999 59.5643 110.009 59.5643 110.946 59.2829C111.05 59.2516 111.158 59.3148 111.188 59.424C111.218 59.5331 111.158 59.647 111.053 59.6782C110.046 59.9807 108.962 59.9807 107.955 59.6782C107.851 59.647 107.79 59.5331 107.82 59.424Z" fill="#2B2B2B"/>
<path d="M105.547 59.0497C105.782 58.9592 106.017 58.8646 106.252 58.7742Z" fill="#2B2B2B"/>
<path fill-rule="evenodd" clip-rule="evenodd" d="M106.437 58.7034C106.474 58.81 106.422 58.9281 106.32 58.9672C106.203 59.0121 106.086 59.0581 105.969 59.1044L105.968 59.1045C105.851 59.1507 105.733 59.1972 105.614 59.2427C105.513 59.2817 105.4 59.227 105.363 59.1204C105.326 59.0138 105.378 58.8957 105.479 58.8566C105.596 58.8117 105.713 58.7657 105.831 58.7194L105.831 58.7192C105.949 58.6731 106.067 58.6266 106.185 58.5811C106.287 58.542 106.399 58.5967 106.437 58.7034Z" fill="#2B2B2B"/>
<path d="M145.127 69.2102C143.046 67.9109 141.046 66.2455 138.636 65.97C135.123 65.563 131.587 65.3738 128.052 65.3985C127.883 65.5506 127.828 65.7644 127.918 65.9783C127.573 65.9865 127.201 66.0441 126.856 66.0523C126.742 66.3812 126.84 66.7307 127.083 66.9733C127.326 67.2159 127.648 67.3516 127.961 67.4791L131.854 69.0827C130.898 69.2513 129.941 69.276 128.988 69.4446C128.918 69.6995 129.102 69.9421 129.306 70.0984C129.51 70.2546 129.761 70.3204 130.008 70.378C132.042 70.8755 134.077 71.3731 136.111 71.8706C137.087 72.9644 138.044 74.0293 139.016 75.1231C140.039 76.2744 141.403 77.1749 142.889 76.957C144.374 76.7432 145.692 75.5549 146.115 74.0417C146.554 72.4709 146.46 70.0408 145.119 69.202L145.127 69.2102Z" fill="white"/>
<path d="M131.58 68.9717C133.097 68.9799 134.614 68.9922 136.131 69.0005Z" fill="#2B2B2B"/>
<path fill-rule="evenodd" clip-rule="evenodd" d="M131.384 68.9705C131.384 68.857 131.472 68.7654 131.581 68.766C132.339 68.7701 133.098 68.7752 133.856 68.7804L133.856 68.7804C134.615 68.7855 135.373 68.7907 136.132 68.7948C136.24 68.7954 136.327 68.8879 136.327 69.0014C136.326 69.115 136.238 69.2066 136.13 69.206C135.371 69.2019 134.612 69.1967 133.854 69.1916L133.854 69.1916C133.095 69.1864 132.337 69.1813 131.579 69.1772C131.47 69.1766 131.383 69.0841 131.384 68.9705Z" fill="#2B2B2B"/>
<path d="M127.824 65.826C131.376 66.2496 134.927 66.6772 138.479 67.1007Z" fill="#2B2B2B"/>
<path fill-rule="evenodd" clip-rule="evenodd" d="M127.629 65.8029C127.642 65.6901 127.739 65.609 127.846 65.6218C129.622 65.8336 131.398 66.0464 133.174 66.2592L133.174 66.2592C134.949 66.472 136.725 66.6848 138.501 66.8965C138.608 66.9093 138.686 67.0112 138.673 67.124C138.661 67.2368 138.564 67.3179 138.457 67.3051C136.681 67.0933 134.905 66.8805 133.129 66.6677L133.129 66.6677C131.353 66.4549 129.578 66.2421 127.802 66.0304C127.694 66.0175 127.617 65.9157 127.629 65.8029Z" fill="#2B2B2B"/>
<path fill-rule="evenodd" clip-rule="evenodd" d="M137.798 73.9369C137.889 73.8763 138.01 73.905 138.068 74.001C139.279 76.0143 141.724 77.1292 143.958 76.6884C144.064 76.6674 144.167 76.7408 144.187 76.8524C144.207 76.964 144.137 77.0715 144.03 77.0925C141.639 77.5644 139.034 76.3767 137.737 74.2205C137.679 74.1245 137.706 73.9975 137.798 73.9369Z" fill="#2B2B2B"/>
<path fill-rule="evenodd" clip-rule="evenodd" d="M146.136 69.9726C146.209 69.8885 146.333 69.882 146.413 69.9582C147.853 71.3258 150.816 75.4257 151.268 80.983C151.554 84.4925 150.084 87.1862 148.49 88.953C147.694 89.8363 146.864 90.4921 146.198 90.9072C145.866 91.1145 145.571 91.2644 145.339 91.3523C145.223 91.396 145.117 91.4268 145.026 91.4397C144.98 91.4462 144.933 91.449 144.887 91.4443C144.843 91.4398 144.787 91.4271 144.735 91.3911C144.645 91.3281 144.621 91.2005 144.681 91.106C144.736 91.0192 144.844 90.9906 144.93 91.0354C144.939 91.0356 144.952 91.0351 144.973 91.0322C145.027 91.0246 145.104 91.0039 145.206 90.9654C145.408 90.8891 145.68 90.7524 145.998 90.5539C146.633 90.1575 147.435 89.5254 148.206 88.6705C149.747 86.9611 151.151 84.3774 150.878 81.0179C150.436 75.5849 147.532 71.576 146.15 70.263C146.07 70.1868 146.064 70.0568 146.136 69.9726ZM144.923 91.0348C144.923 91.0348 144.923 91.0348 144.924 91.0349Z" fill="#2B2B2B"/>
<path d="M113.351 101.18C112.007 101.139 110.988 100.995 109.643 100.954C105.382 96.62 101.145 92.2491 96.8835 87.9151C97.7812 85.1231 98.6828 82.3353 99.5805 79.5433L86.7778 75.2916C85.7546 78.5852 84.4454 81.9981 83.5751 85.3452C82.454 89.6627 83.1165 95.9086 88.8632 100.238C95.1313 104.955 101.419 108.113 108.083 111.345L108.93 109.243C112.995 108.104 116.923 106.065 121.129 105.905C121.932 105.876 122.697 105.119 122.658 104.272C119.537 103.257 116.613 101.283 113.351 101.184V101.18Z" fill="white"/>
<path fill-rule="evenodd" clip-rule="evenodd" d="M86.8963 75.1662C86.9965 75.2092 87.0445 75.3293 87.0036 75.4344L84.7121 81.3112C81.523 89.4905 84.9551 98.9101 92.4913 102.866C98.5317 106.037 104.837 109.341 109.852 111.781C112.36 113.001 114.541 114.004 116.203 114.664C117.035 114.995 117.732 115.238 118.272 115.381C118.543 115.452 118.77 115.497 118.952 115.516C119.139 115.536 119.262 115.526 119.334 115.502C119.377 115.488 119.42 115.474 119.465 115.459C120.578 115.095 122.29 114.534 123.874 113.816C124.697 113.443 125.48 113.03 126.122 112.583C126.769 112.133 127.256 111.662 127.51 111.179C127.562 111.08 127.681 111.044 127.776 111.099C127.871 111.154 127.905 111.279 127.853 111.378C127.554 111.946 127.005 112.462 126.339 112.925C125.669 113.391 124.864 113.815 124.029 114.194C122.426 114.92 120.697 115.487 119.585 115.851C119.539 115.866 119.495 115.881 119.451 115.895C119.304 115.943 119.118 115.947 118.913 115.926C118.705 115.904 118.457 115.854 118.176 115.78C117.615 115.631 116.901 115.382 116.064 115.049C114.389 114.383 112.197 113.376 109.687 112.154C104.666 109.711 98.3548 106.404 92.3159 103.234C84.5987 99.1828 81.0816 89.5363 84.3493 81.1556L86.6407 75.2787C86.6817 75.1736 86.7962 75.1233 86.8963 75.1662Z" fill="black"/>
<path d="M115.48 107.073C114.912 107.184 114.339 107.295 113.771 107.402Z" fill="#2B2B2B"/>
<path fill-rule="evenodd" clip-rule="evenodd" d="M115.673 107.035C115.693 107.147 115.622 107.254 115.516 107.275C114.947 107.386 114.375 107.497 113.806 107.604C113.699 107.624 113.597 107.55 113.578 107.438C113.559 107.326 113.63 107.219 113.736 107.199C114.304 107.092 114.876 106.981 115.444 106.87C115.551 106.85 115.653 106.923 115.673 107.035Z" fill="#2B2B2B"/>
<path d="M96.9345 87.8206L95.2214 88.1783Z" fill="#2B2B2B"/>
<path fill-rule="evenodd" clip-rule="evenodd" d="M97.1267 87.7805C97.1478 87.8918 97.0789 88.0001 96.9727 88.0223L95.2597 88.38C95.1535 88.4022 95.0503 88.3299 95.0292 88.2185C95.0081 88.1071 95.077 87.9989 95.1832 87.9767L96.8962 87.619C97.0024 87.5968 97.1056 87.6691 97.1267 87.7805Z" fill="#2B2B2B"/>
<path fill-rule="evenodd" clip-rule="evenodd" d="M32.2092 108.05C32.6557 106.597 34.6133 106.597 35.0597 108.05C35.3894 109.122 36.8344 109.122 37.1641 108.05C37.6106 106.597 39.5681 106.597 40.0146 108.05C40.3443 109.122 41.7893 109.122 42.119 108.05C42.5655 106.597 44.523 106.597 44.9695 108.05C45.2992 109.122 46.7442 109.122 47.0739 108.05C47.5203 106.597 49.4779 106.597 49.9244 108.05C50.2541 109.122 51.6991 109.122 52.0287 108.05C52.4752 106.597 54.4328 106.597 54.8793 108.05C55.2089 109.122 56.654 109.122 56.9836 108.05C57.0168 107.942 57.1273 107.882 57.2303 107.917C57.3333 107.952 57.3899 108.068 57.3567 108.176C56.9102 109.628 54.9527 109.628 54.5062 108.176C54.1765 107.104 52.7315 107.104 52.4018 108.176C51.9553 109.628 49.9978 109.628 49.5513 108.176C49.2216 107.104 47.7766 107.104 47.4469 108.176C47.0005 109.628 45.0429 109.628 44.5964 108.176C44.2667 107.104 42.8217 107.104 42.4921 108.176C42.0456 109.628 40.088 109.628 39.6415 108.176C39.3119 107.104 37.8669 107.104 37.5372 108.176C37.0907 109.628 35.1331 109.628 34.6867 108.176C34.357 107.104 32.912 107.104 32.5823 108.176C32.5491 108.284 32.4386 108.343 32.3356 108.309C32.2326 108.274 32.176 108.158 32.2092 108.05Z" fill="#2B2B2B"/>
<path fill-rule="evenodd" clip-rule="evenodd" d="M150.358 98.6789C150.804 97.2265 152.762 97.2265 153.208 98.6789C153.538 99.7512 154.983 99.7512 155.313 98.6789C155.759 97.2265 157.717 97.2265 158.163 98.6789C158.493 99.7512 159.938 99.7512 160.268 98.6789C160.714 97.2265 162.672 97.2265 163.118 98.6789C163.448 99.7512 164.893 99.7512 165.223 98.6789C165.669 97.2265 167.627 97.2265 168.073 98.6789C168.403 99.7512 169.848 99.7512 170.177 98.6789C170.624 97.2265 172.581 97.2265 173.028 98.6789C173.358 99.7512 174.803 99.7512 175.132 98.6789C175.166 98.5708 175.276 98.5114 175.379 98.5463C175.482 98.5811 175.539 98.697 175.505 98.8051C175.059 100.257 173.101 100.257 172.655 98.8051C172.325 97.7327 170.88 97.7327 170.55 98.8051C170.104 100.257 168.146 100.257 167.7 98.8051C167.37 97.7327 165.925 97.7327 165.596 98.8051C165.149 100.257 163.192 100.257 162.745 98.8051C162.415 97.7327 160.97 97.7327 160.641 98.8051C160.194 100.257 158.237 100.257 157.79 98.8051C157.461 97.7327 156.016 97.7327 155.686 98.8051C155.239 100.257 153.282 100.257 152.835 98.8051C152.506 97.7327 151.061 97.7327 150.731 98.8051C150.698 98.9131 150.587 98.9725 150.484 98.9376C150.381 98.9028 150.325 98.7869 150.358 98.6789Z" fill="#2B2B2B"/>
<path fill-rule="evenodd" clip-rule="evenodd" d="M79.21 42.3089C79.6564 40.8565 81.614 40.8565 82.0605 42.3089C82.3901 43.3812 83.8352 43.3812 84.1648 42.3089C84.6113 40.8565 86.5689 40.8565 87.0153 42.3089C87.345 43.3812 88.79 43.3812 89.1197 42.3089C89.5662 40.8565 91.5237 40.8565 91.9702 42.3089C92.2999 43.3812 93.7449 43.3812 94.0746 42.3089C94.5211 40.8565 96.4786 40.8565 96.9251 42.3089C97.2548 43.3812 98.6998 43.3812 99.0295 42.3089C99.476 40.8565 101.434 40.8565 101.88 42.3089C102.21 43.3812 103.655 43.3812 103.984 42.3089C104.018 42.2008 104.128 42.1414 104.231 42.1763C104.334 42.2111 104.391 42.327 104.357 42.4351C103.911 43.8874 101.953 43.8874 101.507 42.4351C101.177 41.3627 99.7322 41.3627 99.4026 42.4351C98.9561 43.8874 96.9985 43.8874 96.552 42.4351C96.2224 41.3627 94.7773 41.3627 94.4477 42.4351C94.0012 43.8874 92.0436 43.8874 91.5971 42.4351C91.2675 41.3627 89.8225 41.3627 89.4928 42.4351C89.0463 43.8874 87.0888 43.8874 86.6423 42.4351C86.3126 41.3627 84.8676 41.3627 84.5379 42.4351C84.0914 43.8874 82.1339 43.8874 81.6874 42.4351C81.3577 41.3627 79.9127 41.3627 79.583 42.4351C79.5498 42.5431 79.4394 42.6025 79.3363 42.5676C79.2333 42.5328 79.1767 42.4169 79.21 42.3089Z" fill="#2B2B2B"/>
</svg>
