<svg width="300" height="300" viewBox="0 0 300 300" fill="none" xmlns="http://www.w3.org/2000/svg">
<g clip-path="url(#clip0_5217_661)">

<path d="M126 74.5C125.6 83.3 128.5 93.1667 130 97L135 120.5H196.5C204.5 116.5 208 113 210.5 109C213 105 214 96 206 88.5C198 81 183 81.5 180 81.5C177 81.5 168 81 165.5 74.5C163 68.0001 160 63 158.5 61C157 59 154.5 57.5 152 58.5C150.5 59.5 149 59 148.5 58.5C145.7 56.5 142.333 56.3334 141 56.5C133 57 126.5 63.5 126 74.5Z" fill="white"/>
<path d="M299.59 73.0903H220.587V150.402H299.59V73.0903Z" fill="white"/>
<path d="M299.59 150.803H220.596C220.49 150.803 220.388 150.761 220.313 150.686C220.238 150.61 220.195 150.508 220.195 150.402V73.0901C220.195 72.9838 220.238 72.8818 220.313 72.8066C220.388 72.7315 220.49 72.6892 220.596 72.6892H299.599C299.705 72.6914 299.805 72.7344 299.88 72.8091C299.955 72.8838 299.998 72.9845 300 73.0901V150.402C299.998 150.509 299.954 150.611 299.877 150.686C299.8 150.761 299.698 150.803 299.59 150.803ZM220.988 150.001H299.189V73.4911H220.988V150.001Z" fill="#D9D9D9"/>
<path d="M299.59 136.116H220.587V150.402H299.59V136.116Z" fill="white"/>
<path d="M299.59 150.803H220.596C220.49 150.803 220.388 150.761 220.313 150.686C220.238 150.611 220.195 150.509 220.195 150.402V136.117C220.194 136.064 220.204 136.011 220.223 135.962C220.243 135.913 220.273 135.868 220.31 135.83C220.348 135.793 220.392 135.763 220.441 135.744C220.491 135.724 220.543 135.714 220.596 135.716H299.599C299.652 135.716 299.704 135.726 299.753 135.746C299.801 135.766 299.845 135.796 299.883 135.833C299.92 135.87 299.949 135.915 299.969 135.963C299.99 136.012 300 136.064 300 136.117V150.402C299.998 150.509 299.954 150.611 299.877 150.686C299.8 150.761 299.698 150.803 299.59 150.803ZM220.988 150.001H299.189V136.518H220.988V150.001Z" fill="#D9D9D9"/>
<path d="M72.858 147.177H0.400902V91.6642L10.3024 81.5623H72.858V147.177Z" fill="white"/>
<path d="M72.858 147.578H0.400942C0.294606 147.578 0.192624 147.536 0.117433 147.461C0.0422423 147.386 0 147.284 0 147.177V91.6644C0.00185218 91.5606 0.0422399 91.4611 0.11331 91.3855L10.0148 81.2922C10.0908 81.2151 10.1942 81.1712 10.3024 81.1702H72.858C72.9643 81.1702 73.0663 81.2124 73.1415 81.2876C73.2167 81.3628 73.259 81.4648 73.259 81.5711V147.186C73.259 147.238 73.2485 147.29 73.2283 147.338C73.208 147.386 73.1784 147.43 73.141 147.466C73.1037 147.503 73.0594 147.532 73.0108 147.551C72.9622 147.57 72.9102 147.579 72.858 147.578ZM0.801883 146.776H72.4222V81.9633H10.4768L0.801883 91.83V146.776Z" fill="#D9D9D9"/>
<path d="M66.6171 97.9052H6.88561C6.77927 97.9052 6.67729 97.8629 6.6021 97.7877C6.52691 97.7125 6.48466 97.6105 6.48466 97.5042C6.48466 97.3979 6.52691 97.2959 6.6021 97.2207C6.67729 97.1455 6.77927 97.1033 6.88561 97.1033H66.6171C66.7235 97.1033 66.8255 97.1455 66.9007 97.2207C66.9758 97.2959 67.0181 97.3979 67.0181 97.5042C67.0181 97.6105 66.9758 97.7125 66.9007 97.7877C66.8255 97.8629 66.7235 97.9052 66.6171 97.9052Z" fill="#D9D9D9"/>
<path d="M66.6171 107.441H6.88561C6.77927 107.441 6.67729 107.398 6.6021 107.323C6.52691 107.248 6.48466 107.146 6.48466 107.04C6.48466 106.933 6.52691 106.831 6.6021 106.756C6.67729 106.681 6.77927 106.639 6.88561 106.639H66.6171C66.7235 106.639 66.8255 106.681 66.9007 106.756C66.9758 106.831 67.0181 106.933 67.0181 107.04C67.0181 107.146 66.9758 107.248 66.9007 107.323C66.8255 107.398 66.7235 107.441 66.6171 107.441Z" fill="#D9D9D9"/>
<path d="M66.6171 116.906H6.88561C6.77927 116.906 6.67729 116.864 6.6021 116.789C6.52691 116.714 6.48466 116.612 6.48466 116.505C6.48466 116.399 6.52691 116.297 6.6021 116.222C6.67729 116.146 6.77927 116.104 6.88561 116.104H66.6171C66.7235 116.104 66.8255 116.146 66.9007 116.222C66.9758 116.297 67.0181 116.399 67.0181 116.505C67.0181 116.612 66.9758 116.714 66.9007 116.789C66.8255 116.864 66.7235 116.906 66.6171 116.906Z" fill="#D9D9D9"/>
<path d="M66.6172 126.407H6.88571C6.77937 126.407 6.67739 126.364 6.6022 126.289C6.52701 126.214 6.48476 126.112 6.48476 126.006C6.48357 125.953 6.49313 125.9 6.51286 125.851C6.53259 125.802 6.56208 125.757 6.59955 125.72C6.63702 125.682 6.68169 125.653 6.73088 125.633C6.78006 125.613 6.83273 125.604 6.88571 125.605H66.6172C66.6706 125.604 66.7237 125.613 66.7734 125.633C66.823 125.652 66.8683 125.682 66.9064 125.719C66.9446 125.756 66.9749 125.801 66.9956 125.85C67.0163 125.9 67.0269 125.952 67.0269 126.006C67.0246 126.113 66.9805 126.215 66.9039 126.29C66.8273 126.365 66.7244 126.407 66.6172 126.407Z" fill="#D9D9D9"/>
<path d="M66.6172 135.907H6.88571C6.83306 135.907 6.78092 135.897 6.73227 135.877C6.68363 135.857 6.63943 135.827 6.6022 135.79C6.56497 135.753 6.53543 135.709 6.51528 135.66C6.49513 135.611 6.48476 135.559 6.48476 135.507C6.48357 135.454 6.49313 135.401 6.51286 135.352C6.53259 135.302 6.56208 135.258 6.59955 135.22C6.63702 135.183 6.68169 135.153 6.73088 135.134C6.78006 135.114 6.83273 135.104 6.88571 135.106H66.6172C66.6706 135.104 66.7237 135.114 66.7734 135.134C66.823 135.153 66.8683 135.183 66.9064 135.22C66.9446 135.257 66.9749 135.302 66.9956 135.351C67.0163 135.4 67.0269 135.453 67.0269 135.507C67.0246 135.614 66.9805 135.716 66.9039 135.791C66.8273 135.866 66.7244 135.907 66.6172 135.907Z" fill="#D9D9D9"/>
<path d="M10.2677 91.9519H0.523112C0.425836 91.9376 0.33695 91.8888 0.272682 91.8144C0.208413 91.74 0.17305 91.6449 0.17305 91.5466C0.17305 91.4483 0.208413 91.3532 0.272682 91.2788C0.33695 91.2044 0.425836 91.1556 0.523112 91.1413H9.86679L10.0237 81.4402C10.0301 81.3345 10.0756 81.2349 10.1513 81.1608C10.227 81.0868 10.3275 81.0434 10.4333 81.0393C10.5389 81.0438 10.6387 81.0889 10.7118 81.1653C10.7849 81.2416 10.8257 81.3433 10.8256 81.449L10.6687 91.5509C10.6664 91.6566 10.6235 91.7573 10.5488 91.832C10.4741 91.9067 10.3734 91.9497 10.2677 91.9519Z" fill="#D9D9D9"/>
<path d="M154.572 95.6824C154.572 95.6824 173.329 97.6609 178.279 105.784C183.23 113.908 218.696 158.648 218.696 158.648L125.434 158.055C125.434 158.055 120.587 107.275 127.177 96.4581C127.238 96.4581 128.528 92.8322 154.572 95.6824Z" fill="#3369FF"/>
<path d="M142.421 107.501C143.595 109.024 145.085 110.275 146.788 111.167C148.491 112.059 150.368 112.572 152.288 112.67C152.789 112.698 153.292 112.633 153.77 112.478C154.42 112.195 154.974 111.728 155.365 111.136C157.108 108.73 157.186 105.505 156.742 102.577C156.437 100.511 155.87 98.3582 154.275 96.9811C152.445 95.3599 149.786 95.2379 147.302 95.1333C144.818 95.0287 139.205 94.3663 138.281 97.3733C137.47 100.136 140.809 105.497 142.421 107.501Z" fill="#2B2B2B"/>
<path d="M152.436 113.062H152.279C150.307 112.959 148.38 112.429 146.631 111.51C144.883 110.59 143.354 109.303 142.151 107.737C140.408 105.575 137.087 100.162 137.976 97.2774C138.865 94.3924 143.563 94.5754 146.37 94.7236H147.381C150.091 94.802 152.689 95.0112 154.554 96.6673C156.419 98.3233 156.89 100.746 157.169 102.49C157.735 106.264 157.247 109.236 155.722 111.328C155.299 111.982 154.693 112.498 153.979 112.81C153.484 112.986 152.961 113.072 152.436 113.062ZM142.718 107.257C143.855 108.741 145.302 109.961 146.958 110.83C148.613 111.7 150.438 112.2 152.305 112.295C152.763 112.322 153.221 112.263 153.656 112.121C154.237 111.867 154.731 111.449 155.077 110.918C156.48 108.992 156.916 106.203 156.385 102.638C156.14 101.008 155.626 98.6807 154.04 97.2774C152.454 95.8741 149.917 95.6039 147.346 95.5342H146.317C143.703 95.4034 139.423 95.1855 138.699 97.5476C137.906 100.162 141.14 105.331 142.735 107.31L142.718 107.257Z" fill="#2B2B2B"/>
<path d="M157.979 76.7073C158.23 75.876 158.648 75.1048 159.208 74.4411C159.498 74.1173 159.879 73.8901 160.302 73.7903C160.724 73.6906 161.167 73.723 161.57 73.8833C161.854 74.0484 162.093 74.2813 162.265 74.5612C162.437 74.8411 162.537 75.1592 162.555 75.4871C162.594 76.1416 162.487 76.7966 162.242 77.4046C161.87 78.562 161.228 79.6139 160.368 80.4727C159.938 80.902 159.424 81.2381 158.859 81.4601C158.294 81.682 157.689 81.785 157.082 81.7627" fill="white"/>
<path d="M157.335 82.1637H157.056C156.965 82.1549 156.881 82.1106 156.822 82.0405C156.763 81.9704 156.735 81.8801 156.742 81.7889C156.742 81.7427 156.751 81.6968 156.77 81.6546C156.789 81.6123 156.817 81.5746 156.851 81.544C156.886 81.5134 156.927 81.4906 156.971 81.4773C157.015 81.4639 157.062 81.4602 157.108 81.4665C157.666 81.4855 158.223 81.3902 158.743 81.1864C159.263 80.9825 159.736 80.6744 160.133 80.2811C160.937 79.4527 161.534 78.4463 161.876 77.3437C162.097 76.7901 162.201 76.1965 162.181 75.6005C162.166 75.3297 162.085 75.0667 161.945 74.8343C161.805 74.6019 161.611 74.4071 161.379 74.2669C161.042 74.1375 160.673 74.1158 160.324 74.2047C159.974 74.2937 159.66 74.4891 159.427 74.7638C158.898 75.3904 158.506 76.1207 158.276 76.9079C158.244 76.9946 158.178 77.0649 158.094 77.1033C158.01 77.1417 157.914 77.1451 157.827 77.1128C157.74 77.0804 157.67 77.0149 157.632 76.9307C157.593 76.8466 157.59 76.7506 157.622 76.6639C157.883 75.7838 158.329 74.9696 158.93 74.2757C159.269 73.8987 159.717 73.6361 160.212 73.5237C160.706 73.4113 161.224 73.4548 161.693 73.6481C162.026 73.8412 162.308 74.1128 162.513 74.4394C162.718 74.7659 162.84 75.1376 162.869 75.5221C162.91 76.2301 162.794 76.9384 162.529 77.5965C162.144 78.8061 161.474 79.9059 160.577 80.804C159.705 81.6479 158.548 82.1332 157.335 82.1637Z" fill="#2B2B2B"/>
<path d="M153.412 88.265L154.441 98.5413C154.441 98.5413 153.944 104.381 147.52 103.222C145.626 102.859 143.836 102.08 142.281 100.94C140.725 99.8005 139.442 98.3291 138.525 96.6325C138.525 96.6325 138.769 78.2066 138.761 78.1979C138.761 77.4483 140.286 74.8683 139.554 68.3574C141.755 68.1302 143.884 67.4471 145.806 66.3516C147.729 65.2562 149.402 63.7723 150.719 61.9946C150.719 61.9946 153.7 65.6728 154.955 66.8059C155.941 67.6571 156.82 68.626 157.57 69.691C159.548 72.6806 159.479 77.5355 158.999 81.0219C158.625 83.8285 156.969 88.326 153.412 88.265Z" fill="white"/>
<path d="M149.124 103.762C148.563 103.759 148.003 103.706 147.451 103.605C145.489 103.243 143.636 102.441 142.028 101.261C140.421 100.081 139.101 98.5519 138.168 96.7893C138.14 96.7352 138.125 96.6756 138.124 96.615C138.124 96.615 138.368 78.3111 138.368 78.1891C138.384 77.8488 138.455 77.5133 138.578 77.1955C139.401 74.3367 139.597 71.3338 139.153 68.3922C139.146 68.2862 139.177 68.1814 139.24 68.0958C139.31 68.017 139.406 67.9647 139.51 67.9477C141.65 67.7188 143.72 67.0521 145.592 65.9889C147.463 64.9258 149.096 63.489 150.388 61.7679C150.425 61.7175 150.474 61.6765 150.53 61.6482C150.586 61.6199 150.648 61.6052 150.71 61.6052C150.773 61.6052 150.835 61.6199 150.891 61.6482C150.947 61.6765 150.996 61.7175 151.033 61.7679C151.033 61.7679 154.005 65.4287 155.217 66.5357C156.24 67.4001 157.151 68.3899 157.927 69.4817C160.246 72.9682 159.74 78.7469 159.418 81.0567C159.026 83.811 157.422 88.387 153.848 88.6659L154.833 98.5151C154.665 100.141 153.867 101.636 152.611 102.681C151.601 103.42 150.374 103.8 149.124 103.762ZM138.926 96.5278C139.823 98.1463 141.063 99.5485 142.56 100.636C144.057 101.723 145.774 102.469 147.59 102.821C148.358 103.02 149.16 103.054 149.942 102.922C150.725 102.79 151.471 102.494 152.131 102.054C153.192 101.151 153.874 99.8811 154.04 98.4977L153.011 88.2649C153.006 88.1509 153.043 88.0388 153.116 87.9512C153.198 87.8722 153.307 87.8284 153.421 87.8291C156.733 87.925 158.259 83.4711 158.651 80.8562C158.965 78.6336 159.461 73.1163 157.282 69.8303C156.535 68.7862 155.656 67.8429 154.668 67.0238C153.279 65.6073 151.964 64.1207 150.728 62.5698C148.072 65.9157 144.211 68.0873 139.972 68.6188C140.362 71.5375 140.143 74.5054 139.327 77.3349C139.24 77.5776 139.178 77.8289 139.144 78.0845C139.144 78.0845 139.162 78.1891 138.926 96.5278Z" fill="#2B2B2B"/>
<path d="M153.761 91.6381C152.074 91.9381 150.337 91.7568 148.749 91.1151C145.088 89.8339 144.879 87.3411 144.879 87.3411C144.879 87.3411 147.956 89.276 153.412 88.2127L153.761 91.6381Z" fill="#2B2B2B"/>
<path d="M152.27 92.1524C151.027 92.1328 149.796 91.906 148.627 91.4813C144.766 90.1303 144.504 87.4806 144.496 87.3934C144.492 87.323 144.507 87.2529 144.539 87.1902C144.571 87.1275 144.619 87.0743 144.679 87.0361C144.74 86.9974 144.811 86.9768 144.883 86.9768C144.956 86.9768 145.027 86.9974 145.088 87.0361C145.088 87.0361 148.121 88.8752 153.342 87.9077C153.447 87.8911 153.553 87.9161 153.639 87.9774C153.682 88.0093 153.718 88.0498 153.745 88.0962C153.772 88.1427 153.789 88.1942 153.796 88.2476L154.136 91.5598C154.154 91.63 154.152 91.7039 154.13 91.7731C154.109 91.8424 154.068 91.9043 154.014 91.952C153.937 92.0141 153.842 92.048 153.743 92.0479C153.256 92.1251 152.763 92.1601 152.27 92.1524ZM145.498 88.0646C145.848 88.7205 146.329 89.2979 146.91 89.7611C147.492 90.2243 148.162 90.5635 148.88 90.7579C150.301 91.2974 151.832 91.4857 153.342 91.307L153.072 88.6921C150.538 89.1882 147.916 88.971 145.498 88.0646Z" fill="#2B2B2B"/>
<path d="M148.113 73.8748C148.113 73.8748 151.913 78.4769 151.216 79.4095C150.519 80.3421 148.261 80.0022 148.261 80.0022" fill="white"/>
<path d="M149.194 80.4206C148.862 80.4171 148.53 80.3938 148.2 80.3509C148.1 80.3318 148.011 80.2751 147.951 80.1925C147.891 80.1099 147.865 80.0076 147.878 79.9064C147.895 79.8051 147.951 79.7146 148.034 79.6543C148.117 79.594 148.221 79.5687 148.322 79.5839C148.845 79.6623 150.449 79.7582 150.937 79.1481C151.155 78.721 149.717 76.3502 147.843 74.084C147.778 74.0054 147.747 73.9043 147.757 73.803C147.767 73.7016 147.817 73.6083 147.895 73.5436C147.974 73.4789 148.075 73.448 148.176 73.4578C148.277 73.4676 148.371 73.5173 148.436 73.5959C149.926 75.4001 152.314 78.5815 151.547 79.61C151.239 79.9107 150.868 80.1394 150.461 80.2795C150.055 80.4197 149.622 80.4679 149.194 80.4206Z" fill="#2B2B2B"/>
<path d="M154.003 75.1651C154.313 75.1236 154.501 74.6142 154.423 74.0274C154.344 73.4405 154.029 72.9984 153.719 73.0399C153.409 73.0814 153.221 73.5907 153.299 74.1776C153.378 74.7645 153.693 75.2066 154.003 75.1651Z" fill="#2B2B2B"/>
<path d="M144.868 74.9257C145.181 74.9221 145.429 74.4391 145.422 73.8471C145.415 73.255 145.155 72.778 144.843 72.7817C144.53 72.7854 144.282 73.2683 144.289 73.8603C144.296 74.4524 144.555 74.9294 144.868 74.9257Z" fill="#2B2B2B"/>
<path d="M140.87 75.4348C140.641 74.5542 140.251 73.7238 139.719 72.9856C139.415 72.564 139.014 72.2213 138.55 71.9863C138.086 71.7513 137.572 71.6307 137.052 71.6346C136.732 71.6466 136.419 71.7314 136.137 71.8824C135.854 72.0334 135.61 72.2467 135.422 72.5062C135.195 72.8803 135.052 73.2998 135.004 73.7352C134.673 76.0188 135.431 78.9649 137.619 80.1764C137.982 80.4047 138.402 80.5259 138.83 80.5259C139.259 80.5259 139.679 80.4047 140.042 80.1764" fill="white"/>
<path d="M138.944 80.8912C138.41 80.88 137.886 80.7395 137.418 80.4816C135.135 79.2265 134.307 76.1235 134.664 73.683C134.729 73.1937 134.905 72.7258 135.178 72.3146C135.394 72.0095 135.676 71.758 136.004 71.5796C136.332 71.4013 136.697 71.3008 137.07 71.2861C137.647 71.2801 138.217 71.4123 138.732 71.6716C139.248 71.9309 139.694 72.3097 140.033 72.7765C140.593 73.5447 141.004 74.4109 141.245 75.3304C141.258 75.3744 141.263 75.4207 141.258 75.4665C141.253 75.5123 141.24 75.5568 141.218 75.5973C141.196 75.6378 141.166 75.6736 141.131 75.7026C141.095 75.7316 141.054 75.7532 141.009 75.7662C140.922 75.7906 140.828 75.7796 140.748 75.7356C140.668 75.6916 140.609 75.6181 140.582 75.5308C140.363 74.694 139.991 73.905 139.484 73.2036C139.217 72.824 138.862 72.5147 138.449 72.3022C138.036 72.0897 137.578 71.9803 137.113 71.9834C136.847 71.9907 136.586 72.059 136.351 72.1829C136.115 72.3068 135.911 72.483 135.754 72.6981C135.554 73.0264 135.431 73.3961 135.396 73.7789C135.074 75.9753 135.788 78.7732 137.793 79.8802C138.096 80.0773 138.447 80.1872 138.809 80.198C139.17 80.2088 139.527 80.1199 139.841 79.9412C139.877 79.9056 139.919 79.878 139.965 79.8602C140.012 79.8424 140.062 79.8349 140.112 79.838C140.162 79.8412 140.21 79.8551 140.254 79.8786C140.298 79.9022 140.337 79.935 140.367 79.9747C140.397 80.0144 140.419 80.0602 140.43 80.1089C140.441 80.1576 140.441 80.2081 140.431 80.2569C140.421 80.3058 140.4 80.352 140.371 80.3922C140.341 80.4325 140.303 80.4659 140.26 80.4903C139.879 80.7685 139.415 80.9098 138.944 80.8912Z" fill="#2B2B2B"/>
<path d="M176.466 154.368C176.36 154.368 176.257 154.33 176.176 154.261C176.095 154.193 176.04 154.098 176.022 153.993C173.738 139.725 169.363 112.539 169.162 111.72C169.148 111.663 169.145 111.604 169.153 111.547C169.162 111.489 169.182 111.433 169.212 111.383C169.241 111.333 169.281 111.289 169.328 111.254C169.375 111.219 169.428 111.194 169.485 111.18C169.6 111.15 169.723 111.168 169.826 111.228C169.928 111.289 170.003 111.387 170.034 111.502C170.295 112.565 176.641 152.163 176.911 153.845C176.929 153.963 176.899 154.083 176.829 154.179C176.759 154.275 176.654 154.34 176.536 154.359L176.466 154.368Z" fill="#2B2B2B"/>
<path d="M148.592 126.45L137.314 126.564L136.956 122.476L147.782 122.345L148.592 126.45Z" fill="white"/>
<path d="M274.715 136.116V226.956C274.713 229.147 274.281 231.316 273.441 233.339C272.602 235.363 271.372 237.201 269.822 238.75C268.272 240.298 266.433 241.526 264.408 242.363C262.384 243.201 260.214 243.631 258.023 243.63H38.1941C36.0041 243.631 33.8354 243.2 31.8119 242.363C29.7884 241.525 27.9498 240.297 26.4013 238.749C24.8527 237.2 23.6246 235.362 22.787 233.338C21.9495 231.315 21.519 229.146 21.5201 226.956V136.116C21.519 133.926 21.9494 131.757 22.7869 129.733C23.6243 127.709 24.8523 125.87 26.4007 124.321C27.9492 122.771 29.7877 121.542 31.8112 120.704C33.8347 119.865 36.0037 119.434 38.1941 119.434H258.023C262.449 119.434 266.693 121.191 269.823 124.32C272.953 127.448 274.712 131.691 274.715 136.116Z" fill="white"/>
<path d="M258.023 244.083H38.1939C33.6529 244.079 29.2992 242.273 26.0882 239.062C22.8773 235.851 21.0713 231.497 21.0667 226.956V136.117C21.069 131.574 22.8739 127.218 26.0852 124.005C29.2964 120.792 33.6514 118.985 38.1939 118.981H258.023C262.566 118.985 266.922 120.792 270.135 124.005C273.347 127.217 275.154 131.573 275.159 136.117V226.956C275.152 231.498 273.344 235.851 270.132 239.062C266.919 242.273 262.565 244.079 258.023 244.083ZM38.1939 119.878C33.8902 119.885 29.7649 121.599 26.7225 124.643C23.6802 127.687 21.9691 131.813 21.9645 136.117V226.956C21.9714 231.257 23.6838 235.38 26.7261 238.421C29.7685 241.462 33.8925 243.172 38.1939 243.177H258.023C262.326 243.174 266.452 241.465 269.496 238.424C272.541 235.383 274.254 231.259 274.261 226.956V136.117C274.257 131.811 272.544 127.684 269.5 124.64C266.456 121.595 262.328 119.883 258.023 119.878H38.1939Z" fill="#2B2B2B"/>
<path d="M274.715 136.116V142.218H21.5201V136.116C21.519 133.926 21.9494 131.757 22.7869 129.733C23.6243 127.709 24.8523 125.87 26.4007 124.321C27.9492 122.771 29.7877 121.542 31.8112 120.704C33.8347 119.865 36.0037 119.434 38.1941 119.434H258.023C262.449 119.434 266.693 121.191 269.823 124.32C272.953 127.448 274.712 131.691 274.715 136.116Z" fill="white"/>
<path d="M274.714 142.715H21.5199C21.3997 142.715 21.2845 142.667 21.1995 142.582C21.1145 142.497 21.0667 142.382 21.0667 142.261V136.16C21.069 131.618 22.8739 127.262 26.0852 124.049C29.2964 120.836 33.6514 119.029 38.1939 119.024H258.023C262.559 119.029 266.908 120.83 270.119 124.033C273.331 127.236 275.143 131.581 275.159 136.116V142.218C275.166 142.28 275.16 142.344 275.141 142.404C275.122 142.464 275.091 142.519 275.049 142.566C275.007 142.613 274.955 142.651 274.898 142.676C274.84 142.702 274.777 142.715 274.714 142.715ZM21.947 141.843H274.261V136.116C274.257 131.811 272.544 127.684 269.5 124.639C266.456 121.595 262.328 119.883 258.023 119.878H38.1939C33.8902 119.885 29.7649 121.599 26.7225 124.643C23.6802 127.687 21.9691 131.813 21.9645 136.116L21.947 141.843Z" fill="#2B2B2B"/>
<path d="M222.549 214.196H64.2902C61.7642 214.193 59.3424 213.189 57.5563 211.403C55.7702 209.617 54.7658 207.195 54.7635 204.669V185.947C54.7658 183.421 55.7702 180.999 57.5563 179.213C59.3424 177.427 61.7642 176.422 64.2902 176.42H222.549C225.075 176.422 227.496 177.427 229.283 179.213C231.069 180.999 232.073 183.421 232.075 185.947V204.669C232.073 207.195 231.069 209.617 229.283 211.403C227.496 213.189 225.075 214.193 222.549 214.196ZM64.2902 177.318C62.0023 177.32 59.8089 178.23 58.1911 179.848C56.5734 181.465 55.6635 183.659 55.6612 185.947V204.669C55.6635 206.957 56.5734 209.15 58.1911 210.768C59.8089 212.386 62.0023 213.295 64.2902 213.298H222.549C224.836 213.295 227.028 212.385 228.645 210.767C230.261 209.149 231.169 206.956 231.169 204.669V185.947C231.169 183.66 230.261 181.466 228.645 179.848C227.028 178.23 224.836 177.32 222.549 177.318H64.2902Z" fill="#3369FF"/>
<path d="M231.622 185.946V204.669C231.626 205.863 231.393 207.046 230.939 208.15C230.485 209.255 229.817 210.259 228.974 211.105C228.132 211.951 227.13 212.622 226.028 213.081C224.925 213.539 223.743 213.776 222.549 213.777H189.035V176.864H222.549C224.956 176.867 227.264 177.824 228.965 179.527C230.666 181.23 231.622 183.539 231.622 185.946Z" fill="#3369FF"/>
<path d="M222.549 214.195H189.035C188.976 214.197 188.917 214.186 188.862 214.164C188.807 214.142 188.757 214.11 188.715 214.068C188.673 214.027 188.639 213.978 188.616 213.923C188.594 213.869 188.582 213.81 188.582 213.751V176.864C188.582 176.805 188.594 176.747 188.616 176.692C188.639 176.638 188.673 176.588 188.715 176.547C188.757 176.505 188.807 176.473 188.862 176.451C188.917 176.429 188.976 176.419 189.035 176.42H222.549C225.074 176.422 227.496 177.427 229.282 179.213C231.068 180.999 232.073 183.421 232.075 185.946V204.669C232.073 207.195 231.068 209.616 229.282 211.403C227.496 213.189 225.074 214.193 222.549 214.195ZM189.48 213.324H222.549C224.836 213.321 227.028 212.411 228.644 210.793C230.261 209.175 231.169 206.982 231.169 204.695V185.946C231.169 183.659 230.261 181.466 228.644 179.848C227.028 178.23 224.836 177.32 222.549 177.318H189.48V213.324Z" fill="#3369FF"/>
<path d="M206.799 200.363C205.351 200.363 203.925 200.007 202.648 199.325C201.371 198.642 200.282 197.656 199.477 196.452C198.672 195.248 198.177 193.865 198.035 192.424C197.893 190.983 198.108 189.529 198.662 188.191C199.216 186.853 200.092 185.673 201.211 184.754C202.33 183.836 203.659 183.208 205.079 182.925C206.499 182.643 207.967 182.715 209.352 183.136C210.738 183.556 211.998 184.312 213.022 185.336C214.252 186.567 215.09 188.136 215.43 189.843C215.769 191.55 215.595 193.32 214.929 194.928C214.263 196.536 213.135 197.911 211.688 198.878C210.241 199.846 208.539 200.362 206.799 200.363ZM206.799 185.38C205.371 185.379 203.987 185.874 202.883 186.78C201.779 187.685 201.023 188.946 200.744 190.346C200.465 191.747 200.681 193.201 201.354 194.46C202.027 195.719 203.116 196.706 204.436 197.253C205.755 197.799 207.223 197.871 208.59 197.456C209.956 197.041 211.136 196.165 211.929 194.977C212.722 193.789 213.078 192.363 212.937 190.942C212.796 189.521 212.167 188.193 211.157 187.184C210.586 186.609 209.907 186.154 209.159 185.844C208.411 185.534 207.608 185.376 206.799 185.38Z" fill="white"/>
<path d="M220.3 206.804C220.122 206.806 219.947 206.772 219.783 206.703C219.62 206.634 219.472 206.532 219.35 206.403L211.157 197.809C211.023 197.689 210.915 197.542 210.841 197.379C210.766 197.215 210.727 197.037 210.724 196.858C210.721 196.678 210.755 196.499 210.824 196.333C210.894 196.167 210.996 196.017 211.126 195.893C211.256 195.769 211.41 195.672 211.579 195.61C211.748 195.548 211.928 195.521 212.107 195.532C212.287 195.542 212.462 195.59 212.623 195.671C212.783 195.752 212.925 195.866 213.039 196.005L221.241 204.599C221.42 204.783 221.541 205.015 221.588 205.267C221.635 205.519 221.606 205.78 221.506 206.015C221.405 206.251 221.237 206.452 221.022 206.592C220.808 206.733 220.556 206.806 220.3 206.804Z" fill="white"/>
<path d="M41.3406 134.635C42.8666 134.635 44.1036 133.398 44.1036 131.872C44.1036 130.346 42.8666 129.109 41.3406 129.109C39.8146 129.109 38.5776 130.346 38.5776 131.872C38.5776 133.398 39.8146 134.635 41.3406 134.635Z" fill="#3369FF"/>
<path d="M51.0154 134.635C52.5414 134.635 53.7784 133.398 53.7784 131.872C53.7784 130.346 52.5414 129.109 51.0154 129.109C49.4895 129.109 48.2524 130.346 48.2524 131.872C48.2524 133.398 49.4895 134.635 51.0154 134.635Z" fill="#D9D9D9"/>
<path d="M60.6902 134.635C62.2162 134.635 63.4532 133.398 63.4532 131.872C63.4532 130.346 62.2162 129.109 60.6902 129.109C59.1643 129.109 57.9272 130.346 57.9272 131.872C57.9272 133.398 59.1643 134.635 60.6902 134.635Z" fill="#D9D9D9"/>
<path d="M147.825 150.333C147.825 150.333 154.632 152.825 156.628 152.573C158.624 152.32 164.944 149.505 165.684 150.167C166.425 150.829 166.19 152.66 159.583 155.649C159.583 155.649 176.954 164.871 175.952 165.865C174.95 166.858 167.402 163.459 160.664 160.714C160.664 160.714 157.178 166.614 152.026 165.534C146.875 164.453 143.72 159.886 143.72 159.886" fill="white"/>
<path d="M175.342 166.44C173.669 166.44 170.112 165.045 163.802 162.43L160.856 161.21C160.054 162.43 156.725 166.919 151.983 165.926C146.753 164.827 143.554 160.304 143.424 160.112C143.386 160.07 143.357 160.02 143.34 159.965C143.322 159.911 143.317 159.854 143.323 159.797C143.33 159.741 143.349 159.686 143.378 159.637C143.407 159.589 143.447 159.547 143.493 159.514C143.54 159.482 143.593 159.46 143.649 159.449C143.705 159.439 143.763 159.441 143.818 159.454C143.873 159.468 143.925 159.493 143.97 159.529C144.014 159.564 144.051 159.608 144.077 159.659C144.077 159.702 147.215 164.113 152.14 165.15C157.064 166.187 160.324 160.574 160.359 160.513C160.408 160.43 160.486 160.368 160.577 160.338C160.668 160.307 160.767 160.311 160.856 160.347L164.107 161.69C168.221 163.433 174.305 165.917 175.543 165.664C174.532 164.435 166.765 159.894 159.435 155.998C159.37 155.965 159.315 155.913 159.278 155.85C159.241 155.787 159.223 155.714 159.226 155.641C159.228 155.566 159.25 155.493 159.29 155.43C159.33 155.367 159.386 155.316 159.453 155.283C164.743 152.878 165.502 151.422 165.554 150.925C165.574 150.843 165.57 150.758 165.544 150.677C165.518 150.597 165.47 150.526 165.406 150.472C164.97 150.289 162.39 151.187 160.682 151.779C159.374 152.28 158.031 152.682 156.664 152.982C154.589 153.252 147.947 150.812 147.668 150.716C147.569 150.679 147.489 150.604 147.445 150.507C147.401 150.411 147.396 150.301 147.433 150.202C147.451 150.153 147.478 150.108 147.513 150.07C147.548 150.031 147.59 150 147.637 149.979C147.684 149.957 147.735 149.944 147.787 149.942C147.838 149.94 147.89 149.948 147.939 149.966C149.813 150.646 155.016 152.381 156.568 152.189C157.891 151.9 159.191 151.509 160.455 151.021C163.854 149.844 165.414 149.382 165.972 149.879C166.134 150.021 166.257 150.202 166.329 150.405C166.401 150.608 166.419 150.826 166.382 151.038C166.182 152.372 164.212 153.932 160.533 155.684C165.763 158.473 176.222 164.226 176.44 165.682C176.455 165.767 176.449 165.856 176.423 165.939C176.398 166.022 176.353 166.098 176.292 166.161C176.161 166.269 176.009 166.349 175.845 166.397C175.682 166.444 175.511 166.459 175.342 166.44Z" fill="#2B2B2B"/>
<path d="M127.238 96.4583C127.238 96.4583 81.3736 117.708 81.6351 130.66C81.9663 147.221 139.972 163.825 139.972 163.825L148.958 146.55L111.95 128.847L139.31 113.934L127.238 96.4583Z" fill="#3369FF"/>
<path d="M196.235 116.27C193.733 115.459 190.761 114.945 188.652 116.523C187.667 117.372 186.886 118.433 186.368 119.626C185.218 121.903 184.225 124.256 183.396 126.668C183.178 127.296 183.038 128.133 183.579 128.507C184.119 128.882 185.078 128.237 185.505 127.549C186.262 126.323 186.848 125.001 187.248 123.618C186.307 125.591 185.644 127.685 185.279 129.841C185.2 130.102 185.2 130.381 185.279 130.643C185.412 130.86 185.625 131.017 185.871 131.082C186.118 131.147 186.38 131.114 186.603 130.991C187.041 130.722 187.394 130.335 187.623 129.876C188.702 128.053 189.579 126.119 190.238 124.106C189.479 126.174 189.061 128.353 189 130.556C188.983 130.741 189.005 130.927 189.065 131.103C189.125 131.279 189.222 131.44 189.349 131.575C189.525 131.688 189.733 131.742 189.942 131.727C190.15 131.713 190.349 131.633 190.508 131.497C190.812 131.21 191.047 130.859 191.197 130.468L193.812 124.977C193.234 127.021 192.915 129.13 192.862 131.253C192.839 131.428 192.866 131.607 192.94 131.767C193.236 132.325 194.099 131.95 194.474 131.436C195.036 130.557 195.429 129.582 195.633 128.56C196.348 125.866 196.967 123.121 197.786 120.462C198.571 118.292 198.806 117.107 196.235 116.27Z" fill="white"/>
<path d="M193.515 132.438H193.437C193.28 132.433 193.128 132.386 192.996 132.302C192.864 132.217 192.757 132.099 192.687 131.959C192.585 131.732 192.543 131.483 192.565 131.236C192.591 130.206 192.679 129.178 192.827 128.159L191.641 130.643C191.46 131.084 191.183 131.48 190.831 131.802C190.604 131.997 190.32 132.111 190.022 132.126C189.724 132.142 189.429 132.059 189.183 131.889C189.012 131.717 188.879 131.511 188.791 131.285C188.704 131.058 188.666 130.816 188.678 130.573C188.666 129.947 188.698 129.321 188.774 128.699C188.53 129.17 188.268 129.632 187.998 130.085C187.732 130.611 187.321 131.05 186.812 131.349C186.628 131.44 186.428 131.493 186.222 131.505C186.017 131.517 185.812 131.487 185.618 131.419C185.471 131.365 185.336 131.283 185.22 131.177C185.105 131.071 185.012 130.942 184.947 130.8C184.827 130.47 184.808 130.111 184.895 129.771C184.965 129.379 185.043 128.987 185.122 128.595C184.873 128.81 184.573 128.957 184.25 129.022C184.089 129.057 183.922 129.059 183.76 129.028C183.598 128.996 183.445 128.932 183.309 128.839C182.899 128.551 182.507 127.923 182.977 126.546C183.811 124.114 184.813 121.744 185.976 119.451C186.512 118.197 187.333 117.084 188.373 116.2C190.186 114.841 192.792 114.745 196.322 115.895C199.381 116.889 198.849 118.597 198.231 120.584C197.681 122.328 197.219 124.175 196.775 125.945C196.548 126.816 196.322 127.758 196.078 128.656C195.86 129.727 195.447 130.75 194.857 131.671C194.701 131.887 194.5 132.067 194.269 132.199C194.037 132.331 193.78 132.413 193.515 132.438ZM193.916 124.594C193.962 124.586 194.009 124.586 194.056 124.594C194.148 124.633 194.223 124.703 194.268 124.793C194.313 124.882 194.324 124.985 194.3 125.082C193.734 127.092 193.417 129.165 193.358 131.253C193.339 131.36 193.339 131.469 193.358 131.575C193.358 131.575 193.402 131.628 193.463 131.636C193.763 131.589 194.034 131.43 194.221 131.192C194.752 130.351 195.124 129.421 195.319 128.446C195.563 127.575 195.79 126.642 196.017 125.744C196.461 123.958 196.888 122.118 197.481 120.34C198.161 118.153 198.283 117.359 196.078 116.636C192.809 115.573 190.456 115.642 188.861 116.828C187.922 117.642 187.18 118.658 186.69 119.8C185.553 122.057 184.566 124.386 183.736 126.773C183.622 127.104 183.404 127.897 183.736 128.159C183.783 128.192 183.837 128.215 183.895 128.226C183.952 128.236 184.011 128.234 184.067 128.22C184.5 128.057 184.864 127.749 185.095 127.348C185.305 127.008 185.505 126.66 185.688 126.302C186.008 125.329 186.39 124.377 186.83 123.452C186.875 123.363 186.951 123.293 187.045 123.256C187.138 123.219 187.241 123.217 187.335 123.252C187.429 123.289 187.504 123.359 187.548 123.45C187.592 123.54 187.6 123.644 187.571 123.74C187.282 124.732 186.9 125.696 186.429 126.616C186.072 127.695 185.798 128.799 185.61 129.919C185.557 130.105 185.557 130.301 185.61 130.486C185.631 130.531 185.661 130.572 185.698 130.605C185.736 130.638 185.78 130.663 185.828 130.678C186.006 130.751 186.207 130.751 186.385 130.678C186.761 130.448 187.064 130.115 187.257 129.719C188.333 127.923 189.21 126.014 189.872 124.027C189.888 123.978 189.913 123.932 189.947 123.893C189.98 123.853 190.021 123.821 190.067 123.797C190.114 123.774 190.164 123.76 190.216 123.756C190.267 123.752 190.319 123.758 190.369 123.775C190.469 123.807 190.552 123.877 190.601 123.97C190.65 124.062 190.66 124.171 190.63 124.271C189.876 126.296 189.464 128.431 189.41 130.591C189.381 130.848 189.453 131.107 189.61 131.314C189.715 131.368 189.834 131.389 189.951 131.373C190.068 131.358 190.177 131.307 190.264 131.227C190.519 130.981 190.718 130.684 190.848 130.355L193.463 124.855C193.489 124.76 193.551 124.679 193.635 124.627C193.719 124.576 193.819 124.557 193.916 124.576V124.594Z" fill="#2B2B2B"/>
<path d="M154.502 81.3706C154.502 81.3706 147.764 89.8514 142.848 80.499L154.502 81.3706Z" fill="white"/>
<path d="M148.418 85.2666H147.947C145.829 85.0661 143.999 83.5234 142.5 80.6558C142.456 80.5639 142.448 80.4587 142.479 80.3615C142.51 80.2644 142.576 80.1826 142.665 80.1328C142.71 80.1087 142.76 80.0939 142.811 80.0893C142.862 80.0846 142.913 80.0901 142.962 80.1055C143.01 80.121 143.055 80.146 143.094 80.1791C143.133 80.2122 143.165 80.2528 143.188 80.2984C144.557 82.9133 146.178 84.3253 148.017 84.4996C151.251 84.8047 154.171 81.1787 154.205 81.1439C154.237 81.1044 154.276 81.0715 154.32 81.0471C154.364 81.0226 154.413 81.0071 154.463 81.0015C154.513 80.9958 154.564 81.0001 154.612 81.014C154.661 81.028 154.706 81.0514 154.746 81.0829C154.785 81.1143 154.818 81.1533 154.843 81.1975C154.867 81.2417 154.883 81.2903 154.888 81.3404C154.894 81.3906 154.89 81.4414 154.876 81.4899C154.862 81.5385 154.838 81.5838 154.807 81.6233C154.685 81.7627 151.861 85.2666 148.418 85.2666Z" fill="#2B2B2B"/>
<path d="M208.185 112.609C208.131 112.611 208.077 112.601 208.027 112.58C207.978 112.558 207.933 112.527 207.897 112.487C207.822 112.412 207.78 112.31 207.78 112.204C207.78 112.098 207.822 111.996 207.897 111.921C212.604 107.406 213.684 97.8528 207.784 90.8189C201.682 83.5845 191.999 82.1812 186.743 81.9894C185.601 81.9894 184.433 81.9371 183.256 81.9284C178.027 81.9284 172.684 81.8761 168.552 78.7645C166.155 76.9689 164.508 73.3169 162.765 69.4557C160.507 64.47 158.18 59.3101 154.214 58.7087C153.527 58.6764 152.84 58.7923 152.201 59.0486C151.533 59.3897 150.779 59.5269 150.034 59.4433C149.289 59.3596 148.584 59.0587 148.009 58.5779L147.721 58.3949C144.295 56.242 139.632 56.2769 135.222 58.4908C129.443 61.402 126.863 68.0175 126.375 73.2385C125.809 79.3397 127.308 85.3713 128.763 91.2198C128.79 91.3227 128.774 91.4318 128.72 91.5233C128.667 91.6149 128.579 91.6812 128.476 91.7079C128.372 91.7317 128.263 91.7141 128.171 91.6588C128.08 91.6034 128.014 91.5148 127.988 91.4116C126.515 85.502 124.998 79.392 125.573 73.16C126.218 66.1871 129.783 60.3299 134.865 57.7761C139.519 55.4314 144.452 55.4053 148.148 57.715L148.453 57.9068C148.926 58.3191 149.514 58.5762 150.137 58.6433C150.761 58.7103 151.39 58.584 151.939 58.2816C152.695 57.9807 153.508 57.8555 154.319 57.9155C158.677 58.5779 161.135 63.9384 163.48 69.1244C165.179 72.8898 166.783 76.446 169.014 78.1282C172.937 81.0742 178.175 81.1004 183.239 81.1265C184.424 81.1265 185.601 81.1265 186.725 81.1875C192.103 81.3793 202.075 82.8262 208.35 90.3046C214.626 97.783 213.371 107.737 208.402 112.496C208.344 112.556 208.268 112.596 208.185 112.609Z" fill="#2B2B2B"/>
<path d="M107.156 131.323C107.066 131.323 106.978 131.293 106.907 131.237C106.836 131.181 106.786 131.103 106.765 131.016C106.744 130.928 106.753 130.836 106.79 130.754C106.828 130.672 106.892 130.605 106.973 130.564L137.026 115.015C137.121 114.968 137.23 114.961 137.331 114.993C137.432 115.026 137.516 115.096 137.566 115.189C137.592 115.236 137.607 115.287 137.612 115.34C137.617 115.393 137.611 115.446 137.595 115.497C137.579 115.547 137.552 115.594 137.517 115.634C137.482 115.674 137.44 115.706 137.392 115.73L107.339 131.279C107.281 131.306 107.219 131.321 107.156 131.323Z" fill="#2B2B2B"/>
<path d="M102.684 57.6541H64.8478V87.9251H102.684V57.6541Z" fill="white"/>
<path d="M102.685 88.3261H64.8479C64.7422 88.3239 64.6415 88.2809 64.5668 88.2062C64.4921 88.1315 64.4492 88.0308 64.4469 87.9252V57.6541C64.4469 57.5478 64.4892 57.4458 64.5644 57.3706C64.6396 57.2954 64.7415 57.2532 64.8479 57.2532H102.685C102.791 57.2532 102.893 57.2954 102.968 57.3706C103.043 57.4458 103.085 57.5478 103.085 57.6541V87.9252C103.083 88.0308 103.04 88.1315 102.966 88.2062C102.891 88.2809 102.79 88.3239 102.685 88.3261ZM65.2488 87.5243H102.284V58.0551H65.2488V87.5243Z" fill="#D9D9D9"/>
<path d="M64.691 81.2921C64.6123 81.292 64.5353 81.2687 64.4697 81.2252C64.4042 81.1817 64.3528 81.1198 64.3222 81.0473C64.2915 80.9748 64.2828 80.8949 64.2973 80.8175C64.3117 80.7402 64.3486 80.6687 64.4034 80.6122L76.7803 68.2179C77.1476 67.8506 77.5869 67.5633 78.0706 67.3741C78.5543 67.1848 79.0719 67.0977 79.5909 67.1182C80.1099 67.1386 80.6191 67.2662 81.0864 67.493C81.5537 67.7198 81.969 68.0407 82.3063 68.4358L92.2078 80.0108C92.2808 80.087 92.3215 80.1885 92.3215 80.2941C92.3215 80.3996 92.2808 80.5011 92.2078 80.5773C92.1683 80.6129 92.122 80.6401 92.0717 80.6572C92.0214 80.6743 91.9682 80.6811 91.9152 80.677C91.8622 80.6729 91.8106 80.6581 91.7635 80.6335C91.7164 80.6089 91.6748 80.5749 91.6412 80.5337L81.7223 68.9762C81.4599 68.6621 81.1339 68.4073 80.7658 68.2285C80.3977 68.0497 79.9959 67.951 79.5869 67.939C79.1775 67.9218 78.769 67.9905 78.3877 68.1406C78.0064 68.2907 77.6608 68.5189 77.373 68.8106L64.9699 81.2049C64.8921 81.2696 64.7918 81.3009 64.691 81.2921Z" fill="#D9D9D9"/>
<path d="M102.693 78.4246C102.637 78.4252 102.582 78.4138 102.531 78.3913C102.48 78.3687 102.434 78.3355 102.397 78.2939L97.1672 72.6023C96.8916 72.3015 96.5561 72.0616 96.1824 71.898C95.8087 71.7344 95.4048 71.6507 94.9969 71.6522C94.5868 71.6506 94.1809 71.735 93.8055 71.9002C93.4302 72.0654 93.0937 72.3075 92.8178 72.611L88.9828 76.7599C88.9473 76.7988 88.9045 76.8303 88.8568 76.8527C88.8091 76.8751 88.7575 76.8879 88.7049 76.8903C88.6523 76.8927 88.5997 76.8847 88.5502 76.8669C88.5006 76.849 88.4551 76.8215 88.4162 76.786C88.3773 76.7505 88.3457 76.7077 88.3234 76.6601C88.301 76.6124 88.2882 76.5608 88.2858 76.5082C88.2834 76.4556 88.2913 76.403 88.3092 76.3534C88.3271 76.3039 88.3546 76.2584 88.3901 76.2195L92.199 72.0706C92.552 71.6872 92.9805 71.381 93.4574 71.171C93.9344 70.961 94.4496 70.8518 94.9707 70.8503C95.4839 70.8562 95.9906 70.9666 96.4597 71.1749C96.9287 71.3832 97.3504 71.685 97.6989 72.0619L102.929 77.7448C102.983 77.8013 103.02 77.8728 103.035 77.9501C103.049 78.0275 103.04 78.1074 103.01 78.1799C102.979 78.2524 102.928 78.3143 102.862 78.3578C102.797 78.4013 102.72 78.4246 102.641 78.4246H102.693Z" fill="#D9D9D9"/>
<path d="M89.4883 66.1C90.6437 66.1 91.5802 65.1634 91.5802 64.0081C91.5802 62.8528 90.6437 61.9163 89.4883 61.9163C88.333 61.9163 87.3965 62.8528 87.3965 64.0081C87.3965 65.1634 88.333 66.1 89.4883 66.1Z" fill="white"/>
<path d="M89.4883 66.4747C88.9932 66.4764 88.5087 66.3312 88.0962 66.0574C87.6836 65.7836 87.3617 65.3935 87.171 64.9365C86.9803 64.4796 86.9295 63.9764 87.0251 63.4905C87.1206 63.0047 87.3582 62.5582 87.7077 62.2074C88.0572 61.8567 88.5029 61.6176 88.9884 61.5204C89.4738 61.4232 89.9773 61.4722 90.4349 61.6613C90.8925 61.8503 91.2837 62.171 91.5589 62.5825C91.8342 62.9941 91.9811 63.4781 91.9811 63.9732C91.9811 64.6351 91.7188 65.2701 91.2515 65.739C90.7843 66.2078 90.1502 66.4724 89.4883 66.4747ZM89.4883 62.2823C89.1514 62.2805 88.8216 62.379 88.5408 62.5651C88.2599 62.7512 88.0407 63.0165 87.911 63.3274C87.7813 63.6384 87.7469 63.9808 87.8122 64.3113C87.8775 64.6418 88.0396 64.9455 88.2778 65.1837C88.516 65.4219 88.8196 65.584 89.1502 65.6493C89.4807 65.7146 89.8231 65.6802 90.134 65.5505C90.445 65.4208 90.7103 65.2016 90.8964 64.9207C91.0825 64.6399 91.181 64.3101 91.1792 63.9732C91.1701 63.5308 90.9879 63.1096 90.6718 62.8C90.3557 62.4904 89.9308 62.317 89.4883 62.3171V62.2823Z" fill="#D9D9D9"/>
<path d="M273.486 104.677L255.774 113.899C255.51 114.032 255.217 114.096 254.921 114.084C254.626 114.073 254.338 113.986 254.085 113.833C253.833 113.679 253.623 113.464 253.476 113.207C253.33 112.951 253.251 112.661 253.247 112.365V93.913C253.251 93.6173 253.33 93.3275 253.476 93.0707C253.623 92.814 253.833 92.5988 254.085 92.4454C254.338 92.2919 254.626 92.2053 254.921 92.1937C255.217 92.1821 255.51 92.2458 255.774 92.3789L273.486 101.601C273.765 101.749 273.998 101.971 274.16 102.242C274.323 102.513 274.409 102.823 274.409 103.139C274.409 103.455 274.323 103.765 274.16 104.036C273.998 104.307 273.765 104.529 273.486 104.677Z" fill="white"/>
<path d="M254.973 114.5C254.408 114.498 253.867 114.272 253.468 113.872C253.07 113.472 252.846 112.93 252.846 112.365V93.913C252.845 93.5467 252.938 93.1864 253.117 92.8668C253.296 92.5473 253.555 92.2794 253.868 92.0892C254.181 91.8989 254.538 91.7927 254.904 91.7809C255.27 91.7691 255.633 91.852 255.957 92.0216L273.669 101.252C274.016 101.431 274.308 101.702 274.512 102.035C274.715 102.369 274.823 102.752 274.823 103.143C274.823 103.534 274.715 103.918 274.512 104.251C274.308 104.585 274.016 104.856 273.669 105.035L255.957 114.256C255.653 114.414 255.315 114.497 254.973 114.5ZM254.973 92.5882C254.621 92.5882 254.284 92.7277 254.036 92.9762C253.787 93.2246 253.648 93.5616 253.648 93.913V112.365C253.647 112.594 253.705 112.819 253.817 113.018C253.929 113.218 254.091 113.385 254.286 113.504C254.482 113.622 254.705 113.688 254.934 113.695C255.163 113.701 255.389 113.649 255.591 113.542L273.294 104.32C273.509 104.207 273.69 104.037 273.816 103.829C273.942 103.621 274.008 103.382 274.008 103.139C274.008 102.896 273.942 102.657 273.816 102.449C273.69 102.241 273.509 102.071 273.294 101.958L255.591 92.7363C255.397 92.6491 255.185 92.6102 254.973 92.623V92.5882Z" fill="#D9D9D9"/>
</g>
<defs>
<clipPath id="clip0_5217_661">
<rect width="300" height="300" fill="white"/>
</clipPath>
</defs>
</svg>
