<svg width="300" height="300" viewBox="0 0 300 300" fill="none" xmlns="http://www.w3.org/2000/svg">
<path d="M67.2075 97.1523H242.686C244.206 97.1523 245.434 98.3752 245.434 99.876V222.387C245.434 223.888 244.206 225.11 242.686 225.11H67.2075C65.6878 225.11 64.4594 223.888 64.4594 222.387V99.876C64.4595 98.3752 65.6878 97.1524 67.2075 97.1523Z" fill="#F6F6F6" stroke="black" stroke-width="0.746269"/>
<path d="M240.627 106.658V209.224H69.373V106.658H240.627Z" fill="#F6F6F6" stroke="black" stroke-width="0.746269"/>
<path d="M71 101.692H239C239.898 101.692 240.627 102.42 240.627 103.318V106.905H69.373V103.318C69.373 102.42 70.1015 101.692 71 101.692Z" fill="black" stroke="black" stroke-width="0.746269"/>
<path d="M73.8747 105.302C73.0553 105.302 72.3881 104.64 72.3881 103.827C72.3881 103.014 73.0553 102.352 73.8747 102.352C74.6941 102.352 75.3613 103.014 75.3613 103.827C75.3613 104.64 74.6941 105.302 73.8747 105.302ZM73.8747 102.839C73.3262 102.839 72.8793 103.283 72.8793 103.827C72.8793 104.371 73.3262 104.815 73.8747 104.815C74.4231 104.815 74.8701 104.371 74.8701 103.827C74.8701 103.283 74.4231 102.839 73.8747 102.839Z" fill="#255DF9"/>
<path d="M78.8387 105.302C78.0193 105.302 77.3521 104.64 77.3521 103.827C77.3521 103.014 78.0193 102.352 78.8387 102.352C79.6581 102.352 80.3253 103.014 80.3253 103.827C80.3253 104.64 79.6581 105.302 78.8387 105.302ZM78.8387 102.839C78.2903 102.839 77.8433 103.283 77.8433 103.827C77.8433 104.371 78.2903 104.815 78.8387 104.815C79.3872 104.815 79.8341 104.371 79.8341 103.827C79.8341 103.283 79.3872 102.839 78.8387 102.839Z" fill="#255DF9"/>
<path d="M83.8027 105.302C82.9833 105.302 82.3161 104.64 82.3161 103.827C82.3161 103.014 82.9833 102.352 83.8027 102.352C84.6221 102.352 85.2893 103.014 85.2893 103.827C85.2893 104.64 84.6221 105.302 83.8027 105.302ZM83.8027 102.839C83.2543 102.839 82.8073 103.283 82.8073 103.827C82.8073 104.371 83.2543 104.815 83.8027 104.815C84.3511 104.815 84.7981 104.371 84.7981 103.827C84.7981 103.283 84.3511 102.839 83.8027 102.839Z" fill="#255DF9"/>
<path d="M58.1121 223.924H251.781C253.223 223.925 254.392 225.094 254.392 226.537V229.753C254.392 231.196 253.223 232.364 251.781 232.365H58.1121C56.6697 232.365 55.5001 231.196 55.4998 229.753V226.537C55.4998 225.094 56.6696 223.924 58.1121 223.924Z" fill="#F6F6F6" stroke="black" stroke-width="0.746269"/>
<path d="M216.091 152.285H93.8013C89.3825 152.285 85.7864 148.717 85.7864 144.332V143.8C85.7864 139.416 89.3815 135.848 93.8013 135.848H216.09C220.51 135.848 224.105 139.415 224.105 143.8V144.332C224.105 148.716 220.51 152.285 216.09 152.285H216.091ZM93.8013 136.335C89.6524 136.335 86.2776 139.684 86.2776 143.8V144.332C86.2776 148.449 89.6524 151.797 93.8013 151.797H216.09C220.239 151.797 223.614 148.449 223.614 144.332V143.8C223.614 139.684 220.239 136.335 216.09 136.335H93.8013Z" fill="#002999"/>
<path d="M108.319 141.094H93.5315C92.169 141.094 91.0646 142.19 91.0646 143.542V144.589C91.0646 145.941 92.169 147.037 93.5315 147.037H108.319C109.681 147.037 110.786 145.941 110.786 144.589V143.542C110.786 142.19 109.681 141.094 108.319 141.094Z" fill="#002999"/>
<path d="M132.278 141.094H119.351C117.971 141.094 116.852 142.205 116.852 143.574V144.557C116.852 145.926 117.971 147.037 119.351 147.037H132.278C133.659 147.037 134.778 145.926 134.778 144.557V143.574C134.778 142.205 133.659 141.094 132.278 141.094Z" fill="#002999"/>
<path d="M159.825 141.094H142.409C140.954 141.094 139.774 142.265 139.774 143.709V144.422C139.774 145.866 140.954 147.037 142.409 147.037H159.825C161.281 147.037 162.461 145.866 162.461 144.422V143.709C162.461 142.265 161.281 141.094 159.825 141.094Z" fill="#002999"/>
<path d="M198.049 141.062H172.169C170.713 141.062 169.533 142.233 169.533 143.677V144.39C169.533 145.834 170.713 147.004 172.169 147.004H198.049C199.504 147.004 200.684 145.834 200.684 144.39V143.677C200.684 142.233 199.504 141.062 198.049 141.062Z" fill="#002999"/>
<path d="M175.557 123.507H134.336V127.79H175.557V123.507Z" fill="#255DF9"/>
<path d="M148.443 178.356H141.14V192.232H148.443V178.356Z" fill="#255DF9"/>
<path d="M163.507 170.101H156.203V192.232H163.507V170.101Z" fill="#002999"/>
<path d="M178.572 165.242H171.268V192.233H178.572V165.242Z" fill="#255DF9"/>
<path d="M193.636 176.987H186.333V192.233H193.636V176.987Z" fill="#002999"/>
<path d="M208.701 168.179H201.398V192.233H208.701V168.179Z" fill="#255DF9"/>
<path d="M223.765 159.041H216.461V192.232H223.765V159.041Z" fill="#002999"/>
<path d="M125.08 158.198H83.8582V160.809H125.08V158.198Z" fill="#002999"/>
<path d="M125.08 165.53H83.8582V192.233H125.08V165.53Z" fill="#002999"/>
<path d="M106.336 175.456C104.783 174.847 103.186 175.325 102.047 176.431C101.009 177.438 100.863 178.861 100.374 180.132C101.383 180.405 102.291 180.998 103.391 180.828C104.821 180.607 104.859 179.284 105.668 178.382C106.363 177.61 107.194 177.112 108.187 176.98C107.761 176.357 107.24 175.81 106.336 175.457V175.456Z" fill="#255DF9"/>
<path d="M118.01 174.071C116.605 174.374 115.128 174.87 114.125 175.886C113.262 176.761 113.294 178.283 112.667 179.202C113.374 179.669 114.171 179.887 114.946 179.472C115.705 179.065 116.166 178.149 116.985 177.75C117.642 177.429 118.588 177.227 119.303 177.099C119.468 177.07 119.636 177.051 119.804 177.028V173.783C119.203 173.85 118.605 173.942 118.011 174.071H118.01Z" fill="#255DF9"/>
<path d="M119.303 177.099C118.587 177.227 117.642 177.429 116.985 177.75C116.166 178.15 115.705 179.065 114.946 179.472C114.171 179.888 113.375 179.67 112.667 179.202C112.389 179.018 112.123 178.796 111.879 178.557C110.912 177.611 110.61 177.077 109.079 176.953C108.767 176.929 108.472 176.941 108.187 176.979C107.194 177.112 106.363 177.609 105.668 178.381C104.859 179.283 104.821 180.606 103.391 180.827C102.291 180.997 101.383 180.404 100.374 180.131C99.9713 180.021 99.5524 179.961 99.099 180.024C98.0345 180.169 97.3608 180.803 96.6191 181.284C96.102 181.62 95.5525 181.881 94.813 181.848C93.1623 181.776 91.0344 180.832 89.1332 180.771V188.064H119.803V177.026C119.635 177.049 119.467 177.068 119.302 177.097L119.303 177.099Z" fill="#002999"/>
<path d="M96.6191 181.284C96.4982 181.179 96.3837 181.067 96.2812 180.941C95.5222 180.005 95.4607 178.818 94.6208 177.942C92.9852 176.236 90.7515 176.911 89.1342 178.362V180.772C91.0354 180.833 93.1633 181.776 94.814 181.849C95.5535 181.881 96.1031 181.62 96.6202 181.285L96.6191 181.284Z" fill="#255DF9"/>
<path d="M50.6778 154.472C50.6699 154.535 50.6623 154.598 50.6563 154.662H50.6553C50.4725 156.241 50.5682 157.817 50.7676 159.216V159.217C50.9673 160.593 51.2714 161.8 51.5255 162.663C51.6451 163.07 51.7541 163.401 51.836 163.638L44.9483 164.978L46.6046 154.389L50.6778 154.472Z" fill="#F6F6F6" stroke="black" stroke-width="0.746269"/>
<path d="M51.1365 159.164C48.1245 157.755 47.006 154.796 47.006 154.796L51.0264 154.705C50.8483 156.242 50.9401 157.785 51.1365 159.164Z" fill="black"/>
<path d="M52.4657 147.722C52.6459 148.373 53.0937 150.171 53.1639 151.927C53.2015 152.866 53.1296 153.759 52.8759 154.449C52.6423 155.084 52.2687 155.518 51.6971 155.696L51.58 155.728C50.1213 156.079 48.6064 155.592 47.4198 154.978C46.8325 154.675 46.3397 154.347 45.994 154.095C45.8336 153.979 45.7057 153.878 45.6151 153.805L46.618 147.741L50.8231 146.49L52.4657 147.722Z" fill="#F6F6F6" stroke="black" stroke-width="0.746269"/>
<path d="M47.6592 144.937C48.8384 144.792 50.0281 145.008 50.8936 145.637V145.638C51.3342 145.958 51.7096 146.372 52.0147 146.835C51.4735 146.734 50.9842 146.805 50.5499 147.012C49.8967 147.324 49.4284 147.914 49.0967 148.513C48.7622 149.117 48.5437 149.771 48.4092 150.266C48.3417 150.515 48.2942 150.727 48.2637 150.878C48.258 150.906 48.2527 150.932 48.2481 150.956C48.1893 150.996 48.1157 151.048 48.0313 151.112C47.8182 151.273 47.5333 151.512 47.2471 151.825C46.6844 152.442 46.0935 153.373 46.0587 154.58C46.0008 154.564 45.9161 154.534 45.8047 154.478C45.4381 154.292 45.0404 153.972 44.962 153.897V153.896L44.8008 153.739C44.6476 153.581 44.5149 153.422 44.3995 153.244C44.2209 152.969 44.0715 152.674 43.9532 152.366C43.5797 151.395 43.4039 150.237 43.503 149.138C43.6023 148.038 43.9741 147.027 44.6622 146.314C45.3663 145.583 46.4795 145.082 47.6592 144.937Z" fill="#F6F6F6" stroke="black" stroke-width="0.746269"/>
<path d="M47.4595 150.148C47.8201 149.855 48.5275 149.922 49.0284 150.529C49.5292 151.137 49.455 151.838 49.0944 152.131C48.7337 152.424 48.0263 152.357 47.5255 151.749C47.0246 151.142 47.099 150.44 47.4595 150.148Z" fill="#F6F6F6" stroke="black" stroke-width="0.746269"/>
<path d="M53.434 150.945C53.5974 150.945 53.7767 151.096 53.7767 151.343C53.7766 151.589 53.5974 151.74 53.434 151.74C53.2705 151.74 53.0913 151.59 53.0912 151.343C53.0912 151.096 53.2705 150.945 53.434 150.945Z" fill="#F6F6F6" stroke="black" stroke-width="0.746269"/>
<path d="M42.4919 208.726C42.8702 208.565 43.3062 208.625 43.6276 208.881L47.402 211.893C47.7461 212.168 47.8975 212.618 47.7888 213.044L46.1169 219.595C46.0994 219.664 46.0751 219.731 46.0427 219.807C45.6546 220.715 45.4457 222.06 45.3073 223.501C45.1682 224.951 45.0959 226.558 45.0007 227.995C44.9043 229.449 44.7851 230.715 44.5612 231.541C44.4465 231.963 44.3208 232.201 44.2126 232.304C44.1678 232.347 44.139 232.354 44.1218 232.356C44.1005 232.358 44.0493 232.356 43.9567 232.306C43.8913 232.271 43.7908 232.191 43.6559 232.044C43.5246 231.902 43.3754 231.713 43.2106 231.478C42.8811 231.009 42.5034 230.38 42.0915 229.63C41.2682 228.131 40.3248 226.176 39.3815 224.108C37.4957 219.974 35.6214 215.414 34.7282 213.206C34.5021 212.646 34.7673 212.011 35.3278 211.773L42.4919 208.726Z" fill="#F6F6F6" stroke="black" stroke-width="0.746269"/>
<path d="M42.779 219.468L46.0807 219.696L46.0647 219.924L42.763 219.696L42.779 219.468Z" fill="#F6F6F6" stroke="black" stroke-width="0.746269"/>
<path d="M40.808 206.611L46.4424 219.826C46.4424 219.826 68.3659 208.441 73.7952 198.072L65.1897 186.891L40.808 206.611Z" fill="black"/>
<path d="M70.2099 217.285C70.2099 217.285 80.4542 217.692 85.1667 209.661L74.7172 208.136L70.2099 217.285Z" fill="black"/>
<path d="M82.0233 210.6V210.601L86.0594 219.246L75.2479 223.423L74.1034 219.35V219.348L72.4969 213.727L81.5057 209.498L82.0233 210.6Z" fill="#F6F6F6" stroke="black" stroke-width="0.746269"/>
<path d="M85.0885 219.471C85.6299 219.282 86.2271 219.532 86.4713 220.051L87.6998 222.662C87.8239 222.926 88.0086 223.157 88.2379 223.336L97.2047 230.362C98.0422 231.018 97.5782 232.362 96.5143 232.362H78.6617C78.1618 232.362 77.7217 232.03 77.5846 231.549L75.4235 223.972C75.2609 223.402 75.5704 222.805 76.1295 222.609L85.0885 219.471Z" fill="#F6F6F6" stroke="black" stroke-width="0.746269"/>
<path d="M87.8653 223.054L88.0486 223.197L85.8988 225.915L85.7154 225.772L87.8653 223.054Z" fill="#F6F6F6" stroke="black" stroke-width="0.746269"/>
<path d="M82.3618 210.443L73.7445 219.451L72.0516 213.525L81.6849 209.002L82.3618 210.443Z" fill="#ECECEC"/>
<path d="M85.1688 209.659C79.7211 211.022 74.7409 213.569 70.2109 217.284L62.4227 196.954C62.4227 196.954 46.7091 211.815 37.3263 209.357C28.4098 207.019 32.3007 192.378 32.3007 192.378C44.5445 183.871 64.0216 172.448 72.5558 181.495C72.6001 181.534 72.6346 181.568 72.6692 181.608C74.416 183.511 76.3895 187.276 78.2442 191.444C81.944 199.746 85.1688 209.66 85.1688 209.66V209.659Z" fill="black"/>
<path d="M69.9821 217.37L62.3255 197.386C60.6651 198.951 51.631 207.153 42.1067 209.644L41.9815 209.174C52.3489 206.462 62.1517 196.879 62.25 196.782L62.5177 196.517L70.4398 217.197L69.981 217.37H69.9821Z" fill="#F6F6F6"/>
<path d="M44.9288 159.676L41.4892 170.709L36.8621 185.551C36.8621 185.551 33.4861 186.754 30.5075 186.379C27.8776 186.048 25.5565 184.48 26.1837 179.742C27.5678 169.298 44.9299 159.676 44.9299 159.676H44.9288Z" fill="#255DF9"/>
<path d="M78.5832 170.598L76.0214 180.277L67.3748 172.185L70.8047 166.478L75.4427 168.932L78.5832 170.598Z" fill="#255DF9"/>
<path d="M70.8242 166.489L74.1062 161.285L80.736 158.48L78.5639 170.617L70.8242 166.489Z" fill="#F6F6F6"/>
<path d="M103.036 156.531C101.294 156.117 99.724 156.185 98.3054 156.701C97.3683 157.042 96.4949 157.583 95.6895 158.313L92.4853 150.941C93.5994 150.746 94.6153 150.415 95.533 149.933C96.8631 149.237 97.9718 148.229 98.8355 146.861L103.036 156.531Z" fill="#255DF9"/>
<path d="M95.6982 158.307L92.4961 150.936L45.3186 173.157L47.0233 177.081L95.6982 158.307L92.4961 150.936L95.6982 158.307Z" fill="#F6F6F6"/>
<path d="M103.036 156.531C101.294 156.117 99.724 156.185 98.3054 156.701L95.533 149.933C96.8631 149.237 97.9718 148.229 98.8355 146.861L103.036 156.531Z" fill="#F6F6F6"/>
<path d="M139.78 160.387C149.623 150.621 149.623 134.788 139.78 125.021C129.938 115.255 113.98 115.255 104.137 125.021C94.2947 134.788 94.2947 150.621 104.137 160.387C113.98 170.154 129.938 170.154 139.78 160.387Z" fill="#F6F6F6"/>
<path d="M136.806 157.436C145.006 149.3 145.006 136.109 136.806 127.973C128.606 119.836 115.311 119.836 107.111 127.973C98.9116 136.109 98.9116 149.3 107.111 157.436C115.311 165.573 128.606 165.573 136.806 157.436Z" fill="#F6F6F6"/>
<path d="M102.818 134.143H141.095C141.012 133.961 140.93 133.778 140.843 133.599H103.081C102.992 133.78 102.902 133.96 102.819 134.143H102.818Z" fill="#255DF9"/>
<path d="M141.032 151.412H102.892C102.976 151.594 103.058 151.778 103.146 151.957H140.767C140.857 151.777 140.948 151.596 141.032 151.412Z" fill="#255DF9"/>
<path d="M106.278 142.989V142.566C106.278 140.858 104.869 139.46 103.147 139.46H101.221C100.874 141.63 100.868 143.869 101.241 146.097H103.147C104.869 146.097 106.278 144.699 106.278 142.99V142.989Z" fill="#002999"/>
<path d="M116.226 139.46H129.901C131.652 139.46 133.074 140.871 133.074 142.608V142.949C133.074 144.686 131.652 146.097 129.901 146.097H116.226C114.475 146.097 113.053 144.686 113.053 142.949V142.608C113.053 140.871 114.475 139.46 116.226 139.46Z" fill="#002999"/>
<path d="M142.704 139.46H141.999C140.159 139.46 138.654 140.953 138.654 142.778C138.654 144.604 140.159 146.097 141.999 146.097H142.673C143.036 143.929 143.06 141.69 142.704 139.46Z" fill="#002999"/>
<path d="M78.5833 170.598L75.4427 168.932L77.3569 164.808C77.3569 164.808 80.0213 160.032 81.3514 160.236C82.6815 160.435 78.5833 170.598 78.5833 170.598Z" fill="#F6F6F6"/>
<path d="M72.0149 167.208L78.5833 170.598C78.5833 170.598 82.6814 160.435 81.3514 160.236C80.0213 160.031 76.8656 165.725 76.8656 165.725" stroke="black" stroke-width="0.746269"/>
<path d="M67.377 172.184L66.725 173.271C65.4284 171.502 62.5696 167.732 58.9745 164.738C55.7411 162.048 51.3547 157.865 47.5253 158.445C37.2723 159.987 32.304 192.379 32.304 192.379L58.8331 182.85L64.7763 187.445C66.0686 188.444 67.6945 188.922 69.3268 188.782C72.069 188.547 74.3653 186.623 75.0573 183.979L76.0247 180.281L67.3781 172.185L67.377 172.184Z" fill="#255DF9"/>
<path d="M51.7953 176.346L51.4702 176.71L58.6674 183.039L58.9925 182.675L51.7953 176.346Z" fill="black"/>
<path d="M66.211 172.258L65.8107 172.538L70.1462 178.625L70.5464 178.345L66.211 172.258Z" fill="black"/>
<path d="M210.938 112.222L210.587 117.685C210.549 117.73 210.499 117.792 210.435 117.867C210.286 118.042 210.07 118.292 209.805 118.593C209.275 119.197 208.547 120.003 207.757 120.817C206.966 121.632 206.118 122.449 205.345 123.076C204.959 123.389 204.597 123.649 204.277 123.838C203.95 124.03 203.694 124.13 203.512 124.154C202.522 124.283 202.253 124.064 202.192 123.988C202.157 123.945 202.145 123.899 202.142 123.857C202.141 123.836 202.142 123.819 202.143 123.809C202.143 123.808 202.143 123.806 202.143 123.805L202.285 123.245L201.71 123.354H201.706C201.702 123.355 201.697 123.356 201.691 123.357C201.677 123.36 201.657 123.363 201.63 123.368C201.577 123.377 201.498 123.39 201.401 123.405C201.206 123.434 200.936 123.47 200.635 123.496C200.016 123.549 199.333 123.554 198.897 123.418C198.744 123.37 198.678 123.292 198.64 123.205C198.595 123.101 198.579 122.955 198.596 122.78C198.613 122.609 198.657 122.439 198.7 122.308C198.72 122.244 198.74 122.191 198.754 122.156C198.761 122.139 198.766 122.125 198.77 122.117C198.772 122.113 198.773 122.11 198.774 122.108V122.106L198.2 121.664C198.199 121.664 198.198 121.666 198.197 121.667C198.195 121.668 198.191 121.671 198.187 121.674C198.178 121.682 198.164 121.692 198.146 121.707C198.11 121.735 198.057 121.777 197.988 121.831C197.85 121.938 197.651 122.091 197.405 122.272C196.912 122.635 196.237 123.113 195.499 123.571C194.76 124.03 193.969 124.463 193.246 124.745C192.503 125.034 191.909 125.132 191.523 125.021C191.484 125.01 191.461 124.998 191.447 124.99C191.44 124.986 191.435 124.983 191.433 124.981L191.431 124.979C191.43 124.977 191.428 124.968 191.428 124.95C191.429 124.854 191.493 124.664 191.682 124.372C192.048 123.808 192.733 123.083 193.51 122.352C194.28 121.628 195.116 120.92 195.761 120.391C196.083 120.127 196.357 119.909 196.55 119.756C196.647 119.68 196.723 119.621 196.775 119.581C196.801 119.56 196.821 119.545 196.834 119.535C196.841 119.53 196.846 119.526 196.849 119.523C196.851 119.522 196.852 119.521 196.853 119.52L196.854 119.519L197.894 118.721L196.59 118.852H196.587C196.586 118.852 196.584 118.853 196.581 118.853C196.574 118.854 196.563 118.855 196.549 118.856C196.522 118.859 196.482 118.862 196.431 118.867C196.328 118.876 196.178 118.887 195.994 118.9C195.624 118.926 195.118 118.955 194.57 118.964C194.02 118.974 193.434 118.966 192.903 118.92C192.364 118.873 191.914 118.789 191.619 118.665C191.612 118.662 191.607 118.657 191.601 118.655C191.612 118.64 191.626 118.621 191.644 118.6C191.84 118.373 192.274 118.064 192.905 117.69C194.157 116.949 195.938 116.088 197.534 115.214C199.18 114.313 200.315 112.859 201.034 111.652C201.395 111.046 201.655 110.495 201.826 110.095C201.878 109.972 201.919 109.861 201.955 109.769L210.938 112.222Z" fill="#F6F6F6" stroke="black" stroke-width="0.746269"/>
<path d="M195.411 76.2354C195.411 76.2354 203.504 74.1476 215.644 81.6965C226.569 88.489 227.298 95.1874 222.119 103.539C216.939 111.89 210.95 117.833 210.95 117.833L201.724 109.321L209.816 96.7942L195.41 76.2365L195.411 76.2354Z" fill="#255DF9"/>
<path d="M192.552 77.521C192.552 77.521 181.114 83.6237 175.287 96.7933H215.213L204.207 79.4481L192.552 77.521Z" fill="#255DF9"/>
<path d="M173.901 92.5496C175.857 92.4384 177.825 93.0584 179.744 93.5291V93.5281C181.604 93.9845 183.61 94.6996 184.971 95.3777C185.663 95.7221 186.145 96.0361 186.371 96.2781C186.415 96.3252 186.439 96.3614 186.454 96.3855C186.445 96.3904 186.437 96.3989 186.424 96.405C186.151 96.5407 185.71 96.6237 185.161 96.655C184.622 96.6857 184.02 96.6658 183.452 96.6238C182.885 96.5819 182.358 96.5182 181.974 96.4656C181.782 96.4393 181.626 96.4161 181.518 96.3992C181.465 96.3908 181.423 96.3843 181.395 96.3796C181.381 96.3773 181.37 96.375 181.363 96.3738C181.359 96.3732 181.357 96.3731 181.355 96.3728L181.353 96.3718L180.916 96.2966V96.3904C179.885 96.5098 178.971 97.1173 178.458 98.0281C178.024 98.7969 177.448 99.7222 176.83 100.46C176.52 100.829 176.209 101.14 175.908 101.361C175.603 101.585 175.337 101.695 175.115 101.709C174.95 101.719 174.92 101.675 174.917 101.672C174.901 101.65 174.864 101.572 174.875 101.377C174.899 100.99 175.096 100.418 175.38 99.7908C175.659 99.1768 176.001 98.5546 176.274 98.0837C176.41 97.8491 176.528 97.6532 176.613 97.5164C176.655 97.448 176.689 97.3945 176.711 97.3582C176.723 97.34 176.732 97.3263 176.738 97.3171C176.739 97.3151 176.74 97.3129 176.741 97.3113C176.742 97.3097 176.743 97.3085 176.744 97.3074C176.744 97.3061 176.745 97.3052 176.746 97.3044V97.3035L176.747 97.3025L176.118 96.9001V96.9011L176.116 96.9041C176.114 96.9063 176.112 96.9094 176.109 96.9138C176.103 96.9229 176.094 96.9368 176.083 96.9548C176.059 96.9908 176.024 97.0445 175.979 97.1121C175.889 97.2473 175.758 97.4403 175.597 97.6707C175.274 98.1326 174.829 98.7418 174.339 99.3337C173.847 99.929 173.321 100.492 172.837 100.875C172.596 101.066 172.378 101.2 172.193 101.274C172.053 101.33 171.951 101.343 171.877 101.337L171.812 101.324C171.73 101.298 171.697 101.259 171.675 101.204C171.646 101.129 171.63 101.002 171.657 100.805C171.711 100.412 171.912 99.8954 172.179 99.3562C172.442 98.8254 172.752 98.3051 172.998 97.9158C173.105 97.7455 173.201 97.6011 173.273 97.4929C173.321 97.4229 173.358 97.3669 173.384 97.3289C173.397 97.3098 173.408 97.2949 173.415 97.2849L173.424 97.2703V97.2693L173.115 97.0623L173.425 97.2693L172.809 96.8474L172.808 96.8484C172.808 96.849 172.808 96.8503 172.807 96.8513C172.806 96.8524 172.805 96.8537 172.804 96.8552L172.801 96.8582C172.8 96.8604 172.798 96.8643 172.794 96.8689C172.789 96.8764 172.783 96.886 172.775 96.8972C172.753 96.9287 172.721 96.9748 172.682 97.033L172.659 97.0681C172.564 97.2049 172.427 97.4011 172.258 97.6345C171.921 98.1019 171.457 98.7191 170.952 99.322C170.444 99.9279 169.904 100.507 169.414 100.906C169.168 101.106 168.948 101.25 168.762 101.332C168.572 101.416 168.459 101.417 168.401 101.4C168.329 101.38 168.317 101.355 168.309 101.334C168.292 101.288 168.279 101.19 168.314 101.017C168.383 100.674 168.598 100.214 168.88 99.7283C169.157 99.2516 169.479 98.7833 169.734 98.4324C169.861 98.2576 169.97 98.1131 170.047 98.0125C170.086 97.9623 170.116 97.9227 170.137 97.8962C170.148 97.883 170.156 97.8726 170.162 97.866C170.164 97.8629 170.166 97.8606 170.167 97.8591L170.168 97.8572L169.587 97.3894L169.583 97.3933C169.582 97.3953 169.58 97.3984 169.577 97.4021L169.557 97.4255C169.537 97.4502 169.507 97.4874 169.468 97.5339C169.391 97.627 169.278 97.7603 169.14 97.9207C168.863 98.2422 168.483 98.6706 168.067 99.1003C167.65 99.5317 167.204 99.9573 166.796 100.277C166.593 100.437 166.405 100.565 166.242 100.653C166.073 100.744 165.957 100.779 165.887 100.784C165.747 100.794 165.639 100.795 165.556 100.786C165.515 100.781 165.488 100.775 165.472 100.77C165.47 100.732 165.474 100.652 165.516 100.511C165.61 100.198 165.848 99.708 166.305 98.9568C166.758 98.2122 167.413 97.2338 168.321 95.9519C170.079 93.4715 171.99 92.6583 173.901 92.5496Z" fill="#F6F6F6" stroke="black" stroke-width="0.746269"/>
<path d="M195.345 83.1272C195.345 83.1275 195.345 83.1277 195.345 83.1277C194.173 83.1276 193.186 82.751 192.762 82.5604C192.638 82.5047 192.594 82.3557 192.661 82.2372C192.727 82.1211 192.873 82.0784 192.994 82.134C193.842 82.5235 196.953 83.6597 199.125 80.5475C199.202 80.4373 199.354 80.4017 199.467 80.4737C199.582 80.5466 199.616 80.6998 199.538 80.8115C198.271 82.6349 196.686 83.1265 195.346 83.1267C195.346 83.1267 195.345 83.1269 195.345 83.1272Z" fill="black"/>
<path d="M202.063 109.25C201.989 109.362 201.839 109.394 201.726 109.321C201.612 109.247 201.579 109.095 201.654 108.981L211.157 94.4949C211.643 93.7542 211.646 92.7965 211.166 92.0523L208.087 87.2851C208.013 87.1711 208.046 87.0191 208.161 86.9462C208.274 86.8741 208.424 86.907 208.497 87.0198L211.75 92.0532C212.231 92.7974 212.228 93.7554 211.742 94.4964L202.063 109.25Z" fill="black"/>
<path d="M192.752 72.1335L193.175 72.446L197.52 75.6716C197.586 76.5901 197.508 77.33 197.34 77.9246C196.772 79.933 194.029 80.3924 192.753 78.6755L192.752 78.6746L192.366 78.1599L190.044 75.0378L192.438 71.95V71.949L192.461 71.9187L192.752 72.1335Z" fill="#F6F6F6" stroke="black" stroke-width="0.746269"/>
<path d="M192.067 78.3833L189.575 75.0336L192.142 71.7214L192.973 71.8328L193.369 71.8864C193.369 71.8864 193.38 71.9764 193.396 72.1467C193.461 73.008 193.546 75.8585 192.067 78.3833Z" fill="black"/>
<path d="M192.615 68.2533C192.628 68.2819 192.646 68.3211 192.667 68.3705C192.716 68.4878 192.786 68.6611 192.859 68.8793C193.007 69.3166 193.171 69.9307 193.246 70.6361C193.395 72.0468 193.18 73.7943 191.764 75.2621C191.306 75.7361 190.843 75.9929 190.388 76.1C189.931 76.2072 189.456 76.1696 188.966 76.0131C187.971 75.6957 186.953 74.9006 186.022 73.9359C185.098 72.9784 184.293 71.8887 183.716 71.0345C183.428 70.6085 183.198 70.2432 183.041 69.9847C182.976 69.8783 182.924 69.7898 182.885 69.723L183.7 67.4506L189.875 65.6166L192.615 68.2533Z" fill="#F6F6F6" stroke="black" stroke-width="0.746269"/>
<path d="M184.121 63.9775C185.389 62.8506 187.194 61.9335 189.47 62.5986C190.654 62.9445 191.402 63.3707 191.906 63.8066C192.406 64.2405 192.685 64.7013 192.907 65.1543C192.964 65.2688 193.016 65.3827 193.069 65.4971C193.12 65.61 193.173 65.7253 193.227 65.8369C193.334 66.0601 193.454 66.2866 193.611 66.4932C193.939 66.9274 194.399 67.2377 195.141 67.3604C196.485 67.5824 199.164 67.833 201.355 69.1035C202.439 69.7323 203.385 70.6029 203.982 71.832C204.541 72.9838 204.806 74.4803 204.556 76.4414C204.489 76.4261 204.416 76.4083 204.335 76.3906C203.943 76.3047 203.388 76.194 202.738 76.0938C201.442 75.894 199.744 75.7323 198.186 75.9053C196.517 76.0904 195.049 74.8139 193.946 73.3301C193.406 72.6045 192.978 71.8632 192.686 71.3018C192.54 71.0217 192.429 70.7873 192.354 70.624C192.316 70.5424 192.287 70.4785 192.269 70.4355C192.26 70.4144 192.253 70.3983 192.248 70.3877C192.246 70.3825 192.244 70.3785 192.243 70.376L192.242 70.373L192.116 70.0693L191.8 70.1553C191.833 70.1464 191.826 70.1573 191.748 70.1387C191.684 70.1232 191.604 70.0962 191.523 70.0625C191.443 70.0296 191.368 69.9942 191.313 69.9668C191.31 69.9656 191.308 69.964 191.306 69.9629C191.295 69.9469 191.283 69.9281 191.269 69.9082C191.209 69.8244 191.123 69.7082 191.013 69.5732C190.794 69.3046 190.477 68.9557 190.085 68.6504C189.696 68.3465 189.213 68.0699 188.668 67.9746C188.111 67.8772 187.512 67.9743 186.919 68.3789C186.381 68.7467 185.826 69.2646 185.277 69.7725C184.717 70.2896 184.157 70.8042 183.578 71.208C183 71.6121 182.434 71.8832 181.872 71.9424C181.326 72 180.745 71.8612 180.114 71.3721C179.315 70.7531 179.134 69.5001 179.517 68.3623C179.899 67.2271 180.754 66.451 181.786 66.5977L182.046 66.6348L182.169 66.4023L182.175 66.3906C182.18 66.3819 182.187 66.3686 182.198 66.3506C182.218 66.3144 182.249 66.2596 182.29 66.1904C182.374 66.0519 182.499 65.8534 182.664 65.6191C182.996 65.1495 183.487 64.5412 184.121 63.9775Z" fill="#F6F6F6" stroke="black" stroke-width="0.746269"/>
<path d="M191.518 68.4951C192.044 68.4951 192.619 69.0834 192.619 70.0156C192.619 70.9481 192.044 71.5371 191.518 71.5371C190.992 71.5371 190.418 70.9481 190.418 70.0156C190.418 69.0834 190.992 68.4951 191.518 68.4951Z" fill="#F6F6F6" stroke="black" stroke-width="0.746269"/>
<path d="M297.31 232.354H1.39496V233.084H297.31V232.354Z" fill="#F6F6F6"/>
<path d="M248.849 206.041H228.607V217.727H248.849V206.041Z" fill="black"/>
<path d="M253.707 223.653L257.791 224.432C257.931 224.459 258.044 224.565 258.081 224.703L261.21 236.573C261.292 236.884 260.97 237.146 260.683 237.003L251.647 232.5C251.559 232.456 251.492 232.379 251.46 232.285L249.2 225.586C249.135 225.393 249.236 225.184 249.428 225.115L253.512 223.667C253.574 223.645 253.642 223.64 253.707 223.653Z" fill="#F6F6F6" stroke="black" stroke-width="0.746269"/>
<path d="M253.58 223.249L251.205 232.695C251.205 232.695 240.963 231.356 230.928 229.145C226.301 228.133 221.717 226.93 218.203 225.586C216.352 224.88 214.797 224.134 213.688 223.361C205.89 217.907 208.672 205.349 221.898 207.497C227.022 208.329 232.547 210.594 237.533 213.16C239.806 214.323 241.959 215.555 243.912 216.738C249.615 220.186 253.58 223.248 253.58 223.248V223.249Z" fill="#255DF9"/>
<path d="M218.156 225.335L224.477 225.518C224.704 225.525 224.873 225.73 224.835 225.954L223.851 231.718C223.821 231.896 223.666 232.027 223.485 232.028L207.711 232.094C207.328 232.095 207.19 231.587 207.522 231.396L217.96 225.385L217.959 225.384C218.018 225.349 218.087 225.333 218.156 225.335Z" fill="#F6F6F6" stroke="black" stroke-width="0.746269"/>
<path d="M233.971 229.054L231.492 232.128L223.809 232.026L224.935 225.425L228.571 223.743L233.971 229.054Z" fill="#F6F6F6" stroke="black" stroke-width="0.746269"/>
<path d="M228.648 223.296C228.648 223.296 243.971 208.414 257.243 204.88C269.549 201.604 273.214 213.874 266.308 219.977C259.401 226.079 231.669 232.503 231.669 232.503L228.647 223.295L228.648 223.296Z" fill="#255DF9"/>
<path d="M228.358 223.548C229.851 221.819 239.179 213.911 247.015 208.722" stroke="black" stroke-width="0.597015" stroke-linecap="round"/>
<path d="M231.729 232.74L231.609 232.269C241.126 229.884 250.905 227.295 257.96 224.522L258.142 224.975C251.059 227.759 241.262 230.354 231.729 232.741V232.74Z" fill="#255DF9"/>
<path d="M238.081 165.113C239.351 165.033 240.591 165.268 241.574 166.014C242.543 166.75 243.292 167.919 243.675 169.104L243.747 169.341C244.026 170.333 244.239 171.464 244.634 172.495C245.301 174.234 246.766 175.498 247.978 176.643C249.053 177.658 249.605 178.616 249.847 179.469C250.089 180.321 250.028 181.094 249.839 181.75C249.649 182.41 249.328 182.953 249.052 183.332C248.915 183.521 248.789 183.668 248.7 183.766C248.686 183.781 248.672 183.793 248.661 183.806L227.98 183.716C227.996 183.716 227.96 183.716 227.855 183.648C227.762 183.587 227.654 183.497 227.54 183.389C227.315 183.174 227.104 182.924 226.997 182.792C226.773 182.513 226.599 182.2 226.49 181.867L226.447 181.722C226.072 180.313 226.827 178.713 227.949 177.72C228.532 177.204 229.212 176.685 229.771 176.127C230.348 175.551 230.855 174.885 231.149 173.997L231.148 173.996C231.442 173.11 231.545 172.184 231.662 171.32C231.781 170.441 231.916 169.613 232.258 168.84C232.705 167.831 233.397 166.95 234.295 166.316C235.371 165.557 236.599 165.233 237.937 165.125L238.081 165.113Z" fill="#F6F6F6" stroke="black" stroke-width="0.746269"/>
<path d="M236.246 162.315C237.516 161.876 238.638 161.947 239.241 162.402C239.529 162.62 239.724 162.941 239.767 163.401C239.807 163.833 239.711 164.399 239.406 165.116L236.272 165.389C236.266 165.384 236.259 165.379 236.252 165.373C236.17 165.304 236.054 165.203 235.926 165.078C235.666 164.825 235.369 164.491 235.176 164.136C234.981 163.777 234.923 163.459 235.025 163.193C235.126 162.929 235.433 162.595 236.246 162.315Z" fill="#F6F6F6" stroke="black" stroke-width="0.746269"/>
<path d="M234.328 172.397C233.955 171.656 233.134 170.469 232.836 171.656C232.463 173.138 233.582 175.362 234.701 174.621M242.164 172.397C242.04 171.903 242.015 170.914 242.911 170.914C244.03 170.914 244.03 174.991 242.164 174.25" stroke="black" stroke-width="0.746269"/>
<path d="M237.065 179.157C237.065 179.157 217.479 182.45 213.594 195.859C209.71 209.27 233.35 210.139 233.35 210.139C233.35 210.139 256.568 209.35 260.696 205.656C264.823 201.962 266.927 183.251 239.331 179.316L237.065 179.156V179.157Z" fill="black"/>
<path d="M238.327 186.492C238.199 186.492 238.073 186.486 237.947 186.477C236.539 186.363 235.425 185.641 234.808 184.443L235.245 184.222C235.781 185.263 236.755 185.892 237.987 185.99C239.495 186.117 241.122 185.42 241.945 184.31L242.341 184.598C241.491 185.744 239.883 186.491 238.327 186.491V186.492Z" fill="#F6F6F6"/>
<path d="M220.539 194.645L220.23 195.024L230.474 203.24L230.783 202.861L220.539 194.645Z" fill="#F6F6F6"/>
<path d="M255.679 194.858L246.341 202.878L246.662 203.246L256 195.226L255.679 194.858Z" fill="#F6F6F6"/>
<path d="M248.337 194.469H227.951C227.265 194.469 226.71 195.02 226.71 195.7V209.807C226.71 210.486 227.265 211.038 227.951 211.038H248.337C249.022 211.038 249.577 210.486 249.577 209.807V195.7C249.577 195.02 249.022 194.469 248.337 194.469Z" fill="#F6F6F6"/>
<path d="M240.673 179.98C240.785 180.85 240.439 181.716 239.768 182.255L239.767 182.256L239.721 182.292C238.837 183.001 237.593 182.994 236.718 182.273C236.076 181.744 235.739 180.917 235.828 180.075V180.067L236.101 176.847H238.09L238.12 176.842L240.001 176.531L240.673 179.98Z" fill="#F6F6F6" stroke="black" stroke-width="0.746269"/>
<path d="M235.893 176.039C237.446 179.058 239.198 179.119 240.534 176.115L237.784 175.764L235.893 176.039Z" fill="black"/>
<path d="M238.254 177.137C240.304 177.137 241.966 174.979 241.966 172.317H234.543C234.543 174.979 236.204 177.137 238.254 177.137Z" fill="#F6F6F6"/>
<path d="M238.254 177.137C240.304 177.137 242.164 174.979 242.164 172.317C238.424 172.253 237.313 169.802 236.94 167.949C236.94 169.802 235.607 172.026 234.328 172.317C234.328 174.979 236.204 177.137 238.254 177.137Z" stroke="black" stroke-width="0.746269"/>
<path d="M237.313 174.25C237.189 174.868 237.164 175.955 238.06 175.362" stroke="black" stroke-width="0.597015" stroke-linecap="round"/>
<path d="M32.4626 192.413C32.7114 187.1 35 171.878 39.1791 166.837" stroke="black" stroke-width="0.597015" stroke-linecap="round"/>
<rect x="140.373" y="213.172" width="33.5821" height="5.92567" rx="2.96283" stroke="black" stroke-width="0.746269"/>
<path d="M188.06 70.0938C187.562 70.0938 186.642 70.3161 186.94 71.2057" stroke="black" stroke-width="0.597015" stroke-linecap="round"/>
<path d="M188.06 75.283C188.557 75.4066 189.552 75.2089 189.552 73.4297" stroke="black" stroke-width="0.597015" stroke-linecap="round"/>
<path d="M51.4926 152.01C51.6169 152.875 52.0896 154.308 52.9851 153.122" stroke="black" stroke-width="0.597015" stroke-linecap="round"/>
</svg>
