<svg width="200" height="200" viewBox="0 0 200 200" fill="none" xmlns="http://www.w3.org/2000/svg">
<g clip-path="url(#clip0_6496_146580)">
<path d="M38.2109 195.438C38.2109 195.438 53.3159 156.557 55.7935 147.812C58.271 139.068 58.4897 117.821 58.4792 117.446C58.5842 113.811 58.932 110.187 59.5202 106.599C60.2879 103.527 61.2546 100.509 62.4142 97.563C64.6632 91.5196 68.3003 86.089 73.0325 81.7086C80.8504 74.838 91.4165 72.2563 101.337 69.0916C117.504 63.9491 132.068 56.381 147.329 49.1565C151.295 47.2827 155.49 45.4193 159.821 45.6691C162.184 45.8044 164.724 46.7101 165.848 48.7921C166.972 50.8741 166.369 53.4558 165.224 55.5066C163.246 59.0356 159.862 61.5131 156.896 64.2614C154.251 66.7182 148.838 72.7456 151.753 76.6805C154.085 79.8035 160.081 75.2648 163.329 78.3461C165.026 79.9701 164.911 82.8329 163.777 84.8836C162.642 86.9344 160.716 88.423 158.936 89.9637C154.22 94.0444 150.192 99.1766 146.444 104.101C142.696 109.024 144.154 105.142 144.456 110.919C144.82 117.998 145.809 126.44 143.81 133.374C140.604 144.439 121.814 158.129 113.621 165.114C105.428 172.099 98.6203 195.407 98.6203 195.407L38.2109 195.438Z" fill="white"/>
<path d="M98.7562 195.96H38.2115C38.1256 195.96 38.0409 195.939 37.9647 195.899C37.8885 195.86 37.8232 195.802 37.7743 195.731C37.7277 195.661 37.6986 195.581 37.6896 195.498C37.6805 195.415 37.6917 195.33 37.7223 195.252C37.868 194.867 52.8584 156.298 55.2944 147.678C57.7303 139.059 57.9593 117.666 57.9593 117.489C58.082 113.808 58.4506 110.139 59.0628 106.507C59.8339 103.413 60.8076 100.374 61.9776 97.4084C64.249 91.283 67.9333 85.7798 72.7312 81.3457C79.6122 75.3079 88.6064 72.5285 97.3092 69.8947L101.223 68.6767C114.527 64.4399 126.509 58.6727 139.189 52.5724C141.822 51.3024 144.477 50.022 147.142 48.7624C151.389 46.7532 155.553 44.9835 159.936 45.223C162.913 45.3895 165.318 46.67 166.39 48.6375C167.9 51.4482 166.453 54.6232 165.755 55.8516C164.173 58.6935 161.695 60.8692 159.311 62.972C158.645 63.555 157.979 64.138 157.333 64.7417C155.97 66.0014 149.318 72.5076 152.253 76.4634C153.221 77.7647 155.043 77.5044 157.156 77.1193C159.27 76.7341 161.955 76.3385 163.767 78.0666C165.578 79.7946 165.516 83.0738 164.319 85.2287C163.186 87.017 161.74 88.5863 160.05 89.8611L159.363 90.4545C154.689 94.4936 150.671 99.6153 146.944 104.508C146.282 105.401 145.569 106.256 144.81 107.069C144.696 107.184 144.588 107.306 144.487 107.433C144.487 107.433 144.539 107.517 144.56 107.61C144.879 108.707 145.051 109.841 145.07 110.983C145.122 112.076 145.195 113.211 145.268 114.356C145.664 120.602 146.122 127.67 144.404 133.614C141.677 142.983 127.936 154.247 118.848 161.669C117.088 163.106 115.433 164.459 114.09 165.604C106.147 172.423 99.3288 195.419 99.2559 195.648C99.2139 195.744 99.1437 195.826 99.0545 195.881C98.9653 195.937 98.8613 195.965 98.7562 195.96ZM38.9715 194.919H98.3815C99.3288 191.796 105.721 171.361 113.424 164.73C114.767 163.585 116.432 162.221 118.202 160.785C127.196 153.435 140.781 142.328 143.415 133.24C145.081 127.473 144.633 120.498 144.238 114.335C144.165 113.18 144.092 112.055 144.04 110.962C144.024 109.905 143.867 108.855 143.571 107.839C143.353 107.09 143.498 106.902 144.061 106.299C144.799 105.511 145.494 104.684 146.143 103.821C149.89 98.8762 153.961 93.7128 158.708 89.6009L159.395 89.0075C160.987 87.814 162.352 86.3435 163.423 84.6665C164.464 82.8552 164.631 80.2423 163.069 78.7536C161.508 77.265 159.447 77.7126 157.344 78.0874C155.241 78.4622 152.784 78.8369 151.441 77.0464C148.068 72.4972 154.564 65.8556 156.646 63.9298C157.302 63.326 157.968 62.743 158.645 62.1497C160.966 60.0677 163.371 57.9856 164.891 55.3103C166.161 53.0409 166.39 50.7195 165.516 49.0643C164.641 47.4091 162.528 46.3368 159.925 46.1911C155.761 45.9517 151.743 47.6797 147.631 49.6264L139.678 53.4365C126.967 59.5576 114.954 65.3351 101.577 69.5928C100.276 70.0092 98.9644 70.4152 97.6528 70.8108C89.0124 73.4758 80.1327 76.2136 73.3974 82.1161C68.7284 86.4261 65.1406 91.7757 62.9249 97.7311C61.7717 100.653 60.812 103.647 60.0518 106.694C59.4713 110.235 59.1235 113.81 59.0108 117.396C59.0108 117.593 58.8234 139.038 56.3042 147.918C54.0244 155.975 41.0327 189.589 38.9715 194.919Z" fill="#3D3939"/>
<path d="M151.305 2.51953H86.8255C84.2958 2.51953 82.2451 4.57025 82.2451 7.09994V137.642C82.2451 140.171 84.2958 142.222 86.8255 142.222H151.305C153.835 142.222 155.886 140.171 155.886 137.642V7.09994C155.886 4.57025 153.835 2.51953 151.305 2.51953Z" fill="white"/>
<path d="M151.305 142.754H86.8255C85.4735 142.751 84.1777 142.213 83.2217 141.257C82.2657 140.301 81.7274 139.005 81.7246 137.653V7.10091C81.7274 5.74891 82.2657 4.45307 83.2217 3.49706C84.1777 2.54105 85.4735 2.00275 86.8255 2H151.305C152.657 2.00275 153.953 2.54105 154.909 3.49706C155.865 4.45307 156.403 5.74891 156.406 7.10091V137.653C156.403 139.005 155.865 140.301 154.909 141.257C153.953 142.213 152.657 142.751 151.305 142.754ZM86.8255 3.041C85.7496 3.04375 84.7186 3.47237 83.9578 4.23316C83.197 4.99394 82.7684 6.025 82.7656 7.10091V137.653C82.7684 138.729 83.197 139.76 83.9578 140.521C84.7186 141.282 85.7496 141.71 86.8255 141.713H151.305C152.381 141.71 153.412 141.282 154.173 140.521C154.934 139.76 155.362 138.729 155.365 137.653V7.10091C155.362 6.025 154.934 4.99394 154.173 4.23316C153.412 3.47237 152.381 3.04375 151.305 3.041H86.8255Z" fill="#3D3939"/>
<path d="M152.17 15.1582H86.2637V122.673H152.17V15.1582Z" fill="#003BE0"/>
<path d="M126.165 138.445H113.486C112.603 138.442 111.757 138.09 111.133 137.466C110.509 136.842 110.157 135.996 110.154 135.114V130.689C110.154 129.805 110.505 128.956 111.129 128.33C111.754 127.704 112.601 127.35 113.486 127.348H126.165C127.049 127.35 127.897 127.704 128.521 128.33C129.145 128.956 129.496 129.805 129.496 130.689V135.114C129.496 135.997 129.145 136.844 128.52 137.469C127.896 138.094 127.048 138.445 126.165 138.445ZM113.486 128.389C112.877 128.391 112.295 128.635 111.865 129.066C111.436 129.497 111.195 130.081 111.195 130.689V135.114C111.198 135.72 111.44 136.301 111.869 136.73C112.298 137.159 112.879 137.401 113.486 137.404H126.165C126.771 137.401 127.352 137.159 127.781 136.73C128.21 136.301 128.452 135.72 128.455 135.114V130.689C128.455 130.081 128.214 129.497 127.785 129.066C127.356 128.635 126.773 128.391 126.165 128.389H113.486Z" fill="#D9D9D9"/>
<path d="M124.552 9.35936H105.813C105.675 9.35936 105.543 9.30452 105.445 9.20691C105.348 9.1093 105.293 8.97691 105.293 8.83886C105.293 8.70081 105.348 8.56842 105.445 8.47081C105.543 8.3732 105.675 8.31836 105.813 8.31836H124.552C124.69 8.31836 124.822 8.3732 124.92 8.47081C125.017 8.56842 125.072 8.70081 125.072 8.83886C125.072 8.97691 125.017 9.1093 124.92 9.20691C124.822 9.30452 124.69 9.35936 124.552 9.35936Z" fill="#D9D9D9"/>
<path d="M129.705 9.0996H127.186C127.048 9.09693 126.917 9.04124 126.82 8.9442C126.723 8.84716 126.668 8.71631 126.665 8.57909C126.665 8.44105 126.72 8.30866 126.817 8.21104C126.915 8.11343 127.047 8.05859 127.186 8.05859H129.705C129.843 8.05859 129.975 8.11343 130.073 8.21104C130.17 8.30866 130.225 8.44105 130.225 8.57909C130.225 8.71714 130.17 8.84953 130.073 8.94715C129.975 9.04476 129.843 9.0996 129.705 9.0996Z" fill="#D9D9D9"/>
<path d="M147.911 77.3792C147.652 78.586 147.688 79.8378 148.017 81.0276C148.346 82.2174 148.958 83.31 149.801 84.212C150.643 85.114 151.692 85.7988 152.856 86.2078C154.021 86.6168 155.268 86.7379 156.489 86.5608C157.893 86.347 159.221 85.7851 160.351 84.9265C161.396 84.1694 162.263 83.1947 162.894 82.0696C163.525 80.9444 163.904 79.6958 164.005 78.4098C164.245 74.2458 160.705 70.5502 156.573 70.0818C152.721 69.5613 148.671 73.9023 147.911 77.3792Z" fill="white"/>
<path d="M155.428 87.1541C154.205 87.1616 152.997 86.8942 151.891 86.3718C150.786 85.8494 149.812 85.0852 149.041 84.1359C148.271 83.1865 147.723 82.0761 147.44 80.8868C147.156 79.6974 147.143 78.4596 147.402 77.2646C148.255 73.3504 152.555 69.0095 156.636 69.5195C158.825 69.7577 160.847 70.804 162.307 72.4539C163.766 74.1037 164.557 76.2385 164.526 78.4409C164.419 79.8019 164.018 81.1234 163.351 82.3147C162.684 83.5061 161.768 84.539 160.664 85.3428C159.461 86.2517 158.052 86.8489 156.563 87.0813C156.187 87.1318 155.807 87.1561 155.428 87.1541ZM148.422 77.4832C148.181 78.6084 148.215 79.7753 148.521 80.8845C148.828 81.9937 149.398 83.0123 150.183 83.8537C150.968 84.6951 151.945 85.3342 153.031 85.7168C154.116 86.0993 155.278 86.2138 156.417 86.0507C157.733 85.842 158.977 85.3129 160.04 84.51C161.023 83.7977 161.84 82.8807 162.435 81.8222C163.03 80.7637 163.388 79.5888 163.485 78.3785C163.704 74.6309 160.508 71.0915 156.511 70.5605C153.055 70.1337 149.172 74.0167 148.422 77.4832Z" fill="#3D3939"/>
<path d="M146.444 98.5016C145.943 99.2142 145.609 100.031 145.468 100.891C145.328 101.751 145.384 102.632 145.632 103.467C146.04 104.443 146.667 105.313 147.464 106.007C149.546 107.996 152.44 109.401 155.293 108.974C157.044 108.612 158.691 107.862 160.113 106.778C162.642 105.039 165.068 102.822 165.911 99.8757C167.129 95.6076 164.027 89.372 159.02 89.9966C154.918 90.5588 148.63 95.108 146.444 98.5016Z" fill="white"/>
<path d="M154.252 109.567C151.55 109.451 148.994 108.312 147.1 106.382C146.243 105.635 145.573 104.697 145.143 103.644C144.864 102.734 144.797 101.772 144.947 100.832C145.097 99.8922 145.459 98.9989 146.007 98.2205C148.256 94.7331 154.679 90.0174 158.957 89.4761C159.993 89.3564 161.043 89.5029 162.006 89.9018C162.97 90.3007 163.816 90.9389 164.464 91.7559C165.408 92.8879 166.075 94.2242 166.413 95.6589C166.751 97.0935 166.75 98.5871 166.411 100.021C165.672 102.614 163.767 104.893 160.404 107.204C158.921 108.333 157.202 109.113 155.376 109.484C155.004 109.543 154.628 109.571 154.252 109.567ZM146.871 98.793C146.413 99.4366 146.108 100.176 145.978 100.955C145.848 101.734 145.897 102.533 146.122 103.29C146.5 104.19 147.081 104.992 147.818 105.632C148.761 106.628 149.916 107.399 151.197 107.887C152.479 108.376 153.854 108.569 155.22 108.454C156.889 108.111 158.461 107.399 159.821 106.372C162.944 104.206 164.745 102.103 165.411 99.7612C165.711 98.4952 165.71 97.1766 165.408 95.9111C165.106 94.6457 164.512 93.4686 163.673 92.4741C163.138 91.7889 162.435 91.2528 161.633 90.9174C160.831 90.5819 159.956 90.4584 159.092 90.5587C155.137 91.048 148.963 95.5972 146.871 98.8347V98.793Z" fill="#3D3939"/>
<path d="M148.984 112.22C148.008 112.885 147.194 113.76 146.601 114.781C146.013 115.967 145.775 117.295 145.913 118.611C146.051 119.926 146.561 121.176 147.381 122.214C148.219 123.234 149.254 124.076 150.423 124.689C151.593 125.303 152.873 125.675 154.189 125.784C155.74 125.975 157.313 125.834 158.806 125.373C160.299 124.912 161.677 124.141 162.851 123.109C164.008 122.056 164.871 120.72 165.354 119.233C165.838 117.745 165.926 116.157 165.609 114.625C163.694 106.599 153.981 108.577 148.984 112.22Z" fill="white"/>
<path d="M155.459 126.379C155.018 126.381 154.576 126.357 154.137 126.307C152.75 126.188 151.4 125.793 150.168 125.144C148.936 124.495 147.847 123.605 146.965 122.528C146.077 121.414 145.528 120.068 145.382 118.651C145.236 117.234 145.5 115.804 146.142 114.533C146.777 113.444 147.644 112.509 148.683 111.795C152.066 109.328 157.583 107.631 161.56 109.078C162.723 109.515 163.754 110.245 164.552 111.197C165.351 112.149 165.891 113.291 166.119 114.512C166.462 116.134 166.373 117.817 165.861 119.393C165.35 120.97 164.434 122.384 163.205 123.496C161.068 125.382 158.309 126.409 155.459 126.379ZM158.249 109.567C155.018 109.695 151.897 110.782 149.286 112.69C148.378 113.32 147.615 114.136 147.048 115.085C146.516 116.182 146.303 117.408 146.433 118.621C146.564 119.834 147.033 120.986 147.787 121.945C148.584 122.912 149.566 123.71 150.677 124.292C151.787 124.873 153.003 125.225 154.252 125.328C155.73 125.504 157.228 125.368 158.65 124.929C160.072 124.489 161.386 123.756 162.507 122.778C163.59 121.785 164.398 120.529 164.853 119.132C165.307 117.734 165.392 116.243 165.099 114.803C164.917 113.749 164.462 112.76 163.779 111.937C163.096 111.113 162.209 110.482 161.206 110.109C160.261 109.752 159.259 109.568 158.249 109.567Z" fill="#3D3939"/>
<path d="M58.5108 116.187C58.5108 116.187 56.5746 90.9844 68.1817 87.0391C75.9164 84.4365 110.988 91.0781 107.282 97.8238C103.576 104.57 81.3296 100.718 81.3296 100.718C81.3296 100.718 86.7116 124.911 75.9476 136.362" fill="white"/>
<path d="M75.9471 136.914C75.8159 136.917 75.6888 136.868 75.5932 136.778C75.5444 136.73 75.5056 136.672 75.4792 136.609C75.4528 136.546 75.4392 136.478 75.4392 136.409C75.4392 136.34 75.4528 136.272 75.4792 136.209C75.5056 136.145 75.5444 136.088 75.5932 136.039C86.0032 124.869 80.9023 101.124 80.7982 100.885C80.7778 100.802 80.7796 100.715 80.8033 100.632C80.8271 100.55 80.8719 100.476 80.9335 100.416C80.9909 100.354 81.0629 100.308 81.1428 100.28C81.2228 100.253 81.3082 100.246 81.3915 100.26C81.6206 100.26 103.315 103.966 106.802 97.6263C106.981 97.2872 107.041 96.898 106.974 96.5207C106.906 96.1434 106.713 95.7997 106.428 95.5443C102.024 90.2768 74.9998 85.3633 68.327 87.6014C57.2299 91.3282 58.9579 115.917 58.9579 116.167C58.9636 116.235 58.9557 116.304 58.9347 116.369C58.9137 116.434 58.88 116.495 58.8355 116.547C58.791 116.599 58.7366 116.642 58.6754 116.674C58.6142 116.705 58.5475 116.723 58.4791 116.729C58.3428 116.732 58.2099 116.686 58.1061 116.597C58.0023 116.509 57.9349 116.385 57.9169 116.25C57.8337 115.209 56.0848 90.5995 67.9418 86.6125C74.3856 84.4472 102.17 88.9027 107.177 94.878C107.604 95.2951 107.882 95.8402 107.971 96.4302C108.059 97.0203 107.952 97.623 107.666 98.1468C104.169 104.497 85.9303 102.051 81.9224 101.426C82.7553 105.684 86.0865 126.212 76.249 136.82C76.1611 136.883 76.0552 136.916 75.9471 136.914Z" fill="#3D3939"/>
<path d="M44.0029 172.654C45.3781 169.312 48.9412 167.426 52.4785 168.168L99.8125 178.098C103.795 178.933 106.386 182.793 105.649 186.795L104.824 191.282C104.164 194.873 101.014 197.466 97.3633 197.425L45.1641 196.842C39.8629 196.783 36.2946 191.391 38.3115 186.488L44.0029 172.654Z" fill="#003BE0" stroke="#3D3939"/>
<path d="M144.274 43.3763V44.413C144.274 49.4384 144.226 54.4637 144.274 59.489C144.393 69.3245 141.314 78.1056 135.572 85.9907C131.648 91.4192 126.372 95.7262 120.268 98.4837C120.073 98.5875 119.856 98.6418 119.635 98.6418C119.415 98.6418 119.197 98.5875 119.003 98.4837C109.339 93.9899 102.727 86.5969 98.5191 76.9284C96.1116 71.459 94.9129 65.5344 95.0049 59.5593C95.0752 54.512 95.0049 49.4559 95.0049 44.4042V43.3148C96.3843 43.3148 97.6713 43.3148 98.9584 43.3148C103.18 43.2533 107.379 43.0381 111.5 41.997C114.187 41.3466 116.746 40.2476 119.069 38.7463C119.227 38.6137 119.427 38.541 119.633 38.541C119.839 38.541 120.039 38.6137 120.197 38.7463C123.729 41.0289 127.77 42.4008 131.961 42.7394C135.752 43.0776 139.57 43.1787 143.383 43.3544C143.664 43.3851 143.927 43.3763 144.274 43.3763Z" fill="white"/>
<path d="M119.653 98.8403C119.399 98.8335 119.151 98.7721 118.923 98.6602C109.646 94.3509 102.718 87.0632 98.3433 77.0082C95.9364 71.5092 94.738 65.5576 94.829 59.5557C94.8774 56.0415 94.8686 52.4965 94.8554 49.0526C94.8554 47.5019 94.8554 45.9513 94.8554 44.4006V43.3156C94.8565 43.2624 94.8782 43.2116 94.9158 43.174C94.9535 43.1363 95.0042 43.1147 95.0575 43.1135H96.3489C97.2539 43.1135 98.1324 43.1135 98.9846 43.1135C103.004 43.0564 107.296 42.8588 111.478 41.7957C114.144 41.1532 116.683 40.063 118.985 38.5714C119.176 38.4177 119.414 38.334 119.659 38.334C119.904 38.334 120.142 38.4177 120.334 38.5714C123.837 40.8351 127.847 42.1936 132.005 42.5249C134.641 42.7621 137.356 42.8763 139.969 42.9642C141.116 43.0125 142.267 43.0608 143.413 43.1223C143.58 43.1223 143.751 43.1223 143.945 43.1223H144.274C144.328 43.1223 144.379 43.1436 144.417 43.1815C144.455 43.2194 144.476 43.2708 144.476 43.3244V44.4138C144.476 45.9776 144.476 47.5458 144.476 49.1097C144.476 52.5097 144.454 56.0283 144.476 59.4898C144.59 69.0353 141.652 77.9922 135.739 86.11C131.792 91.5611 126.493 95.8896 120.364 98.669C120.142 98.7776 119.9 98.8361 119.653 98.8403ZM95.2376 43.5177V44.3962C95.2376 45.9483 95.2376 47.499 95.2376 49.0482C95.2376 52.4921 95.2639 56.0546 95.2112 59.5557C95.1327 65.5026 96.3311 71.3971 98.7254 76.8413C103.061 86.8041 109.918 94.0214 119.108 98.2912C119.276 98.3831 119.465 98.4312 119.657 98.4312C119.849 98.4312 120.038 98.3831 120.206 98.2912C126.277 95.5429 131.525 91.2578 135.431 85.8596C141.291 77.8121 144.217 68.9387 144.094 59.481C144.054 56.0195 144.063 52.4965 144.094 49.0965C144.094 47.5268 144.094 45.9615 144.094 44.4006V43.5792H143.967C143.765 43.5792 143.584 43.5792 143.409 43.5792C142.262 43.5221 141.116 43.4737 139.969 43.4254C137.334 43.3112 134.641 43.197 131.988 42.9598C127.762 42.6201 123.687 41.2376 120.127 38.936C120.002 38.8248 119.84 38.7635 119.672 38.7635C119.505 38.7635 119.343 38.8248 119.218 38.936C116.877 40.4504 114.297 41.5583 111.587 42.213C107.353 43.2497 103.03 43.4474 99.0066 43.5133C98.128 43.5133 97.2495 43.5133 96.3446 43.5133L95.2376 43.5177Z" fill="#A0A0A0"/>
<path d="M119.653 95.9221C119.624 95.9287 119.594 95.9287 119.565 95.9221C111.065 91.8281 104.951 85.2828 100.878 75.9174C98.6239 70.7809 97.4975 65.2205 97.575 59.6115C97.6278 56.0753 97.6146 52.5084 97.6014 49.0688V46.1125C97.6036 46.0596 97.6255 46.0094 97.663 45.972C97.7004 45.9345 97.7506 45.9126 97.8035 45.9104H99.0246C103.211 45.8489 107.696 45.638 112.146 44.5267C114.748 43.8934 117.243 42.8826 119.552 41.5264C119.583 41.5091 119.618 41.5 119.653 41.5C119.689 41.5 119.723 41.5091 119.754 41.5264C123.414 43.69 127.518 44.9952 131.755 45.3437C134.47 45.5897 137.211 45.7039 139.86 45.8182L141.516 45.8884C141.568 45.8896 141.617 45.9109 141.653 45.9479C141.689 45.9848 141.709 46.0344 141.709 46.0861V49.1918C141.709 52.583 141.687 56.0929 141.731 59.5544C141.837 68.6167 139.153 76.7828 133.521 84.5141C129.968 89.4201 125.232 93.3488 119.754 95.9353C119.72 95.9403 119.685 95.9357 119.653 95.9221ZM97.9967 46.2838V49.0381C97.9967 52.4908 97.9967 56.0665 97.9704 59.5807C97.8911 65.1334 99.0041 70.6384 101.234 75.7242C105.258 84.949 111.28 91.4283 119.644 95.4917C125.024 92.9305 129.675 89.0592 133.17 84.233C138.749 76.5764 141.411 68.4893 141.301 59.5148C141.261 56.0533 141.27 52.5391 141.301 49.1435V46.2443L139.86 46.1828C137.224 46.0685 134.461 45.9543 131.738 45.7083C127.475 45.3599 123.345 44.0583 119.653 41.8998C117.339 43.2419 114.845 44.2462 112.247 44.8825C107.753 46.0026 103.237 46.2003 99.029 46.275C98.6908 46.2838 98.3482 46.2838 98.0055 46.2838H97.9967Z" fill="#003BE0"/>
<path d="M116.938 78.2501C116.559 78.2509 116.184 78.1733 115.836 78.0221C115.488 77.8709 115.175 77.6494 114.917 77.3716L106.571 68.217C106.086 67.6737 105.834 66.9609 105.871 66.2333C105.908 65.5056 106.23 64.8218 106.768 64.3302C107.305 63.8387 108.015 63.5791 108.743 63.6077C109.471 63.6363 110.159 63.9509 110.656 64.4832L117.013 71.4413L132.524 54.9948C133.029 54.4705 133.721 54.1667 134.449 54.1492C135.178 54.1318 135.883 54.4022 136.413 54.9017C136.944 55.4012 137.255 56.0895 137.281 56.8175C137.307 57.5454 137.045 58.2542 136.552 58.7901L118.981 77.4067C118.717 77.6805 118.399 77.8967 118.047 78.0419C117.696 78.187 117.318 78.2579 116.938 78.2501Z" fill="#003BE0"/>
<path d="M108.253 38.7856C108.187 38.7862 108.123 38.77 108.065 38.7385C108.008 38.707 107.959 38.6613 107.924 38.6058L97.4381 22.1843C97.3885 22.0974 97.3741 21.9947 97.398 21.8975C97.4218 21.8002 97.4821 21.7158 97.5663 21.6617C97.6505 21.6076 97.7523 21.5878 97.8506 21.6065C97.949 21.6251 98.0364 21.6808 98.0949 21.7621L108.581 38.1835C108.637 38.2706 108.656 38.3764 108.634 38.4775C108.612 38.5787 108.551 38.667 108.464 38.723C108.402 38.766 108.328 38.7879 108.253 38.7856Z" fill="white"/>
<path d="M124.865 37.6105C124.831 37.6108 124.797 37.6028 124.767 37.5872C124.737 37.5717 124.711 37.5491 124.693 37.5216L119.626 29.0762C119.601 29.0332 119.593 28.9825 119.605 28.9344C119.618 28.8864 119.649 28.8447 119.693 28.8179C119.737 28.7912 119.791 28.7814 119.842 28.7906C119.893 28.7998 119.939 28.8274 119.97 28.8675L125.036 37.3129C125.065 37.356 125.075 37.4082 125.064 37.4582C125.052 37.5082 125.02 37.5518 124.975 37.5796C124.943 37.6008 124.904 37.6116 124.865 37.6105Z" fill="white"/>
<path d="M145.772 91.1827C145.738 91.1831 145.704 91.175 145.674 91.1595C145.644 91.1439 145.619 91.1213 145.6 91.0939L140.534 82.6485C140.508 82.6055 140.5 82.5547 140.513 82.5067C140.525 82.4586 140.557 82.4169 140.601 82.3902C140.645 82.3634 140.698 82.3537 140.749 82.3629C140.801 82.3721 140.846 82.3996 140.877 82.4398L145.944 90.8852C145.973 90.9282 145.983 90.9805 145.971 91.0305C145.96 91.0805 145.928 91.1241 145.882 91.1518C145.85 91.173 145.811 91.1839 145.772 91.1827Z" fill="white"/>
</g>
<defs>
<clipPath id="clip0_6496_146580">
<rect width="196" height="196" fill="white" transform="translate(2 2)"/>
</clipPath>
</defs>
</svg>
