<svg width="300" height="300" viewBox="0 0 300 300" fill="none" xmlns="http://www.w3.org/2000/svg">
<path d="M55.4251 296.08C55.4251 296.08 78.5449 236.567 82.3371 223.183C86.1294 209.799 86.464 177.278 86.448 176.705C86.6087 171.141 87.141 165.594 88.0414 160.102C89.2163 155.4 90.696 150.78 92.471 146.271C95.9133 137.021 101.48 128.709 108.723 122.004C120.69 111.488 136.862 107.536 152.047 102.692C176.792 94.8212 199.083 83.2374 222.442 72.1794C228.513 69.3113 234.934 66.4592 241.563 66.8416C245.18 67.0487 249.067 68.435 250.788 71.6217C252.509 74.8085 251.585 78.76 249.832 81.899C246.805 87.3005 241.626 91.0927 237.085 95.2992C233.038 99.0596 224.753 108.285 229.214 114.308C232.783 119.088 241.961 112.141 246.932 116.858C249.529 119.343 249.354 123.725 247.617 126.864C245.881 130.003 242.933 132.281 240.208 134.64C232.99 140.886 226.824 148.741 221.088 156.277C215.352 163.814 217.582 157.871 218.044 166.714C218.602 177.549 220.116 190.471 217.057 201.083C212.149 218.021 183.389 238.973 170.849 249.665C158.309 260.356 147.888 296.032 147.888 296.032L55.4251 296.08Z" fill="#C6C6C6"/>
<path d="M148.096 296.877H55.4252C55.2936 296.877 55.1639 296.845 55.0474 296.784C54.9308 296.723 54.8308 296.634 54.756 296.526C54.6846 296.419 54.6401 296.297 54.6262 296.169C54.6124 296.042 54.6295 295.913 54.6763 295.793C54.8994 295.204 77.8439 236.169 81.5724 222.976C85.3009 209.783 85.6514 177.039 85.6514 176.768C85.8391 171.134 86.4034 165.518 87.3404 159.958C88.5206 155.223 90.0109 150.571 91.8018 146.032C95.2785 136.657 100.918 128.233 108.261 121.446C118.794 112.205 132.56 107.951 145.881 103.919L151.872 102.055C172.235 95.5702 190.575 86.7429 209.982 77.4057C214.013 75.4618 218.076 73.502 222.155 71.574C228.656 68.4988 235.03 65.79 241.738 66.1565C246.295 66.4115 249.976 68.3713 251.617 71.3828C253.927 75.6849 251.712 80.5447 250.645 82.4248C248.223 86.7747 244.431 90.1049 240.782 93.3235C239.762 94.2158 238.742 95.1081 237.755 96.0322C235.667 97.9602 225.486 107.919 229.979 113.974C231.461 115.965 234.249 115.567 237.484 114.977C240.718 114.388 244.829 113.782 247.602 116.427C250.374 119.072 250.278 124.091 248.446 127.39C246.713 130.127 244.5 132.529 241.913 134.48L240.862 135.388C233.707 141.571 227.557 149.41 221.853 156.899C220.839 158.266 219.748 159.575 218.586 160.819C218.412 160.995 218.247 161.182 218.092 161.376C218.092 161.376 218.172 161.504 218.204 161.647C218.692 163.326 218.955 165.062 218.985 166.81C219.064 168.483 219.176 170.22 219.287 171.972C219.893 181.532 220.594 192.351 217.965 201.45C213.79 215.79 192.758 233.03 178.848 244.391C176.155 246.59 173.621 248.661 171.566 250.414C159.409 260.85 148.972 296.048 148.86 296.399C148.796 296.546 148.689 296.671 148.552 296.756C148.416 296.842 148.256 296.884 148.096 296.877ZM56.5883 295.283H147.522C148.972 290.503 158.755 259.225 170.546 249.075C172.602 247.323 175.151 245.235 177.86 243.037C191.626 231.787 212.42 214.786 216.451 200.876C219.001 192.049 218.315 181.373 217.71 171.94C217.598 170.172 217.487 168.451 217.407 166.778C217.383 165.16 217.142 163.552 216.69 161.998C216.356 160.851 216.579 160.564 217.439 159.64C218.569 158.434 219.633 157.168 220.626 155.847C226.362 148.279 232.592 140.376 239.858 134.082L240.909 133.174C243.347 131.347 245.436 129.096 247.076 126.529C248.669 123.757 248.924 119.758 246.534 117.479C244.144 115.2 240.989 115.886 237.77 116.459C234.552 117.033 230.792 117.606 228.736 114.866C223.574 107.903 233.516 97.7371 236.703 94.7894C237.707 93.8652 238.727 92.9729 239.762 92.0647C243.315 88.878 246.996 85.6912 249.322 81.5963C251.266 78.1227 251.617 74.5695 250.278 72.0361C248.94 69.5026 245.705 67.8614 241.722 67.6384C235.349 67.2719 229.198 69.9169 222.904 72.8965L210.731 78.7282C191.276 88.0972 172.888 96.9404 152.414 103.457C150.422 104.095 148.414 104.716 146.407 105.322C133.182 109.401 119.59 113.591 109.281 122.626C102.135 129.223 96.6431 137.411 93.2518 146.526C91.4867 150.998 90.0176 155.581 88.8541 160.245C87.9656 165.664 87.4333 171.136 87.2607 176.625C87.2607 176.928 86.9739 209.751 83.118 223.343C79.6285 235.675 59.7432 287.125 56.5883 295.283Z" fill="#2B2B2B"/>
<path d="M228.529 0.796631H129.836C125.964 0.796631 122.825 3.93549 122.825 7.80746V207.616C122.825 211.488 125.964 214.627 129.836 214.627H228.529C232.401 214.627 235.54 211.488 235.54 207.616V7.80746C235.54 3.93549 232.401 0.796631 228.529 0.796631Z" fill="#525252"/>
<path d="M228.529 215.44H129.836C127.766 215.435 125.783 214.612 124.319 213.148C122.856 211.685 122.032 209.702 122.028 207.632V7.80752C122.032 5.73813 122.856 3.7547 124.319 2.29142C125.783 0.828137 127.766 0.00421037 129.836 0H228.529C230.598 0.00421037 232.582 0.828137 234.045 2.29142C235.508 3.7547 236.332 5.73813 236.336 7.80752V207.632C236.332 209.702 235.508 211.685 234.045 213.148C232.582 214.612 230.598 215.435 228.529 215.44ZM129.836 1.59337C128.189 1.59758 126.611 2.25363 125.446 3.4181C124.282 4.58256 123.626 6.16072 123.621 7.80752V207.632C123.626 209.279 124.282 210.857 125.446 212.022C126.611 213.186 128.189 213.842 129.836 213.846H228.529C230.176 213.842 231.754 213.186 232.918 212.022C234.083 210.857 234.739 209.279 234.743 207.632V7.80752C234.739 6.16072 234.083 4.58256 232.918 3.4181C231.754 2.25363 230.176 1.59758 228.529 1.59337H129.836Z" fill="#2B2B2B"/>
<path d="M229.851 20.1404H128.975V184.704H229.851V20.1404Z" fill="#255DF9"/>
<path d="M190.049 208.843H170.642C169.291 208.839 167.996 208.3 167.041 207.345C166.086 206.39 165.547 205.095 165.543 203.744V196.972C165.543 195.619 166.08 194.32 167.035 193.361C167.991 192.403 169.288 191.862 170.642 191.858H190.049C191.403 191.862 192.699 192.403 193.655 193.361C194.611 194.32 195.148 195.619 195.148 196.972V203.744C195.148 205.097 194.61 206.393 193.654 207.35C192.698 208.306 191.401 208.843 190.049 208.843ZM170.642 193.451C169.71 193.455 168.819 193.828 168.162 194.488C167.505 195.148 167.136 196.041 167.136 196.972V203.744C167.14 204.673 167.511 205.562 168.168 206.218C168.824 206.875 169.713 207.245 170.642 207.25H190.049C190.977 207.245 191.866 206.875 192.523 206.218C193.179 205.562 193.55 204.673 193.554 203.744V196.972C193.554 196.041 193.186 195.148 192.529 194.488C191.872 193.828 190.98 193.455 190.049 193.451H170.642Z" fill="#737373"/>
<path d="M187.579 11.2652H158.899C158.687 11.2652 158.485 11.1813 158.335 11.0319C158.186 10.8825 158.102 10.6799 158.102 10.4686C158.102 10.2573 158.186 10.0546 158.335 9.90522C158.485 9.75581 158.687 9.67188 158.899 9.67188H187.579C187.791 9.67188 187.993 9.75581 188.143 9.90522C188.292 10.0546 188.376 10.2573 188.376 10.4686C188.376 10.6799 188.292 10.8825 188.143 11.0319C187.993 11.1813 187.791 11.2652 187.579 11.2652Z" fill="#737373"/>
<path d="M195.466 10.8669H191.61C191.4 10.8629 191.2 10.7776 191.052 10.6291C190.903 10.4805 190.818 10.2803 190.814 10.0702C190.814 9.85895 190.898 9.65631 191.047 9.5069C191.196 9.3575 191.399 9.27356 191.61 9.27356H195.466C195.678 9.27356 195.88 9.3575 196.03 9.5069C196.179 9.65631 196.263 9.85895 196.263 10.0702C196.263 10.2815 196.179 10.4842 196.03 10.6336C195.88 10.783 195.678 10.8669 195.466 10.8669Z" fill="#737373"/>
<path d="M223.334 115.376C222.937 117.223 222.992 119.139 223.496 120.96C223.999 122.781 224.936 124.454 226.226 125.834C227.516 127.215 229.121 128.263 230.903 128.889C232.686 129.515 234.594 129.7 236.464 129.429C238.612 129.102 240.644 128.242 242.375 126.928C243.974 125.769 245.302 124.277 246.267 122.555C247.233 120.833 247.813 118.922 247.968 116.953C248.334 110.58 242.917 104.923 236.591 104.206C230.696 103.41 224.498 110.054 223.334 115.376Z" fill="#C6C6C6"/>
<path d="M234.838 130.338C232.967 130.349 231.117 129.94 229.425 129.14C227.733 128.341 226.242 127.171 225.063 125.718C223.883 124.265 223.046 122.565 222.611 120.745C222.177 118.924 222.157 117.03 222.554 115.201C223.86 109.21 230.441 102.565 236.687 103.346C240.038 103.711 243.134 105.312 245.367 107.837C247.601 110.363 248.812 113.63 248.765 117.001C248.6 119.084 247.986 121.107 246.965 122.93C245.945 124.754 244.542 126.335 242.853 127.565C241.012 128.956 238.855 129.871 236.575 130.226C236 130.303 235.419 130.341 234.838 130.338ZM224.115 115.535C223.746 117.258 223.798 119.044 224.267 120.741C224.736 122.439 225.609 123.998 226.811 125.286C228.013 126.574 229.508 127.552 231.169 128.138C232.83 128.723 234.609 128.898 236.352 128.649C238.366 128.329 240.27 127.52 241.897 126.291C243.402 125.2 244.653 123.797 245.564 122.177C246.474 120.556 247.023 118.758 247.171 116.906C247.506 111.169 242.614 105.752 236.496 104.939C231.206 104.286 225.262 110.229 224.115 115.535Z" fill="#2B2B2B"/>
<path d="M221.088 147.706C220.32 148.796 219.809 150.047 219.594 151.363C219.378 152.679 219.464 154.027 219.845 155.306C220.468 156.8 221.428 158.131 222.649 159.194C225.836 162.237 230.265 164.388 234.631 163.735C237.311 163.181 239.832 162.032 242.009 160.373C245.88 157.712 249.593 154.318 250.884 149.809C252.748 143.276 248 133.732 240.336 134.688C234.058 135.548 224.434 142.511 221.088 147.706Z" fill="#C6C6C6"/>
<path d="M233.038 164.643C228.903 164.465 224.99 162.722 222.092 159.767C220.78 158.623 219.754 157.188 219.096 155.576C218.669 154.183 218.567 152.711 218.796 151.273C219.025 149.834 219.58 148.466 220.419 147.275C223.86 141.937 233.691 134.719 240.24 133.891C241.826 133.707 243.432 133.932 244.907 134.542C246.382 135.153 247.677 136.13 248.669 137.38C250.114 139.113 251.135 141.158 251.652 143.354C252.169 145.55 252.168 147.836 251.649 150.031C250.517 153.999 247.601 157.488 242.455 161.026C240.185 162.754 237.554 163.947 234.759 164.515C234.19 164.605 233.614 164.648 233.038 164.643ZM221.741 148.151C221.04 149.136 220.572 150.268 220.374 151.461C220.175 152.653 220.25 153.875 220.594 155.035C221.174 156.413 222.062 157.639 223.191 158.62C224.634 160.144 226.402 161.324 228.363 162.071C230.324 162.819 232.428 163.115 234.52 162.938C237.075 162.413 239.481 161.324 241.563 159.751C246.343 156.437 249.099 153.218 250.119 149.633C250.577 147.695 250.576 145.677 250.113 143.74C249.651 141.803 248.742 140.002 247.458 138.48C246.639 137.431 245.564 136.61 244.336 136.097C243.108 135.583 241.769 135.394 240.447 135.548C234.392 136.297 224.944 143.26 221.741 148.215V148.151Z" fill="#2B2B2B"/>
<path d="M224.976 168.706C223.481 169.723 222.234 171.062 221.327 172.625C220.428 174.44 220.063 176.473 220.275 178.487C220.486 180.501 221.266 182.414 222.522 184.002C223.805 185.564 225.388 186.852 227.178 187.791C228.968 188.73 230.928 189.3 232.942 189.467C235.316 189.758 237.724 189.544 240.009 188.838C242.294 188.132 244.403 186.951 246.199 185.372C247.97 183.761 249.291 181.716 250.032 179.439C250.772 177.162 250.907 174.731 250.422 172.386C247.49 160.102 232.624 163.129 224.976 168.706Z" fill="#C6C6C6"/>
<path d="M234.886 190.376C234.21 190.379 233.535 190.341 232.863 190.264C230.739 190.084 228.673 189.479 226.787 188.485C224.902 187.492 223.235 186.13 221.884 184.48C220.526 182.775 219.685 180.716 219.461 178.546C219.238 176.377 219.642 174.19 220.626 172.243C221.597 170.577 222.925 169.146 224.514 168.053C229.692 164.277 238.137 161.679 244.224 163.894C246.004 164.563 247.582 165.68 248.804 167.137C250.027 168.594 250.853 170.342 251.203 172.211C251.727 174.694 251.591 177.27 250.808 179.683C250.025 182.095 248.623 184.261 246.741 185.962C243.471 188.849 239.248 190.421 234.886 190.376ZM239.157 164.643C234.21 164.838 229.434 166.503 225.438 169.423C224.047 170.386 222.879 171.636 222.012 173.088C221.197 174.768 220.871 176.644 221.071 178.5C221.271 180.357 221.989 182.12 223.143 183.588C224.362 185.069 225.866 186.291 227.566 187.18C229.265 188.07 231.126 188.609 233.038 188.767C235.3 189.036 237.593 188.828 239.77 188.155C241.946 187.483 243.958 186.361 245.674 184.863C247.332 183.344 248.568 181.421 249.264 179.282C249.959 177.144 250.089 174.861 249.641 172.658C249.363 171.043 248.666 169.53 247.62 168.269C246.575 167.009 245.217 166.044 243.682 165.472C242.236 164.925 240.703 164.645 239.157 164.643Z" fill="#2B2B2B"/>
<path d="M86.4958 174.777C86.4958 174.777 83.5321 136.201 101.298 130.162C113.137 126.179 166.818 136.345 161.145 146.67C155.473 156.995 121.422 151.099 121.422 151.099C121.422 151.099 129.66 188.129 113.185 205.656" fill="#C6C6C6"/>
<path d="M113.185 206.501C112.984 206.506 112.789 206.431 112.643 206.294C112.568 206.22 112.509 206.132 112.469 206.034C112.428 205.937 112.407 205.833 112.407 205.728C112.407 205.623 112.428 205.519 112.469 205.422C112.509 205.325 112.568 205.237 112.643 205.162C128.577 188.066 120.769 151.721 120.61 151.354C120.579 151.227 120.581 151.094 120.618 150.968C120.654 150.842 120.723 150.728 120.817 150.637C120.905 150.543 121.015 150.471 121.137 150.429C121.26 150.388 121.391 150.377 121.518 150.398C121.869 150.398 155.075 156.071 160.412 146.367C160.686 145.848 160.778 145.252 160.674 144.675C160.57 144.097 160.276 143.571 159.839 143.18C153.099 135.118 111.735 127.597 101.521 131.023C84.536 136.727 87.181 174.363 87.181 174.745C87.1897 174.85 87.1777 174.955 87.1455 175.055C87.1133 175.155 87.0617 175.248 86.9936 175.328C86.9254 175.408 86.8422 175.473 86.7486 175.521C86.6549 175.569 86.5528 175.597 86.4481 175.605C86.2394 175.611 86.0361 175.539 85.8772 175.404C85.7183 175.269 85.6152 175.079 85.5877 174.872C85.4602 173.279 82.7833 135.612 100.932 129.509C110.795 126.195 153.322 133.015 160.986 142.161C161.639 142.799 162.065 143.633 162.201 144.536C162.336 145.44 162.172 146.362 161.735 147.164C156.381 156.883 128.465 153.139 122.331 152.183C123.605 158.7 128.704 190.121 113.647 206.357C113.512 206.454 113.35 206.504 113.185 206.501Z" fill="#2B2B2B"/>
<path d="M65.3867 257.84C66.7618 254.497 70.3251 252.611 73.8623 253.353L153.819 270.127C157.802 270.962 160.392 274.822 159.656 278.824L156.997 293.282C156.337 296.872 153.187 299.465 149.537 299.425L59.8037 298.421C54.5026 298.361 50.9342 292.971 52.9512 288.068L65.3867 257.84Z" fill="#255DF9" stroke="#2B2B2B"/>
<path d="M217.767 63.3309V64.9177C217.767 72.6095 217.693 80.3014 217.767 87.9932C217.948 103.047 213.235 116.488 204.447 128.557C198.441 136.866 190.365 143.458 181.022 147.679C180.724 147.838 180.392 147.921 180.054 147.921C179.716 147.921 179.384 147.838 179.086 147.679C164.294 140.801 154.175 129.485 147.733 114.686C144.048 106.315 142.214 97.2464 142.355 88.1008C142.462 80.3753 142.355 72.6364 142.355 64.9043V63.2368C144.466 63.2368 146.436 63.2368 148.406 63.2368C154.867 63.1427 161.295 62.8132 167.602 61.2197C171.716 60.2241 175.632 58.5421 179.187 56.2442C179.429 56.0412 179.735 55.9299 180.051 55.9299C180.367 55.9299 180.673 56.0412 180.915 56.2442C186.319 59.738 192.506 61.8378 198.921 62.356C204.723 62.8737 210.566 63.0284 216.402 63.2973C216.832 63.3444 217.236 63.3309 217.767 63.3309Z" fill="#3D3939"/>
<path d="M180.081 148.223C179.693 148.213 179.313 148.119 178.965 147.948C164.764 141.352 154.161 130.197 147.465 114.807C143.78 106.39 141.946 97.2807 142.086 88.094C142.16 82.7151 142.146 77.2891 142.126 72.0178C142.126 69.6444 142.126 67.2709 142.126 64.8975V63.2367C142.128 63.1552 142.161 63.0776 142.218 63.0199C142.276 62.9623 142.354 62.9292 142.435 62.9275H144.412C145.797 62.9275 147.142 62.9275 148.446 62.9275C154.598 62.84 161.167 62.5375 167.568 60.9104C171.65 59.927 175.535 58.2582 179.059 55.9752C179.351 55.74 179.716 55.6118 180.091 55.6118C180.466 55.6118 180.83 55.74 181.123 55.9752C186.485 59.4401 192.624 61.5194 198.988 62.0265C203.022 62.3896 207.177 62.5644 211.178 62.6989C212.933 62.7728 214.694 62.8468 216.449 62.9409C216.705 62.9409 216.967 62.9409 217.263 62.9409H217.767C217.849 62.9409 217.928 62.9735 217.986 63.0315C218.044 63.0895 218.076 63.1682 218.076 63.2502V64.9176C218.076 67.3113 218.076 69.7116 218.076 72.1052C218.076 77.3093 218.043 82.6949 218.076 87.9932C218.251 102.604 213.753 116.313 204.703 128.738C198.662 137.082 190.551 143.707 181.17 147.961C180.831 148.128 180.459 148.217 180.081 148.223ZM142.711 63.546V64.8908C142.711 67.2664 142.711 69.6399 142.711 72.0111C142.711 77.2824 142.751 82.7353 142.671 88.094C142.55 97.1964 144.385 106.219 148.05 114.552C154.686 129.801 165.181 140.848 179.247 147.383C179.505 147.524 179.794 147.597 180.088 147.597C180.381 147.597 180.67 147.524 180.928 147.383C190.22 143.176 198.252 136.618 204.232 128.355C213.202 116.037 217.679 102.456 217.491 87.9797C217.431 82.6815 217.444 77.2891 217.491 72.085C217.491 69.6825 217.491 67.2866 217.491 64.8975V63.6402H217.296C216.987 63.6402 216.711 63.6402 216.442 63.6402C214.687 63.5528 212.933 63.4788 211.178 63.4048C207.144 63.23 203.022 63.0552 198.961 62.6921C192.493 62.1722 186.256 60.0561 180.807 56.5333C180.615 56.3631 180.368 56.2692 180.111 56.2692C179.855 56.2692 179.607 56.3631 179.415 56.5333C175.833 58.8512 171.884 60.547 167.736 61.5491C161.255 63.1359 154.639 63.4385 148.48 63.5393C147.135 63.5393 145.79 63.5393 144.405 63.5393L142.711 63.546Z" fill="#B3B3B3"/>
<path d="M180.081 143.76C180.037 143.77 179.991 143.77 179.946 143.76C166.936 137.493 157.577 127.475 151.344 113.14C147.893 105.278 146.169 96.7672 146.288 88.182C146.369 82.7694 146.348 77.3098 146.328 72.0452V67.5202C146.331 67.4393 146.365 67.3625 146.422 67.3052C146.48 67.2479 146.556 67.2142 146.637 67.2109H148.507C154.914 67.1168 161.779 66.7941 168.59 65.093C172.573 64.1237 176.392 62.5766 179.926 60.5007C179.973 60.4742 180.027 60.4603 180.081 60.4603C180.135 60.4603 180.188 60.4742 180.235 60.5007C185.838 63.8123 192.118 65.8101 198.604 66.3436C202.76 66.7201 206.955 66.8949 211.01 67.0697L213.544 67.1773C213.623 67.1791 213.699 67.2117 213.754 67.2683C213.809 67.3248 213.84 67.4008 213.84 67.4799V72.2335C213.84 77.4241 213.807 82.7963 213.874 88.0945C214.035 101.965 209.927 114.465 201.307 126.298C195.868 133.807 188.62 139.821 180.235 143.78C180.183 143.787 180.13 143.78 180.081 143.76ZM146.933 67.7824V71.9982C146.933 77.2829 146.933 82.756 146.893 88.1349C146.772 96.6339 148.475 105.06 151.889 112.844C158.047 126.964 167.266 136.881 180.067 143.101C188.302 139.18 195.421 133.255 200.769 125.868C209.308 114.149 213.383 101.77 213.215 88.034C213.154 82.7358 213.168 77.3569 213.215 72.1595V67.7219L211.01 67.6278C206.975 67.453 202.746 67.2782 198.578 66.9017C192.053 66.3683 185.732 64.3761 180.081 61.0723C176.539 63.1264 172.722 64.6638 168.745 65.6376C161.867 67.3521 154.955 67.6547 148.513 67.769C147.996 67.7824 147.471 67.7824 146.947 67.7824H146.933Z" fill="#255DF9"/>
<path d="M175.926 116.71C175.345 116.711 174.771 116.592 174.239 116.361C173.706 116.129 173.228 115.79 172.833 115.365L160.058 101.353C159.315 100.521 158.93 99.4303 158.986 98.3165C159.042 97.2027 159.536 96.1561 160.359 95.4037C161.182 94.6514 162.269 94.254 163.383 94.2978C164.497 94.3416 165.549 94.8231 166.311 95.6378L176.04 106.288L199.781 81.1147C200.555 80.3122 201.614 79.8472 202.729 79.8206C203.843 79.7939 204.923 80.2077 205.735 80.9722C206.546 81.7368 207.024 82.7904 207.063 83.9046C207.103 85.0188 206.702 86.1037 205.947 86.924L179.052 115.419C178.648 115.838 178.162 116.169 177.624 116.391C177.086 116.613 176.508 116.722 175.926 116.71Z" fill="#255DF9"/>
<path d="M162.632 56.3051C162.531 56.3061 162.432 56.2812 162.344 56.233C162.256 56.1848 162.182 56.1149 162.129 56.0298L146.079 30.895C146.003 30.7619 145.981 30.6047 146.017 30.4559C146.054 30.3071 146.146 30.1779 146.275 30.0951C146.404 30.0122 146.56 29.9819 146.71 30.0105C146.861 30.0391 146.994 30.1243 147.084 30.2487L163.134 55.3835C163.22 55.5169 163.249 55.6787 163.215 55.8335C163.182 55.9883 163.088 56.1235 162.955 56.2093C162.86 56.275 162.747 56.3086 162.632 56.3051Z" fill="#525252"/>
<path d="M188.059 54.5052C188.006 54.5056 187.955 54.4934 187.909 54.4696C187.863 54.4457 187.824 54.4111 187.796 54.3691L180.041 41.4425C180.001 41.3767 179.99 41.299 180.009 41.2255C180.028 41.1519 180.076 41.0881 180.144 41.0472C180.211 41.0062 180.292 40.9912 180.371 41.0054C180.45 41.0195 180.519 41.0616 180.566 41.1231L188.322 54.0497C188.366 54.1156 188.381 54.1956 188.364 54.2721C188.346 54.3486 188.297 54.4154 188.228 54.4578C188.178 54.4903 188.119 54.5069 188.059 54.5052Z" fill="#525252"/>
<path d="M220.059 136.505C220.006 136.506 219.955 136.493 219.909 136.47C219.863 136.446 219.824 136.411 219.796 136.369L212.041 123.442C212.001 123.377 211.99 123.299 212.009 123.225C212.028 123.152 212.076 123.088 212.144 123.047C212.211 123.006 212.292 122.991 212.371 123.005C212.45 123.019 212.519 123.062 212.566 123.123L220.322 136.05C220.366 136.116 220.381 136.196 220.364 136.272C220.346 136.349 220.297 136.415 220.228 136.458C220.178 136.49 220.119 136.507 220.059 136.505Z" fill="#525252"/>
</svg>
