<svg width="300" height="300" viewBox="0 0 300 300" fill="none" xmlns="http://www.w3.org/2000/svg">
<g clip-path="url(#clip0_8307_1522)">

<circle cx="189.5" cy="69.5" r="12.5" fill="#99B4FF"/>
<circle cx="111.5" cy="138.5" r="12.5" fill="#99B4FF"/>
<path d="M90.0881 85.8308L91.5041 86.1455C91.5041 86.1455 91.3468 86.9321 91.1265 87.6873C90.9377 88.4425 90.686 89.2292 90.686 89.2292L89.3015 88.7572C89.3015 88.7572 89.5217 88.0649 89.7105 87.3097C89.8993 86.586 90.0566 85.8308 90.0566 85.8308H90.0881Z" fill="#99B4FF"/>
<path d="M90.7803 81.3313L92.2277 81.4572C92.2277 81.4572 92.1333 82.2438 92.0389 83.0305C91.9445 83.8171 91.7872 84.6038 91.7872 84.6038L90.3712 84.3521C90.3712 84.3521 90.5285 83.5969 90.6229 82.8417C90.7173 82.0865 90.7803 81.3313 90.7803 81.3313Z" fill="#99B4FF"/>
<path d="M90.8748 76.8002L92.3222 76.7058C92.3222 76.7058 92.3222 77.4925 92.3851 78.3106C92.3851 78.7197 92.3851 79.0972 92.3851 79.4119C92.3851 79.6951 92.3851 79.9154 92.3851 79.9154L90.9377 79.8524C90.9377 79.8524 90.9377 79.6636 90.9377 79.3804C90.9377 79.0972 90.9377 78.7197 90.9377 78.3421C90.9377 77.5869 90.8748 76.8317 90.8748 76.8317V76.8002Z" fill="#99B4FF"/>
<path d="M90.1196 72.3634L91.5356 71.9858C91.5356 71.9858 91.7244 72.7725 91.9132 73.5592C92.0705 74.3458 92.1335 75.1639 92.1335 75.1639L90.686 75.3527C90.686 75.3527 90.6231 74.5975 90.4658 73.8738C90.277 73.1501 90.1196 72.4264 90.1196 72.4264V72.3634Z" fill="#99B4FF"/>
<path d="M88.389 68.3038L89.6162 67.5486C89.6162 67.5486 90.0567 68.2408 90.4343 68.9646C90.749 69.7198 91.0322 70.4749 91.0322 70.4749L89.6791 70.9784C89.6791 70.9784 89.3959 70.2862 89.1127 69.5939C88.7666 68.9331 88.3575 68.3038 88.3575 68.3038H88.389Z" fill="#99B4FF"/>
<path d="M85.4939 65L86.4065 63.8672C86.4065 63.8672 87.0987 64.3077 87.6022 64.9685C88.1371 65.5664 88.7035 66.1957 88.7035 66.1957L87.5392 67.0768C87.5392 67.0768 85.5883 64.8426 85.4625 64.9685L85.4939 65Z" fill="#99B4FF"/>
<path d="M81.718 62.7344L82.2844 61.4128C82.2844 61.4128 83.0081 61.759 83.7633 62.1051C84.1094 62.2939 84.487 62.4512 84.7702 62.6086C85.0219 62.7974 85.1793 62.9232 85.1793 62.9232L84.3611 64.1189C84.3611 64.1189 84.2038 63.9931 83.9835 63.8358C83.7633 63.6784 83.3857 63.5526 83.071 63.3638C82.4102 63.0491 81.718 62.703 81.718 62.703V62.7344Z" fill="#99B4FF"/>
<path d="M77.3443 61.4131L77.7848 60.0286L80.8056 60.8782L80.3336 62.2312L77.3443 61.4131Z" fill="#99B4FF"/>
<path d="M72.7816 59.8714L73.5368 58.6128C73.5368 58.6128 74.1976 58.9589 74.9213 59.2421C75.6451 59.4309 76.3688 59.6512 76.3688 59.6512L75.8339 61.0042C75.8339 61.0042 75.0472 60.784 74.2605 60.5637C73.5053 60.2805 72.7816 59.9029 72.7816 59.9029V59.8714Z" fill="#99B4FF"/>
<path d="M68.691 57.3225L69.7294 56.2527C69.7294 56.2527 72.1523 58.0463 72.1838 57.9833L71.3342 59.1791L68.691 57.3225Z" fill="#99B4FF"/>
<path d="M65.7017 53.5777L66.9604 52.791C66.9604 52.791 67.3694 53.4203 67.747 54.0497C68.1246 54.679 68.754 55.1825 68.7225 55.1825L67.6212 56.1579C67.6212 56.1579 66.9918 55.623 66.5828 54.9307C66.1423 54.2385 65.7017 53.5462 65.7017 53.5462V53.5777Z" fill="#99B4FF"/>
<path d="M63.9711 49.1092L65.3557 48.6057C65.3557 48.6057 65.513 49.3294 65.7332 50.0532C66.0164 50.7454 66.2996 51.4377 66.2996 51.4377L65.0095 52.1299C65.0095 52.1299 64.6949 51.3747 64.3802 50.6196C64.1285 49.8329 63.9711 49.0462 63.9711 49.0462V49.1092Z" fill="#99B4FF"/>
<path d="M63.2788 44.3268L64.7262 44.1694L65.0409 47.1587L63.6249 47.5363C63.6249 47.5363 63.1844 44.3268 63.2788 44.3268Z" fill="#99B4FF"/>
<path d="M63.2789 39.5439L64.7263 39.6383C64.7263 39.6383 64.7263 40.3935 64.6634 41.1802C64.6319 41.9354 64.6634 42.6906 64.6634 42.6906H63.2159C63.2159 42.6906 63.2159 42.5332 63.2159 42.2186C63.2159 41.9039 63.2159 41.5263 63.2474 41.1172C63.2474 40.3306 63.3103 39.5125 63.3103 39.5125L63.2789 39.5439Z" fill="#99B4FF"/>
<path d="M63.7507 34.887L65.1981 35.0758C65.1981 35.0758 65.1038 35.831 65.0094 36.6176C64.9464 37.4043 64.8835 38.1595 64.8835 38.1595L63.436 38.0336C63.436 38.0336 63.499 37.2469 63.5934 36.4603C63.6878 35.6736 63.7822 34.887 63.7822 34.887H63.7507Z" fill="#99B4FF"/>
<path d="M64.369 30.293L63.9204 33.3757L65.3528 33.5842L65.8014 30.5015L64.369 30.293Z" fill="#99B4FF"/>
<path d="M64.9466 25.6982L66.394 25.7926C66.394 25.7926 66.3311 26.5793 66.2682 27.3974C66.1738 28.1841 66.0479 28.9707 66.0479 28.9707L64.6005 28.7819C64.6005 28.7819 64.6949 28.0268 64.7893 27.2401L64.9151 25.7297L64.9466 25.6982Z" fill="#99B4FF"/>
<path d="M64.0026 21.6076L65.2927 20.9468C65.2927 20.9468 65.3871 21.1356 65.513 21.4188C65.6703 21.702 65.7962 22.0796 65.922 22.4886C66.2052 23.2753 66.2996 24.1249 66.2996 24.1249L64.8522 24.3451C64.8522 24.3451 64.7578 23.6214 64.5061 22.9606C64.4117 22.6145 64.2858 22.2684 64.1599 22.0481C64.0341 21.7964 63.9711 21.639 63.9711 21.639L64.0026 21.6076Z" fill="#99B4FF"/>
<path d="M61.1392 18.4926L61.9573 17.2969C61.9573 17.2969 62.1147 17.4227 62.3979 17.5801C62.6496 17.7374 62.9643 18.0206 63.2789 18.3038C63.5936 18.587 63.9082 18.8702 64.0656 19.1219C64.2544 19.3737 64.4117 19.531 64.4117 19.531L63.2474 20.412C63.2474 20.412 63.1216 20.2862 62.9643 20.0659C62.8069 19.8456 62.5552 19.5939 62.272 19.3737C61.7685 18.8387 61.1077 18.4926 61.1392 18.4926Z" fill="#99B4FF"/>
<path d="M57.1115 16.8877L57.4261 15.4717C57.4261 15.4717 60.5727 16.3527 60.5413 16.5101L59.912 17.8317C59.912 17.8317 57.1429 16.8247 57.1115 16.9191V16.8877Z" fill="#99B4FF"/>
<path d="M52.6431 16.4789V15C52.6431 15 52.8319 15 53.1466 15C53.4613 15 53.8388 15 54.2479 15.0315C55.0346 15.0944 55.8527 15.1573 55.8527 15.1573L55.6639 16.6048C55.6639 16.6048 54.9087 16.5419 54.1535 16.4789C53.7759 16.4475 53.3983 16.4475 53.1151 16.4789C52.8319 16.4789 52.6431 16.4789 52.6431 16.4789Z" fill="#99B4FF"/>
<path d="M198.018 125.541L197.797 126.988C197.797 126.988 197.011 126.894 196.224 126.737C195.437 126.611 194.651 126.391 194.651 126.391L195.028 124.975C195.028 124.975 195.752 125.163 196.507 125.289C197.262 125.447 198.018 125.541 198.018 125.541Z" fill="#99B4FF"/>
<path d="M202.58 125.95V127.397C202.58 127.397 201.762 127.366 200.944 127.303C200.157 127.272 199.371 127.177 199.371 127.177L199.528 125.73C199.528 125.73 200.283 125.824 201.038 125.856C201.794 125.887 202.549 125.919 202.549 125.919L202.58 125.95Z" fill="#99B4FF"/>
<path d="M207.111 125.73L207.3 127.177C207.3 127.177 206.513 127.24 205.695 127.335C205.286 127.397 204.909 127.397 204.594 127.397C204.279 127.397 204.091 127.397 204.091 127.397V125.95C204.091 125.95 204.248 125.95 204.531 125.95C204.814 125.95 205.192 125.95 205.569 125.887C206.325 125.824 207.08 125.73 207.08 125.73H207.111Z" fill="#99B4FF"/>
<path d="M211.485 124.692L211.957 126.076L210.415 126.58C209.629 126.8 208.842 126.926 208.842 126.926L208.559 125.479C208.559 125.479 209.314 125.353 210.038 125.164C210.762 124.944 211.485 124.723 211.485 124.723V124.692Z" fill="#99B4FF"/>
<path d="M215.387 122.678L216.237 123.873C216.237 123.873 215.576 124.377 214.884 124.786C214.16 125.132 213.405 125.478 213.405 125.478L212.807 124.157C212.807 124.157 213.468 123.842 214.16 123.527C214.789 123.15 215.387 122.678 215.387 122.678Z" fill="#99B4FF"/>
<path d="M218.502 119.594L219.698 120.444C219.698 120.444 219.289 121.167 218.66 121.702C218.093 122.3 217.495 122.866 217.495 122.866L216.52 121.765C216.52 121.765 218.597 119.657 218.471 119.562L218.502 119.594Z" fill="#99B4FF"/>
<path d="M220.516 115.661L221.901 116.133C221.901 116.133 221.586 116.888 221.303 117.643C221.145 118.021 221.02 118.398 220.862 118.681C220.705 118.933 220.579 119.122 220.579 119.122L219.32 118.398C219.32 118.398 219.415 118.241 219.572 118.021C219.698 117.769 219.824 117.423 219.981 117.077C220.264 116.384 220.548 115.692 220.548 115.692L220.516 115.661Z" fill="#99B4FF"/>
<path d="M221.555 111.224L222.97 111.57L222.31 114.654L220.925 114.245L221.555 111.224Z" fill="#99B4FF"/>
<path d="M222.782 106.567L224.072 107.228C224.072 107.228 223.789 107.92 223.568 108.644C223.411 109.368 223.254 110.123 223.254 110.123L221.869 109.683C221.869 109.683 222.026 108.896 222.215 108.109C222.467 107.354 222.782 106.599 222.782 106.599V106.567Z" fill="#99B4FF"/>
<path d="M225.047 102.319L226.18 103.263C226.18 103.263 224.544 105.812 224.638 105.843L223.379 105.088L225.047 102.319Z" fill="#99B4FF"/>
<path d="M228.603 99.0779L229.484 100.274C229.484 100.274 228.886 100.714 228.257 101.155C227.627 101.595 227.187 102.225 227.187 102.193L226.148 101.155C226.148 101.155 226.652 100.494 227.313 100.022C227.974 99.5499 228.603 99.0779 228.603 99.0779Z" fill="#99B4FF"/>
<path d="M232.945 97.0644L233.543 98.4175C233.543 98.4175 232.819 98.6377 232.127 98.8895C231.466 99.2356 230.774 99.5503 230.774 99.5503L229.987 98.2916C229.987 98.2916 230.711 97.9455 231.435 97.5679C232.19 97.2847 232.977 97.033 232.977 97.033L232.945 97.0644Z" fill="#99B4FF"/>
<path d="M237.665 96.0259L237.917 97.4733L234.959 98.0083L234.487 96.6237C234.487 96.6237 237.665 95.9629 237.665 96.0573V96.0259Z" fill="#99B4FF"/>
<path d="M242.417 95.7424V97.1899C242.417 97.1899 241.662 97.1899 240.875 97.2528C240.12 97.2528 239.365 97.3472 239.365 97.3472L239.239 95.8998C239.239 95.8998 239.427 95.8998 239.742 95.8368C240.025 95.8368 240.434 95.8368 240.812 95.8054C241.599 95.8054 242.417 95.7424 242.417 95.7424Z" fill="#99B4FF"/>
<path d="M247.105 95.8683L247.011 97.3157C247.011 97.3157 246.224 97.2843 245.469 97.2213C244.714 97.2213 243.927 97.1899 243.927 97.1899V95.7424C243.927 95.7424 244.745 95.7424 245.532 95.7739C246.319 95.8054 247.105 95.8683 247.105 95.8683Z" fill="#99B4FF"/>
<path d="M251.762 96.2146L251.668 97.6621L248.553 97.4418L248.647 95.9944L251.762 96.2146Z" fill="#99B4FF"/>
<path d="M256.356 96.4667V97.9142C256.356 97.9142 255.57 97.9142 254.752 97.9142C253.965 97.8512 253.178 97.8198 253.178 97.8198L253.273 96.3723C253.273 96.3723 254.059 96.4352 254.814 96.4667C255.57 96.4667 256.325 96.4667 256.325 96.4667H256.356Z" fill="#99B4FF"/>
<path d="M260.384 95.2393L261.139 96.4664C261.139 96.4664 260.95 96.5608 260.667 96.7182C260.384 96.8755 260.006 97.0643 259.629 97.2216C258.842 97.5678 258.024 97.7251 258.024 97.7251L257.709 96.3091C257.709 96.3091 258.402 96.1518 259.094 95.8686C259.44 95.7427 259.755 95.5854 259.975 95.4595C260.195 95.3337 260.353 95.2393 260.353 95.2393H260.384Z" fill="#99B4FF"/>
<path d="M263.279 92.187L264.537 92.9107C264.537 92.9107 264.443 93.0995 264.254 93.3513C264.128 93.6345 263.845 93.9806 263.593 94.2953C263.342 94.6414 263.058 94.956 262.807 95.1448C262.586 95.3651 262.429 95.5224 262.429 95.5224L261.485 94.4211C261.485 94.4211 261.611 94.2953 261.8 94.1065C262.02 93.9491 262.24 93.6659 262.461 93.3827C262.964 92.8478 263.247 92.187 263.279 92.187Z" fill="#99B4FF"/>
<path d="M264.632 88.0647L266.079 88.285C266.079 88.285 265.387 91.4945 265.261 91.4631L263.908 90.9281C263.908 90.9281 264.726 88.0962 264.632 88.0647Z" fill="#99B4FF"/>
<path d="M264.758 83.5966L266.205 83.5022C266.205 83.5022 266.205 83.691 266.237 84.0057C266.237 84.2889 266.3 84.6979 266.268 85.107C266.268 85.9251 266.268 86.7118 266.268 86.7118L264.821 86.6174C264.821 86.6174 264.821 85.8622 264.821 85.107C264.821 84.7294 264.821 84.3518 264.789 84.0686C264.789 83.7854 264.758 83.5966 264.758 83.5966Z" fill="#99B4FF"/>
<path d="M295 276C295 280.971 230.089 285 150 285C69.9108 285 5 280.971 5 276C5 271.029 69.9108 267 150 267C230.089 267 295 271.029 295 276Z" fill="#737373"/>
<path d="M207.835 68.4926L206.608 68.2094C208.905 57.8255 213.971 55.6229 216.74 55.2138C216.835 55.2138 216.929 55.2138 217.023 55.1824C217.055 52.5077 217.873 50.3051 219.478 48.6374C223.789 44.1691 232.064 45.1446 232.41 45.1761L232.253 46.4033C232.253 46.4033 224.229 45.4593 220.39 49.487C219.037 50.9029 218.314 52.7909 218.282 55.1194C221.114 55.2453 223.443 56.7871 224.355 58.4549C225.079 59.745 224.953 61.098 224.072 62.1364C223.002 63.3951 221.901 63.4265 221.177 63.2063C219.1 62.6084 217.495 59.4933 217.275 58.0458C217.181 57.4794 217.118 56.9445 217.086 56.4095C217.023 56.4095 216.992 56.4095 216.96 56.4095C214.475 56.7557 210.006 58.801 207.867 68.4297L207.835 68.4926ZM218.345 56.4095C218.376 56.8815 218.439 57.385 218.534 57.8885C218.723 59.0842 220.139 61.6644 221.555 62.042C221.775 62.105 222.373 62.2623 223.191 61.3498C223.883 60.5316 223.663 59.682 223.317 59.0842C222.593 57.7311 220.642 56.5039 218.345 56.3781V56.4095Z" fill="#002999"/>
<path d="M148.119 32.9455L147.082 33.6601C140.968 24.9584 142.761 19.7331 144.327 17.4134C144.391 17.3438 144.454 17.2741 144.495 17.1832C142.542 15.3553 141.468 13.2652 141.32 10.9555C140.931 4.75898 147.235 -0.690748 147.492 -0.924979L148.291 0.0191747C148.291 0.0191747 142.181 5.30434 142.563 10.8553C142.695 12.8093 143.6 14.6174 145.298 16.2117C147.301 14.2065 150.011 13.5283 151.857 13.9801C153.298 14.3164 154.211 15.3222 154.383 16.6732C154.59 18.312 153.87 19.1461 153.22 19.5316C151.377 20.661 147.995 19.7435 146.778 18.9294C146.296 18.6169 145.859 18.3025 145.443 17.9648C145.401 18.0112 145.379 18.0344 145.358 18.0577C143.936 20.1259 142.431 24.8037 148.094 32.8798L148.119 32.9455ZM146.292 17.0358C146.662 17.331 147.076 17.6243 147.511 17.8943C148.521 18.5618 151.381 19.2577 152.615 18.4674C152.81 18.3473 153.33 18.0122 153.208 16.7926C153.071 15.7297 152.296 15.319 151.621 15.1711C150.134 14.7923 147.912 15.4041 146.269 17.0146L146.292 17.0358Z" fill="#002999"/>
<path d="M53.1152 59.3677L54.4997 62.1367L57.5204 62.5772L55.3178 64.717L55.8527 67.7377L53.1152 66.3217L50.4091 67.7377L50.9125 64.717L48.7413 62.5772L51.7621 62.1367L53.1152 59.3677Z" fill="#99B4FF"/>
<path d="M198.374 21L199.758 23.769L202.779 24.2096L200.576 26.3493L201.111 29.37L198.374 27.9541L195.668 29.37L196.171 26.3493L194 24.2096L197.021 23.769L198.374 21Z" fill="#99B4FF"/>
<path d="M136.374 114L137.758 116.769L140.779 117.21L138.576 119.349L139.111 122.37L136.374 120.954L133.668 122.37L134.171 119.349L132 117.21L135.021 116.769L136.374 114Z" fill="#99B4FF"/>
<path d="M25.5507 84.6034L25.6451 83.3762C36.2492 84.0685 39.207 88.757 40.0252 91.4316C40.0252 91.526 40.0881 91.6204 40.0881 91.7148C42.7313 91.3372 45.0283 91.8407 46.9163 93.1623C51.9824 96.7494 52.2656 105.057 52.297 105.403H51.0384C51.0384 105.403 50.7552 97.3787 46.1926 94.1692C44.5878 93.0364 42.6054 92.6273 40.3084 92.9105C40.623 95.7425 39.4273 98.2913 37.9169 99.4241C36.7527 100.337 35.3996 100.4 34.2354 99.7073C32.8194 98.8262 32.6306 97.7563 32.725 97.0011C32.9767 94.8614 35.8402 92.8161 37.2561 92.3441C37.7911 92.1553 38.326 92.0295 38.8609 91.9036C38.8609 91.8721 38.8609 91.8092 38.8295 91.7777C38.1057 89.3863 35.4311 85.2642 25.5821 84.6034H25.5507ZM39.0497 93.1623C38.5777 93.2881 38.1057 93.414 37.6023 93.5713C36.438 93.9489 34.1095 95.711 33.9522 97.1585C33.9522 97.3787 33.8578 98.0081 34.8647 98.6689C35.7772 99.2353 36.5953 98.8577 37.1303 98.4801C38.3575 97.5675 39.27 95.4593 39.0497 93.1623Z" fill="#002999"/>
<path d="M130.9 209.43L130.05 208.518L133.952 204.93C135.116 203.861 135.211 202.036 134.141 200.871L131.278 197.725C130.522 196.907 130.145 195.868 130.208 194.767C130.271 193.666 130.743 192.659 131.561 191.903L134.172 189.543C134.739 189.04 135.085 188.316 135.116 187.53C135.116 186.743 134.865 186.019 134.33 185.453L131.75 182.715C130.963 181.866 130.554 180.764 130.648 179.632C130.711 178.499 131.278 177.429 132.159 176.705L133.921 175.258C134.582 174.723 134.959 173.936 134.959 173.087C134.959 172.237 134.644 171.45 134.015 170.884L130.302 167.548L131.152 166.604L134.865 169.94C135.777 170.758 136.249 171.891 136.249 173.118C136.249 174.314 135.683 175.447 134.739 176.202L132.977 177.649C132.347 178.153 131.97 178.876 131.938 179.694C131.875 180.481 132.159 181.268 132.725 181.866L135.305 184.603C136.06 185.421 136.47 186.491 136.407 187.593C136.344 188.694 135.872 189.732 135.054 190.487L132.442 192.847C131.875 193.351 131.529 194.075 131.498 194.83C131.466 195.585 131.718 196.34 132.253 196.907L135.116 200.053C136.627 201.721 136.532 204.333 134.865 205.874L130.963 209.462L130.9 209.43Z" fill="#99B4FF"/>
<path d="M133.197 162.199C131.215 162.199 129.578 160.563 129.578 158.581C129.578 156.598 131.215 154.962 133.197 154.962C135.179 154.962 136.816 156.598 136.816 158.581C136.816 160.563 135.179 162.199 133.197 162.199ZM133.197 156.221C131.907 156.221 130.837 157.291 130.837 158.581C130.837 159.871 131.907 160.941 133.197 160.941C134.487 160.941 135.557 159.871 135.557 158.581C135.557 157.291 134.487 156.221 133.197 156.221Z" fill="#99B4FF"/>
<mask id="path-55-inside-1_8307_1522" fill="white">
<path d="M209.001 178.321C209.001 178.321 212.087 174.337 214.812 175.096C217.997 176.045 217.373 176.487 220 177.562L219.639 183C219.639 183 217.734 182.937 217.209 182.368C216.29 181.482 215.764 181.356 213.991 180.028C212.284 178.764 212.317 177.942 210.806 178.764C208.607 180.091 209.033 178.321 209.033 178.321H209.001Z"/>
</mask>
<path d="M209.001 178.321C209.001 178.321 212.087 174.337 214.812 175.096C217.997 176.045 217.373 176.487 220 177.562L219.639 183C219.639 183 217.734 182.937 217.209 182.368C216.29 181.482 215.764 181.356 213.991 180.028C212.284 178.764 212.317 177.942 210.806 178.764C208.607 180.091 209.033 178.321 209.033 178.321H209.001Z" fill="white"/>
<path d="M209.001 178.321L208.21 177.708L206.961 179.321H209.001V178.321ZM214.812 175.096L215.098 174.138L215.089 174.135L215.08 174.133L214.812 175.096ZM220 177.562L220.998 177.628L221.046 176.909L220.379 176.637L220 177.562ZM219.639 183L219.606 183.999L220.573 184.032L220.637 183.066L219.639 183ZM217.209 182.368L217.944 181.689L217.924 181.668L217.903 181.647L217.209 182.368ZM213.991 180.028L214.591 179.228L214.587 179.225L213.991 180.028ZM210.806 178.764L210.328 177.885L210.309 177.896L210.29 177.907L210.806 178.764ZM209.033 178.321L210.006 178.555L210.303 177.321H209.033V178.321ZM209.001 178.321C209.791 178.933 209.791 178.934 209.791 178.934C209.791 178.934 209.791 178.934 209.791 178.934C209.79 178.934 209.79 178.934 209.79 178.934C209.79 178.934 209.79 178.934 209.791 178.934C209.791 178.933 209.793 178.931 209.795 178.929C209.799 178.923 209.806 178.914 209.816 178.902C209.835 178.878 209.866 178.841 209.906 178.792C209.987 178.695 210.108 178.554 210.262 178.387C210.572 178.049 211.007 177.612 211.514 177.201C212.026 176.787 212.578 176.425 213.123 176.209C213.666 175.994 214.138 175.946 214.544 176.059L215.08 174.133C214.124 173.866 213.188 174.032 212.386 174.35C211.585 174.668 210.856 175.16 210.255 175.647C209.65 176.137 209.143 176.649 208.789 177.034C208.611 177.228 208.469 177.392 208.371 177.51C208.322 177.569 208.283 177.617 208.256 177.65C208.242 177.667 208.232 177.681 208.224 177.69C208.22 177.695 208.217 177.699 208.215 177.702C208.214 177.704 208.213 177.705 208.212 177.706C208.211 177.707 208.211 177.707 208.211 177.707C208.211 177.708 208.21 177.708 208.21 177.708C208.21 177.708 208.21 177.708 209.001 178.321ZM214.527 176.055C216.043 176.506 216.596 176.818 217.078 177.125C217.637 177.481 218.211 177.911 219.621 178.488L220.379 176.637C219.162 176.139 218.735 175.809 218.153 175.438C217.494 175.018 216.766 174.635 215.098 174.138L214.527 176.055ZM219.002 177.496L218.641 182.934L220.637 183.066L220.998 177.628L219.002 177.496ZM219.639 183C219.672 182.001 219.672 182.001 219.672 182.001C219.672 182.001 219.672 182.001 219.672 182.001C219.673 182.001 219.673 182.001 219.673 182.001C219.673 182.001 219.673 182.001 219.673 182.001C219.673 182.001 219.672 182.001 219.671 182.001C219.669 182 219.665 182 219.66 182C219.649 182 219.632 181.999 219.609 181.998C219.564 181.995 219.496 181.991 219.412 181.984C219.243 181.971 219.016 181.948 218.779 181.91C218.538 181.871 218.311 181.821 218.133 181.76C217.927 181.69 217.903 181.645 217.944 181.689L216.474 183.046C216.778 183.375 217.189 183.552 217.488 183.653C217.814 183.764 218.162 183.836 218.463 183.885C218.767 183.934 219.049 183.962 219.254 183.978C219.357 183.986 219.442 183.992 219.503 183.995C219.533 183.996 219.557 183.997 219.575 183.998C219.583 183.999 219.59 183.999 219.596 183.999C219.598 183.999 219.6 183.999 219.602 183.999C219.603 183.999 219.604 183.999 219.604 183.999C219.604 183.999 219.605 183.999 219.605 183.999C219.605 183.999 219.605 183.999 219.605 183.999C219.605 183.999 219.606 183.999 219.639 183ZM217.903 181.647C217.379 181.143 216.96 180.851 216.471 180.529C215.996 180.216 215.449 179.87 214.591 179.228L213.392 180.829C214.307 181.514 214.909 181.895 215.37 182.199C215.817 182.493 216.12 182.707 216.515 183.088L217.903 181.647ZM214.587 179.225C214.204 178.941 213.918 178.682 213.666 178.449C213.441 178.24 213.161 177.968 212.877 177.78C212.538 177.555 212.129 177.399 211.622 177.44C211.175 177.475 210.745 177.659 210.328 177.885L211.284 179.642C211.623 179.458 211.756 179.435 211.78 179.433C211.783 179.433 211.778 179.434 211.769 179.433C211.76 179.432 211.751 179.43 211.743 179.428C211.727 179.423 211.734 179.421 211.773 179.447C211.883 179.52 212.009 179.639 212.305 179.914C212.575 180.165 212.925 180.483 213.396 180.832L214.587 179.225ZM210.29 177.907C209.784 178.213 209.56 178.255 209.524 178.258C209.523 178.258 209.598 178.252 209.706 178.303C209.819 178.356 209.901 178.441 209.949 178.52C210.02 178.637 209.997 178.7 210 178.616C210.001 178.592 210.004 178.57 210.007 178.553C210.008 178.546 210.009 178.541 210.009 178.541C210.009 178.541 210.009 178.542 210.008 178.544C210.008 178.545 210.007 178.547 210.007 178.549C210.007 178.55 210.007 178.551 210.006 178.552C210.006 178.552 210.006 178.553 210.006 178.553C210.006 178.554 210.006 178.554 210.006 178.554C210.006 178.555 210.006 178.555 209.033 178.321C208.061 178.087 208.061 178.087 208.061 178.088C208.061 178.088 208.061 178.088 208.061 178.089C208.061 178.089 208.06 178.09 208.06 178.091C208.06 178.092 208.059 178.094 208.059 178.096C208.058 178.099 208.057 178.103 208.056 178.108C208.054 178.116 208.052 178.127 208.049 178.14C208.044 178.165 208.038 178.197 208.032 178.235C208.02 178.311 208.007 178.416 208.002 178.538C207.994 178.744 208.001 179.166 208.241 179.56C208.373 179.777 208.573 179.98 208.852 180.111C209.124 180.24 209.411 180.272 209.678 180.252C210.181 180.213 210.729 179.978 211.323 179.62L210.29 177.907ZM209.033 177.321H209.001V179.321H209.033V177.321Z" fill="#2B2B2B" mask="url(#path-55-inside-1_8307_1522)"/>
<path d="M243.266 155.309C248.615 154.302 250.755 156.693 251.29 159.997C252.108 165.063 252.203 173.433 245.06 179.915C237.885 186.429 217.5 183 217.5 183C217.5 183 216.551 176.926 218.25 175.51C218.25 175.51 234.109 176.297 239.05 169.185C241.441 165.724 238.2 156.284 243.266 155.309Z" fill="black"/>
<path d="M214.147 157.92C213.76 159.148 213.358 160.993 213.274 163.504C213.106 168.537 214.215 176.23 219.245 186.986V186.987C224.373 197.934 227.659 205.208 230.534 211.586C233.396 217.936 235.851 223.402 239.305 230.718V230.783L239.354 230.884C241.109 234.593 244.067 236.376 247.511 237.073C250.925 237.763 254.835 237.391 258.568 236.812C262.346 236.226 265.899 235.439 268.767 235.231C270.193 235.128 271.387 235.175 272.308 235.441C273.016 235.646 273.542 235.974 273.897 236.457L245.574 249.537L245.571 249.538L244.029 250.261L215.709 263.338C215.574 262.755 215.668 262.141 215.972 261.468C216.367 260.594 217.105 259.653 218.108 258.634C220.126 256.585 223.028 254.391 225.921 251.895C228.78 249.428 231.594 246.693 233.277 243.646C234.976 240.573 235.531 237.164 233.842 233.422L233.841 233.421L232.612 230.723C229.82 224.619 227.516 219.769 224.894 214.235C221.897 207.911 218.483 200.692 213.45 189.682C208.515 178.863 203.373 173.029 199.43 169.895C197.464 168.333 195.8 167.444 194.614 166.945L205.382 164.861L205.503 164.837L205.599 164.761L214.147 157.92Z" fill="white" stroke="#2B2B2B"/>
<path d="M214.153 157.917C214.005 158.387 213.851 158.949 213.717 159.605C213.241 161.927 212.977 165.421 213.748 170.209C212.326 171.41 210.735 172.482 208.95 173.336L208.572 173.512C207.218 174.117 205.867 174.585 204.493 174.919C201.28 171.093 198.385 168.952 196.26 167.765C195.635 167.416 195.077 167.15 194.599 166.948L205.382 164.861L205.503 164.837L205.599 164.761L214.153 157.917Z" fill="white" stroke="#2B2B2B"/>
<path d="M176.633 51.4265C198.144 78.0424 212.965 104.077 218.241 124.952C220.889 135.429 221.122 144.557 218.639 151.796C216.164 159.01 210.976 164.396 202.662 167.392C193.531 170.68 184.897 166.396 176.989 157.846C169.088 149.303 162.035 136.62 156.14 123.469C150.248 110.326 145.53 96.755 142.284 86.4666C140.661 81.3232 139.407 77.0013 138.558 73.9666C138.134 72.4495 137.812 71.254 137.596 70.4382C137.501 70.0804 137.426 69.7955 137.372 69.5886L176.633 51.4265Z" fill="white" stroke="#2B2B2B"/>
<path d="M183.565 76.375C199.501 95.0198 210.224 113.438 213.672 128.403C215.405 135.921 215.293 142.523 213.132 147.837C210.979 153.134 206.767 157.211 200.172 159.654C192.958 162.327 186.387 159.5 180.508 153.563C174.622 147.619 169.522 138.634 165.333 129.255C161.148 119.885 157.891 110.164 155.681 102.782C154.577 99.0924 153.734 95.9889 153.168 93.8086C152.884 92.7187 152.67 91.8597 152.527 91.2734C152.48 91.0808 152.44 90.9173 152.409 90.7852L183.565 76.375Z" fill="#525252" stroke="black"/>
<path d="M182.013 75.7437C182.468 75.7219 182.802 75.7507 183.024 75.811C183.133 75.8406 183.2 75.874 183.237 75.8999C183.269 75.9221 183.276 75.9358 183.277 75.938L183.309 76.0083C183.303 76.0547 183.284 76.1236 183.24 76.2173C183.141 76.4267 182.946 76.6997 182.634 77.0327C182.013 77.6954 181.014 78.508 179.696 79.4165C177.067 81.2289 173.247 83.3707 168.859 85.4077C164.471 87.4293 160.368 88.9523 157.288 89.7808C155.744 90.196 154.48 90.4299 153.575 90.4731C153.12 90.4949 152.787 90.467 152.564 90.4067C152.455 90.3772 152.389 90.3438 152.351 90.3179C152.32 90.2964 152.313 90.2826 152.311 90.2798C152.311 90.2791 152.303 90.2646 152.307 90.2222C152.312 90.176 152.331 90.1032 152.38 90.0005C152.479 89.791 152.674 89.5173 152.986 89.1841C153.607 88.5213 154.605 87.7088 155.921 86.8003C158.546 84.988 162.358 82.847 166.729 80.8101C171.117 78.7886 175.219 77.2655 178.3 76.437C179.844 76.0217 181.108 75.7869 182.013 75.7437Z" fill="#3D3939" stroke="black"/>
<path d="M179.547 92.0922C180.837 94.8612 179.61 98.1337 176.872 99.3924C174.103 100.682 170.831 99.4553 169.541 96.6863C168.25 93.9172 169.478 90.6447 172.215 89.3861C174.984 88.1274 178.257 89.3231 179.515 92.0922H179.547Z" fill="#3D3939"/>
<path d="M175.11 123.055C175.677 124.314 175.11 125.793 173.883 126.391C172.624 126.957 171.145 126.391 170.548 125.164C169.981 123.905 170.548 122.426 171.775 121.828C173.033 121.262 174.512 121.828 175.079 123.055H175.11Z" fill="#3D3939"/>
<path d="M184.204 108.895C185.022 110.658 184.267 112.734 182.505 113.521C180.743 114.339 178.666 113.553 177.879 111.822C177.061 110.06 177.848 107.983 179.578 107.196C181.341 106.378 183.417 107.165 184.204 108.895Z" fill="#3D3939"/>
<path d="M192.983 145.05C193.801 146.812 193.014 148.889 191.284 149.707C189.522 150.525 187.445 149.739 186.627 148.008C185.809 146.246 186.595 144.169 188.326 143.351C190.088 142.533 192.165 143.32 192.952 145.05H192.983Z" fill="#3D3939"/>
<path d="M176.778 50.8087C177.47 52.3191 169.1 57.6999 158.055 62.7974C147.011 67.895 137.508 70.8213 136.784 69.3109C136.092 67.8006 144.462 62.4198 155.507 57.3223C166.551 52.2247 176.086 49.2984 176.778 50.8087Z" fill="black"/>
<path d="M175.393 51.5323C175.928 52.6966 168.03 57.5109 157.741 62.2624C147.451 67.0138 138.672 69.9401 138.137 68.7759C137.602 67.6116 145.5 62.7973 155.79 58.0459C166.079 53.2944 174.858 50.3681 175.393 51.5323Z" fill="#2B2B2B"/>
<path d="M284.645 262.235C285.172 263.221 285.57 264.125 285.818 264.872C285.578 265.171 285.103 265.72 284.475 266.229C283.938 266.663 283.323 267.041 282.672 267.234C282.722 267.17 282.769 267.109 282.813 267.049C283.036 266.742 283.199 266.47 283.287 266.215C283.382 265.942 283.395 265.683 283.317 265.429C283.246 265.2 283.112 265.01 283.002 264.861L282.999 264.857L282.692 264.465C282.502 264.233 282.299 264.004 282.083 263.777L284.645 262.235Z" fill="white" stroke="#2B2B2B"/>
<path d="M284.53 258.83C284.229 258.401 283.658 258.259 283.192 258.498L278.51 260.896C277.961 261.177 277.771 261.867 278.099 262.389L280.819 266.723C281.167 267.276 281.263 267.95 281.086 268.578L279.947 272.625C279.679 273.576 280.751 274.336 281.56 273.769L289.716 268.047C290.19 267.714 290.305 267.059 289.972 266.584L284.53 258.83Z" fill="white" stroke="#2B2B2B" stroke-width="1.26029"/>
<path d="M254.285 265.842C254.312 265.319 253.95 264.855 253.436 264.756L248.27 263.762C247.665 263.645 247.09 264.072 247.027 264.685L246.501 269.775C246.434 270.425 246.095 271.015 245.568 271.401L242.178 273.887C241.382 274.471 241.758 275.731 242.745 275.782L252.694 276.298C253.273 276.327 253.767 275.882 253.797 275.303L254.285 265.842Z" fill="white" stroke="#2B2B2B" stroke-width="1.26029"/>
<path d="M288 260C288.472 261.731 277.848 266.913 276.778 266C265.543 252.388 258.335 230.403 251 214C248.955 209.469 245.595 202.602 245.595 202.602L251.825 200.022L268.5 195.5C276.735 224.736 283.953 244.914 288 260Z" fill="#3369FF"/>
<path d="M270.5 203L288 260" stroke="black" stroke-width="0.6" stroke-linecap="round" stroke-linejoin="round"/>
<path d="M259.062 222.835C257.5 241 257.5 256.5 257.5 268.178C257.28 269.563 243.5 268.178 243.5 268.178C239.93 248.322 237.318 229.8 237.508 209.745C237.539 204.774 239.71 197.033 239.71 197.033L260.384 197.694C262.933 204.081 260.352 217.329 258.999 222.804L259.062 222.835Z" fill="#3369FF"/>
<path d="M249.339 268.681C249.087 268.65 248.898 268.555 248.741 268.43C245.594 259.713 244.272 250.431 243.108 242.407C242.133 235.61 241.031 227.87 241 220.255C241 211.948 242.322 204.616 244.996 198.448C245.059 198.323 245.185 198.291 245.311 198.323C245.437 198.386 245.5 198.511 245.437 198.637C242.794 204.71 241.441 212.01 241.472 220.255C241.472 227.838 242.605 235.547 243.58 242.344C244.744 250.431 246.129 259.871 249.339 268.65V268.681Z" fill="black"/>
<path d="M239.648 163.552C236.501 167.485 233.158 181.991 237.5 206C238.444 211.286 271.161 208.318 270.5 203C268.486 186.449 268.08 172.017 261 160.5C259.049 157.385 245.846 155.717 239.648 163.521V163.552Z" fill="black"/>
<mask id="path-77-inside-2_8307_1522" fill="white">
<path fill-rule="evenodd" clip-rule="evenodd" d="M214.417 187.08C214.782 187.589 215 187.922 215 187.922L214.439 193C209.528 192.442 208.228 189.52 207 185C207.273 180.356 209.636 181.659 211.724 183.797C211.646 183.393 211.709 183.133 212.052 183.219C212.62 183.342 212.874 183.788 213.204 184.37C213.55 184.979 213.981 185.737 214.947 186.429C215.83 187.062 215.267 187.157 214.417 187.08Z"/>
</mask>
<path fill-rule="evenodd" clip-rule="evenodd" d="M214.417 187.08C214.782 187.589 215 187.922 215 187.922L214.439 193C209.528 192.442 208.228 189.52 207 185C207.273 180.356 209.636 181.659 211.724 183.797C211.646 183.393 211.709 183.133 212.052 183.219C212.62 183.342 212.874 183.788 213.204 184.37C213.55 184.979 213.981 185.737 214.947 186.429C215.83 187.062 215.267 187.157 214.417 187.08Z" fill="white"/>
<path d="M215 187.922L215.994 188.032L216.034 187.674L215.836 187.373L215 187.922ZM214.417 187.08L214.508 186.084L212.332 185.886L213.604 187.662L214.417 187.08ZM214.439 193L214.326 193.994L215.323 194.107L215.433 193.11L214.439 193ZM207 185L206.002 184.941L205.992 185.104L206.035 185.262L207 185ZM211.724 183.797L211.008 184.496L213.34 186.883L212.706 183.607L211.724 183.797ZM212.052 183.219L211.809 184.189L211.825 184.193L211.84 184.196L212.052 183.219ZM213.204 184.37L214.074 183.876V183.876L213.204 184.37ZM214.947 186.429L215.529 185.616L214.947 186.429ZM215 187.922C215.836 187.373 215.836 187.373 215.836 187.373C215.836 187.373 215.836 187.373 215.836 187.373C215.836 187.373 215.836 187.373 215.836 187.373C215.836 187.373 215.836 187.372 215.835 187.372C215.835 187.372 215.835 187.372 215.835 187.371C215.834 187.37 215.833 187.369 215.832 187.367C215.83 187.364 215.827 187.36 215.824 187.354C215.816 187.343 215.805 187.327 215.791 187.306C215.764 187.264 215.723 187.204 215.671 187.128C215.567 186.976 215.417 186.759 215.23 186.498L213.604 187.662C213.781 187.91 213.923 188.114 214.019 188.256C214.067 188.326 214.104 188.381 214.129 188.418C214.141 188.436 214.15 188.45 214.156 188.459C214.159 188.463 214.161 188.467 214.163 188.469C214.163 188.47 214.164 188.47 214.164 188.471C214.164 188.471 214.164 188.471 214.164 188.471C214.164 188.471 214.164 188.471 214.164 188.471C214.164 188.471 214.164 188.471 214.164 188.471C214.164 188.471 214.164 188.471 214.164 188.471C214.164 188.471 214.164 188.471 215 187.922ZM215.433 193.11L215.994 188.032L214.006 187.812L213.445 192.89L215.433 193.11ZM206.035 185.262C206.648 187.519 207.322 189.566 208.557 191.111C209.844 192.719 211.659 193.691 214.326 193.994L214.552 192.006C212.308 191.752 211.017 190.983 210.119 189.861C209.17 188.675 208.58 187.002 207.965 184.738L206.035 185.262ZM212.439 183.098C211.893 182.539 211.3 182.004 210.703 181.601C210.127 181.213 209.43 180.866 208.696 180.855C207.853 180.843 207.151 181.274 206.698 182.045C206.286 182.746 206.073 183.723 206.002 184.941L207.998 185.059C208.063 183.955 208.249 183.354 208.422 183.059C208.554 182.835 208.624 182.854 208.667 182.855C208.819 182.857 209.121 182.946 209.584 183.259C210.025 183.556 210.511 183.986 211.008 184.496L212.439 183.098ZM212.706 183.607C212.694 183.545 212.694 183.522 212.694 183.528C212.694 183.533 212.694 183.554 212.688 183.588C212.682 183.622 212.668 183.679 212.636 183.748C212.562 183.906 212.409 184.078 212.177 184.16C211.979 184.229 211.831 184.195 211.809 184.189L212.294 182.249C212.101 182.2 211.817 182.166 211.513 182.273C211.175 182.392 210.947 182.638 210.824 182.901C210.715 183.135 210.694 183.363 210.694 183.52C210.693 183.686 210.715 183.847 210.742 183.987L212.706 183.607ZM211.84 184.196C211.878 184.205 211.905 184.213 211.967 184.283C212.061 184.39 212.155 184.548 212.335 184.864L214.074 183.876C213.794 183.383 213.341 182.475 212.263 182.242L211.84 184.196ZM212.335 184.864C212.692 185.493 213.211 186.415 214.364 187.241L215.529 185.616C214.75 185.058 214.408 184.464 214.074 183.876L212.335 184.864ZM214.364 187.241C214.452 187.304 214.503 187.347 214.529 187.372C214.561 187.402 214.536 187.385 214.499 187.323C214.465 187.268 214.363 187.075 214.4 186.798C214.443 186.485 214.632 186.288 214.767 186.195C214.882 186.117 214.974 186.099 214.976 186.098C214.989 186.095 214.978 186.099 214.932 186.101C214.841 186.106 214.699 186.102 214.508 186.084L214.326 188.076C214.56 188.097 214.807 188.11 215.033 188.099C215.146 188.093 215.275 188.08 215.406 188.052C215.525 188.025 215.713 187.972 215.896 187.846C216.1 187.707 216.33 187.452 216.382 187.069C216.429 186.721 216.305 186.446 216.213 186.293C216.042 186.009 215.764 185.784 215.529 185.616L214.364 187.241Z" fill="#2B2B2B" mask="url(#path-77-inside-2_8307_1522)"/>
<path d="M239.616 165.693C245.028 164.937 247.074 167.234 247.514 170.538C248.206 175.605 247.835 186.031 241.5 192C233.395 199.638 213 193 213 193C213 193 212.587 186.46 214.317 185.107L233.5 183.5C233.5 183.5 235.5 165.693 239.553 165.693H239.616Z" fill="black"/>
<path d="M230 195.5C232.5 195.5 238.2 194.8 241 192C243.8 189.2 246.167 184.833 247 183" stroke="#2B2B2B" stroke-width="0.6" stroke-linecap="round"/>
<path d="M214.5 185L232.901 183.547C233.27 183.518 233.592 183.288 233.74 182.949L238.5 172" stroke="#2B2B2B" stroke-width="0.6" stroke-linecap="round"/>
<path d="M27.8339 265.862C27.8775 265.34 28.2989 264.929 28.8221 264.9L34.0746 264.609C34.6897 264.575 35.2018 265.075 35.1822 265.691L35.019 270.806C34.9982 271.458 35.2547 272.089 35.7244 272.542L38.7495 275.462C39.4604 276.147 38.9177 277.345 37.9334 277.263L28.0049 276.436C27.4271 276.388 26.9978 275.88 27.046 275.302L27.8339 265.862Z" fill="white" stroke="#2B2B2B" stroke-width="1.26029"/>
<path d="M55.9931 265.521C55.9661 264.997 56.3285 264.534 56.843 264.434L62.0087 263.44C62.6137 263.324 63.1884 263.751 63.2517 264.364L63.7777 269.453C63.8448 270.103 64.1837 270.693 64.7101 271.079L68.1004 273.566C68.897 274.15 68.5203 275.41 67.5338 275.461L57.5843 275.976C57.0052 276.006 56.5116 275.56 56.4816 274.981L55.9931 265.521Z" fill="white" stroke="#2B2B2B" stroke-width="1.26029"/>
<path d="M63.5305 190.11C53.6501 197.379 40.9062 195.113 35.5254 193.98C34.078 206.944 24.5 271 24.5 271L38.5 270.5C38.5 270.5 47 238.5 50.472 212.86C51.2586 217.171 53.0315 266.598 53 270.5C60.0485 270.374 61.7275 270.517 65 268C65.1573 266.678 67.3741 223.227 67.5 222C68.4125 209.288 67.5 197 67.5 188L63.5305 190.11Z" fill="black"/>
<path d="M44 151.5C49.4291 154.669 51 155.5 51 150.5L55.5066 150.84C55.5066 150.84 64.2857 161.759 67.1177 176.674C68.5 191 68 200.903 68 200.903C68 200.903 57.3546 202.249 50.5034 202.193C44.3388 202.142 39.2385 202.319 34.7703 200.903C34.7703 200.903 34.7703 192.5 35.5569 177.995C35.5569 177.995 43.6438 178.793 42.7942 168C42.2666 161.298 32.5 158.5 32.5 158.5C32.5 158.5 33.5 155.605 39 153C40.44 152.318 44 151.5 44 151.5Z" fill="#3369FF"/>
<path d="M69.5 166.5L62.5 154.5C62 153.5 59 150.5 51.5 150.5L66 179.5L85.5 171V161L69.5 166.5Z" fill="#3369FF"/>
<path d="M83.3129 155.123L83.4222 155.179H83.5453L94.5004 155.125C93.4342 155.846 91.9739 157.044 90.348 158.961C87.0903 162.804 83.1812 169.528 80.4447 181.09C77.6608 192.855 75.7179 200.601 74.0072 207.389C72.5102 213.329 71.1902 218.537 69.639 225.062L68.9594 227.945C68.0279 231.943 69.2367 235.178 71.5023 237.863C73.7486 240.525 77.044 242.662 80.3304 244.526C83.6556 246.412 86.9301 247.999 89.307 249.615C90.4889 250.418 91.396 251.195 91.9515 251.973C92.3786 252.571 92.5865 253.153 92.5658 253.749L62.2318 246.42L60.599 246.013L60.5961 246.012L30.2611 238.683C30.5158 238.141 30.9689 237.716 31.6234 237.377C32.4736 236.938 33.6353 236.659 35.0531 236.484C37.9051 236.131 41.542 236.215 45.3597 236.055C49.1329 235.898 53.0379 235.5 56.2504 234.156C59.4828 232.803 62.0291 230.481 63.0316 226.51L63.0404 226.512C65.0239 218.61 66.3773 212.753 67.9584 205.937C69.3417 199.973 70.8998 193.273 73.2064 183.82L74.2426 179.594C77.0898 168.063 76.6796 160.296 75.5336 155.387C74.9611 152.935 74.2057 151.202 73.5853 150.072L83.3129 155.123Z" fill="white" stroke="#2B2B2B"/>
<path d="M83.3129 155.154L83.4223 155.211L83.5453 155.21L94.5151 155.157C94.085 155.449 93.5897 155.82 93.0444 156.285C91.1932 157.863 88.7726 160.524 86.3715 164.893C84.9556 164.82 83.5192 164.637 82.0864 164.293H82.0873C80.0294 163.794 78.1114 163.01 76.3852 162.054C76.2142 157.21 75.2791 153.834 74.3637 151.646C74.117 151.056 73.8706 150.555 73.643 150.133L83.3129 155.154Z" fill="white" stroke="#2B2B2B"/>
<path d="M131.698 48.5217C131.685 48.735 131.669 49.0287 131.645 49.3977C131.592 50.24 131.508 51.4755 131.387 53.0461C131.146 56.1875 130.757 60.6695 130.167 66.0295C128.986 76.7517 127 90.9799 123.781 105.016C120.559 119.061 116.112 132.872 110.025 142.787C103.934 152.71 96.298 158.592 86.7018 157.143C77.9614 155.819 71.8258 151.544 67.9957 144.95C64.1523 138.334 62.6049 129.338 63.1647 118.55C64.28 97.055 73.7502 68.6454 89.6578 38.3596L131.698 48.5217Z" fill="white" stroke="#2B2B2B"/>
<path d="M121.039 72.2175C121.034 72.356 121.028 72.5294 121.019 72.7351C120.992 73.338 120.949 74.2223 120.884 75.3464C120.753 77.5952 120.531 80.8032 120.166 84.6375C119.436 92.3081 118.136 102.476 115.856 112.481C113.573 122.497 110.316 132.303 105.698 139.28C101.086 146.249 95.189 150.303 87.587 149.088C80.6365 147.974 75.7086 144.794 72.5646 140.015C69.4103 135.221 68.017 128.765 68.255 121.052C68.7289 105.699 75.6653 85.544 87.6642 64.1589L121.039 72.2175Z" fill="#525252" stroke="black"/>
<path d="M89.0653 63.2388C89.9603 63.1064 91.245 63.0915 92.8397 63.1987C96.0209 63.4127 100.342 64.1059 105.042 65.2339V65.2349C109.743 66.3789 113.9 67.7316 116.825 68.9956C118.291 69.6292 119.425 70.2312 120.161 70.7612C120.531 71.0274 120.775 71.2575 120.913 71.4448C121.043 71.6214 121.038 71.7017 121.036 71.7144C121.036 71.7156 121.035 71.7189 121.032 71.7241C121.029 71.7302 121.021 71.7413 121.007 71.7563C120.976 71.7883 120.917 71.8325 120.816 71.8823C120.611 71.9839 120.29 72.0765 119.84 72.1431C118.945 72.2755 117.66 72.2903 116.065 72.1831C112.884 71.9692 108.563 71.2751 103.862 70.147H103.863C99.1773 69.0029 95.0205 67.6503 92.0917 66.3862C90.6236 65.7526 89.4863 65.1508 88.7479 64.6206C88.3768 64.3541 88.1317 64.1226 87.993 63.9351C87.8639 63.7604 87.8672 63.6809 87.869 63.6675C87.8693 63.6664 87.8697 63.6633 87.8729 63.6577C87.8764 63.6517 87.8837 63.6406 87.8983 63.6255C87.9294 63.5935 87.9879 63.5484 88.0887 63.4985C88.2942 63.397 88.6154 63.3053 89.0653 63.2388Z" fill="#3D3939" stroke="black"/>
<path d="M94.7136 78.8138C93.9899 81.7716 95.8149 84.7295 98.7728 85.4532C101.731 86.1769 104.72 84.3519 105.412 81.394C106.136 78.4362 104.311 75.4784 101.353 74.7546C98.3952 74.0309 95.4373 75.856 94.7136 78.8138Z" fill="#3D3939"/>
<path d="M105.098 108.298C104.783 109.651 105.601 111.004 106.923 111.318C108.276 111.633 109.629 110.815 109.943 109.462C110.258 108.109 109.44 106.756 108.087 106.441C106.734 106.126 105.412 106.944 105.066 108.298H105.098Z" fill="#3D3939"/>
<path d="M93.4235 96.1834C92.9515 98.0714 94.1158 99.9594 96.0038 100.4C97.8917 100.84 99.7797 99.7077 100.22 97.8197C100.661 95.9317 99.528 94.0437 97.64 93.6032C95.752 93.1627 93.864 94.2954 93.4235 96.1834Z" fill="#3D3939"/>
<path d="M91.8503 133.345C91.4097 135.233 92.5425 137.121 94.4305 137.561C96.3185 138.002 98.2065 136.869 98.647 134.981C99.0875 133.093 97.9547 131.205 96.0667 130.764C94.1788 130.324 92.2908 131.457 91.8503 133.345Z" fill="#3D3939"/>
<path d="M89.3959 37.7811C88.9868 39.4174 98.2694 43.036 110.101 45.8994C121.932 48.7629 131.844 49.7698 132.222 48.1336C132.599 46.5288 123.348 42.8787 111.517 40.0152C99.6854 37.1518 89.7735 36.1449 89.3959 37.7811Z" fill="black"/>
<path d="M90.8748 38.1903C90.5916 39.449 99.2448 42.6271 110.29 45.2703C121.303 47.9449 130.491 49.0777 130.774 47.8505C131.057 46.5919 122.373 43.4138 111.359 40.7706C100.346 38.0959 91.158 36.9632 90.8748 38.1903Z" fill="white"/>
<g style="mix-blend-mode:overlay" opacity="0.2">
<path d="M85.9346 44.5464C79.7043 69.5621 67.1807 132.275 91.158 157.762C89.7105 157.888 88.1687 157.888 86.5954 157.636C52.3915 152.476 56.8912 102.602 85.9031 44.5464H85.9346Z" fill="#3D3939"/>
</g>
<path d="M78.3516 189.75C78.4792 189.739 78.5839 189.723 78.6631 189.704C78.7502 189.684 78.7752 189.668 78.7676 189.673C79.6891 189.062 81.0093 187.812 81.9336 186.536C82.396 185.898 82.7388 185.281 82.8936 184.755C83.0499 184.224 82.9906 183.882 82.8037 183.668C82.8178 183.684 82.7738 183.637 82.5566 183.588C82.3641 183.545 82.1039 183.514 81.7891 183.497C81.1615 183.464 80.3724 183.485 79.5908 183.531C78.8119 183.577 78.0516 183.647 77.4854 183.704C77.2025 183.733 76.9686 183.759 76.8057 183.778C76.7242 183.787 76.6604 183.795 76.6172 183.8C76.5958 183.803 76.5794 183.805 76.5684 183.806C76.5629 183.807 76.5584 183.808 76.5557 183.808C76.5544 183.808 76.5524 183.808 76.5518 183.808L76.4922 183.816L76.4326 183.806L68.4883 182.506L69.1465 187.62L75.9521 189.62V189.619C76.1507 189.677 76.7835 189.752 77.4541 189.77C77.7807 189.779 78.0966 189.774 78.3516 189.75Z" fill="white" stroke="#2B2B2B" stroke-width="0.840194"/>
<path d="M38 184L29 162L37 154L41.25 163.5L47 174.5L70.5 180.5L68.5 190.5L38 184Z" fill="#3369FF"/>
<path d="M44 164.5L49.7787 176.057C49.9182 176.336 50.1797 176.534 50.4861 176.593L69.9986 180.309C70.5485 180.414 70.9053 180.95 70.79 181.498L69.1929 189.084C69.0844 189.599 68.5945 189.942 68.073 189.868L41.4864 186.069C41.1796 186.026 40.9137 185.848 40.7617 185.578C39.3805 183.126 32.45 170.75 32 168.5C31.5 166 30.6 157.6 37 154" stroke="black" stroke-width="0.8" stroke-linecap="round"/>
<path d="M62.5 162.5C65.0272 169.439 66.0809 173.185 67 179.5" stroke="black" stroke-width="0.8" stroke-linecap="round"/>
<path d="M261.5 210.5C261.833 213 261.6 218.7 258 221.5L257.5 268" stroke="black" stroke-width="0.6" stroke-linecap="round" stroke-linejoin="round"/>
<path d="M238.724 141.616C241.139 140.65 242.91 140.399 244.271 140.533C245.621 140.667 246.613 141.183 247.469 141.835C247.901 142.164 248.298 142.527 248.695 142.899C249.087 143.266 249.485 143.651 249.898 143.992C250.734 144.683 251.687 145.251 252.966 145.295L252.969 145.296C254 145.326 254.747 145.621 255.328 146.045C255.918 146.475 256.361 147.055 256.753 147.69C256.949 148.008 257.126 148.332 257.305 148.655C257.48 148.974 257.658 149.296 257.845 149.59C258.209 150.163 258.666 150.725 259.34 150.959V150.96C260.239 151.278 261.226 152.314 262.089 153.758C262.937 155.177 263.603 156.886 263.909 158.395C264.157 159.615 264.107 160.601 263.958 161.654C263.812 162.687 263.549 163.887 263.411 165.354C263.233 167.254 263.697 168.479 264.064 169.576C264.422 170.643 264.695 171.6 264.321 173.111C263.815 175.157 261.702 176.882 258.666 178.035C255.66 179.176 251.889 179.697 248.332 179.433C244.765 179.167 241.492 178.117 239.411 176.199C237.37 174.318 236.41 171.539 237.562 167.602C237.877 166.526 237.675 165.639 237.252 164.869C236.849 164.137 236.224 163.479 235.722 162.886C235.195 162.264 234.77 161.683 234.591 161.014C234.418 160.37 234.459 159.582 235.005 158.524C235.611 157.351 236.014 156.611 236.036 155.48C236.057 154.403 235.732 152.973 235.071 150.365C234.432 147.841 234.778 145.897 235.549 144.473C236.324 143.041 237.548 142.096 238.723 141.615L238.724 141.616Z" fill="white" stroke="#2B2B2B"/>
<path d="M43.9661 153.603C44.2817 155.777 46.2953 157.279 48.4633 156.965C50.6371 156.65 52.1397 154.636 51.8256 152.468L51.7376 151.858L50.566 143.772L45.6868 144.482L42.7043 144.914L43.9661 153.603Z" fill="white" stroke="#2B2B2B" stroke-width="0.840194"/>
<path d="M44.6045 147.261C46.8756 149.746 49.6638 151.272 52.1548 151.797L50.9233 143.296L45.6284 144.066L44.6063 147.261L44.6045 147.261Z" fill="black"/>
<path d="M41.3983 139.01L44.2757 147.088C44.2873 147.095 44.2993 147.102 44.3125 147.109C44.4256 147.169 44.5953 147.255 44.8143 147.355C45.2525 147.554 45.8883 147.808 46.6708 148.024C48.2382 148.458 50.3798 148.734 52.705 148.126L52.8413 148.087C53.5065 147.873 53.9841 147.396 54.3217 146.704C54.6419 146.047 54.8279 145.21 54.9102 144.265L54.9386 143.854C54.9743 143.161 54.959 142.433 54.9084 141.697L54.8462 140.959C54.6866 139.333 54.3842 137.751 54.1199 136.572C53.988 135.983 53.8651 135.497 53.7763 135.158C53.7508 135.061 53.7278 134.976 53.7084 134.904L46.1021 134.163L41.3983 139.01Z" fill="white" stroke="#2B2B2B" stroke-width="0.840194"/>
<path d="M53.9751 143.792L50.3396 143.974C50.5511 144.537 51.2662 145.729 52.4351 146.001C53.6039 146.273 53.9488 144.642 53.9751 143.792Z" stroke="black" stroke-width="0.6" stroke-linecap="round" stroke-linejoin="round"/>
<path d="M52.5 143C52.8333 143 53.3 142.7 52.5 141.5" stroke="black" stroke-width="0.6" stroke-linecap="round" stroke-linejoin="round"/>
<path d="M36 139.5C35.5 144 39.5 144.5 40 144.5C39.1898 140.854 41.3332 140.49 42.4421 140.75L42.4606 140.754C42.8252 140.839 43.2434 140.937 43.562 140.744C45.2717 139.708 44.6081 137.216 44 136C45 138 52 137.5 54.5 138C57 138.5 57.5 134 56 132C55.053 130.737 53.2136 129.496 51.9066 129.356C51.384 129.3 50.7561 129.161 50.3192 128.869C49.664 128.432 48.5765 128 47 128C45.0429 128 43.6178 128.443 42.8874 128.788C42.6325 128.908 42.3452 128.955 42.0654 128.922C39.8724 128.661 35.6266 129.892 36 134C36.5 139.5 36.5 135 36 139.5Z" fill="#2B2B2B" stroke="black" stroke-width="0.8" stroke-linecap="round" stroke-linejoin="round"/>
<path d="M40.0072 143.99C39.451 142.734 39.8823 141.326 40.9707 140.843C41.6831 140.528 42.5004 140.687 43.136 141.187L43.9967 144.343C43.7976 144.805 43.4518 145.182 42.9852 145.389C41.8968 145.872 40.5635 145.245 40.0072 143.99Z" fill="#2B2B2B"/>
<path d="M53.4304 140.185C53.5164 140.563 53.7683 140.826 53.9913 140.775C54.2144 140.724 54.3269 140.376 54.2413 140C54.1557 139.625 53.9034 139.36 53.6804 139.411C53.4573 139.462 53.3448 139.81 53.4304 140.185Z" fill="black"/>
<path d="M50.0137 140.673C50.107 141.082 50.3791 141.368 50.6216 141.312C50.8642 141.257 50.9852 140.881 50.8919 140.472C50.7986 140.063 50.5266 139.777 50.284 139.832C50.0414 139.888 49.9204 140.264 50.0137 140.673Z" fill="black"/>
<path d="M43.136 141.187C42.5004 140.687 41.6831 140.528 40.9707 140.843C39.8823 141.326 39.451 142.734 40.0072 143.99C40.5635 145.245 41.8968 145.872 42.9852 145.389C43.4518 145.182 43.7976 144.805 43.9967 144.343" stroke="black" stroke-width="0.840194" stroke-linecap="round"/>
<circle cx="166" cy="38" r="4" fill="#99B4FF"/>
<circle cx="180" cy="176" r="4" fill="#99B4FF"/>
<path d="M90.257 164.911C89.8679 165.679 89.1147 167.376 88.1559 168.683C87.675 169.338 87.1772 169.845 86.6923 170.093C86.4561 170.213 86.2348 170.265 86.0255 170.255C85.8189 170.244 85.594 170.171 85.3491 169.993C83.3794 168.558 82.4793 167.683 81.7855 166.055C81.459 165.289 81.0433 164.165 80.7915 163.028C80.5351 161.872 80.4682 160.788 80.7534 160.053C81.0391 159.317 81.4477 158.935 81.896 158.754C82.3586 158.567 82.9269 158.568 83.5662 158.728C84.8523 159.05 86.2577 159.97 87.2255 160.792L88.0197 161.466L87.9156 160.429L87.9158 160.425L87.9073 160.33C87.9025 160.264 87.8978 160.169 87.894 160.055C87.8863 159.825 87.8866 159.528 87.9168 159.241C87.9482 158.944 88.0067 158.705 88.0871 158.562C88.1248 158.494 88.155 158.472 88.1656 158.466C88.1691 158.464 88.1806 158.455 88.2218 158.461C88.8198 158.555 89.1384 159.02 89.4187 159.927C89.5574 160.376 89.6675 160.864 89.8103 161.409C89.9497 161.94 90.1157 162.503 90.357 163.039C90.5064 163.371 90.5879 163.564 90.5955 163.801C90.603 164.033 90.537 164.359 90.257 164.911Z" fill="white" stroke="#2B2B2B" stroke-width="0.840194"/>
</g>
<defs>
<clipPath id="clip0_8307_1522">
</clipPath>
</defs>
</svg>
