<svg width="300" height="300" viewBox="0 0 300 300" fill="none" xmlns="http://www.w3.org/2000/svg">
<path d="M145 70.9999C143 76.5999 145.5 80.3332 147 81.4999L153.5 81.5L155 72C157.833 71.8333 163.9 71.1 165.5 69.5C167.1 67.9 167.833 66.8333 168 66.5C168.5 65.3333 168.8 62.5999 166 60.9999C162.5 58.9999 163 58.9999 155 60.4999C148.6 61.6999 147.333 65.6666 147.5 67.4999C145.5 69.0999 145 70.4999 145 70.9999Z" fill="#F6F6F6"/>
<path d="M17.36 265.85C17.2274 265.85 17.1002 265.797 17.0064 265.704C16.9127 265.61 16.86 265.483 16.86 265.35C16.86 265.217 16.9127 265.09 17.0064 264.996C17.1002 264.903 17.2274 264.85 17.36 264.85L274.71 238.66C274.776 238.653 274.842 238.66 274.905 238.679C274.968 238.698 275.027 238.729 275.078 238.771C275.129 238.813 275.172 238.864 275.203 238.922C275.234 238.981 275.253 239.044 275.26 239.11C275.267 239.176 275.26 239.242 275.241 239.305C275.222 239.368 275.191 239.427 275.149 239.478C275.107 239.529 275.056 239.572 274.997 239.603C274.939 239.634 274.876 239.653 274.81 239.66L17.42 265.85H17.36Z" fill="#737373"/>
<path d="M93.42 239.19L92.07 262.82L124.17 287.6L214.34 276.21L216.32 257.69L186.5 231.29L93.42 239.19Z" fill="#F6F6F6"/>
<path d="M124.17 288.1C124.06 288.099 123.954 288.06 123.87 287.99L91.77 263.22C91.7043 263.17 91.6518 263.104 91.617 263.03C91.5821 262.955 91.566 262.872 91.57 262.79L92.92 239.16C92.9245 239.04 92.9728 238.926 93.0557 238.839C93.1386 238.753 93.2505 238.7 93.37 238.69L186.46 230.79C186.527 230.784 186.594 230.792 186.657 230.812C186.721 230.833 186.779 230.866 186.83 230.91L216.65 257.32C216.71 257.373 216.757 257.44 216.787 257.515C216.816 257.589 216.828 257.67 216.82 257.75L214.82 276.26C214.81 276.373 214.762 276.478 214.684 276.56C214.605 276.642 214.502 276.695 214.39 276.71L124.23 288.09L124.17 288.1ZM92.59 262.59L124.32 287.08L213.88 275.76L215.8 257.9L186.33 231.8L93.89 239.65L92.59 262.59Z" fill="#737373"/>
<path d="M186.5 231.29L93.42 239.19L124.74 267.66L216.32 257.69L186.5 231.29Z" fill="#F6F6F6"/>
<path d="M124.74 268.16C124.615 268.16 124.493 268.114 124.4 268.03L93.08 239.56C93.0076 239.495 92.9557 239.41 92.9309 239.316C92.906 239.222 92.9092 239.122 92.94 239.03C92.9729 238.939 93.0306 238.859 93.1065 238.799C93.1825 238.739 93.2737 238.701 93.37 238.69L186.46 230.79C186.527 230.784 186.594 230.792 186.657 230.812C186.721 230.833 186.779 230.866 186.83 230.91L216.65 257.32C216.724 257.384 216.778 257.468 216.805 257.562C216.831 257.657 216.83 257.757 216.8 257.85C216.77 257.941 216.714 258.021 216.64 258.082C216.565 258.142 216.475 258.179 216.38 258.19L124.79 268.19L124.74 268.16ZM94.6 239.59L124.91 267.14L215.14 257.32L186.33 231.8L94.6 239.59Z" fill="#737373"/>
<path d="M159.76 47.0001C146.76 54.9001 136.1 44.3501 135.99 44.2401L135.09 43.3301L140.75 36.5801L142.91 38.4001L139 43.1101C141.61 45.2201 149.2 50.1101 158.32 44.5801L159.76 47.0001Z" fill="#F6F6F6"/>
<path d="M149.84 50.44C141.53 50.44 135.72 44.68 135.64 44.6L134.74 43.68C134.655 43.5892 134.608 43.4694 134.608 43.345C134.608 43.2205 134.655 43.1008 134.74 43.01L140.39 36.26C140.477 36.1616 140.599 36.1007 140.73 36.09C140.863 36.0798 140.994 36.119 141.1 36.2L143.23 38C143.283 38.0398 143.327 38.091 143.358 38.1498C143.389 38.2085 143.407 38.2735 143.41 38.34C143.42 38.4695 143.38 38.5979 143.3 38.7L139.68 43C142.68 45.29 149.68 49.21 158.04 44.13C158.15 44.0617 158.284 44.0401 158.41 44.07C158.538 44.0996 158.65 44.1787 158.72 44.29L160.19 46.71C160.224 46.7663 160.247 46.829 160.258 46.8943C160.268 46.9596 160.265 47.0263 160.249 47.0904C160.233 47.1546 160.205 47.215 160.165 47.2681C160.126 47.3212 160.077 47.3661 160.02 47.4C156.975 49.3398 153.45 50.3926 149.84 50.44ZM135.77 43.3L136.35 43.89C136.45 44 146.63 54.01 159.07 46.83L158.12 45.27C149.01 50.51 141.49 45.8 138.65 43.5C138.549 43.4138 138.484 43.2921 138.47 43.16C138.459 43.0272 138.498 42.8951 138.58 42.79L142.21 38.46L140.81 37.29L135.77 43.3Z" fill="black"/>
<path d="M172.71 31.5599L170.07 30.5599C173.93 20.6199 167.79 13.9899 165.25 11.7899L161.3 16.4999L159.13 14.6799L164.79 7.93994L165.85 8.66994C166 8.71994 178.22 17.3599 172.71 31.5599Z" fill="#F6F6F6"/>
<path d="M172.71 32.06C172.651 32.074 172.589 32.074 172.53 32.06L169.89 31.06C169.769 31.0125 169.672 30.919 169.62 30.8C169.593 30.7386 169.579 30.6721 169.579 30.605C169.579 30.5378 169.593 30.4713 169.62 30.41C173.15 21.29 168.08 15.08 165.31 12.54L161.69 16.85C161.648 16.9006 161.597 16.9425 161.539 16.973C161.481 17.0036 161.418 17.0222 161.353 17.0278C161.287 17.0334 161.222 17.0258 161.159 17.0056C161.097 16.9854 161.039 16.9528 160.99 16.91L158.81 15C158.712 14.9109 158.649 14.7907 158.63 14.66C158.624 14.5934 158.632 14.5264 158.653 14.4628C158.673 14.3993 158.706 14.3405 158.75 14.29L164.4 7.54996C164.48 7.45382 164.593 7.39123 164.717 7.37457C164.842 7.35791 164.967 7.38837 165.07 7.45996L166.13 8.17996C166.26 8.26996 178.83 17.18 173.13 31.7C173.106 31.796 173.052 31.8821 172.977 31.9465C172.902 32.011 172.809 32.0506 172.71 32.06ZM170.71 30.25L172.42 30.91C177.32 17.4 165.68 9.12996 165.56 9.04996L164.88 8.57996L159.88 14.58L161.28 15.75L164.9 11.43C164.942 11.379 164.994 11.3369 165.053 11.3062C165.112 11.2756 165.176 11.2569 165.242 11.2513C165.308 11.2457 165.375 11.2533 165.438 11.2737C165.501 11.2941 165.56 11.3268 165.61 11.37C168.33 13.78 174.29 20.36 170.71 30.25Z" fill="black"/>
<path d="M157.51 12.46L138.1 35.19C138.1 35.19 147.76 43.64 156.1 46.35C163.03 48.62 167.18 47.81 169.81 46.35C170.893 46.7023 171.889 47.2819 172.73 48.05C174.099 49.4601 175.206 51.1023 176 52.9L181.32 46.54C179.384 46.2152 177.555 45.426 175.99 44.24C175.139 43.4739 174.381 42.6114 173.73 41.67C174.59 38.27 174.16 32.76 171.24 27.57C167.32 20.57 157.51 12.46 157.51 12.46Z" fill="#F6F6F6"/>
<path d="M176 53.3999C175.915 53.3896 175.835 53.3575 175.766 53.3066C175.698 53.2558 175.644 53.188 175.61 53.1099C174.832 51.3756 173.756 49.7915 172.43 48.4299C171.695 47.7587 170.831 47.2448 169.89 46.9199C166.41 48.7399 161.73 48.7099 155.98 46.8399C147.64 44.1199 138.21 35.9299 137.81 35.5799C137.711 35.4931 137.651 35.3711 137.642 35.2401C137.632 35.1092 137.675 34.9798 137.76 34.8799L157.17 12.1399C157.257 12.0421 157.378 11.9813 157.508 11.9701C157.638 11.959 157.768 11.9983 157.87 12.0799C158.27 12.4199 167.8 20.3399 171.74 27.3299C174.272 31.6166 175.19 36.6662 174.33 41.5699C174.934 42.4066 175.625 43.1775 176.39 43.8699C177.885 44.9938 179.626 45.7446 181.47 46.0599C181.558 46.0728 181.641 46.1095 181.709 46.1658C181.778 46.2222 181.83 46.2962 181.86 46.3799C181.892 46.4628 181.902 46.5529 181.888 46.6408C181.874 46.7287 181.837 46.8112 181.78 46.8799L176.45 53.2299C176.395 53.293 176.325 53.3416 176.246 53.3713C176.168 53.4009 176.083 53.4108 176 53.3999ZM169.78 45.8599C169.83 45.8504 169.88 45.8504 169.93 45.8599C171.087 46.222 172.15 46.8368 173.04 47.6599C174.313 48.9194 175.361 50.3872 176.14 51.9999L180.43 46.8799C178.699 46.5004 177.078 45.7309 175.69 44.6299C174.809 43.8481 174.024 42.9654 173.35 41.9999C173.306 41.9423 173.276 41.8754 173.262 41.8043C173.248 41.7331 173.251 41.6598 173.27 41.5899C174.03 38.5899 173.85 33.2099 170.83 27.8499C167.41 21.7899 159.4 14.7599 157.57 13.1999L138.81 35.1999C140.66 36.7599 149.02 43.5799 156.25 45.9399C161.83 47.7599 166.31 47.7799 169.57 45.9399C169.642 45.8931 169.724 45.8655 169.81 45.8599H169.78Z" fill="black"/>
<path d="M172.244 56.9844L184.725 42.0936C185.008 41.7562 185.413 41.545 185.852 41.5064C186.291 41.4678 186.726 41.605 187.064 41.8878L192.911 46.7892L178.297 64.2244L172.45 59.323C172.112 59.0401 171.901 58.6349 171.862 58.1963C171.824 57.7577 171.961 57.3218 172.244 56.9844Z" fill="#F6F6F6"/>
<path d="M178.3 64.73C178.181 64.7286 178.066 64.6901 177.97 64.62L172.13 59.72C171.705 59.3521 171.44 58.834 171.39 58.2745C171.339 57.715 171.508 57.1577 171.86 56.72L184.35 41.82C184.531 41.6032 184.753 41.4244 185.004 41.294C185.255 41.1636 185.529 41.084 185.81 41.06C186.093 41.0324 186.38 41.0624 186.651 41.1484C186.923 41.2343 187.174 41.3743 187.39 41.56L193.23 46.46C193.281 46.5 193.323 46.5499 193.354 46.6066C193.385 46.6633 193.404 46.7257 193.41 46.79C193.416 46.8566 193.409 46.9238 193.388 46.9874C193.368 47.051 193.334 47.1098 193.29 47.16L178.68 64.55C178.634 64.6063 178.576 64.6517 178.51 64.6828C178.445 64.7139 178.373 64.7301 178.3 64.73ZM186 42C185.831 41.9999 185.664 42.0365 185.51 42.1073C185.356 42.1781 185.22 42.2814 185.11 42.41L172.63 57.31C172.433 57.545 172.337 57.8484 172.364 58.1539C172.39 58.4593 172.536 58.7419 172.77 58.94L178.23 63.52L192.23 46.85L186.77 42.27C186.553 42.0921 186.28 41.9964 186 42Z" fill="black"/>
<path d="M193.908 45.267L176.975 65.4688C176.414 66.1376 176.502 67.1341 177.171 67.6947L179.478 69.6282C180.146 70.1888 181.143 70.1011 181.703 69.4323L198.637 49.2305C199.197 48.5618 199.11 47.5652 198.441 47.0047L196.134 45.0711C195.465 44.5105 194.469 44.5983 193.908 45.267Z" fill="#F6F6F6"/>
<path d="M180.5 70.52C180.012 70.5245 179.539 70.3502 179.17 70.03L176.86 68.09C176.651 67.9155 176.478 67.7016 176.352 67.4603C176.226 67.219 176.148 66.9552 176.124 66.6839C176.1 66.4127 176.129 66.1393 176.211 65.8795C176.293 65.6197 176.425 65.3786 176.6 65.17L193.54 45C193.715 44.7916 193.93 44.6198 194.171 44.4944C194.413 44.369 194.677 44.2925 194.948 44.2693C195.219 44.246 195.493 44.2765 195.752 44.359C196.011 44.4415 196.252 44.5744 196.46 44.75L198.77 46.69C198.979 46.8644 199.152 47.0784 199.278 47.3197C199.404 47.5609 199.482 47.8248 199.506 48.096C199.53 48.3673 199.5 48.6406 199.419 48.9004C199.337 49.1602 199.205 49.4013 199.03 49.61L182.09 69.81C181.892 70.0362 181.647 70.2168 181.373 70.3394C181.098 70.4619 180.801 70.5235 180.5 70.52ZM177.37 65.81C177.274 65.9161 177.202 66.0416 177.159 66.1779C177.116 66.3141 177.103 66.4581 177.12 66.6C177.132 66.7407 177.172 66.8777 177.237 67.003C177.302 67.1283 177.392 67.2394 177.5 67.33L179.81 69.27C180.032 69.4478 180.315 69.5326 180.598 69.5065C180.882 69.4804 181.144 69.3454 181.33 69.13L198.26 48.93C198.356 48.8238 198.428 48.6984 198.471 48.5621C198.514 48.4258 198.527 48.2819 198.51 48.14C198.498 47.9992 198.458 47.8623 198.393 47.737C198.328 47.6117 198.238 47.5005 198.13 47.41L195.82 45.47C195.6 45.2871 195.316 45.1992 195.031 45.2254C194.746 45.2517 194.483 45.39 194.3 45.61L177.37 65.81Z" fill="black"/>
<path d="M158.87 37.2999C158.798 37.2975 158.727 37.2802 158.661 37.2492C158.596 37.2183 158.538 37.1743 158.49 37.1199L156.59 34.88L153.68 35.18C153.587 35.1902 153.493 35.1741 153.408 35.1334C153.324 35.0928 153.253 35.0292 153.202 34.95C153.152 34.8707 153.126 34.779 153.125 34.6853C153.125 34.5916 153.151 34.4996 153.2 34.4199L154.74 31.92L153.56 29.2399C153.521 29.1556 153.507 29.0619 153.52 28.9698C153.532 28.8777 153.57 28.7911 153.63 28.7199C153.69 28.646 153.77 28.5907 153.86 28.5606C153.951 28.5305 154.048 28.5268 154.14 28.5499L156.98 29.25L159.17 27.25C159.241 27.1899 159.326 27.1499 159.418 27.1341C159.509 27.1183 159.603 27.1272 159.69 27.16C159.777 27.1943 159.853 27.2532 159.908 27.3294C159.963 27.4057 159.995 27.4961 160 27.59L160.22 30.51L162.76 32C162.841 32.0472 162.906 32.1166 162.949 32.1999C162.991 32.2832 163.009 32.3769 163 32.47C162.994 32.5624 162.962 32.6513 162.907 32.7258C162.852 32.8003 162.777 32.8573 162.69 32.8899L160 34L159.38 36.86C159.36 36.9516 159.315 37.0359 159.25 37.1031C159.184 37.1702 159.101 37.2177 159.01 37.24L158.87 37.2999ZM156.8 33.86C156.874 33.8591 156.948 33.8748 157.015 33.9059C157.083 33.9371 157.142 33.9829 157.19 34.04L158.6 35.7L159.06 33.57C159.077 33.49 159.113 33.4154 159.165 33.3526C159.217 33.2899 159.284 33.2409 159.36 33.2099L161.36 32.38L159.47 31.28C159.401 31.2394 159.343 31.1827 159.302 31.1147C159.26 31.0467 159.235 30.9696 159.23 30.8899L159.06 28.7099L157.43 30.17C157.37 30.224 157.297 30.2623 157.219 30.2815C157.14 30.3007 157.058 30.3002 156.98 30.28L154.86 29.76L155.74 31.76C155.779 31.8302 155.8 31.9094 155.8 31.99C155.8 32.0705 155.779 32.1497 155.74 32.22L154.59 34.08L156.76 33.86H156.8Z" fill="#737373"/>
<path d="M135.08 59.5099C138.962 57.8551 142.339 55.2061 144.87 51.8299C145.141 51.5125 145.302 51.1163 145.33 50.6999C145.33 49.6299 144.04 48.9799 144.49 47.7899C144.79 46.9999 146.76 46.4999 146.36 45.4999C145.96 44.4999 142.36 40.5699 140.69 41.8399C139.02 43.1099 136.38 43.9199 136.16 45.6499C135.94 47.3799 135.95 48.5899 135.23 49.3099C134.51 50.0299 131 52.6599 131 52.6899C131 52.7199 134.7 58.8599 135.08 59.5099Z" fill="#F6F6F6"/>
<path d="M135.08 60.0001C134.994 59.9998 134.91 59.9765 134.836 59.9325C134.762 59.8885 134.701 59.8255 134.66 59.7501L134 58.7001C130.24 52.6301 130.24 52.6301 130.69 52.2901C132.32 51.0501 134.38 49.4501 134.87 48.9601C135.356 48.2117 135.601 47.332 135.57 46.4401C135.57 46.1701 135.63 45.8801 135.67 45.5901C135.85 44.1201 137.33 43.2701 138.77 42.4501C139.329 42.1493 139.87 41.8154 140.39 41.4501C140.653 41.266 140.957 41.1481 141.276 41.1063C141.594 41.0646 141.918 41.1001 142.22 41.2101C144.14 41.7601 146.44 44.3801 146.82 45.3301C147.2 46.2801 146.33 46.9001 145.69 47.3301C145.39 47.5401 145.02 47.7901 144.96 47.9701C144.8 48.4001 144.96 48.7101 145.29 49.2301C145.603 49.6603 145.79 50.1694 145.83 50.7001C145.804 51.2171 145.611 51.7117 145.28 52.1101C142.696 55.5644 139.247 58.2757 135.28 59.9701C135.216 59.9951 135.148 60.0054 135.08 60.0001ZM131.61 52.8301C132.16 53.8301 134 56.8301 134.85 58.1701L135.28 58.8601C138.913 57.2414 142.073 54.7218 144.46 51.5401C144.661 51.301 144.789 51.0096 144.83 50.7001C144.798 50.3347 144.658 49.9869 144.43 49.7001C144.19 49.407 144.027 49.0588 143.955 48.6869C143.884 48.3151 143.906 47.9312 144.02 47.5701C144.273 47.1028 144.655 46.7177 145.12 46.4601C145.71 46.0601 145.97 45.8301 145.9 45.6401C144.96 44.0812 143.564 42.8489 141.9 42.1101C141.739 42.0407 141.564 42.0117 141.39 42.0256C141.216 42.0395 141.047 42.096 140.9 42.1901C140.351 42.5792 139.78 42.9365 139.19 43.2601C137.91 44.0001 136.7 44.6901 136.58 45.6601C136.58 45.9501 136.51 46.2301 136.48 46.5001C136.34 47.8401 136.22 48.8901 135.48 49.6101C134.74 50.3301 132.68 52.0001 131.61 52.8401V52.8301Z" fill="black"/>
<path d="M156.49 93.5499C156.49 93.5499 120.19 82.4399 120.77 76.9999C121.35 71.5599 140.11 59.6699 140.11 59.6699L130.92 49.8999C130.92 49.8999 103.15 64.5399 102 78.8999C100.85 93.2599 134.08 109.06 134.08 109.06L156.49 93.5499Z" fill="#255DF9"/>
<path d="M136.94 243.24C136.94 243.24 136.28 247.51 137.27 249.15C138.599 251.463 139.386 254.048 139.57 256.71C138.783 257.589 137.822 258.296 136.748 258.784C135.674 259.273 134.51 259.534 133.33 259.55C129.39 259.55 125.44 256.6 125.01 255.17C124.58 253.74 128.18 238.64 128.18 238.64L136.94 243.24Z" fill="#F6F6F6"/>
<path d="M133.33 260.05C129.08 260.05 125.03 256.94 124.53 255.32C124.03 253.7 127.09 241.07 127.69 238.53C127.708 238.456 127.743 238.387 127.791 238.328C127.84 238.269 127.901 238.222 127.97 238.19C128.038 238.156 128.114 238.138 128.19 238.138C128.266 238.138 128.342 238.156 128.41 238.19L137.17 242.79C137.263 242.837 137.339 242.914 137.385 243.007C137.432 243.101 137.448 243.207 137.43 243.31C137.26 244.45 136.97 247.67 137.7 248.89C139.072 251.258 139.879 253.91 140.06 256.64C140.069 256.705 140.065 256.771 140.048 256.835C140.03 256.899 140.001 256.958 139.96 257.01C139.128 257.951 138.109 258.708 136.967 259.232C135.825 259.755 134.586 260.034 133.33 260.05ZM128.52 239.38C126.85 246.43 125.25 254.15 125.52 255.03C125.87 256.19 129.61 259.03 133.36 259.03C134.431 259.011 135.487 258.78 136.467 258.349C137.448 257.918 138.332 257.296 139.07 256.52C138.882 254.008 138.13 251.571 136.87 249.39C135.96 247.87 136.28 244.63 136.43 243.5L128.52 239.38Z" fill="black"/>
<path d="M169.37 148.76L150 152.29L150.55 97.29C150.55 97.29 166.55 94.99 170.15 97.08C173.75 99.17 169.37 148.76 169.37 148.76Z" fill="#F6F6F6"/>
<path d="M150 152.79C149.879 152.791 149.762 152.749 149.67 152.67C149.614 152.625 149.569 152.566 149.54 152.5C149.51 152.434 149.496 152.362 149.5 152.29L150.05 97.2901C150.051 97.1705 150.095 97.0553 150.174 96.9654C150.253 96.8754 150.362 96.8168 150.48 96.8001C151.14 96.7101 166.67 94.5101 170.4 96.6601C174.13 98.8101 170.61 140.51 169.86 148.85C169.851 148.957 169.807 149.058 169.734 149.138C169.662 149.217 169.566 149.271 169.46 149.29L150.08 152.82L150 152.79ZM151.05 97.6901L150.5 151.69L168.9 148.34C171 124.54 172.06 98.7301 169.9 97.4801C167.14 95.8901 155.75 97.0001 151.05 97.6901Z" fill="black"/>
<path d="M164.09 234.34V247.18L170.22 248.93L170.07 246.31L172.85 249.08C172.85 249.08 189.32 252.08 189.23 249.85C189.14 247.62 187.48 246.45 185.4 245.36C183.17 244.18 177.3 240.87 177.3 240.87L176.42 231.45" fill="#F6F6F6"/>
<path d="M186.16 251.14C181.662 250.935 177.184 250.41 172.76 249.57C172.658 249.55 172.565 249.501 172.49 249.43L170.64 247.58L170.72 248.91C170.724 248.989 170.709 249.067 170.676 249.139C170.643 249.21 170.593 249.272 170.53 249.32C170.469 249.373 170.396 249.409 170.317 249.425C170.238 249.441 170.156 249.436 170.08 249.41L164 247.66C163.896 247.63 163.805 247.566 163.74 247.48C163.675 247.393 163.64 247.288 163.64 247.18V234.34C163.64 234.207 163.693 234.08 163.786 233.986C163.88 233.893 164.007 233.84 164.14 233.84C164.273 233.84 164.4 233.893 164.494 233.986C164.587 234.08 164.64 234.207 164.64 234.34V246.8L169.73 248.26L169.62 246.33C169.616 246.229 169.642 246.129 169.696 246.043C169.749 245.958 169.827 245.89 169.92 245.85C170.013 245.81 170.115 245.799 170.215 245.817C170.314 245.834 170.406 245.881 170.48 245.95L173.14 248.61C180.14 249.87 188.14 250.67 188.8 249.81C188.71 248.01 187.3 246.9 185.22 245.81C183.14 244.72 177.16 241.35 177.1 241.31C177.03 241.272 176.971 241.218 176.927 241.151C176.883 241.085 176.857 241.009 176.85 240.93L175.97 231.51C175.964 231.444 175.971 231.378 175.991 231.315C176.01 231.252 176.042 231.194 176.085 231.143C176.127 231.093 176.179 231.051 176.237 231.02C176.295 230.99 176.359 230.971 176.425 230.965C176.491 230.959 176.557 230.966 176.62 230.986C176.683 231.005 176.741 231.037 176.792 231.08C176.842 231.122 176.884 231.174 176.915 231.232C176.945 231.29 176.964 231.354 176.97 231.42L177.82 240.57C178.92 241.19 183.73 243.9 185.68 244.93C187.63 245.96 189.68 247.36 189.78 249.84C189.783 249.981 189.754 250.121 189.695 250.249C189.636 250.377 189.549 250.49 189.44 250.58C188.424 251.08 187.284 251.275 186.16 251.14Z" fill="black"/>
<path d="M134.65 152.59L123.26 242.36C123.26 242.36 123.74 245.93 131.48 246.36C139.22 246.79 138.48 244.98 138.48 244.98L156.88 181.19L161.88 237.96L178.58 238.96L175.26 145.58L134.65 152.59Z" fill="black"/>
<path d="M133.72 246.94C133.03 246.94 132.28 246.94 131.45 246.87C123.45 246.41 122.78 242.59 122.76 242.43V242.3L134.16 152.53C134.172 152.423 134.218 152.323 134.292 152.246C134.366 152.168 134.464 152.117 134.57 152.1L175.1 145.1C175.17 145.087 175.242 145.089 175.311 145.107C175.38 145.124 175.444 145.156 175.5 145.2C175.553 145.246 175.596 145.303 175.627 145.367C175.658 145.43 175.676 145.499 175.68 145.57L179 239C179.002 239.069 178.989 239.137 178.964 239.2C178.938 239.264 178.899 239.322 178.85 239.37C178.8 239.419 178.741 239.457 178.675 239.481C178.61 239.505 178.54 239.515 178.47 239.51L161.77 238.51C161.651 238.503 161.538 238.454 161.452 238.372C161.366 238.289 161.312 238.179 161.3 238.06L156.58 183.94L139 245C139.023 245.259 138.952 245.518 138.8 245.73C138.19 246.54 136.54 246.94 133.72 246.94ZM123.72 242.34C123.83 242.74 124.8 245.49 131.47 245.87C137.52 246.21 137.92 245.14 137.92 245.12C137.898 245.078 137.887 245.032 137.887 244.985C137.887 244.938 137.898 244.892 137.92 244.85L156.32 181.06C156.352 180.947 156.423 180.85 156.52 180.784C156.617 180.718 156.733 180.688 156.85 180.7C156.964 180.711 157.071 180.763 157.152 180.845C157.232 180.927 157.281 181.035 157.29 181.15L162.22 237.5L177.94 238.5L174.66 146.24L135.1 153L123.72 242.34Z" fill="black"/>
<path d="M154.7 90.71C154.7 90.71 154.96 154.13 151.7 157.65C148.44 161.17 135 165 129.6 159.83C124.2 154.66 131.71 105.83 134.7 101.96C142.5 96.53 154.7 90.71 154.7 90.71Z" fill="#255DF9"/>
<path d="M181.91 95.85C181.91 95.85 185.85 157.44 183.91 159.02C181.97 160.6 169.63 163.23 167.17 161.25C164.71 159.27 164.89 93.76 164.89 93.76C164.89 93.76 175.49 94.62 181.91 95.85Z" fill="#255DF9"/>
<path d="M161.03 103.24L159.28 105.7L164.92 142.82L160.9 147.8L155.93 143.35L157.56 106.07L155.66 103.35L158.13 101.63L161.03 103.24Z" fill="#737373"/>
<path d="M164 89.0001L165.61 96.8901C165.61 96.8901 165.32 100.7 159.79 100.55C154.26 100.4 152.72 96.9401 152.72 96.9401L150.24 82.1301C150.24 82.1301 153.07 79.1901 150.12 70.9601C150.12 70.9601 158.77 71.7301 166.38 69.0701C166.38 69.0701 168.53 78.6301 168.77 82.8301C169.01 87.0301 164 89.0001 164 89.0001Z" fill="#F6F6F6"/>
<path d="M160.15 101.05H159.82C154.04 100.89 152.37 97.2998 152.3 97.1498C152.296 97.11 152.296 97.0697 152.3 97.0298L149.83 82.2098C149.819 82.133 149.825 82.0547 149.847 81.9804C149.87 81.9061 149.908 81.8376 149.96 81.7798C149.96 81.7798 152.52 78.8898 149.73 71.1298C149.7 71.0515 149.692 70.9666 149.706 70.8839C149.72 70.8013 149.756 70.7239 149.81 70.6599C149.859 70.5908 149.926 70.5365 150.003 70.503C150.081 70.4695 150.166 70.458 150.25 70.4698C150.33 70.4698 158.88 71.1898 166.25 68.5998C166.315 68.5726 166.385 68.5586 166.455 68.5586C166.525 68.5586 166.595 68.5726 166.66 68.5998C166.722 68.6327 166.776 68.6782 166.819 68.7333C166.862 68.7884 166.893 68.852 166.91 68.9198C167 69.3198 169.07 78.5598 169.3 82.7698C169.52 86.6098 165.84 88.6798 164.61 89.2598L166.14 96.7498C166.145 96.793 166.145 96.8367 166.14 96.8798C166.14 96.8798 165.77 101.05 160.15 101.05ZM153.24 96.7898C153.46 97.2098 155.03 99.9199 159.85 100.05C164.67 100.18 165.08 97.3799 165.14 96.9099L163.55 89.0998C163.526 88.9848 163.544 88.865 163.601 88.7622C163.658 88.6594 163.75 88.5805 163.86 88.5398C163.86 88.5398 168.52 86.6498 168.31 82.8598C167.808 78.4436 167.053 74.0598 166.05 69.7299C161.133 71.1889 156.001 71.791 150.88 71.5098C153.14 78.3298 151.4 81.5098 150.81 82.2698L153.24 96.7898Z" fill="black"/>
<path d="M152.68 81.1801C152.349 80.4963 151.805 79.9383 151.13 79.59C150.498 79.3028 149.822 79.1236 149.13 79.06C148.752 78.9696 148.358 78.9696 147.98 79.06C147.722 79.1522 147.486 79.2989 147.29 79.49C146.773 79.8839 146.417 80.4528 146.29 81.09C146.253 81.6061 146.339 82.1235 146.54 82.6C146.719 83.1389 146.971 83.6504 147.29 84.1201C147.616 84.583 148.03 84.9766 148.509 85.278C148.988 85.5794 149.522 85.7825 150.081 85.8756C150.639 85.9686 151.21 85.9498 151.761 85.82C152.312 85.6903 152.832 85.4524 153.29 85.1201" fill="#F6F6F6"/>
<path d="M150.73 86.46C150.472 86.4603 150.215 86.4402 149.96 86.4C149.335 86.2899 148.738 86.0563 148.204 85.7129C147.67 85.3695 147.21 84.9232 146.85 84.4C146.507 83.8962 146.234 83.3478 146.04 82.77C145.81 82.217 145.717 81.6166 145.77 81.02C145.91 80.2654 146.319 79.587 146.92 79.11C147.166 78.8797 147.455 78.6997 147.77 78.58C148.22 78.4561 148.691 78.4356 149.15 78.52C149.912 78.5895 150.656 78.789 151.35 79.11C152.137 79.5246 152.763 80.1896 153.13 81C153.159 81.0591 153.176 81.1233 153.18 81.189C153.184 81.2546 153.175 81.3204 153.154 81.3826C153.132 81.4449 153.099 81.5023 153.055 81.5516C153.012 81.6009 152.959 81.6411 152.9 81.67C152.841 81.6989 152.777 81.7159 152.711 81.7199C152.645 81.724 152.58 81.7151 152.517 81.6938C152.455 81.6724 152.398 81.639 152.348 81.5955C152.299 81.5519 152.259 81.4991 152.23 81.44C151.96 80.8246 151.492 80.3175 150.9 80C150.306 79.732 149.67 79.5696 149.02 79.52C148.717 79.4485 148.402 79.4485 148.1 79.52C147.905 79.5966 147.725 79.7084 147.57 79.85C147.156 80.1753 146.87 80.6353 146.76 81.15C146.731 81.5848 146.807 82.0202 146.98 82.42C147.145 82.9162 147.377 83.3873 147.67 83.82C147.957 84.2258 148.321 84.5707 148.742 84.8348C149.163 85.0989 149.631 85.2771 150.121 85.3589C150.612 85.4407 151.113 85.4246 151.597 85.3115C152.08 85.1984 152.537 84.9906 152.94 84.7C152.993 84.6611 153.053 84.6331 153.117 84.6176C153.181 84.6021 153.248 84.5994 153.313 84.6096C153.378 84.6198 153.44 84.6428 153.496 84.6772C153.553 84.7116 153.601 84.7567 153.64 84.81C153.716 84.9182 153.747 85.0516 153.726 85.1822C153.706 85.3128 153.635 85.4303 153.53 85.51C152.721 86.1153 151.74 86.4479 150.73 86.46Z" fill="black"/>
<path d="M160.9 76.0701C160.9 76.0701 164.65 79.4601 164.18 80.3301C163.71 81.2001 161.77 81.1901 161.77 81.1901" fill="#F6F6F6"/>
<path d="M161.79 81.6901C161.657 81.6901 161.53 81.6374 161.436 81.5436C161.343 81.4499 161.29 81.3227 161.29 81.1901C161.29 81.0575 161.343 80.9303 161.436 80.8365C161.53 80.7428 161.657 80.6901 161.79 80.6901C162.45 80.6901 163.52 80.5001 163.79 80.0901C163.79 79.7101 162.31 77.9701 160.61 76.4401C160.563 76.3936 160.526 76.3383 160.501 76.2774C160.475 76.2164 160.462 76.1511 160.462 76.0851C160.462 76.0191 160.475 75.9537 160.501 75.8928C160.526 75.8319 160.563 75.7766 160.61 75.7301C160.656 75.6835 160.71 75.6465 160.77 75.6213C160.83 75.596 160.895 75.583 160.96 75.583C161.025 75.583 161.09 75.596 161.15 75.6213C161.21 75.6465 161.264 75.6835 161.31 75.7301C163.16 77.4001 165.24 79.6001 164.7 80.6001C164.16 81.6001 162.1 81.6901 161.79 81.6901Z" fill="black"/>
<path d="M164 89C164 89 159.89 89.75 157.77 89C157.77 89 160.21 93.41 164.89 93.79L164 89Z" fill="black"/>
<path d="M164.93 94.2599C160.04 93.8599 157.52 89.3999 157.42 89.2099C157.371 89.1223 157.35 89.022 157.359 88.9222C157.368 88.8223 157.406 88.7274 157.47 88.6499C157.535 88.5718 157.623 88.5156 157.722 88.4888C157.82 88.462 157.924 88.4659 158.02 88.4999C160.02 89.2199 163.95 88.4999 164.02 88.4999C164.15 88.4791 164.282 88.5091 164.39 88.5836C164.498 88.6581 164.573 88.7714 164.6 88.8999L165.49 93.6599C165.506 93.7343 165.504 93.8117 165.483 93.885C165.462 93.9583 165.423 94.0253 165.37 94.0799C165.319 94.1455 165.251 94.1966 165.174 94.2282C165.097 94.2597 165.013 94.2707 164.93 94.2599ZM158.93 89.7399C160.246 91.4974 162.153 92.7194 164.3 93.1799L163.62 89.5699C162.092 89.8124 160.541 89.8695 159 89.7399H158.93Z" fill="black"/>
<path d="M176 155.79C175.935 155.793 175.87 155.781 175.81 155.757C175.75 155.733 175.695 155.697 175.65 155.65L169.05 149.12C168.958 149.025 168.906 148.897 168.906 148.765C168.906 148.632 168.958 148.505 169.05 148.41C169.096 148.363 169.152 148.326 169.213 148.3C169.274 148.275 169.339 148.262 169.405 148.262C169.471 148.262 169.536 148.275 169.597 148.3C169.658 148.326 169.713 148.363 169.76 148.41L176.35 154.94C176.398 154.985 176.436 155.039 176.462 155.099C176.488 155.159 176.502 155.224 176.502 155.29C176.502 155.355 176.488 155.42 176.462 155.481C176.436 155.541 176.398 155.595 176.35 155.64C176.305 155.688 176.251 155.726 176.191 155.752C176.131 155.778 176.066 155.791 176 155.79Z" fill="black"/>
<path d="M135.84 152.17C135.728 152.17 135.62 152.134 135.532 152.065C135.443 151.997 135.381 151.902 135.353 151.794C135.325 151.686 135.335 151.571 135.379 151.469C135.424 151.367 135.502 151.283 135.6 151.23C140.2 148.77 145.2 145.89 145.6 145.32C145.654 145.202 145.753 145.11 145.875 145.065C145.997 145.02 146.132 145.025 146.25 145.08C146.37 145.14 146.463 145.244 146.509 145.37C146.556 145.497 146.552 145.636 146.5 145.76C146.12 146.63 139.79 150.12 136.05 152.11C135.986 152.146 135.914 152.167 135.84 152.17Z" fill="black"/>
<path d="M166.59 120.57C166.472 120.57 166.359 120.527 166.27 120.45C166.169 120.363 166.107 120.24 166.095 120.107C166.084 119.974 166.125 119.843 166.21 119.74L173.83 110.83L169.32 107.34C169.253 107.291 169.199 107.226 169.165 107.151C169.13 107.076 169.114 106.993 169.12 106.91C169.129 106.828 169.157 106.748 169.202 106.679C169.248 106.61 169.308 106.552 169.38 106.51L173.47 104.28L169.1 99.0499C169.057 98.999 169.025 98.94 169.006 98.8765C168.986 98.8131 168.98 98.7463 168.986 98.6802C168.993 98.6141 169.012 98.55 169.044 98.4916C169.075 98.4331 169.118 98.3816 169.17 98.3399C169.22 98.2976 169.278 98.2658 169.341 98.2464C169.404 98.2269 169.47 98.2203 169.535 98.2268C169.6 98.2333 169.663 98.2529 169.721 98.2844C169.779 98.3158 169.829 98.3585 169.87 98.4099L174.63 104.11C174.679 104.165 174.714 104.231 174.733 104.302C174.752 104.373 174.754 104.448 174.74 104.52C174.726 104.593 174.697 104.662 174.654 104.723C174.611 104.783 174.555 104.833 174.49 104.87L170.49 107.02L174.81 110.37C174.865 110.409 174.91 110.46 174.943 110.519C174.976 110.578 174.995 110.643 175 110.71C175.008 110.778 175.001 110.847 174.98 110.913C174.96 110.978 174.925 111.039 174.88 111.09L166.88 120.39C166.808 120.483 166.705 120.547 166.59 120.57Z" fill="black"/>
<path d="M157 184.18H156.92C156.855 184.17 156.792 184.148 156.736 184.114C156.68 184.08 156.631 184.035 156.592 183.982C156.553 183.929 156.525 183.869 156.509 183.805C156.493 183.741 156.49 183.675 156.5 183.61C156.5 183.41 159.77 163.26 159.56 159.61C159.555 159.479 159.601 159.351 159.689 159.254C159.777 159.156 159.899 159.098 160.03 159.09C160.16 159.084 160.288 159.129 160.387 159.214C160.485 159.3 160.547 159.42 160.56 159.55C160.78 163.29 157.62 182.91 157.49 183.75C157.471 183.867 157.412 183.975 157.323 184.053C157.233 184.132 157.119 184.177 157 184.18Z" fill="#F6F6F6"/>
<path d="M144.71 78.58C144.611 78.5795 144.515 78.5498 144.433 78.4946C144.351 78.4395 144.287 78.3613 144.25 78.27C143.582 76.5271 143.416 74.6321 143.769 72.7994C144.123 70.9668 144.982 69.2697 146.25 67.9L146.37 67.77C146.574 67.5839 146.75 67.3682 146.89 67.13C146.97 66.9355 147.033 66.7348 147.08 66.53V66.34C147.44 65.175 148.04 64.0982 148.841 63.1786C149.641 62.259 150.626 61.5169 151.73 61C153.876 59.9991 156.188 59.3992 158.55 59.23C160.395 58.9403 162.278 59.0013 164.1 59.41C165.056 59.6332 165.948 60.0743 166.706 60.6987C167.464 61.3231 168.068 62.1141 168.47 63.01C168.859 63.9589 168.894 65.016 168.569 65.9887C168.244 66.9614 167.581 67.7852 166.7 68.31C166.635 68.3439 166.563 68.3627 166.489 68.3651C166.416 68.3674 166.343 68.3531 166.275 68.3233C166.208 68.2936 166.149 68.249 166.101 68.1931C166.053 68.1371 166.019 68.0711 166 68C165.941 67.8819 165.931 67.7452 165.972 67.6196C166.013 67.4941 166.102 67.3899 166.22 67.33C166.881 66.918 167.373 66.2842 167.61 65.5422C167.846 64.8002 167.811 63.9983 167.51 63.28C167.165 62.5295 166.652 61.8684 166.01 61.3482C165.368 60.8279 164.616 60.4624 163.81 60.28C162.109 59.9024 160.351 59.8481 158.63 60.12C156.39 60.2817 154.198 60.8475 152.16 61.79C151.18 62.2483 150.307 62.9069 149.598 63.7233C148.888 64.5398 148.357 65.4959 148.04 66.53V66.71C147.985 66.9936 147.894 67.2692 147.77 67.53C147.587 67.8601 147.354 68.1603 147.08 68.42L146.97 68.53C145.842 69.7677 145.078 71.2936 144.764 72.9387C144.45 74.5837 144.597 76.2836 145.19 77.85C145.236 77.9721 145.233 78.1074 145.18 78.227C145.128 78.3466 145.031 78.441 144.91 78.49C144.852 78.5368 144.783 78.5678 144.71 78.58Z" fill="black"/>
<path d="M151.18 121.65C151.102 121.651 151.025 121.633 150.956 121.598C150.886 121.564 150.826 121.513 150.78 121.45L143 110.88C142.923 110.789 142.88 110.674 142.88 110.555C142.88 110.436 142.923 110.321 143 110.23L147.72 105.36L141.82 103.82C141.737 103.8 141.66 103.758 141.599 103.698C141.537 103.638 141.493 103.563 141.47 103.48C141.445 103.397 141.443 103.31 141.462 103.226C141.481 103.141 141.522 103.064 141.58 103L148.7 95.38C148.793 95.2884 148.919 95.2371 149.05 95.2371C149.181 95.2371 149.307 95.2884 149.4 95.38C149.447 95.4265 149.484 95.4818 149.509 95.5427C149.535 95.6036 149.548 95.669 149.548 95.735C149.548 95.801 149.535 95.8664 149.509 95.9273C149.484 95.9882 149.447 96.0435 149.4 96.09L142.86 103.09L148.77 104.63C148.855 104.652 148.933 104.696 148.996 104.758C149.059 104.819 149.105 104.896 149.13 104.98C149.153 105.064 149.155 105.152 149.134 105.236C149.112 105.32 149.07 105.397 149.01 105.46L144.01 110.64L151.53 120.87C151.57 120.923 151.599 120.983 151.616 121.047C151.632 121.111 151.635 121.178 151.625 121.244C151.614 121.309 151.591 121.372 151.556 121.428C151.521 121.484 151.474 121.532 151.42 121.57C151.349 121.619 151.266 121.647 151.18 121.65Z" fill="black"/>
<path d="M155.05 75.55C155.05 75.55 156.2 73.25 158.3 75.16L155.05 75.55Z" fill="#F6F6F6"/>
<path d="M155.05 76.0499C154.97 76.0491 154.891 76.0284 154.82 75.9899C154.702 75.9299 154.613 75.8258 154.572 75.7003C154.531 75.5747 154.541 75.438 154.6 75.3199C154.778 74.9829 155.023 74.6864 155.321 74.4489C155.618 74.2114 155.962 74.0381 156.33 73.9399C156.755 73.8875 157.186 73.9373 157.588 74.0852C157.99 74.233 158.35 74.4746 158.64 74.7899C158.687 74.8364 158.724 74.8917 158.749 74.9526C158.775 75.0135 158.788 75.0789 158.788 75.1449C158.788 75.2109 158.775 75.2762 158.749 75.3372C158.724 75.3981 158.687 75.4534 158.64 75.4999C158.595 75.5477 158.541 75.5858 158.481 75.6119C158.42 75.6379 158.356 75.6514 158.29 75.6514C158.224 75.6514 158.159 75.6379 158.099 75.6119C158.039 75.5858 157.985 75.5477 157.94 75.4999C157.761 75.2945 157.537 75.1328 157.286 75.027C157.034 74.9213 156.762 74.8744 156.49 74.8899C156.275 74.9582 156.076 75.0686 155.905 75.2145C155.733 75.3604 155.592 75.539 155.49 75.7399C155.454 75.8281 155.393 75.9042 155.315 75.9591C155.237 76.0141 155.145 76.0455 155.05 76.0499Z" fill="black"/>
<path d="M162.71 75.26C162.71 75.26 163.28 72.39 165.58 74.21L162.71 75.26Z" fill="#F6F6F6"/>
<path d="M162.71 75.7599H162.61C162.481 75.7311 162.369 75.6535 162.296 75.5435C162.223 75.4335 162.196 75.2996 162.22 75.1699C162.284 74.7489 162.446 74.3488 162.693 74.0015C162.939 73.6542 163.264 73.3694 163.64 73.1699C164.036 73.0661 164.452 73.0678 164.846 73.1748C165.241 73.2818 165.601 73.4905 165.89 73.7799C165.995 73.8621 166.063 73.9826 166.078 74.1148C166.094 74.247 166.057 74.3802 165.975 74.4849C165.893 74.5897 165.772 74.6575 165.64 74.6734C165.508 74.6894 165.375 74.6521 165.27 74.5699C164.91 74.2799 164.39 73.9599 163.99 74.1099C163.59 74.2599 163.25 75.1099 163.2 75.3299C163.183 75.4484 163.125 75.5569 163.035 75.6358C162.945 75.7147 162.83 75.7587 162.71 75.7599Z" fill="black"/>
<path d="M166.54 81.2C166.54 81.2 161.23 89.81 156.92 81.77L166.54 81.2Z" fill="#F6F6F6"/>
<path d="M161.13 85.7H161C159.27 85.7 157.74 84.41 156.46 82.01C156.428 81.9523 156.408 81.8888 156.401 81.8234C156.394 81.7579 156.4 81.6916 156.419 81.6285C156.437 81.5653 156.468 81.5064 156.51 81.4552C156.551 81.4039 156.602 81.3614 156.66 81.33C156.777 81.2687 156.914 81.2553 157.04 81.2926C157.167 81.3299 157.275 81.415 157.34 81.53C158.44 83.59 159.68 84.66 161.03 84.7C163.67 84.77 166.03 80.97 166.09 80.93C166.162 80.8192 166.274 80.7405 166.403 80.7107C166.531 80.6808 166.667 80.7021 166.78 80.77C166.837 80.8038 166.886 80.8487 166.926 80.9021C166.965 80.9556 166.992 81.0163 167.007 81.0808C167.022 81.1453 167.024 81.2121 167.013 81.2773C167.001 81.3425 166.976 81.4046 166.94 81.46C166.86 81.63 164.31 85.7 161.13 85.7Z" fill="black"/>
<path d="M190.77 71.9999C190.77 71.9999 187.7 68.9999 187.61 66.8299C187.52 64.6599 188.37 63.5799 189.04 60.8299C189.71 58.0799 188.04 56.8299 189.14 55.1799C190.24 53.5299 192.3 50.5599 194 50.9999C194.484 51.1188 194.927 51.3681 195.279 51.7207C195.632 52.0733 195.881 52.5157 196 52.9999L197.34 50.8899C197.34 50.8899 198.34 53.4799 196.67 57.3099C195 61.1399 197.15 67.0699 197.15 67.0699L190.77 71.9999Z" fill="#F6F6F6"/>
<path d="M190.77 72.5C190.705 72.5027 190.64 72.4917 190.58 72.4675C190.52 72.4434 190.465 72.4068 190.42 72.36C190.29 72.24 187.21 69.23 187.11 66.85C187.078 65.5778 187.317 64.3133 187.81 63.14C188.105 62.3344 188.355 61.5131 188.56 60.68C188.774 59.71 188.736 58.7013 188.45 57.75C188.261 57.2813 188.187 56.7739 188.236 56.2707C188.285 55.7676 188.454 55.2836 188.73 54.86L188.86 54.68C190.17 52.81 192.16 50 194.15 50.55C194.944 50.7506 195.637 51.2342 196.1 51.91L196.95 50.57C197 50.4918 197.072 50.4292 197.156 50.3893C197.24 50.3494 197.333 50.3338 197.426 50.3442C197.518 50.3546 197.606 50.3906 197.679 50.4482C197.753 50.5057 197.808 50.5826 197.84 50.67C197.84 50.78 198.84 53.49 197.16 57.45C195.63 61.06 197.63 66.8 197.65 66.86C197.685 66.9584 197.689 67.0653 197.66 67.1657C197.631 67.2662 197.572 67.3551 197.49 67.42L191.07 72.42C190.981 72.4785 190.876 72.5066 190.77 72.5ZM193.63 51.5C192.33 51.5 190.63 53.93 189.63 55.28L189.51 55.46C189.04 56.12 189.17 56.69 189.38 57.54C189.705 58.6456 189.743 59.8158 189.49 60.94C189.277 61.8036 189.016 62.6549 188.71 63.49C188.262 64.5454 188.044 65.6839 188.07 66.83C188.13 68.3 189.83 70.37 190.77 71.36L196.55 66.87C196.12 65.51 194.73 60.55 196.2 57.08C196.889 55.5501 197.191 53.8742 197.08 52.2L196.41 53.2C196.357 53.284 196.28 53.35 196.189 53.3893C196.098 53.4285 195.997 53.4393 195.9 53.42C195.802 53.4022 195.712 53.3556 195.64 53.2861C195.569 53.2166 195.52 53.1275 195.5 53.03C195.387 52.6506 195.175 52.3084 194.884 52.0393C194.594 51.7702 194.237 51.5839 193.85 51.5C193.778 51.483 193.704 51.4762 193.63 51.48V51.5Z" fill="black"/>
<path d="M181.91 95.85C181.91 95.85 199.03 96.79 200.52 92.76C202.01 88.73 187.37 72.29 187.37 72.29L198.57 64C198.57 64 223.05 92.08 217.57 102.49C212.09 112.9 178.93 117.14 178.93 117.14L181.91 95.85Z" fill="#255DF9"/>
<path d="M124.17 288.1C124.036 288.095 123.91 288.037 123.819 287.94C123.727 287.843 123.677 287.713 123.68 287.58L124.25 267.65C124.258 267.519 124.314 267.396 124.409 267.305C124.503 267.214 124.629 267.162 124.76 267.16C124.892 267.165 125.016 267.221 125.108 267.316C125.199 267.411 125.25 267.538 125.25 267.67L124.68 287.61C124.679 287.676 124.664 287.74 124.638 287.801C124.612 287.861 124.574 287.915 124.526 287.961C124.479 288.006 124.423 288.042 124.362 288.066C124.301 288.09 124.236 288.101 124.17 288.1Z" fill="#737373"/>
<path d="M128 141.12C127.935 141.119 127.87 141.104 127.811 141.078C127.751 141.051 127.697 141.013 127.653 140.966C127.608 140.918 127.573 140.862 127.55 140.801C127.528 140.74 127.517 140.675 127.52 140.61C128.09 120.26 135.08 98.16 135.15 97.95C135.165 97.8808 135.194 97.8156 135.236 97.7586C135.277 97.7016 135.331 97.6541 135.392 97.6192C135.454 97.5843 135.522 97.5628 135.592 97.5562C135.662 97.5495 135.733 97.5579 135.8 97.5806C135.867 97.6034 135.928 97.6401 135.98 97.6883C136.032 97.7365 136.073 97.795 136.1 97.8602C136.127 97.9253 136.141 97.9955 136.139 98.0661C136.137 98.1368 136.121 98.2062 136.09 98.27C136.02 98.47 129.09 120.43 128.52 140.64C128.517 140.706 128.502 140.77 128.474 140.83C128.447 140.89 128.408 140.943 128.36 140.988C128.311 141.032 128.255 141.067 128.193 141.09C128.131 141.112 128.066 141.123 128 141.12Z" fill="black"/>
<path d="M184.61 146.75C184.479 146.747 184.354 146.693 184.263 146.6C184.171 146.506 184.12 146.381 184.12 146.25C184.4 130.98 179.95 105.25 179.91 104.95C179.887 104.82 179.916 104.686 179.99 104.577C180.065 104.469 180.18 104.394 180.31 104.37C180.441 104.349 180.575 104.381 180.683 104.457C180.791 104.534 180.866 104.65 180.89 104.78C180.94 105.04 185.4 130.91 185.12 146.26C185.12 146.326 185.107 146.391 185.081 146.452C185.055 146.513 185.017 146.568 184.969 146.614C184.922 146.659 184.865 146.695 184.804 146.718C184.742 146.742 184.676 146.753 184.61 146.75Z" fill="black"/>
<path d="M236.7 159H236.59C236.524 158.997 236.46 158.982 236.4 158.954C236.34 158.927 236.287 158.888 236.242 158.84C236.198 158.791 236.163 158.735 236.14 158.673C236.118 158.611 236.107 158.546 236.11 158.48C236.111 158.415 236.126 158.351 236.152 158.291C236.178 158.231 236.217 158.178 236.264 158.133C236.312 158.088 236.368 158.053 236.429 158.031C236.49 158.008 236.555 157.997 236.62 158C237.037 157.988 237.447 157.894 237.827 157.724C238.208 157.553 238.55 157.308 238.836 157.004C239.121 156.7 239.344 156.343 239.49 155.952C239.637 155.562 239.705 155.147 239.69 154.73C239.627 154.281 239.52 153.838 239.37 153.41C239.21 152.938 239.093 152.453 239.02 151.96C238.72 149.28 240.81 146.96 245.23 145.1C245.351 145.054 245.485 145.057 245.604 145.108C245.722 145.159 245.817 145.253 245.867 145.372C245.918 145.491 245.92 145.625 245.874 145.746C245.828 145.867 245.737 145.965 245.62 146.02C241.62 147.7 239.77 149.66 240.01 151.85C240.078 152.281 240.181 152.706 240.32 153.12C240.497 153.608 240.618 154.115 240.68 154.63C240.724 155.19 240.647 155.752 240.456 156.28C240.264 156.808 239.962 157.289 239.57 157.69C239.205 158.092 238.763 158.415 238.27 158.64C237.776 158.865 237.242 158.988 236.7 159Z" fill="#737373"/>
<path d="M81.57 49.2499C81.4374 49.2499 81.3102 49.1972 81.2164 49.1034C81.1227 49.0097 81.07 48.8825 81.07 48.7499C81.07 48.6173 81.1227 48.4901 81.2164 48.3963C81.3102 48.3026 81.4374 48.2499 81.57 48.2499C81.7343 48.2351 81.8925 48.1799 82.0303 48.0892C82.1682 47.9984 82.2814 47.875 82.36 47.7299C82.5268 47.4265 82.6257 47.0906 82.6498 46.7453C82.674 46.3999 82.6229 46.0535 82.5 45.7299C82.211 45.0959 81.8376 44.5038 81.39 43.9699C80.9821 43.4563 80.6207 42.9075 80.31 42.3299C80.0766 41.8681 79.9427 41.3625 79.9168 40.8458C79.891 40.329 79.9738 39.8126 80.16 39.3299C80.2715 39.0399 80.4459 38.7783 80.6707 38.5638C80.8955 38.3494 81.1651 38.1875 81.46 38.0899C81.5926 38.0488 81.7361 38.062 81.8589 38.1267C81.9818 38.1914 82.0739 38.3023 82.115 38.4349C82.1561 38.5675 82.1428 38.711 82.0781 38.8338C82.0134 38.9567 81.9026 39.0488 81.77 39.0899C81.6121 39.1427 81.4681 39.2303 81.3486 39.3463C81.2292 39.4622 81.1374 39.6036 81.08 39.7599C80.959 40.1037 80.9073 40.468 80.9279 40.8319C80.9485 41.1957 81.041 41.5519 81.2 41.8799C81.4862 42.4066 81.821 42.9054 82.2 43.3699C82.7013 43.9778 83.1184 44.6505 83.44 45.3699C83.6262 45.8433 83.7031 46.3527 83.665 46.86C83.6269 47.3674 83.4748 47.8595 83.22 48.2999C83.059 48.5814 82.8319 48.8195 82.5584 48.9937C82.2849 49.1679 81.9731 49.273 81.65 49.2999L81.57 49.2499Z" fill="#737373"/>
<path d="M103.1 159.58C102.722 159.576 102.352 159.469 102.03 159.27C101.974 159.235 101.926 159.19 101.887 159.136C101.849 159.083 101.822 159.022 101.807 158.958C101.792 158.894 101.79 158.828 101.801 158.763C101.812 158.698 101.835 158.636 101.87 158.58C101.904 158.525 101.948 158.476 102.001 158.438C102.053 158.4 102.113 158.373 102.176 158.358C102.24 158.343 102.305 158.341 102.37 158.351C102.434 158.362 102.495 158.385 102.55 158.42C102.747 158.532 102.973 158.583 103.199 158.567C103.425 158.551 103.641 158.468 103.82 158.33C104.206 158.058 104.515 157.69 104.715 157.262C104.915 156.834 104.999 156.361 104.96 155.89C104.727 154.811 104.278 153.791 103.64 152.89C103.267 152.309 102.933 151.705 102.64 151.08C102.369 150.469 102.223 149.81 102.211 149.142C102.199 148.474 102.321 147.81 102.57 147.19C102.723 146.843 102.949 146.533 103.234 146.282C103.519 146.032 103.856 145.847 104.22 145.74C104.353 145.704 104.494 145.723 104.613 145.791C104.732 145.86 104.819 145.972 104.855 146.105C104.891 146.238 104.872 146.379 104.804 146.498C104.736 146.617 104.623 146.704 104.49 146.74C104.266 146.808 104.061 146.925 103.888 147.083C103.715 147.24 103.579 147.434 103.49 147.65C103.11 148.64 103.139 149.741 103.57 150.71C103.849 151.292 104.163 151.856 104.51 152.4C105.214 153.408 105.707 154.547 105.96 155.75C106.023 156.409 105.91 157.073 105.632 157.674C105.354 158.274 104.922 158.791 104.38 159.17C104.003 159.43 103.558 159.572 103.1 159.58Z" fill="#737373"/>
<path d="M226.56 51.28C226.162 51.28 225.781 51.4381 225.499 51.7194C225.218 52.0007 225.06 52.3822 225.06 52.78C225.06 53.1779 225.218 53.5594 225.499 53.8407C225.781 54.122 226.162 54.28 226.56 54.28C226.958 54.28 227.339 54.122 227.621 53.8407C227.902 53.5594 228.06 53.1779 228.06 52.78C228.06 52.3822 227.902 52.0007 227.621 51.7194C227.339 51.4381 226.958 51.28 226.56 51.28Z" fill="#737373"/>
<path d="M198.37 161.39L194.63 160.64L195.82 154.69L199.56 155.43L198.37 161.39ZM195.81 159.85L197.59 160.21L198.38 156.21L196.6 155.86L195.81 159.85Z" fill="#737373"/>
<path d="M88.24 93.28L86.74 88.87L90.09 87.73L91.58 92.15L88.24 93.28ZM88 89.49L88.85 92.01L90.31 91.52L89.46 89L88 89.49Z" fill="#737373"/>
<path d="M52 77C51.7348 77 51.4804 77.1054 51.2929 77.2929C51.1054 77.4804 51 77.7348 51 78C51 78.2652 51.1054 78.5196 51.2929 78.7071C51.4804 78.8946 51.7348 79 52 79C52.2652 79 52.5196 78.8946 52.7071 78.7071C52.8946 78.5196 53 78.2652 53 78C53 77.7348 52.8946 77.4804 52.7071 77.2929C52.5196 77.1054 52.2652 77 52 77Z" fill="#737373"/>
<path d="M72.27 159.77C69.7 159.77 69.69 163.77 72.27 163.77C74.85 163.77 74.85 159.77 72.27 159.77Z" fill="#737373"/>
<path d="M41 245.19C40.8786 245.191 40.761 245.148 40.669 245.069C40.577 244.99 40.517 244.88 40.5 244.76C40.1326 241.802 40.4525 238.799 41.435 235.984C42.4174 233.17 44.0358 230.62 46.1644 228.533C48.2929 226.446 50.8742 224.878 53.7075 223.951C56.5407 223.025 59.5496 222.764 62.5 223.19C61.4999 219.321 61.5836 215.251 62.7422 211.426C63.9007 207.601 66.0893 204.168 69.0683 201.504C72.0473 198.84 75.7019 197.047 79.632 196.322C83.562 195.596 87.616 195.965 91.35 197.39C92.26 192.49 93.4 187.39 96 182.92C99 177.76 103.74 174.35 108.65 173.81C115.07 173.11 120.21 177.59 120.98 182.24C121 182.37 120.969 182.502 120.892 182.609C120.815 182.716 120.7 182.788 120.57 182.81C120.439 182.83 120.305 182.799 120.197 182.722C120.089 182.646 120.014 182.53 119.99 182.4C119.23 177.78 113.99 174.23 108.76 174.8C104.17 175.31 99.76 178.53 96.86 183.43C94.24 187.92 93.13 193.17 92.22 198.17C92.2084 198.244 92.1798 198.314 92.1364 198.374C92.093 198.435 92.036 198.485 91.97 198.52C91.9028 198.552 91.8294 198.568 91.755 198.568C91.6806 198.568 91.6071 198.552 91.54 198.52C87.9114 197.016 83.931 196.572 80.0602 197.238C76.1893 197.904 72.5866 199.654 69.6695 202.284C66.7525 204.914 64.6407 208.318 63.5788 212.099C62.5169 215.881 62.5485 219.886 63.67 223.65C63.6946 223.733 63.6974 223.82 63.6782 223.904C63.6589 223.988 63.6182 224.066 63.56 224.13C63.5028 224.193 63.4304 224.239 63.3498 224.266C63.2692 224.292 63.1831 224.297 63.1 224.28C60.2548 223.741 57.3225 223.882 54.5421 224.691C51.7617 225.501 49.2119 226.955 47.1005 228.937C44.989 230.919 43.3757 233.372 42.3921 236.095C41.4084 238.819 41.0822 241.736 41.44 244.61C41.4498 244.675 41.4464 244.742 41.4299 244.805C41.4134 244.869 41.3842 244.929 41.3441 244.981C41.3039 245.034 41.2537 245.077 41.1962 245.11C41.1388 245.142 41.0755 245.163 41.01 245.17L41 245.19Z" fill="#737373"/>
<path d="M216.43 173.47C216.032 173.47 215.651 173.628 215.369 173.909C215.088 174.191 214.93 174.572 214.93 174.97C214.93 175.368 215.088 175.749 215.369 176.031C215.651 176.312 216.032 176.47 216.43 176.47C216.828 176.47 217.209 176.312 217.491 176.031C217.772 175.749 217.93 175.368 217.93 174.97C217.93 174.572 217.772 174.191 217.491 173.909C217.209 173.628 216.828 173.47 216.43 173.47Z" fill="#737373"/>
<path d="M231.07 116C230.672 116 230.291 116.158 230.009 116.439C229.728 116.721 229.57 117.102 229.57 117.5C229.57 117.898 229.728 118.279 230.009 118.561C230.291 118.842 230.672 119 231.07 119C231.468 119 231.849 118.842 232.131 118.561C232.412 118.279 232.57 117.898 232.57 117.5C232.57 117.102 232.412 116.721 232.131 116.439C231.849 116.158 231.468 116 231.07 116Z" fill="#737373"/>
<path d="M49.05 143.48H49C48.9352 143.47 48.8731 143.448 48.8172 143.414C48.7614 143.38 48.7129 143.335 48.6747 143.282C48.6365 143.228 48.6093 143.168 48.5947 143.104C48.5802 143.041 48.5786 142.974 48.59 142.91C48.7962 141.527 48.6688 140.115 48.2182 138.791C47.7677 137.467 47.0071 136.27 46 135.3L45.67 135C45.2363 134.702 44.8656 134.322 44.5791 133.881C44.2925 133.44 44.0957 132.947 44 132.43C44.0233 131.921 44.1497 131.422 44.3714 130.963C44.5932 130.504 44.9056 130.095 45.29 129.76C45.7023 129.34 46.0404 128.853 46.29 128.32C46.89 126.76 45.51 125.1 44.29 123.63L44.01 123.29C43.483 122.677 43.0877 121.962 42.8486 121.189C42.6094 120.417 42.5316 119.604 42.62 118.8C42.6953 118.42 42.8596 118.063 43.0995 117.759C43.3394 117.455 43.648 117.212 44 117.05C44.0592 117.011 44.1259 116.986 44.1957 116.975C44.2656 116.964 44.3369 116.968 44.4052 116.986C44.4734 117.005 44.5369 117.038 44.5914 117.083C44.646 117.128 44.6905 117.184 44.7218 117.247C44.7531 117.31 44.7707 117.38 44.7732 117.45C44.7758 117.521 44.7634 117.591 44.7367 117.657C44.7101 117.722 44.6699 117.781 44.6187 117.83C44.5676 117.879 44.5067 117.916 44.44 117.94C44.2337 118.041 44.0545 118.19 43.9171 118.375C43.7798 118.559 43.6882 118.773 43.65 119C43.5897 119.658 43.6631 120.322 43.8659 120.951C44.0687 121.58 44.3966 122.161 44.83 122.66L45.11 123C46.43 124.59 48.11 126.57 47.27 128.67C46.9801 129.319 46.5772 129.912 46.08 130.42C45.5 131.09 45 131.67 45.08 132.42C45.16 133.17 45.74 133.71 46.4 134.31L46.74 134.63C47.8567 135.714 48.698 137.049 49.1938 138.524C49.6896 139.999 49.8254 141.572 49.59 143.11C49.5577 143.225 49.4859 143.325 49.3872 143.393C49.2884 143.461 49.1691 143.491 49.05 143.48Z" fill="#737373"/>
<path d="M252.41 78.6598C252.292 78.6595 252.179 78.6169 252.09 78.5398C251.989 78.4527 251.927 78.3297 251.915 78.197C251.904 78.0644 251.945 77.9326 252.03 77.8298C252.684 77.0254 253.057 76.0294 253.093 74.9934C253.129 73.9574 252.826 72.9379 252.23 72.0898L252 71.7898C251.22 70.7898 250.15 69.3598 251.15 68.1998C251.615 67.7507 252.233 67.4936 252.88 67.4798C253.203 67.4519 253.52 67.3743 253.82 67.2498C253.962 67.1723 254.086 67.0668 254.186 66.9395C254.286 66.8123 254.359 66.6661 254.4 66.5098C254.561 65.764 254.444 64.9849 254.07 64.3198C253.87 63.9598 253.63 63.5998 253.39 63.2498C252.778 62.4715 252.347 61.5661 252.13 60.5998C252.082 60.0958 252.171 59.5882 252.387 59.1305C252.604 58.6729 252.94 58.2822 253.36 57.9998C253.633 57.8049 253.957 57.696 254.292 57.6871C254.627 57.6782 254.957 57.7697 255.24 57.9498C255.296 57.9844 255.345 58.03 255.383 58.0838C255.421 58.1376 255.448 58.1985 255.462 58.2629C255.476 58.3273 255.477 58.3939 255.464 58.4587C255.452 58.5235 255.427 58.5851 255.39 58.6398C255.318 58.7511 255.205 58.8293 255.076 58.8575C254.947 58.8856 254.811 58.8613 254.7 58.7898C254.583 58.7081 254.443 58.6643 254.3 58.6643C254.157 58.6643 254.017 58.7081 253.9 58.7898C253.636 58.9741 253.425 59.2244 253.288 59.5157C253.152 59.807 253.093 60.1291 253.12 60.4498C253.317 61.2685 253.693 62.0334 254.22 62.6898C254.48 63.0698 254.73 63.4498 254.95 63.8398C255.471 64.7488 255.615 65.826 255.35 66.8398C255.272 67.1215 255.136 67.3841 254.952 67.6112C254.768 67.8382 254.539 68.025 254.28 68.1598C253.881 68.3414 253.456 68.4562 253.02 68.4998C252.617 68.4916 252.224 68.6262 251.91 68.8798C251.47 69.3898 252.03 70.1998 252.8 71.2098L253.03 71.5198C253.76 72.5527 254.132 73.7962 254.088 75.0602C254.045 76.3243 253.589 77.5394 252.79 78.5198C252.74 78.5689 252.681 78.6068 252.615 78.6309C252.55 78.6551 252.48 78.6649 252.41 78.6598Z" fill="#737373"/>
<path d="M281.19 109.28C280.792 109.28 280.411 109.438 280.129 109.719C279.848 110.001 279.69 110.382 279.69 110.78C279.69 111.178 279.848 111.559 280.129 111.841C280.411 112.122 280.792 112.28 281.19 112.28C281.588 112.28 281.969 112.122 282.251 111.841C282.532 111.559 282.69 111.178 282.69 110.78C282.69 110.382 282.532 110.001 282.251 109.719C281.969 109.438 281.588 109.28 281.19 109.28Z" fill="#737373"/>
<path d="M249.91 231.1C249.815 231.098 249.723 231.07 249.644 231.019C249.564 230.967 249.501 230.895 249.46 230.81C247.54 226.76 245.3 224.16 242.61 222.87C239.61 221.43 235.23 221.93 233.48 224.96C233.431 225.047 233.357 225.117 233.268 225.161C233.179 225.206 233.079 225.223 232.98 225.21C232.883 225.195 232.792 225.152 232.719 225.087C232.646 225.021 232.594 224.935 232.57 224.84C231.19 219.6 227.77 215.41 223.42 213.64C218.68 211.7 212.84 213.16 210.12 216.96C210.058 217.045 209.97 217.109 209.869 217.141C209.769 217.173 209.66 217.173 209.56 217.14C209.461 217.105 209.375 217.04 209.314 216.954C209.253 216.868 209.22 216.765 209.22 216.66C209.29 210.97 206.66 203.97 200.64 201.15C199.087 200.479 197.407 200.151 195.716 200.189C194.025 200.227 192.361 200.63 190.84 201.37C189.603 201.91 188.503 202.722 187.621 203.745C186.74 204.768 186.101 205.976 185.75 207.28C185.719 207.408 185.639 207.519 185.526 207.589C185.414 207.658 185.279 207.68 185.15 207.65C185.086 207.636 185.025 207.609 184.971 207.571C184.918 207.533 184.872 207.484 184.838 207.428C184.803 207.372 184.78 207.31 184.77 207.245C184.76 207.18 184.764 207.114 184.78 207.05C185.165 205.601 185.871 204.258 186.846 203.119C187.82 201.98 189.038 201.075 190.41 200.47C192.063 199.663 193.872 199.225 195.711 199.187C197.55 199.149 199.375 199.512 201.06 200.25C207.01 203.03 209.86 209.59 210.19 215.32C211.952 213.597 214.182 212.43 216.602 211.966C219.022 211.502 221.526 211.761 223.8 212.71C226.068 213.725 228.088 215.223 229.718 217.099C231.348 218.974 232.55 221.182 233.24 223.57C235.54 220.86 239.95 220.49 243.04 221.97C245.95 223.37 248.35 226.12 250.36 230.38C250.389 230.439 250.406 230.503 250.41 230.569C250.414 230.635 250.405 230.7 250.384 230.763C250.363 230.825 250.329 230.882 250.286 230.932C250.242 230.981 250.189 231.021 250.13 231.05C250.061 231.081 249.986 231.098 249.91 231.1Z" fill="#737373"/>
</svg>
