<svg width="300" height="300" viewBox="0 0 300 300" fill="none" xmlns="http://www.w3.org/2000/svg">
<path d="M68.5963 245.663L54.2731 262.442C54.2731 262.442 26.5544 246.885 27.5727 243.819C28.5909 240.753 46.6024 245.381 46.6024 245.381L55.5403 233.795" fill="white"/>
<path d="M54.273 263.007C54.173 263.009 54.0747 262.982 53.9902 262.928C45.5388 258.188 25.9887 246.806 27.0408 243.638C28.093 240.47 41.6695 243.548 46.3874 244.77L55.099 233.456C55.1924 233.34 55.3269 233.265 55.4745 233.246C55.622 233.227 55.7712 233.266 55.8909 233.354C56.0092 233.446 56.0863 233.581 56.1054 233.729C56.1245 233.878 56.084 234.027 55.9927 234.146L47.0549 245.731C46.9875 245.819 46.8958 245.885 46.7913 245.921C46.6867 245.958 46.5738 245.962 46.4666 245.935C38.0152 243.763 28.6248 242.473 28.1043 244.012C27.8554 245.765 41.3414 254.533 54.126 261.74L68.1663 245.29C68.2673 245.195 68.3998 245.14 68.5387 245.136C68.6776 245.132 68.8131 245.179 68.9194 245.268C69.0257 245.358 69.0953 245.483 69.115 245.621C69.1347 245.758 69.1031 245.898 69.0262 246.014L54.6917 262.793C54.6437 262.859 54.5808 262.913 54.508 262.95C54.4353 262.987 54.3548 263.007 54.273 263.007Z" fill="black"/>
<path d="M114.688 86.3996C113.186 84.9306 111.293 83.9251 109.235 83.5033C107.47 83.2431 106.497 83.9898 105.026 84.6347C104.438 84.8949 104.37 85.7661 103.748 86.0263C103.126 86.2865 101.847 85.6416 101.134 85.619C99.2319 85.5125 97.3305 85.8483 95.5795 86.6001C93.8286 87.3519 92.2756 88.4993 91.0426 89.9522C89.516 92.089 88.3256 94.4469 87.5127 96.9441C83.2814 107.624 76.7986 118.35 66.2655 122.966C75.7804 129.754 87.4109 134.064 99.0754 133.386C104.774 133.047 110.331 131.468 115.356 128.758C119.304 126.62 126.477 122.196 127.19 117.286C127.858 112.681 125.674 105.622 124.226 101.277C122.424 95.5592 119.132 90.424 114.688 86.3996Z" fill="white"/>
<path d="M96.6771 133.997C86.3476 133.997 75.5317 130.286 65.9376 123.407C65.8583 123.347 65.7958 123.268 65.7561 123.177C65.7165 123.085 65.701 122.985 65.7114 122.887C65.7211 122.789 65.7566 122.695 65.8142 122.616C65.8719 122.536 65.9496 122.474 66.0395 122.434C74.7963 118.61 81.6524 110.193 86.9925 96.7292L87.2301 96.1183C88.0264 93.7803 89.1707 91.5757 90.6243 89.5789C91.9106 88.0586 93.5328 86.8583 95.3629 86.0729C97.1929 85.2875 99.1805 84.9385 101.169 85.0534C101.553 85.0845 101.933 85.1605 102.3 85.2797C102.696 85.4209 103.113 85.4898 103.533 85.4833C103.658 85.4833 103.771 85.2344 103.895 85.0308C104.07 84.6367 104.373 84.3135 104.755 84.1144C105.038 83.9899 105.298 83.8542 105.547 83.7297C106.665 83.0464 107.979 82.7557 109.281 82.9038C111.448 83.3622 113.44 84.4253 115.028 85.9698C119.54 90.0667 122.885 95.286 124.724 101.096C126.33 105.893 128.378 112.783 127.711 117.377C127.009 122.151 120.741 126.428 115.594 129.256C110.494 131.99 104.863 133.584 99.0869 133.929C98.295 133.974 97.4917 133.997 96.6771 133.997ZM67.3971 123.102C77.3419 129.992 88.5425 133.454 99.0756 132.843C104.686 132.523 110.158 130.979 115.107 128.317C122.065 124.55 126.161 120.635 126.647 117.264C127.281 112.919 125.278 106.188 123.717 101.515C121.94 95.8915 118.704 90.8399 114.338 86.8749C112.916 85.4756 111.128 84.5068 109.179 84.0804C108.1 83.9607 107.013 84.2164 106.101 84.8045C105.841 84.929 105.57 85.0647 105.276 85.1892C105.12 85.3106 104.999 85.4705 104.925 85.653C104.729 86.079 104.382 86.4175 103.952 86.6034C103.317 86.719 102.663 86.6564 102.062 86.4224C101.763 86.3326 101.456 86.2683 101.146 86.2301C99.3292 86.1108 97.5094 86.4157 95.8306 87.1206C94.1518 87.8255 92.6599 88.9111 91.4728 90.2917C90.0998 92.1961 89.024 94.298 88.2823 96.5256L88.0334 97.1365C82.7612 110.441 76.0069 118.927 67.3971 123.102Z" fill="black"/>
<path d="M95.0365 122.457C96.9146 120.477 90.115 122.015 89.4815 135.004C88.995 144.914 92.1968 161.104 92.1968 161.104L70.9043 178.912L84.0622 182.668C84.0622 182.668 108.059 165.223 108.047 163.944C108.036 162.666 95.0365 122.457 95.0365 122.457Z" fill="white"/>
<path d="M84.0621 183.189C84.0137 183.2 83.9635 183.2 83.915 183.189L70.7571 179.433C70.6671 179.405 70.5861 179.353 70.5225 179.284C70.4589 179.214 70.4149 179.129 70.3951 179.037C70.3791 178.945 70.3875 178.851 70.4192 178.764C70.451 178.676 70.5051 178.599 70.5761 178.539L91.631 160.935C91.2011 158.672 88.5084 144.123 88.961 135.004C89.4248 125.602 93.1471 121.699 94.8781 121.291C95.0417 121.231 95.2209 121.227 95.387 121.28C95.5531 121.334 95.6966 121.441 95.7945 121.586C95.8694 121.752 95.8922 121.937 95.8599 122.117C95.8276 122.297 95.7417 122.462 95.6135 122.592C97.978 129.89 108.511 162.7 108.568 163.944C108.624 165.189 95.4098 175.054 84.3676 183.087C84.2791 183.152 84.1722 183.188 84.0621 183.189ZM71.979 178.663L83.9603 182.058C92.7058 175.699 106.509 165.358 107.516 163.831C107.165 161.919 99.5959 138.262 94.5387 122.57C93.2149 123.554 90.3978 126.926 90.0132 135.015C89.538 144.756 92.6945 160.833 92.7285 161.037C92.7444 161.128 92.7361 161.222 92.7043 161.31C92.6726 161.397 92.6185 161.474 92.5474 161.534L71.979 178.663Z" fill="black"/>
<path d="M132.519 111.697C131.738 111.086 97.1295 113.236 91.1559 124.787C85.1822 136.339 106.678 171.174 106.678 171.174L150.451 158.061C150.451 158.061 153.574 128.17 132.519 111.697Z" fill="#255DF9"/>
<path d="M257.638 259.002H125.391C125.251 259.001 125.117 258.944 125.018 258.844C124.837 258.652 106.135 239.441 111.758 213.419C115.831 194.571 137.848 181.673 153.925 172.26C160.464 168.436 166.098 165.132 169.515 162.078C171.712 160.23 173.451 157.899 174.595 155.266C175.739 152.634 176.258 149.772 176.111 146.906C175.692 137.855 169.198 128.023 158.292 120.07C154.547 117.332 150.451 114.741 146.491 112.229C130.2 101.922 113.365 91.2534 113.908 66.8384C114.338 47.605 129.532 34.8204 129.69 34.696C129.781 34.6161 129.898 34.5718 130.019 34.5715H253.01C253.131 34.5738 253.247 34.6178 253.339 34.696C253.486 34.8204 268.68 47.5597 269.121 66.8384C269.664 91.2534 252.818 101.911 236.526 112.229C232.578 114.741 228.482 117.332 224.726 120.07C213.831 127.989 207.337 137.81 206.918 146.906C206.769 149.772 207.285 152.633 208.428 155.265C209.57 157.898 211.307 160.23 213.503 162.078C216.897 165.087 222.554 168.391 229.093 172.26C245.17 181.673 267.198 194.571 271.271 213.419C276.928 239.441 258.192 258.674 258 258.844C257.954 258.894 257.898 258.934 257.836 258.962C257.773 258.989 257.706 259.003 257.638 259.002ZM125.606 257.962H257.411C259.142 256.117 275.513 237.88 270.264 213.634C266.281 195.227 244.48 182.476 228.573 173.154C221.999 169.307 216.309 165.981 212.824 162.892C210.502 160.942 208.666 158.478 207.46 155.696C206.254 152.913 205.713 149.888 205.877 146.861C206.319 137.447 212.96 127.378 224.115 119.232C227.905 116.472 232.035 113.87 235.983 111.313C252.026 101.13 268.612 90.6425 268.08 66.8157C267.684 48.9966 254.334 36.8795 252.818 35.5671H130.211C128.695 36.8795 115.345 48.9966 114.937 66.8157C114.406 90.6425 131.003 101.153 147.046 111.313C151.017 113.824 155.124 116.427 158.903 119.232C170.058 127.378 176.71 137.447 177.14 146.861C177.3 149.88 176.757 152.896 175.554 155.67C174.35 158.444 172.519 160.901 170.205 162.847C166.709 165.936 161.03 169.262 154.456 173.108C138.538 182.431 116.748 195.182 112.765 213.589C107.527 237.88 123.875 256.117 125.606 257.962Z" fill="#737373"/>
<path d="M152.397 105.814C156.482 108.405 160.713 111.075 164.718 114.005C174.182 120.602 181.312 130.029 185.083 140.932C188.726 151.386 187.707 162.519 189.97 173.323C189.999 173.738 190.123 174.141 190.333 174.5C190.543 174.859 190.833 175.165 191.181 175.394C191.701 175.607 192.274 175.656 192.823 175.532C193.371 175.409 193.868 175.12 194.247 174.704C194.854 173.912 195.216 172.96 195.288 171.966C196.713 163.299 196.645 155.119 197.188 146.34C197.89 135.117 205.527 123.328 218.255 114.051C222.271 111.12 226.491 108.45 230.587 105.859C239.796 100.022 275.842 74.2488 251.879 66.5328C246.754 64.8923 241.04 65.3336 235.576 65.8087L149.908 73.1853C144.941 73.6152 139.873 74.0678 135.336 75.7875C130.799 77.5072 126.817 80.7429 126.014 84.8385C124.543 92.5545 145.7 101.605 152.397 105.814Z" fill="#255DF9"/>
<path d="M257.74 211.349C252.727 207.494 246.509 205.541 240.192 205.839C231.435 206.156 222.916 209.018 214.17 208.6C203.75 208.102 193.907 202.943 183.544 204.006C171.382 205.205 162.557 214.426 150.734 217.164C144.455 218.612 137.621 218.148 131.501 220.038C124.283 222.301 121.126 228.376 121.963 234.372C122.223 236.239 127.326 250.902 130.188 250.902H252.795C259.097 250.902 263.849 223.975 263.215 220.241C262.532 216.71 260.586 213.548 257.74 211.349Z" fill="#255DF9"/>
<path d="M255.251 25.5092H127.767C125.105 25.5092 122.948 27.6645 122.948 30.3232C122.948 32.9819 125.105 35.1372 127.767 35.1372H255.251C257.912 35.1372 260.07 32.9819 260.07 30.3232C260.07 27.6645 257.912 25.5092 255.251 25.5092Z" fill="#808080"/>
<path d="M255.262 35.6349H127.744C126.334 35.6349 124.982 35.0747 123.984 34.0775C122.987 33.0803 122.427 31.7277 122.427 30.3175C122.427 28.9072 122.987 27.5547 123.984 26.5574C124.982 25.5602 126.334 25 127.744 25H255.262C256.672 25 258.025 25.5602 259.022 26.5574C260.019 27.5547 260.579 28.9072 260.579 30.3175C260.579 31.7277 260.019 33.0803 259.022 34.0775C258.025 35.0747 256.672 35.6349 255.262 35.6349ZM127.744 26.0069C127.159 25.9769 126.574 26.0664 126.024 26.2697C125.474 26.4731 124.972 26.7862 124.547 27.1899C124.122 27.5937 123.783 28.0796 123.552 28.6183C123.321 29.1569 123.202 29.737 123.202 30.3231C123.202 30.9093 123.321 31.4893 123.552 32.028C123.783 32.5666 124.122 33.0526 124.547 33.4563C124.972 33.8601 125.474 34.1731 126.024 34.3765C126.574 34.5799 127.159 34.6693 127.744 34.6393H255.262C256.368 34.5826 257.411 34.1032 258.174 33.3C258.937 32.4967 259.363 31.4311 259.363 30.3231C259.363 29.2152 258.937 28.1495 258.174 27.3463C257.411 26.5431 256.368 26.0636 255.262 26.0069H127.744Z" fill="#737373"/>
<path d="M257.717 258.482H125.312C122.65 258.482 120.492 260.637 120.492 263.296C120.492 265.955 122.65 268.11 125.312 268.11H257.717C260.379 268.11 262.537 265.955 262.537 263.296C262.537 260.637 260.379 258.482 257.717 258.482Z" fill="#808080"/>
<path d="M257.717 268.619H125.346C123.936 268.619 122.583 268.059 121.586 267.062C120.589 266.064 120.029 264.712 120.029 263.302C120.029 261.891 120.589 260.539 121.586 259.542C122.583 258.544 123.936 257.984 125.346 257.984H257.717C259.127 257.984 260.48 258.544 261.477 259.542C262.474 260.539 263.034 261.891 263.034 263.302C263.034 264.712 262.474 266.064 261.477 267.062C260.48 268.059 259.127 268.619 257.717 268.619ZM125.346 258.98C124.2 258.98 123.101 259.435 122.29 260.246C121.48 261.056 121.024 262.155 121.024 263.302C121.024 264.448 121.48 265.547 122.29 266.358C123.101 267.168 124.2 267.623 125.346 267.623H257.717C258.863 267.623 259.962 267.168 260.773 266.358C261.583 265.547 262.039 264.448 262.039 263.302C262.039 262.155 261.583 261.056 260.773 260.246C259.962 259.435 258.863 258.98 257.717 258.98H125.346Z" fill="black"/>
<path d="M189.563 179.67C185.897 179.67 185.886 191.799 189.563 191.799C193.24 191.799 193.24 179.67 189.563 179.67Z" fill="#255DF9"/>
<path d="M195.978 191.776C194.496 191.776 194.496 196.064 195.978 196.064C197.46 196.064 197.471 191.776 195.978 191.776Z" fill="#255DF9"/>
<path d="M186.915 94.523C170.076 94.3787 153.342 91.8456 137.214 86.9994C137.149 86.9802 137.089 86.948 137.037 86.9047C136.985 86.8614 136.942 86.808 136.911 86.7476C136.88 86.6872 136.862 86.6212 136.858 86.5536C136.854 86.486 136.863 86.4183 136.886 86.3545C136.93 86.2242 137.024 86.1166 137.146 86.0552C137.269 85.9937 137.412 85.9833 137.542 86.0264C138.244 86.264 208.502 109.061 246.154 73.8302C246.256 73.7399 246.388 73.6928 246.523 73.6987C246.659 73.7047 246.787 73.7634 246.88 73.8622C246.973 73.961 247.023 74.0921 247.021 74.2278C247.019 74.3634 246.963 74.4927 246.867 74.5882C230.258 90.122 207.439 94.523 186.915 94.523Z" fill="black"/>
<path d="M171.065 231.306C157.846 231.307 144.696 229.402 132.021 225.649C131.951 225.632 131.886 225.601 131.829 225.557C131.772 225.513 131.725 225.458 131.69 225.395C131.655 225.332 131.634 225.263 131.627 225.191C131.621 225.12 131.629 225.048 131.652 224.98C131.675 224.911 131.711 224.849 131.759 224.795C131.808 224.742 131.866 224.699 131.932 224.67C131.997 224.64 132.068 224.625 132.14 224.624C132.212 224.623 132.283 224.637 132.349 224.665C132.723 224.801 170.906 237.303 205.413 224.665L246.335 209.674C246.401 209.642 246.473 209.624 246.546 209.621C246.619 209.618 246.692 209.631 246.76 209.658C246.828 209.686 246.89 209.727 246.94 209.78C246.991 209.833 247.03 209.896 247.055 209.965C247.08 210.033 247.09 210.107 247.085 210.18C247.079 210.253 247.058 210.324 247.023 210.389C246.989 210.453 246.941 210.509 246.882 210.554C246.824 210.599 246.757 210.63 246.686 210.647L205.809 225.615C194.648 229.522 182.889 231.448 171.065 231.306Z" fill="black"/>
<path d="M222.147 212.265H222.022C210.233 209.357 189.653 204.413 189.439 204.345C189.315 204.304 189.211 204.217 189.149 204.103C189.086 203.988 189.069 203.854 189.1 203.728C189.131 203.601 189.209 203.491 189.318 203.419C189.427 203.346 189.559 203.318 189.687 203.339C189.891 203.395 210.471 208.328 222.271 211.258C222.338 211.273 222.401 211.301 222.456 211.34C222.512 211.38 222.559 211.43 222.595 211.488C222.631 211.546 222.655 211.611 222.665 211.678C222.676 211.745 222.672 211.814 222.656 211.88C222.626 211.992 222.559 212.09 222.467 212.16C222.375 212.23 222.262 212.267 222.147 212.265Z" fill="black"/>
<path d="M115.379 113.655L117.822 121.303C117.822 121.303 117.947 125.115 112.448 125.557C106.95 125.998 105.049 122.74 105.049 122.74L101.021 108.315C101.021 108.315 107.606 101.458 103.805 93.6067C105.424 95.1756 107.487 96.2083 109.713 96.5645C111.94 96.9207 114.222 96.5833 116.25 95.5979C117.545 99.3384 118.61 103.154 119.44 107.025C120.13 111.177 115.379 113.655 115.379 113.655Z" fill="white"/>
<path d="M111.43 126.156C106.452 126.156 104.642 123.158 104.563 123.022C104.558 122.977 104.558 122.932 104.563 122.887L100.524 108.473C100.499 108.378 100.499 108.279 100.523 108.184C100.547 108.089 100.593 108.002 100.659 107.93C100.727 107.862 106.927 101.243 103.352 93.8669C103.297 93.7461 103.286 93.6095 103.321 93.4813C103.356 93.3531 103.435 93.2414 103.545 93.1658C103.654 93.0902 103.786 93.0555 103.919 93.0679C104.051 93.0802 104.175 93.1388 104.269 93.2333C105.803 94.7266 107.763 95.7079 109.878 96.0422C111.993 96.3765 114.16 96.0473 116.08 95.1001C116.151 95.0668 116.228 95.0496 116.306 95.0496C116.385 95.0496 116.462 95.0668 116.533 95.1001C116.609 95.1267 116.678 95.1715 116.733 95.2306C116.788 95.2898 116.828 95.3615 116.849 95.4395C118.165 99.206 119.239 103.053 120.063 106.957C120.685 110.736 117.325 113.179 116.114 113.926L118.377 121.144C118.382 121.193 118.382 121.243 118.377 121.291C118.377 121.291 118.445 125.647 112.482 126.122C112.12 126.145 111.77 126.156 111.43 126.156ZM105.57 122.502C105.841 122.909 107.685 125.364 112.358 124.991C117.03 124.618 117.2 121.88 117.211 121.393L114.802 113.836C114.759 113.709 114.763 113.571 114.813 113.447C114.863 113.322 114.955 113.22 115.073 113.157C115.073 113.157 119.452 110.815 118.841 107.127C118.077 103.486 117.087 99.8962 115.876 96.3786C114.127 97.1328 112.215 97.4328 110.318 97.2508C108.421 97.0689 106.601 96.4108 105.027 95.3377C106.893 101.764 102.639 107.251 101.632 108.462L105.57 122.502Z" fill="black"/>
<path d="M103.296 107.115C102.884 106.479 102.282 105.988 101.576 105.712C100.905 105.491 100.201 105.388 99.4943 105.407C99.1099 105.368 98.7217 105.422 98.3629 105.565C98.1191 105.685 97.9032 105.854 97.7293 106.063C97.2622 106.506 96.976 107.107 96.926 107.749C96.9367 108.269 97.0766 108.778 97.3333 109.231C97.5689 109.741 97.8734 110.217 98.2384 110.645C98.6092 111.067 99.0602 111.412 99.5652 111.658C100.07 111.905 100.619 112.049 101.18 112.081C101.741 112.114 102.303 112.035 102.833 111.848C103.364 111.662 103.851 111.372 104.269 110.996" fill="white"/>
<path d="M101.417 112.659H101.146C100.5 112.629 99.8663 112.469 99.2832 112.19C98.7 111.91 98.1792 111.515 97.7517 111.03C97.3558 110.564 97.0247 110.046 96.7674 109.491C96.4753 108.956 96.3163 108.358 96.3036 107.749C96.3596 106.97 96.6974 106.238 97.2539 105.69C97.4825 105.428 97.759 105.213 98.0685 105.056C98.511 104.884 98.9868 104.814 99.4601 104.853C100.228 104.832 100.994 104.947 101.723 105.192C102.546 105.511 103.244 106.086 103.714 106.832C103.755 106.895 103.783 106.965 103.796 107.039C103.809 107.113 103.807 107.189 103.79 107.261C103.773 107.334 103.742 107.403 103.698 107.464C103.654 107.524 103.597 107.575 103.533 107.613C103.405 107.69 103.252 107.714 103.106 107.68C102.961 107.646 102.834 107.558 102.752 107.432C102.41 106.913 101.91 106.516 101.327 106.301C100.713 106.106 100.07 106.015 99.4262 106.029C99.1281 105.996 98.8264 106.031 98.5437 106.131C98.3683 106.227 98.2112 106.354 98.0798 106.504C97.7189 106.858 97.4911 107.326 97.435 107.828C97.4509 108.254 97.5713 108.67 97.7857 109.039C97.9977 109.503 98.2718 109.937 98.6003 110.328C99.2573 111.061 100.175 111.508 101.157 111.573C101.642 111.601 102.128 111.532 102.586 111.371C103.044 111.209 103.466 110.959 103.827 110.634C103.88 110.581 103.942 110.539 104.011 110.51C104.08 110.481 104.154 110.467 104.229 110.467C104.304 110.467 104.377 110.481 104.446 110.51C104.515 110.539 104.578 110.581 104.631 110.634C104.683 110.686 104.725 110.747 104.754 110.815C104.782 110.883 104.797 110.956 104.797 111.03C104.797 111.104 104.782 111.177 104.754 111.245C104.725 111.313 104.683 111.374 104.631 111.426C103.748 112.218 102.604 112.657 101.417 112.659Z" fill="black"/>
<path d="M111.046 101.436C111.046 101.436 115.13 104.4 114.756 105.316C114.383 106.233 112.494 106.448 112.494 106.448" fill="white"/>
<path d="M112.46 106.991C112.31 106.998 112.163 106.946 112.051 106.845C111.94 106.744 111.873 106.603 111.866 106.453C111.858 106.303 111.911 106.157 112.011 106.045C112.112 105.934 112.253 105.867 112.403 105.859C113.071 105.792 114.077 105.486 114.236 105.101C113.24 103.851 112.052 102.767 110.717 101.888C110.599 101.8 110.519 101.669 110.496 101.523C110.473 101.377 110.508 101.228 110.593 101.108C110.636 101.046 110.69 100.994 110.754 100.954C110.817 100.914 110.888 100.888 110.962 100.876C111.036 100.864 111.112 100.868 111.184 100.886C111.257 100.905 111.325 100.938 111.385 100.983C114.326 103.122 115.639 104.649 115.288 105.509C114.802 106.64 112.901 106.923 112.527 106.957L112.46 106.991Z" fill="black"/>
<path d="M108.567 101.488C108.888 101.284 108.915 100.75 108.626 100.297C108.338 99.8435 107.843 99.6419 107.522 99.8465C107.2 100.051 107.173 100.585 107.462 101.038C107.75 101.491 108.245 101.693 108.567 101.488Z" fill="black"/>
<path d="M112.918 99.8952C113.24 99.6905 113.267 99.1571 112.978 98.7038C112.69 98.2504 112.195 98.0488 111.874 98.2534C111.552 98.458 111.525 98.9914 111.814 99.4448C112.102 99.8981 112.597 100.1 112.918 99.8952Z" fill="black"/>
<path d="M115.99 107.262C115.99 107.262 110.514 113.066 107.651 107.262H115.99Z" fill="white"/>
<path d="M111.079 110.43C110.887 110.447 110.694 110.447 110.502 110.43C109.74 110.286 109.027 109.948 108.432 109.449C107.838 108.949 107.382 108.306 107.108 107.579C107.045 107.444 107.037 107.289 107.085 107.148C107.134 107.006 107.235 106.889 107.368 106.821C107.435 106.788 107.508 106.769 107.582 106.764C107.657 106.76 107.731 106.77 107.801 106.794C107.872 106.818 107.937 106.856 107.993 106.905C108.048 106.955 108.094 107.014 108.126 107.081C108.322 107.639 108.655 108.138 109.094 108.533C109.533 108.928 110.064 109.207 110.638 109.344C112.901 109.695 115.526 107.002 115.548 106.98C115.601 106.926 115.663 106.884 115.732 106.856C115.801 106.827 115.875 106.812 115.95 106.812C116.025 106.812 116.098 106.827 116.167 106.856C116.236 106.884 116.299 106.926 116.352 106.98C116.456 107.087 116.514 107.231 116.514 107.381C116.514 107.531 116.456 107.675 116.352 107.783C116.295 107.794 113.772 110.43 111.079 110.43Z" fill="black"/>
<path d="M115.379 113.655C115.379 113.655 111.385 114.786 109.213 114.299C109.213 114.299 112.098 118.406 116.77 118.282L115.379 113.655Z" fill="black"/>
<path d="M116.567 118.848C111.77 118.848 108.873 114.797 108.749 114.616C108.684 114.522 108.649 114.41 108.648 114.295C108.648 114.18 108.683 114.068 108.748 113.974C108.813 113.879 108.905 113.807 109.013 113.766C109.12 113.725 109.237 113.718 109.348 113.745C111.351 114.243 115.186 113.134 115.22 113.123C115.363 113.08 115.516 113.096 115.648 113.166C115.779 113.235 115.877 113.354 115.922 113.496L117.313 118.112C117.34 118.195 117.347 118.284 117.334 118.371C117.32 118.457 117.286 118.539 117.234 118.61C117.183 118.68 117.117 118.738 117.041 118.779C116.964 118.82 116.88 118.844 116.793 118.848H116.567ZM110.57 115.001C112.02 116.498 113.942 117.449 116.012 117.694L115.005 114.299C113.561 114.69 112.077 114.91 110.582 114.956L110.57 115.001Z" fill="black"/>
<path d="M150.451 158.106C150.451 158.106 150.451 180.191 147.883 189.513C140.574 215.942 87.2074 258.165 87.2074 258.165L75.3845 246.421L107.889 199.605L68.5962 245.618L55.5402 233.75L106.678 171.174L150.451 158.106Z" fill="black"/>
<path d="M87.2074 258.731C87.0602 258.729 86.919 258.673 86.8114 258.572L74.9885 246.874C74.8939 246.78 74.8352 246.657 74.8228 246.524C74.8104 246.392 74.8451 246.259 74.9207 246.15L100.999 208.577L69.0262 246.025C68.9783 246.085 68.9183 246.135 68.85 246.17C68.7818 246.205 68.7069 246.225 68.6302 246.229C68.5558 246.234 68.4811 246.224 68.4109 246.199C68.3408 246.174 68.2767 246.134 68.2229 246.082L55.1669 234.214C55.0666 234.109 55.0106 233.969 55.0106 233.824C55.0106 233.678 55.0666 233.538 55.1669 233.433L106.248 170.857C106.319 170.771 106.413 170.708 106.52 170.676L150.293 157.563C150.377 157.541 150.466 157.538 150.552 157.553C150.638 157.569 150.719 157.603 150.791 157.654C150.86 157.708 150.916 157.776 150.955 157.854C150.994 157.933 151.015 158.019 151.017 158.106C151.017 159.011 151.017 180.372 148.426 189.672C145.371 200.725 134.193 215.693 115.198 234.157C101.089 247.881 87.6939 258.504 87.5581 258.606C87.4582 258.685 87.3348 258.729 87.2074 258.731ZM76.1199 246.421L87.2413 257.43C92.1063 253.515 140.495 214.143 147.34 189.377C149.603 181.198 149.852 162.835 149.886 158.83L107.006 171.751L56.3209 233.784L68.551 244.905L107.459 199.334C107.552 199.223 107.684 199.152 107.828 199.138C107.971 199.123 108.115 199.165 108.228 199.254C108.344 199.34 108.42 199.468 108.441 199.61C108.463 199.752 108.427 199.897 108.341 200.012L76.1199 246.421Z" fill="black"/>
<path d="M75.3845 246.421L66.8992 255.846C66.8992 255.846 52.9946 251.173 53.6055 253.809C54.2164 256.445 72.3184 271.153 73.2349 271.459C74.1513 271.764 87.2073 258.12 87.2073 258.12" fill="white"/>
<path d="M73.2235 272.07H73.0651C71.9338 271.696 53.7299 256.875 53.0624 253.968C53.0096 253.78 53.0101 253.58 53.0641 253.393C53.118 253.205 53.2232 253.036 53.3679 252.904C54.9179 251.501 63.5503 254.183 66.7294 255.167L74.9659 246.026C75.0688 245.924 75.2065 245.867 75.3507 245.864C75.4949 245.861 75.6348 245.913 75.7417 246.01C75.8486 246.107 75.9145 246.241 75.9259 246.385C75.9373 246.528 75.8934 246.671 75.8031 246.784L67.3178 256.197C67.2441 256.278 67.1481 256.337 67.0416 256.365C66.9351 256.393 66.8226 256.39 66.7181 256.355C60.5634 254.285 54.7934 253.074 54.1259 253.685C54.6916 255.948 71.2549 269.524 73.3027 270.837C74.6264 270.09 81.1319 263.63 86.8 257.713C86.8517 257.66 86.9133 257.618 86.9813 257.59C87.0493 257.561 87.1223 257.546 87.196 257.546C87.2698 257.546 87.3428 257.561 87.4108 257.59C87.4788 257.618 87.5404 257.66 87.592 257.713C87.645 257.765 87.6871 257.828 87.7158 257.897C87.7446 257.966 87.7593 258.04 87.7593 258.114C87.7593 258.189 87.7446 258.263 87.7158 258.332C87.6871 258.401 87.645 258.463 87.592 258.516C75.7578 270.961 73.8005 272.07 73.2235 272.07Z" fill="black"/>
<path d="M88.5764 250.845C88.5027 250.846 88.4299 250.83 88.3632 250.799C88.2966 250.768 88.2379 250.721 88.1917 250.664C88.1479 250.615 88.1146 250.558 88.0936 250.495C88.0727 250.433 88.0646 250.367 88.0699 250.301C88.0752 250.236 88.0937 250.172 88.1244 250.114C88.1551 250.056 88.1972 250.004 88.2483 249.963C88.6895 249.589 132.214 212.435 140.869 191.471C149.444 170.71 144.93 162.428 144.885 162.349C144.819 162.233 144.801 162.096 144.836 161.968C144.871 161.84 144.956 161.731 145.072 161.664C145.187 161.598 145.324 161.581 145.452 161.616C145.581 161.651 145.69 161.736 145.756 161.851C145.948 162.191 150.598 170.551 141.796 191.855C132.994 213.159 89.3344 250.347 88.8932 250.687C88.8112 250.777 88.6981 250.834 88.5764 250.845Z" fill="white"/>
<path d="M111.046 181.809C110.92 181.806 110.799 181.758 110.706 181.673C110.659 181.627 110.621 181.573 110.596 181.513C110.57 181.452 110.557 181.388 110.557 181.322C110.557 181.257 110.57 181.192 110.596 181.132C110.621 181.071 110.659 181.017 110.706 180.971L121.658 169.024C121.727 168.951 121.817 168.9 121.916 168.877C122.015 168.855 122.118 168.863 122.212 168.9C122.306 168.936 122.386 169 122.442 169.083C122.499 169.165 122.529 169.263 122.529 169.364V178.256C122.529 178.388 122.477 178.515 122.383 178.608C122.29 178.701 122.163 178.754 122.031 178.754C121.899 178.754 121.773 178.701 121.679 178.608C121.586 178.515 121.533 178.388 121.533 178.256V170.619L111.441 181.616C111.393 181.675 111.333 181.722 111.264 181.755C111.196 181.789 111.121 181.807 111.046 181.809Z" fill="white"/>
<path d="M100.218 187.703L114.779 171.219H78.6655L59.285 190.43L100.218 187.703Z" fill="white"/>
<path d="M59.2851 190.984C59.1849 190.984 59.0868 190.955 59.0025 190.901C58.9182 190.847 58.8513 190.77 58.81 190.678C58.767 190.583 58.7538 190.477 58.772 190.374C58.7901 190.271 58.8388 190.176 58.9118 190.101L78.3036 170.868C78.4018 170.776 78.5308 170.723 78.6656 170.721H114.779C114.88 170.719 114.978 170.747 115.063 170.802C115.147 170.856 115.214 170.934 115.254 171.026C115.291 171.118 115.304 171.217 115.29 171.314C115.276 171.412 115.236 171.504 115.175 171.581L100.592 188.054C100.501 188.154 100.375 188.214 100.241 188.223L59.3191 190.984H59.2851ZM78.8806 171.751L60.6315 189.853L99.9694 187.239L113.636 171.751H78.8806Z" fill="black"/>
<path d="M127.19 117.286C127.19 117.286 136.083 152.981 133.616 154.113C131.15 155.244 100.331 165.087 98.6229 165.834C96.9145 166.58 92.7624 169.59 92.0044 171.219C91.2464 172.848 90.5562 179.308 92.0044 178.89C94.122 178.395 96.2076 177.771 98.2496 177.023C99.3809 176.435 101.021 173.029 101.021 173.029C101.021 173.029 100.818 176.321 102.368 175.62C103.918 174.919 106.678 171.219 106.678 171.219C106.678 171.219 145.541 169.895 149.32 162.1C153.099 154.305 151.028 137.47 144.794 124.606C138.56 111.743 127.745 109.412 127.19 117.286Z" fill="white"/>
<path d="M91.8798 179.433C91.7425 179.431 91.6073 179.398 91.484 179.338C91.3607 179.277 91.2525 179.19 91.1671 179.082C90.1149 177.849 90.8955 172.373 91.5404 170.993C92.3663 169.216 96.5977 166.173 98.4192 165.336C99.1885 164.996 105.4 162.96 112.607 160.595C121.658 157.62 132.044 154.237 133.401 153.603C134.533 152.257 130.856 134.121 126.681 117.399C126.675 117.343 126.675 117.286 126.681 117.23C126.873 114.526 128.254 112.704 130.471 112.308C134.544 111.528 140.914 115.408 145.258 124.357C151.582 137.391 153.619 154.418 149.784 162.304C145.948 170.189 110.581 171.558 106.95 171.694C106.305 172.543 104.053 175.405 102.583 176.073C102.387 176.177 102.168 176.226 101.947 176.216C101.726 176.206 101.512 176.137 101.327 176.016C100.961 175.712 100.716 175.286 100.637 174.817C100.132 175.852 99.3968 176.758 98.4871 177.464C96.9177 178.086 95.3026 178.585 93.6561 178.958C93.0565 179.116 92.5247 179.252 92.1514 179.365C92.064 179.399 91.9728 179.421 91.8798 179.433ZM127.71 117.207C127.937 118.124 130.03 126.609 131.829 135.128C135.743 153.649 134.51 154.226 133.843 154.531C132.428 155.187 122.065 158.582 112.923 161.568C106.045 163.831 99.5506 165.947 98.8378 166.264C97.0842 167.044 93.1809 169.986 92.4682 171.389C91.7554 172.792 91.3368 177.849 91.959 178.381C92.4242 178.192 92.905 178.044 93.3959 177.939C94.9655 177.575 96.5078 177.103 98.0119 176.525C98.7247 176.152 99.9465 174.013 100.546 172.758C100.6 172.652 100.687 172.568 100.795 172.519C100.902 172.471 101.023 172.46 101.138 172.489C101.252 172.518 101.354 172.585 101.425 172.679C101.496 172.773 101.533 172.888 101.53 173.007C101.431 173.742 101.565 174.49 101.915 175.145C101.972 175.145 102.074 175.145 102.164 175.145C103.295 174.613 105.558 171.898 106.271 170.891C106.317 170.829 106.376 170.778 106.445 170.742C106.514 170.707 106.59 170.688 106.667 170.687C106.757 170.687 116.476 170.348 126.523 169.058C143.131 166.931 147.838 163.967 148.856 161.862C152.555 154.226 150.519 137.606 144.33 124.81C140.257 116.438 134.25 112.648 130.675 113.338C128.932 113.677 127.892 115.058 127.744 117.252L127.71 117.207Z" fill="black"/>
<path d="M100.218 187.703C98.8378 185.723 80.849 156.025 80.849 156.025L38.4677 160.188L59.285 190.452L100.218 187.703Z" fill="white"/>
<path d="M59.285 190.984C59.2005 190.983 59.1174 190.962 59.0427 190.923C58.9679 190.884 58.9036 190.827 58.855 190.758L38.0491 160.437C38.0054 160.359 37.9825 160.271 37.9825 160.182C37.9825 160.093 38.0054 160.006 38.0491 159.928C38.087 159.845 38.1454 159.774 38.2186 159.721C38.2919 159.667 38.3776 159.633 38.4677 159.622L80.8377 155.47C80.9347 155.458 81.0333 155.474 81.1215 155.516C81.2098 155.558 81.2841 155.625 81.3355 155.708C81.5165 156.013 99.3357 185.44 100.682 187.386C100.729 187.465 100.754 187.555 100.754 187.646C100.754 187.738 100.729 187.828 100.682 187.907C100.642 187.989 100.582 188.06 100.506 188.111C100.431 188.163 100.343 188.194 100.252 188.201L59.3189 190.984H59.285ZM39.3954 160.595L59.5339 189.898L99.3017 187.251C96.2923 182.499 82.3311 159.532 80.5661 156.545L39.3954 160.595Z" fill="black"/>
<path d="M74.0155 174.885C73.3739 173.511 72.3974 172.321 71.1758 171.423C70.4208 170.805 69.5072 170.413 68.5397 170.291C68.0571 170.245 67.5708 170.325 67.1285 170.523C66.6861 170.721 66.303 171.031 66.0167 171.423C65.6335 172.086 65.4859 172.86 65.5981 173.617C65.6735 174.513 65.9421 175.381 66.3855 176.162C66.8289 176.943 67.4365 177.619 68.1663 178.143C70.7572 179.885 75.9163 178.924 74.0155 174.885Z" fill="white"/>
<path d="M71.0853 179.478C69.9499 179.491 68.8359 179.168 67.8835 178.55C67.0898 177.994 66.4281 177.269 65.9452 176.429C65.4623 175.588 65.17 174.651 65.089 173.685C64.9558 172.812 65.1319 171.92 65.5868 171.162C65.9256 170.696 66.3806 170.326 66.9065 170.09C67.4325 169.854 68.0111 169.759 68.5849 169.816C69.6468 169.93 70.6549 170.342 71.4925 171.004C72.7753 171.956 73.8016 173.212 74.4794 174.658C75.4976 176.831 74.6151 178.053 73.9929 178.562C73.1588 179.194 72.1313 179.518 71.0853 179.478ZM68.3134 170.834C67.9536 170.824 67.5965 170.9 67.2718 171.055C66.9472 171.211 66.6643 171.441 66.4466 171.728C66.1288 172.291 66.0092 172.945 66.1072 173.584C66.178 174.399 66.4251 175.19 66.8314 175.901C67.2377 176.612 67.7935 177.227 68.4605 177.702C69.1796 178.177 70.0195 178.437 70.8814 178.451C71.7432 178.465 72.5911 178.232 73.3254 177.781C74.0268 177.181 74.0947 176.276 73.5517 175.1C72.942 173.808 72.0205 172.688 70.8703 171.841C70.1947 171.288 69.3734 170.942 68.5057 170.846L68.3134 170.834Z" fill="black"/>
<path d="M68.6416 173.221C69.1299 173.903 69.5831 174.609 69.9992 175.337L70.9044 173.221" fill="white"/>
<path d="M70.0444 175.857C69.9545 175.857 69.8662 175.833 69.7887 175.787C69.7112 175.741 69.6472 175.676 69.6032 175.597C69.1167 174.783 68.4718 173.821 68.3587 173.617C68.3008 173.567 68.2547 173.504 68.2234 173.434C68.1922 173.363 68.1766 173.287 68.1777 173.21C68.1777 173.075 68.2313 172.946 68.3268 172.85C68.4223 172.755 68.5518 172.701 68.6868 172.701C68.9809 172.701 69.0601 172.701 69.9652 174.206L70.4744 173.074C70.527 172.947 70.628 172.845 70.7553 172.792C70.8825 172.739 71.0257 172.739 71.1532 172.791C71.2786 172.846 71.3774 172.948 71.4282 173.075C71.479 173.202 71.4778 173.344 71.4247 173.47L70.5196 175.597C70.4803 175.684 70.4189 175.759 70.3414 175.815C70.264 175.87 70.1733 175.905 70.0784 175.914L70.0444 175.857Z" fill="black"/>
</svg>
