<svg width="300" height="301" viewBox="0 0 300 301" fill="none" xmlns="http://www.w3.org/2000/svg">
<path d="M143.302 26.4215C157.371 12.5074 180.183 12.5074 194.252 26.4215C208.321 40.3356 208.321 62.8953 194.252 76.8095C180.183 90.7236 157.371 90.7236 143.302 76.8095C129.232 62.8953 129.232 40.3356 143.302 26.4215Z" fill="white" stroke="#D9D9D9" stroke-width="1.16281"/>
<path d="M148.184 31.2503C159.557 20.003 177.996 20.0031 189.369 31.2503C200.742 42.4976 200.742 60.7334 189.369 71.9807C177.996 83.2279 159.557 83.2279 148.184 71.9807C136.811 60.7334 136.811 42.4976 148.184 31.2503Z" fill="white" stroke="#D9D9D9" stroke-width="1.16281"/>
<path d="M169.752 53.8663V31.9156C169.752 31.375 169.313 30.9368 168.773 30.9368C168.232 30.9368 167.794 31.375 167.794 31.9156V53.8663C167.794 54.4069 168.232 54.8451 168.773 54.8451C169.313 54.8451 169.752 54.4069 169.752 53.8663Z" fill="#D9D9D9"/>
<path d="M181.491 60.3206L169.614 53.539C169.148 53.2732 168.552 53.433 168.282 53.896C168.011 54.359 168.17 54.9499 168.635 55.2157L180.512 61.9972C180.978 62.2631 181.574 62.1032 181.845 61.6402C182.115 61.1772 181.957 60.5864 181.491 60.3206Z" fill="#D9D9D9"/>
<path d="M103.728 77.6646L120.205 181.184C120.555 183.38 119.099 185.446 116.916 185.9L116.703 185.939L25.2197 200.181C22.9833 200.53 20.8981 199.079 20.4414 196.931L20.4023 196.721L0.633789 72.4917V72.4907C0.27275 70.224 1.83499 68.0954 4.13574 67.7358L73.7402 56.894L103.728 77.6646Z" fill="white" stroke="#D9D9D9" stroke-width="1.16281"/>
<path d="M102.735 76.9839L81.5593 80.2808V80.2739L80.8884 80.3784C79.5789 80.5835 78.3536 79.7665 78.0251 78.5356L77.9714 78.2847L74.6687 57.5435L102.735 76.9839Z" fill="white" stroke="#D9D9D9" stroke-width="1.16281"/>
<path d="M67.0208 153.904L57.1858 155.436L55.6887 146.045L65.5237 144.513L67.0208 153.904ZM52.97 100.712C58.7576 99.8083 63.4392 100.279 67.0627 102.041C70.4992 103.711 72.6958 106.934 73.5813 111.844L73.6624 112.325C73.927 114.006 73.9863 115.479 73.844 116.759C73.701 118.045 73.3755 119.229 72.8635 120.322C72.3445 121.429 71.6586 122.508 70.8049 123.542C69.9351 124.597 68.9294 125.703 67.7864 126.862L67.7786 126.87C66.72 127.981 65.8634 129 65.2336 129.93C64.5982 130.869 64.1405 131.83 63.8792 132.818C63.6219 133.791 63.5163 134.792 63.554 135.797V135.801C63.5907 136.624 63.6801 137.522 63.8176 138.492L55.0413 139.855C54.6111 136.975 54.4872 134.634 54.6487 132.813C54.8179 130.906 55.4534 129.072 56.5608 127.321L56.5667 127.312C57.2019 126.265 57.9588 125.328 58.8372 124.506C59.7732 123.631 60.6239 122.725 61.3879 121.796L61.3909 121.793C62.1636 120.838 62.7911 119.805 63.2551 118.695C63.7508 117.509 63.8444 116.083 63.5842 114.458C63.1491 111.737 62.0606 109.796 60.1956 108.862C58.4452 107.985 56.4984 107.72 54.386 108.046L54.385 108.047C51.4197 108.512 49.3409 109.672 48.3899 111.673C47.5584 113.423 47.2029 115.59 47.2922 118.145L37.8948 119.608C37.5806 117.264 37.6642 115.074 38.134 113.04C38.643 110.836 39.5483 108.901 40.8596 107.219L40.8606 107.217C42.1663 105.534 43.8466 104.134 45.9045 103.014C47.8313 101.966 50.0216 101.224 52.4758 100.794L52.97 100.712Z" fill="white" stroke="#D9D9D9" stroke-width="1.16281"/>
<path d="M108.3 146.751C120.409 158.522 134.497 174.404 147.581 194.934C156.686 209.211 163.435 222.799 168.475 234.753C156.864 239.92 145.261 245.088 133.65 250.248L103.808 149.813L108.293 146.751H108.3Z" fill="#3369FF"/>
<path d="M86.3029 138.633L108.627 145.533C114.742 155.128 118.28 163.626 120.352 169.533C130.012 197.06 126.915 222.249 126.04 229.367C126.04 229.367 126.026 229.487 123.214 250.248H21.1308C20.7962 242.722 20.8603 232.317 22.6542 220.116C24.7827 205.642 26.7617 192.209 35.6174 177.453C39.2195 171.455 51.7414 152.249 75.7601 142.203C80.0456 140.407 83.7473 139.302 86.3029 138.633Z" fill="#3369FF"/>
<path d="M33.7879 180.663C46.2172 184.606 62.0351 188.478 80.6364 190.357C97.9563 192.11 113.233 191.695 125.606 190.547C125.961 193.434 123.861 196.187 124.217 199.073C110.998 200.136 97.7356 200.594 80.1452 199.073C60.4405 197.369 43.3768 193.786 29.5095 189.935C30.9333 186.844 32.3641 183.754 33.7879 180.663Z" fill="#003DE6"/>
<path d="M112.247 121.276L108.133 145.025C107.106 150.948 101.416 154.932 95.4119 153.915L95.1345 153.867C89.2871 152.725 85.4095 147.181 86.4197 141.351L90.5349 117.598L112.247 121.276Z" fill="white" stroke="#2B2B2B" stroke-width="1.16281"/>
<path d="M109.887 138.324L96.3475 128.186C96.2691 129.488 96.0627 135.599 100.633 140.64C103.552 143.857 107.011 145.075 108.62 145.533L109.88 138.324H109.887Z" fill="#2B2B2B"/>
<path d="M108.931 86.04C110.103 85.9715 118.349 85.6407 124.829 91.5625C132.758 98.8089 131.742 109.661 131.377 113.473C131.326 114.009 130.745 119.384 128.516 124.983C126.278 130.606 122.451 136.279 116.004 137.721C110.979 138.844 106.22 136.986 102.494 134.595C99.2398 132.506 96.8369 130.051 95.8269 128.966L95.4812 128.59C88.1215 120.491 88.202 110.838 88.2507 109.018L88.2703 108.273C88.3869 105.072 88.8936 99.0895 93.4001 93.7637L93.8875 93.207C99.8071 86.6878 107.702 86.1083 108.93 86.04H108.931Z" fill="white" stroke="#2B2B2B" stroke-width="1.16281"/>
<path d="M124.577 112.15C124.509 113.509 125.404 114.656 126.582 114.709C127.761 114.762 128.773 113.703 128.841 112.344C128.909 110.985 128.014 109.838 126.835 109.785C125.657 109.732 124.645 110.791 124.577 112.15Z" fill="#262626"/>
<path d="M120.039 113.922L121.733 117.28C122.046 117.9 121.754 118.646 121.106 118.9L118.85 119.772" stroke="#262626" stroke-width="1.16281" stroke-linecap="round" stroke-linejoin="round"/>
<path d="M112.834 109.079L115.319 112.007L111.76 113.303" stroke="#262626" stroke-width="1.16281" stroke-linecap="round" stroke-linejoin="round"/>
<path d="M110.507 126.432V126.439C112.066 123.483 115.104 123.663 117.439 124.705C119.817 125.768 120.508 127.362 120.537 127.566" stroke="#2B2B2B" stroke-width="1.16281"/>
<path d="M96.7512 83.8484C102.231 80.9956 107.696 81.7804 110.004 82.2683L110.791 82.448C113.257 83.0374 114.422 83.8103 115.672 84.6345C116.969 85.489 118.345 86.3895 121.167 87.1199C124.659 88.0222 126.97 87.7877 128.939 87.6257C130.87 87.4669 132.425 87.3838 134.588 88.4519H134.589C135.946 89.1195 137.585 90.2634 138.862 91.7644C140.137 93.2639 141.018 95.0804 140.956 97.114C140.84 100.957 137.355 104.792 132.13 106.045C130.51 105.674 128.333 104.996 125.986 103.698C123.334 102.229 121.459 100.512 120.256 99.2332L119.899 98.8533L119.483 99.1658C115.671 102.031 113.7 103.511 112.681 104.275C112.172 104.657 111.9 104.86 111.757 104.967C111.685 105.02 111.646 105.049 111.624 105.065C111.614 105.073 111.608 105.078 111.605 105.08C108.121 107.589 102.3 110.935 92.3635 111.971C92.245 111.113 91.9581 109.637 91.1311 108.539H91.1301C90.1287 107.201 88.8966 106.551 88.2112 106.261C87.5126 104.608 86.6447 101.885 86.8616 98.5427V98.5417C87.2612 92.3658 91.1973 86.9525 96.2581 84.115L96.7512 83.8484Z" fill="white" stroke="#2B2B2B" stroke-width="1.16281"/>
<path d="M86.3028 138.634C77.1267 140.704 59.9706 145.927 43.989 160.064C43.989 160.064 27.8792 174.313 16.895 200.742C15.9197 203.086 14.8306 205.558 13.6275 210.753C12.6949 214.78 12.2749 218.497 12.1397 221.736C12.04 224.158 13.5492 226.368 15.8557 227.192C17.8845 227.917 20.2123 228.727 22.7964 229.586C27.5874 231.163 38.2085 235.464 50.2392 237.119C75.3328 240.561 89.2571 241.42 89.2571 241.42L91.0795 198.588L57.9132 194.434L86.3028 138.627V138.634Z" fill="#3369FF"/>
<path d="M113.105 160.655C117.269 175.066 119.854 187.126 121.484 195.919" stroke="#262626" stroke-width="1.16281" stroke-linecap="round" stroke-linejoin="round"/>
<path d="M132.213 173.685L122.158 170.868L100.221 247.435L110.275 250.253L132.213 173.685Z" fill="#2B2B2B"/>
<path opacity="0.5" d="M142.389 173.976C167.728 173.976 188.269 153.661 188.269 128.602C188.269 103.543 167.728 83.2283 142.389 83.2283C117.05 83.2283 96.5085 103.543 96.5085 128.602C96.5085 153.661 117.05 173.976 142.389 173.976Z" fill="#CCDAFF"/>
<path d="M179.068 127.585C179.068 107.541 162.409 91.293 141.858 91.293" stroke="white" stroke-opacity="0.8" stroke-width="1.16281"/>
<path d="M141.865 76.293C113.233 76.293 90.019 99.2509 90.019 127.566C90.019 155.882 113.233 178.84 141.865 178.84C170.497 178.84 193.711 155.882 193.711 127.566C193.711 99.2509 170.497 76.293 141.865 76.293ZM141.865 170.469C117.903 170.469 98.4832 151.264 98.4832 127.566C98.4832 103.869 117.903 84.6637 141.865 84.6637C165.827 84.6637 185.247 103.869 185.247 127.566C185.247 151.264 165.827 170.469 141.865 170.469Z" fill="#2B2B2B"/>
<path d="M68.4133 160.655C68.4133 160.655 57.1728 197.623 57.6569 198.587C58.1481 199.559 91.0723 198.587 91.0723 198.587L89.2499 241.42C89.2499 241.42 58.8101 239.519 46.7652 236.562C34.7202 233.605 20.9668 228.973 20.9668 228.973" stroke="#262626" stroke-width="1.16281" stroke-linecap="round" stroke-linejoin="round"/>
<path d="M53.9981 156.839C47.7051 162.373 39.6253 170.631 32.2503 182.078C24.6759 193.828 20.483 204.853 18.084 212.963" stroke="white" stroke-width="1.16281" stroke-linecap="round" stroke-linejoin="round"/>
<path d="M175.297 242.008V249.667H98.8318C96.1428 249.667 93.9744 247.513 93.9744 244.869V242.008H175.297Z" fill="white" stroke="#2B2B2B" stroke-width="1.16281"/>
<path d="M157.106 184.159H241.164C244.088 184.159 246.202 186.612 245.834 189.74V189.741L239.483 243.95C239.109 247.122 236.334 249.666 233.355 249.667H149.297C146.464 249.666 144.392 247.365 144.6 244.376L144.628 244.085L150.977 189.876C151.351 186.704 154.127 184.159 157.106 184.159Z" fill="white" stroke="#2B2B2B" stroke-width="1.16281"/>
<path d="M165.222 184.159H249.28C252.204 184.159 254.317 186.612 253.948 189.74V189.741L247.599 243.95C247.225 247.122 244.45 249.666 241.471 249.667C236.045 249.667 213.317 249.663 191.945 249.66C181.259 249.658 170.912 249.656 163.237 249.655C159.399 249.654 156.229 249.653 154.019 249.653H151.22L159.092 189.884L159.093 189.876C159.467 186.704 162.243 184.159 165.222 184.159Z" fill="#99B4FF" stroke="#2B2B2B" stroke-width="1.16281"/>
<path d="M126.431 226.361L124.78 214.836" stroke="#262626" stroke-width="1.16281" stroke-linecap="round" stroke-linejoin="round"/>
<path d="M179.26 126.081H289.387C291.914 126.081 293.957 128.102 293.957 130.601V210.338" stroke="#262626" stroke-width="0.313959" stroke-linecap="round" stroke-linejoin="round"/>
<path d="M90.8447 109.304C90.8447 108.924 89.9548 108.199 89.6914 107.959C89.2429 107.551 88.7375 107.199 88.1965 106.917C87.1429 106.368 85.9327 106.073 84.7439 106.136C82.3733 106.256 80.017 107.797 79.234 110.05C78.7784 111.36 78.8424 112.803 79.2055 114.141C79.7536 116.154 80.9638 117.97 82.5798 119.308C83.9181 120.413 85.527 121.188 87.2212 121.589C87.5629 121.666 91.0867 122.195 91.0796 122.061C91.0215 118.905 92.5389 113.303 92.5389 113.303C92.5389 113.303 91.1152 109.079 90.8447 109.311V109.304Z" fill="white"/>
<path d="M90.6943 107.999C90.2458 107.591 89.7404 107.239 89.1993 106.957C88.1458 106.408 86.7452 106.208 85.5564 106.271C83.1858 106.391 80.8295 107.933 80.0465 110.186C79.5909 111.495 79.6549 112.938 80.018 114.276C80.5661 116.289 81.7763 118.106 83.3923 119.443C84.7306 120.549 86.3395 121.323 88.0337 121.724C88.3754 121.802 91.8992 122.33 91.8921 122.196" stroke="#2B2B2B" stroke-width="1.16281"/>
<path d="M88.4124 110.02C86.6681 109.443 83.296 109.328 83.7611 113.476" stroke="#2B2B2B" stroke-width="1.16281" stroke-linecap="round"/>
<path d="M84.9241 110.595C86.0869 110.979 88.2962 112.554 87.8311 115.78" stroke="#2B2B2B" stroke-width="1.16281" stroke-linecap="round"/>
<path d="M109.739 207.889C110.463 207.897 110.892 207.938 111.049 207.986C111.982 208.271 114.151 209.354 116.254 210.536C117.294 211.12 118.298 211.717 119.099 212.234C119.499 212.492 119.845 212.728 120.117 212.929C120.398 213.137 120.571 213.288 120.65 213.377C121.542 214.382 121.797 215.247 121.69 216.073C121.644 216.405 121.367 216.842 121.009 217.255C120.842 217.448 120.677 217.613 120.555 217.729C120.494 217.787 120.444 217.833 120.41 217.863C120.393 217.878 120.38 217.889 120.372 217.896C120.368 217.9 120.365 217.902 120.363 217.904C120.362 217.905 120.362 217.905 120.361 217.905L119.969 218.236L120.249 218.667C121.267 220.232 121.245 221.205 121.076 221.788C120.906 222.358 120.46 222.99 120.008 223.514C119.563 224.029 119.185 224.359 119.152 224.392L118.909 224.632L119.002 224.962C119.114 225.361 119.239 225.936 119.272 226.628V226.629C119.308 227.345 119.363 228.627 118.731 229.777L118.73 229.779C117.802 231.479 115.853 231.992 115.387 232.094L114.63 232.259L115 232.94L115.002 232.943C115.005 232.949 115.011 232.961 115.019 232.977C115.034 233.01 115.056 233.062 115.081 233.128C115.132 233.264 115.19 233.457 115.22 233.679C115.278 234.12 115.224 234.652 114.806 235.143C114.338 235.691 113.328 236.383 111.922 236.869C110.53 237.35 108.798 237.613 106.92 237.352C105.994 237.224 104.658 236.825 103.143 236.28C101.638 235.738 99.9941 235.066 98.4678 234.408C96.9421 233.75 95.5387 233.108 94.5166 232.631C94.0057 232.393 93.5901 232.196 93.3027 232.058C93.1594 231.99 93.0482 231.935 92.9727 231.899C92.9351 231.881 92.906 231.867 92.8867 231.858L92.8594 231.844H92.8584L92.8574 231.843L92.6514 231.743L92.4316 231.811L89.915 232.587L90.9121 209.206C91.0041 209.197 91.1079 209.187 91.2227 209.176C91.7415 209.127 92.4852 209.056 93.3838 208.974C95.1815 208.81 97.599 208.597 100.078 208.403C102.559 208.209 105.097 208.034 107.137 207.947C108.157 207.903 109.047 207.882 109.739 207.889Z" fill="white" stroke="#2B2B2B" stroke-width="1.16281"/>
<path d="M120.622 217.962C120.622 217.962 113.674 216.681 110.165 215.069C106.655 213.456 105.353 212.569 105.353 212.569" stroke="#262626" stroke-width="1.74421" stroke-linecap="round" stroke-linejoin="round"/>
<path d="M118.964 224.629C118.964 224.629 110.912 223.834 107.652 221.975C104.385 220.116 103.217 218.906 103.217 218.906" stroke="#262626" stroke-width="1.74421" stroke-linecap="round" stroke-linejoin="round"/>
<path d="M114.963 232.634C110.504 232.461 104.997 229.466 102.284 227.009" stroke="#262626" stroke-width="1.74421" stroke-linecap="round" stroke-linejoin="round"/>
<path d="M300 249.135H3.48364V250.287H300V249.135Z" fill="#2B2B2B"/>
<path d="M203.487 208.239C208.308 208.239 212.208 212.111 212.208 216.875C212.208 221.639 208.309 225.511 203.487 225.511C198.665 225.511 194.765 221.639 194.765 216.875C194.766 212.111 198.666 208.239 203.487 208.239Z" fill="white" stroke="#2B2B2B" stroke-width="1.16281"/>
<path d="M179.26 126.662H289.387C291.596 126.662 293.376 128.432 293.376 130.601V210.338C293.376 212.507 291.596 214.276 289.387 214.276H179.26C177.051 214.276 175.271 212.507 175.271 210.338V130.601C175.271 128.432 177.051 126.662 179.26 126.662Z" fill="white" stroke="#2B2B2B" stroke-width="1.16281"/>
<path d="M293.957 136.345V130.594C293.957 128.094 291.914 126.074 289.387 126.074H179.26C176.733 126.074 174.689 128.094 174.689 130.594V136.345H293.957Z" fill="#2B2B2B"/>
<path d="M180.89 131.748C180.89 132.523 180.256 133.149 179.473 133.149C178.69 133.149 178.057 132.523 178.057 131.748C178.057 130.974 178.69 130.347 179.473 130.347C180.256 130.347 180.89 130.974 180.89 131.748Z" fill="#3369FF"/>
<path d="M185.367 131.748C185.367 132.523 184.734 133.149 183.951 133.149C183.168 133.149 182.534 132.523 182.534 131.748C182.534 130.974 183.168 130.347 183.951 130.347C184.734 130.347 185.367 130.974 185.367 131.748Z" fill="#A0A0A0"/>
<path d="M189.938 131.748C189.938 132.523 189.304 133.149 188.521 133.149C187.738 133.149 187.104 132.523 187.104 131.748C187.104 130.974 187.738 130.347 188.521 130.347C189.304 130.347 189.938 130.974 189.938 131.748Z" fill="#A0A0A0"/>
<path d="M209.97 148.845H243.755C245.255 148.845 246.472 149.971 246.619 151.397L246.634 151.686L246.628 156.273C246.627 157.237 247.409 158.019 248.373 158.019H263.995C265.594 158.02 266.872 159.299 266.873 160.859V195.786C266.872 197.351 265.588 198.625 263.995 198.626H209.97C208.371 198.626 207.092 197.346 207.091 195.786V151.686C207.091 150.12 208.377 148.845 209.97 148.845Z" fill="#ECECEC" stroke="#2B2B2B" stroke-width="1.16281"/>
<path d="M243.791 165.485L236.986 172.215L230.18 165.485L226.073 169.547L232.878 176.277L226.073 183.008L230.18 187.07L236.986 180.339L243.791 187.07L247.899 183.008L241.093 176.277L247.899 169.547L243.791 165.485Z" fill="#F47971"/>
<path d="M244.626 94.0564C244.099 89.9379 243.999 86.5727 244.312 83.9819C244.626 81.3911 245.572 78.927 247.146 76.6038C248.043 75.2169 249.11 73.9849 250.335 72.9077C251.559 71.8306 252.677 70.7182 253.681 69.5636C254.677 68.409 255.489 67.1559 256.108 65.8042C256.727 64.4525 256.905 62.7628 256.649 60.7353C256.215 57.3138 254.955 55.0398 252.876 53.9134C250.798 52.7869 248.448 52.3856 245.836 52.7095C242.091 53.1741 239.642 54.5259 238.496 56.7646C237.343 59.0034 236.816 61.8899 236.902 65.424L223.234 67.1207C222.799 63.6992 222.97 60.517 223.746 57.5813C224.522 54.6455 225.825 52.0688 227.662 49.8582C229.498 47.6476 231.812 45.8312 234.617 44.4162C237.414 43.0011 240.582 42.0788 244.113 41.6424C251.744 40.6919 257.959 41.4875 262.764 44.0079C267.569 46.5353 270.41 51.2522 271.292 58.1727C271.577 60.4114 271.591 62.3897 271.349 64.1286C271.1 65.8605 270.609 67.4657 269.862 68.9441C269.114 70.4225 268.146 71.8376 266.957 73.1893C265.768 74.5481 264.401 75.9561 262.864 77.4205C261.461 78.8003 260.344 80.0605 259.518 81.1869C258.692 82.3204 258.101 83.475 257.753 84.6507C257.397 85.8334 257.233 87.0443 257.247 88.2764C257.261 89.5154 257.368 90.9094 257.56 92.4442L244.633 94.0493L244.626 94.0564ZM246.768 114.332L245.024 100.604L259.326 98.8296L261.07 112.558L246.768 114.332Z" fill="#3369FF"/>
</svg>
