<svg width="300" height="300" viewBox="0 0 300 300" fill="none" xmlns="http://www.w3.org/2000/svg">
<path d="M150 255.683C232.843 255.683 300 250.956 300 245.124C300 239.293 232.843 234.565 150 234.565C67.1573 234.565 0 239.293 0 245.124C0 250.956 67.1573 255.683 150 255.683Z" fill="#D9D9D9"/>
<path d="M55.379 210.305C55.379 210.305 59.7827 200.59 45.5778 186.578C45.5778 186.578 45.5095 204.752 55.379 210.305Z" fill="#F9AB43"/>
<path d="M47.2112 190.162C47.913 191.572 48.5963 192.981 49.2547 194.41C49.913 195.832 50.5652 197.261 51.1553 198.708C51.7888 200.143 52.3416 201.609 52.8944 203.075C53.1739 203.808 53.4348 204.547 53.6832 205.292C53.9627 206.025 54.1677 206.783 54.4348 207.528C54.1366 205.981 53.7578 204.447 53.2733 202.944C52.795 201.441 52.236 199.963 51.6335 198.509C51 197.062 50.3478 195.627 49.6149 194.236C48.882 192.845 48.0994 191.472 47.2174 190.162H47.2112Z" fill="#FFCF74"/>
<path d="M227.429 194.323C227.429 194.323 222.447 184.894 235.776 170.05C235.776 170.05 236.944 188.186 227.429 194.323Z" fill="#F9AB43"/>
<path d="M234.36 173.72C233.745 175.174 233.149 176.621 232.578 178.081C232.006 179.54 231.441 181.006 230.944 182.491C230.398 183.963 229.932 185.453 229.472 186.956C229.236 187.702 229.019 188.46 228.82 189.217C228.584 189.969 228.429 190.739 228.205 191.497C228.404 189.938 228.696 188.379 229.087 186.851C229.472 185.323 229.944 183.814 230.453 182.323C231 180.845 231.559 179.366 232.211 177.932C232.863 176.497 233.553 175.081 234.36 173.72Z" fill="#FFCF74"/>
<path d="M50.1364 98.7856H235.217C237.685 98.7857 239.686 100.786 239.686 103.254V216.286C239.686 218.754 237.685 220.754 235.217 220.754H50.1364C47.6683 220.754 45.6676 218.754 45.6676 216.286V103.254C45.6677 100.786 47.6684 98.7857 50.1364 98.7856Z" fill="white" stroke="#2B2B2B"/>
<path d="M66.6335 106.655H218.715C220.647 106.655 222.215 108.222 222.215 110.155V209.385C222.215 211.318 220.647 212.885 218.715 212.885H66.6335C64.7005 212.885 63.1335 211.318 63.1335 209.385V110.155C63.1335 108.222 64.7006 106.655 66.6335 106.655Z" fill="#99B4FF" stroke="#2B2B2B"/>
<path d="M80.882 126.749H116.851C117.679 126.749 118.351 127.42 118.351 128.249V143.883C118.351 145.264 119.47 146.383 120.851 146.383H138.009V192.572C138.009 193.4 137.337 194.072 136.509 194.072H80.882C80.0536 194.072 79.3821 193.4 79.382 192.572V128.249C79.382 127.42 80.0535 126.749 80.882 126.749Z" fill="white" stroke="#2B2B2B"/>
<path d="M134.889 141.898H122.86V128.775L134.889 141.898Z" fill="white" stroke="#2B2B2B"/>
<path d="M252.325 225.204L211.797 234.792L212.258 236.74L252.786 227.152L252.325 225.204Z" fill="white" stroke="#2B2B2B"/>
<path d="M228.918 229.719L210.602 234.052L211.522 237.944L229.839 233.61L228.918 229.719Z" fill="#2B2B2B" stroke="#2B2B2B"/>
<path d="M260.278 207.78C251.929 207.624 245.035 214.266 244.879 222.614C244.723 230.963 251.364 237.857 259.713 238.013C268.061 238.169 274.956 231.528 275.112 223.179C275.268 214.831 268.626 207.936 260.278 207.78Z" fill="#3369FF" stroke="black"/>
<path d="M266.352 213.046C260.923 209.537 253.677 211.093 250.168 216.522C246.659 221.951 248.215 229.196 253.643 232.705C259.072 236.214 266.318 234.659 269.827 229.23C273.337 223.801 271.78 216.555 266.352 213.046Z" fill="white" stroke="#2B2B2B"/>
<path d="M259.522 216.644C259.09 214.826 257.271 213.707 255.459 214.133C253.642 214.565 252.522 216.383 252.947 218.202C253.379 220.021 255.198 221.141 257.011 220.715H257.01C258.828 220.283 259.949 218.464 259.522 216.644Z" fill="white" stroke="#2B2B2B"/>
<path d="M105.047 169.686C105.487 169.196 106.052 168.923 106.807 168.873L106.808 168.872C107.521 168.824 108.123 169.021 108.655 169.466L108.656 169.466C109.18 169.913 109.463 170.468 109.504 171.174L109.504 171.18C109.552 171.889 109.347 172.477 108.884 172.978C108.41 173.491 107.839 173.767 107.124 173.816C106.386 173.862 105.787 173.663 105.281 173.227C104.781 172.788 104.506 172.224 104.457 171.506L104.456 171.506C104.409 170.765 104.612 170.171 105.047 169.686ZM99.7923 152.261C101.611 151.345 103.674 150.816 105.994 150.659L105.994 150.658C108.656 150.485 110.721 150.91 112.251 151.871L112.255 151.872C113.762 152.805 114.564 154.158 114.68 155.996C114.746 157.049 114.566 157.843 114.184 158.437C113.763 159.092 113.007 159.885 111.857 160.823L111.852 160.828C111.266 161.317 110.783 161.727 110.423 162.057L110.103 162.359C109.692 162.759 109.381 163.209 109.187 163.71C108.99 164.218 108.913 164.803 108.958 165.453L108.96 165.486L104.292 165.785L104.287 165.693C104.148 163.61 104.856 161.973 106.421 160.715L106.422 160.716L107.245 160.06C108.035 159.471 108.63 158.959 108.974 158.534L108.973 158.534C109.381 158.037 109.548 157.446 109.508 156.807C109.456 155.956 109.036 155.297 108.281 154.91C107.577 154.548 106.627 154.446 105.508 154.523L105.507 154.523C104.587 154.587 103.653 154.751 102.696 155.025L102.285 155.15C101.502 155.397 100.753 155.705 100.036 156.07L99.7923 152.261Z" fill="white" stroke="#2B2B2B" stroke-width="1.2"/>
<path d="M282.109 68.5742V190.161C282.109 192.094 280.542 193.661 278.609 193.661H167.975C166.042 193.661 164.475 192.094 164.475 190.161V68.5742H282.109Z" fill="white" stroke="#2B2B2B"/>
<path d="M169.975 60.5H276.609C279.646 60.5001 282.109 62.9625 282.109 66V68.1953H164.475V66C164.475 63.0574 166.786 60.6542 169.692 60.5068L169.975 60.5Z" fill="#2B2B2B" stroke="#2B2B2B"/>
<path d="M171.373 63.9999C171.373 65.1055 170.472 66.0061 169.366 66.0061C168.261 66.0061 167.36 65.1055 167.36 63.9999C167.36 62.8943 168.261 61.9937 169.366 61.9937C170.472 61.9937 171.373 62.8943 171.373 63.9999Z" fill="#3369FF"/>
<path d="M176.124 66.0061C177.232 66.0061 178.13 65.1079 178.13 63.9999C178.13 62.8919 177.232 61.9937 176.124 61.9937C175.016 61.9937 174.118 62.8919 174.118 63.9999C174.118 65.1079 175.016 66.0061 176.124 66.0061Z" fill="#D9D9D9"/>
<path d="M182.882 66.0061C183.99 66.0061 184.888 65.1079 184.888 63.9999C184.888 62.8919 183.99 61.9937 182.882 61.9937C181.774 61.9937 180.876 62.8919 180.876 63.9999C180.876 65.1079 181.774 66.0061 182.882 66.0061Z" fill="#D9D9D9"/>
<path fill-rule="evenodd" clip-rule="evenodd" d="M238.918 105.798C238.175 105.489 238.124 104.456 238.833 104.077L239.383 103.782C239.647 103.642 239.851 103.411 239.958 103.132L242.785 95.8297C243.012 95.2411 243.715 94.9993 244.257 95.3232L244.339 95.3721C244.62 95.5405 244.973 95.5349 245.249 95.3577C245.652 95.0994 246.188 95.2173 246.445 95.6208L247.713 97.6108C248.054 98.1454 248.799 98.2338 249.255 97.7938C249.501 97.5572 249.849 97.4614 250.181 97.5394L252.952 98.191C253.626 98.3497 254.017 99.0562 253.792 99.712L253.661 100.092C253.577 100.338 253.345 100.504 253.085 100.504C252.886 100.504 252.7 100.601 252.586 100.763L251.893 101.752C251.518 102.287 251.379 102.952 251.51 103.592L251.671 104.38C251.779 104.908 251.652 105.458 251.323 105.886L251.197 106.05C250.9 106.436 250.814 106.944 250.966 107.406C251.28 108.356 250.573 109.334 249.573 109.334H249.469C249.226 109.334 248.985 109.392 248.768 109.503L245.492 111.175C244.997 111.428 244.606 111.846 244.387 112.357L243.528 114.366C243.311 114.874 243.278 115.441 243.434 115.971L243.585 116.485C243.638 116.663 243.661 116.848 243.655 117.034L243.623 118.031C243.608 118.48 243.222 118.827 242.774 118.792C242.541 118.774 242.327 118.654 242.192 118.464L241.405 117.361C240.832 116.557 240.816 115.483 241.364 114.662L241.776 114.046C241.867 113.909 241.905 113.743 241.883 113.58L241.862 113.429C241.807 113.03 241.368 112.812 241.017 113.01C240.743 113.165 240.394 113.067 240.24 112.792L239.468 111.412C239.258 111.036 239.165 110.606 239.203 110.177L239.502 106.761C239.538 106.347 239.302 105.957 238.918 105.798ZM264.814 105.978C265.965 104.985 265.901 103.181 264.682 102.273L260.552 99.1965C260.07 98.8376 259.47 98.6745 258.873 98.7401L258.512 98.7798C257.337 98.9089 256.435 99.8828 256.397 101.065L256.347 102.613C256.328 103.218 256.574 103.801 257.021 104.208C257.539 104.679 257.783 105.38 257.669 106.071L257.542 106.843C257.45 107.404 257.562 107.979 257.858 108.465L258.478 109.482C258.547 109.594 258.554 109.734 258.497 109.853C258.382 110.091 258.534 110.372 258.796 110.407L260.284 110.604C260.594 110.645 260.879 110.796 261.086 111.03L261.165 111.119C261.602 111.61 262.356 111.652 262.844 111.211C263.107 110.974 263.25 110.631 263.233 110.277L263.154 108.612C263.12 107.882 263.423 107.177 263.976 106.7L264.814 105.978ZM257.763 111.08C258.01 110.516 257.974 109.868 257.666 109.335L257.288 108.679C257.006 108.191 256.907 107.618 257.008 107.063L257.114 106.488C257.24 105.796 257.003 105.087 256.485 104.611L256.422 104.553C256.006 104.172 255.785 103.624 255.821 103.061L256.024 99.8165C256.035 99.6388 255.839 99.5238 255.689 99.6197C255.601 99.6759 255.486 99.6617 255.414 99.5859L255.255 99.4182C254.996 99.1436 254.536 99.2486 254.422 99.6088L254.15 100.461C254.068 100.719 253.828 100.895 253.557 100.895C253.352 100.895 253.161 100.995 253.045 101.164L252.48 101.982C252.106 102.525 251.974 103.199 252.116 103.843L252.273 104.555C252.392 105.093 252.267 105.656 251.93 106.092L251.841 106.208C251.53 106.611 251.434 107.14 251.581 107.627C251.888 108.639 251.13 109.66 250.072 109.66H249.905C249.638 109.66 249.374 109.723 249.136 109.844L245.984 111.439C245.484 111.692 245.09 112.114 244.87 112.629L244.073 114.507C243.86 115.007 243.825 115.565 243.975 116.088L244.09 116.493C244.143 116.678 244.163 116.87 244.151 117.062L244.062 118.407C244.046 118.642 244.233 118.841 244.468 118.841C244.641 118.841 244.795 118.95 244.853 119.113L245.06 119.699C245.315 120.422 246.142 120.763 246.833 120.429L247.691 120.014C247.812 119.956 247.951 119.948 248.078 119.991C248.3 120.068 248.545 119.982 248.671 119.784L249.411 118.621C249.546 118.408 249.513 118.13 249.332 117.955C249.099 117.729 249.121 117.349 249.378 117.152L249.838 116.8C250.056 116.633 250.331 116.56 250.603 116.597L252.176 116.81C252.862 116.903 253.553 116.693 254.071 116.234L257.332 113.345C257.649 113.064 257.754 112.614 257.593 112.222C257.491 111.972 257.495 111.691 257.603 111.444L257.763 111.08ZM269.224 108.715C269.05 109.273 268.458 109.585 267.9 109.413L267.142 109.18C266.757 109.061 266.571 108.624 266.752 108.264C266.988 107.793 266.598 107.25 266.078 107.326C265.969 107.342 265.866 107.385 265.778 107.451L264.484 108.432C264.346 108.537 264.148 108.512 264.041 108.375C263.844 108.125 263.443 108.284 263.472 108.601L263.656 110.67C263.668 110.807 263.614 110.941 263.511 111.031C263.24 111.271 263.367 111.719 263.724 111.779L264.327 111.882C264.52 111.915 264.718 111.868 264.876 111.752L266.265 110.733C266.607 110.482 267.078 110.502 267.398 110.781C267.726 111.066 267.805 111.544 267.588 111.92L267.141 112.691C267.094 112.773 267.078 112.87 267.097 112.963C267.155 113.241 267.483 113.364 267.71 113.192L268.821 112.348C268.88 112.303 268.943 112.263 269.009 112.229L271.333 111.038C271.58 110.911 271.861 110.866 272.134 110.91C272.806 111.016 273.447 110.59 273.609 109.93L273.786 109.21C273.827 109.044 273.811 108.869 273.74 108.713C273.628 108.467 273.395 108.299 273.127 108.271L270.348 107.976C269.845 107.923 269.375 108.232 269.224 108.715ZM271.017 104.043C271.804 104.043 272.505 104.542 272.763 105.286C273.206 106.564 272.171 107.869 270.826 107.728L270.033 107.646C269.555 107.596 269.108 107.891 268.967 108.351L268.93 108.47C268.788 108.93 268.303 109.191 267.841 109.056L267.705 109.015C267.266 108.887 267.042 108.402 267.227 107.984C267.468 107.442 267.018 106.847 266.431 106.93L266.051 106.984C265.894 107.007 265.744 107.067 265.616 107.161L264.663 107.858C264.465 108.003 264.19 107.971 264.031 107.785C263.864 107.591 263.884 107.298 264.076 107.129L266.892 104.639C267.326 104.255 267.886 104.043 268.466 104.043H271.017ZM272.105 111.304C271.826 111.25 271.536 111.291 271.283 111.422L269.188 112.509C269.106 112.552 269.027 112.602 268.953 112.658L267.852 113.5C267.449 113.808 266.861 113.599 266.744 113.105C266.704 112.936 266.728 112.758 266.812 112.606L267.27 111.769C267.394 111.544 267.339 111.263 267.14 111.1C266.95 110.945 266.678 110.939 266.482 111.087L265.528 111.807C265.064 112.157 264.473 112.294 263.903 112.184L262.976 112.006C262.766 111.965 262.549 112.018 262.382 112.151C262.08 112.389 261.645 112.354 261.385 112.072L260.939 111.587C260.721 111.349 260.428 111.192 260.109 111.14L258.932 110.947C258.534 110.882 258.144 111.103 257.994 111.478C257.91 111.69 257.913 111.926 258.003 112.136L258.051 112.247C258.243 112.694 258.135 113.213 257.78 113.545L256.932 114.339C256.541 114.705 256.479 115.303 256.787 115.742C257.127 116.227 257.795 116.345 258.281 116.006L259.392 115.233C260.133 114.716 261.103 114.665 261.894 115.1L263.117 115.772C263.595 116.035 264.188 115.962 264.588 115.59C265.029 115.179 265.699 115.137 266.188 115.49L266.528 115.735C266.831 115.953 267.194 116.07 267.567 116.07H268.038C268.572 116.07 269.091 115.89 269.51 115.559L269.719 115.394C270.138 115.063 270.657 114.883 271.191 114.883H271.845C272.168 114.883 272.476 114.748 272.695 114.511C272.864 114.328 272.969 114.095 272.995 113.848L273.118 112.673C273.186 112.023 272.747 111.429 272.105 111.304ZM270.372 115.415C270.491 115.329 270.634 115.283 270.781 115.283C271.395 115.283 271.712 116.017 271.291 116.464L270.22 117.602C270.055 117.778 269.969 118.014 269.984 118.255C270.008 118.654 269.759 119.018 269.378 119.141L269.342 119.153C269.096 119.232 268.828 119.205 268.603 119.078L264.981 117.032C264.54 116.784 264.475 116.175 264.852 115.838C265.105 115.613 265.477 115.588 265.758 115.777L266.42 116.223C266.711 116.42 267.055 116.525 267.407 116.525H268.062C268.56 116.525 269.046 116.369 269.45 116.078L270.372 115.415ZM265.502 124.093C265.74 123.629 265.479 123.065 264.971 122.948C264.707 122.886 264.492 122.695 264.399 122.44L263.911 121.091C263.795 120.771 263.961 120.418 264.281 120.303C264.591 120.192 264.758 119.857 264.661 119.542L264.135 117.843C263.962 117.284 263.588 116.808 263.086 116.507L261.977 115.843C261.161 115.354 260.131 115.399 259.361 115.959L258.18 116.816C257.637 117.21 256.873 117.062 256.517 116.493C256.145 115.897 255.332 115.767 254.793 116.218L254.029 116.857C253.584 117.229 253.001 117.392 252.428 117.306L250.466 117.01C250.312 116.987 250.155 117.022 250.025 117.107L249.854 117.22C249.601 117.386 249.569 117.745 249.788 117.953C249.951 118.107 249.982 118.355 249.862 118.544L248.803 120.222C248.659 120.45 248.376 120.547 248.123 120.456C247.983 120.405 247.829 120.411 247.694 120.472L246.657 120.936C245.974 121.242 245.174 120.897 244.928 120.189L244.802 119.83C244.698 119.532 244.417 119.332 244.101 119.332C243.861 119.332 243.636 119.448 243.497 119.643L242.524 121.009C242.184 121.487 242.032 122.074 242.099 122.656L242.529 126.433L243.027 128.735C243.359 130.273 245.136 130.994 246.446 130.123C247.044 129.725 247.797 129.64 248.47 129.893L254.104 132.015C254.547 132.182 254.93 132.478 255.204 132.864L255.361 133.084C255.74 133.62 256.356 133.938 257.013 133.938C258.447 133.938 259.427 135.388 258.892 136.719L258.576 137.504C258.296 138.2 258.362 138.988 258.752 139.628L258.986 140.011C259.114 140.221 259.298 140.39 259.518 140.501C260.142 140.814 260.902 140.585 261.248 139.978L261.63 139.31C261.787 139.035 261.88 138.729 261.904 138.413L262.252 133.695L261.934 128.663C261.875 127.721 262.379 126.833 263.218 126.401L264.223 125.884C264.542 125.72 264.802 125.46 264.966 125.14L265.502 124.093ZM264.881 120.498C265.191 120.372 265.342 120.021 265.222 119.71L265.117 119.437C264.81 118.643 265.664 117.9 266.408 118.315L267.801 119.092C268.284 119.362 268.283 120.057 267.799 120.326C267.691 120.386 267.601 120.473 267.537 120.579L266.584 122.16C266.347 122.553 265.88 122.742 265.437 122.623C265.088 122.529 264.813 122.259 264.714 121.911L264.522 121.232C264.437 120.931 264.591 120.615 264.881 120.498Z" fill="#3369FF"/>
<mask id="mask0_5896_2269" style="mask-type:luminance" maskUnits="userSpaceOnUse" x="238" y="95" width="36" height="46">
<path fill-rule="evenodd" clip-rule="evenodd" d="M238.918 105.798C238.175 105.489 238.124 104.456 238.833 104.077L239.403 103.772C239.654 103.638 239.848 103.418 239.95 103.153L242.785 95.8297C243.012 95.2411 243.715 94.9993 244.257 95.3232L244.339 95.3721C244.62 95.5405 244.973 95.5349 245.249 95.3577C245.652 95.0994 246.188 95.2173 246.445 95.6208L247.713 97.6108C248.054 98.1454 248.799 98.2338 249.255 97.7938C249.501 97.5572 249.849 97.4614 250.181 97.5394L252.952 98.191C253.626 98.3497 254.017 99.0562 253.792 99.712L253.661 100.092C253.577 100.338 253.345 100.504 253.085 100.504C252.886 100.504 252.7 100.601 252.586 100.763L251.599 102.171C251.412 102.438 251.342 102.771 251.408 103.091L251.733 104.68C251.802 105.018 251.721 105.369 251.51 105.642L251.106 106.168C250.866 106.48 250.796 106.891 250.92 107.265L251.088 107.773C251.342 108.542 250.769 109.334 249.96 109.334H249.384C249.196 109.334 249.011 109.379 248.844 109.464L245.109 111.37C244.861 111.497 244.666 111.706 244.556 111.961L243.361 114.759C243.252 115.012 243.235 115.296 243.313 115.561L243.61 116.57C243.646 116.692 243.662 116.818 243.658 116.944L243.623 118.031C243.608 118.48 243.222 118.827 242.774 118.792C242.541 118.774 242.327 118.654 242.192 118.464L240.929 116.693C240.642 116.292 240.634 115.754 240.908 115.344L241.776 114.046C241.867 113.909 241.905 113.743 241.883 113.58L241.862 113.429C241.807 113.03 241.368 112.812 241.017 113.01C240.743 113.165 240.394 113.067 240.24 112.792L239.324 111.154C239.208 110.946 239.157 110.708 239.177 110.471L239.502 106.761C239.538 106.347 239.302 105.957 238.918 105.798ZM264.814 105.978C265.965 104.985 265.901 103.181 264.682 102.273L260.552 99.1965C260.07 98.8376 259.47 98.6745 258.873 98.7401L258.512 98.7798C257.337 98.9089 256.435 99.8828 256.397 101.065L256.347 102.613C256.328 103.218 256.574 103.801 257.021 104.208C257.539 104.679 257.783 105.38 257.669 106.071L257.542 106.843C257.45 107.404 257.562 107.979 257.858 108.465L258.35 109.272C258.499 109.515 258.514 109.817 258.39 110.075C258.328 110.204 258.41 110.356 258.552 110.374L260.008 110.568C260.496 110.632 260.944 110.87 261.271 111.238L261.357 111.335C261.688 111.707 262.259 111.739 262.629 111.405C263.028 111.045 263.245 110.525 263.219 109.988L263.154 108.612C263.12 107.882 263.423 107.177 263.976 106.7L264.814 105.978ZM257.915 110.734C258.067 110.388 258.045 109.99 257.856 109.662L257.069 108.301C256.928 108.057 256.879 107.77 256.929 107.493L257.199 106.021C257.273 105.62 257.135 105.208 256.834 104.932L256.183 104.334C255.918 104.092 255.778 103.743 255.8 103.385L256.024 99.8165C256.035 99.6388 255.839 99.5237 255.689 99.6196C255.601 99.6759 255.486 99.6617 255.414 99.5859L255.113 99.2673C254.917 99.0604 254.571 99.1395 254.485 99.4108L254.15 100.461C254.068 100.719 253.828 100.895 253.557 100.895C253.352 100.895 253.161 100.995 253.045 101.164L252.187 102.407C252 102.679 251.934 103.016 252.005 103.338L252.341 104.862C252.417 105.205 252.337 105.564 252.122 105.843L251.719 106.366C251.485 106.67 251.412 107.068 251.523 107.435L251.733 108.128C251.964 108.891 251.393 109.66 250.596 109.66H249.782C249.596 109.66 249.412 109.704 249.246 109.788L245.597 111.635C245.347 111.762 245.15 111.972 245.04 112.23L243.908 114.893C243.802 115.144 243.784 115.423 243.859 115.684L244.113 116.574C244.151 116.705 244.165 116.842 244.156 116.978L244.054 118.531C244.043 118.699 244.176 118.841 244.344 118.841C244.591 118.841 244.812 118.997 244.894 119.23L245.317 120.429C245.435 120.763 245.817 120.92 246.136 120.766L247.691 120.014C247.812 119.956 247.951 119.948 248.078 119.991C248.3 120.068 248.545 119.982 248.671 119.784L249.411 118.621C249.546 118.408 249.513 118.13 249.332 117.955C249.099 117.729 249.121 117.349 249.378 117.152L249.838 116.8C250.056 116.633 250.331 116.56 250.603 116.597L252.716 116.883C253.059 116.93 253.405 116.825 253.663 116.595L257.332 113.345C257.649 113.064 257.754 112.614 257.593 112.222C257.491 111.972 257.495 111.691 257.603 111.444L257.915 110.734ZM269.086 109.159C268.988 109.471 268.657 109.646 268.344 109.55L267.077 109.16C266.726 109.052 266.556 108.654 266.721 108.326L266.812 108.144C267.023 107.724 266.674 107.24 266.208 107.307C266.014 107.335 265.829 107.412 265.672 107.531L264.891 108.124C264.526 108.4 264.008 108.333 263.725 107.974C263.622 107.843 263.412 107.927 263.426 108.093L263.642 110.524C263.663 110.752 263.573 110.977 263.401 111.129C263.174 111.329 263.28 111.704 263.579 111.755L264.133 111.849C264.45 111.903 264.775 111.826 265.035 111.636L266.265 110.733C266.607 110.482 267.078 110.502 267.398 110.781C267.726 111.066 267.805 111.544 267.588 111.92L267.191 112.605C267.111 112.742 267.085 112.905 267.117 113.06C267.166 113.294 267.441 113.397 267.63 113.253L268.826 112.344C268.882 112.301 268.941 112.264 269.003 112.232L271.368 111.02C271.592 110.905 271.847 110.864 272.096 110.904L272.243 110.927C272.853 111.023 273.435 110.637 273.583 110.037L273.786 109.21C273.827 109.044 273.811 108.869 273.74 108.713C273.628 108.467 273.395 108.299 273.127 108.271L270.452 107.987C269.889 107.927 269.362 108.274 269.193 108.815L269.086 109.159ZM271.487 104.043C271.993 104.043 272.444 104.364 272.609 104.842L273.408 107.147C273.55 107.558 273.217 107.978 272.785 107.933L270.181 107.661C269.617 107.602 269.09 107.951 268.923 108.493L268.847 108.74C268.751 109.05 268.424 109.226 268.112 109.135L267.528 108.964C267.183 108.863 267.006 108.481 267.152 108.153L267.328 107.758C267.525 107.314 267.157 106.827 266.676 106.895L266.105 106.977C265.912 107.004 265.729 107.079 265.571 107.194L264.663 107.858C264.465 108.003 264.19 107.971 264.031 107.785C263.864 107.591 263.884 107.298 264.076 107.129L267.229 104.341C267.446 104.149 267.726 104.043 268.016 104.043H271.487ZM272.08 111.299C271.817 111.248 271.544 111.287 271.306 111.411L269.156 112.525C269.095 112.557 269.037 112.594 268.982 112.636L267.709 113.609C267.373 113.866 266.883 113.692 266.786 113.28C266.719 112.998 266.759 112.702 266.898 112.448L267.27 111.769C267.394 111.544 267.339 111.263 267.14 111.1C266.95 110.945 266.678 110.939 266.482 111.087L265.22 112.039C264.952 112.241 264.611 112.32 264.281 112.257L262.976 112.006C262.766 111.965 262.549 112.018 262.382 112.151C262.08 112.389 261.645 112.354 261.385 112.072L260.879 111.522C260.699 111.326 260.459 111.197 260.197 111.154L258.932 110.947C258.534 110.882 258.144 111.103 257.994 111.478C257.91 111.69 257.913 111.926 258.003 112.136L258.051 112.247C258.243 112.694 258.135 113.213 257.78 113.545L256.932 114.339C256.541 114.705 256.479 115.303 256.787 115.742C257.127 116.227 257.795 116.345 258.281 116.006L259.997 114.811C260.367 114.553 260.852 114.527 261.248 114.745L263.166 115.799C263.615 116.046 264.172 115.977 264.547 115.628L264.633 115.547C265.048 115.161 265.678 115.122 266.137 115.453L266.682 115.846C266.885 115.992 267.128 116.07 267.377 116.07H268.451C268.718 116.07 268.977 115.98 269.186 115.815L270.043 115.139C270.252 114.973 270.512 114.883 270.779 114.883H271.845C272.168 114.883 272.476 114.748 272.695 114.511C272.864 114.328 272.969 114.095 272.995 113.848L273.125 112.607C273.189 111.994 272.775 111.435 272.171 111.317L272.08 111.299ZM270.372 115.415C270.491 115.329 270.634 115.283 270.781 115.283C271.395 115.283 271.712 116.017 271.291 116.464L270.22 117.602C270.055 117.778 269.969 118.014 269.984 118.255C270.008 118.654 269.759 119.018 269.378 119.141L269.342 119.153C269.096 119.232 268.828 119.205 268.603 119.078L264.981 117.032C264.54 116.784 264.475 116.175 264.852 115.838C265.105 115.613 265.477 115.588 265.758 115.777L266.566 116.322C266.762 116.455 266.994 116.525 267.23 116.525H268.445C268.694 116.525 268.937 116.447 269.139 116.302L270.372 115.415ZM265.61 123.883C265.793 123.526 265.591 123.092 265.2 123.001C264.793 122.906 264.461 122.612 264.319 122.219L263.911 121.091C263.795 120.771 263.961 120.418 264.281 120.303C264.591 120.192 264.758 119.857 264.661 119.542L264.135 117.843C263.962 117.284 263.588 116.808 263.086 116.507L261.304 115.44C260.896 115.195 260.381 115.218 259.996 115.497L258.18 116.816C257.637 117.21 256.873 117.062 256.517 116.493C256.145 115.897 255.332 115.767 254.793 116.218L254.149 116.756C253.628 117.192 252.944 117.384 252.272 117.282L250.466 117.01C250.312 116.987 250.155 117.022 250.025 117.107L249.854 117.22C249.601 117.386 249.569 117.745 249.788 117.953C249.951 118.107 249.982 118.355 249.862 118.544L248.741 120.32C248.633 120.491 248.421 120.564 248.232 120.495C248.022 120.419 247.791 120.428 247.588 120.519L246.567 120.976C245.932 121.261 245.189 120.94 244.96 120.283L244.802 119.83C244.698 119.531 244.417 119.332 244.101 119.332C243.861 119.332 243.636 119.448 243.497 119.643L242.524 121.009C242.184 121.487 242.032 122.074 242.099 122.656L242.529 126.433L243.351 130.233C243.527 131.051 244.472 131.435 245.169 130.971L246.385 130.163C247.022 129.74 247.823 129.649 248.538 129.919L254.104 132.015C254.547 132.182 254.93 132.478 255.204 132.864L255.256 132.937C255.701 133.565 256.424 133.938 257.194 133.938H258.252C259.093 133.938 259.668 134.788 259.354 135.569L258.576 137.504C258.296 138.2 258.362 138.988 258.752 139.628L258.864 139.811C259.072 140.152 259.371 140.427 259.727 140.606C260.234 140.861 260.851 140.674 261.132 140.182L261.602 139.359C261.777 139.052 261.882 138.709 261.908 138.356L262.252 133.695L261.934 128.663C261.875 127.721 262.379 126.833 263.218 126.401L264.035 125.981C264.476 125.754 264.836 125.394 265.062 124.952L265.61 123.883ZM264.881 120.498C265.191 120.372 265.342 120.021 265.222 119.71L265.116 119.437C264.809 118.643 265.664 117.9 266.408 118.315L267.801 119.092C268.284 119.362 268.283 120.057 267.799 120.326C267.691 120.386 267.601 120.473 267.537 120.579L266.584 122.16C266.347 122.553 265.88 122.742 265.437 122.623C265.088 122.529 264.813 122.259 264.714 121.911L264.522 121.232C264.437 120.931 264.591 120.615 264.881 120.498Z" fill="white"/>
</mask>
<g mask="url(#mask0_5896_2269)">
</g>
<path fill-rule="evenodd" clip-rule="evenodd" d="M207.949 87.2605C207.376 86.9385 206.97 86.3849 206.835 85.7418L206.398 83.6558C206.302 83.1999 206.343 82.726 206.514 82.293L206.984 81.107C207.217 80.5181 207.086 79.8473 206.649 79.389L206.635 79.3747C206.367 79.0939 206.213 78.7238 206.202 78.3358L206.184 77.7469C206.168 77.2003 205.711 76.771 205.164 76.7904C204.701 76.8068 204.312 77.1436 204.229 77.5995L204.161 77.975C204.073 78.458 203.748 78.8645 203.297 79.057L198.98 80.8971C198.644 81.0406 198.254 80.8949 198.094 80.5657C197.993 80.3595 197.797 80.217 197.57 80.1857L196.755 80.0733C195.325 79.8761 194.268 81.376 194.936 82.6564C195.122 83.0148 195.426 83.2988 195.796 83.4617L197.345 84.1441C197.573 84.2447 197.737 84.452 197.781 84.6976C197.835 84.9919 198.058 85.2264 198.349 85.2949L198.705 85.3787C199.266 85.5106 199.675 85.993 199.713 86.5678L200.127 92.8049C200.156 93.2445 200.362 93.6537 200.697 93.9396L200.89 94.1041C201.302 94.4551 201.938 94.2081 202.006 93.6713L202.031 93.4681C202.124 92.7255 202.871 92.2519 203.583 92.4842C204.193 92.6835 204.851 92.3633 205.071 91.7604L205.236 91.3078C205.468 90.671 206.059 90.2347 206.736 90.1997L207.921 90.1384C208.551 90.1058 209.076 89.6467 209.194 89.0271C209.303 88.4506 209.032 87.8689 208.52 87.5815L207.949 87.2605ZM241.741 96.6502C242.185 95.5052 241.683 94.2103 240.584 93.6634L238.904 92.8279C238.694 92.7234 238.452 92.7031 238.228 92.7712L237.639 92.9495C237.253 93.0666 236.879 92.7352 236.948 92.3376C236.99 92.0993 236.869 91.8622 236.651 91.7566L233.968 90.4556C233.786 90.3673 233.573 90.3672 233.391 90.4554L233.336 90.4821C232.977 90.6558 232.551 90.4465 232.468 90.0564L232.42 89.8263C232.394 89.7018 232.29 89.6087 232.163 89.596C232.043 89.5839 231.927 89.6475 231.873 89.7558L231.525 90.4506C231.371 90.7588 231.11 91.0003 230.79 91.1301L230.363 91.3038C229.745 91.5551 229.261 92.0546 229.03 92.6802L228.492 94.1353C228.348 94.5222 227.983 94.7817 227.57 94.7891C227.185 94.7959 226.831 94.5815 226.658 94.2374L223.813 88.5755C223.486 87.9258 222.88 87.4614 222.168 87.315L221.1 87.0954C220.522 86.9767 220.098 86.4824 220.069 85.8936L220.065 85.8238C220.035 85.2309 219.58 84.7471 218.99 84.681L217.912 84.5604C217.448 84.5085 217.106 84.9831 217.301 85.4069C217.503 85.8453 217.131 86.3306 216.655 86.2484L214.275 85.8375C213.808 85.757 213.329 85.8563 212.933 86.1155L210.793 87.517C210.22 87.8916 209.837 88.4946 209.742 89.1718L209.511 90.7997V91.6829C209.511 92.2262 209.697 92.7531 210.039 93.1757L211.529 95.0211C211.792 95.3459 212.135 95.5958 212.525 95.7457L214.09 96.3475C215.391 96.8479 215.983 98.3557 215.371 99.6081L211.135 108.277C210.765 109.033 210.823 109.929 211.288 110.631L214.404 115.337C214.801 115.937 215.449 116.325 216.166 116.391L229.805 117.655C230.829 117.75 231.799 117.175 232.206 116.23L233.68 112.808L234.264 110.657C234.35 110.342 234.499 110.047 234.704 109.792L236.407 107.672C236.735 107.264 236.815 106.709 236.615 106.225C236.339 105.557 236.602 104.789 237.229 104.43L238.418 103.749C238.89 103.479 239.255 103.055 239.452 102.547L241.741 96.6502ZM224.116 87.9961C223.794 87.3587 223.203 86.8997 222.506 86.7462L221.868 86.6058C221.167 86.4514 220.656 85.8471 220.619 85.1301C220.596 84.6676 220.971 84.2828 221.434 84.2936L222.711 84.3235C222.957 84.3292 223.2 84.3748 223.431 84.4584L223.721 84.5631C224.855 84.9729 226.091 84.2962 226.357 83.1204C226.442 82.7455 226.632 82.4028 226.906 82.1334L228.361 80.7035C228.55 80.5168 228.672 80.272 228.706 80.008C228.749 79.6829 229.208 79.655 229.29 79.9725L229.788 81.9195L230.639 84.7046C230.709 84.9338 230.997 85.0063 231.167 84.8374C231.292 84.7139 231.492 84.714 231.616 84.8376L232.517 85.7348C232.929 86.1453 233.085 86.7475 232.925 87.3066L232.537 88.6546C232.474 88.8755 232.266 89.023 232.036 89.0099C231.841 88.9987 231.657 89.1048 231.569 89.2801L231.275 89.8639C231.124 90.1635 230.877 90.4034 230.573 90.5447L229.903 90.8557C229.344 91.1156 228.907 91.5828 228.686 92.1586L228.042 93.8373C227.959 94.0532 227.744 94.1889 227.513 94.1707C227.331 94.1563 227.17 94.0482 227.088 93.8854L224.116 87.9961ZM242.832 119.819C243.008 119.593 242.866 119.262 242.582 119.233C242.371 119.212 242.18 119.1 242.059 118.926L240.456 116.632C240.167 116.218 240.171 115.667 240.467 115.257L241.534 113.778C241.571 113.726 241.592 113.664 241.592 113.6C241.592 113.358 241.325 113.213 241.122 113.343L240.781 113.561C240.527 113.724 240.189 113.64 240.039 113.378L238.79 111.186C238.669 110.973 238.617 110.729 238.64 110.486L238.948 107.228C238.995 106.723 238.717 106.244 238.256 106.034L237.874 105.861C237.471 105.679 237.065 106.107 237.269 106.499C237.437 106.822 237.401 107.214 237.177 107.501L235.063 110.213C234.965 110.338 234.893 110.482 234.852 110.635L234.244 112.902L232.119 118.004L230.789 120.723C230.755 120.792 230.735 120.867 230.73 120.944L230.52 124.023C230.476 124.665 231.14 125.116 231.721 124.84L231.795 124.804C232.064 124.676 232.368 124.897 232.33 125.193C232.285 125.535 232.479 125.864 232.8 125.99L233.669 126.332C233.957 126.445 234.283 126.312 234.411 126.03C234.551 125.722 234.924 125.597 235.221 125.76L236.709 126.578C236.957 126.714 237.245 126.757 237.522 126.699L240.898 126C241.509 125.873 241.918 125.295 241.834 124.677L241.487 122.126C241.444 121.809 241.531 121.488 241.727 121.236L242.832 119.819ZM205.979 123.666C205.959 123.976 206.083 124.278 206.316 124.485C206.72 124.844 206.769 125.459 206.427 125.878L205.482 127.034C204.875 127.777 203.88 128.082 202.96 127.806L194.499 125.268C194.098 125.148 193.736 124.925 193.45 124.62L192.065 123.146C191.823 122.889 191.788 122.496 191.975 122.197C192.145 121.926 192.129 121.573 191.932 121.321L191.782 121.13C191.636 120.942 191.649 120.676 191.813 120.504C191.914 120.397 191.961 120.249 191.94 120.104L191.88 119.691C191.788 119.064 191.234 118.612 190.602 118.647L189.927 118.744C189.65 118.784 189.368 118.725 189.131 118.577C188.823 118.385 188.757 117.965 188.993 117.688L189.384 117.228L191.403 117.614L191.974 117.049L193.031 117.161C193.373 117.197 193.672 116.928 193.672 116.584C193.672 116.252 193.949 115.988 194.28 116.004L194.591 116.019C195.243 116.05 195.859 115.716 196.189 115.153L196.576 114.492C196.847 114.028 197.345 113.742 197.884 113.742C198.292 113.742 198.682 113.907 198.968 114.198L200.416 115.68C200.719 115.991 201.205 116.029 201.553 115.77C201.691 115.667 201.888 115.758 201.899 115.93L202.146 119.857C202.23 121.184 203.393 122.18 204.717 122.059L204.88 122.044C205.515 121.986 206.053 122.509 206.012 123.145L205.979 123.666ZM180.095 114.175C179.954 114.101 179.806 114.041 179.653 113.997L170.676 111.382C170.427 111.309 170.158 111.365 169.958 111.532C169.659 111.782 169.59 112.214 169.797 112.545L171.715 115.603C171.879 115.865 171.904 116.192 171.78 116.476C171.576 116.946 171.786 117.492 172.252 117.704L173.497 118.271C173.996 118.498 174.558 118.541 175.086 118.394L176.145 118.1C177.275 117.785 178.399 118.624 178.417 119.798C178.432 120.777 179.229 121.562 180.208 121.562H183.354C183.698 121.562 184.018 121.387 184.204 121.098L184.393 120.803C184.577 120.517 184.953 120.425 185.249 120.593C185.43 120.696 185.65 120.705 185.838 120.616L186.304 120.397C187.523 119.823 187.561 118.103 186.369 117.475L180.095 114.175ZM188.823 116.996C188.489 117.37 187.944 117.47 187.497 117.241L180.25 113.512C180.184 113.479 180.116 113.451 180.045 113.43L170.612 110.627C170.515 110.598 170.426 110.546 170.353 110.476C170.009 110.146 170.138 109.568 170.591 109.416L171.151 109.228C171.518 109.105 171.78 108.781 171.822 108.396L172.084 106.014C172.116 105.727 172.251 105.462 172.464 105.267L173.779 104.068C174.005 103.861 174.303 103.75 174.609 103.758L176.095 103.794C176.458 103.803 176.805 103.646 177.037 103.367L177.258 103.101C177.54 102.763 177.986 102.608 178.417 102.699L178.922 102.806C179.569 102.943 180.202 102.526 180.333 101.879L181.703 95.0875C181.769 94.7601 181.676 94.4208 181.451 94.1736L181.259 93.9615C181.075 93.7591 181.039 93.4628 181.168 93.222C181.331 92.9189 181.228 92.5412 180.933 92.3636L180.415 92.0518C180.059 91.8374 179.842 91.4522 179.842 91.0367C179.842 90.3822 180.372 89.8516 181.027 89.8516H181.843C182.244 89.8516 182.538 89.4741 182.44 89.0851C182.383 88.861 182.206 88.6874 181.981 88.6356L181.081 88.4286C180.769 88.3569 180.525 88.1136 180.453 87.8019C180.323 87.2468 180.774 86.7274 181.341 86.7766L184.076 87.014C184.33 87.0361 184.555 86.8478 184.577 86.5934C184.591 86.4307 184.69 86.2876 184.837 86.2168L185.761 85.7725C186.322 85.5026 186.997 85.7119 187.307 86.2522L187.427 86.463C187.508 86.604 187.559 86.7601 187.577 86.9216L187.683 87.8584C187.763 88.578 188.463 89.0586 189.164 88.8753L190.72 88.4679C190.988 88.3978 191.264 88.5498 191.347 88.8136C191.449 89.1344 191.824 89.2754 192.112 89.1013L197.28 85.9757C197.568 85.8017 197.917 85.7578 198.239 85.855L198.319 85.8792C198.794 86.0228 199.13 86.4467 199.161 86.9422L199.564 93.3738C199.585 93.7132 199.751 94.0272 200.019 94.2363L200.741 94.7996C201.403 95.3157 202.374 94.9041 202.464 94.0696C202.536 93.3976 203.205 92.9598 203.849 93.1627L203.972 93.2013C204.571 93.3898 205.212 93.0749 205.429 92.4859L205.774 91.5465C205.939 91.0992 206.355 90.7936 206.831 90.7702L207.758 90.7246C208.395 90.6933 208.929 91.2013 208.929 91.839C208.929 92.3815 209.127 92.9054 209.485 93.3128L211.449 95.5454C211.701 95.8328 212.02 96.0549 212.377 96.1927L214.684 97.0834C215.337 97.3353 215.632 98.0941 215.32 98.7206L210.145 109.126C209.953 109.511 209.985 109.97 210.227 110.325L210.713 111.037C210.884 111.287 210.952 111.594 210.905 111.893L210.599 113.81C210.505 114.399 209.99 114.827 209.394 114.811L202.334 114.621C202.111 114.615 201.894 114.687 201.719 114.824C201.326 115.133 200.762 115.085 200.426 114.715L199.459 113.651C199.042 113.192 198.444 112.941 197.824 112.966C197.102 112.995 196.446 113.393 196.088 114.02L195.658 114.773C195.446 115.144 195.053 115.372 194.626 115.372H193.824C193.517 115.372 193.269 115.62 193.269 115.926C193.269 116.254 192.987 116.51 192.661 116.478L192.159 116.429C191.942 116.408 191.726 116.484 191.57 116.638C191.4 116.807 191.159 116.882 190.924 116.84L189.839 116.646C189.463 116.579 189.078 116.711 188.823 116.996Z" fill="#3369FF"/>
<mask id="mask1_5896_2269" style="mask-type:luminance" maskUnits="userSpaceOnUse" x="169" y="76" width="74" height="52">
<path fill-rule="evenodd" clip-rule="evenodd" d="M207.949 87.2605C207.376 86.9385 206.97 86.3849 206.835 85.7418L206.398 83.6558C206.302 83.1999 206.343 82.726 206.514 82.293L206.984 81.107C207.217 80.5181 207.086 79.8473 206.649 79.389L206.635 79.3747C206.367 79.0939 206.213 78.7238 206.202 78.3358L206.184 77.7469C206.168 77.2003 205.711 76.771 205.164 76.7904C204.701 76.8068 204.312 77.1436 204.229 77.5995L204.161 77.975C204.073 78.458 203.748 78.8645 203.297 79.057L198.98 80.8971C198.644 81.0406 198.254 80.8949 198.094 80.5657C197.993 80.3595 197.797 80.217 197.57 80.1857L196.755 80.0733C195.325 79.8761 194.268 81.376 194.936 82.6564C195.122 83.0148 195.426 83.2988 195.796 83.4617L197.345 84.1441C197.573 84.2447 197.737 84.452 197.781 84.6976C197.835 84.9919 198.058 85.2264 198.349 85.2949L198.705 85.3787C199.266 85.5106 199.675 85.993 199.713 86.5678L200.127 92.8049C200.156 93.2445 200.362 93.6537 200.697 93.9396L200.89 94.1041C201.302 94.4551 201.938 94.2081 202.006 93.6713L202.031 93.4681C202.124 92.7255 202.871 92.2519 203.583 92.4842C204.193 92.6835 204.851 92.3633 205.071 91.7604L205.236 91.3078C205.468 90.671 206.059 90.2347 206.736 90.1997L207.921 90.1384C208.551 90.1058 209.076 89.6467 209.194 89.0271C209.303 88.4506 209.032 87.8689 208.52 87.5815L207.949 87.2605ZM241.741 96.6502C242.185 95.5052 241.683 94.2103 240.584 93.6634L238.904 92.8279C238.694 92.7234 238.452 92.7031 238.228 92.7712L237.639 92.9495C237.253 93.0666 236.879 92.7352 236.948 92.3376C236.99 92.0993 236.869 91.8622 236.651 91.7566L233.968 90.4556C233.786 90.3673 233.573 90.3672 233.391 90.4554L233.336 90.4821C232.977 90.6558 232.551 90.4465 232.468 90.0564L232.42 89.8263C232.394 89.7018 232.29 89.6087 232.163 89.596C232.043 89.5839 231.927 89.6475 231.873 89.7558L231.525 90.4506C231.371 90.7588 231.11 91.0003 230.79 91.1301L230.363 91.3038C229.745 91.5551 229.261 92.0546 229.03 92.6802L228.492 94.1353C228.348 94.5222 227.983 94.7817 227.57 94.7891C227.185 94.7959 226.831 94.5815 226.658 94.2374L223.813 88.5755C223.486 87.9258 222.88 87.4614 222.168 87.315L221.1 87.0954C220.522 86.9767 220.098 86.4824 220.069 85.8936L220.065 85.8238C220.035 85.2309 219.58 84.7471 218.99 84.681L217.912 84.5604C217.448 84.5085 217.106 84.9831 217.301 85.4069C217.503 85.8453 217.131 86.3306 216.655 86.2484L214.275 85.8375C213.808 85.757 213.329 85.8563 212.933 86.1155L210.793 87.517C210.22 87.8916 209.837 88.4946 209.742 89.1718L209.511 90.7997V91.6829C209.511 92.2262 209.697 92.7531 210.039 93.1757L211.529 95.0211C211.792 95.3459 212.135 95.5958 212.525 95.7457L214.09 96.3475C215.391 96.8479 215.983 98.3557 215.371 99.6081L211.135 108.277C210.765 109.033 210.823 109.929 211.288 110.631L214.404 115.337C214.801 115.937 215.449 116.325 216.166 116.391L229.805 117.655C230.829 117.75 231.799 117.175 232.206 116.23L233.68 112.808L234.264 110.657C234.35 110.342 234.499 110.047 234.704 109.792L236.407 107.672C236.735 107.264 236.815 106.709 236.615 106.225C236.339 105.557 236.602 104.789 237.229 104.43L238.418 103.749C238.89 103.479 239.255 103.055 239.452 102.547L241.741 96.6502ZM224.116 87.9961C223.794 87.3587 223.203 86.8997 222.506 86.7462L221.868 86.6058C221.167 86.4514 220.656 85.8471 220.619 85.1301C220.596 84.6676 220.971 84.2828 221.434 84.2936L222.711 84.3235C222.957 84.3292 223.2 84.3748 223.431 84.4584L223.721 84.5631C224.855 84.9729 226.091 84.2962 226.357 83.1204C226.442 82.7455 226.632 82.4028 226.906 82.1334L228.361 80.7035C228.55 80.5168 228.672 80.272 228.706 80.008C228.749 79.6829 229.208 79.655 229.29 79.9725L229.788 81.9195L230.639 84.7046C230.709 84.9338 230.997 85.0063 231.167 84.8374C231.292 84.7139 231.492 84.714 231.616 84.8376L232.517 85.7348C232.929 86.1453 233.085 86.7475 232.925 87.3066L232.537 88.6546C232.474 88.8755 232.266 89.023 232.036 89.0099C231.841 88.9987 231.657 89.1048 231.569 89.2801L231.275 89.8639C231.124 90.1635 230.877 90.4034 230.573 90.5447L229.903 90.8557C229.344 91.1156 228.907 91.5828 228.686 92.1586L228.042 93.8373C227.959 94.0532 227.744 94.1889 227.513 94.1707C227.331 94.1563 227.17 94.0482 227.088 93.8854L224.116 87.9961ZM242.832 119.819C243.008 119.593 242.866 119.262 242.582 119.233C242.371 119.212 242.18 119.1 242.059 118.926L240.456 116.632C240.167 116.218 240.171 115.667 240.467 115.257L241.534 113.778C241.571 113.726 241.592 113.664 241.592 113.6C241.592 113.358 241.325 113.213 241.122 113.343L240.781 113.561C240.527 113.724 240.189 113.64 240.039 113.378L238.79 111.186C238.669 110.973 238.617 110.729 238.64 110.486L238.948 107.228C238.995 106.723 238.717 106.244 238.256 106.034L237.874 105.861C237.471 105.679 237.065 106.107 237.269 106.499C237.437 106.822 237.401 107.214 237.177 107.501L235.063 110.213C234.965 110.338 234.893 110.482 234.852 110.635L234.244 112.902L232.119 118.004L230.789 120.723C230.755 120.792 230.735 120.867 230.73 120.944L230.52 124.023C230.476 124.665 231.14 125.116 231.721 124.84L231.795 124.804C232.064 124.676 232.368 124.897 232.33 125.193C232.285 125.535 232.479 125.864 232.8 125.99L233.669 126.332C233.957 126.445 234.283 126.312 234.411 126.03C234.551 125.722 234.924 125.597 235.221 125.76L236.709 126.578C236.957 126.714 237.245 126.757 237.522 126.699L240.898 126C241.509 125.873 241.918 125.295 241.834 124.677L241.487 122.126C241.444 121.809 241.531 121.488 241.727 121.236L242.832 119.819ZM205.979 123.666C205.959 123.976 206.083 124.278 206.316 124.485C206.72 124.844 206.769 125.459 206.427 125.878L205.482 127.034C204.875 127.777 203.88 128.082 202.96 127.806L194.499 125.268C194.098 125.148 193.736 124.925 193.45 124.62L192.065 123.146C191.823 122.889 191.788 122.496 191.975 122.197C192.145 121.926 192.129 121.573 191.932 121.321L191.782 121.13C191.636 120.942 191.649 120.676 191.813 120.504C191.914 120.397 191.961 120.249 191.94 120.104L191.88 119.691C191.788 119.064 191.234 118.612 190.602 118.647L189.927 118.744C189.65 118.784 189.368 118.725 189.131 118.577C188.823 118.385 188.757 117.965 188.993 117.688L189.384 117.228L191.403 117.614L191.974 117.049L193.031 117.161C193.373 117.197 193.672 116.928 193.672 116.584C193.672 116.252 193.949 115.988 194.28 116.004L194.591 116.019C195.243 116.05 195.859 115.716 196.189 115.153L196.576 114.492C196.847 114.028 197.345 113.742 197.884 113.742C198.292 113.742 198.682 113.907 198.968 114.198L200.416 115.68C200.719 115.991 201.205 116.029 201.553 115.77C201.691 115.667 201.888 115.758 201.899 115.93L202.146 119.857C202.23 121.184 203.393 122.18 204.717 122.059L204.88 122.044C205.515 121.986 206.053 122.509 206.012 123.145L205.979 123.666ZM180.095 114.175C179.954 114.101 179.806 114.041 179.653 113.997L170.676 111.382C170.427 111.309 170.158 111.365 169.958 111.532C169.659 111.782 169.59 112.214 169.797 112.545L171.715 115.603C171.879 115.865 171.904 116.192 171.78 116.476C171.576 116.946 171.786 117.492 172.252 117.704L173.497 118.271C173.996 118.498 174.558 118.541 175.086 118.394L176.145 118.1C177.275 117.785 178.399 118.624 178.417 119.798C178.432 120.777 179.229 121.562 180.208 121.562H183.354C183.698 121.562 184.018 121.387 184.204 121.098L184.393 120.803C184.577 120.517 184.953 120.425 185.249 120.593C185.43 120.696 185.65 120.705 185.838 120.616L186.304 120.397C187.523 119.823 187.561 118.103 186.369 117.475L180.095 114.175ZM188.823 116.996C188.489 117.37 187.944 117.47 187.497 117.241L180.25 113.512C180.184 113.479 180.116 113.451 180.045 113.43L170.612 110.627C170.515 110.598 170.426 110.546 170.353 110.476C170.009 110.146 170.138 109.568 170.591 109.416L171.151 109.228C171.518 109.105 171.78 108.781 171.822 108.396L172.084 106.014C172.116 105.727 172.251 105.462 172.464 105.267L173.779 104.068C174.005 103.861 174.303 103.75 174.609 103.758L176.095 103.794C176.458 103.803 176.805 103.646 177.037 103.367L177.258 103.101C177.54 102.763 177.986 102.608 178.417 102.699L178.922 102.806C179.569 102.943 180.202 102.526 180.333 101.879L181.703 95.0875C181.769 94.7601 181.676 94.4208 181.451 94.1736L181.259 93.9615C181.075 93.7591 181.039 93.4628 181.168 93.222C181.331 92.9189 181.228 92.5412 180.933 92.3636L180.415 92.0518C180.059 91.8374 179.842 91.4522 179.842 91.0367C179.842 90.3822 180.372 89.8516 181.027 89.8516H181.843C182.244 89.8516 182.538 89.4741 182.44 89.0851C182.383 88.861 182.206 88.6874 181.981 88.6356L181.081 88.4286C180.769 88.3569 180.525 88.1136 180.453 87.8019C180.323 87.2468 180.774 86.7274 181.341 86.7766L184.076 87.014C184.33 87.0361 184.555 86.8478 184.577 86.5934C184.591 86.4307 184.69 86.2876 184.837 86.2168L185.761 85.7725C186.322 85.5026 186.997 85.7119 187.307 86.2522L187.427 86.463C187.508 86.604 187.559 86.7601 187.577 86.9216L187.683 87.8584C187.763 88.578 188.463 89.0586 189.164 88.8753L190.72 88.4679C190.988 88.3978 191.264 88.5498 191.347 88.8136C191.449 89.1344 191.824 89.2754 192.112 89.1013L197.28 85.9757C197.568 85.8017 197.917 85.7578 198.239 85.855L198.319 85.8792C198.794 86.0228 199.13 86.4467 199.161 86.9422L199.564 93.3738C199.585 93.7132 199.751 94.0272 200.019 94.2363L200.741 94.7996C201.403 95.3157 202.374 94.9041 202.464 94.0696C202.536 93.3976 203.205 92.9598 203.849 93.1627L203.972 93.2013C204.571 93.3898 205.212 93.0749 205.429 92.4859L205.774 91.5465C205.939 91.0992 206.355 90.7936 206.831 90.7702L207.758 90.7246C208.395 90.6933 208.929 91.2013 208.929 91.839C208.929 92.3815 209.127 92.9054 209.485 93.3128L211.449 95.5454C211.701 95.8328 212.02 96.0549 212.377 96.1927L214.684 97.0834C215.337 97.3353 215.632 98.0941 215.32 98.7206L210.145 109.126C209.953 109.511 209.985 109.97 210.227 110.325L210.713 111.037C210.884 111.287 210.952 111.594 210.905 111.893L210.599 113.81C210.505 114.399 209.99 114.827 209.394 114.811L202.334 114.621C202.111 114.615 201.894 114.687 201.719 114.824C201.326 115.133 200.762 115.085 200.426 114.715L199.459 113.651C199.042 113.192 198.444 112.941 197.824 112.966C197.102 112.995 196.446 113.393 196.088 114.02L195.658 114.773C195.446 115.144 195.053 115.372 194.626 115.372H193.824C193.517 115.372 193.269 115.62 193.269 115.926C193.269 116.254 192.987 116.51 192.661 116.478L192.159 116.429C191.942 116.408 191.726 116.484 191.57 116.638C191.4 116.807 191.159 116.882 190.924 116.84L189.839 116.646C189.463 116.579 189.078 116.711 188.823 116.996Z" fill="white"/>
</mask>
<g mask="url(#mask1_5896_2269)">
</g>
<path fill-rule="evenodd" clip-rule="evenodd" d="M257.964 137.787C257.768 138.27 257.798 138.815 258.047 139.273C258.402 139.925 258.063 140.737 257.35 140.943L257.226 140.979C256.609 141.158 256.224 141.77 256.33 142.404L256.547 143.704C256.636 144.235 256.535 144.78 256.262 145.244L255.479 146.571C255.369 146.758 255.141 146.839 254.938 146.764C254.676 146.666 254.389 146.83 254.341 147.106L254.239 147.691C254.203 147.898 254.098 148.087 253.942 148.228L253.813 148.344C253.552 148.579 253.386 148.9 253.345 149.249L253.318 149.473C253.233 150.199 252.765 150.825 252.093 151.113L251.466 151.381C251.261 151.469 251.044 151.527 250.823 151.555L246.7 152.066C246.415 152.101 246.138 152.188 245.883 152.322L243.519 153.571C242.995 153.847 242.347 153.648 242.068 153.126C241.794 152.612 241.739 152.009 241.918 151.454L242.191 150.606C242.379 150.021 241.942 149.421 241.327 149.421C240.918 149.421 240.56 149.147 240.452 148.753L239.902 146.74C239.737 146.137 239.132 145.765 238.519 145.89L235.376 146.529C235.096 146.586 234.835 146.373 234.835 146.087C234.835 145.862 234.668 145.671 234.444 145.64L232.866 145.425C232.783 145.414 232.699 145.419 232.618 145.44L230.635 145.958C230.425 146.013 230.29 145.743 230.459 145.607C230.485 145.586 230.506 145.558 230.519 145.526L231.026 144.285L231.153 143.851C231.399 143.015 232.082 142.38 232.933 142.197L236.565 141.415C236.882 141.347 237.212 141.377 237.511 141.501C238.128 141.758 238.839 141.601 239.292 141.11L239.31 141.091C239.736 140.629 239.858 139.963 239.625 139.38L239.582 139.273C239.397 138.811 239.41 138.294 239.618 137.842L240.665 135.563C240.808 135.252 240.882 134.914 240.882 134.571V133.545C240.882 132.777 241.598 132.212 242.345 132.389L242.546 132.437C243.19 132.59 243.869 132.467 244.419 132.098L246.372 130.787C247.013 130.357 247.824 130.265 248.546 130.542L253.793 132.552C254.176 132.698 254.514 132.942 254.775 133.258L254.968 133.491C255.423 134.043 256.103 134.36 256.819 134.355L257.585 134.349C258.432 134.342 259.014 135.198 258.695 135.983L257.964 137.787ZM256.948 142.818C256.843 142.217 257.211 141.635 257.799 141.471L258.95 141.149C259.229 141.072 259.526 141.098 259.786 141.224L260.149 141.399C260.578 141.607 260.842 142.05 260.819 142.527L260.72 144.563C260.706 144.847 260.59 145.117 260.394 145.324L257.631 148.232C257.495 148.375 257.411 148.559 257.392 148.756C257.346 149.232 256.93 149.585 256.453 149.552L256.116 149.529C255.729 149.503 255.379 149.289 255.179 148.956L254.961 148.592C254.847 148.403 254.806 148.178 254.845 147.96L254.94 147.436C254.991 147.156 255.281 146.989 255.548 147.085C255.753 147.158 255.982 147.078 256.096 146.892L257.077 145.289C257.227 145.043 257.283 144.75 257.234 144.466L256.948 142.818ZM255.707 149.81C255.441 149.792 255.202 149.643 255.068 149.413L254.973 149.252C254.765 148.896 254.284 148.82 253.976 149.094C253.857 149.2 253.781 149.346 253.763 149.504L253.644 150.505C253.593 150.928 253.32 151.292 252.927 151.458L251.654 151.998C251.57 152.034 251.481 152.06 251.391 152.075L247.833 152.684C247.309 152.774 246.995 153.317 247.178 153.816C247.296 154.138 247.596 154.358 247.939 154.373L253.126 154.6C253.597 154.621 254.036 154.361 254.244 153.937L254.664 153.081C254.786 152.832 254.992 152.633 255.245 152.52L256.292 152.052C256.676 151.88 256.937 151.515 256.977 151.096C257.038 150.444 256.55 149.869 255.897 149.824L255.707 149.81ZM241.703 153.685C242.011 154.244 242.706 154.46 243.276 154.173L246.076 152.767L246.616 154.254L244.394 156.598L240.074 158.593L238.329 160.495L236.666 159.929L236.694 159.127L234.514 158.783L233.495 154.142H230.777L229.362 153.254H224.627L225.087 152.624L226.786 151.879L228.767 147.41L229.592 146.803L232.094 146.161C232.39 146.085 232.697 146.067 233 146.108L233.96 146.236C234.203 146.268 234.384 146.476 234.384 146.721C234.384 147.032 234.67 147.264 234.974 147.2L238.2 146.522C238.813 146.393 239.42 146.762 239.588 147.365L240.329 150.017H240.386C241.195 150.017 241.767 150.808 241.514 151.577L241.312 152.19C241.209 152.503 241.241 152.846 241.4 153.135L241.703 153.685Z" fill="#3369FF"/>
<mask id="mask2_5896_2269" style="mask-type:luminance" maskUnits="userSpaceOnUse" x="224" y="130" width="37" height="31">
<path fill-rule="evenodd" clip-rule="evenodd" d="M257.964 137.787C257.768 138.27 257.798 138.815 258.047 139.273C258.402 139.925 258.063 140.737 257.35 140.943L257.226 140.979C256.609 141.158 256.224 141.77 256.33 142.404L256.547 143.704C256.636 144.235 256.535 144.78 256.262 145.244L255.479 146.571C255.369 146.758 255.141 146.839 254.938 146.764C254.676 146.666 254.389 146.83 254.341 147.106L254.239 147.691C254.203 147.898 254.098 148.087 253.942 148.228L253.813 148.344C253.552 148.579 253.386 148.9 253.345 149.249L253.318 149.473C253.233 150.199 252.765 150.825 252.093 151.113L251.466 151.381C251.261 151.469 251.044 151.527 250.823 151.555L246.7 152.066C246.415 152.101 246.138 152.188 245.883 152.322L243.519 153.571C242.995 153.847 242.347 153.648 242.068 153.126C241.794 152.612 241.739 152.009 241.918 151.454L242.191 150.606C242.379 150.021 241.942 149.421 241.327 149.421C240.918 149.421 240.56 149.147 240.452 148.753L239.902 146.74C239.737 146.137 239.132 145.765 238.519 145.89L235.376 146.529C235.096 146.586 234.835 146.373 234.835 146.087C234.835 145.862 234.668 145.671 234.444 145.64L232.866 145.425C232.783 145.414 232.699 145.419 232.618 145.44L230.635 145.958C230.425 146.013 230.29 145.743 230.459 145.607C230.485 145.586 230.506 145.558 230.519 145.526L231.026 144.285L231.153 143.851C231.399 143.015 232.082 142.38 232.933 142.197L236.565 141.415C236.882 141.347 237.212 141.377 237.511 141.501C238.128 141.758 238.839 141.601 239.292 141.11L239.31 141.091C239.736 140.629 239.858 139.963 239.625 139.38L239.582 139.273C239.397 138.811 239.41 138.294 239.618 137.842L240.665 135.563C240.808 135.252 240.882 134.914 240.882 134.571V133.545C240.882 132.777 241.598 132.212 242.345 132.389L242.546 132.437C243.19 132.59 243.869 132.467 244.419 132.098L246.372 130.787C247.013 130.357 247.824 130.265 248.546 130.542L253.793 132.552C254.176 132.698 254.514 132.942 254.775 133.258L254.968 133.491C255.423 134.043 256.103 134.36 256.819 134.355L257.585 134.349C258.432 134.342 259.014 135.198 258.695 135.983L257.964 137.787ZM256.948 142.818C256.843 142.217 257.211 141.635 257.799 141.471L258.95 141.149C259.229 141.072 259.526 141.098 259.786 141.224L260.149 141.399C260.578 141.607 260.842 142.05 260.819 142.527L260.72 144.563C260.706 144.847 260.59 145.117 260.394 145.324L257.631 148.232C257.495 148.375 257.411 148.559 257.392 148.756C257.346 149.232 256.93 149.585 256.453 149.552L256.116 149.529C255.729 149.503 255.379 149.289 255.179 148.956L254.961 148.592C254.847 148.403 254.806 148.178 254.845 147.96L254.94 147.436C254.991 147.156 255.281 146.989 255.548 147.085C255.753 147.158 255.982 147.078 256.096 146.892L257.077 145.289C257.227 145.043 257.283 144.75 257.234 144.466L256.948 142.818ZM255.707 149.81C255.441 149.792 255.202 149.643 255.068 149.413L254.973 149.252C254.765 148.896 254.284 148.82 253.976 149.094C253.857 149.2 253.781 149.346 253.763 149.504L253.644 150.505C253.593 150.928 253.32 151.292 252.927 151.458L251.654 151.998C251.57 152.034 251.481 152.06 251.391 152.075L247.833 152.684C247.309 152.774 246.995 153.317 247.178 153.816C247.296 154.138 247.596 154.358 247.939 154.373L253.126 154.6C253.597 154.621 254.036 154.361 254.244 153.937L254.664 153.081C254.786 152.832 254.992 152.633 255.245 152.52L256.292 152.052C256.676 151.88 256.937 151.515 256.977 151.096C257.038 150.444 256.55 149.869 255.897 149.824L255.707 149.81ZM241.703 153.685C242.011 154.244 242.706 154.46 243.276 154.173L246.076 152.767L246.616 154.254L244.394 156.598L240.074 158.593L238.329 160.495L236.666 159.929L236.694 159.127L234.514 158.783L233.495 154.142H230.777L229.362 153.254H224.627L225.087 152.624L226.786 151.879L228.767 147.41L229.592 146.803L232.094 146.161C232.39 146.085 232.697 146.067 233 146.108L233.96 146.236C234.203 146.268 234.384 146.476 234.384 146.721C234.384 147.032 234.67 147.264 234.974 147.2L238.2 146.522C238.813 146.393 239.42 146.762 239.588 147.365L240.329 150.017H240.386C241.195 150.017 241.767 150.808 241.514 151.577L241.312 152.19C241.209 152.503 241.241 152.846 241.4 153.135L241.703 153.685Z" fill="white"/>
</mask>
<g mask="url(#mask2_5896_2269)">
</g>
<path fill-rule="evenodd" clip-rule="evenodd" d="M214.192 116.024C214.594 116.633 215.253 117.024 215.98 117.085L229.259 118.187C230.254 118.27 230.862 119.318 230.441 120.222C230.281 120.564 230.191 120.935 230.175 121.312L229.758 131.142C229.728 131.848 229.385 132.504 228.823 132.932L225.492 135.465L223.943 138C223.804 138.227 223.764 138.501 223.833 138.759L223.947 139.191C224.061 139.617 223.452 139.829 223.276 139.424C223.109 139.038 222.695 138.822 222.283 138.905L219.755 139.416L218.116 138.58C217.392 138.211 216.529 138.238 215.829 138.651L214.428 139.479C214.255 139.58 214.064 139.646 213.865 139.67L213.117 139.763C212.839 139.798 212.577 139.625 212.498 139.356C212.452 139.2 212.341 139.07 212.193 139L211.422 138.636C210.893 138.386 210.577 137.829 210.635 137.246C210.717 136.412 210.046 135.697 209.209 135.725L208.121 135.762C206.949 135.801 205.929 134.967 205.734 133.811L205.045 129.712C204.93 129.03 205.119 128.332 205.56 127.8L206.63 126.513C207.316 125.687 207.227 124.466 206.428 123.748C206.509 122.413 205.398 121.31 204.064 121.401L202.77 121.489L202.554 117.783C202.474 116.398 203.592 115.239 204.979 115.27L209.447 115.37C210.278 115.388 210.992 114.784 211.112 113.962C211.222 113.213 212.198 112.996 212.614 113.628L214.192 116.024ZM242.537 128.719C242.292 127.402 241.007 126.549 239.698 126.832L237.915 127.219C237.363 127.338 236.786 127.257 236.288 126.99L235.26 126.438C234.978 126.286 234.627 126.411 234.504 126.706C234.388 126.985 234.065 127.115 233.788 126.994L232.122 126.267C231.882 126.162 231.762 125.892 231.844 125.643C231.918 125.421 231.676 125.226 231.474 125.346L231.172 125.526C230.721 125.793 230.438 126.272 230.42 126.796L230.268 131.287C230.244 132.009 229.892 132.681 229.312 133.113L226.319 135.34C226.06 135.533 225.843 135.777 225.681 136.057L224.812 137.56C224.5 138.099 224.413 138.739 224.568 139.342L225.093 141.379C225.285 142.126 225.828 142.733 226.549 143.007L228.935 143.915C229.748 144.224 230.651 143.769 230.886 142.932C231.033 142.405 231.46 142.002 231.995 141.886L236.387 140.927C236.705 140.857 237.037 140.897 237.33 141.04L237.387 141.068C237.933 141.333 238.588 141.207 238.996 140.758C239.347 140.371 239.446 139.818 239.252 139.333L239.136 139.043C238.943 138.562 238.96 138.022 239.181 137.553L240.225 135.346C240.375 135.029 240.453 134.682 240.453 134.331V132.761C240.453 132.117 241.055 131.641 241.682 131.789C242.385 131.956 243.026 131.344 242.894 130.634L242.537 128.719ZM225.208 143.058C224.58 142.832 224.076 142.354 223.819 141.739L223.554 141.106C223.112 140.05 221.98 139.46 220.862 139.701L220.518 139.775C219.981 139.891 219.421 139.817 218.932 139.566L218.138 139.158C217.403 138.78 216.523 138.812 215.817 139.242L214.556 140.01C214.32 140.154 214.049 140.23 213.772 140.23C213.033 140.23 212.404 140.765 212.284 141.493L211.62 145.544C211.56 145.91 211.296 146.211 210.941 146.318C210.613 146.416 210.487 146.814 210.698 147.083L211.118 147.618C211.399 147.975 211.542 148.421 211.522 148.874L211.491 149.591C211.437 150.816 212.324 151.881 213.539 152.049L214.48 152.179C214.716 152.211 214.956 152.194 215.185 152.129C216.142 151.857 217.129 152.451 217.336 153.424L217.763 155.429C217.923 156.181 218.689 156.637 219.426 156.418L219.463 156.407C219.758 156.32 220.076 156.347 220.352 156.484C220.885 156.748 221.532 156.589 221.881 156.107L224.517 152.469C224.753 152.144 225.066 151.884 225.429 151.714L225.726 151.574C226.231 151.336 226.635 150.929 226.87 150.424L228.479 146.954C228.611 146.669 228.798 146.414 229.029 146.202L229.765 145.526C229.834 145.464 229.885 145.384 229.913 145.296C230.001 145.022 229.856 144.727 229.585 144.629L225.208 143.058Z" fill="#3369FF"/>
<mask id="mask3_5896_2269" style="mask-type:luminance" maskUnits="userSpaceOnUse" x="202" y="113" width="41" height="44">
<path fill-rule="evenodd" clip-rule="evenodd" d="M214.192 116.024C214.594 116.633 215.253 117.024 215.98 117.085L229.259 118.187C230.254 118.27 230.862 119.318 230.441 120.222C230.281 120.564 230.191 120.935 230.175 121.312L229.758 131.142C229.728 131.848 229.385 132.504 228.823 132.932L225.492 135.465L223.943 138C223.804 138.227 223.764 138.501 223.833 138.759L223.947 139.191C224.061 139.617 223.452 139.829 223.276 139.424C223.109 139.038 222.695 138.822 222.283 138.905L219.755 139.416L218.116 138.58C217.392 138.211 216.529 138.238 215.829 138.651L214.428 139.479C214.255 139.58 214.064 139.646 213.865 139.67L213.117 139.763C212.839 139.798 212.577 139.625 212.498 139.356C212.452 139.2 212.341 139.07 212.193 139L211.422 138.636C210.893 138.386 210.577 137.829 210.635 137.246C210.717 136.412 210.046 135.697 209.209 135.725L208.121 135.762C206.949 135.801 205.929 134.967 205.734 133.811L205.045 129.712C204.93 129.03 205.119 128.332 205.56 127.8L206.63 126.513C207.316 125.687 207.227 124.466 206.428 123.748C206.509 122.413 205.398 121.31 204.064 121.401L202.77 121.489L202.554 117.783C202.474 116.398 203.592 115.239 204.979 115.27L209.447 115.37C210.278 115.388 210.992 114.784 211.112 113.962C211.222 113.213 212.198 112.996 212.614 113.628L214.192 116.024ZM242.537 128.719C242.292 127.402 241.007 126.549 239.698 126.832L237.915 127.219C237.363 127.338 236.786 127.257 236.288 126.99L235.26 126.438C234.978 126.286 234.627 126.411 234.504 126.706C234.388 126.985 234.065 127.115 233.788 126.994L232.122 126.267C231.882 126.162 231.762 125.892 231.844 125.643C231.918 125.421 231.676 125.226 231.474 125.346L231.172 125.526C230.721 125.793 230.438 126.272 230.42 126.796L230.268 131.287C230.244 132.009 229.892 132.681 229.312 133.113L226.319 135.34C226.06 135.533 225.843 135.777 225.681 136.057L224.812 137.56C224.5 138.099 224.413 138.739 224.568 139.342L225.093 141.379C225.285 142.126 225.828 142.733 226.549 143.007L228.935 143.915C229.748 144.224 230.651 143.769 230.886 142.932C231.033 142.405 231.46 142.002 231.995 141.886L236.387 140.927C236.705 140.857 237.037 140.897 237.33 141.04L237.387 141.068C237.933 141.333 238.588 141.207 238.996 140.758C239.347 140.371 239.446 139.818 239.252 139.333L239.136 139.043C238.943 138.562 238.96 138.022 239.181 137.553L240.225 135.346C240.375 135.029 240.453 134.682 240.453 134.331V132.761C240.453 132.117 241.055 131.641 241.682 131.789C242.385 131.956 243.026 131.344 242.894 130.634L242.537 128.719ZM225.208 143.058C224.58 142.832 224.076 142.354 223.819 141.739L223.554 141.106C223.112 140.05 221.98 139.46 220.862 139.701L220.518 139.775C219.981 139.891 219.421 139.817 218.932 139.566L218.138 139.158C217.403 138.78 216.523 138.812 215.817 139.242L214.556 140.01C214.32 140.154 214.049 140.23 213.772 140.23C213.033 140.23 212.404 140.765 212.284 141.493L211.62 145.544C211.56 145.91 211.296 146.211 210.941 146.318C210.613 146.416 210.487 146.814 210.698 147.083L211.118 147.618C211.399 147.975 211.542 148.421 211.522 148.874L211.491 149.591C211.437 150.816 212.324 151.881 213.539 152.049L214.48 152.179C214.716 152.211 214.956 152.194 215.185 152.129C216.142 151.857 217.129 152.451 217.336 153.424L217.763 155.429C217.923 156.181 218.689 156.637 219.426 156.418L219.463 156.407C219.758 156.32 220.076 156.347 220.352 156.484C220.885 156.748 221.532 156.589 221.881 156.107L224.517 152.469C224.753 152.144 225.066 151.884 225.429 151.714L225.726 151.574C226.231 151.336 226.635 150.929 226.87 150.424L228.479 146.954C228.611 146.669 228.798 146.414 229.029 146.202L229.765 145.526C229.834 145.464 229.885 145.384 229.913 145.296C230.001 145.022 229.856 144.727 229.585 144.629L225.208 143.058Z" fill="white"/>
</mask>
<g mask="url(#mask3_5896_2269)">
</g>
<path fill-rule="evenodd" clip-rule="evenodd" d="M236.355 159.838C236.355 159.672 236.232 159.532 236.068 159.51L235.523 159.437C234.72 159.329 234.072 158.728 233.902 157.936L233.6 156.528C233.367 155.438 232.404 154.659 231.29 154.659C230.856 154.659 230.432 154.54 230.062 154.315L229.779 154.143C229.407 153.917 228.98 153.797 228.544 153.797H225.526C224.799 153.797 224.112 154.13 223.661 154.7L221.672 157.219C221.489 157.451 221.35 157.716 221.264 158L220.605 160.166C220.418 160.781 220.878 161.402 221.521 161.402C221.909 161.402 222.259 161.637 222.407 161.997L222.63 162.543C222.872 163.135 223.404 163.558 224.035 163.661L228.651 164.412C228.758 164.43 228.821 164.297 228.74 164.224C228.629 164.126 228.648 163.947 228.778 163.874L230.311 163.007C230.659 162.81 231.072 162.763 231.456 162.877L233.106 163.365C233.443 163.465 233.807 163.346 234.02 163.066C234.193 162.837 234.47 162.712 234.756 162.733L235.248 162.77C235.76 162.808 236.262 162.62 236.623 162.255L237.38 161.491C237.675 161.194 237.546 160.689 237.145 160.569L236.826 160.472C236.546 160.388 236.355 160.13 236.355 159.838ZM234.497 163.455C234.196 163.837 233.692 163.994 233.227 163.852L232.09 163.504C231.474 163.316 230.808 163.385 230.245 163.697L229.388 164.171C229.259 164.242 229.211 164.403 229.279 164.534C229.382 164.733 229.215 164.964 228.994 164.928L224.165 164.142C223.675 164.062 223.201 164.354 223.052 164.827C222.862 165.43 223.273 166.056 223.903 166.121L226.635 166.401C227.108 166.449 227.557 166.639 227.921 166.945L230.394 169.024C230.746 169.32 231.177 169.508 231.634 169.563L232.158 169.628C232.822 169.709 233.242 170.381 233.025 171.013L232.855 171.509C232.816 171.622 232.851 171.748 232.942 171.824C233.137 171.987 233.415 172.004 233.628 171.866L235.224 170.827C235.735 170.495 236.098 169.979 236.239 169.385L236.674 167.557C236.744 167.264 236.757 166.96 236.713 166.663L236.358 164.239C236.28 163.705 235.842 163.296 235.303 163.256L235.004 163.233C234.808 163.218 234.618 163.302 234.497 163.455ZM232.122 170.27C232.522 170.323 232.769 170.733 232.629 171.11L232.317 171.954C232.246 172.148 232.347 172.364 232.543 172.432C232.747 172.504 232.847 172.735 232.759 172.933L231.426 175.927C231.26 176.3 231.001 176.623 230.674 176.867L227.481 179.244C227.146 179.493 226.883 179.826 226.718 180.21L225.679 182.622C225.553 182.914 225.333 183.155 225.054 183.307L224.167 183.79C223.663 184.065 223.046 183.721 223.013 183.149C222.998 182.882 223.119 182.627 223.336 182.47L223.45 182.388C223.924 182.046 224.023 181.38 223.668 180.915L222.872 179.873C222.698 179.645 222.484 179.452 222.24 179.303L218.256 176.866C217.987 176.702 217.643 176.725 217.399 176.926C217.07 177.195 216.583 177.134 216.332 176.792L214.92 174.876C214.772 174.676 214.522 174.579 214.277 174.626C213.69 174.742 213.277 174.062 213.65 173.594L216.641 169.832C216.847 169.573 217.104 169.36 217.397 169.207L221.826 166.885C222.235 166.671 222.697 166.58 223.157 166.625L226.293 166.928C226.79 166.976 227.258 167.178 227.632 167.507L230.001 169.586C230.354 169.896 230.792 170.095 231.258 170.156L232.122 170.27Z" fill="#3369FF"/>
<mask id="mask4_5896_2269" style="mask-type:luminance" maskUnits="userSpaceOnUse" x="213" y="153" width="25" height="31">
<path fill-rule="evenodd" clip-rule="evenodd" d="M236.355 159.838C236.355 159.672 236.232 159.532 236.068 159.51L235.523 159.437C234.72 159.329 234.072 158.728 233.902 157.936L233.6 156.528C233.367 155.438 232.404 154.659 231.29 154.659C230.856 154.659 230.432 154.54 230.062 154.315L229.779 154.143C229.407 153.917 228.98 153.797 228.544 153.797H225.526C224.799 153.797 224.112 154.13 223.661 154.7L221.672 157.219C221.489 157.451 221.35 157.716 221.264 158L220.605 160.166C220.418 160.781 220.878 161.402 221.521 161.402C221.909 161.402 222.259 161.637 222.407 161.997L222.63 162.543C222.872 163.135 223.404 163.558 224.035 163.661L228.651 164.412C228.758 164.43 228.821 164.297 228.74 164.224C228.629 164.126 228.648 163.947 228.778 163.874L230.311 163.007C230.659 162.81 231.072 162.763 231.456 162.877L233.106 163.365C233.443 163.465 233.807 163.346 234.02 163.066C234.193 162.837 234.47 162.712 234.756 162.733L235.248 162.77C235.76 162.808 236.262 162.62 236.623 162.255L237.38 161.491C237.675 161.194 237.546 160.689 237.145 160.569L236.826 160.472C236.546 160.388 236.355 160.13 236.355 159.838ZM234.497 163.455C234.196 163.837 233.692 163.994 233.227 163.852L232.09 163.504C231.474 163.316 230.808 163.385 230.245 163.697L229.388 164.171C229.259 164.242 229.211 164.403 229.279 164.534C229.382 164.733 229.215 164.964 228.994 164.928L224.165 164.142C223.675 164.062 223.201 164.354 223.052 164.827C222.862 165.43 223.273 166.056 223.903 166.121L226.635 166.401C227.108 166.449 227.557 166.639 227.921 166.945L230.394 169.024C230.746 169.32 231.177 169.508 231.634 169.563L232.158 169.628C232.822 169.709 233.242 170.381 233.025 171.013L232.855 171.509C232.816 171.622 232.851 171.748 232.942 171.824C233.137 171.987 233.415 172.004 233.628 171.866L235.224 170.827C235.735 170.495 236.098 169.979 236.239 169.385L236.674 167.557C236.744 167.264 236.757 166.96 236.713 166.663L236.358 164.239C236.28 163.705 235.842 163.296 235.303 163.256L235.004 163.233C234.808 163.218 234.618 163.302 234.497 163.455ZM232.122 170.27C232.522 170.323 232.769 170.733 232.629 171.11L232.317 171.954C232.246 172.148 232.347 172.364 232.543 172.432C232.747 172.504 232.847 172.735 232.759 172.933L231.426 175.927C231.26 176.3 231.001 176.623 230.674 176.867L227.481 179.244C227.146 179.493 226.883 179.826 226.718 180.21L225.679 182.622C225.553 182.914 225.333 183.155 225.054 183.307L224.167 183.79C223.663 184.065 223.046 183.721 223.013 183.149C222.998 182.882 223.119 182.627 223.336 182.47L223.45 182.388C223.924 182.046 224.023 181.38 223.668 180.915L222.872 179.873C222.698 179.645 222.484 179.452 222.24 179.303L218.256 176.866C217.987 176.702 217.643 176.725 217.399 176.926C217.07 177.195 216.583 177.134 216.332 176.792L214.92 174.876C214.772 174.676 214.522 174.579 214.277 174.626C213.69 174.742 213.277 174.062 213.65 173.594L216.641 169.832C216.847 169.573 217.104 169.36 217.397 169.207L221.826 166.885C222.235 166.671 222.697 166.58 223.157 166.625L226.293 166.928C226.79 166.976 227.258 167.178 227.632 167.507L230.001 169.586C230.354 169.896 230.792 170.095 231.258 170.156L232.122 170.27Z" fill="white"/>
</mask>
<g mask="url(#mask4_5896_2269)">
</g>
<path d="M131 174.5H197.94C199.873 174.5 201.44 176.067 201.44 178V225.279C201.44 227.212 199.873 228.779 197.94 228.779H131C129.067 228.779 127.5 227.212 127.5 225.279V178C127.5 176.067 129.067 174.5 131 174.5Z" fill="white" stroke="#2B2B2B"/>
<path d="M131 174.5H197.94C199.873 174.5 201.44 176.067 201.44 178V180.395H127.5V178C127.5 176.067 129.067 174.5 131 174.5Z" fill="white" stroke="#2B2B2B"/>
<path d="M133.014 177.603C133.014 178.474 132.308 179.18 131.437 179.18C130.566 179.18 129.86 178.474 129.86 177.603C129.86 176.732 130.566 176.026 131.437 176.026C132.308 176.026 133.014 176.732 133.014 177.603Z" fill="#3369FF"/>
<path d="M136.75 176.526C137.345 176.526 137.828 177.009 137.828 177.603C137.828 178.198 137.345 178.68 136.75 178.68C136.156 178.68 135.673 178.198 135.673 177.603C135.673 177.008 136.156 176.526 136.75 176.526Z" fill="white" stroke="#2B2B2B"/>
<path d="M142.063 176.526C142.658 176.526 143.141 177.009 143.141 177.603C143.141 178.198 142.658 178.68 142.063 178.68C141.469 178.68 140.986 178.198 140.986 177.603C140.986 177.008 141.469 176.526 142.063 176.526Z" fill="white" stroke="#2B2B2B"/>
<path d="M195.371 204.846C194.097 203.604 192.791 202.509 191.503 201.61C190.146 200.62 188.798 199.813 187.643 199.148C185.094 197.727 182.509 196.581 179.964 195.742C175.055 194.097 170.054 193.299 164.667 193.299H164.631C159.198 193.327 154.188 194.133 149.311 195.774C146.771 196.613 144.19 197.759 141.614 199.185C140.482 199.836 139.143 200.634 137.791 201.615C136.484 202.527 135.173 203.613 133.903 204.846L133.028 205.694L133.903 206.542C135.173 207.776 136.48 208.862 137.772 209.761C139.143 210.755 140.482 211.553 141.632 212.213C144.19 213.634 146.771 214.776 149.306 215.614C154.188 217.256 159.198 218.067 164.635 218.09H164.672C170.049 218.09 175.055 217.288 179.96 215.646C182.504 214.808 185.089 213.662 187.656 212.231C188.793 211.576 190.141 210.769 191.48 209.793C192.786 208.88 194.093 207.785 195.367 206.542L196.233 205.699L195.367 204.856L195.371 204.846ZM164.64 213.987C160.06 213.987 156.343 210.274 156.343 205.69C156.343 201.106 160.056 197.393 164.64 197.393C165.905 197.393 167.101 197.686 168.174 198.19C167.496 198.782 167.056 199.639 167.056 200.611C167.056 202.389 168.495 203.829 170.274 203.829C171.122 203.829 171.892 203.494 172.465 202.953C172.763 203.81 172.937 204.727 172.937 205.69C172.937 210.269 169.224 213.987 164.64 213.987Z" fill="#99B4FF"/>
<path d="M164.47 186.643C153.968 186.643 145.419 195.188 145.419 205.695C145.419 216.201 153.964 224.746 164.47 224.746C174.977 224.746 183.522 216.201 183.522 205.695C183.522 195.188 174.977 186.643 164.47 186.643ZM164.47 190.237C168.087 190.237 171.415 191.488 174.051 193.574L152.355 215.271C150.269 212.635 149.017 209.307 149.017 205.69C149.017 197.168 155.953 190.232 164.475 190.232L164.47 190.237ZM164.47 221.152C160.853 221.152 157.525 219.901 154.89 217.815L176.586 196.118C178.672 198.754 179.923 202.082 179.923 205.699C179.923 214.221 172.988 221.157 164.466 221.157L164.47 221.152Z" fill="#FF7066"/>
<path d="M83.913 243.019C83.913 246.528 68.8673 249.365 46.9565 249.365C25.0457 249.365 10 246.523 10 243.019C10 239.516 25.0457 236.673 46.9565 236.673C68.8673 236.673 83.913 239.516 83.913 243.019Z" fill="#2B2B2B"/>
<path d="M57.4093 166.493H36.5041L20.4525 241.998C33.7634 244.886 46.9567 244.886 46.9567 244.886C46.9567 244.886 60.1499 244.886 73.4609 241.998L57.4093 166.493Z" fill="#3369FF"/>
<path d="M47.3299 167.986C53.1026 167.986 57.7823 167.318 57.7823 166.493C57.7823 165.669 53.1026 165 47.3299 165C41.5572 165 36.8776 165.669 36.8776 166.493C36.8776 167.318 41.5572 167.986 47.3299 167.986Z" fill="#2B2B2B"/>
<mask id="mask5_5896_2269" style="mask-type:luminance" maskUnits="userSpaceOnUse" x="20" y="166" width="54" height="79">
<path d="M57.5107 166.71H36.5822L20.5128 241.79C33.8385 244.662 47.0464 244.662 47.0464 244.662C47.0464 244.662 60.2543 244.662 73.5801 241.79L57.5107 166.71Z" fill="white"/>
</mask>
<g mask="url(#mask5_5896_2269)">
<path d="M46.59 238.487C25.048 238.487 10.5002 234.885 9.59705 234.659L12.5959 222.855L11.0989 228.754L12.591 222.85C12.9003 222.928 43.9494 230.536 81.8405 222.786L84.2799 234.718C70.483 237.54 57.6236 238.482 46.5949 238.482L46.59 238.487Z" fill="#ECECEC"/>
<path fill-rule="evenodd" clip-rule="evenodd" d="M46.5949 238.482C57.3305 238.482 69.8009 237.589 83.182 234.939C83.5323 234.869 83.8832 234.799 84.2348 234.727C84.2498 234.724 84.2649 234.721 84.2799 234.718L81.8405 222.786C81.8292 222.788 81.8179 222.791 81.8066 222.793C43.9906 230.519 12.998 222.952 12.5927 222.85C12.5921 222.85 12.5915 222.85 12.591 222.85L12.5902 222.853L11.4413 227.399L9.59705 234.659C9.7186 234.689 10.0873 234.781 10.6871 234.916C14.543 235.789 27.9475 238.487 46.59 238.487L46.5949 238.482ZM46.1274 237.367L46.1318 237.362H46.5949C57.2675 237.362 69.6615 236.475 82.9577 233.841L80.9669 224.104C47.299 230.753 19.2222 225.446 13.4136 224.186L12.1844 229.03L12.1827 229.029L10.9629 233.831C14.7677 234.69 27.8766 237.323 46.1274 237.367Z" fill="#2B2B2B"/>
<path d="M46.59 211.993C25.048 211.993 10.5002 208.391 9.59705 208.165L12.5959 196.361L11.0989 202.26L12.591 196.356C12.9003 196.434 43.9494 204.042 81.8405 196.292L84.2799 208.224C70.483 211.046 57.6236 211.988 46.5949 211.988L46.59 211.993Z" fill="#ECECEC"/>
<path fill-rule="evenodd" clip-rule="evenodd" d="M46.5949 211.988C57.3305 211.988 69.8009 211.095 83.182 208.445C83.5323 208.375 83.8832 208.305 84.2348 208.233C84.2498 208.23 84.2649 208.227 84.2799 208.224L81.8405 196.292C81.8293 196.294 81.818 196.297 81.8067 196.299C43.9908 204.025 12.9983 196.458 12.5927 196.356C12.5921 196.356 12.5915 196.356 12.591 196.356L12.5902 196.359L11.4409 200.907L9.59705 208.165C9.7186 208.195 10.0873 208.287 10.6871 208.423C14.543 209.295 27.9475 211.993 46.59 211.993L46.5949 211.988ZM46.1264 210.873L46.1308 210.868H46.5949C57.2675 210.868 69.6616 209.981 82.9577 207.348L80.9669 197.61C47.299 204.259 19.2222 198.952 13.4136 197.692L12.1844 202.536L12.1827 202.535L10.9629 207.337C14.7676 208.196 27.8761 210.829 46.1264 210.873Z" fill="#2B2B2B"/>
<path d="M46.5899 185.499C25.0479 185.499 10.5 181.896 9.59692 181.67L12.5958 169.866L11.0988 175.766L12.5909 169.861C12.9001 169.94 43.9493 177.547 81.8404 169.797L84.2798 181.729C70.4829 184.551 57.6235 185.494 46.5948 185.494L46.5899 185.499Z" fill="#ECECEC"/>
<path fill-rule="evenodd" clip-rule="evenodd" d="M46.5948 185.494C57.3304 185.494 69.8008 184.601 83.1819 181.95C83.533 181.881 83.8848 181.81 84.2371 181.738C84.2513 181.735 84.2656 181.732 84.2798 181.729L81.8404 169.797C81.8291 169.8 81.8178 169.802 81.8065 169.804C43.9904 177.531 12.9979 169.964 12.5926 169.862C12.592 169.861 12.5914 169.861 12.5909 169.861L12.5901 169.864L11.441 174.412L9.59692 181.67C9.71848 181.701 10.0872 181.792 10.6869 181.928C14.5429 182.801 27.9473 185.499 46.5899 185.499L46.5948 185.494ZM46.1268 184.378L46.1312 184.374H46.5948C57.2674 184.374 69.6614 183.486 82.9576 180.853L80.9668 171.115C47.2988 177.765 19.2221 172.457 13.4135 171.197L12.1843 176.041L12.1826 176.041L10.9628 180.842C14.7675 181.701 27.8762 184.334 46.1268 184.378Z" fill="#2B2B2B"/>
</g>
<g opacity="0.3">
<path d="M37.7158 178.293C37.333 180.139 36.9501 181.984 36.5673 183.83C35.6495 188.262 34.7316 192.694 33.8089 197.126C32.6898 202.515 31.5757 207.899 30.4566 213.289C29.4946 217.927 28.5326 222.56 27.5755 227.198C27.1092 229.441 26.535 231.694 26.1718 233.957C26.1669 233.986 26.1571 234.021 26.1521 234.05C25.7693 235.905 28.6602 236.431 29.0431 234.58C29.4259 232.735 29.8087 230.889 30.1916 229.044C31.1094 224.612 32.0272 220.18 32.95 215.748C34.069 210.358 35.1832 204.974 36.3023 199.585C37.2643 194.947 38.2263 190.313 39.1834 185.675C39.6496 183.432 40.2239 181.179 40.5871 178.917C40.592 178.887 40.6018 178.853 40.6067 178.823C40.9896 176.968 38.0987 176.443 37.7158 178.293Z" fill="white"/>
</g>
<path fill-rule="evenodd" clip-rule="evenodd" d="M35.5 170.425C35.8025 170.489 35.9961 170.786 35.9322 171.089C34.0656 179.93 31.2284 193.303 28.7831 204.686C27.5605 210.377 26.4357 215.571 25.5791 219.453C25.1508 221.394 24.7893 223.008 24.516 224.193C24.2472 225.358 24.0552 226.147 23.969 226.401C23.8696 226.694 23.5517 226.851 23.2588 226.751C22.966 226.652 22.8091 226.334 22.9085 226.041C22.9716 225.855 23.1483 225.14 23.4248 223.941C23.6969 222.762 24.0575 221.152 24.4855 219.212C25.3414 215.333 26.4657 210.141 27.6882 204.45C30.1331 193.07 32.97 179.698 34.8364 170.857C34.9003 170.555 35.1974 170.361 35.5 170.425Z" fill="black"/>
<path fill-rule="evenodd" clip-rule="evenodd" d="M65.1345 201.782C65.4373 201.719 65.7337 201.913 65.7966 202.216L74.0091 241.786C74.072 242.088 73.8774 242.385 73.5746 242.448C73.2718 242.511 72.9754 242.316 72.9126 242.013L64.7 202.444C64.6372 202.141 64.8317 201.844 65.1345 201.782Z" fill="black"/>
<path d="M80.0524 71.2922C79.681 70.9344 79.1857 70.734 78.6701 70.7327L57.2364 70.6781C56.1322 70.6753 55.2347 71.5678 55.2314 72.6721L55.1118 112.438C55.1085 113.543 56.0018 114.441 57.1067 114.444L90.4894 114.529C91.5937 114.532 92.4913 113.639 92.4945 112.535L92.5779 84.2121C92.5795 83.6666 92.3582 83.1441 91.9653 82.7657L80.0524 71.2922Z" fill="white" stroke="#C6C6C6" stroke-width="1.16" stroke-linecap="round" stroke-linejoin="round"/>
<path d="M79.4736 70.7347L92.5804 83.358L79.4338 83.3242L79.4736 70.7347Z" fill="white" stroke="#C6C6C6" stroke-width="1.16" stroke-linecap="round" stroke-linejoin="round"/>
<path d="M81.768 87.0364L79.4542 84.7068L73.8735 90.2629L68.3152 84.6817L65.9862 87.0016L71.5358 92.5799L65.9522 98.1303L68.2718 100.457L73.8554 94.9067L79.405 100.485L81.7369 98.1709L76.1873 92.5926L81.768 87.0364Z" fill="#D9D9D9"/>
<path d="M75.3809 66.998C75.0095 66.6403 74.5142 66.4398 73.9986 66.4385L52.5649 66.3839C51.4607 66.3811 50.5632 67.2737 50.5598 68.3779L50.4403 108.143C50.437 109.248 51.3303 110.147 52.4352 110.149L85.8179 110.235C86.9222 110.238 87.8198 109.345 87.823 108.241L87.9064 79.9179C87.908 79.3724 87.6867 78.8499 87.2938 78.4715L75.3809 66.998Z" fill="white" stroke="#C6C6C6" stroke-width="1.16" stroke-linecap="round" stroke-linejoin="round"/>
<path d="M74.8021 66.4405L87.9089 79.0638L74.7623 79.03L74.8021 66.4405Z" fill="white" stroke="#C6C6C6" stroke-width="1.16" stroke-linecap="round" stroke-linejoin="round"/>
<path d="M77.0965 82.7422L74.7827 80.4126L69.202 85.9688L63.6436 80.3875L61.3147 82.7074L66.8643 88.2857L61.2807 93.8361L63.6003 96.1629L69.1839 90.6125L74.7335 96.1908L77.0654 93.8767L71.5158 88.2984L77.0965 82.7422Z" fill="#D9D9D9"/>
</svg>
