<svg width="300" height="300" viewBox="0 0 300 300" fill="none" xmlns="http://www.w3.org/2000/svg">
<path d="M143.302 26.0111C157.371 12.097 180.183 12.097 194.252 26.0111C208.321 39.9252 208.321 62.4849 194.252 76.3991C180.183 90.3132 157.371 90.3132 143.302 76.3991C129.232 62.4849 129.232 39.9252 143.302 26.0111Z" fill="#F6F6F6" stroke="#D9D9D9" stroke-width="1.16281"/>
<path d="M148.184 30.8399C159.557 19.5926 177.997 19.5927 189.369 30.8399C200.742 42.0872 200.742 60.323 189.369 71.5703C177.997 82.8175 159.557 82.8175 148.184 71.5703C136.812 60.323 136.812 42.0872 148.184 30.8399Z" fill="#F6F6F6" stroke="#D9D9D9" stroke-width="1.16281"/>
<path d="M169.752 53.4559V31.5052C169.752 30.9646 169.313 30.5264 168.773 30.5264C168.232 30.5264 167.794 30.9646 167.794 31.5052V53.4559C167.794 53.9965 168.232 54.4347 168.773 54.4347C169.313 54.4347 169.752 53.9965 169.752 53.4559Z" fill="#D9D9D9"/>
<path d="M181.491 59.9102L169.614 53.1286C169.149 52.8628 168.552 53.0226 168.282 53.4856C168.011 53.9486 168.17 54.5395 168.635 54.8053L180.512 61.5868C180.978 61.8527 181.574 61.6928 181.845 61.2298C182.115 60.7668 181.957 60.176 181.491 59.9102Z" fill="#D9D9D9"/>
<path d="M103.728 77.2542L120.205 180.774C120.555 182.97 119.099 185.036 116.916 185.49L116.703 185.529L25.2197 199.771C22.9833 200.119 20.8981 198.669 20.4414 196.521L20.4023 196.311L0.633789 72.0813V72.0803C0.27275 69.8136 1.83499 67.685 4.13574 67.3254L73.7402 56.4836L103.728 77.2542Z" fill="#F6F6F6" stroke="#D9D9D9" stroke-width="1.16281"/>
<path d="M102.735 76.5735L81.5594 79.8704V79.8635L80.8885 79.968C79.579 80.1731 78.3537 79.3561 78.0253 78.1252L77.9716 77.8743L74.6688 57.1331L102.735 76.5735Z" fill="#F6F6F6" stroke="#D9D9D9" stroke-width="1.16281"/>
<path d="M67.0206 153.493L57.1857 155.026L55.6886 145.635L65.5236 144.103L67.0206 153.493ZM52.9698 100.302C58.7575 99.3979 63.4391 99.869 67.0626 101.63C70.4991 103.3 72.6957 106.524 73.5812 111.434L73.6622 111.914C73.9268 113.595 73.9862 115.069 73.8439 116.349C73.7009 117.635 73.3754 118.819 72.8634 119.911C72.3444 121.019 71.6584 122.097 70.8048 123.132C69.935 124.187 68.9293 125.293 67.7863 126.451L67.7784 126.459C66.7199 127.57 65.8633 128.589 65.2335 129.52C64.5981 130.459 64.1403 131.419 63.879 132.407C63.6218 133.38 63.5162 134.381 63.5538 135.387V135.391C63.5905 136.213 63.68 137.112 63.8175 138.081L55.0411 139.445C54.611 136.565 54.4871 134.223 54.6486 132.403C54.8178 130.495 55.4533 128.661 56.5607 126.91L56.5665 126.902C57.2018 125.855 57.9586 124.918 58.837 124.096C59.7731 123.22 60.6237 122.314 61.3878 121.386L61.3907 121.383C62.1635 120.428 62.791 119.395 63.255 118.284C63.7506 117.099 63.8443 115.672 63.5841 114.047C63.1489 111.326 62.0605 109.386 60.1954 108.451C58.4451 107.575 56.4983 107.31 54.3859 107.636L54.3849 107.637C51.4195 108.102 49.3408 109.261 48.3898 111.263C47.5583 113.013 47.2027 115.18 47.2921 117.735L37.8947 119.198C37.5804 116.853 37.6641 114.664 38.1339 112.629C38.6428 110.425 39.5482 108.491 40.8595 106.809L40.8605 106.807C42.1662 105.123 43.8465 103.724 45.9044 102.604C47.8311 101.555 50.0215 100.813 52.4757 100.384L52.9698 100.302Z" fill="#F6F6F6" stroke="#D9D9D9" stroke-width="1.16281"/>
<path d="M108.3 146.34C120.409 158.111 134.497 173.994 147.581 194.523C156.686 208.801 163.435 222.388 168.475 234.342C156.864 239.51 145.26 244.677 133.65 249.838L103.808 149.403L108.293 146.34H108.3Z" fill="#255DF9"/>
<path d="M86.3028 138.223L108.627 145.122C114.742 154.718 118.28 163.215 120.352 169.122C130.012 196.649 126.915 221.839 126.04 228.956C126.04 228.956 126.025 229.076 123.214 249.838H21.1306C20.7961 242.312 20.8601 231.906 22.6541 219.706C24.7826 205.231 26.7616 191.799 35.6173 177.042C39.2194 171.044 51.7413 151.839 75.7599 141.792C80.0454 139.997 83.7472 138.892 86.3028 138.223Z" fill="#255DF9"/>
<path d="M33.7878 180.253C46.2171 184.195 62.035 188.067 80.6363 189.947C97.9562 191.7 113.233 191.285 125.605 190.137C125.961 193.024 123.861 195.776 124.217 198.663C110.998 199.726 97.7355 200.183 80.1451 198.663C60.4404 196.959 43.3767 193.376 29.5094 189.525C30.9331 186.434 32.364 183.343 33.7878 180.253Z" fill="#668FFF"/>
<path d="M112.247 120.866L108.133 144.615C107.106 150.538 101.417 154.522 95.412 153.504L95.1346 153.457C89.2872 152.315 85.4096 146.771 86.4198 140.941L90.535 117.188L112.247 120.866Z" fill="#F6F6F6" stroke="#2B2B2B" stroke-width="1.16281"/>
<path d="M109.887 137.913L96.3475 127.776C96.2692 129.078 96.0628 135.189 100.633 140.23C103.552 143.447 107.011 144.665 108.62 145.123L109.88 137.913H109.887Z" fill="#2B2B2B"/>
<path d="M108.931 85.6296C110.103 85.5611 118.349 85.2303 124.829 91.1521C132.758 98.3985 131.742 109.251 131.377 113.062C131.326 113.599 130.745 118.974 128.516 124.573C126.278 130.196 122.451 135.869 116.004 137.31C110.979 138.434 106.22 136.576 102.494 134.184C99.2399 132.096 96.837 129.641 95.827 128.555L95.4813 128.179C88.1216 120.08 88.202 110.427 88.2508 108.607L88.2703 107.863C88.387 104.662 88.8937 98.6791 93.4002 93.3533L93.8875 92.7966C99.8072 86.2774 107.702 85.6979 108.93 85.6296H108.931Z" fill="#F6F6F6" stroke="#2B2B2B" stroke-width="1.16281"/>
<path d="M124.577 111.74C124.509 113.099 125.404 114.246 126.582 114.299C127.761 114.352 128.773 113.293 128.841 111.934C128.909 110.575 128.014 109.427 126.835 109.374C125.657 109.322 124.645 110.381 124.577 111.74Z" fill="black"/>
<path d="M120.039 113.512L121.733 116.87C122.046 117.489 121.754 118.236 121.106 118.489L118.85 119.362" stroke="black" stroke-width="1.16281" stroke-linecap="round" stroke-linejoin="round"/>
<path d="M112.834 108.669L115.319 111.597L111.759 112.893" stroke="black" stroke-width="1.16281" stroke-linecap="round" stroke-linejoin="round"/>
<path d="M110.507 126.022V126.029C112.066 123.072 115.104 123.252 117.439 124.294C119.817 125.357 120.508 126.951 120.537 127.155" stroke="#2B2B2B" stroke-width="1.16281"/>
<path d="M96.7512 83.438C102.231 80.5852 107.696 81.37 110.004 81.8579L110.791 82.0376C113.257 82.627 114.422 83.3999 115.672 84.2241C116.969 85.0786 118.345 85.9791 121.167 86.7095C124.659 87.6118 126.97 87.3773 128.939 87.2153C130.87 87.0565 132.425 86.9734 134.588 88.0415H134.589C135.946 88.7091 137.585 89.853 138.862 91.354C140.137 92.8535 141.018 94.67 140.956 96.7036C140.84 100.546 137.355 104.381 132.13 105.634C130.51 105.263 128.333 104.585 125.986 103.288C123.334 101.818 121.459 100.101 120.256 98.8228L119.899 98.4429L119.483 98.7554C115.671 101.62 113.7 103.101 112.681 103.865C112.172 104.247 111.9 104.449 111.757 104.556C111.685 104.61 111.646 104.639 111.624 104.655C111.614 104.663 111.608 104.667 111.605 104.669C108.121 107.179 102.3 110.524 92.3635 111.561C92.245 110.703 91.9581 109.227 91.1311 108.128H91.1301C90.1287 106.791 88.8966 106.14 88.2112 105.851C87.5126 104.197 86.6447 101.474 86.8616 98.1323V98.1313C87.2612 91.9554 91.1973 86.5421 96.2581 83.7046L96.7512 83.438Z" fill="#F6F6F6" stroke="#2B2B2B" stroke-width="1.16281"/>
<path d="M86.3029 138.223C77.1269 140.293 59.9707 145.517 43.9891 159.654C43.9891 159.654 27.8793 173.903 16.8951 200.332C15.9198 202.676 14.8307 205.147 13.6276 210.343C12.695 214.37 12.275 218.087 12.1398 221.325C12.0401 223.747 13.5493 225.958 15.8558 226.782C17.8846 227.507 20.2125 228.316 22.7966 229.175C27.5875 230.752 38.2087 235.054 50.2393 236.708C75.3329 240.151 89.2572 241.01 89.2572 241.01L91.0796 198.177L57.9134 194.024L86.3029 138.216V138.223Z" fill="#255DF9"/>
<path d="M113.105 160.245C117.27 174.656 119.854 186.716 121.484 195.509" stroke="black" stroke-width="1.16281" stroke-linecap="round" stroke-linejoin="round"/>
<path d="M132.213 173.275L122.158 170.457L100.221 247.025L110.275 249.842L132.213 173.275Z" fill="#2B2B2B"/>
<path opacity="0.5" d="M142.389 173.566C167.728 173.566 188.269 153.251 188.269 128.192C188.269 103.132 167.728 82.8179 142.389 82.8179C117.05 82.8179 96.5084 103.132 96.5084 128.192C96.5084 153.251 117.05 173.566 142.389 173.566Z" fill="#002999"/>
<path d="M179.068 127.175C179.068 107.131 162.408 90.8826 141.858 90.8826" stroke="white" stroke-opacity="0.8" stroke-width="1.16281"/>
<path d="M141.865 75.8826C113.233 75.8826 90.0189 98.8405 90.0189 127.156C90.0189 155.472 113.233 178.43 141.865 178.43C170.496 178.43 193.711 155.472 193.711 127.156C193.711 98.8405 170.496 75.8826 141.865 75.8826ZM141.865 170.059C117.903 170.059 98.4831 150.853 98.4831 127.156C98.4831 103.459 117.903 84.2533 141.865 84.2533C165.827 84.2533 185.246 103.459 185.246 127.156C185.246 150.853 165.827 170.059 141.865 170.059Z" fill="#2B2B2B"/>
<path d="M68.4134 160.245C68.4134 160.245 57.1729 197.213 57.657 198.177C58.1482 199.149 91.0724 198.177 91.0724 198.177L89.25 241.009C89.25 241.009 58.8102 239.108 46.7653 236.152C34.7203 233.195 20.9669 228.562 20.9669 228.562" stroke="black" stroke-width="1.16281" stroke-linecap="round" stroke-linejoin="round"/>
<path d="M53.9981 156.429C47.7051 161.962 39.6253 170.22 32.2503 181.668C24.6759 193.418 20.483 204.443 18.084 212.553" stroke="white" stroke-width="1.16281" stroke-linecap="round" stroke-linejoin="round"/>
<path d="M175.297 241.597V249.257H98.8317C96.1427 249.256 93.9743 247.102 93.9743 244.459V241.597H175.297Z" fill="#F6F6F6" stroke="#2B2B2B" stroke-width="1.16281"/>
<path d="M157.106 183.748H241.164C244.088 183.748 246.202 186.201 245.834 189.329V189.33L239.483 243.539C239.109 246.712 236.334 249.256 233.355 249.256H149.297C146.464 249.256 144.392 246.954 144.6 243.966L144.628 243.675L150.977 189.466C151.351 186.293 154.127 183.748 157.106 183.748Z" fill="#F6F6F6" stroke="#2B2B2B" stroke-width="1.16281"/>
<path d="M165.222 183.748H249.28C252.204 183.748 254.317 186.201 253.948 189.329V189.33L247.599 243.539C247.225 246.712 244.45 249.256 241.471 249.256C236.045 249.256 213.317 249.253 191.945 249.249C181.259 249.248 170.912 249.246 163.237 249.244C159.399 249.244 156.229 249.243 154.019 249.242H151.22L159.092 189.474L159.093 189.466C159.467 186.293 162.243 183.748 165.222 183.748Z" fill="#99B4FF" stroke="#2B2B2B" stroke-width="1.16281"/>
<path d="M126.431 225.95L124.78 214.426" stroke="black" stroke-width="1.16281" stroke-linecap="round" stroke-linejoin="round"/>
<path d="M179.259 125.67H289.387C291.914 125.67 293.957 127.691 293.957 130.19V209.927" stroke="black" stroke-width="0.313959" stroke-linecap="round" stroke-linejoin="round"/>
<path d="M90.8447 108.894C90.8447 108.513 89.9548 107.788 89.6914 107.549C89.2429 107.141 88.7375 106.789 88.1965 106.507C87.1429 105.958 85.9327 105.662 84.7439 105.726C82.3733 105.845 80.017 107.387 79.234 109.64C78.7784 110.949 78.8424 112.393 79.2055 113.73C79.7536 115.744 80.9638 117.56 82.5798 118.898C83.9181 120.003 85.527 120.777 87.2212 121.179C87.5629 121.256 91.0867 121.784 91.0796 121.65C91.0215 118.494 92.5389 112.892 92.5389 112.892C92.5389 112.892 91.1152 108.668 90.8447 108.901V108.894Z" fill="#F6F6F6"/>
<path d="M90.6943 107.588C90.2458 107.18 89.7404 106.828 89.1993 106.547C88.1458 105.997 86.7452 105.798 85.5564 105.861C83.1858 105.981 80.8295 107.522 80.0465 109.775C79.5909 111.085 79.6549 112.528 80.018 113.866C80.5661 115.879 81.7763 117.695 83.3923 119.033C84.7306 120.138 86.3395 120.913 88.0337 121.314C88.3754 121.392 91.8992 121.92 91.8921 121.786" stroke="#2B2B2B" stroke-width="1.16281"/>
<path d="M88.4122 109.609C86.668 109.033 83.2959 108.918 83.761 113.066" stroke="#2B2B2B" stroke-width="1.16281" stroke-linecap="round"/>
<path d="M84.924 110.185C86.0868 110.569 88.2961 112.143 87.831 115.369" stroke="#2B2B2B" stroke-width="1.16281" stroke-linecap="round"/>
<path d="M109.739 207.479C110.463 207.487 110.892 207.527 111.049 207.575C111.983 207.86 114.151 208.944 116.254 210.125C117.294 210.71 118.298 211.307 119.099 211.823C119.499 212.082 119.845 212.317 120.117 212.519C120.398 212.727 120.571 212.878 120.65 212.967C121.542 213.972 121.797 214.836 121.69 215.662C121.645 215.994 121.367 216.432 121.009 216.845C120.842 217.038 120.677 217.202 120.555 217.319C120.494 217.376 120.444 217.422 120.41 217.452C120.393 217.467 120.38 217.478 120.372 217.486C120.368 217.489 120.365 217.492 120.363 217.493C120.363 217.494 120.362 217.494 120.361 217.494L119.969 217.825L120.249 218.256C121.267 219.822 121.245 220.795 121.076 221.377C120.906 221.948 120.46 222.58 120.008 223.104C119.563 223.619 119.185 223.949 119.152 223.982L118.909 224.222L119.002 224.552C119.114 224.95 119.24 225.526 119.273 226.218V226.219C119.308 226.935 119.363 228.216 118.732 229.366L118.731 229.368C117.802 231.069 115.853 231.582 115.387 231.684L114.63 231.849L115 232.53L115.002 232.532C115.005 232.539 115.011 232.551 115.019 232.567C115.034 232.6 115.056 232.651 115.081 232.718C115.132 232.854 115.19 233.046 115.22 233.269C115.278 233.709 115.224 234.242 114.806 234.733C114.338 235.281 113.328 235.972 111.922 236.458C110.53 236.939 108.798 237.202 106.92 236.942C105.994 236.813 104.658 236.415 103.143 235.869C101.638 235.328 99.9942 234.656 98.4678 233.997C96.9422 233.339 95.5387 232.698 94.5167 232.221C94.0058 231.983 93.5901 231.785 93.3028 231.648C93.1595 231.579 93.0482 231.525 92.9727 231.489C92.9352 231.47 92.906 231.457 92.8868 231.448L92.8594 231.434H92.8585L92.8575 231.433L92.6514 231.332L92.4317 231.401L89.9151 232.177L90.9122 208.795C91.0042 208.786 91.108 208.777 91.2227 208.766C91.7415 208.716 92.4853 208.646 93.3839 208.564C95.1815 208.399 97.599 208.186 100.078 207.992C102.559 207.799 105.097 207.624 107.137 207.536C108.157 207.493 109.047 207.471 109.739 207.479Z" fill="#F6F6F6" stroke="#2B2B2B" stroke-width="1.16281"/>
<path d="M120.622 217.552C120.622 217.552 113.675 216.27 110.165 214.658C106.655 213.046 105.353 212.159 105.353 212.159" stroke="black" stroke-width="1.74421" stroke-linecap="round" stroke-linejoin="round"/>
<path d="M118.964 224.219C118.964 224.219 110.913 223.423 107.652 221.565C104.385 219.706 103.217 218.495 103.217 218.495" stroke="black" stroke-width="1.74421" stroke-linecap="round" stroke-linejoin="round"/>
<path d="M114.963 232.224C110.504 232.051 104.997 229.056 102.285 226.598" stroke="black" stroke-width="1.74421" stroke-linecap="round" stroke-linejoin="round"/>
<path d="M300 248.725H3.48364V249.877H300V248.725Z" fill="#2B2B2B"/>
<path d="M203.487 207.829C208.308 207.829 212.208 211.701 212.208 216.465C212.208 221.229 208.309 225.1 203.487 225.1C198.665 225.1 194.765 221.229 194.765 216.465C194.766 211.7 198.666 207.829 203.487 207.829Z" fill="#F6F6F6" stroke="#2B2B2B" stroke-width="1.16281"/>
<path d="M179.26 126.251H289.387C291.596 126.251 293.376 128.021 293.376 130.19V209.927C293.376 212.096 291.596 213.866 289.387 213.866H179.26C177.051 213.866 175.271 212.096 175.27 209.927V130.19C175.271 128.021 177.051 126.251 179.26 126.251Z" fill="#F6F6F6" stroke="#2B2B2B" stroke-width="1.16281"/>
<path d="M293.957 135.935V130.183C293.957 127.684 291.914 125.663 289.387 125.663H179.26C176.732 125.663 174.689 127.684 174.689 130.183V135.935H293.957Z" fill="white"/>
<path d="M180.89 131.338C180.89 132.112 180.256 132.739 179.473 132.739C178.69 132.739 178.057 132.112 178.057 131.338C178.057 130.564 178.69 129.937 179.473 129.937C180.256 129.937 180.89 130.564 180.89 131.338Z" fill="#255DF9"/>
<path d="M185.367 131.338C185.367 132.112 184.734 132.739 183.951 132.739C183.168 132.739 182.534 132.112 182.534 131.338C182.534 130.564 183.168 129.937 183.951 129.937C184.734 129.937 185.367 130.564 185.367 131.338Z" fill="#A0A0A0"/>
<path d="M189.938 131.338C189.938 132.112 189.304 132.739 188.521 132.739C187.738 132.739 187.104 132.112 187.104 131.338C187.104 130.564 187.738 129.937 188.521 129.937C189.304 129.937 189.938 130.564 189.938 131.338Z" fill="#A0A0A0"/>
<path d="M209.97 148.435H243.755C245.255 148.435 246.472 149.56 246.619 150.987L246.634 151.276L246.628 155.863C246.627 156.827 247.409 157.609 248.373 157.609H263.995C265.594 157.609 266.872 158.889 266.873 160.449V195.375C266.872 196.941 265.588 198.215 263.995 198.215H209.97C208.371 198.215 207.092 196.936 207.091 195.375V151.276C207.091 149.71 208.377 148.435 209.97 148.435Z" fill="#525252" stroke="#2B2B2B" stroke-width="1.16281"/>
<path d="M243.791 165.074L236.986 171.805L230.18 165.074L226.072 169.136L232.878 175.867L226.072 182.597L230.18 186.659L236.986 179.929L243.791 186.659L247.899 182.597L241.093 175.867L247.899 169.136L243.791 165.074Z" fill="#F47971"/>
<path d="M244.626 93.646C244.099 89.5275 243.999 86.1623 244.312 83.5715C244.626 80.9807 245.572 78.5166 247.146 76.1934C248.043 74.8065 249.11 73.5745 250.335 72.4973C251.559 71.4202 252.677 70.3078 253.681 69.1532C254.677 67.9986 255.489 66.7455 256.108 65.3938C256.727 64.0421 256.905 62.3524 256.649 60.3249C256.215 56.9034 254.955 54.6294 252.876 53.503C250.798 52.3765 248.448 51.9752 245.836 52.2991C242.091 52.7637 239.642 54.1155 238.496 56.3542C237.343 58.593 236.816 61.4795 236.902 65.0136L223.234 66.7103C222.799 63.2888 222.97 60.1066 223.746 57.1709C224.522 54.2351 225.825 51.6584 227.662 49.4478C229.498 47.2372 231.812 45.4208 234.617 44.0058C237.414 42.5907 240.582 41.6684 244.113 41.232C251.744 40.2815 257.959 41.0771 262.764 43.5975C267.569 46.1249 270.41 50.8418 271.292 57.7623C271.577 60.001 271.591 61.9793 271.349 63.7182C271.1 65.4501 270.609 67.0553 269.862 68.5337C269.114 70.0121 268.146 71.4272 266.957 72.7789C265.768 74.1377 264.401 75.5457 262.864 77.0101C261.461 78.3899 260.344 79.6501 259.518 80.7765C258.692 81.91 258.101 83.0646 257.753 84.2403C257.397 85.423 257.233 86.6339 257.247 87.866C257.261 89.105 257.368 90.499 257.56 92.0338L244.633 93.6389L244.626 93.646ZM246.768 113.922L245.024 100.193L259.326 98.4192L261.07 112.147L246.768 113.922Z" fill="#255DF9"/>
</svg>
