<svg width="300" height="286" viewBox="0 0 300 286" fill="none" xmlns="http://www.w3.org/2000/svg">
<path d="M40.8357 80.0388H248.968C251.76 80.0389 254.024 82.3013 254.024 85.0916V210.426C254.024 213.216 251.76 215.478 248.968 215.478H40.8357C38.0428 215.478 35.7793 213.216 35.7791 210.426V85.0916C35.7792 82.3014 38.0428 80.0389 40.8357 80.0388Z" fill="#3369FF" stroke="black"/>
<path d="M248.342 86.2302H41.4679V209.287H248.342V86.2302Z" fill="white" stroke="#2B2B2B" stroke-width="1.16" stroke-linecap="round" stroke-linejoin="round"/>
<path d="M178.937 215.978H110.866V233.012H178.937V215.978Z" fill="white" stroke="#2B2B2B" stroke-width="1.16" stroke-linecap="round" stroke-linejoin="round"/>
<path d="M211.514 242.8C199.067 232.755 173.908 225.89 144.895 225.89C115.881 225.89 90.7293 232.755 78.275 242.8H211.507H211.514Z" fill="white" stroke="#2B2B2B" stroke-width="1.16" stroke-linecap="round" stroke-linejoin="round"/>
<path d="M78.282 244.535H206.082C207.819 244.535 209.555 244.576 211.292 244.535C211.368 244.535 211.445 244.535 211.514 244.535C213.751 244.535 213.751 241.064 211.514 241.064H83.7207C81.9842 241.064 80.2477 241.023 78.5112 241.064C78.4348 241.064 78.3584 241.064 78.2889 241.064C76.0523 241.064 76.0523 244.535 78.2889 244.535H78.282Z" fill="#2B2B2B"/>
<path d="M236.86 105.132H52.79V200.922H236.86V105.132Z" fill="white" stroke="#2B2B2B" stroke-width="1.16" stroke-linecap="round" stroke-linejoin="round"/>
<path d="M231.034 94.7888H58.7622C55.4485 94.7888 52.7622 97.4751 52.7622 100.789V105.048H237.034V100.789C237.034 97.4751 234.348 94.7888 231.034 94.7888Z" fill="white" stroke="#2B2B2B" stroke-width="1.16" stroke-linecap="round" stroke-linejoin="round"/>
<path d="M61.7226 100.155C61.7226 101.453 60.6738 102.501 59.3749 102.501C58.076 102.501 57.0271 101.453 57.0271 100.155C57.0271 98.8565 58.076 97.8083 59.3749 97.8083C60.6738 97.8083 61.7226 98.8565 61.7226 100.155Z" fill="#3369FF"/>
<path d="M69.6341 100.155C69.6341 101.453 68.5853 102.501 67.2864 102.501C65.9875 102.501 64.9386 101.453 64.9386 100.155C64.9386 98.8565 65.9875 97.8083 67.2864 97.8083C68.5853 97.8083 69.6341 98.8565 69.6341 100.155Z" fill="#2B2B2B"/>
<path d="M77.5458 100.155C77.5458 101.453 76.4969 102.501 75.198 102.501C73.8991 102.501 72.8502 101.453 72.8502 100.155C72.8502 98.8565 73.8991 97.8083 75.198 97.8083C76.4969 97.8083 77.5458 98.8565 77.5458 100.155Z" fill="#C6C6C6"/>
<path d="M210.014 150.084C210.014 156.428 204.554 161.62 197.886 161.62H95.3623C88.6941 161.62 83.2345 156.428 83.2345 150.084C83.2345 143.739 88.6941 138.547 95.3623 138.547H197.886C204.554 138.547 210.014 143.739 210.014 150.084Z" fill="#2B2B2B"/>
<path d="M108.595 155.519L104.385 151.604C105.017 150.709 105.351 149.633 105.309 148.515C105.26 147.168 104.691 145.912 103.698 144.996C102.711 144.073 101.419 143.594 100.065 143.642C98.7173 143.691 97.46 144.26 96.5432 145.253C95.6193 146.238 95.14 147.529 95.1887 148.883C95.2373 150.23 95.8069 151.486 96.8002 152.402C97.7865 153.325 99.0785 153.804 100.433 153.756C101.551 153.714 102.6 153.312 103.448 152.617L107.657 156.532L108.595 155.526V155.519ZM97.7448 151.403C97.0224 150.729 96.6057 149.82 96.5709 148.841C96.5362 147.856 96.8835 146.919 97.5573 146.197C98.231 145.475 99.141 145.058 100.12 145.024C101.107 144.989 102.044 145.336 102.767 146.009C103.489 146.683 103.906 147.592 103.941 148.571C103.975 149.556 103.628 150.493 102.954 151.215C102.281 151.937 101.371 152.354 100.391 152.388C99.4049 152.423 98.4672 152.076 97.7448 151.403Z" fill="#3369FF"/>
<path d="M126.842 151.076C127.498 151.076 128.03 150.545 128.03 149.889C128.03 149.234 127.498 148.702 126.842 148.702C126.186 148.702 125.654 149.234 125.654 149.889C125.654 150.545 126.186 151.076 126.842 151.076Z" fill="#CCDAFF"/>
<path d="M140.734 151.076C141.39 151.076 141.922 150.545 141.922 149.889C141.922 149.234 141.39 148.702 140.734 148.702C140.078 148.702 139.546 149.234 139.546 149.889C139.546 150.545 140.078 151.076 140.734 151.076Z" fill="#CCDAFF"/>
<path d="M154.626 151.076C155.282 151.076 155.814 150.545 155.814 149.889C155.814 149.234 155.282 148.702 154.626 148.702C153.97 148.702 153.438 149.234 153.438 149.889C153.438 150.545 153.97 151.076 154.626 151.076Z" fill="#CCDAFF"/>
<path d="M168.518 151.076C169.174 151.076 169.706 150.545 169.706 149.889C169.706 149.234 169.174 148.702 168.518 148.702C167.862 148.702 167.33 149.234 167.33 149.889C167.33 150.545 167.862 151.076 168.518 151.076Z" fill="#CCDAFF"/>
<path d="M277.842 64.1775H186.154V154.415H277.842V64.1775Z" fill="white" stroke="#2B2B2B" stroke-width="1.16" stroke-linecap="round" stroke-linejoin="round"/>
<path d="M271.842 53.0713H192.154C188.84 53.0713 186.154 55.7576 186.154 59.0713V64.8716H277.842V59.0713C277.842 55.7576 275.156 53.0713 271.842 53.0713Z" fill="#3369FF" stroke="#2B2B2B" stroke-width="1.16" stroke-linecap="round" stroke-linejoin="round"/>
<path d="M196.268 59.1797C196.268 60.6165 195.101 61.7827 193.663 61.7827C192.225 61.7827 191.058 60.6165 191.058 59.1797C191.058 57.7428 192.225 56.5767 193.663 56.5767C195.101 56.5767 196.268 57.7428 196.268 59.1797Z" fill="#2B2B2B"/>
<path d="M205.034 59.1797C205.034 60.6165 203.867 61.7827 202.429 61.7827C200.991 61.7827 199.824 60.6165 199.824 59.1797C199.824 57.7428 200.991 56.5767 202.429 56.5767C203.867 56.5767 205.034 57.7428 205.034 59.1797Z" fill="#ECECEC"/>
<path d="M213.8 59.1797C213.8 60.6165 212.633 61.7827 211.195 61.7827C209.757 61.7827 208.59 60.6165 208.59 59.1797C208.59 57.7428 209.757 56.5767 211.195 56.5767C212.633 56.5767 213.8 57.7428 213.8 59.1797Z" fill="#ECECEC"/>
<path d="M251.129 116.45L247.342 120.234L281.296 154.165L285.083 150.381L251.129 116.45Z" fill="#3D3939"/>
<path d="M252.31 114.287L245.184 121.409L255.12 131.338L262.246 124.216L252.31 114.287Z" fill="white" stroke="#2B2B2B" stroke-width="1.16" stroke-linecap="round" stroke-linejoin="round"/>
<g opacity="0.2">
<path d="M249.238 118.341C240.354 127.219 225.906 127.219 217.029 118.341C208.152 109.463 208.152 95.0249 217.029 86.1539C225.906 77.2759 240.361 77.2759 249.238 86.1539C258.122 95.0319 258.115 109.47 249.238 118.341Z" fill="#F5F9FF"/>
</g>
<path d="M251.398 120.5C241.327 130.565 224.934 130.565 214.862 120.5C204.79 110.435 204.79 94.0532 214.862 83.9882C224.934 73.9232 241.327 73.9232 251.398 83.9882C261.47 94.0532 261.47 110.435 251.398 120.5ZM218.655 87.7712C210.674 95.7469 210.674 108.734 218.655 116.71C226.636 124.685 239.632 124.685 247.613 116.71C255.594 108.734 255.594 95.7469 247.613 87.7712C239.632 79.7956 226.636 79.7956 218.655 87.7712Z" fill="#3D3939"/>
<path d="M87.0758 170.555C86.7035 170.199 86.208 170 85.6927 170H47C45.8954 170 45 170.895 45 172V242.904C45 244.009 45.8954 244.904 47 244.904H107.001C108.105 244.904 109.001 244.009 109.001 242.904V192.4C109.001 191.854 108.778 191.333 108.384 190.955L87.0758 170.555Z" fill="#3369FF"/>
<path d="M86.9716 169.742L109.477 191.288H86.9716V169.742Z" fill="#99B4FF"/>
<path d="M70.6483 198.528C70.6483 200.777 69.3424 202.595 67.7309 202.595C66.1195 202.595 64.8136 200.77 64.8136 198.528C64.8136 196.286 66.1195 194.46 67.7309 194.46C69.3424 194.46 70.6483 196.286 70.6483 198.528Z" fill="white"/>
<path d="M87.1383 202.595C88.7495 202.595 90.0556 200.774 90.0556 198.528C90.0556 196.281 88.7495 194.46 87.1383 194.46C85.5271 194.46 84.2209 196.281 84.2209 198.528C84.2209 200.774 85.5271 202.595 87.1383 202.595Z" fill="white"/>
<path d="M85.5559 205.627C84.3403 206.96 82.6524 208.001 80.9715 208.605C76.7136 210.139 72.6015 208.536 69.3646 205.627C68.4964 204.85 67.2114 206.127 68.0796 206.911C71.6707 210.139 76.3315 212.034 81.1104 210.472C83.2081 209.785 85.3336 208.55 86.834 206.911C87.6189 206.051 86.3408 204.767 85.5489 205.627L85.5559 205.627Z" fill="white"/>
<path d="M228.734 181H182.064C179.278 181 177 183.277 177 186.06V218.775C177 221.558 179.278 223.835 182.064 223.835H198.463L205.402 232.283L212.342 223.835H228.741C231.527 223.835 233.805 221.558 233.805 218.775V186.06C233.805 183.277 231.527 181 228.741 181H228.734Z" fill="#2B2B2B"/>
<path d="M102.863 55.772C102.491 55.4142 101.996 55.2138 101.48 55.2125L67.5918 55.1261C66.4876 55.1233 65.5901 56.0159 65.5868 57.1201L65.3996 119.376C65.3963 120.481 66.2896 121.38 67.3945 121.382L119.988 121.517C121.092 121.52 121.99 120.627 121.993 119.523L122.123 75.1789C122.125 74.6334 121.904 74.1109 121.511 73.7325L102.863 55.772Z" fill="white" stroke="#C6C6C6" stroke-width="1.16" stroke-linecap="round" stroke-linejoin="round"/>
<path d="M102.284 55.2145L122.126 74.3249L102.223 74.2736L102.284 55.2145Z" fill="white" stroke="#C6C6C6" stroke-width="1.16" stroke-linecap="round" stroke-linejoin="round"/>
<path d="M105.757 79.8936L102.254 76.3668L93.8059 84.7782L85.3912 76.3288L81.8654 79.8409L90.2669 88.2859L81.814 96.6885L85.3256 100.211L93.7785 91.8083L102.18 100.253L105.71 96.75L97.3087 88.305L105.757 79.8936Z" fill="#D9D9D9"/>
<path d="M95.8625 49.3909C95.4911 49.0331 94.9959 48.8327 94.4802 48.8314L60.5918 48.745C59.4876 48.7422 58.5901 49.6348 58.5868 50.739L58.3996 112.995C58.3963 114.1 59.2896 114.998 60.3945 115.001L112.988 115.136C114.092 115.139 114.99 114.246 114.993 113.142L115.123 68.7978C115.125 68.2523 114.904 67.7298 114.511 67.3514L95.8625 49.3909Z" fill="white" stroke="#C6C6C6" stroke-width="1.16" stroke-linecap="round" stroke-linejoin="round"/>
<path d="M95.2837 48.8334L115.126 67.9438L95.2234 67.8925L95.2837 48.8334Z" fill="white" stroke="#C6C6C6" stroke-width="1.16" stroke-linecap="round" stroke-linejoin="round"/>
<path d="M242.035 96.1885C242.806 95.404 244.06 95.404 244.83 96.1885L245.498 96.8691H245.263C245.54 97.5865 245.395 98.4335 244.825 99.0137L232.255 111.812C231.484 112.596 230.23 112.596 229.46 111.812L223.175 105.413C222.408 104.633 222.408 103.367 223.175 102.587C223.945 101.803 225.199 101.803 225.97 102.587L230.859 107.561L242.035 96.1885Z" fill="#3369FF" stroke="#3369FF" stroke-width="0.8"/>
<path d="M97.0352 76.1885C97.8057 75.404 99.0596 75.404 99.8301 76.1885L100.498 76.8691H100.263C100.54 77.5865 100.395 78.4335 99.8252 79.0137L87.2549 91.8115C86.4843 92.596 85.2305 92.596 84.46 91.8115L78.1748 85.4131C77.4082 84.6326 77.4082 83.3674 78.1748 82.5869C78.9452 81.8027 80.1992 81.8028 80.9697 82.5869L85.8594 87.5605L97.0352 76.1885Z" fill="#C6C6C6" stroke="#C6C6C6" stroke-width="0.8"/>
<path d="M206 190.6C212.849 190.6 218.4 196.151 218.4 203C218.4 209.849 212.849 215.4 206 215.4C199.151 215.4 193.6 209.849 193.6 203C193.6 196.151 199.151 190.6 206 190.6ZM206 192.9C200.422 192.9 195.9 197.422 195.9 203C195.9 208.578 200.422 213.1 206 213.1C211.578 213.1 216.1 208.578 216.1 203C216.1 197.422 211.578 192.9 206 192.9ZM209.688 199.188C210.134 198.737 210.864 198.736 211.311 199.186L211.391 199.272C211.763 199.723 211.735 200.392 211.312 200.812L211.312 200.812L205.312 206.812C204.866 207.264 204.134 207.264 203.688 206.812L200.688 203.812V203.812C200.236 203.364 200.236 202.632 200.689 202.186C201.136 201.736 201.866 201.737 202.312 202.188L204.5 204.375L209.688 199.188Z" fill="white" stroke="white" stroke-width="0.8"/>
</svg>
