<svg width="18" height="18" viewBox="0 0 18 18" fill="none" xmlns="http://www.w3.org/2000/svg">
<path d="M13.6465 9.512C13.6385 8.03718 14.3055 6.92403 15.6558 6.10424C14.9003 5.02324 13.759 4.42848 12.252 4.31195C10.8254 4.19942 9.26624 5.14379 8.6956 5.14379C8.09281 5.14379 6.71041 4.35213 5.6254 4.35213C3.38302 4.3883 1 6.1404 1 9.70489C1 10.7578 1.19289 11.8455 1.57868 12.968C2.09306 14.4428 3.94964 18.0595 5.8866 17.9993C6.89929 17.9751 7.6146 17.2799 8.93269 17.2799C10.2106 17.2799 10.8737 17.9993 12.0029 17.9993C13.9559 17.9711 15.6357 14.6839 16.126 13.2051C13.5058 11.9714 13.6465 9.58835 13.6465 9.512ZM11.372 2.91348C12.4691 1.61145 12.3686 0.42597 12.3364 0C11.368 0.0562602 10.2468 0.659048 9.60782 1.40249C8.90456 2.19817 8.49065 3.18272 8.57906 4.29185C9.62791 4.37222 10.5843 3.83373 11.372 2.91348Z" fill="black"/>
</svg>
