<svg width="18" height="18" viewBox="0 0 18 18" fill="none" xmlns="http://www.w3.org/2000/svg">
<path d="M12.375 9C12.375 8.85607 12.3201 8.71214 12.2102 8.60238L7.14769 3.53988C6.92796 3.32016 6.57183 3.32016 6.35245 3.53988C6.13308 3.75961 6.13273 4.11574 6.35245 4.33512L10.4555 8.4375H0.5625C0.251578 8.4375 0 8.69063 0 9C0 9.30937 0.251578 9.5625 0.5625 9.5625H10.4555L6.35273 13.6652C6.13301 13.885 6.13301 14.2411 6.35273 14.4605C6.57246 14.6798 6.92859 14.6802 7.14797 14.4605L12.2105 9.39797C12.3188 9.28828 12.375 9.14414 12.375 9ZM15.1875 1.125H11.8125C11.5031 1.125 11.25 1.37672 11.25 1.6875C11.25 1.99828 11.5031 2.25 11.8125 2.25H15.1875C16.1191 2.25 16.875 3.00691 16.875 3.9375V14.0625C16.875 14.9931 16.1181 15.75 15.1875 15.75H11.8125C11.5016 15.75 11.25 16.0016 11.25 16.3125C11.25 16.6234 11.5016 16.875 11.8125 16.875H15.1875C16.7389 16.875 18 15.6136 18 14.0625V3.9375C18 2.38641 16.7379 1.125 15.1875 1.125Z" fill="black"/>
</svg>
