<svg width="18" height="18" viewBox="0 0 18 18" fill="none" xmlns="http://www.w3.org/2000/svg">
<g clip-path="url(#clip0_1587_4023)">
<path d="M11.8125 0C11.5031 0 11.25 0.253125 11.25 0.5625C11.25 0.871875 11.5031 1.125 11.8125 1.125H16.0805L7.47773 9.72773C7.25977 9.9457 7.25977 10.3043 7.47773 10.5223C7.6957 10.7402 8.0543 10.7402 8.27227 10.5223L16.875 1.91953V6.1875C16.875 6.49687 17.1281 6.75 17.4375 6.75C17.7469 6.75 18 6.49687 18 6.1875V0.5625C18 0.253125 17.7469 0 17.4375 0H11.8125ZM2.25 2.25C1.00898 2.25 0 3.25898 0 4.5V15.75C0 16.991 1.00898 18 2.25 18H13.5C14.741 18 15.75 16.991 15.75 15.75V10.6875C15.75 10.3781 15.4969 10.125 15.1875 10.125C14.8781 10.125 14.625 10.3781 14.625 10.6875V15.75C14.625 16.3723 14.1223 16.875 13.5 16.875H2.25C1.62773 16.875 1.125 16.3723 1.125 15.75V4.5C1.125 3.87773 1.62773 3.375 2.25 3.375H7.3125C7.62187 3.375 7.875 3.12188 7.875 2.8125C7.875 2.50312 7.62187 2.25 7.3125 2.25H2.25Z" fill="black"/>
</g>
<defs>
<clipPath id="clip0_1587_4023">
<rect width="18" height="18" fill="white"/>
</clipPath>
</defs>
</svg>
