<svg width="18" height="18" viewBox="0 0 18 18" fill="none" xmlns="http://www.w3.org/2000/svg">
<path d="M15.3523 7.81068C15.2433 7.93724 15.0886 8.00052 14.9375 8.00052C14.8023 8.00052 14.6667 7.95039 14.5588 7.849L9.31246 2.90357V16.168C9.31246 16.4904 9.06088 16.7513 8.7816 16.7513C8.50232 16.7513 8.18746 16.4908 8.18746 16.1673V2.90357L2.94215 7.85005C2.71187 8.03568 2.35644 8.04974 2.14607 7.81068C1.93735 7.57162 1.95436 7.20248 2.18397 6.98451L8.37147 1.15209C8.58571 0.949305 8.91428 0.949305 9.12838 1.15209L15.3159 6.98451C15.5457 7.20248 15.5632 7.57162 15.3523 7.81068Z" fill="black"/>
</svg>
