<svg width="18" height="18" viewBox="0 0 18 18" fill="none" xmlns="http://www.w3.org/2000/svg">
<g clip-path="url(#clip0_1279_2897)">
<path d="M16.4195 5.29448C16.859 4.85503 16.859 4.14136 16.4195 3.7019L13.0445 0.326904C12.6051 -0.112549 11.8914 -0.112549 11.452 0.326904C11.0125 0.766357 11.0125 1.48003 11.452 1.91948L12.9074 3.37495H2.125C1.50273 3.37495 1 3.87769 1 4.49995C1 5.12222 1.50273 5.62495 2.125 5.62495H12.9074L11.452 7.08042C11.0125 7.51987 11.0125 8.23354 11.452 8.673C11.8914 9.11245 12.6051 9.11245 13.0445 8.673L16.4195 5.298V5.29448ZM4.70195 17.6695C5.14141 18.1089 5.85508 18.1089 6.29453 17.6695C6.73398 17.23 6.73398 16.5164 6.29453 16.0769L4.84258 14.625H15.625C16.2473 14.625 16.75 14.1222 16.75 13.5C16.75 12.8777 16.2473 12.375 15.625 12.375H4.84258L6.29805 10.9195C6.7375 10.48 6.7375 9.76636 6.29805 9.3269C5.85859 8.88745 5.14492 8.88745 4.70547 9.3269L1.33047 12.7019C0.891016 13.1414 0.891016 13.855 1.33047 14.2945L4.70547 17.6695H4.70195Z" fill="black"/>
</g>
<defs>
<clipPath id="clip0_1279_2897">
<rect width="18" height="18" fill="white"/>
</clipPath>
</defs>
</svg>
