<svg width="18" height="18" viewBox="0 0 18 18" fill="none" xmlns="http://www.w3.org/2000/svg">
<path d="M17.8348 8.60273L12.7723 3.54023C12.5525 3.32051 12.1964 3.32051 11.977 3.54023C11.7577 3.75996 11.7573 4.11609 11.977 4.33547L16.0805 8.4375H6.1875C5.87813 8.4375 5.625 8.69063 5.625 9C5.625 9.30937 5.87658 9.5625 6.1875 9.5625H16.0805L11.9777 13.6652C11.758 13.885 11.758 14.2411 11.9777 14.4605C12.1975 14.6798 12.5536 14.6802 12.773 14.4605L17.8355 9.39797C17.9438 9.28828 18 9.14414 18 9C18 8.85586 17.9438 8.71172 17.8348 8.60273ZM6.1875 15.75H2.8125C1.88191 15.75 1.125 14.9941 1.125 14.0625V3.9375C1.125 3.00691 1.88191 2.25 2.8125 2.25H6.1875C6.49687 2.25 6.75 1.99828 6.75 1.6875C6.75 1.37672 6.49687 1.125 6.1875 1.125H2.8125C1.26141 1.125 0 2.38641 0 3.9375V14.0625C0 15.6129 1.26141 16.875 2.8125 16.875H6.1875C6.49687 16.875 6.75 16.6219 6.75 16.3125C6.75 16.0031 6.49687 15.75 6.1875 15.75Z" fill="black"/>
</svg>
