<svg width="18" height="18" viewBox="0 0 18 18" fill="none" xmlns="http://www.w3.org/2000/svg">
<path d="M16.5848 4.89722C16.8027 4.67925 16.8027 4.32065 16.5848 4.10269L13.2098 0.727686C12.9918 0.509717 12.6332 0.509717 12.4152 0.727686C12.1973 0.945654 12.1973 1.30425 12.4152 1.52222L14.8305 3.93745H1.5625C1.25312 3.93745 1 4.19058 1 4.49995C1 4.80933 1.25312 5.06245 1.5625 5.06245H14.8305L12.4152 7.47769C12.1973 7.69565 12.1973 8.05425 12.4152 8.27222C12.6332 8.49019 12.9918 8.49019 13.2098 8.27222L16.5848 4.89722ZM4.54023 17.2722C4.7582 17.4902 5.1168 17.4902 5.33477 17.2722C5.55273 17.0542 5.55273 16.6957 5.33477 16.4777L2.91953 14.0625H16.1875C16.4969 14.0625 16.75 13.8093 16.75 13.5C16.75 13.1906 16.4969 12.9375 16.1875 12.9375H2.91953L5.33477 10.5222C5.55273 10.3042 5.55273 9.94565 5.33477 9.72769C5.1168 9.50972 4.7582 9.50972 4.54023 9.72769L1.16523 13.1027C0.947266 13.3207 0.947266 13.6792 1.16523 13.8972L4.54023 17.2722Z" fill="black"/>
</svg>
