<svg width="18" height="18" viewBox="0 0 18 18" fill="none" xmlns="http://www.w3.org/2000/svg">
<path d="M17.6695 9.79453C18.109 9.35508 18.109 8.64141 17.6695 8.20195L13.1695 3.70195C12.7301 3.2625 12.0164 3.2625 11.577 3.70195C11.1375 4.14141 11.1375 4.85508 11.577 5.29453L14.1574 7.875H6.75C6.12773 7.875 5.625 8.37773 5.625 9C5.625 9.62227 6.12773 10.125 6.75 10.125H14.1574L11.577 12.7055C11.1375 13.1449 11.1375 13.8586 11.577 14.298C12.0164 14.7375 12.7301 14.7375 13.1695 14.298L17.6695 9.79805V9.79453ZM5.625 3.375C6.24727 3.375 6.75 2.87227 6.75 2.25C6.75 1.62773 6.24727 1.125 5.625 1.125H3.375C1.51172 1.125 0 2.63672 0 4.5V13.5C0 15.3633 1.51172 16.875 3.375 16.875H5.625C6.24727 16.875 6.75 16.3723 6.75 15.75C6.75 15.1277 6.24727 14.625 5.625 14.625H3.375C2.75273 14.625 2.25 14.1223 2.25 13.5V4.5C2.25 3.87773 2.75273 3.375 3.375 3.375H5.625Z" fill="black"/>
</svg>
