<svg width="18" height="18" viewBox="0 0 18 18" fill="none" xmlns="http://www.w3.org/2000/svg">
<g clip-path="url(#clip0_5821_2222)">
<path d="M11.9999 12C11.4468 12 10.9999 12.4468 10.9999 13C10.9999 13.5531 11.4468 14 11.9999 14H16.9999C17.553 14 17.9999 13.5531 17.9999 13V7.99995C17.9999 7.44683 17.553 6.99995 16.9999 6.99995C16.4468 6.99995 15.9999 7.44683 15.9999 7.99995V10.5843L10.7062 5.2937C10.3155 4.90308 9.68115 4.90308 9.29053 5.2937L5.9999 8.58433L1.70615 4.2937C1.31553 3.90308 0.681152 3.90308 0.290527 4.2937C-0.100098 4.68433 -0.100098 5.3187 0.290527 5.70933L5.29053 10.7093C5.68115 11.1 6.31553 11.1 6.70615 10.7093L9.9999 7.41558L14.5843 12H11.9999Z" fill="black"/>
</g>
<defs>
<clipPath id="clip0_5821_2222">
<rect width="18" height="18" fill="white"/>
</clipPath>
</defs>
</svg>
