<svg width="18" height="18" viewBox="0 0 18 18" fill="none" xmlns="http://www.w3.org/2000/svg">
<g clip-path="url(#clip0_5821_2217)">
<path d="M11.9999 6C11.4468 6 10.9999 5.55313 10.9999 5C10.9999 4.44687 11.4468 4 11.9999 4H16.9999C17.553 4 17.9999 4.44687 17.9999 5V10C17.9999 10.5531 17.553 11 16.9999 11C16.4468 11 15.9999 10.5531 15.9999 10V7.41563L10.7062 12.7063C10.3155 13.0969 9.68115 13.0969 9.29053 12.7063L5.9999 9.41562L1.70615 13.7063C1.31553 14.0969 0.681152 14.0969 0.290527 13.7063C-0.100098 13.3156 -0.100098 12.6812 0.290527 12.2906L5.29053 7.29063C5.68115 6.9 6.31553 6.9 6.70615 7.29063L9.9999 10.5844L14.5843 6H11.9999Z" fill="black"/>
</g>
<defs>
<clipPath id="clip0_5821_2217">
<rect width="18" height="18" fill="white"/>
</clipPath>
</defs>
</svg>
