<svg width="18" height="18" viewBox="0 0 18 18" fill="none" xmlns="http://www.w3.org/2000/svg">
<path d="M4.41914 5.62502H6.1875C6.80977 5.62502 7.3125 6.12776 7.3125 6.75002C7.3125 7.37229 6.80977 7.87502 6.1875 7.87502H1.6875C1.06523 7.87502 0.5625 7.37229 0.5625 6.75002V2.25002C0.5625 1.62776 1.06523 1.12502 1.6875 1.12502C2.30977 1.12502 2.8125 1.62776 2.8125 2.25002V4.05002L3.43125 3.43127C6.50742 0.355103 11.4926 0.355103 14.5687 3.43127C17.6449 6.50745 17.6449 11.4926 14.5687 14.5688C11.4926 17.6449 6.50742 17.6449 3.43125 14.5688C2.9918 14.1293 2.9918 13.4156 3.43125 12.9762C3.8707 12.5367 4.58437 12.5367 5.02383 12.9762C7.22109 15.1735 10.7824 15.1735 12.9797 12.9762C15.177 10.7789 15.177 7.2176 12.9797 5.02034C10.7824 2.82307 7.22109 2.82307 5.02383 5.02034L4.41914 5.62502Z" fill="black"/>
</svg>
