<svg width="18" height="18" viewBox="0 0 18 18" fill="none" xmlns="http://www.w3.org/2000/svg">
<path d="M13.7723 7.70977L9.27227 12.2098C9.0543 12.4277 8.6957 12.4277 8.47773 12.2098L3.97773 7.70977C3.75977 7.4918 3.75977 7.1332 3.97773 6.91523C4.1957 6.69727 4.5543 6.69727 4.77227 6.91523L8.3125 10.4555V0.5625C8.3125 0.253125 8.56563 0 8.875 0C9.18437 0 9.4375 0.253125 9.4375 0.5625V10.4555L12.9777 6.91523C13.1957 6.69727 13.5543 6.69727 13.7723 6.91523C13.9902 7.1332 13.9902 7.4918 13.7723 7.70977ZM2.125 11.8125V15.1875C2.125 16.1191 2.88086 16.875 3.8125 16.875H13.9375C14.8691 16.875 15.625 16.1191 15.625 15.1875V11.8125C15.625 11.5031 15.8781 11.25 16.1875 11.25C16.4969 11.25 16.75 11.5031 16.75 11.8125V15.1875C16.75 16.7414 15.4914 18 13.9375 18H3.8125C2.25859 18 1 16.7414 1 15.1875V11.8125C1 11.5031 1.25312 11.25 1.5625 11.25C1.87187 11.25 2.125 11.5031 2.125 11.8125Z" fill="black"/>
</svg>
