<svg width="18" height="18" viewBox="0 0 18 18" fill="none" xmlns="http://www.w3.org/2000/svg">
<path d="M14.1695 7.54453L9.66953 12.0445C9.23008 12.484 8.51641 12.484 8.07695 12.0445L3.57695 7.54453C3.1375 7.10508 3.1375 6.39141 3.57695 5.95195C4.01641 5.5125 4.73008 5.5125 5.16953 5.95195L7.75 8.53242V1.125C7.75 0.502734 8.25273 0 8.875 0C9.49727 0 10 0.502734 10 1.125V8.53242L12.5805 5.95195C13.0199 5.5125 13.7336 5.5125 14.173 5.95195C14.6125 6.39141 14.6125 7.10508 14.173 7.54453H14.1695ZM3.25 12.375V14.625C3.25 15.2473 3.75273 15.75 4.375 15.75H13.375C13.9973 15.75 14.5 15.2473 14.5 14.625V12.375C14.5 11.7527 15.0027 11.25 15.625 11.25C16.2473 11.25 16.75 11.7527 16.75 12.375V14.625C16.75 16.4883 15.2383 18 13.375 18H4.375C2.51172 18 1 16.4883 1 14.625V12.375C1 11.7527 1.50273 11.25 2.125 11.25C2.74727 11.25 3.25 11.7527 3.25 12.375Z" fill="black"/>
</svg>
