<svg width="18" height="18" viewBox="0 0 18 18" fill="none" xmlns="http://www.w3.org/2000/svg">
<path d="M8.34593 13.7723C8.45479 13.8812 8.59878 13.9375 8.74277 13.9375C8.88675 13.9375 9.03032 13.8826 9.13996 13.7727L14.197 8.71019C14.4165 8.49046 14.4165 8.13433 14.197 7.91495C13.9775 7.69558 13.6218 7.69523 13.4026 7.91495L9.30466 12.018V1.5625C9.30466 1.25172 9.05181 1 8.74277 1C8.43372 1 8.18087 1.25172 8.18087 1.5625V12.018L4.08288 7.91523C3.86339 7.69551 3.50764 7.69551 3.2885 7.91523C3.06936 8.13496 3.06901 8.49109 3.2885 8.71047L8.34593 13.7723ZM14.9236 15.625H2.5619C2.25131 15.625 2 15.8781 2 16.1875C2 16.4969 2.25131 16.75 2.5619 16.75H14.9236C15.2342 16.75 15.4855 16.4984 15.4855 16.1875C15.4855 15.8766 15.2327 15.625 14.9236 15.625Z" fill="black"/>
</svg>
