<svg width="18" height="18" viewBox="0 0 18 18" fill="none" xmlns="http://www.w3.org/2000/svg">
<g clip-path="url(#clip0_6279_1613)">
<path d="M16.3125 1.96875C16.3125 1.50117 16.6887 1.125 17.1563 1.125C17.6239 1.125 18 1.50117 18 1.96875V7.875C18 9.58359 16.6149 10.9688 14.9063 10.9688H2.87935L5.93794 14.0273C6.26841 14.3578 6.26841 14.8922 5.93794 15.2191C5.60747 15.5461 5.0731 15.5496 4.74614 15.2191L0.246143 10.7227C-0.0843262 10.3922 -0.0843262 9.85781 0.246143 9.53086L4.74614 5.02734C5.07661 4.69688 5.61099 4.69688 5.93794 5.02734C6.26489 5.35781 6.26841 5.89219 5.93794 6.21914L2.87935 9.27773H14.9063C15.6833 9.27773 16.3125 8.64844 16.3125 7.87148V1.96875Z" fill="black"/>
</g>
<defs>
<clipPath id="clip0_6279_1613">
<rect width="18" height="18" fill="white"/>
</clipPath>
</defs>
</svg>
