<svg width="18" height="18" viewBox="0 0 18 18" fill="none" xmlns="http://www.w3.org/2000/svg">
<path d="M11.4999 4.5C11.4999 4.225 11.7249 4 11.9999 4H17.4999C17.7749 4 17.9999 4.225 17.9999 4.5V10C17.9999 10.275 17.7749 10.5 17.4999 10.5C17.2249 10.5 16.9999 10.275 16.9999 10V5.70625L10.353 12.3531C10.1593 12.5469 9.84053 12.5469 9.64678 12.3531L5.9999 8.70625L0.853027 13.8531C0.659277 14.0469 0.340527 14.0469 0.146777 13.8531C-0.0469727 13.6594 -0.0469727 13.3406 0.146777 13.1469L5.64678 7.64687C5.84053 7.45312 6.15928 7.45312 6.35303 7.64687L9.9999 11.2937L16.2937 5H11.9999C11.7249 5 11.4999 4.775 11.4999 4.5Z" fill="black"/>
</svg>
