<svg width="18" height="18" viewBox="0 0 18 18" fill="none" xmlns="http://www.w3.org/2000/svg">
<path d="M12.375 3.375H14.625C15.2473 3.375 15.75 3.87773 15.75 4.5V13.5C15.75 14.1223 15.2473 14.625 14.625 14.625H12.375C11.7527 14.625 11.25 15.1277 11.25 15.75C11.25 16.3723 11.7527 16.875 12.375 16.875H14.625C16.4883 16.875 18 15.3633 18 13.5V4.5C18 2.63672 16.4883 1.125 14.625 1.125H12.375C11.7527 1.125 11.25 1.62773 11.25 2.25C11.25 2.87227 11.7527 3.375 12.375 3.375ZM12.0445 9.79453C12.484 9.35508 12.484 8.64141 12.0445 8.20195L7.54453 3.70195C7.10508 3.2625 6.39141 3.2625 5.95195 3.70195C5.5125 4.14141 5.5125 4.85508 5.95195 5.29453L8.53242 7.875H1.125C0.502734 7.875 0 8.37773 0 9C0 9.62227 0.502734 10.125 1.125 10.125H8.53242L5.95195 12.7055C5.5125 13.1449 5.5125 13.8586 5.95195 14.298C6.39141 14.7375 7.10508 14.7375 7.54453 14.298L12.0445 9.79805V9.79453Z" fill="black"/>
</svg>
