<svg width="18" height="18" viewBox="0 0 18 18" fill="none" xmlns="http://www.w3.org/2000/svg">
<g transform="rotate(180 9 9)">
<path d="M1.33057 8.20542C0.891113 8.64487 0.891113 9.35855 1.33057 9.798L6.95557 15.423C7.39502 15.8625 8.10869 15.8625 8.54814 15.423C8.9876 14.9835 8.9876 14.2699 8.54814 13.8304L4.83916 10.125H15.6251C16.2474 10.125 16.7501 9.62222 16.7501 8.99995C16.7501 8.37769 16.2474 7.87495 15.6251 7.87495H4.84268L8.54463 4.16948C8.98408 3.73003 8.98408 3.01636 8.54463 2.5769C8.10518 2.13745 7.3915 2.13745 6.95205 2.5769L1.32705 8.2019L1.33057 8.20542Z" fill="black"/>
</g>
</svg>
