<svg width="18" height="18" viewBox="0 0 18 18" fill="none" xmlns="http://www.w3.org/2000/svg">
<path d="M8.47773 0.164813L3.41523 5.22731C3.19551 5.44704 3.19551 5.80317 3.41523 6.02255C3.63496 6.24192 3.99109 6.24227 4.21047 6.02255L8.3125 1.92059V11.8125C8.3125 12.1234 8.56408 12.375 8.875 12.375C9.18592 12.375 9.4375 12.1234 9.4375 11.8125V1.92059L13.5402 6.02332C13.76 6.24305 14.1161 6.24305 14.3355 6.02332C14.5548 5.80359 14.5552 5.44746 14.3355 5.22809L9.27297 0.165586C9.16328 0.0549141 9.01914 0 8.875 0C8.73086 0 8.58672 0.0549141 8.47773 0.164813ZM15.625 11.8125V15.1875C15.625 16.1181 14.8681 16.875 13.9375 16.875H3.8125C2.88191 16.875 2.125 16.1191 2.125 15.1875V11.8125C2.125 11.5031 1.87328 11.25 1.5625 11.25C1.25172 11.25 1 11.5031 1 11.8125V15.1875C1 16.7379 2.26141 18 3.8125 18H13.9375C15.4889 18 16.75 16.7386 16.75 15.1875V11.8125C16.75 11.5016 16.4984 11.25 16.1875 11.25C15.8766 11.25 15.625 11.5031 15.625 11.8125Z" fill="black"/>
</svg>
