<svg width="18" height="18" viewBox="0 0 18 18" fill="none" xmlns="http://www.w3.org/2000/svg">
<path d="M9.66953 0.32959C9.23008 -0.109863 8.51641 -0.109863 8.07695 0.32959L3.57695 4.82959C3.1375 5.26904 3.1375 5.98272 3.57695 6.42217C4.01641 6.86162 4.73008 6.86162 5.16953 6.42217L7.75 3.8417V11.2491C7.75 11.8714 8.25273 12.3741 8.875 12.3741C9.49727 12.3741 10 11.8714 10 11.2491V3.8417L12.5805 6.42217C13.0199 6.86162 13.7336 6.86162 14.173 6.42217C14.6125 5.98272 14.6125 5.26904 14.173 4.82959L9.67305 0.32959H9.66953ZM3.25 12.3741C3.25 11.7519 2.74727 11.2491 2.125 11.2491C1.50273 11.2491 1 11.7519 1 12.3741V14.6241C1 16.4874 2.51172 17.9991 4.375 17.9991H13.375C15.2383 17.9991 16.75 16.4874 16.75 14.6241V12.3741C16.75 11.7519 16.2473 11.2491 15.625 11.2491C15.0027 11.2491 14.5 11.7519 14.5 12.3741V14.6241C14.5 15.2464 13.9973 15.7491 13.375 15.7491H4.375C3.75273 15.7491 3.25 15.2464 3.25 14.6241V12.3741Z" fill="black"/>
</svg>
