<svg width="18" height="18" viewBox="0 0 18 18" fill="none" xmlns="http://www.w3.org/2000/svg">
<path d="M11.4999 13.4999C11.4999 13.7749 11.7249 13.9999 11.9999 13.9999H17.4999C17.7749 13.9999 17.9999 13.7749 17.9999 13.4999V7.9999C17.9999 7.7249 17.7749 7.4999 17.4999 7.4999C17.2249 7.4999 16.9999 7.7249 16.9999 7.9999V12.2937L10.353 5.64678C10.1593 5.45303 9.84053 5.45303 9.64678 5.64678L5.9999 9.29365L0.853027 4.14678C0.659277 3.95303 0.340527 3.95303 0.146777 4.14678C-0.0469727 4.34053 -0.0469727 4.65928 0.146777 4.85303L5.64678 10.353C5.84053 10.5468 6.15928 10.5468 6.35303 10.353L9.9999 6.70615L16.2937 12.9999H11.9999C11.7249 12.9999 11.4999 13.2249 11.4999 13.4999Z" fill="black"/>
</svg>
