<svg width="18" height="18" viewBox="0 0 18 18" fill="none" xmlns="http://www.w3.org/2000/svg">
<path d="M3.12379 16.75C2.5022 16.75 2 16.2473 2 15.625C2 15.0027 2.5022 14.5 3.12379 14.5H14.3617C14.9833 14.5 15.4855 15.0027 15.4855 15.625C15.4855 16.2473 14.9833 16.75 14.3617 16.75H3.12379ZM9.53645 11.9195C9.09746 12.359 8.38456 12.359 7.94557 11.9195L3.4504 7.41953C3.01141 6.98008 3.01141 6.26641 3.4504 5.82695C3.88938 5.3875 4.60229 5.3875 5.04127 5.82695L7.61897 8.40742V2.125C7.61897 1.50273 8.12117 1 8.74277 1C9.36436 1 9.86656 1.50273 9.86656 2.125V8.40742L12.4443 5.82695C12.8832 5.3875 13.5962 5.3875 14.0351 5.82695C14.4741 6.26641 14.4741 6.98008 14.0351 7.41953L9.53996 11.9195H9.53645Z" fill="black"/>
</svg>
