<svg width="18" height="18" viewBox="0 0 18 18" fill="none" xmlns="http://www.w3.org/2000/svg">
<path d="M1.6875 6.75C1.37812 6.75 1.125 6.49687 1.125 6.1875V1.6875C1.125 1.37812 1.37812 1.125 1.6875 1.125C1.99687 1.125 2.25 1.37812 2.25 1.6875V4.94297C3.62812 2.6543 6.13477 1.125 9 1.125C13.3488 1.125 16.875 4.65117 16.875 9C16.875 13.3488 13.3488 16.875 9 16.875C6.19102 16.875 3.72656 15.4055 2.33086 13.1906C2.10234 12.825 2.38008 12.375 2.8125 12.375C3.02344 12.375 3.21328 12.4875 3.3293 12.6633C4.53164 14.5195 6.62344 15.75 9 15.75C12.7266 15.75 15.75 12.7266 15.75 9C15.75 5.27344 12.7266 2.25 9 2.25C6.50039 2.25 4.3207 3.60703 3.15352 5.625H6.1875C6.49687 5.625 6.75 5.87813 6.75 6.1875C6.75 6.49687 6.49687 6.75 6.1875 6.75H1.6875Z" fill="black"/>
</svg>
