<svg width="18" height="18" viewBox="0 0 18 18" fill="none" xmlns="http://www.w3.org/2000/svg">
<path d="M8.75254 1C9.3748 1 9.87754 1.50273 9.87754 2.125V6.88867L13.7975 4.53672C14.3318 4.2168 15.0209 4.38906 15.3408 4.92344C15.6607 5.45781 15.4885 6.14687 14.9541 6.4668L10.9393 8.875L14.9576 11.2867C15.492 11.6066 15.6643 12.2957 15.3443 12.8301C15.0244 13.3645 14.3354 13.5367 13.801 13.2168L9.87754 10.8613V15.625C9.87754 16.2473 9.3748 16.75 8.75254 16.75C8.13027 16.75 7.62754 16.2473 7.62754 15.625V10.8613L3.70762 13.2133C3.17324 13.5332 2.48418 13.3609 2.16426 12.8266C1.84434 12.2922 2.0166 11.6031 2.55098 11.2832L6.56582 8.875L2.54746 6.46328C2.01309 6.14336 1.84082 5.4543 2.16074 4.91992C2.48066 4.38555 3.16973 4.21328 3.7041 4.5332L7.62754 6.88867V2.125C7.62754 1.50273 8.13027 1 8.75254 1Z" fill="black"/>
</svg>
