<svg width="18" height="18" viewBox="0 0 18 18" fill="none" xmlns="http://www.w3.org/2000/svg">
<path d="M8.75147 1C9.06084 1 9.31397 1.25312 9.31397 1.5625V7.85195L14.6366 4.46289C14.9003 4.29766 15.2448 4.375 15.4136 4.63516C15.5823 4.89531 15.5015 5.24336 15.2413 5.41211L9.79912 8.875L15.2413 12.3379C15.505 12.5031 15.5823 12.8512 15.4136 13.1148C15.2448 13.3785 14.9003 13.4559 14.6366 13.2871L9.31397 9.89805V16.1875C9.31397 16.4969 9.06084 16.75 8.75147 16.75C8.44209 16.75 8.18897 16.4969 8.18897 16.1875V9.89805L2.86631 13.2871C2.60264 13.4523 2.25811 13.375 2.08936 13.1148C1.92061 12.8547 2.00147 12.5066 2.26162 12.3379L7.70381 8.875L2.26162 5.41211C1.99795 5.24687 1.92061 4.89883 2.08936 4.63516C2.25811 4.37148 2.60264 4.29414 2.86631 4.46289L8.18897 7.85195V1.5625C8.18897 1.25312 8.44209 1 8.75147 1Z" fill="black"/>
</svg>
