<svg width="18" height="18" viewBox="0 0 18 18" fill="none" xmlns="http://www.w3.org/2000/svg">
<g clip-path="url(#clip0_816_2469)">
<path d="M12.9094 14.502L3.49805 5.09063C2.71055 6.19102 2.25 7.54102 2.25 9C2.25 12.7266 5.27344 15.75 9 15.75C10.459 15.75 11.809 15.2895 12.9094 14.502ZM14.502 12.9094C15.2895 11.809 15.75 10.459 15.75 9C15.75 5.27344 12.7266 2.25 9 2.25C7.54102 2.25 6.19102 2.71055 5.09063 3.49805L14.502 12.9094ZM18 9C18 13.9711 13.9711 18 9 18C4.02891 18 0 13.9711 0 9C0 4.02891 4.02891 0 9 0C13.9711 0 18 4.02891 18 9Z" fill="black"/>
</g>
<defs>
<clipPath id="clip0_816_2469">
<rect width="18" height="18" fill="white"/>
</clipPath>
</defs>
</svg>
