<svg width="18" height="18" viewBox="0 0 18 18" fill="none" xmlns="http://www.w3.org/2000/svg">
<g clip-path="url(#clip0_816_2472)">
<path d="M18 9C18 13.9711 13.9711 18 9 18C4.02891 18 0 13.9711 0 9C0 4.02891 4.02891 0 9 0C13.9711 0 18 4.02891 18 9ZM3.04805 3.84258C1.84992 5.22422 1.125 7.02773 1.125 9C1.125 13.3488 4.65117 16.875 9 16.875C10.9723 16.875 12.7758 16.1508 14.1574 14.952L3.04805 3.84258ZM16.875 9C16.875 4.65117 13.3488 1.125 9 1.125C7.02773 1.125 5.22422 1.84992 3.84258 3.04805L14.952 14.1574C16.1508 12.7758 16.875 10.9723 16.875 8.96836V9Z" fill="black"/>
</g>
<defs>
<clipPath id="clip0_816_2472">
<rect width="18" height="18" fill="white"/>
</clipPath>
</defs>
</svg>
