<svg width="18" height="18" viewBox="0 0 18 18" fill="none" xmlns="http://www.w3.org/2000/svg">
<path d="M0 1.5625C0 1.25312 0.253125 1 0.5625 1C0.871875 1 1.125 1.25312 1.125 1.5625V16.1875C1.125 16.4969 0.871875 16.75 0.5625 16.75C0.253125 16.75 0 16.4969 0 16.1875V1.5625ZM2.25 1.5625C2.25 1.25312 2.50312 1 2.8125 1C3.12188 1 3.375 1.25312 3.375 1.5625V16.1875C3.375 16.4969 3.12188 16.75 2.8125 16.75C2.50312 16.75 2.25 16.4969 2.25 16.1875V1.5625ZM5.0625 1C5.37187 1 5.625 1.25312 5.625 1.5625V16.1875C5.625 16.4969 5.37187 16.75 5.0625 16.75C4.75313 16.75 4.5 16.4969 4.5 16.1875V1.5625C4.5 1.25312 4.75313 1 5.0625 1ZM7.875 1.5625C7.875 1.25312 8.12813 1 8.4375 1C8.74687 1 9 1.25312 9 1.5625V16.1875C9 16.4969 8.74687 16.75 8.4375 16.75C8.12813 16.75 7.875 16.4969 7.875 16.1875V1.5625ZM10.6875 1C10.9969 1 11.25 1.25312 11.25 1.5625V16.1875C11.25 16.4969 10.9969 16.75 10.6875 16.75C10.3781 16.75 10.125 16.4969 10.125 16.1875V1.5625C10.125 1.25312 10.3781 1 10.6875 1ZM13.5 1.5625C13.5 1.25312 13.7531 1 14.0625 1C14.3719 1 14.625 1.25312 14.625 1.5625V16.1875C14.625 16.4969 14.3719 16.75 14.0625 16.75C13.7531 16.75 13.5 16.4969 13.5 16.1875V1.5625ZM17.4375 1C17.7469 1 18 1.25312 18 1.5625V16.1875C18 16.4969 17.7469 16.75 17.4375 16.75C17.1281 16.75 16.875 16.4969 16.875 16.1875V1.5625C16.875 1.25312 17.1281 1 17.4375 1Z" fill="black"/>
</svg>
