<svg width="18" height="18" viewBox="0 0 18 18" fill="none" xmlns="http://www.w3.org/2000/svg">
<path d="M0.84375 1C0.376172 1 0 1.37617 0 1.84375V15.9062C0 16.3738 0.376172 16.75 0.84375 16.75H1.40625C1.87383 16.75 2.25 16.3738 2.25 15.9062V1.84375C2.25 1.37617 1.87383 1 1.40625 1H0.84375ZM3.9375 1C3.62812 1 3.375 1.25312 3.375 1.5625V16.1875C3.375 16.4969 3.62812 16.75 3.9375 16.75C4.24687 16.75 4.5 16.4969 4.5 16.1875V1.5625C4.5 1.25312 4.24687 1 3.9375 1ZM6.46875 1C6.00117 1 5.625 1.37617 5.625 1.84375V15.9062C5.625 16.3738 6.00117 16.75 6.46875 16.75H7.03125C7.49883 16.75 7.875 16.3738 7.875 15.9062V1.84375C7.875 1.37617 7.49883 1 7.03125 1H6.46875ZM9.84375 1C9.37617 1 9 1.37617 9 1.84375V15.9062C9 16.3738 9.37617 16.75 9.84375 16.75H10.4062C10.8738 16.75 11.25 16.3738 11.25 15.9062V1.84375C11.25 1.37617 10.8738 1 10.4062 1H9.84375ZM15.75 1.84375V15.9062C15.75 16.3738 16.1262 16.75 16.5938 16.75H17.1562C17.6238 16.75 18 16.3738 18 15.9062V1.84375C18 1.37617 17.6238 1 17.1562 1H16.5938C16.1262 1 15.75 1.37617 15.75 1.84375ZM13.5 1.5625V16.1875C13.5 16.4969 13.7531 16.75 14.0625 16.75C14.3719 16.75 14.625 16.4969 14.625 16.1875V1.5625C14.625 1.25312 14.3719 1 14.0625 1C13.7531 1 13.5 1.25312 13.5 1.5625Z" fill="black"/>
</svg>
