<svg width="18" height="18" viewBox="0 0 18 18" fill="none" xmlns="http://www.w3.org/2000/svg">
<path d="M1 3.125C1 2.50273 1.50273 2 2.125 2H15.625C16.2473 2 16.75 2.50273 16.75 3.125C16.75 3.74727 16.2473 4.25 15.625 4.25H2.125C1.50273 4.25 1 3.74727 1 3.125ZM3.25 8.75C3.25 8.12773 3.75273 7.625 4.375 7.625H13.375C13.9973 7.625 14.5 8.12773 14.5 8.75C14.5 9.37227 13.9973 9.875 13.375 9.875H4.375C3.75273 9.875 3.25 9.37227 3.25 8.75ZM11.125 14.375C11.125 14.9973 10.6223 15.5 10 15.5H7.75C7.12773 15.5 6.625 14.9973 6.625 14.375C6.625 13.7527 7.12773 13.25 7.75 13.25H10C10.6223 13.25 11.125 13.7527 11.125 14.375Z" fill="black"/>
</svg>
