<svg width="18" height="18" viewBox="0 0 18 18" fill="none" xmlns="http://www.w3.org/2000/svg">
<path d="M1 3.5625C1 3.25312 1.25312 3 1.5625 3H16.1875C16.4969 3 16.75 3.25312 16.75 3.5625C16.75 3.87187 16.4969 4.125 16.1875 4.125H1.5625C1.25312 4.125 1 3.87187 1 3.5625ZM3.25 9.1875C3.25 8.87813 3.50312 8.625 3.8125 8.625H13.9375C14.2469 8.625 14.5 8.87813 14.5 9.1875C14.5 9.49687 14.2469 9.75 13.9375 9.75H3.8125C3.50312 9.75 3.25 9.49687 3.25 9.1875ZM11.125 14.8125C11.125 15.1219 10.8719 15.375 10.5625 15.375H7.1875C6.87813 15.375 6.625 15.1219 6.625 14.8125C6.625 14.5031 6.87813 14.25 7.1875 14.25H10.5625C10.8719 14.25 11.125 14.5031 11.125 14.8125Z" fill="black"/>
</svg>
