<svg width="18" height="18" viewBox="0 0 18 18" fill="none" xmlns="http://www.w3.org/2000/svg">
<path d="M1.125 3.375C1.125 3.06562 1.37812 2.8125 1.6875 2.8125H16.3125C16.6219 2.8125 16.875 3.06562 16.875 3.375C16.875 3.68437 16.6219 3.9375 16.3125 3.9375H1.6875C1.37812 3.9375 1.125 3.68437 1.125 3.375ZM1.125 9C1.125 8.69063 1.37812 8.4375 1.6875 8.4375H16.3125C16.6219 8.4375 16.875 8.69063 16.875 9C16.875 9.30937 16.6219 9.5625 16.3125 9.5625H1.6875C1.37812 9.5625 1.125 9.30937 1.125 9ZM16.875 14.625C16.875 14.9344 16.6219 15.1875 16.3125 15.1875H1.6875C1.37812 15.1875 1.125 14.9344 1.125 14.625C1.125 14.3156 1.37812 14.0625 1.6875 14.0625H16.3125C16.6219 14.0625 16.875 14.3156 16.875 14.625Z" fill="black"/>
</svg>
