<svg width="18" height="18" viewBox="0 0 18 18" fill="none" xmlns="http://www.w3.org/2000/svg">
<path d="M1.125 3.375C1.125 2.75273 1.62773 2.25 2.25 2.25H15.75C16.3723 2.25 16.875 2.75273 16.875 3.375C16.875 3.99727 16.3723 4.5 15.75 4.5H2.25C1.62773 4.5 1.125 3.99727 1.125 3.375ZM1.125 9C1.125 8.37773 1.62773 7.875 2.25 7.875H15.75C16.3723 7.875 16.875 8.37773 16.875 9C16.875 9.62227 16.3723 10.125 15.75 10.125H2.25C1.62773 10.125 1.125 9.62227 1.125 9ZM16.875 14.625C16.875 15.2473 16.3723 15.75 15.75 15.75H2.25C1.62773 15.75 1.125 15.2473 1.125 14.625C1.125 14.0027 1.62773 13.5 2.25 13.5H15.75C16.3723 13.5 16.875 14.0027 16.875 14.625Z" fill="black"/>
</svg>
