<svg width="18" height="18" viewBox="0 0 18 18" fill="none" xmlns="http://www.w3.org/2000/svg">
<path d="M8.87433 0C8.25206 0 7.74933 0.502734 7.74933 1.125V1.8C5.18292 2.32031 3.24933 4.59141 3.24933 7.3125V7.97344C3.24933 9.62578 2.64112 11.2219 1.54425 12.4594L1.28409 12.7512C0.98878 13.0816 0.918468 13.5563 1.09776 13.9605C1.27706 14.3648 1.68136 14.625 2.12433 14.625H15.6243C16.0673 14.625 16.4681 14.3648 16.6509 13.9605C16.8337 13.5563 16.7599 13.0816 16.4646 12.7512L16.2044 12.4594C15.1075 11.2219 14.4993 9.6293 14.4993 7.97344V7.3125C14.4993 4.59141 12.5657 2.32031 9.99933 1.8V1.125C9.99933 0.502734 9.49659 0 8.87433 0ZM10.4669 17.3426C10.8888 16.9207 11.1243 16.3477 11.1243 15.75H8.87433H6.62433C6.62433 16.3477 6.85987 16.9207 7.28175 17.3426C7.70362 17.7645 8.27667 18 8.87433 18C9.47198 18 10.045 17.7645 10.4669 17.3426Z" fill="black"/>
</svg>
