<svg width="18" height="18" viewBox="0 0 18 18" fill="none" xmlns="http://www.w3.org/2000/svg">
<path d="M8.28086 0.5625C8.28086 0.251859 8.56563 0 8.84336 0C9.18437 0 9.4375 0.251859 9.4375 0.5625V1.15277C12.2816 1.43508 14.5 3.83203 14.5 6.75V7.77305C14.5 9.30937 15.1117 10.7824 16.198 11.8723L16.293 11.9672C16.5848 12.259 16.75 12.6246 16.75 13.0676C16.75 13.9289 16.0539 14.625 15.1926 14.625H2.55672C1.69715 14.625 1 13.9289 1 13.0676C1 12.6246 1.16404 12.259 1.45598 11.9672L1.55266 11.8723C2.63934 10.7824 3.25 9.30937 3.25 7.77305V6.75C3.25 3.83203 5.46836 1.43508 8.3125 1.15277L8.28086 0.5625ZM8.84336 2.25C6.38945 2.25 4.34336 4.26445 4.34336 6.75V7.77305C4.34336 9.6082 3.64586 11.3695 2.34824 12.6668L2.25156 12.7617C2.17035 12.8426 2.09336 12.9551 2.09336 13.0676C2.09336 13.3066 2.31836 13.5 2.55672 13.5H15.1926C15.4316 13.5 15.625 13.3066 15.625 13.0676C15.625 12.9551 15.5793 12.8426 15.4984 12.7617L15.4035 12.6668C14.1027 11.3695 13.375 9.6082 13.375 7.77305V6.75C13.375 4.26445 11.3605 2.25 8.84336 2.25ZM8.84336 16.875C9.36367 16.875 9.78203 16.5621 9.93672 16.1262C10.0387 15.8309 10.3621 15.648 10.6539 15.7816C10.9457 15.8871 11.1004 16.207 10.9984 16.4988C10.6891 17.3742 9.85586 18 8.84336 18C7.89414 18 7.06094 17.3742 6.75156 16.4988C6.64961 16.207 6.8043 15.8871 7.09609 15.7816C7.38789 15.648 7.71133 15.8309 7.81328 16.1262C7.96797 16.5621 8.38633 16.875 8.84336 16.875Z" fill="black"/>
</svg>
