<svg width="18" height="18" viewBox="0 0 18 18" fill="none" xmlns="http://www.w3.org/2000/svg">
<path d="M1.80005 3.59995C1.80005 3.10214 2.20224 2.69995 2.70005 2.69995H15.3C15.7979 2.69995 16.2 3.10214 16.2 3.59995V4.49995C16.2 4.99776 15.7979 5.39995 15.3 5.39995H2.70005C2.20224 5.39995 1.80005 4.99776 1.80005 4.49995V3.59995ZM2.70005 6.74995H15.3V13.5C15.3 14.4928 14.4929 15.3 13.5 15.3H4.50005C3.50724 15.3 2.70005 14.4928 2.70005 13.5V6.74995ZM6.97505 8.54995C6.60099 8.54995 6.30005 8.85089 6.30005 9.22495C6.30005 9.59901 6.60099 9.89995 6.97505 9.89995H11.025C11.3991 9.89995 11.7 9.59901 11.7 9.22495C11.7 8.85089 11.3991 8.54995 11.025 8.54995H6.97505Z" fill="black"/>
</svg>
