<svg width="18" height="18" viewBox="0 0 18 18" fill="none" xmlns="http://www.w3.org/2000/svg">
<path d="M14.85 3.59995C15.0975 3.59995 15.3 3.80245 15.3 4.04995V4.94995C15.3 5.19745 15.0975 5.39995 14.85 5.39995H3.15005C2.90255 5.39995 2.70005 5.19745 2.70005 4.94995V4.04995C2.70005 3.80245 2.90255 3.59995 3.15005 3.59995H14.85ZM1.80005 4.94995C1.80005 5.53776 2.17692 6.03839 2.70005 6.22401V13.5C2.70005 14.4928 3.50724 15.3 4.50005 15.3H13.5C14.4929 15.3 15.3 14.4928 15.3 13.5V6.22401C15.8232 6.03839 16.2 5.53776 16.2 4.94995V4.04995C16.2 3.30464 15.5954 2.69995 14.85 2.69995H3.15005C2.40474 2.69995 1.80005 3.30464 1.80005 4.04995V4.94995ZM3.60005 13.5V6.29995H14.4V13.5C14.4 13.9978 13.9979 14.4 13.5 14.4H4.50005C4.00224 14.4 3.60005 13.9978 3.60005 13.5ZM6.75005 8.09995C6.50255 8.09995 6.30005 8.30245 6.30005 8.54995C6.30005 8.79745 6.50255 8.99995 6.75005 8.99995H11.25C11.4975 8.99995 11.7 8.79745 11.7 8.54995C11.7 8.30245 11.4975 8.09995 11.25 8.09995H6.75005Z" fill="black"/>
</svg>
