<svg width="18" height="18" viewBox="0 0 18 18" fill="none" xmlns="http://www.w3.org/2000/svg">
<g clip-path="url(#clip0_6089_26101)">
<path d="M14.0625 0C14.3719 0 14.625 0.253125 14.625 0.5625V2.26758C15.2156 2.3168 15.7957 2.45742 16.3441 2.68594L16.8117 2.88281C17.1 3.00234 17.2336 3.33281 17.1141 3.61758C16.9945 3.90234 16.6641 4.03945 16.3793 3.91992L15.9117 3.72305C15.3598 3.49453 14.7656 3.375 14.168 3.375H13.616C12.3082 3.375 11.25 4.4332 11.25 5.74102C11.25 6.74648 11.8863 7.64297 12.8355 7.97695L15.6586 8.96133C17.0613 9.45 18 10.7719 18 12.259C18 14.1469 16.4988 15.6867 14.625 15.75V17.4375C14.625 17.7469 14.3719 18 14.0625 18C13.7531 18 13.5 17.7469 13.5 17.4375V15.7324C12.723 15.6691 11.9707 15.4301 11.2992 15.0293L10.3992 14.4914C10.132 14.3332 10.0477 13.9852 10.2059 13.7215C10.3641 13.4578 10.7121 13.3664 10.9758 13.5281L11.8758 14.066C12.4875 14.4316 13.1871 14.625 13.8973 14.625H14.5055C15.8133 14.625 16.8715 13.5668 16.8715 12.259C16.8715 11.2535 16.2352 10.357 15.2859 10.023L12.4629 9.03867C11.0602 8.55 10.1215 7.22813 10.1215 5.74102C10.1215 3.85313 11.6227 2.31328 13.4965 2.25V0.5625C13.4965 0.253125 13.7496 0 14.059 0H14.0625ZM0 2.8125C0 1.88086 0.755859 1.125 1.6875 1.125H3.9375C6.73242 1.125 9 3.39258 9 6.1875C9 8.49375 7.45664 10.4414 5.34727 11.0496L7.27383 16.1121C7.38281 16.4039 7.23867 16.7273 6.94688 16.8363C6.65508 16.9453 6.33164 16.8012 6.22266 16.5094L4.21523 11.243C4.12383 11.2465 4.02891 11.25 3.9375 11.25H1.125V16.3125C1.125 16.6219 0.871875 16.875 0.5625 16.875C0.253125 16.875 0 16.6219 0 16.3125V10.6875V2.8125ZM1.125 10.125H3.9375C6.11367 10.125 7.875 8.36367 7.875 6.1875C7.875 4.01133 6.11367 2.25 3.9375 2.25H1.6875C1.37812 2.25 1.125 2.50312 1.125 2.8125V10.125Z" fill="black"/>
</g>
<defs>
<clipPath id="clip0_6089_26101">
<rect width="18" height="18" fill="white"/>
</clipPath>
</defs>
</svg>
