<svg width="18" height="18" viewBox="0 0 18 18" fill="none" xmlns="http://www.w3.org/2000/svg">
<g clip-path="url(#clip0_6089_26102)">
<path d="M14.0625 0C14.6848 0 15.1875 0.502734 15.1875 1.125V1.76484C15.627 1.8457 16.0559 1.98984 16.4602 2.19023L16.8152 2.36953C17.3707 2.64727 17.5957 3.32227 17.318 3.87773C17.0402 4.4332 16.3652 4.6582 15.8098 4.38047L15.4512 4.20117C15.1031 4.02539 14.7164 3.9375 14.3262 3.9375H14.2664C13.2188 3.9375 12.3715 4.78477 12.3715 5.83242C12.3715 6.60586 12.8426 7.30195 13.5633 7.59023L15.3914 8.32148C16.9629 8.95078 17.9965 10.473 17.9965 12.1676V12.2871C17.9965 14.0871 16.8152 15.6129 15.184 16.1262V16.875C15.184 17.4973 14.6812 18 14.059 18C13.4367 18 12.934 17.4973 12.934 16.875V16.193C12.4066 16.0699 11.9004 15.852 11.4469 15.5496L10.6242 15.0012C10.1074 14.6566 9.9668 13.957 10.3113 13.4402C10.6559 12.9234 11.3555 12.7828 11.8723 13.1273L12.6984 13.6758C13.0781 13.9289 13.5211 14.0625 13.9746 14.0625C14.9555 14.0625 15.75 13.268 15.75 12.2871V12.1676C15.75 11.3941 15.2789 10.698 14.5582 10.4098L12.7301 9.67852C11.1551 9.04922 10.125 7.52695 10.125 5.83242C10.125 4.00781 11.3027 2.46094 12.9375 1.90547V1.125C12.9375 0.502734 13.4402 0 14.0625 0ZM0 2.25C0 1.62773 0.502734 1.125 1.125 1.125H3.9375C6.73242 1.125 9 3.39258 9 6.1875C9 8.25469 7.7625 10.0301 5.98711 10.8176L7.79414 15.3316C8.02617 15.9082 7.74492 16.5621 7.16836 16.7941C6.5918 17.0262 5.93789 16.7449 5.70586 16.1684L3.73711 11.25H2.25V15.75C2.25 16.3723 1.74727 16.875 1.125 16.875C0.502734 16.875 0 16.3723 0 15.75V10.125V2.25ZM2.25 9H3.9375C5.49141 9 6.75 7.74141 6.75 6.1875C6.75 4.63359 5.49141 3.375 3.9375 3.375H2.25V9Z" fill="black"/>
</g>
<defs>
<clipPath id="clip0_6089_26102">
<rect width="18" height="18" fill="white"/>
</clipPath>
</defs>
</svg>
