<svg width="18" height="18" viewBox="0 0 18 18" fill="none" xmlns="http://www.w3.org/2000/svg">
<path d="M5.625 1.6875V3.375H12.375V1.6875C12.375 1.37812 12.1219 1.125 11.8125 1.125H6.1875C5.87813 1.125 5.625 1.37812 5.625 1.6875ZM4.5 3.375V1.6875C4.5 0.755859 5.25586 0 6.1875 0H11.8125C12.7441 0 13.5 0.755859 13.5 1.6875V3.375H15.75C16.991 3.375 18 4.38398 18 5.625V14.625C18 15.866 16.991 16.875 15.75 16.875H2.25C1.00898 16.875 0 15.866 0 14.625V5.625C0 4.38398 1.00898 3.375 2.25 3.375H4.5ZM12.9375 4.5H5.0625H2.25C1.62773 4.5 1.125 5.00273 1.125 5.625V9H6.1875H7.3125H10.6875H11.8125H16.875V5.625C16.875 5.00273 16.3723 4.5 15.75 4.5H12.9375ZM16.875 10.125H11.8125V11.8125C11.8125 12.4348 11.3098 12.9375 10.6875 12.9375H7.3125C6.69023 12.9375 6.1875 12.4348 6.1875 11.8125V10.125H1.125V14.625C1.125 15.2473 1.62773 15.75 2.25 15.75H15.75C16.3723 15.75 16.875 15.2473 16.875 14.625V10.125ZM7.3125 10.125V11.8125H10.6875V10.125H7.3125Z" fill="black"/>
</svg>
