<svg width="18" height="18" viewBox="0 0 18 18" fill="none" xmlns="http://www.w3.org/2000/svg">
<path d="M4.25 4.21875C4.25 3.75117 4.62793 3.375 5.09375 3.375H6.78125C7.24883 3.375 7.625 3.75117 7.625 4.21875V5.90625C7.625 6.37383 7.24883 6.75 6.78125 6.75H5.09375C4.62793 6.75 4.25 6.37383 4.25 5.90625V4.21875ZM5.375 4.5V5.625H6.5V4.5H5.375ZM12.4062 3.375C12.8738 3.375 13.25 3.75117 13.25 4.21875V5.90625C13.25 6.37383 12.8738 6.75 12.4062 6.75H10.7188C10.2512 6.75 9.875 6.37383 9.875 5.90625V4.21875C9.875 3.75117 10.2512 3.375 10.7188 3.375H12.4062ZM12.125 5.625V4.5H11V5.625H12.125ZM4.25 8.71875C4.25 8.25117 4.62793 7.875 5.09375 7.875H6.78125C7.24883 7.875 7.625 8.25117 7.625 8.71875V10.4062C7.625 10.8738 7.24883 11.25 6.78125 11.25H5.09375C4.62793 11.25 4.25 10.8738 4.25 10.4062V8.71875ZM5.375 9V10.125H6.5V9H5.375ZM12.4062 7.875C12.8738 7.875 13.25 8.25117 13.25 8.71875V10.4062C13.25 10.8738 12.8738 11.25 12.4062 11.25H10.7188C10.2512 11.25 9.875 10.8738 9.875 10.4062V8.71875C9.875 8.25117 10.2512 7.875 10.7188 7.875H12.4062ZM12.125 10.125V9H11V10.125H12.125ZM4.25 18C3.00723 18 2 16.991 2 15.75V2.25C2 1.00723 3.00723 0 4.25 0H13.25C14.491 0 15.5 1.00723 15.5 2.25V15.75C15.5 16.991 14.491 18 13.25 18H4.25ZM3.125 2.25V15.75C3.125 16.3723 3.62879 16.875 4.25 16.875H6.5V14.625C6.5 13.384 7.50898 12.375 8.75 12.375C9.99102 12.375 11 13.384 11 14.625V16.875H13.25C13.8723 16.875 14.375 16.3723 14.375 15.75V2.25C14.375 1.62879 13.8723 1.125 13.25 1.125H4.25C3.62879 1.125 3.125 1.62879 3.125 2.25ZM9.875 14.625C9.875 14.0027 9.37227 13.5 8.75 13.5C8.12773 13.5 7.625 14.0027 7.625 14.625V16.875H9.875V14.625Z" fill="black"/>
</svg>
