<svg width="18" height="18" viewBox="0 0 18 18" fill="none" xmlns="http://www.w3.org/2000/svg">
<path d="M3.6875 0C2.75586 0 2 0.755859 2 1.6875V16.3125C2 17.2441 2.75586 18 3.6875 18H7.0625V15.1875C7.0625 14.2559 7.81836 13.5 8.75 13.5C9.68164 13.5 10.4375 14.2559 10.4375 15.1875V18H13.8125C14.7441 18 15.5 17.2441 15.5 16.3125V1.6875C15.5 0.755859 14.7441 0 13.8125 0H3.6875ZM4.25 8.4375C4.25 8.12813 4.50312 7.875 4.8125 7.875H5.9375C6.24687 7.875 6.5 8.12813 6.5 8.4375V9.5625C6.5 9.87187 6.24687 10.125 5.9375 10.125H4.8125C4.50312 10.125 4.25 9.87187 4.25 9.5625V8.4375ZM8.1875 7.875H9.3125C9.62187 7.875 9.875 8.12813 9.875 8.4375V9.5625C9.875 9.87187 9.62187 10.125 9.3125 10.125H8.1875C7.87813 10.125 7.625 9.87187 7.625 9.5625V8.4375C7.625 8.12813 7.87813 7.875 8.1875 7.875ZM11 8.4375C11 8.12813 11.2531 7.875 11.5625 7.875H12.6875C12.9969 7.875 13.25 8.12813 13.25 8.4375V9.5625C13.25 9.87187 12.9969 10.125 12.6875 10.125H11.5625C11.2531 10.125 11 9.87187 11 9.5625V8.4375ZM4.8125 3.375H5.9375C6.24687 3.375 6.5 3.62812 6.5 3.9375V5.0625C6.5 5.37187 6.24687 5.625 5.9375 5.625H4.8125C4.50312 5.625 4.25 5.37187 4.25 5.0625V3.9375C4.25 3.62812 4.50312 3.375 4.8125 3.375ZM7.625 3.9375C7.625 3.62812 7.87813 3.375 8.1875 3.375H9.3125C9.62187 3.375 9.875 3.62812 9.875 3.9375V5.0625C9.875 5.37187 9.62187 5.625 9.3125 5.625H8.1875C7.87813 5.625 7.625 5.37187 7.625 5.0625V3.9375ZM11.5625 3.375H12.6875C12.9969 3.375 13.25 3.62812 13.25 3.9375V5.0625C13.25 5.37187 12.9969 5.625 12.6875 5.625H11.5625C11.2531 5.625 11 5.37187 11 5.0625V3.9375C11 3.62812 11.2531 3.375 11.5625 3.375Z" fill="black"/>
</svg>
