<svg width="18" height="18" viewBox="0 0 18 18" fill="none" xmlns="http://www.w3.org/2000/svg">
<g clip-path="url(#clip0_646_1642)">
<path d="M17.8677 14.7321C17.9521 14.8165 17.9999 14.9318 17.9999 15.0246C17.9999 15.4071 17.8565 15.7503 17.6034 16.0034C17.3502 16.2565 17.0071 16.3746 16.6499 16.3746H9.44994C9.09275 16.3746 8.74962 16.2565 8.4965 16.0034C8.24337 15.7503 8.09994 15.4071 8.09994 15.0246C8.09994 14.9318 8.14775 14.8165 8.23212 14.7321C8.3165 14.6478 8.43181 14.5746 8.54994 14.5746H17.5499C17.6681 14.5746 17.7834 14.6478 17.8677 14.7321ZM8.36431 13.4356C8.19556 13.2668 8.09994 13.039 8.09994 12.7746C8.09994 12.5609 8.19556 12.3331 8.36431 12.1643C8.53306 11.9956 8.76087 11.8746 8.99994 11.8746H17.0999C17.339 11.8746 17.5668 11.9956 17.7356 12.1643C17.9043 12.3331 17.9999 12.5609 17.9999 12.7746C17.9999 13.039 17.9043 13.2668 17.7356 13.4356C17.5668 13.6043 17.339 13.6746 17.0999 13.6746H8.99994C8.76087 13.6746 8.53306 13.6043 8.36431 13.4356ZM8.51619 10.8621C8.37556 10.775 8.26306 10.6512 8.18994 10.505C8.11681 10.3587 8.08306 10.1928 8.09712 10.0296C8.10837 9.86652 8.16744 9.70902 8.26306 9.57684C8.834 8.86527 9.56525 8.29715 10.3977 7.91746C11.2274 7.54059 12.1387 7.3634 13.0499 7.37465C13.964 7.3634 14.8724 7.5434 15.7021 7.92027C16.5346 8.29715 17.2659 8.86527 17.8396 9.57684C17.9352 9.70902 17.9943 9.86652 18.0056 10.0325C18.0196 10.1956 17.9859 10.3587 17.9127 10.505C17.8368 10.654 17.7243 10.7778 17.5865 10.8621C17.4459 10.9493 17.2856 10.9971 17.1196 10.9746H8.98025C8.81431 10.9971 8.654 10.9493 8.51619 10.8621ZM14.9821 8.88215C14.8977 8.96652 14.8499 9.08184 14.8499 9.17465C14.8499 9.28996 14.8752 9.37715 14.9259 9.45027C14.9765 9.5234 15.0215 9.58246 15.1284 9.61621C15.2099 9.62465 15.2999 9.6584 15.3871 9.64152C15.4743 9.62465 15.5559 9.57965 15.6177 9.51777C15.6824 9.4559 15.7246 9.37434 15.7415 9.28715C15.7584 9.19996 15.7246 9.10996 15.7162 9.0284C15.6824 8.94402 15.6234 8.87652 15.5502 8.8259C15.4771 8.77527 15.3899 8.72465 15.2999 8.72465C15.1818 8.72465 15.0665 8.79777 14.9821 8.88215ZM12.7321 8.43215C12.6477 8.51652 12.5999 8.63184 12.5999 8.72465C12.5999 8.83996 12.6252 8.92715 12.6759 9.00027C12.7265 9.0734 12.7715 9.13246 12.8784 9.16621C12.9599 9.17465 13.0499 9.2084 13.1371 9.19152C13.2243 9.17465 13.3059 9.12965 13.3677 9.06777C13.4324 9.0059 13.4746 8.92434 13.4915 8.83715C13.5084 8.74996 13.4746 8.65996 13.4662 8.5784C13.4324 8.49402 13.3734 8.42652 13.3002 8.3759C13.2271 8.32527 13.1399 8.27465 13.0499 8.27465C12.9318 8.27465 12.8165 8.34777 12.7321 8.43215ZM10.4821 8.88215C10.3977 8.96652 10.3499 9.08184 10.3499 9.17465C10.3499 9.28996 10.3752 9.37715 10.4259 9.45027C10.4765 9.5234 10.5215 9.58246 10.6284 9.61621C10.7099 9.62465 10.7999 9.6584 10.8871 9.64152C10.9743 9.62465 11.0559 9.57965 11.1177 9.51777C11.1824 9.4559 11.2246 9.37434 11.2415 9.28715C11.2584 9.19996 11.2246 9.10996 11.2162 9.0284C11.1824 8.94402 11.1234 8.87652 11.0502 8.8259C10.9771 8.77527 10.8899 8.72465 10.7999 8.72465C10.6818 8.72465 10.5665 8.79777 10.4821 8.88215Z" fill="black"/>
<path opacity="0.4" d="M7.51781 9.065C7.26469 9.43062 7.155 9.84969 7.21125 10.3137C7.26469 10.7525 7.47563 11.1575 7.8075 11.45C7.6275 11.6075 7.48406 11.8016 7.38 12.0181C7.27594 12.2347 7.21406 12.4681 7.20281 12.7072C7.19156 12.9462 7.22531 13.1853 7.30687 13.4103C7.38844 13.6353 7.515 13.8434 7.65281 14.0206C7.52906 14.1472 7.40812 14.3047 7.32656 14.4819C7.24219 14.6591 7.17469 14.8531 7.17469 15.05C7.17469 15.4972 7.33219 15.9331 7.5825 16.3044C7.46438 16.3634 7.33219 16.3972 7.17469 16.4H2.67469C2.47191 16.4 2.25197 16.2903 2.08491 16.1581C1.91784 16.0034 1.81603 15.7897 1.77469 15.5619L1.08 8.27469H8.19562C7.9425 8.53062 7.71469 8.78656 7.51781 9.065ZM9.76781 5.73219C9.85219 5.81656 9.9 5.93187 9.9 6.05V6.95C9.9 7.06812 9.85219 7.18344 9.76781 7.26781C9.68344 7.35219 9.56812 7.4 9.45 7.4H0.45C0.33075 7.4 0.216197 7.35219 0.131794 7.26781C0.0474187 7.18344 0 7.06812 0 6.95V6.05C0 5.93187 0.0474187 5.81656 0.131794 5.73219C0.216197 5.64781 0.33075 5.6 0.45 5.6H4.42125L5.11312 2.8505C5.17219 2.60722 5.31281 2.39122 5.50969 2.23692C5.70656 2.08274 5.95125 1.9993 6.20156 2H7.65C7.76812 2 7.88344 2.04742 7.96781 2.13182C8.05219 2.2162 8.1 2.33075 8.1 2.45V2.9C8.1 3.01925 8.05219 3.13372 7.96781 3.21809C7.88344 3.30247 7.76812 3.35 7.65 3.35H6.37875L5.81625 5.6H9.45C9.56812 5.6 9.68344 5.64781 9.76781 5.73219Z" fill="black"/>
</g>
<defs>
<clipPath id="clip0_646_1642">
<rect width="18" height="18" fill="white"/>
</clipPath>
</defs>
</svg>
