<svg width="18" height="18" viewBox="0 0 18 18" fill="none" xmlns="http://www.w3.org/2000/svg">
<g clip-path="url(#clip0_646_1638)">
<path d="M12.2822 9.51781C12.1978 9.43344 12.15 9.31812 12.15 9.2C12.15 9.11 12.1753 9.02281 12.2259 8.94969C12.2766 8.87656 12.3216 8.8175 12.4284 8.78375C12.51 8.75 12.6 8.74156 12.6872 8.75844C12.7744 8.77531 12.8559 8.8175 12.9178 8.88219C12.9825 8.94406 13.0247 9.02562 13.0416 9.11281C13.0584 9.17469 13.0247 9.29 13.0163 9.37156C12.9825 9.45312 12.9234 9.52344 12.8503 9.57406C12.7772 9.62469 12.69 9.65 12.6 9.65C12.4819 9.65 12.3666 9.60219 12.2822 9.51781ZM14.5322 9.96781C14.4478 9.88344 14.4 9.76812 14.4 9.65C14.4 9.56 14.4253 9.47281 14.4759 9.39969C14.5266 9.32656 14.5716 9.2675 14.6784 9.23375C14.76 9.2 14.85 9.19156 14.9372 9.20844C15.0244 9.22531 15.1059 9.2675 15.1678 9.33219C15.2325 9.39406 15.2747 9.47563 15.2916 9.56281C15.3084 9.62469 15.2747 9.74 15.2663 9.82156C15.2325 9.90312 15.1734 9.97344 15.1003 10.0241C15.0272 10.0747 14.94 10.1 14.85 10.1C14.7319 10.1 14.6166 10.0522 14.5322 9.96781ZM6.3 15.5C6.41813 15.5 6.53344 15.5478 6.61781 15.6322C6.70219 15.7166 6.75 15.8319 6.75 15.95C6.75 16.0681 6.70219 16.1834 6.61781 16.2678C6.53344 16.3522 6.41813 16.4 6.3 16.4H2.7C2.47134 16.4028 2.25084 16.3156 2.0835 16.1609C1.91616 15.9809 1.81463 15.7897 1.8 15.5619L0.9 6.5H0.45C0.33075 6.5 0.216197 6.45219 0.131794 6.36781C0.0474188 6.28344 0 6.16812 0 6.05C0 5.93187 0.0474188 5.81656 0.131794 5.73219C0.216197 5.64781 0.33075 5.6 0.45 5.6H5.04844L5.77969 2.68231C5.8275 2.48712 5.93719 2.31387 6.0975 2.19027C6.255 2.06652 6.44906 1.99952 6.64875 2H7.65C7.76813 2 7.88344 2.04742 7.96781 2.13179C8.05219 2.2162 8.1 2.33075 8.1 2.45C8.1 2.56925 8.05219 2.68372 7.96781 2.76809C7.88344 2.85247 7.76813 2.9 7.65 2.9H6.64875L5.97375 5.6H9.45C9.56813 5.6 9.68344 5.64781 9.76781 5.73219C9.85219 5.81656 9.9 5.93187 9.9 6.05C9.9 6.16812 9.85219 6.28344 9.76781 6.36781C9.68344 6.45219 9.56813 6.5 9.45 6.5H1.8L2.7 15.4747L6.30844 15.5H6.3ZM10.0322 9.96781C9.94781 9.88344 9.9 9.76812 9.9 9.65C9.9 9.56 9.92531 9.47281 9.97594 9.39969C10.0266 9.32656 10.0716 9.2675 10.1784 9.23375C10.26 9.2 10.35 9.19156 10.4372 9.20844C10.5244 9.22531 10.6059 9.2675 10.6678 9.33219C10.7325 9.39406 10.7747 9.47563 10.7916 9.56281C10.8084 9.62469 10.7747 9.74 10.7662 9.82156C10.7325 9.90312 10.6734 9.97344 10.6003 10.0241C10.5272 10.0747 10.44 10.1 10.35 10.1C10.2319 10.1 10.1166 10.0522 10.0322 9.96781ZM17.55 13.6803C17.55 13.6859 17.55 13.6944 17.55 13.7V14.9375C17.5247 15.3256 17.3953 15.6969 17.1225 15.9725C16.8469 16.2453 16.4756 16.3747 16.0875 16.4H9.1125C8.72437 16.3747 8.32781 16.2453 8.0775 15.9725C7.80469 15.6969 7.65 15.3256 7.65 14.9375V13.7C7.65 13.6944 7.65281 13.6859 7.65563 13.6803C7.36313 13.385 7.2 12.9884 7.2 12.575C7.2 12.1616 7.36313 11.765 7.65563 11.4697C7.65281 11.4641 7.65 11.4556 7.65 11.45V10.325C7.65562 9.97344 7.70906 9.6275 7.87781 9.30969C8.01844 8.98906 8.22656 8.69937 8.4825 8.46031C9.63281 7.48719 11.0925 6.95281 12.6 6.95281C14.1075 6.95281 15.5672 7.48719 16.7175 8.46031C16.9734 8.69937 17.1816 8.98906 17.3222 9.30969C17.4656 9.6275 17.5444 9.97344 17.55 10.325V11.45C17.55 11.4556 17.55 11.4641 17.55 11.4697C17.8397 11.765 18.0028 12.1616 18 12.575C18.0028 12.9884 17.8397 13.385 17.55 13.6803ZM8.55 11.0225C8.62313 11.0084 8.69906 11.0028 8.775 11H16.425C16.5009 11.0028 16.5769 11.0084 16.65 11.0225V10.325C16.6444 10.0916 16.5881 9.86375 16.4925 9.65281C16.3941 9.44187 16.2309 9.25344 16.0819 9.09875C14.355 7.37469 10.6903 7.50125 9.11813 9.09875C8.94375 9.25344 8.80594 9.44187 8.7075 9.65281C8.60906 9.86375 8.55562 10.0916 8.55 10.325V11.0225ZM16.65 14.1275C16.5769 14.1416 16.5009 14.1472 16.425 14.15H8.775C8.69906 14.1472 8.62313 14.1416 8.55 14.1275V14.9375C8.55 15.0866 8.60906 15.23 8.71594 15.3341C8.82 15.4409 8.96344 15.5 9.1125 15.5H16.0875C16.2366 15.5 16.38 15.4409 16.4841 15.3341C16.5909 15.23 16.65 15.0866 16.65 14.9375V14.1275ZM16.8778 13.0278C17.0297 12.9266 17.1 12.755 17.1 12.575C17.1 12.395 17.0297 12.2234 16.8778 12.0969C16.7766 11.9703 16.605 11.9 16.425 11.9H8.775C8.595 11.9 8.42344 11.9703 8.29688 12.0969C8.17031 12.2234 8.1 12.395 8.1 12.575C8.1 12.755 8.17031 12.9266 8.29688 13.0278C8.42344 13.1797 8.595 13.25 8.775 13.25H16.425C16.605 13.25 16.7766 13.1797 16.8778 13.0278Z" fill="black"/>
</g>
<defs>
<clipPath id="clip0_646_1638">
<rect width="18" height="18" fill="white"/>
</clipPath>
</defs>
</svg>
