<svg width="18" height="18" viewBox="0 0 18 18" fill="none" xmlns="http://www.w3.org/2000/svg">
<g clip-path="url(#clip0_5810_9091)">
<path d="M9 2C5.31563 2 3.5375 3.19375 3.0375 3.8125C3.025 3.82812 3 3.87188 3 3.97187V5H15V3.975C15 3.87812 14.975 3.82187 14.9594 3.8C14.4969 3.19062 12.9625 2 9 2ZM3 9H8.5V6H3V9ZM9.5 9H15V6H9.5V9ZM3 13C3 13.5531 3.44688 14 4 14H11.475H14C14.5531 14 15 13.5531 15 13V10H3V13ZM2.25938 3.18438C3.01562 2.25313 5.13125 1 9 1C13.1438 1 15.0375 2.25 15.7563 3.19375C15.9438 3.44062 16 3.73125 16 3.975V13C16 13.7406 15.5969 14.3875 15 14.7312V16.5C15 16.775 14.775 17 14.5 17C14.225 17 14 16.775 14 16.5V15H11.475H4V16.5C4 16.775 3.775 17 3.5 17C3.225 17 3 16.775 3 16.5V14.7312C2.40313 14.3875 2 13.7406 2 13V3.975C2 3.73438 2.05625 3.4375 2.25938 3.18438ZM4.25 12C4.25 11.8011 4.32902 11.6103 4.46967 11.4697C4.61032 11.329 4.80109 11.25 5 11.25C5.19891 11.25 5.38968 11.329 5.53033 11.4697C5.67098 11.6103 5.75 11.8011 5.75 12C5.75 12.1989 5.67098 12.3897 5.53033 12.5303C5.38968 12.671 5.19891 12.75 5 12.75C4.80109 12.75 4.61032 12.671 4.46967 12.5303C4.32902 12.3897 4.25 12.1989 4.25 12ZM13 11.25C13.1989 11.25 13.3897 11.329 13.5303 11.4697C13.671 11.6103 13.75 11.8011 13.75 12C13.75 12.1989 13.671 12.3897 13.5303 12.5303C13.3897 12.671 13.1989 12.75 13 12.75C12.8011 12.75 12.6103 12.671 12.4697 12.5303C12.329 12.3897 12.25 12.1989 12.25 12C12.25 11.8011 12.329 11.6103 12.4697 11.4697C12.6103 11.329 12.8011 11.25 13 11.25ZM7.5 3H10.5C10.775 3 11 3.225 11 3.5C11 3.775 10.775 4 10.5 4H7.5C7.225 4 7 3.775 7 3.5C7 3.225 7.225 3 7.5 3ZM1 5.5V8.5C1 8.775 0.775 9 0.5 9C0.225 9 0 8.775 0 8.5V5.5C0 5.225 0.225 5 0.5 5C0.775 5 1 5.225 1 5.5ZM18 5.5V8.5C18 8.775 17.775 9 17.5 9C17.225 9 17 8.775 17 8.5V5.5C17 5.225 17.225 5 17.5 5C17.775 5 18 5.225 18 5.5Z" fill="black"/>
</g>
<defs>
<clipPath id="clip0_5810_9091">
<rect width="18" height="16" fill="white" transform="translate(0 1)"/>
</clipPath>
</defs>
</svg>
