<svg width="18" height="18" viewBox="0 0 18 18" fill="none" xmlns="http://www.w3.org/2000/svg">
<path d="M9 1C13.2 1 16 2.1 16 3.5V4V5C16.5531 5 17 5.44688 17 6V8C17 8.55312 16.5531 9 16 9V14C16 14.5531 15.5531 15 15 15V16C15 16.5531 14.5531 17 14 17H13C12.4469 17 12 16.5531 12 16V15H6V16C6 16.5531 5.55312 17 5 17H4C3.44688 17 3 16.5531 3 16V15C2.44687 15 2 14.5531 2 14V9C1.44687 9 1 8.55312 1 8V6C1 5.44688 1.44687 5 2 5V4V3.5C2 2.1 4.8 1 9 1ZM4 6V9C4 9.55313 4.44688 10 5 10H8.5V5H5C4.44688 5 4 5.44688 4 6ZM9.5 10H13C13.5531 10 14 9.55313 14 9V6C14 5.44688 13.5531 5 13 5H9.5V10ZM4.5 13.5C4.76522 13.5 5.01957 13.3946 5.20711 13.2071C5.39464 13.0196 5.5 12.7652 5.5 12.5C5.5 12.2348 5.39464 11.9804 5.20711 11.7929C5.01957 11.6054 4.76522 11.5 4.5 11.5C4.23478 11.5 3.98043 11.6054 3.79289 11.7929C3.60536 11.9804 3.5 12.2348 3.5 12.5C3.5 12.7652 3.60536 13.0196 3.79289 13.2071C3.98043 13.3946 4.23478 13.5 4.5 13.5ZM13.5 13.5C13.7652 13.5 14.0196 13.3946 14.2071 13.2071C14.3946 13.0196 14.5 12.7652 14.5 12.5C14.5 12.2348 14.3946 11.9804 14.2071 11.7929C14.0196 11.6054 13.7652 11.5 13.5 11.5C13.2348 11.5 12.9804 11.6054 12.7929 11.7929C12.6054 11.9804 12.5 12.2348 12.5 12.5C12.5 12.7652 12.6054 13.0196 12.7929 13.2071C12.9804 13.3946 13.2348 13.5 13.5 13.5ZM12 3.5C12 3.225 11.775 3 11.5 3H6.5C6.225 3 6 3.225 6 3.5C6 3.775 6.225 4 6.5 4H11.5C11.775 4 12 3.775 12 3.5Z" fill="black"/>
</svg>
