<svg width="18" height="18" viewBox="0 0 18 18" fill="none" xmlns="http://www.w3.org/2000/svg">
<path d="M4.25 0C3.00898 0 2 1.00898 2 2.25V15.75C2 16.991 3.00898 18 4.25 18H13.25C14.491 18 15.5 16.991 15.5 15.75V2.25C15.5 1.00898 14.491 0 13.25 0H4.25ZM5.375 2.25H12.125C12.7473 2.25 13.25 2.75273 13.25 3.375V4.5C13.25 5.12227 12.7473 5.625 12.125 5.625H5.375C4.75273 5.625 4.25 5.12227 4.25 4.5V3.375C4.25 2.75273 4.75273 2.25 5.375 2.25ZM6.5 7.875C6.5 8.17337 6.38147 8.45952 6.1705 8.6705C5.95952 8.88147 5.67337 9 5.375 9C5.07663 9 4.79048 8.88147 4.5795 8.6705C4.36853 8.45952 4.25 8.17337 4.25 7.875C4.25 7.57663 4.36853 7.29048 4.5795 7.0795C4.79048 6.86853 5.07663 6.75 5.375 6.75C5.67337 6.75 5.95952 6.86853 6.1705 7.0795C6.38147 7.29048 6.5 7.57663 6.5 7.875ZM5.375 12.375C5.07663 12.375 4.79048 12.2565 4.5795 12.0455C4.36853 11.8345 4.25 11.5484 4.25 11.25C4.25 10.9516 4.36853 10.6655 4.5795 10.4545C4.79048 10.2435 5.07663 10.125 5.375 10.125C5.67337 10.125 5.95952 10.2435 6.1705 10.4545C6.38147 10.6655 6.5 10.9516 6.5 11.25C6.5 11.5484 6.38147 11.8345 6.1705 12.0455C5.95952 12.2565 5.67337 12.375 5.375 12.375ZM4.25 14.625C4.25 14.0027 4.75273 13.5 5.375 13.5H8.75C9.37227 13.5 9.875 14.0027 9.875 14.625C9.875 15.2473 9.37227 15.75 8.75 15.75H5.375C4.75273 15.75 4.25 15.2473 4.25 14.625ZM8.75 9C8.45163 9 8.16548 8.88147 7.9545 8.6705C7.74353 8.45952 7.625 8.17337 7.625 7.875C7.625 7.57663 7.74353 7.29048 7.9545 7.0795C8.16548 6.86853 8.45163 6.75 8.75 6.75C9.04837 6.75 9.33452 6.86853 9.5455 7.0795C9.75647 7.29048 9.875 7.57663 9.875 7.875C9.875 8.17337 9.75647 8.45952 9.5455 8.6705C9.33452 8.88147 9.04837 9 8.75 9ZM9.875 11.25C9.875 11.5484 9.75647 11.8345 9.5455 12.0455C9.33452 12.2565 9.04837 12.375 8.75 12.375C8.45163 12.375 8.16548 12.2565 7.9545 12.0455C7.74353 11.8345 7.625 11.5484 7.625 11.25C7.625 10.9516 7.74353 10.6655 7.9545 10.4545C8.16548 10.2435 8.45163 10.125 8.75 10.125C9.04837 10.125 9.33452 10.2435 9.5455 10.4545C9.75647 10.6655 9.875 10.9516 9.875 11.25ZM12.125 9C11.8266 9 11.5405 8.88147 11.3295 8.6705C11.1185 8.45952 11 8.17337 11 7.875C11 7.57663 11.1185 7.29048 11.3295 7.0795C11.5405 6.86853 11.8266 6.75 12.125 6.75C12.4234 6.75 12.7095 6.86853 12.9205 7.0795C13.1315 7.29048 13.25 7.57663 13.25 7.875C13.25 8.17337 13.1315 8.45952 12.9205 8.6705C12.7095 8.88147 12.4234 9 12.125 9ZM13.25 11.25C13.25 11.5484 13.1315 11.8345 12.9205 12.0455C12.7095 12.2565 12.4234 12.375 12.125 12.375C11.8266 12.375 11.5405 12.2565 11.3295 12.0455C11.1185 11.8345 11 11.5484 11 11.25C11 10.9516 11.1185 10.6655 11.3295 10.4545C11.5405 10.2435 11.8266 10.125 12.125 10.125C12.4234 10.125 12.7095 10.2435 12.9205 10.4545C13.1315 10.6655 13.25 10.9516 13.25 11.25ZM12.125 15.75C11.8266 15.75 11.5405 15.6315 11.3295 15.4205C11.1185 15.2095 11 14.9234 11 14.625C11 14.3266 11.1185 14.0405 11.3295 13.8295C11.5405 13.6185 11.8266 13.5 12.125 13.5C12.4234 13.5 12.7095 13.6185 12.9205 13.8295C13.1315 14.0405 13.25 14.3266 13.25 14.625C13.25 14.9234 13.1315 15.2095 12.9205 15.4205C12.7095 15.6315 12.4234 15.75 12.125 15.75Z" fill="black"/>
</svg>
