<svg width="18" height="18" viewBox="0 0 18 18" fill="none" xmlns="http://www.w3.org/2000/svg">
<path d="M13.25 0H4.25C3.00758 0 2 1.00758 2 2.25V15.75C2 16.9924 3.00758 18 4.25 18H13.25C14.4924 18 15.5 16.9924 15.5 15.75V2.25C15.5 1.00758 14.491 0 13.25 0ZM14.375 15.75C14.375 16.3702 13.8702 16.875 13.25 16.875H4.25C3.62984 16.875 3.125 16.3702 3.125 15.75V5.625H14.375V15.75ZM14.375 4.5H3.125V2.25C3.125 1.62984 3.62984 1.125 4.25 1.125H13.25C13.8702 1.125 14.375 1.62984 14.375 2.25V4.5ZM4.8125 15.1875H9.3125C9.62342 15.1875 9.875 14.9359 9.875 14.625C9.875 14.3141 9.62342 14.0625 9.3125 14.0625H4.8125C4.50172 14.0625 4.25 14.3156 4.25 14.625C4.25 14.9344 4.50172 15.1875 4.8125 15.1875ZM12.125 15.4688C12.5908 15.4688 12.9688 15.0908 12.9688 14.625C12.9688 14.1592 12.5908 13.7812 12.125 13.7812C11.6592 13.7812 11.2812 14.1592 11.2812 14.625C11.2812 15.0908 11.6574 15.4688 12.125 15.4688ZM12.125 12.0938C12.5908 12.0938 12.9688 11.7158 12.9688 11.25C12.9688 10.7842 12.5926 10.4062 12.125 10.4062C11.6574 10.4062 11.2812 10.7824 11.2812 11.25C11.2812 11.7176 11.6574 12.0938 12.125 12.0938ZM12.125 8.71875C12.5908 8.71875 12.9688 8.34082 12.9688 7.875C12.9688 7.40918 12.5926 7.03125 12.125 7.03125C11.6574 7.03125 11.2812 7.40742 11.2812 7.875C11.2812 8.34258 11.6574 8.71875 12.125 8.71875ZM8.75 12.0938C9.21582 12.0938 9.59375 11.7158 9.59375 11.25C9.59375 10.7842 9.21758 10.4062 8.75 10.4062C8.28242 10.4062 7.90625 10.7824 7.90625 11.25C7.90625 11.7176 8.28242 12.0938 8.75 12.0938ZM8.75 8.71875C9.21582 8.71875 9.59375 8.34082 9.59375 7.875C9.59375 7.40918 9.21758 7.03125 8.75 7.03125C8.28242 7.03125 7.90625 7.40742 7.90625 7.875C7.90625 8.34258 8.28242 8.71875 8.75 8.71875ZM5.375 12.0938C5.84082 12.0938 6.21875 11.7158 6.21875 11.25C6.21875 10.7842 5.84258 10.4062 5.375 10.4062C4.90742 10.4062 4.53125 10.7824 4.53125 11.25C4.53125 11.7176 4.90918 12.0938 5.375 12.0938ZM5.375 8.71875C5.84082 8.71875 6.21875 8.34082 6.21875 7.875C6.21875 7.40918 5.84258 7.03125 5.375 7.03125C4.90742 7.03125 4.53125 7.40742 4.53125 7.875C4.53125 8.34258 4.90918 8.71875 5.375 8.71875Z" fill="black"/>
</svg>
