<svg width="18" height="18" viewBox="0 0 18 18" fill="none" xmlns="http://www.w3.org/2000/svg">
<path d="M4.9375 0C5.24687 0 5.5 0.251859 5.5 0.5625V2.25H12.25V0.5625C12.25 0.251859 12.5031 0 12.8125 0C13.1219 0 13.375 0.251859 13.375 0.5625V2.25H14.5C15.741 2.25 16.75 3.25723 16.75 4.5V15.75C16.75 16.991 15.741 18 14.5 18H3.25C2.00723 18 1 16.991 1 15.75V4.5C1 3.25723 2.00723 2.25 3.25 2.25H4.375V0.5625C4.375 0.251859 4.62812 0 4.9375 0ZM15.625 6.75H2.125V15.75C2.125 16.3723 2.62879 16.875 3.25 16.875H14.5C15.1223 16.875 15.625 16.3723 15.625 15.75V6.75ZM14.5 3.375H3.25C2.62879 3.375 2.125 3.87773 2.125 4.5V5.625H15.625V4.5C15.625 3.87773 15.1223 3.375 14.5 3.375Z" fill="black"/>
</svg>
