<svg width="16" height="18" viewBox="0 0 16 18" fill="none" xmlns="http://www.w3.org/2000/svg">
<path d="M4.875 1C5.42812 1 5.875 1.44687 5.875 2V3H9.875V2C9.875 1.44687 10.3219 1 10.875 1C11.4281 1 11.875 1.44687 11.875 2V3H13.375C14.2031 3 14.875 3.67188 14.875 4.5V6H0.875V4.5C0.875 3.67188 1.54688 3 2.375 3H3.875V2C3.875 1.44687 4.32188 1 4.875 1ZM0.875 7H14.875V15.5C14.875 16.3281 14.2031 17 13.375 17H2.375C1.54688 17 0.875 16.3281 0.875 15.5V7ZM2.875 9.5V10.5C2.875 10.775 3.1 11 3.375 11H4.375C4.65 11 4.875 10.775 4.875 10.5V9.5C4.875 9.225 4.65 9 4.375 9H3.375C3.1 9 2.875 9.225 2.875 9.5ZM6.875 9.5V10.5C6.875 10.775 7.1 11 7.375 11H8.375C8.65 11 8.875 10.775 8.875 10.5V9.5C8.875 9.225 8.65 9 8.375 9H7.375C7.1 9 6.875 9.225 6.875 9.5ZM11.375 9C11.1 9 10.875 9.225 10.875 9.5V10.5C10.875 10.775 11.1 11 11.375 11H12.375C12.65 11 12.875 10.775 12.875 10.5V9.5C12.875 9.225 12.65 9 12.375 9H11.375ZM2.875 13.5V14.5C2.875 14.775 3.1 15 3.375 15H4.375C4.65 15 4.875 14.775 4.875 14.5V13.5C4.875 13.225 4.65 13 4.375 13H3.375C3.1 13 2.875 13.225 2.875 13.5ZM7.375 13C7.1 13 6.875 13.225 6.875 13.5V14.5C6.875 14.775 7.1 15 7.375 15H8.375C8.65 15 8.875 14.775 8.875 14.5V13.5C8.875 13.225 8.65 13 8.375 13H7.375ZM10.875 13.5V14.5C10.875 14.775 11.1 15 11.375 15H12.375C12.65 15 12.875 14.775 12.875 14.5V13.5C12.875 13.225 12.65 13 12.375 13H11.375C11.1 13 10.875 13.225 10.875 13.5Z" fill="black"/>
</svg>
