<svg width="18" height="18" viewBox="0 0 18 18" fill="none" xmlns="http://www.w3.org/2000/svg">
<path d="M6 1.5C6 1.225 5.775 1 5.5 1C5.225 1 5 1.225 5 1.5V3H4C2.89688 3 2 3.89687 2 5V6V7V15C2 16.1031 2.89688 17 4 17H14C15.1031 17 16 16.1031 16 15V7V6V5C16 3.89687 15.1031 3 14 3H13V1.5C13 1.225 12.775 1 12.5 1C12.225 1 12 1.225 12 1.5V3H6V1.5ZM3 7H15V15C15 15.5531 14.5531 16 14 16H4C3.44687 16 3 15.5531 3 15V7ZM4 4H14C14.5531 4 15 4.44688 15 5V6H3V5C3 4.44688 3.44687 4 4 4ZM5.25 9H7.75C7.8875 9 8 9.1125 8 9.25V11.75C8 11.8875 7.8875 12 7.75 12H5.25C5.1125 12 5 11.8875 5 11.75V9.25C5 9.1125 5.1125 9 5.25 9ZM4 9.25V11.75C4 12.4406 4.55938 13 5.25 13H7.75C8.44063 13 9 12.4406 9 11.75V9.25C9 8.55937 8.44063 8 7.75 8H5.25C4.55938 8 4 8.55937 4 9.25Z" fill="black"/>
</svg>
