<svg width="18" height="18" viewBox="0 0 18 18" fill="none" xmlns="http://www.w3.org/2000/svg">
<path d="M6 1C6.55312 1 7 1.44687 7 2V3H11V2C11 1.44687 11.4469 1 12 1C12.5531 1 13 1.44687 13 2V3H14.5C15.3281 3 16 3.67188 16 4.5V6H2V4.5C2 3.67188 2.67188 3 3.5 3H5V2C5 1.44687 5.44688 1 6 1ZM2 7H16V15.5C16 16.3281 15.3281 17 14.5 17H3.5C2.67188 17 2 16.3281 2 15.5V7ZM4.5 9C4.225 9 4 9.225 4 9.5V12.5C4 12.775 4.225 13 4.5 13H7.5C7.775 13 8 12.775 8 12.5V9.5C8 9.225 7.775 9 7.5 9H4.5Z" fill="black"/>
</svg>
