<svg width="16" height="18" viewBox="0 0 16 18" fill="none" xmlns="http://www.w3.org/2000/svg">
<path d="M4.375 1C4.65 1 4.875 1.225 4.875 1.5V3H10.875V1.5C10.875 1.225 11.1 1 11.375 1C11.65 1 11.875 1.225 11.875 1.5V3H12.875C13.9781 3 14.875 3.89687 14.875 5V6V7V15C14.875 16.1031 13.9781 17 12.875 17H2.875C1.77188 17 0.875 16.1031 0.875 15V7V6V5C0.875 3.89687 1.77188 3 2.875 3H3.875V1.5C3.875 1.225 4.1 1 4.375 1ZM13.875 7H10.625V9.25H13.875V7ZM13.875 10.25H10.625V12.75H13.875V10.25ZM13.875 13.75H10.625V16H12.875C13.4281 16 13.875 15.5531 13.875 15V13.75ZM9.625 12.75V10.25H6.125V12.75H9.625ZM6.125 13.75V16H9.625V13.75H6.125ZM5.125 12.75V10.25H1.875V12.75H5.125ZM1.875 13.75V15C1.875 15.5531 2.32187 16 2.875 16H5.125V13.75H1.875ZM1.875 9.25H5.125V7H1.875V9.25ZM6.125 9.25H9.625V7H6.125V9.25ZM12.875 4H2.875C2.32187 4 1.875 4.44688 1.875 5V6H13.875V5C13.875 4.44688 13.4281 4 12.875 4Z" fill="black"/>
</svg>
