<svg width="18" height="18" viewBox="0 0 18 18" fill="none" xmlns="http://www.w3.org/2000/svg">
<path d="M6.34375 2.25H11.4062V0.84375C11.4062 0.37793 11.7824 0 12.25 0C12.7176 0 13.0938 0.37793 13.0938 0.84375V2.25H14.5C15.741 2.25 16.75 3.25723 16.75 4.5V15.75C16.75 16.991 15.741 18 14.5 18H3.25C2.00723 18 1 16.991 1 15.75V4.5C1 3.25723 2.00723 2.25 3.25 2.25H4.65625V0.84375C4.65625 0.37793 5.03242 0 5.5 0C5.96758 0 6.34375 0.37793 6.34375 0.84375V2.25ZM2.6875 15.75C2.6875 16.0594 2.93922 16.3125 3.25 16.3125H14.5C14.8094 16.3125 15.0625 16.0594 15.0625 15.75V6.75H2.6875V15.75Z" fill="black"/>
</svg>
