<svg width="18" height="18" viewBox="0 0 18 18" fill="none" xmlns="http://www.w3.org/2000/svg">
<path d="M6.71836 1C5.99063 1 5.34727 1.46406 5.11875 2.15313L4.74961 3.25H2.25C1.00898 3.25 0 4.25898 0 5.5V14.5C0 15.741 1.00898 16.75 2.25 16.75H15.75C16.991 16.75 18 15.741 18 14.5V5.5C18 4.25898 16.991 3.25 15.75 3.25H13.2504L12.8848 2.15313C12.6527 1.46406 12.0094 1 11.2816 1H6.71836ZM6.18398 2.5082C6.26133 2.27969 6.47578 2.125 6.71836 2.125H11.2816C11.5242 2.125 11.7387 2.27969 11.816 2.5082L12.3082 3.98828C12.3855 4.2168 12.6 4.37148 12.8426 4.37148H15.75C16.3723 4.37148 16.875 4.87422 16.875 5.49648V14.5C16.875 15.1223 16.3723 15.625 15.75 15.625H2.25C1.62773 15.625 1.125 15.1223 1.125 14.5V5.5C1.125 4.87773 1.62773 4.375 2.25 4.375H5.15742C5.4 4.375 5.61445 4.22031 5.6918 3.9918L6.18398 2.51172V2.5082ZM12.375 9.4375C12.6844 9.4375 12.9375 9.18437 12.9375 8.875V6.625C12.9375 6.31563 12.6844 6.0625 12.375 6.0625C12.0656 6.0625 11.8125 6.31563 11.8125 6.625V7.51797L11.3168 7.02227C10.7051 6.40703 9.86836 6.0625 9 6.0625C7.62891 6.0625 6.42305 6.76211 5.71992 7.82383C5.54766 8.08398 5.61797 8.43203 5.87812 8.6043C6.13828 8.77656 6.48633 8.70625 6.65859 8.44609C7.16133 7.68672 8.02266 7.1875 9 7.1875C9.56953 7.1875 10.118 7.41602 10.5223 7.8168L11.018 8.3125H10.125C9.81563 8.3125 9.5625 8.56563 9.5625 8.875C9.5625 9.18437 9.81563 9.4375 10.125 9.4375H12.375ZM5.625 10.5625C5.31563 10.5625 5.0625 10.8156 5.0625 11.125V13.375C5.0625 13.6844 5.31563 13.9375 5.625 13.9375C5.93437 13.9375 6.1875 13.6844 6.1875 13.375V12.482L6.6832 12.9777C7.29492 13.593 8.13164 13.9375 9 13.9375C10.3711 13.9375 11.577 13.2379 12.2801 12.1762C12.4523 11.916 12.382 11.568 12.1219 11.3957C11.8617 11.2234 11.5137 11.2938 11.3414 11.5539C10.8387 12.3133 9.97734 12.8125 9 12.8125C8.43047 12.8125 7.88203 12.584 7.47773 12.1832L6.98203 11.6875H7.875C8.18437 11.6875 8.4375 11.4344 8.4375 11.125C8.4375 10.8156 8.18437 10.5625 7.875 10.5625H5.625Z" fill="black"/>
</svg>
