<svg width="18" height="18" viewBox="0 0 18 18" fill="none" xmlns="http://www.w3.org/2000/svg">
<path d="M5.2418 2.27813L4.87617 3.375H2.25C1.00898 3.375 0 4.38398 0 5.625V14.625C0 15.866 1.00898 16.875 2.25 16.875H15.75C16.991 16.875 18 15.866 18 14.625V5.625C18 4.38398 16.991 3.375 15.75 3.375H13.1238L12.7582 2.27813C12.5297 1.58906 11.8863 1.125 11.1586 1.125H6.84141C6.11367 1.125 5.47031 1.58906 5.2418 2.27813ZM9 6.75C9.89511 6.75 10.7536 7.10558 11.3865 7.73851C12.0194 8.37145 12.375 9.22989 12.375 10.125C12.375 11.0201 12.0194 11.8786 11.3865 12.5115C10.7536 13.1444 9.89511 13.5 9 13.5C8.10489 13.5 7.24645 13.1444 6.61351 12.5115C5.98058 11.8786 5.625 11.0201 5.625 10.125C5.625 9.22989 5.98058 8.37145 6.61351 7.73851C7.24645 7.10558 8.10489 6.75 9 6.75Z" fill="black"/>
</svg>
