<svg width="18" height="18" viewBox="0 0 18 18" fill="none" xmlns="http://www.w3.org/2000/svg">
<path d="M5.2418 2.15313L4.87617 3.25H2.25C1.00898 3.25 0 4.25898 0 5.5V14.5C0 15.741 1.00898 16.75 2.25 16.75H15.75C16.991 16.75 18 15.741 18 14.5V5.5C18 4.25898 16.991 3.25 15.75 3.25H13.1238L12.7582 2.15313C12.5297 1.46406 11.8863 1 11.1586 1H6.84141C6.11367 1 5.47031 1.46406 5.2418 2.15313ZM13.5 8.875C13.5 9.18437 13.2469 9.4375 12.9375 9.4375H10.241C10.023 9.4375 9.84375 9.2582 9.84375 9.04023C9.84375 8.93477 9.88594 8.83281 9.95977 8.75898L10.793 7.92578C10.3148 7.45469 9.67148 7.1875 9 7.1875C8.325 7.1875 7.67461 7.45469 7.19648 7.93633L6.50391 8.62891C6.17344 8.95937 5.63906 8.95937 5.31211 8.62891C4.98516 8.29844 4.98164 7.76406 5.31211 7.43711L6.00469 6.74453C6.79922 5.94648 7.875 5.5 9 5.5C10.118 5.5 11.1938 5.94297 11.9883 6.73047L12.8215 5.89727C12.8953 5.82344 12.9973 5.78125 13.1027 5.78125C13.3207 5.78125 13.5 5.96055 13.5 6.17852V8.875ZM4.5 11.125C4.5 10.8156 4.75313 10.5625 5.0625 10.5625H7.75898C7.97695 10.5625 8.15625 10.7418 8.15625 10.9598C8.15625 11.0652 8.11406 11.1672 8.04023 11.241L7.20703 12.0742C7.68516 12.5453 8.32852 12.8125 9 12.8125C9.675 12.8125 10.3254 12.5453 10.8035 12.0637L11.4961 11.3711C11.8266 11.0406 12.3609 11.0406 12.6879 11.3711C13.0148 11.7016 13.0184 12.2359 12.6879 12.5629L11.9953 13.2555C11.2008 14.0535 10.125 14.5 9 14.5C7.88203 14.5 6.80625 14.057 6.01172 13.2695L5.17852 14.1027C5.10469 14.1766 5.00273 14.2188 4.89727 14.2188C4.6793 14.2188 4.5 14.0395 4.5 13.8215V11.125Z" fill="black"/>
</svg>
