<svg width="18" height="18" viewBox="0 0 18 18" fill="none" xmlns="http://www.w3.org/2000/svg">
<path d="M6.71836 1.125C5.99063 1.125 5.34727 1.58906 5.11875 2.27813L4.74961 3.375H2.25C1.00898 3.375 0 4.38398 0 5.625V14.625C0 15.866 1.00898 16.875 2.25 16.875H15.75C16.991 16.875 18 15.866 18 14.625V5.625C18 4.38398 16.991 3.375 15.75 3.375H13.2504L12.8848 2.27813C12.6527 1.58906 12.0094 1.125 11.2816 1.125H6.71836ZM6.18398 2.6332C6.26133 2.40469 6.47578 2.25 6.71836 2.25H11.2816C11.5242 2.25 11.7387 2.40469 11.816 2.6332L12.3082 4.11328C12.3855 4.3418 12.6 4.49648 12.8426 4.49648H15.75C16.3723 4.49648 16.875 4.99922 16.875 5.62148V14.625C16.875 15.2473 16.3723 15.75 15.75 15.75H2.25C1.62773 15.75 1.125 15.2473 1.125 14.625V5.625C1.125 5.00273 1.62773 4.5 2.25 4.5H5.15742C5.4 4.5 5.61445 4.34531 5.6918 4.1168L6.18398 2.63672V2.6332ZM9 14.0625C9.51708 14.0625 10.0291 13.9607 10.5068 13.7628C10.9845 13.5649 11.4186 13.2749 11.7842 12.9092C12.1499 12.5436 12.4399 12.1095 12.6378 11.6318C12.8357 11.1541 12.9375 10.6421 12.9375 10.125C12.9375 9.60792 12.8357 9.0959 12.6378 8.61818C12.4399 8.14046 12.1499 7.7064 11.7842 7.34077C11.4186 6.97514 10.9845 6.6851 10.5068 6.48722C10.0291 6.28935 9.51708 6.1875 9 6.1875C8.48292 6.1875 7.9709 6.28935 7.49318 6.48722C7.01546 6.6851 6.5814 6.97514 6.21577 7.34077C5.85014 7.7064 5.5601 8.14046 5.36222 8.61818C5.16435 9.0959 5.0625 9.60792 5.0625 10.125C5.0625 10.6421 5.16435 11.1541 5.36222 11.6318C5.5601 12.1095 5.85014 12.5436 6.21577 12.9092C6.5814 13.2749 7.01546 13.5649 7.49318 13.7628C7.9709 13.9607 8.48292 14.0625 9 14.0625ZM6.1875 10.125C6.1875 9.37908 6.48382 8.66371 7.01126 8.13626C7.53871 7.60882 8.25408 7.3125 9 7.3125C9.74592 7.3125 10.4613 7.60882 10.9887 8.13626C11.5162 8.66371 11.8125 9.37908 11.8125 10.125C11.8125 10.8709 11.5162 11.5863 10.9887 12.1137C10.4613 12.6412 9.74592 12.9375 9 12.9375C8.25408 12.9375 7.53871 12.6412 7.01126 12.1137C6.48382 11.5863 6.1875 10.8709 6.1875 10.125Z" fill="black"/>
</svg>
