<svg width="18" height="18" viewBox="0 0 18 18" fill="none" xmlns="http://www.w3.org/2000/svg">
<path d="M4.81781 3.59995H6.3V4.04995V6.74995V7.19995H2.46375L3.56344 4.44933C3.77156 3.93464 4.26656 3.59995 4.81781 3.59995ZM7.2 7.19995V6.74995V4.04995V3.59995H9.93375C10.3444 3.59995 10.7325 3.78558 10.9884 4.1062L13.4634 7.19995H7.2ZM14.6222 7.20558L11.6916 3.5437C11.2641 3.00933 10.6172 2.69995 9.93375 2.69995H4.81781C3.89812 2.69995 3.07125 3.25964 2.72812 4.11464L1.485 7.22808C0.64125 7.37714 0 8.11401 0 8.99995V12.15C0 12.6478 0.402187 13.05 0.9 13.05H1.83656C2.05031 14.3268 3.16125 15.3 4.5 15.3C5.83875 15.3 6.94969 14.3268 7.16344 13.05H10.8366C11.0503 14.3268 12.1613 15.3 13.5 15.3C14.8387 15.3 15.9497 14.3268 16.1634 13.05H17.1C17.5978 13.05 18 12.6478 18 12.15V10.8C18 8.88745 16.5066 7.32089 14.6222 7.20558ZM15.2437 13.05C15.0441 13.8262 14.3381 14.4 13.5 14.4C12.6619 14.4 11.9559 13.8262 11.7562 13.05C11.7197 12.9065 11.7 12.7546 11.7 12.6C11.7 12.4453 11.7197 12.2934 11.7562 12.15C11.9559 11.3737 12.6619 10.8 13.5 10.8C14.3381 10.8 15.0441 11.3737 15.2437 12.15C15.2803 12.2934 15.3 12.4453 15.3 12.6C15.3 12.7546 15.2803 12.9065 15.2437 13.05ZM10.8366 12.15H7.16344C6.94969 10.8731 5.83875 9.89995 4.5 9.89995C3.16125 9.89995 2.05031 10.8731 1.83656 12.15H0.9V8.99995C0.9 8.50214 1.30219 8.09995 1.8 8.09995H14.4C15.8906 8.09995 17.1 9.30933 17.1 10.8V12.15H16.1634C15.9497 10.8731 14.8387 9.89995 13.5 9.89995C12.1613 9.89995 11.0503 10.8731 10.8366 12.15ZM4.5 14.4C3.66188 14.4 2.95594 13.8262 2.75625 13.05C2.71969 12.9065 2.7 12.7546 2.7 12.6C2.7 12.4453 2.71969 12.2934 2.75625 12.15C2.95594 11.3737 3.66188 10.8 4.5 10.8C5.33812 10.8 6.04406 11.3737 6.24375 12.15C6.28031 12.2934 6.3 12.4453 6.3 12.6C6.3 12.7546 6.28031 12.9065 6.24375 13.05C6.04406 13.8262 5.33812 14.4 4.5 14.4Z" fill="black"/>
</svg>
