<svg width="18" height="18" viewBox="0 0 18 18" fill="none" xmlns="http://www.w3.org/2000/svg">
<path d="M4.81781 4.49995H6.3V7.19995H3.13031L3.98531 5.06526C4.12031 4.72495 4.44938 4.49995 4.81781 4.49995ZM7.65 7.19995V4.49995H9.93375C10.2066 4.49995 10.4653 4.6237 10.6369 4.83745L12.5269 7.19995H7.65ZM14.8556 7.22808L12.0431 3.71245C11.5312 3.0712 10.755 2.69995 9.93375 2.69995H4.81781C3.7125 2.69995 2.71969 3.37214 2.31187 4.39589L1.14187 7.3237C0.4725 7.58808 0 8.23776 0 8.99995V12.15C0 12.6478 0.402187 13.05 0.9 13.05H1.83656C2.05031 14.3268 3.16125 15.3 4.5 15.3C5.83875 15.3 6.94969 14.3268 7.16344 13.05H10.8366C11.0503 14.3268 12.1613 15.3 13.5 15.3C14.8387 15.3 15.9497 14.3268 16.1634 13.05H17.1C17.5978 13.05 18 12.6478 18 12.15V10.8C18 8.9662 16.6275 7.45308 14.8556 7.22808ZM12.2259 12.15C12.2832 11.9805 12.3736 11.8242 12.4918 11.69C12.6101 11.5558 12.7538 11.4464 12.9147 11.3682C13.0755 11.29 13.2503 11.2446 13.4289 11.2346C13.6074 11.2245 13.7862 11.25 13.9548 11.3096C14.1235 11.3693 14.2785 11.4618 14.4111 11.5819C14.5437 11.7019 14.651 11.8471 14.727 12.0091C14.803 12.171 14.846 12.3464 14.8536 12.5251C14.8612 12.7038 14.8332 12.8822 14.7712 13.05C14.714 13.2194 14.6236 13.3757 14.5053 13.5099C14.3871 13.6441 14.2434 13.7535 14.0825 13.8317C13.9217 13.9099 13.7469 13.9553 13.5683 13.9654C13.3898 13.9754 13.211 13.9499 13.0423 13.8903C12.8737 13.8306 12.7186 13.7381 12.5861 13.618C12.4535 13.498 12.3462 13.3528 12.2702 13.1908C12.1942 13.0289 12.1512 12.8535 12.1436 12.6748C12.136 12.4962 12.164 12.3177 12.2259 12.15ZM4.5 11.25C4.85804 11.25 5.20142 11.3922 5.45459 11.6454C5.70777 11.8985 5.85 12.2419 5.85 12.6C5.85 12.958 5.70777 13.3014 5.45459 13.5545C5.20142 13.8077 4.85804 13.95 4.5 13.95C4.14196 13.95 3.79858 13.8077 3.54541 13.5545C3.29223 13.3014 3.15 12.958 3.15 12.6C3.15 12.2419 3.29223 11.8985 3.54541 11.6454C3.79858 11.3922 4.14196 11.25 4.5 11.25Z" fill="black"/>
</svg>
