<svg width="18" height="18" viewBox="0 0 18 18" fill="none" xmlns="http://www.w3.org/2000/svg">
<g clip-path="url(#clip0_1167_2808)">
<path d="M2.25 0C1.62773 0 1.125 0.502734 1.125 1.125V3.375C1.125 3.99727 1.62773 4.5 2.25 4.5H5.0625V5.625H3.05859C1.94766 5.625 1.00195 6.43711 0.833203 7.5375L0.0386719 12.8004C0.0140625 12.9656 0 13.1344 0 13.3031V15.75C0 16.991 1.00898 18 2.25 18H15.75C16.991 18 18 16.991 18 15.75V13.3031C18 13.1344 17.9859 12.9656 17.9613 12.7969L17.1633 7.5375C16.998 6.43711 16.0523 5.625 14.9414 5.625H7.3125V4.5H10.125C10.7473 4.5 11.25 3.99727 11.25 3.375V1.125C11.25 0.502734 10.7473 0 10.125 0H2.25ZM3.375 1.6875H9C9.30937 1.6875 9.5625 1.94062 9.5625 2.25C9.5625 2.55938 9.30937 2.8125 9 2.8125H3.375C3.06562 2.8125 2.8125 2.55938 2.8125 2.25C2.8125 1.94062 3.06562 1.6875 3.375 1.6875ZM2.25 15.1875C2.25 14.8781 2.50312 14.625 2.8125 14.625H15.1875C15.4969 14.625 15.75 14.8781 15.75 15.1875C15.75 15.4969 15.4969 15.75 15.1875 15.75H2.8125C2.50312 15.75 2.25 15.4969 2.25 15.1875ZM3.9375 9.28125C3.71372 9.28125 3.49911 9.19236 3.34088 9.03412C3.18264 8.87589 3.09375 8.66128 3.09375 8.4375C3.09375 8.21372 3.18264 7.99911 3.34088 7.84088C3.49911 7.68264 3.71372 7.59375 3.9375 7.59375C4.16128 7.59375 4.37589 7.68264 4.53412 7.84088C4.69236 7.99911 4.78125 8.21372 4.78125 8.4375C4.78125 8.66128 4.69236 8.87589 4.53412 9.03412C4.37589 9.19236 4.16128 9.28125 3.9375 9.28125ZM8.15625 8.4375C8.15625 8.66128 8.06736 8.87589 7.90912 9.03412C7.75089 9.19236 7.53628 9.28125 7.3125 9.28125C7.08872 9.28125 6.87411 9.19236 6.71588 9.03412C6.55764 8.87589 6.46875 8.66128 6.46875 8.4375C6.46875 8.21372 6.55764 7.99911 6.71588 7.84088C6.87411 7.68264 7.08872 7.59375 7.3125 7.59375C7.53628 7.59375 7.75089 7.68264 7.90912 7.84088C8.06736 7.99911 8.15625 8.21372 8.15625 8.4375ZM5.625 12.0938C5.40122 12.0938 5.18661 12.0049 5.02838 11.8466C4.87014 11.6884 4.78125 11.4738 4.78125 11.25C4.78125 11.0262 4.87014 10.8116 5.02838 10.6534C5.18661 10.4951 5.40122 10.4062 5.625 10.4062C5.84878 10.4062 6.06339 10.4951 6.22162 10.6534C6.37986 10.8116 6.46875 11.0262 6.46875 11.25C6.46875 11.4738 6.37986 11.6884 6.22162 11.8466C6.06339 12.0049 5.84878 12.0938 5.625 12.0938ZM11.5312 8.4375C11.5312 8.66128 11.4424 8.87589 11.2841 9.03412C11.1259 9.19236 10.9113 9.28125 10.6875 9.28125C10.4637 9.28125 10.2491 9.19236 10.0909 9.03412C9.93264 8.87589 9.84375 8.66128 9.84375 8.4375C9.84375 8.21372 9.93264 7.99911 10.0909 7.84088C10.2491 7.68264 10.4637 7.59375 10.6875 7.59375C10.9113 7.59375 11.1259 7.68264 11.2841 7.84088C11.4424 7.99911 11.5312 8.21372 11.5312 8.4375ZM9 12.0938C8.77622 12.0938 8.56161 12.0049 8.40338 11.8466C8.24514 11.6884 8.15625 11.4738 8.15625 11.25C8.15625 11.0262 8.24514 10.8116 8.40338 10.6534C8.56161 10.4951 8.77622 10.4062 9 10.4062C9.22378 10.4062 9.43839 10.4951 9.59662 10.6534C9.75486 10.8116 9.84375 11.0262 9.84375 11.25C9.84375 11.4738 9.75486 11.6884 9.59662 11.8466C9.43839 12.0049 9.22378 12.0938 9 12.0938ZM14.9062 8.4375C14.9062 8.5483 14.8844 8.65802 14.842 8.76039C14.7996 8.86276 14.7375 8.95577 14.6591 9.03412C14.5808 9.11247 14.4878 9.17462 14.3854 9.21702C14.283 9.25943 14.1733 9.28125 14.0625 9.28125C13.9517 9.28125 13.842 9.25943 13.7396 9.21702C13.6372 9.17462 13.5442 9.11247 13.4659 9.03412C13.3875 8.95577 13.3254 8.86276 13.283 8.76039C13.2406 8.65802 13.2188 8.5483 13.2188 8.4375C13.2188 8.3267 13.2406 8.21698 13.283 8.11461C13.3254 8.01224 13.3875 7.91923 13.4659 7.84088C13.5442 7.76253 13.6372 7.70038 13.7396 7.65798C13.842 7.61557 13.9517 7.59375 14.0625 7.59375C14.1733 7.59375 14.283 7.61557 14.3854 7.65798C14.4878 7.70038 14.5808 7.76253 14.6591 7.84088C14.7375 7.91923 14.7996 8.01224 14.842 8.11461C14.8844 8.21698 14.9062 8.3267 14.9062 8.4375ZM12.375 12.0938C12.1512 12.0938 11.9366 12.0049 11.7784 11.8466C11.6201 11.6884 11.5312 11.4738 11.5312 11.25C11.5312 11.0262 11.6201 10.8116 11.7784 10.6534C11.9366 10.4951 12.1512 10.4062 12.375 10.4062C12.5988 10.4062 12.8134 10.4951 12.9716 10.6534C13.1299 10.8116 13.2188 11.0262 13.2188 11.25C13.2188 11.4738 13.1299 11.6884 12.9716 11.8466C12.8134 12.0049 12.5988 12.0938 12.375 12.0938Z" fill="black"/>
</g>
<defs>
<clipPath id="clip0_1167_2808">
<rect width="18" height="18" fill="white"/>
</clipPath>
</defs>
</svg>
