<svg width="18" height="18" viewBox="0 0 18 18" fill="none" xmlns="http://www.w3.org/2000/svg">
<g clip-path="url(#clip0_1167_2809)">
<path d="M4.78125 9C4.78125 9.46758 4.40508 9.84375 3.9375 9.84375C3.47168 9.84375 3.09375 9.46758 3.09375 9C3.09375 8.53242 3.47168 8.15625 3.9375 8.15625C4.40508 8.15625 4.78125 8.53242 4.78125 9ZM6.46875 9C6.46875 8.53242 6.84492 8.15625 7.3125 8.15625C7.78008 8.15625 8.15625 8.53242 8.15625 9C8.15625 9.46758 7.78008 9.84375 7.3125 9.84375C6.84492 9.84375 6.46875 9.46758 6.46875 9ZM6.46875 11.8125C6.46875 12.2801 6.09258 12.6562 5.625 12.6562C5.15742 12.6562 4.78125 12.2801 4.78125 11.8125C4.78125 11.3449 5.15742 10.9688 5.625 10.9688C6.09258 10.9688 6.46875 11.3449 6.46875 11.8125ZM9.84375 9C9.84375 8.53242 10.2199 8.15625 10.6875 8.15625C11.1551 8.15625 11.5312 8.53242 11.5312 9C11.5312 9.46758 11.1551 9.84375 10.6875 9.84375C10.2199 9.84375 9.84375 9.46758 9.84375 9ZM9.84375 11.8125C9.84375 12.2801 9.46758 12.6562 9 12.6562C8.53242 12.6562 8.15625 12.2801 8.15625 11.8125C8.15625 11.3449 8.53242 10.9688 9 10.9688C9.46758 10.9688 9.84375 11.3449 9.84375 11.8125ZM13.2188 9C13.2188 8.53242 13.5949 8.15625 14.0625 8.15625C14.5301 8.15625 14.9062 8.53242 14.9062 9C14.9062 9.46758 14.5301 9.84375 14.0625 9.84375C13.5949 9.84375 13.2188 9.46758 13.2188 9ZM13.2188 11.8125C13.2188 12.2801 12.8426 12.6562 12.375 12.6562C11.9074 12.6562 11.5312 12.2801 11.5312 11.8125C11.5312 11.3449 11.9074 10.9688 12.375 10.9688C12.8426 10.9688 13.2188 11.3449 13.2188 11.8125ZM9.5625 0C10.4941 0 11.25 0.755508 11.25 1.6875V2.8125C11.25 3.74414 10.4941 4.5 9.5625 4.5H6.75V5.625H14.9238C16.0418 5.625 16.991 6.44766 17.1492 7.55508L17.9789 13.3418C17.993 13.4473 18 13.5527 18 13.6582V15.75C18 16.991 16.991 18 15.75 18H2.25C1.00723 18 0 16.991 0 15.75V13.6582C0 13.5527 0.00755859 13.4473 0.0226125 13.3418L0.849023 7.55508C1.00723 6.44766 1.9568 5.625 3.07652 5.625H5.625V4.5H2.8125C1.88051 4.5 1.125 3.74414 1.125 2.8125V1.6875C1.125 0.755508 1.88051 0 2.8125 0H9.5625ZM9.5625 1.125H2.8125C2.50172 1.125 2.25 1.37672 2.25 1.6875V2.8125C2.25 3.12328 2.50172 3.375 2.8125 3.375H9.5625C9.87187 3.375 10.125 3.12328 10.125 2.8125V1.6875C10.125 1.37672 9.87187 1.125 9.5625 1.125ZM2.25 16.875H15.75C16.3723 16.875 16.875 16.3723 16.875 15.75V14.625H1.125V15.75C1.125 16.3723 1.62879 16.875 2.25 16.875ZM14.9238 6.75H3.07652C2.51648 6.75 2.04188 7.16133 1.96277 7.7168L1.13625 13.5H16.8645L16.0383 7.7168C15.9574 7.16133 15.4828 6.75 14.9238 6.75Z" fill="black"/>
</g>
<defs>
<clipPath id="clip0_1167_2809">
<rect width="18" height="18" fill="white"/>
</clipPath>
</defs>
</svg>
