<svg width="18" height="18" viewBox="0 0 18 18" fill="none" xmlns="http://www.w3.org/2000/svg">
<path d="M1.125 1.6875C1.125 1.37812 0.871875 1.125 0.5625 1.125C0.253125 1.125 0 1.37812 0 1.6875V14.0625C0 15.6164 1.25859 16.875 2.8125 16.875H17.4375C17.7469 16.875 18 16.6219 18 16.3125C18 16.0031 17.7469 15.75 17.4375 15.75H2.8125C1.88086 15.75 1.125 14.9941 1.125 14.0625V1.6875ZM16.7098 5.45977C16.9277 5.2418 16.9277 4.8832 16.7098 4.66523C16.4918 4.44727 16.1332 4.44727 15.9152 4.66523L11.25 9.33047L8.27227 6.35273C8.0543 6.13477 7.6957 6.13477 7.47773 6.35273L3.54023 10.2902C3.32227 10.5082 3.32227 10.8668 3.54023 11.0848C3.7582 11.3027 4.1168 11.3027 4.33477 11.0848L7.875 7.54453L10.8527 10.5223C11.0707 10.7402 11.4293 10.7402 11.6473 10.5223L16.7098 5.45977Z" fill="black"/>
</svg>
