<svg width="18" height="18" viewBox="0 0 18 18" fill="none" xmlns="http://www.w3.org/2000/svg">
<path d="M2.25 2.25C2.25 1.62773 1.74727 1.125 1.125 1.125C0.502734 1.125 0 1.62773 0 2.25V14.0625C0 15.6164 1.25859 16.875 2.8125 16.875H16.875C17.4973 16.875 18 16.3723 18 15.75C18 15.1277 17.4973 14.625 16.875 14.625H2.8125C2.50312 14.625 2.25 14.3719 2.25 14.0625V2.25ZM16.5445 5.29453C16.984 4.85508 16.984 4.14141 16.5445 3.70195C16.1051 3.2625 15.3914 3.2625 14.952 3.70195L11.25 7.40742L9.23203 5.38945C8.79258 4.95 8.07891 4.95 7.63945 5.38945L3.70195 9.32695C3.2625 9.76641 3.2625 10.4801 3.70195 10.9195C4.14141 11.359 4.85508 11.359 5.29453 10.9195L8.4375 7.78008L10.4555 9.79805C10.8949 10.2375 11.6086 10.2375 12.048 9.79805L16.548 5.29805L16.5445 5.29453Z" fill="black"/>
</svg>
