<svg width="18" height="18" viewBox="0 0 18 18" fill="none" xmlns="http://www.w3.org/2000/svg">
<path d="M3 3.5C3 2.67188 3.67188 2 4.5 2H13.5C14.3281 2 15 2.67188 15 3.5V13H3V3.5ZM12.7812 4.96875C12.4875 4.675 12.0125 4.675 11.7219 4.96875L8.25313 8.4375L6.78438 6.96875C6.49063 6.675 6.01562 6.675 5.725 6.96875C5.43437 7.2625 5.43125 7.7375 5.725 8.02812L7.725 10.0281C8.01875 10.3219 8.49375 10.3219 8.78438 10.0281L12.7812 6.03125C13.075 5.7375 13.075 5.2625 12.7812 4.97187V4.96875ZM0 11.5C0 10.6719 0.671875 10 1.5 10H2V14H16V10H16.5C17.3281 10 18 10.6719 18 11.5V14.5C18 15.3281 17.3281 16 16.5 16H1.5C0.671875 16 0 15.3281 0 14.5V11.5Z" fill="black"/>
</svg>
