<svg width="18" height="18" viewBox="0 0 18 18" fill="none" xmlns="http://www.w3.org/2000/svg">
<g clip-path="url(#clip0_1322_2811)">
<path d="M6.35273 6.35273C6.5707 6.13125 6.9293 6.13125 7.14727 6.35273L9 8.20547L10.8527 6.35273C11.0707 6.13125 11.4293 6.13125 11.6473 6.35273C11.8687 6.5707 11.8687 6.9293 11.6473 7.14727L9.79453 9L11.6473 10.8527C11.8687 11.0707 11.8687 11.4293 11.6473 11.6473C11.4293 11.8687 11.0707 11.8687 10.8527 11.6473L9 9.79453L7.14727 11.6473C6.9293 11.8687 6.5707 11.8687 6.35273 11.6473C6.13125 11.4293 6.13125 11.0707 6.35273 10.8527L8.20547 9L6.35273 7.14727C6.13125 6.9293 6.13125 6.5707 6.35273 6.35273ZM18 9C18 13.9711 13.9711 18 9 18C4.02891 18 0 13.9711 0 9C0 4.02891 4.02891 0 9 0C13.9711 0 18 4.02891 18 9ZM9 1.125C4.65117 1.125 1.125 4.65117 1.125 9C1.125 13.3488 4.65117 16.875 9 16.875C13.3488 16.875 16.875 13.3488 16.875 9C16.875 4.65117 13.3488 1.125 9 1.125Z" fill="black"/>
</g>
<defs>
<clipPath id="clip0_1322_2811">
<rect width="18" height="18" fill="white"/>
</clipPath>
</defs>
</svg>
