<svg width="18" height="18" viewBox="0 0 18 18" fill="none" xmlns="http://www.w3.org/2000/svg">
<g clip-path="url(#clip0_1322_2809)">
<path d="M8.27227 11.6473C8.0543 11.8687 7.6957 11.8687 7.47773 11.6473L5.22773 9.39727C5.00625 9.1793 5.00625 8.8207 5.22773 8.60273C5.4457 8.38125 5.8043 8.38125 6.02227 8.60273L7.875 10.4555L11.9777 6.35273C12.1957 6.13125 12.5543 6.13125 12.7723 6.35273C12.9937 6.5707 12.9937 6.9293 12.7723 7.14727L8.27227 11.6473ZM18 9C18 13.9711 13.9711 18 9 18C4.02891 18 0 13.9711 0 9C0 4.02891 4.02891 0 9 0C13.9711 0 18 4.02891 18 9ZM9 1.125C4.65117 1.125 1.125 4.65117 1.125 9C1.125 13.3488 4.65117 16.875 9 16.875C13.3488 16.875 16.875 13.3488 16.875 9C16.875 4.65117 13.3488 1.125 9 1.125Z" fill="black"/>
</g>
<defs>
<clipPath id="clip0_1322_2809">
<rect width="18" height="18" fill="white"/>
</clipPath>
</defs>
</svg>
