<svg width="18" height="18" viewBox="0 0 18 18" fill="none" xmlns="http://www.w3.org/2000/svg">
<g clip-path="url(#clip0_4472_843)">
<path d="M9 1.125C9.81255 1.125 10.6172 1.28504 11.3679 1.596C12.1186 1.90695 12.8007 2.36271 13.3752 2.93728C13.9498 3.51184 14.4056 4.19394 14.7165 4.94465C15.0275 5.69535 15.1875 6.49995 15.1875 7.3125C15.1875 8.12505 15.0275 8.92965 14.7165 9.68035C14.4056 10.4311 13.9498 11.1132 13.3752 11.6877C12.8007 12.2623 12.1186 12.7181 11.3679 13.029C10.6172 13.34 9.81255 13.5 9 13.5C8.18745 13.5 7.38285 13.34 6.63215 13.029C5.88144 12.7181 5.19934 12.2623 4.62478 11.6877C4.05021 11.1132 3.59445 10.4311 3.2835 9.68035C2.97254 8.92965 2.8125 8.12505 2.8125 7.3125C2.8125 6.49995 2.97254 5.69535 3.2835 4.94465C3.59445 4.19394 4.05021 3.51184 4.62478 2.93728C5.19934 2.36271 5.88144 1.90695 6.63215 1.596C7.38285 1.28504 8.18745 1.125 9 1.125ZM9 14.625C10.9394 14.625 12.7994 13.8546 14.1707 12.4832C15.5421 11.1119 16.3125 9.2519 16.3125 7.3125C16.3125 5.3731 15.5421 3.51314 14.1707 2.14178C12.7994 0.770422 10.9394 0 9 0C7.0606 0 5.20064 0.770422 3.82928 2.14178C2.45792 3.51314 1.6875 5.3731 1.6875 7.3125C1.6875 9.2519 2.45792 11.1119 3.82928 12.4832C5.20064 13.8546 7.0606 14.625 9 14.625ZM2.25 12.375H0.5625H0V12.9375V17.4375V18H0.5625H17.4375H18V17.4375V12.9375V12.375H17.4375H15.75C15.4477 12.7793 15.1066 13.1555 14.7375 13.5H16.875V16.875H1.125V13.5H3.2625C2.89336 13.1555 2.55234 12.7793 2.25 12.375ZM9.5625 3.9375V3.375H8.4375V3.9375V4.26445C8.20898 4.30312 7.99102 4.36641 7.79414 4.4543C7.29844 4.6793 6.88359 5.09062 6.78164 5.67422C6.72539 6.0082 6.75703 6.32461 6.89062 6.60938C7.02422 6.88711 7.23164 7.09102 7.44961 7.23867C7.83984 7.50234 8.35664 7.65703 8.775 7.78359L8.84531 7.80469C9.33047 7.95234 9.68555 8.06836 9.91758 8.23711C10.0195 8.31094 10.0688 8.37773 10.0969 8.4375C10.1215 8.49375 10.1426 8.58867 10.1145 8.75391C10.0828 8.92969 9.98086 9.07031 9.75234 9.16875C9.50625 9.27422 9.13008 9.31992 8.6625 9.24609C8.4375 9.21094 8.04375 9.07734 7.70977 8.96133C7.63242 8.93672 7.56211 8.91211 7.49531 8.8875L6.96094 8.7082L6.60586 9.77695L7.14023 9.95625C7.18594 9.97031 7.23867 9.99141 7.30195 10.0125C7.61484 10.118 8.11055 10.2902 8.44102 10.35V10.6875V11.25H9.56602V10.6875V10.3746C9.7875 10.343 9.99844 10.2867 10.1953 10.2023C10.7121 9.98086 11.1199 9.55898 11.2254 8.94727C11.2852 8.60625 11.257 8.28281 11.1305 7.99102C11.0039 7.70273 10.8035 7.48828 10.582 7.33008C10.1742 7.03477 9.62578 6.86953 9.19336 6.73594L9.17227 6.72891C8.68359 6.58125 8.31797 6.46875 8.08242 6.30703C7.97695 6.23672 7.93125 6.17344 7.90664 6.12773C7.88555 6.08555 7.86445 6.01172 7.88906 5.86758C7.91016 5.74102 8.00508 5.59336 8.2582 5.48086C8.51484 5.36484 8.89102 5.30859 9.34453 5.37891C9.49922 5.40352 9.98086 5.49844 10.1215 5.53359L10.6664 5.67773L10.9547 4.59141L10.4098 4.44727C10.2305 4.39805 9.76992 4.31016 9.5625 4.275V3.9375Z" fill="black"/>
</g>
<defs>
<clipPath id="clip0_4472_843">
<rect width="18" height="18" fill="white"/>
</clipPath>
</defs>
</svg>
