<svg width="18" height="18" viewBox="0 0 18 18" fill="none" xmlns="http://www.w3.org/2000/svg">
<g clip-path="url(#clip0_6283_74185)">
<path d="M9 18C11.3869 18 13.6761 17.0518 15.364 15.364C17.0518 13.6761 18 11.3869 18 9C18 6.61305 17.0518 4.32387 15.364 2.63604C13.6761 0.948212 11.3869 0 9 0C6.61305 0 4.32387 0.948212 2.63604 2.63604C0.948212 4.32387 0 6.61305 0 9C0 11.3869 0.948212 13.6761 2.63604 15.364C4.32387 17.0518 6.61305 18 9 18ZM13.5352 8.12109C13.8656 8.45156 13.8656 8.98594 13.5352 9.31289C13.2047 9.63984 12.6703 9.64336 12.3434 9.31289L9.84727 6.8168V13.2188C9.84727 13.6863 9.47109 14.0625 9.00352 14.0625C8.53594 14.0625 8.15977 13.6863 8.15977 13.2188V6.8168L5.66367 9.31289C5.3332 9.64336 4.79883 9.64336 4.47187 9.31289C4.14492 8.98242 4.14141 8.44805 4.47187 8.12109L8.40234 4.18359C8.73281 3.85313 9.26719 3.85313 9.59414 4.18359L13.5352 8.12109Z" fill="black"/>
</g>
<defs>
<clipPath id="clip0_6283_74185">
<rect width="18" height="18" fill="white"/>
</clipPath>
</defs>
</svg>
