<svg width="18" height="18" viewBox="0 0 18 18" fill="none" xmlns="http://www.w3.org/2000/svg">
<g clip-path="url(#clip0_1167_2772)">
<path d="M9 18C11.3869 18 13.6761 17.0518 15.364 15.364C17.0518 13.6761 18 11.3869 18 9C18 6.61305 17.0518 4.32387 15.364 2.63604C13.6761 0.948212 11.3869 0 9 0C6.61305 0 4.32387 0.948212 2.63604 2.63604C0.948212 4.32387 0 6.61305 0 9C0 11.3869 0.948212 13.6761 2.63604 15.364C4.32387 17.0518 6.61305 18 9 18ZM5.96953 5.81133C6.24727 5.02734 6.99258 4.5 7.82578 4.5H9.87539C11.1023 4.5 12.0938 5.49492 12.0938 6.71836C12.0938 7.51289 11.6684 8.24766 10.9793 8.64492L9.84375 9.29531C9.83672 9.75234 9.46055 10.125 9 10.125C8.53242 10.125 8.15625 9.74883 8.15625 9.28125V8.80664C8.15625 8.5043 8.31797 8.22656 8.58164 8.07539L10.1391 7.18242C10.3043 7.0875 10.4062 6.91172 10.4062 6.72187C10.4062 6.42656 10.1672 6.19102 9.87539 6.19102H7.82578C7.70625 6.19102 7.60078 6.26484 7.56211 6.37734L7.54805 6.41953C7.39336 6.85898 6.9082 7.0875 6.47227 6.93281C6.03633 6.77812 5.8043 6.29297 5.95898 5.85703L5.97305 5.81484L5.96953 5.81133ZM7.875 12.375C7.875 12.0766 7.99353 11.7905 8.2045 11.5795C8.41548 11.3685 8.70163 11.25 9 11.25C9.29837 11.25 9.58452 11.3685 9.7955 11.5795C10.0065 11.7905 10.125 12.0766 10.125 12.375C10.125 12.6734 10.0065 12.9595 9.7955 13.1705C9.58452 13.3815 9.29837 13.5 9 13.5C8.70163 13.5 8.41548 13.3815 8.2045 13.1705C7.99353 12.9595 7.875 12.6734 7.875 12.375Z" fill="black"/>
</g>
<defs>
<clipPath id="clip0_1167_2772">
<rect width="18" height="18" fill="white"/>
</clipPath>
</defs>
</svg>
