<svg width="18" height="18" viewBox="0 0 18 18" fill="none" xmlns="http://www.w3.org/2000/svg">
<g clip-path="url(#clip0_1167_2771)">
<path d="M9 0C4.02891 0 0 4.02891 0 9C0 13.9711 4.02891 18 9 18C13.9711 18 18 13.9711 18 9C18 4.02891 13.9711 0 9 0ZM9 16.875C4.6582 16.875 1.125 13.3418 1.125 9C1.125 4.6582 4.6582 1.125 9 1.125C13.3418 1.125 16.875 4.6582 16.875 9C16.875 13.3418 13.3418 16.875 9 16.875ZM8.4375 12.0938C7.97168 12.0938 7.59375 12.4717 7.59375 12.9375C7.59375 13.4033 7.97168 13.7812 8.4375 13.7812C8.90332 13.7812 9.28125 13.4033 9.28125 12.9375C9.28125 12.4717 8.90508 12.0938 8.4375 12.0938ZM10.0406 4.5H7.95937C6.67266 4.5 5.625 5.54766 5.625 6.83437V7.17188C5.625 7.4828 5.87658 7.73438 6.1875 7.73438C6.49842 7.73438 6.75 7.48125 6.75 7.17188V6.83437C6.75 6.16641 7.29141 5.625 7.95937 5.625H10.0424C10.7086 5.625 11.25 6.16641 11.25 6.83437C11.25 7.27312 11.0116 7.67812 10.6502 7.87922L8.52539 8.94023C8.12461 9.16523 7.875 9.58711 7.875 10.0477V10.6875C7.875 10.9969 8.12813 11.25 8.4375 11.25C8.74687 11.25 9 10.9969 9 10.6875V10.0477C9 9.99657 9.02747 9.94932 9.05055 9.93614L11.1743 8.87372C11.9145 8.46211 12.375 7.68164 12.375 6.83437C12.375 5.54766 11.3273 4.5 10.0406 4.5Z" fill="black"/>
</g>
<defs>
<clipPath id="clip0_1167_2771">
<rect width="18" height="18" fill="white"/>
</clipPath>
</defs>
</svg>
