<svg width="18" height="18" viewBox="0 0 18 18" fill="none" xmlns="http://www.w3.org/2000/svg">
<g clip-path="url(#clip0_2765_39294)">
<path d="M9 18C11.3869 18 13.6761 17.0518 15.364 15.364C17.0518 13.6761 18 11.3869 18 9C18 6.61305 17.0518 4.32387 15.364 2.63604C13.6761 0.948212 11.3869 0 9 0C6.61305 0 4.32387 0.948212 2.63604 2.63604C0.948212 4.32387 0 6.61305 0 9C0 11.3869 0.948212 13.6761 2.63604 15.364C4.32387 17.0518 6.61305 18 9 18ZM9.73125 4.69688V5.19609C10.0723 5.23828 10.4133 5.3332 10.7508 5.42812C10.8176 5.4457 10.8809 5.46328 10.9477 5.48438C11.352 5.59688 11.591 6.01523 11.4785 6.41953C11.366 6.82383 10.9477 7.05937 10.5434 6.95039C10.4871 6.93633 10.4344 6.91875 10.3781 6.90469C10.132 6.83437 9.88594 6.76758 9.63633 6.71836C9.17227 6.63047 8.63438 6.67266 8.20195 6.85898C7.81523 7.02773 7.49531 7.43555 7.93477 7.7168C8.2793 7.93828 8.70117 8.05078 9.10195 8.15977C9.18633 8.18086 9.26719 8.20547 9.34805 8.22656C9.89648 8.38125 10.5961 8.58164 11.1199 8.94023C11.802 9.40781 12.1219 10.1672 11.9707 10.9828C11.8266 11.7703 11.2781 12.2871 10.6207 12.5543C10.3465 12.6668 10.0477 12.7371 9.73477 12.7723V13.3066C9.73477 13.725 9.39375 14.066 8.97539 14.066C8.55703 14.066 8.21602 13.725 8.21602 13.3066V12.6949C7.70625 12.5789 7.20703 12.4172 6.71133 12.2555C6.31406 12.1254 6.09609 11.693 6.22969 11.2957C6.36328 10.8984 6.79219 10.6805 7.18945 10.8141C7.27734 10.8422 7.36523 10.8738 7.45312 10.902C7.85039 11.0355 8.2582 11.1727 8.66602 11.2395C9.26367 11.3273 9.7418 11.2746 10.0547 11.148C10.4766 10.9793 10.677 10.4766 10.2621 10.1953C9.90703 9.95273 9.46758 9.8332 9.04922 9.7207C8.96836 9.69961 8.89102 9.67852 8.81016 9.65391C8.2793 9.50273 7.61484 9.31641 7.11562 8.99648C6.43008 8.55703 6.08203 7.82578 6.22969 7.01367C6.37031 6.24727 6.96797 5.7375 7.60078 5.46328C7.79414 5.37891 8.00156 5.31211 8.21602 5.26289V4.69688C8.21602 4.27852 8.55703 3.9375 8.97539 3.9375C9.39375 3.9375 9.73477 4.27852 9.73477 4.69688H9.73125Z" fill="black"/>
</g>
<defs>
<clipPath id="clip0_2765_39294">
<rect width="18" height="18" fill="white"/>
</clipPath>
</defs>
</svg>
