<svg width="18" height="18" viewBox="0 0 18 18" fill="none" xmlns="http://www.w3.org/2000/svg">
<path d="M12.375 8.4375C12.6844 8.4375 12.9375 8.69063 12.9375 9C12.9375 9.30937 12.6844 9.5625 12.375 9.5625H5.625C5.31563 9.5625 5.0625 9.30937 5.0625 9C5.0625 8.69063 5.31563 8.4375 5.625 8.4375H12.375ZM18 9C18 13.9711 13.9711 18 9 18C4.02891 18 0 13.9711 0 9C0 4.02891 4.02891 0 9 0C13.9711 0 18 4.02891 18 9ZM9 1.125C4.65117 1.125 1.125 4.65117 1.125 9C1.125 13.3488 4.65117 16.875 9 16.875C13.3488 16.875 16.875 13.3488 16.875 9C16.875 4.65117 13.3488 1.125 9 1.125Z" fill="black"/>
</svg>
