<svg width="18" height="18" viewBox="0 0 18 18" fill="none" xmlns="http://www.w3.org/2000/svg">
<g clip-path="url(#clip0_1322_2810)">
<path d="M9 18C13.9711 18 18 13.9711 18 9C18 4.02891 13.9711 0 9 0C4.02891 0 0 4.02891 0 9C0 13.9711 4.02891 18 9 18ZM6.15234 6.15234C6.48281 5.82188 7.01719 5.82188 7.34414 6.15234L8.99648 7.80469L10.6488 6.15234C10.9793 5.82188 11.5137 5.82188 11.8406 6.15234C12.1676 6.48281 12.1711 7.01719 11.8406 7.34414L10.1883 8.99648L11.8406 10.6488C12.1711 10.9793 12.1711 11.5137 11.8406 11.8406C11.5102 12.1676 10.9758 12.1711 10.6488 11.8406L8.99648 10.1883L7.34414 11.8406C7.01367 12.1711 6.4793 12.1711 6.15234 11.8406C5.82539 11.5102 5.82188 10.9758 6.15234 10.6488L7.80469 8.99648L6.15234 7.34414C5.82188 7.01367 5.82188 6.4793 6.15234 6.15234Z" fill="black"/>
</g>
<defs>
<clipPath id="clip0_1322_2810">
<rect width="18" height="18" fill="white"/>
</clipPath>
</defs>
</svg>
