<svg width="18" height="18" viewBox="0 0 18 18" fill="none" xmlns="http://www.w3.org/2000/svg">
<g clip-path="url(#clip0_4472_842)">
<path d="M12.375 13.8023C11.366 14.3297 10.2164 14.625 9 14.625C7.73789 14.625 6.54961 14.3051 5.51602 13.7426C4.84805 13.3805 4.24687 12.9164 3.72656 12.375C2.46094 11.0602 1.6875 9.27773 1.6875 7.3125C1.6875 3.27305 4.96055 0 9 0C13.0395 0 16.3125 3.27305 16.3125 7.3125C16.3125 9.27773 15.5391 11.0602 14.277 12.375C14.2418 12.4102 14.2066 12.4488 14.1715 12.484C13.6477 13.0078 13.0395 13.4543 12.375 13.8023ZM9.70664 3.23086H8.29336V3.9375V4.14844C8.09648 4.19063 7.91016 4.25039 7.73438 4.32773C7.20703 4.5668 6.75352 5.00977 6.64102 5.65313C6.57773 6.01172 6.61289 6.35625 6.76055 6.67266C6.9082 6.98203 7.13672 7.2 7.36875 7.3582C7.77656 7.63594 8.31445 7.79766 8.72578 7.9207L8.80312 7.94531C9.2918 8.09297 9.62578 8.20547 9.8332 8.35664C9.92109 8.41992 9.95273 8.46914 9.96328 8.49727C9.97383 8.52539 9.99492 8.58867 9.97031 8.73281C9.94922 8.85586 9.88242 8.95781 9.68906 9.04219C9.47461 9.13359 9.12656 9.1793 8.67656 9.10898C8.46562 9.07383 8.08945 8.94727 7.75547 8.83125C7.67813 8.80312 7.60078 8.77852 7.53047 8.75742L6.8625 8.53594L6.41953 9.87187L7.0875 10.0934C7.12969 10.1074 7.18242 10.125 7.24219 10.1461C7.51992 10.241 7.95586 10.3887 8.28984 10.466V10.6875V11.3941H9.70312V10.6875V10.4941C9.88945 10.459 10.0723 10.4062 10.2445 10.3324C10.7965 10.0969 11.243 9.63984 11.3555 8.97188C11.4187 8.60625 11.3906 8.2582 11.25 7.93828C11.1129 7.62188 10.8914 7.38984 10.6559 7.21758C10.227 6.9082 9.66094 6.73594 9.23555 6.60586L9.20742 6.59883C8.7082 6.44766 8.3707 6.34219 8.15625 6.19805C8.06484 6.13477 8.03672 6.09258 8.02969 6.075C8.02266 6.06445 8.00508 6.01875 8.02617 5.89922C8.03672 5.83242 8.09297 5.71641 8.31445 5.61445C8.53945 5.5125 8.89102 5.45625 9.31992 5.52305C9.47109 5.54766 9.94922 5.63906 10.0828 5.67422L10.7613 5.85352L11.1234 4.49297L10.4449 4.31367C10.2902 4.27148 9.93867 4.20117 9.70664 4.15898V3.9375V3.23086ZM1.125 12.375H2.25C2.93555 13.2855 3.79687 14.052 4.78828 14.625H2.25V15.75H9H15.75V14.625H13.2117C14.2031 14.052 15.068 13.2855 15.75 12.375H16.875H18V13.5V16.875V18H16.875H1.125H0V16.875V13.5V12.375H1.125Z" fill="black"/>
</g>
<defs>
<clipPath id="clip0_4472_842">
<rect width="18" height="18" fill="white"/>
</clipPath>
</defs>
</svg>
