<svg width="18" height="18" viewBox="0 0 18 18" fill="none" xmlns="http://www.w3.org/2000/svg">
<g clip-path="url(#clip0_2765_39291)">
<path d="M16.875 9C16.875 6.91142 16.0453 4.90838 14.5685 3.43153C13.0916 1.95469 11.0886 1.125 9 1.125C6.91142 1.125 4.90838 1.95469 3.43153 3.43153C1.95469 4.90838 1.125 6.91142 1.125 9C1.125 11.0886 1.95469 13.0916 3.43153 14.5685C4.90838 16.0453 6.91142 16.875 9 16.875C11.0886 16.875 13.0916 16.0453 14.5685 14.5685C16.0453 13.0916 16.875 11.0886 16.875 9ZM0 9C0 6.61305 0.948212 4.32387 2.63604 2.63604C4.32387 0.948212 6.61305 0 9 0C11.3869 0 13.6761 0.948212 15.364 2.63604C17.0518 4.32387 18 6.61305 18 9C18 11.3869 17.0518 13.6761 15.364 15.364C13.6761 17.0518 11.3869 18 9 18C6.61305 18 4.32387 17.0518 2.63604 15.364C0.948212 13.6761 0 11.3869 0 9ZM9.5625 4.21875V5.02734C10.0371 5.0625 10.4977 5.18906 10.9547 5.31914C11.0074 5.3332 11.0637 5.35078 11.1164 5.36484C11.4152 5.44922 11.591 5.75859 11.5102 6.05742C11.4293 6.35625 11.1164 6.53203 10.8176 6.45117C10.7332 6.42656 10.6488 6.40195 10.5645 6.37734C10.3008 6.3 10.0301 6.22266 9.75938 6.18398C9.08789 6.08555 8.47266 6.16992 8.02617 6.36328C7.57266 6.56016 7.37227 6.82383 7.33008 7.04883C7.2668 7.39336 7.40391 7.62891 7.68867 7.81172C8.06133 8.05078 8.62031 8.20898 9.29883 8.40234L9.30937 8.40586C9.93164 8.58164 10.677 8.79609 11.2184 9.16875C11.8863 9.62578 12.1957 10.357 12.048 11.1551C11.9074 11.9145 11.3836 12.4207 10.7191 12.6879C10.3711 12.8285 9.97734 12.9094 9.55547 12.9305V13.7812C9.55547 14.0906 9.30234 14.3438 8.99297 14.3438C8.68359 14.3438 8.43047 14.0906 8.43047 13.7812V12.8707C8.1457 12.825 7.66406 12.6879 7.29141 12.5754C7.04883 12.5016 6.80625 12.4242 6.56367 12.3469C6.26836 12.2484 6.11016 11.932 6.20508 11.6367C6.3 11.3414 6.61992 11.1832 6.91523 11.2781C7.14727 11.3555 7.3793 11.4293 7.61484 11.4996C8.00859 11.6191 8.41289 11.7316 8.60273 11.7598C9.29883 11.8617 9.88594 11.8055 10.2902 11.6402C10.684 11.482 10.8809 11.243 10.9336 10.9477C11.0004 10.5785 10.8809 10.3008 10.575 10.0898C10.1531 9.80156 9.63281 9.65742 9.13711 9.52031C9.05625 9.49922 8.97188 9.47461 8.89453 9.45352C8.29336 9.28477 7.59375 9.08438 7.07695 8.75391C6.79219 8.57109 6.525 8.32852 6.35625 7.99102C6.18398 7.64648 6.13828 7.25977 6.21563 6.83789C6.34922 6.11016 6.91875 5.60391 7.57266 5.32266C7.83281 5.21016 8.12109 5.12578 8.42695 5.07305V4.21875C8.42695 3.90937 8.68008 3.65625 8.98945 3.65625C9.29883 3.65625 9.55195 3.90937 9.55195 4.21875H9.5625Z" fill="black"/>
</g>
<defs>
<clipPath id="clip0_2765_39291">
<rect width="18" height="18" fill="white"/>
</clipPath>
</defs>
</svg>
