<svg width="18" height="18" viewBox="0 0 18 18" fill="none" xmlns="http://www.w3.org/2000/svg">
<g clip-path="url(#clip0_5862_32988)">
<path d="M9 1.125C11.0886 1.125 13.0916 1.95468 14.5685 3.43153C16.0453 4.90838 16.875 6.91142 16.875 9C16.875 11.0886 16.0453 13.0916 14.5685 14.5685C13.0916 16.0453 11.0886 16.875 9 16.875C6.91142 16.875 4.90838 16.0453 3.43153 14.5685C1.95468 13.0916 1.125 11.0886 1.125 9C1.125 6.91142 1.95468 4.90838 3.43153 3.43153C4.90838 1.95468 6.91142 1.125 9 1.125ZM9 18C11.3869 18 13.6761 17.0518 15.364 15.364C17.0518 13.6761 18 11.3869 18 9C18 6.61305 17.0518 4.32387 15.364 2.63604C13.6761 0.948212 11.3869 0 9 0C6.61305 0 4.32387 0.948212 2.63604 2.63604C0.948212 4.32387 0 6.61305 0 9C0 11.3869 0.948212 13.6761 2.63604 15.364C4.32387 17.0518 6.61305 18 9 18ZM9 4.5C8.69063 4.5 8.4375 4.75313 8.4375 5.0625V9.5625C8.4375 9.87187 8.69063 10.125 9 10.125C9.30937 10.125 9.5625 9.87187 9.5625 9.5625V5.0625C9.5625 4.75313 9.30937 4.5 9 4.5ZM9.84375 12.375C9.84375 12.1512 9.75486 11.9366 9.59662 11.7784C9.43839 11.6201 9.22378 11.5312 9 11.5312C8.77622 11.5312 8.56161 11.6201 8.40338 11.7784C8.24514 11.9366 8.15625 12.1512 8.15625 12.375C8.15625 12.5988 8.24514 12.8134 8.40338 12.9716C8.56161 13.1299 8.77622 13.2188 9 13.2188C9.22378 13.2188 9.43839 13.1299 9.59662 12.9716C9.75486 12.8134 9.84375 12.5988 9.84375 12.375Z" fill="black"/>
</g>
<defs>
<clipPath id="clip0_5862_32988">
<rect width="18" height="18" fill="white"/>
</clipPath>
</defs>
</svg>
