<svg width="18" height="18" viewBox="0 0 18 18" fill="none" xmlns="http://www.w3.org/2000/svg">
<g clip-path="url(#clip0_664_1944)">
<path d="M9 18C13.9711 18 18 13.9711 18 9C18 4.02891 13.9711 0 9 0C4.02891 0 0 4.02891 0 9C0 13.9711 4.02891 18 9 18ZM8.15625 12.0938V9.84375H5.90625C5.43867 9.84375 5.0625 9.46758 5.0625 9C5.0625 8.53242 5.43867 8.15625 5.90625 8.15625H8.15625V5.90625C8.15625 5.43867 8.53242 5.0625 9 5.0625C9.46758 5.0625 9.84375 5.43867 9.84375 5.90625V8.15625H12.0938C12.5613 8.15625 12.9375 8.53242 12.9375 9C12.9375 9.46758 12.5613 9.84375 12.0938 9.84375H9.84375V12.0938C9.84375 12.5613 9.46758 12.9375 9 12.9375C8.53242 12.9375 8.15625 12.5613 8.15625 12.0938Z" fill="black"/>
</g>
<defs>
<clipPath id="clip0_664_1944">
<rect width="18" height="18" fill="white"/>
</clipPath>
</defs>
</svg>
