<svg width="18" height="18" viewBox="0 0 18 18" fill="none" xmlns="http://www.w3.org/2000/svg">
<g clip-path="url(#clip0_6283_74191)">
<path d="M9 1.125C11.0886 1.125 13.0916 1.95468 14.5685 3.43153C16.0453 4.90838 16.875 6.91142 16.875 9C16.875 11.0886 16.0453 13.0916 14.5685 14.5685C13.0916 16.0453 11.0886 16.875 9 16.875C6.91142 16.875 4.90838 16.0453 3.43153 14.5685C1.95468 13.0916 1.125 11.0886 1.125 9C1.125 6.91142 1.95468 4.90838 3.43153 3.43153C4.90838 1.95468 6.91142 1.125 9 1.125ZM9 18C11.3869 18 13.6761 17.0518 15.364 15.364C17.0518 13.6761 18 11.3869 18 9C18 6.61305 17.0518 4.32387 15.364 2.63604C13.6761 0.948212 11.3869 0 9 0C6.61305 0 4.32387 0.948212 2.63604 2.63604C0.948212 4.32387 0 6.61305 0 9C0 11.3869 0.948212 13.6761 2.63604 15.364C4.32387 17.0518 6.61305 18 9 18ZM12.7723 8.04023L9.39727 4.66523C9.1793 4.44727 8.8207 4.44727 8.60273 4.66523L5.22773 8.04023C5.00977 8.2582 5.00977 8.6168 5.22773 8.83477C5.4457 9.05273 5.8043 9.05273 6.02227 8.83477L8.4375 6.41953V12.9375C8.4375 13.2469 8.69063 13.5 9 13.5C9.30937 13.5 9.5625 13.2469 9.5625 12.9375V6.41953L11.9777 8.83477C12.1957 9.05273 12.5543 9.05273 12.7723 8.83477C12.9902 8.6168 12.9902 8.2582 12.7723 8.04023Z" fill="black"/>
</g>
<defs>
<clipPath id="clip0_6283_74191">
<rect width="18" height="18" fill="white"/>
</clipPath>
</defs>
</svg>
