<svg width="18" height="18" viewBox="0 0 18 18" fill="none" xmlns="http://www.w3.org/2000/svg">
<g clip-path="url(#clip0_1167_2775)">
<path d="M9 0C4.02891 0 0 4.02891 0 9C0 13.9711 4.02891 18 9 18C13.9711 18 18 13.9711 18 9C18 4.02891 13.9711 0 9 0ZM9 16.875C4.6582 16.875 1.125 13.3418 1.125 9C1.125 4.6582 4.6582 1.125 9 1.125C13.3418 1.125 16.875 4.6582 16.875 9C16.875 13.3418 13.3418 16.875 9 16.875ZM9 6.46875C9.46582 6.46875 9.84375 6.09117 9.84375 5.625C9.84375 5.15918 9.46582 4.78125 9 4.78125C8.53418 4.78125 8.15625 5.15742 8.15625 5.625C8.15625 6.09258 8.53242 6.46875 9 6.46875ZM10.6875 12.375H9.5625V8.4375C9.5625 8.12813 9.30937 7.875 9 7.875H7.875C7.56563 7.875 7.3125 8.12813 7.3125 8.4375C7.3125 8.74687 7.56563 9 7.875 9H8.4375V12.375H7.3125C7.00313 12.375 6.75 12.6281 6.75 12.9375C6.75 13.2469 7.00313 13.5 7.3125 13.5H10.6875C10.9981 13.5 11.25 13.2481 11.25 12.9375C11.25 12.6281 10.9969 12.375 10.6875 12.375Z" fill="black"/>
</g>
<defs>
<clipPath id="clip0_1167_2775">
<rect width="18" height="18" fill="white"/>
</clipPath>
</defs>
</svg>
