<svg width="18" height="18" viewBox="0 0 18 18" fill="none" xmlns="http://www.w3.org/2000/svg">
<g clip-path="url(#clip0_6438_110)">
<path d="M14.4879 14.6461C13.9957 12.6949 12.2309 11.25 10.125 11.25H7.875C5.76914 11.25 4.0043 12.6949 3.51211 14.6461C2.03906 13.2152 1.125 11.2148 1.125 9C1.125 4.65117 4.65117 1.125 9 1.125C13.3488 1.125 16.875 4.65117 16.875 9C16.875 11.2148 15.9609 13.2152 14.4879 14.6461ZM13.4859 15.4688C12.2168 16.3547 10.6699 16.875 9 16.875C7.33008 16.875 5.7832 16.3547 4.51055 15.4723C4.65117 13.7391 6.10313 12.375 7.875 12.375H10.125C11.8969 12.375 13.3453 13.7391 13.4895 15.4723L13.4859 15.4688ZM9 18C11.3869 18 13.6761 17.0518 15.364 15.364C17.0518 13.6761 18 11.3869 18 9C18 6.61305 17.0518 4.32387 15.364 2.63604C13.6761 0.948212 11.3869 0 9 0C6.61305 0 4.32387 0.948212 2.63604 2.63604C0.948212 4.32387 0 6.61305 0 9C0 11.3869 0.948212 13.6761 2.63604 15.364C4.32387 17.0518 6.61305 18 9 18ZM9 9C8.55245 9 8.12322 8.82221 7.80676 8.50574C7.49029 8.18928 7.3125 7.76005 7.3125 7.3125C7.3125 6.86495 7.49029 6.43572 7.80676 6.11926C8.12322 5.80279 8.55245 5.625 9 5.625C9.44755 5.625 9.87678 5.80279 10.1932 6.11926C10.5097 6.43572 10.6875 6.86495 10.6875 7.3125C10.6875 7.76005 10.5097 8.18928 10.1932 8.50574C9.87678 8.82221 9.44755 9 9 9ZM6.1875 7.3125C6.1875 8.05842 6.48382 8.77379 7.01126 9.30124C7.53871 9.82868 8.25408 10.125 9 10.125C9.74592 10.125 10.4613 9.82868 10.9887 9.30124C11.5162 8.77379 11.8125 8.05842 11.8125 7.3125C11.8125 6.56658 11.5162 5.85121 10.9887 5.32376C10.4613 4.79632 9.74592 4.5 9 4.5C8.25408 4.5 7.53871 4.79632 7.01126 5.32376C6.48382 5.85121 6.1875 6.56658 6.1875 7.3125Z" fill="black"/>
</g>
<defs>
<clipPath id="clip0_6438_110">
<rect width="18" height="18" fill="white"/>
</clipPath>
</defs>
</svg>
