<svg width="18" height="18" viewBox="0 0 18 18" fill="none" xmlns="http://www.w3.org/2000/svg">
<path d="M7.12509 2.39062C7.31178 1.66289 7.97399 1.125 8.76301 1.125C9.55202 1.125 10.2142 1.66289 10.4009 2.39062C10.4643 2.64023 10.6898 2.8125 10.9469 2.8125H11.5809C11.8909 2.8125 12.1445 3.06562 12.1445 3.375V4.5H8.76301H5.3815V3.375C5.3815 3.06562 5.63512 2.8125 5.94509 2.8125H6.57912C6.83625 2.8125 7.06169 2.64023 7.12509 2.39062ZM8.76301 0C7.60766 0 6.61434 0.696094 6.18109 1.6875H5.94509C5.20891 1.6875 4.58192 2.15859 4.34944 2.8125H4.25434C3.01093 2.8125 2 3.82148 2 5.0625V15.75C2 16.991 3.01093 18 4.25434 18H13.2717C14.5151 18 15.526 16.991 15.526 15.75V5.0625C15.526 3.82148 14.5151 2.8125 13.2717 2.8125H13.1766C12.9441 2.15859 12.3171 1.6875 11.5809 1.6875H11.3449C10.9117 0.696094 9.91835 0 8.76301 0ZM13.2717 3.9375C13.8951 3.9375 14.3988 4.44023 14.3988 5.0625V15.75C14.3988 16.3723 13.8951 16.875 13.2717 16.875H4.25434C3.63087 16.875 3.12717 16.3723 3.12717 15.75V5.0625C3.12717 4.44023 3.63087 3.9375 4.25434 3.9375V4.5C4.25434 5.12227 4.75804 5.625 5.3815 5.625H8.76301H12.1445C12.768 5.625 13.2717 5.12227 13.2717 4.5V3.9375ZM9.32659 2.8125C9.32659 2.66332 9.26721 2.52024 9.16152 2.41475C9.05583 2.30926 8.91248 2.25 8.76301 2.25C8.61353 2.25 8.47018 2.30926 8.36449 2.41475C8.2588 2.52024 8.19942 2.66332 8.19942 2.8125C8.19942 2.96168 8.2588 3.10476 8.36449 3.21025C8.47018 3.31574 8.61353 3.375 8.76301 3.375C8.91248 3.375 9.05583 3.31574 9.16152 3.21025C9.26721 3.10476 9.32659 2.96168 9.32659 2.8125ZM8.03387 8.27227C8.25226 8.0543 8.25226 7.6957 8.03387 7.47773C7.81548 7.25977 7.4562 7.25977 7.23781 7.47773L5.94509 8.76797L5.49774 8.32148C5.27935 8.10352 4.92007 8.10352 4.70168 8.32148C4.48329 8.53945 4.48329 8.89805 4.70168 9.11602L5.54706 9.95977C5.76544 10.1777 6.12473 10.1777 6.34312 9.95977L8.03387 8.27227ZM8.76301 9.5625C8.76301 9.87187 9.01662 10.125 9.32659 10.125H11.5809C11.8909 10.125 12.1445 9.87187 12.1445 9.5625C12.1445 9.25313 11.8909 9 11.5809 9H9.32659C9.01662 9 8.76301 9.25313 8.76301 9.5625ZM7.63584 12.9375C7.63584 13.2469 7.88945 13.5 8.19942 13.5H11.5809C11.8909 13.5 12.1445 13.2469 12.1445 12.9375C12.1445 12.6281 11.8909 12.375 11.5809 12.375H8.19942C7.88945 12.375 7.63584 12.6281 7.63584 12.9375ZM5.94509 13.7812C6.16929 13.7812 6.38432 13.6924 6.54286 13.5341C6.7014 13.3759 6.79046 13.1613 6.79046 12.9375C6.79046 12.7137 6.7014 12.4991 6.54286 12.3409C6.38432 12.1826 6.16929 12.0938 5.94509 12.0938C5.72088 12.0938 5.50585 12.1826 5.34732 12.3409C5.18878 12.4991 5.09971 12.7137 5.09971 12.9375C5.09971 13.1613 5.18878 13.3759 5.34732 13.5341C5.50585 13.6924 5.72088 13.7812 5.94509 13.7812Z" fill="black"/>
</svg>
