<svg width="18" height="18" viewBox="0 0 18 18" fill="none" xmlns="http://www.w3.org/2000/svg">
<path d="M8.73743 0C7.27064 0 6.0214 0.938672 5.56171 2.25H4.24581C3.00711 2.25 2 3.25898 2 4.5V15.75C2 16.991 3.00711 18 4.24581 18H13.229C14.4678 18 15.4749 16.991 15.4749 15.75V4.5C15.4749 3.25898 14.4678 2.25 13.229 2.25H11.9131C11.4535 0.938672 10.2042 0 8.73743 0ZM8.73743 2.25C9.03524 2.25 9.32086 2.36853 9.53144 2.5795C9.74203 2.79048 9.86034 3.07663 9.86034 3.375C9.86034 3.67337 9.74203 3.95952 9.53144 4.1705C9.32086 4.38147 9.03524 4.5 8.73743 4.5C8.43962 4.5 8.154 4.38147 7.94342 4.1705C7.73283 3.95952 7.61452 3.67337 7.61452 3.375C7.61452 3.07663 7.73283 2.79048 7.94342 2.5795C8.154 2.36853 8.43962 2.25 8.73743 2.25ZM8.5725 6.91523C8.79007 7.1332 8.79007 7.4918 8.5725 7.70977L6.32669 9.95977C6.10913 10.1777 5.7512 10.1777 5.53364 9.95977L4.41074 8.83477C4.19317 8.6168 4.19317 8.2582 4.41074 8.04023C4.6283 7.82227 4.98623 7.82227 5.20379 8.04023L5.93017 8.76797L7.77945 6.91523C7.99701 6.69727 8.35494 6.69727 8.5725 6.91523ZM8.73743 9.5625C8.73743 9.25313 8.99008 9 9.29888 9H12.6676C12.9764 9 13.229 9.25313 13.229 9.5625C13.229 9.87187 12.9764 10.125 12.6676 10.125H9.29888C8.99008 10.125 8.73743 9.87187 8.73743 9.5625ZM8.17598 12.375H12.6676C12.9764 12.375 13.229 12.6281 13.229 12.9375C13.229 13.2469 12.9764 13.5 12.6676 13.5H8.17598C7.86718 13.5 7.61452 13.2469 7.61452 12.9375C7.61452 12.6281 7.86718 12.375 8.17598 12.375ZM4.52654 12.9375C4.52654 12.7137 4.61527 12.4991 4.7732 12.3409C4.93114 12.1826 5.14536 12.0938 5.36872 12.0938C5.59207 12.0938 5.80629 12.1826 5.96423 12.3409C6.12216 12.4991 6.21089 12.7137 6.21089 12.9375C6.21089 13.1613 6.12216 13.3759 5.96423 13.5341C5.80629 13.6924 5.59207 13.7812 5.36872 13.7812C5.14536 13.7812 4.93114 13.6924 4.7732 13.5341C4.61527 13.3759 4.52654 13.1613 4.52654 12.9375Z" fill="black"/>
</svg>
