<svg width="18" height="18" viewBox="0 0 18 18" fill="none" xmlns="http://www.w3.org/2000/svg">
<g clip-path="url(#clip0_803_2408)">
<path d="M9 18C4.02891 18 0 13.9711 0 9C0 4.02891 4.02891 0 9 0C13.9711 0 18 4.02891 18 9C18 13.9711 13.9711 18 9 18ZM8.15625 4.21875V9C8.15625 9.28125 8.29688 9.54492 8.53242 9.70312L11.9074 11.9531C12.2941 12.2133 12.818 12.1078 13.0781 11.7176C13.3383 11.3273 13.2328 10.807 12.8426 10.5469L9.84375 8.55V4.21875C9.84375 3.75117 9.46758 3.375 9 3.375C8.53242 3.375 8.15625 3.75117 8.15625 4.21875Z" fill="black"/>
</g>
<defs>
<clipPath id="clip0_803_2408">
<rect width="18" height="18" fill="white"/>
</clipPath>
</defs>
</svg>
