<svg width="18" height="18" viewBox="0 0 18 18" fill="none" xmlns="http://www.w3.org/2000/svg">
<g clip-path="url(#clip0_1410_3028)">
<path d="M9 0C13.9711 0 18 4.02891 18 9C18 13.9711 13.9711 18 9 18C6.05391 18 3.44074 16.5867 1.79965 14.4C1.61297 14.1504 1.66324 13.7988 1.91145 13.6125C2.16 13.4262 2.51262 13.4754 2.6993 13.725C4.13789 15.6375 6.42305 16.875 9 16.875C13.3488 16.875 16.875 13.3488 16.875 9C16.875 4.65117 13.3488 1.125 9 1.125C5.86055 1.125 3.14684 2.96367 1.88262 5.625H5.0625C5.37187 5.625 5.625 5.87813 5.625 6.1875C5.625 6.49687 5.37187 6.75 5.0625 6.75H0.5625C0.251859 6.75 0 6.49687 0 6.1875V1.6875C0 1.37672 0.251859 1.125 0.5625 1.125C0.873281 1.125 1.125 1.37672 1.125 1.6875V4.60898C2.65992 1.87348 5.61094 0 9 0ZM9 4.5C9.30937 4.5 9.5625 4.75313 9.5625 5.0625V8.76797L12.2098 11.4152C12.4312 11.6332 12.4312 11.9918 12.2098 12.2098C11.9918 12.4312 11.6332 12.4312 11.4152 12.2098L8.60273 9.39727C8.49727 9.2918 8.40586 9.14766 8.40586 9V5.0625C8.40586 4.75313 8.69063 4.5 8.96836 4.5H9Z" fill="black"/>
</g>
<defs>
<clipPath id="clip0_1410_3028">
<rect width="18" height="18" fill="white"/>
</clipPath>
</defs>
</svg>
