<svg width="18" height="18" viewBox="0 0 18 18" fill="none" xmlns="http://www.w3.org/2000/svg">
<g clip-path="url(#clip0_803_2411)">
<path d="M8.4375 3.9375C8.4375 3.62812 8.69063 3.375 9 3.375C9.30937 3.375 9.5625 3.62812 9.5625 3.9375V8.69766L12.6879 10.7824C12.9445 10.9547 13.0148 11.3027 12.8426 11.5629C12.6703 11.8195 12.3223 11.8898 12.0621 11.7176L8.68711 9.46758C8.53242 9.36211 8.40586 9.18633 8.40586 9L8.4375 3.9375ZM9 0C13.9711 0 18 4.02891 18 9C18 13.9711 13.9711 18 9 18C4.02891 18 0 13.9711 0 9C0 4.02891 4.02891 0 9 0ZM1.125 9C1.125 13.3488 4.65117 16.875 9 16.875C13.3488 16.875 16.875 13.3488 16.875 9C16.875 4.65117 13.3488 1.125 9 1.125C4.65117 1.125 1.125 4.65117 1.125 9Z" fill="black"/>
</g>
<defs>
<clipPath id="clip0_803_2411">
<rect width="18" height="18" fill="white"/>
</clipPath>
</defs>
</svg>
