<svg width="18" height="18" viewBox="0 0 18 18" fill="none" xmlns="http://www.w3.org/2000/svg">
<g clip-path="url(#clip0_794_2335)">
<path d="M0 15.75C0 16.991 1.00898 18 2.25 18H10.125C11.366 18 12.375 16.991 12.375 15.75V13.5H7.875C6.01172 13.5 4.5 11.9883 4.5 10.125V5.625H2.25C1.00898 5.625 0 6.63398 0 7.875V15.75ZM7.875 12.375H15.75C16.991 12.375 18 11.366 18 10.125V2.25C18 1.00898 16.991 0 15.75 0H7.875C6.63398 0 5.625 1.00898 5.625 2.25V10.125C5.625 11.366 6.63398 12.375 7.875 12.375Z" fill="black"/>
</g>
<defs>
<clipPath id="clip0_794_2335">
<rect width="18" height="18" fill="white"/>
</clipPath>
</defs>
</svg>
