<svg width="18" height="18" viewBox="0 0 18 18" fill="none" xmlns="http://www.w3.org/2000/svg">
<g clip-path="url(#clip0_794_2334)">
<path d="M2.25 16.875H10.125C10.7473 16.875 11.25 16.3723 11.25 15.75V14.0625C11.25 13.7531 11.5031 13.5 11.8125 13.5C12.1219 13.5 12.375 13.7531 12.375 14.0625V15.75C12.375 16.991 11.366 18 10.125 18H2.25C1.00723 18 0 16.991 0 15.75V7.875C0 6.63398 1.00723 5.625 2.25 5.625H3.9375C4.24687 5.625 4.5 5.87813 4.5 6.1875C4.5 6.49687 4.24687 6.75 3.9375 6.75H2.25C1.62879 6.75 1.125 7.25273 1.125 7.875V15.75C1.125 16.3723 1.62879 16.875 2.25 16.875ZM5.625 2.25C5.625 1.00723 6.63398 0 7.875 0H15.75C16.991 0 18 1.00723 18 2.25V10.125C18 11.366 16.991 12.375 15.75 12.375H7.875C6.63398 12.375 5.625 11.366 5.625 10.125V2.25ZM7.875 11.25H15.75C16.3723 11.25 16.875 10.7473 16.875 10.125V2.25C16.875 1.62879 16.3723 1.125 15.75 1.125H7.875C7.25273 1.125 6.75 1.62879 6.75 2.25V10.125C6.75 10.7473 7.25273 11.25 7.875 11.25Z" fill="black"/>
</g>
<defs>
<clipPath id="clip0_794_2334">
<rect width="18" height="18" fill="white"/>
</clipPath>
</defs>
</svg>
