<svg width="18" height="18" viewBox="0 0 18 18" fill="none" xmlns="http://www.w3.org/2000/svg">
<path d="M8.54451 2.17717C8.51919 2.02529 8.41794 1.89592 8.27451 1.83686C8.13107 1.7778 7.96795 1.79467 7.84139 1.88186L5.85017 3.27684L3.85894 1.88186C3.73238 1.79186 3.56926 1.77498 3.42583 1.83686C3.28239 1.89873 3.18114 2.02529 3.15583 2.17717L2.75927 4.55932L0.377118 4.95588C0.225245 4.98119 0.0958717 5.08244 0.03681 5.22587C-0.0222517 5.36931 -0.00537692 5.53243 0.0818094 5.65899L1.47679 7.65022L0.0818094 9.64144C-0.00818939 9.768 -0.0250642 9.93112 0.03681 10.0746C0.0986841 10.218 0.225245 10.3192 0.377118 10.3446L2.75927 10.7411L3.15583 13.1233C3.18114 13.2751 3.28239 13.4045 3.42583 13.4636C3.56926 13.5226 3.73238 13.5058 3.85894 13.4186L4.54519 12.9405C4.63518 12.3723 4.85456 11.8464 5.17799 11.3992L3.92926 12.2739L3.59739 10.2771C3.56645 10.0886 3.41739 9.93956 3.22614 9.90581L1.22929 9.57394L2.39365 7.90896C2.50334 7.75428 2.50334 7.54897 2.39365 7.39147L1.22929 5.72649L3.22614 5.39462C3.41458 5.36369 3.56364 5.21462 3.59739 5.02338L3.92926 3.02653L5.59423 4.19089C5.74892 4.30058 5.95423 4.30058 6.11173 4.19089L7.7767 3.02653L8.10857 5.02338C8.13951 5.21181 8.28857 5.36087 8.47982 5.39462L10.4767 5.72649L9.34606 7.34366C9.66668 7.25085 10.0042 7.20022 10.3529 7.20022C10.4148 7.20022 10.4795 7.20303 10.5414 7.20585L11.6242 5.65899C11.7113 5.53243 11.731 5.36931 11.6692 5.22587C11.6073 5.08244 11.4807 4.98119 11.3288 4.95588L8.94106 4.55932L8.54451 2.17717ZM6.85984 9.91144C7.07921 9.05082 7.60514 8.31396 8.31951 7.8274C8.32232 7.76834 8.32513 7.70928 8.32513 7.65022C8.32513 6.28336 7.21702 5.17525 5.85017 5.17525C4.48331 5.17525 3.3752 6.28336 3.3752 7.65022C3.3752 9.01707 4.48331 10.1252 5.85017 10.1252C6.21016 10.1252 6.55047 10.0492 6.85984 9.91144ZM7.42515 7.65022C7.42515 8.06793 7.25921 8.46853 6.96385 8.76389C6.66848 9.05926 6.26788 9.22519 5.85017 9.22519C5.43246 9.22519 5.03186 9.05926 4.73649 8.76389C4.44112 8.46853 4.27519 8.06793 4.27519 7.65022C4.27519 7.23251 4.44112 6.8319 4.73649 6.53654C5.03186 6.24117 5.43246 6.07524 5.85017 6.07524C6.26788 6.07524 6.66848 6.24117 6.96385 6.53654C7.25921 6.8319 7.42515 7.23251 7.42515 7.65022ZM8.55013 10.8002C8.55013 9.80737 9.35731 9.0002 10.3501 9.0002C11.1685 9.0002 11.8604 9.54582 12.077 10.2939C12.1248 10.4571 12.2598 10.5808 12.4285 10.6117C12.5973 10.6427 12.766 10.5752 12.8701 10.4402C13.1176 10.1111 13.5085 9.90019 13.9501 9.90019C14.6954 9.90019 15.3 10.5049 15.3 11.2502C15.3 11.4977 15.2353 11.7255 15.12 11.9252C15.0385 12.0658 15.0385 12.2373 15.12 12.3752C15.2016 12.513 15.3478 12.6001 15.511 12.6001H15.7444H15.75C16.4953 12.6001 17.1 13.2048 17.1 13.9501C17.1 14.6954 16.4953 15.3001 15.75 15.3001C15.7332 15.3001 15.7163 15.3001 15.6994 15.3001H15.691H15.6853H8.18732C8.1817 15.3001 8.17607 15.3001 8.17045 15.3001C8.14795 15.3001 8.12545 15.3001 8.10576 15.3001C7.11296 15.3001 6.30579 14.4929 6.30579 13.5001C6.30579 12.5073 7.11296 11.7002 8.10576 11.7002C8.11701 11.7002 8.12826 11.7002 8.14232 11.7002C8.28013 11.703 8.40951 11.6439 8.49669 11.537C8.58388 11.4302 8.62044 11.2924 8.59232 11.1602C8.56982 11.0449 8.55576 10.9239 8.55576 10.8002H8.55013ZM10.3501 8.10021C8.8595 8.10021 7.65014 9.30957 7.65014 10.8002V10.8367C6.37329 11.0505 5.40017 12.1614 5.40017 13.5001C5.40017 14.9907 6.60953 16.2001 8.10014 16.2001C8.13107 16.2001 8.1592 16.2001 8.19014 16.1973H15.6741C15.6994 16.1973 15.7247 16.1973 15.75 16.1973C16.9931 16.1973 18 15.1904 18 13.9473C18 12.8392 17.2013 11.9195 16.1494 11.7339C16.1831 11.5764 16.2028 11.4161 16.2028 11.2502C16.2028 10.0071 15.196 9.0002 13.9529 9.0002C13.4748 9.0002 13.0304 9.14926 12.6648 9.40519C12.1895 8.62333 11.3317 8.10021 10.3501 8.10021Z" fill="black"/>
</svg>
