<svg width="18" height="18" viewBox="0 0 18 18" fill="none" xmlns="http://www.w3.org/2000/svg">
<path d="M8.2758 1.83454C8.41926 1.89361 8.52052 2.023 8.54584 2.1749L8.94246 4.55743L11.325 4.95405C11.4769 4.97936 11.6063 5.08063 11.6653 5.22409C11.7244 5.36754 11.7075 5.53069 11.6203 5.65727L10.5374 7.20437C10.4755 7.20155 10.4136 7.19874 10.3489 7.19874C9.6935 7.19874 9.08029 7.37314 8.54865 7.67975V7.64881C8.54865 6.15797 7.33911 4.94842 5.84827 4.94842C4.35743 4.94842 3.14788 6.15797 3.14788 7.64881C3.14788 9.13964 4.35743 10.3492 5.84827 10.3492C6.07611 10.3492 6.29552 10.3211 6.50649 10.2676C5.47697 10.7768 4.72592 11.7613 4.54308 12.9371L3.85674 13.4153C3.73015 13.5053 3.56701 13.5221 3.42355 13.4603C3.28009 13.3984 3.17883 13.2718 3.15351 13.1199L2.7597 10.743L0.377177 10.3464C0.22528 10.3211 0.0958867 10.2198 0.0368157 10.0763C-0.0222552 9.93288 -0.00537776 9.76973 0.0818222 9.64315L1.47702 7.65162L0.0818222 5.66008C-0.00819067 5.5335 -0.0250681 5.37036 0.0368157 5.2269C0.0986996 5.08344 0.22528 4.98218 0.377177 4.95686L2.7597 4.56024L3.15632 2.17771C3.18164 2.02582 3.2829 1.89642 3.42636 1.83735C3.56982 1.77828 3.73297 1.79516 3.85955 1.88236L5.85108 3.27756L7.84262 1.88236C7.9692 1.79235 8.13234 1.77547 8.2758 1.83735V1.83454ZM4.05083 7.65162C4.05083 7.17416 4.24049 6.71626 4.57811 6.37864C4.91572 6.04103 5.37362 5.85136 5.85108 5.85136C6.32854 5.85136 6.78644 6.04103 7.12406 6.37864C7.46167 6.71626 7.65134 7.17416 7.65134 7.65162C7.65134 8.12908 7.46167 8.58698 7.12406 8.92459C6.78644 9.26221 6.32854 9.45188 5.85108 9.45188C5.37362 9.45188 4.91572 9.26221 4.57811 8.92459C4.24049 8.58698 4.05083 8.12908 4.05083 7.65162ZM18 13.9497C18 15.193 16.993 16.2 15.7497 16.2H8.1014C6.61056 16.2 5.40102 14.9905 5.40102 13.4996C5.40102 12.1607 6.37428 11.0524 7.65134 10.8386V10.8021C7.65134 9.31123 8.86089 8.10168 10.3517 8.10168C11.3334 8.10168 12.1914 8.62488 12.6639 9.40687C13.0296 9.15089 13.474 9.00181 13.9522 9.00181C15.1955 9.00181 16.2026 10.0088 16.2026 11.2521C16.2026 11.4181 16.1857 11.5812 16.1491 11.736C17.2011 11.9244 18 12.8442 18 13.9497Z" fill="black"/>
</svg>
