<svg width="18" height="18" viewBox="0 0 18 18" fill="none" xmlns="http://www.w3.org/2000/svg">
<g clip-path="url(#clip0_1660_4160)">
<path d="M5.625 2.86523C5.625 2.94961 5.6707 3.1043 5.9168 3.31523C5.96602 3.35742 6.01875 3.39961 6.07852 3.4418C5.53711 3.46289 5.00977 3.50859 4.5 3.57891V2.86523C4.5 2.32734 4.80234 1.89141 5.18203 1.56445C5.56523 1.23398 6.08555 0.963281 6.6832 0.748828C7.87852 0.309375 9.49219 0.0527344 11.25 0.0527344C13.0078 0.0527344 14.6215 0.309375 15.8168 0.745313C16.4109 0.963281 16.9348 1.23398 17.318 1.56094C17.6977 1.89141 18 2.32734 18 2.86523V6.52148V10.5258C18 11.0672 17.7117 11.5172 17.3285 11.8617C16.9453 12.2063 16.425 12.491 15.8273 12.7195C15.4617 12.8566 15.0609 12.9797 14.6285 13.0816V11.9215C14.9168 11.8441 15.184 11.7598 15.4301 11.6684C15.9539 11.468 16.3371 11.2465 16.5797 11.0285C16.8223 10.8105 16.8785 10.6383 16.8785 10.5293V8.19844C16.5727 8.39531 16.2176 8.56758 15.8273 8.71523C15.4617 8.85234 15.0609 8.97539 14.6285 9.07734V7.91719C14.9168 7.83984 15.184 7.75547 15.4301 7.66406C15.9539 7.46367 16.3371 7.24219 16.5797 7.02422C16.8223 6.80625 16.8785 6.63398 16.8785 6.525V4.48594C16.5691 4.67578 16.2105 4.84102 15.8203 4.98164C15.2121 5.20312 14.4984 5.37891 13.7109 5.49492C13.6441 5.42812 13.5773 5.36133 13.5105 5.30156C13.1555 4.98164 12.7477 4.725 12.3223 4.51055C13.5457 4.42969 14.6215 4.21523 15.4336 3.91992C15.9574 3.73008 16.3406 3.51562 16.5867 3.3082C16.8328 3.09727 16.8785 2.94258 16.8785 2.8582C16.8785 2.77383 16.8328 2.61914 16.5867 2.4082C16.3441 2.20078 15.9609 1.98633 15.4336 1.79648C14.3895 1.42383 12.9094 1.17773 11.25 1.17773C9.59062 1.17773 8.11055 1.42383 7.06641 1.80352C6.54258 1.99336 6.15937 2.20781 5.91328 2.41523C5.66719 2.62617 5.62148 2.78086 5.62148 2.86523H5.625ZM1.125 7.36523C1.125 7.44961 1.1707 7.6043 1.4168 7.81523C1.65937 8.02266 2.04258 8.23711 2.56992 8.42695C3.61055 8.80664 5.09062 9.05273 6.75 9.05273C8.40938 9.05273 9.88945 8.80664 10.9336 8.42695C11.4574 8.23711 11.8406 8.02266 12.0867 7.81523C12.3328 7.6043 12.3785 7.44961 12.3785 7.36523C12.3785 7.28086 12.3328 7.12617 12.0867 6.91523C11.8441 6.70781 11.4609 6.49336 10.9336 6.30352C9.88945 5.92383 8.40938 5.67773 6.75 5.67773C5.09062 5.67773 3.61055 5.92383 2.56641 6.30352C2.04258 6.49336 1.65938 6.70781 1.41328 6.91523C1.16719 7.12617 1.12148 7.28086 1.12148 7.36523H1.125ZM0 7.36523C0 6.82734 0.302344 6.39141 0.682031 6.06445C1.06523 5.73398 1.58555 5.46328 2.1832 5.24883C3.37852 4.80938 4.99219 4.55273 6.75 4.55273C8.50781 4.55273 10.1215 4.80937 11.3168 5.24531C11.9109 5.46328 12.4348 5.73398 12.818 6.06094C13.2012 6.38789 13.5 6.82734 13.5 7.36172V11.018V15.0223C13.5 15.5637 13.2117 16.0137 12.8285 16.3582C12.4453 16.7027 11.925 16.9875 11.3273 17.216C10.1285 17.6766 8.50781 17.9473 6.75 17.9473C4.99219 17.9473 3.37148 17.6766 2.17617 17.2195C1.57852 16.991 1.0582 16.7062 0.675 16.3617C0.291797 16.0172 0 15.5672 0 15.0258V11.0215V7.36523ZM12.375 8.98594C12.0656 9.17578 11.707 9.34102 11.3168 9.48164C10.1215 9.92109 8.50781 10.1777 6.75 10.1777C4.99219 10.1777 3.37852 9.92109 2.1832 9.48516C1.79297 9.34453 1.43438 9.1793 1.125 8.98945V11.0215C1.125 11.1305 1.18125 11.3027 1.42383 11.5207C1.66641 11.7387 2.04961 11.9637 2.57344 12.1605C3.61758 12.5578 5.09062 12.8145 6.75 12.8145C8.40938 12.8145 9.88242 12.5578 10.9266 12.1605C11.4504 11.9602 11.8336 11.7387 12.0762 11.5207C12.3188 11.3027 12.375 11.1305 12.375 11.0215V8.98594ZM1.125 15.0258C1.125 15.1348 1.18125 15.307 1.42383 15.525C1.66641 15.743 2.04961 15.968 2.57344 16.1648C3.61758 16.5621 5.09062 16.8223 6.75 16.8223C8.40938 16.8223 9.88242 16.5656 10.9266 16.1684C11.4504 15.968 11.8336 15.7465 12.0762 15.5285C12.3188 15.3105 12.375 15.1383 12.375 15.0293V12.6984C12.0691 12.8953 11.7141 13.0676 11.3238 13.2152C10.1285 13.6723 8.50781 13.9395 6.75 13.9395C4.99219 13.9395 3.37148 13.6687 2.17617 13.2117C1.78945 13.0641 1.43438 12.8918 1.125 12.6949V15.0223V15.0258Z" fill="black"/>
</g>
<defs>
<clipPath id="clip0_1660_4160">
<rect width="18" height="18" fill="white"/>
</clipPath>
</defs>
</svg>
