<svg width="18" height="18" viewBox="0 0 18 18" fill="none" xmlns="http://www.w3.org/2000/svg">
<g clip-path="url(#clip0_1660_4166)">
<path d="M18 2.8125C18 3.44531 17.4973 4.02891 16.65 4.5C15.627 5.06602 14.1012 5.4668 12.3504 5.58633C12.2203 5.52305 12.0902 5.46328 11.9531 5.41055C10.568 4.83047 8.72578 4.5 6.75 4.5C6.4582 4.5 6.17344 4.50703 5.88867 4.52109L5.85 4.5C5.00273 4.02891 4.5 3.44531 4.5 2.8125C4.5 1.25859 7.52344 0 11.25 0C14.9766 0 18 1.25859 18 2.8125ZM5.64961 5.66367C6.0082 5.63906 6.37734 5.625 6.75 5.625C8.93672 5.625 10.8773 6.05742 12.1113 6.72891C12.9832 7.20352 13.5 7.79414 13.5 8.4375C13.5 8.57812 13.4754 8.71523 13.4262 8.84883C13.2645 9.31289 12.8285 9.73828 12.1957 10.0969C12.1922 10.1004 12.1852 10.1004 12.1816 10.1039C12.1711 10.1109 12.1605 10.1145 12.15 10.1215C10.9195 10.8035 8.95781 11.2465 6.75 11.2465C4.65469 11.2465 2.78086 10.8492 1.53984 10.2234C1.47305 10.1918 1.40977 10.1566 1.34648 10.1215C0.502734 9.65391 0 9.07031 0 8.4375C0 7.21406 1.87734 6.16992 4.5 5.78672C4.86914 5.73398 5.25234 5.6918 5.64961 5.66367ZM14.625 8.4375C14.625 7.66758 14.2523 7.03477 13.7777 6.56016C14.7727 6.40547 15.6832 6.15938 16.4566 5.83945C17.0297 5.60039 17.5641 5.30508 18 4.94297V6.1875C18 6.86602 17.4199 7.4918 16.4602 7.97695C15.9469 8.23711 15.3211 8.45859 14.618 8.62734C14.6215 8.56406 14.625 8.5043 14.625 8.44102V8.4375ZM13.5 11.8125C13.5 12.4453 12.9973 13.0289 12.15 13.5C12.0867 13.5352 12.0234 13.5668 11.9566 13.602C10.7191 14.2277 8.84531 14.625 6.75 14.625C4.54219 14.625 2.58047 14.182 1.35 13.5C0.502734 13.0289 0 12.4453 0 11.8125V10.568C0.439453 10.9301 0.970313 11.2254 1.54336 11.4645C2.93203 12.0445 4.77422 12.375 6.75 12.375C8.72578 12.375 10.568 12.0445 11.9566 11.4645C12.2309 11.352 12.4945 11.2219 12.7441 11.0813C12.9586 10.9617 13.159 10.8281 13.3488 10.6875C13.4016 10.6488 13.4508 10.6066 13.5 10.568V10.6875V10.8879V11.8125ZM14.625 11.8125V10.6875V9.77695C15.293 9.6293 15.9082 9.44297 16.4566 9.21445C17.0297 8.97539 17.5641 8.68008 18 8.31797V9.5625C18 9.93164 17.8242 10.3008 17.4762 10.6488C16.9031 11.2219 15.8941 11.693 14.618 11.9988C14.6215 11.9391 14.625 11.8758 14.625 11.8125ZM6.75 15.75C8.72578 15.75 10.568 15.4195 11.9566 14.8395C12.5297 14.6004 13.0641 14.3051 13.5 13.943V15.1875C13.5 16.7414 10.4766 18 6.75 18C3.02344 18 0 16.7414 0 15.1875V13.943C0.439453 14.3051 0.970313 14.6004 1.54336 14.8395C2.93203 15.4195 4.77422 15.75 6.75 15.75Z" fill="black"/>
</g>
<defs>
<clipPath id="clip0_1660_4166">
<rect width="18" height="18" fill="white"/>
</clipPath>
</defs>
</svg>
