<svg width="18" height="18" viewBox="0 0 18 18" fill="none" xmlns="http://www.w3.org/2000/svg">
<path d="M2 3C1.44687 3 1 3.44687 1 4V5H17V4C17 3.44687 16.5531 3 16 3H2ZM1 6V8H17V6H1ZM1 9V14C1 14.5531 1.44687 15 2 15H16C16.5531 15 17 14.5531 17 14V9H1ZM0 4C0 2.89688 0.896875 2 2 2H16C17.1031 2 18 2.89688 18 4V14C18 15.1031 17.1031 16 16 16H2C0.896875 16 0 15.1031 0 14V4ZM3 12.5C3 12.225 3.225 12 3.5 12H5.5C5.775 12 6 12.225 6 12.5C6 12.775 5.775 13 5.5 13H3.5C3.225 13 3 12.775 3 12.5ZM7 12.5C7 12.225 7.225 12 7.5 12H11.5C11.775 12 12 12.225 12 12.5C12 12.775 11.775 13 11.5 13H7.5C7.225 13 7 12.775 7 12.5Z" fill="black"/>
</svg>
