<svg width="18" height="18" viewBox="0 0 18 18" fill="none" xmlns="http://www.w3.org/2000/svg">
<path d="M2 2C0.896875 2 0 2.89688 0 4V5H18V4C18 2.89688 17.1031 2 16 2H2ZM18 8H0V14C0 15.1031 0.896875 16 2 16H16C17.1031 16 18 15.1031 18 14V8ZM3.5 12H5.5C5.775 12 6 12.225 6 12.5C6 12.775 5.775 13 5.5 13H3.5C3.225 13 3 12.775 3 12.5C3 12.225 3.225 12 3.5 12ZM7 12.5C7 12.225 7.225 12 7.5 12H11.5C11.775 12 12 12.225 12 12.5C12 12.775 11.775 13 11.5 13H7.5C7.225 13 7 12.775 7 12.5Z" fill="black"/>
</svg>
