<svg width="18" height="18" viewBox="0 0 18 18" fill="none" xmlns="http://www.w3.org/2000/svg">
<path d="M15.3 5.4001C15.3 4.90229 14.8978 4.5001 14.4 4.5001H5.77406C5.535 4.5001 5.30719 4.59572 5.13844 4.76447L0.9 9.0001L5.13563 13.2357C5.30438 13.4045 5.53219 13.5001 5.77125 13.5001H14.4C14.8978 13.5001 15.3 13.0979 15.3 12.6001V5.4001ZM14.4 3.6001C15.3928 3.6001 16.2 4.40729 16.2 5.4001V12.6001C16.2 13.5929 15.3928 14.4001 14.4 14.4001H5.77406C5.29594 14.4001 4.8375 14.2117 4.5 13.8742L0.264375 9.63572C0.095625 9.46697 0 9.23916 0 9.0001C0 8.76104 0.095625 8.53322 0.264375 8.36447L4.5 4.12604C4.8375 3.78854 5.29594 3.6001 5.77406 3.6001H14.4ZM11.7928 7.10729C11.9672 7.28166 11.9672 7.56854 11.7928 7.74291L10.5356 9.0001L11.7928 10.2573C11.9672 10.4317 11.9672 10.7185 11.7928 10.8929C11.6184 11.0673 11.3316 11.0673 11.1572 10.8929L9.9 9.63572L8.64281 10.8929C8.46844 11.0673 8.18156 11.0673 8.00719 10.8929C7.83281 10.7185 7.83281 10.4317 8.00719 10.2573L9.26437 9.0001L8.00719 7.74291C7.83281 7.56854 7.83281 7.28166 8.00719 7.10729C8.18156 6.93291 8.46844 6.93291 8.64281 7.10729L9.9 8.36447L11.1572 7.10729C11.3316 6.93291 11.6184 6.93291 11.7928 7.10729Z" fill="black"/>
</svg>
