<svg width="18" height="18" viewBox="0 0 18 18" fill="none" xmlns="http://www.w3.org/2000/svg">
<path d="M16.2 5.4001C16.2 4.40729 15.3928 3.6001 14.4 3.6001H5.77406C5.29594 3.6001 4.8375 3.78854 4.5 4.12604L0.264375 8.36447C0.095625 8.53322 0 8.76104 0 9.0001C0 9.23916 0.095625 9.46697 0.264375 9.63572L4.5 13.8742C4.8375 14.2117 5.29594 14.4001 5.77406 14.4001H14.4C15.3928 14.4001 16.2 13.5929 16.2 12.6001V5.4001ZM7.99031 7.09041C8.25469 6.82604 8.68219 6.82604 8.94375 7.09041L9.89719 8.04385L10.8506 7.09041C11.115 6.82604 11.5425 6.82604 11.8041 7.09041C12.0656 7.35479 12.0684 7.78229 11.8041 8.04385L10.8506 8.99729L11.8041 9.95072C12.0684 10.2151 12.0684 10.6426 11.8041 10.9042C11.5397 11.1657 11.1122 11.1685 10.8506 10.9042L9.89719 9.95072L8.94375 10.9042C8.67938 11.1685 8.25188 11.1685 7.99031 10.9042C7.72875 10.6398 7.72594 10.2123 7.99031 9.95072L8.94375 8.99729L7.99031 8.04385C7.72594 7.77947 7.72594 7.35197 7.99031 7.09041Z" fill="black"/>
</svg>
