<svg width="18" height="18" viewBox="0 0 18 18" fill="none" xmlns="http://www.w3.org/2000/svg">
<path d="M16 2H2C1.44687 2 1 2.44687 1 3V9H17V3C17 2.44687 16.5531 2 16 2ZM18 9V10V12C18 13.1031 17.1031 14 16 14H11.3406L11.675 16H13.5C13.775 16 14 16.225 14 16.5C14 16.775 13.775 17 13.5 17H11.25H6.75H4.5C4.225 17 4 16.775 4 16.5C4 16.225 4.225 16 4.5 16H6.325L6.65938 14H2C0.896875 14 0 13.1031 0 12V10V9V3C0 1.89688 0.896875 1 2 1H16C17.1031 1 18 1.89688 18 3V9ZM1 10V12C1 12.5531 1.44687 13 2 13H7.24062C7.24687 13 7.25313 13 7.25938 13H10.7406C10.7469 13 10.7531 13 10.7594 13H16C16.5531 13 17 12.5531 17 12V10H1ZM7.34062 16H10.6594L10.325 14H7.675L7.34062 16Z" fill="black"/>
</svg>
