<svg width="18" height="18" viewBox="0 0 18 18" fill="none" xmlns="http://www.w3.org/2000/svg">
<g clip-path="url(#clip0_2824_39266)">
<path d="M9.5625 0.5625C9.5625 0.253125 9.30937 0 9 0C8.69063 0 8.4375 0.253125 8.4375 0.5625V11.5805L4.89727 8.04023C4.6793 7.82227 4.3207 7.82227 4.10273 8.04023C3.88477 8.2582 3.88477 8.6168 4.10273 8.83477L8.60273 13.3348C8.8207 13.5527 9.1793 13.5527 9.39727 13.3348L13.8973 8.83477C14.1152 8.6168 14.1152 8.2582 13.8973 8.04023C13.6793 7.82227 13.3207 7.82227 13.1027 8.04023L9.5625 11.5805V0.5625ZM4.92539 11.25H2.25C1.00898 11.25 0 12.259 0 13.5V15.75C0 16.991 1.00898 18 2.25 18H15.75C16.991 18 18 16.991 18 15.75V13.5C18 12.259 16.991 11.25 15.75 11.25H13.0746L11.9496 12.375H15.75C16.3723 12.375 16.875 12.8777 16.875 13.5V15.75C16.875 16.3723 16.3723 16.875 15.75 16.875H2.25C1.62773 16.875 1.125 16.3723 1.125 15.75V13.5C1.125 12.8777 1.62773 12.375 2.25 12.375H6.05039L4.92539 11.25ZM15.1875 14.625C15.1875 14.4012 15.0986 14.1866 14.9404 14.0284C14.7821 13.8701 14.5675 13.7812 14.3438 13.7812C14.12 13.7812 13.9054 13.8701 13.7471 14.0284C13.5889 14.1866 13.5 14.4012 13.5 14.625C13.5 14.8488 13.5889 15.0634 13.7471 15.2216C13.9054 15.3799 14.12 15.4688 14.3438 15.4688C14.5675 15.4688 14.7821 15.3799 14.9404 15.2216C15.0986 15.0634 15.1875 14.8488 15.1875 14.625Z" fill="black"/>
</g>
<defs>
<clipPath id="clip0_2824_39266">
<rect width="18" height="18" fill="white"/>
</clipPath>
</defs>
</svg>
