<svg width="18" height="18" viewBox="0 0 18 18" fill="none" xmlns="http://www.w3.org/2000/svg">
<g clip-path="url(#clip0_11191_1695)">
<path d="M1.9582 7.0207L3.04453 8.10703C3.25547 8.31797 3.54023 8.4375 3.83906 8.4375H4.59492C4.89375 8.4375 5.17852 8.55703 5.38945 8.76797L6.41953 9.79805C6.63047 10.009 6.75 10.2937 6.75 10.5926V11.9109C6.75 12.2098 6.86953 12.4945 7.08047 12.7055L7.54805 13.173C7.75898 13.384 7.87852 13.6687 7.87852 13.9676V14.625C7.87852 15.2473 8.38125 15.75 9.00352 15.75C9.62578 15.75 10.1285 15.2473 10.1285 14.625V14.5301C10.1285 14.2312 10.248 13.9465 10.459 13.7355L12.0516 12.143C12.2625 11.932 12.382 11.6473 12.382 11.3484V10.1285C12.382 9.50625 11.8793 9.00352 11.257 9.00352H8.34961C8.05078 9.00352 7.76602 8.88398 7.55508 8.67305L6.99258 8.11055C6.84492 7.96289 6.76055 7.75898 6.76055 7.54805C6.76055 7.10859 7.11562 6.75352 7.55508 6.75352H8.775C9.21445 6.75352 9.56953 6.39844 9.56953 5.95898C9.56953 5.74805 9.48516 5.54414 9.3375 5.39648L8.64492 4.70391C8.50781 4.57031 8.4375 4.39805 8.4375 4.21875C8.4375 4.03945 8.50781 3.86719 8.63789 3.73711L9.24609 3.12891C9.45 2.925 9.56602 2.64727 9.56602 2.35898C9.56602 2.10586 9.48164 1.87734 9.34102 1.69453C9.22852 1.69102 9.11602 1.6875 9.00352 1.6875C5.64961 1.6875 2.82656 3.94453 1.96172 7.0207H1.9582ZM16.3125 9C16.3125 7.78359 16.0172 6.6375 15.4898 5.63203C15.2648 5.66367 15.0434 5.76914 14.8605 5.95195L14.3895 6.42305C14.1785 6.63398 14.059 6.91875 14.059 7.21758V8.4375C14.059 9.05977 14.5617 9.5625 15.184 9.5625H16.0312C16.1191 9.5625 16.207 9.55195 16.2879 9.53438C16.302 9.35859 16.3055 9.1793 16.3055 9H16.3125ZM0 9C0 4.02891 4.02891 0 9 0C13.9711 0 18 4.02891 18 9C18 13.9711 13.9711 18 9 18C4.02891 18 0 13.9711 0 9Z" fill="black"/>
</g>
<defs>
<clipPath id="clip0_11191_1695">
<rect width="18" height="18" fill="white"/>
</clipPath>
</defs>
</svg>
