<svg width="18" height="18" viewBox="0 0 18 18" fill="none" xmlns="http://www.w3.org/2000/svg">
<path d="M9.25 13.5C9.87121 13.5 10.375 14.0027 10.375 14.625C10.375 15.2473 9.87121 15.75 9.25 15.75C8.62879 15.75 8.125 15.2473 8.125 14.625C8.125 14.0027 8.62879 13.5 9.25 13.5ZM9.25 7.875C9.87121 7.875 10.375 8.37773 10.375 9C10.375 9.62227 9.87121 10.125 9.25 10.125C8.62879 10.125 8.125 9.62227 8.125 9C8.125 8.37773 8.62879 7.875 9.25 7.875ZM9.25 4.5C8.62879 4.5 8.125 3.99727 8.125 3.375C8.125 2.75379 8.62879 2.25 9.25 2.25C9.87121 2.25 10.375 2.75379 10.375 3.375C10.375 3.99727 9.87121 4.5 9.25 4.5Z" fill="black"/>
</svg>
