<svg width="18" height="18" viewBox="0 0 18 18" fill="none" xmlns="http://www.w3.org/2000/svg">
<path d="M9.25 12.6562C10.3363 12.6562 11.2188 13.5387 11.2188 14.625C11.2188 15.7113 10.3363 16.5938 9.25 16.5938C8.16367 16.5938 7.28125 15.7113 7.28125 14.625C7.28125 13.5387 8.16367 12.6562 9.25 12.6562ZM9.25 7.03125C10.3363 7.03125 11.2188 7.91367 11.2188 9C11.2188 10.0863 10.3363 10.9688 9.25 10.9688C8.16367 10.9688 7.28125 10.0863 7.28125 9C7.28125 7.91367 8.16367 7.03125 9.25 7.03125ZM11.2188 3.375C11.2188 4.46133 10.3363 5.34375 9.25 5.34375C8.16367 5.34375 7.28125 4.46133 7.28125 3.375C7.28125 2.28867 8.16367 1.40625 9.25 1.40625C10.3363 1.40625 11.2188 2.28867 11.2188 3.375Z" fill="black"/>
</svg>
