<svg width="18" height="18" viewBox="0 0 18 18" fill="none" xmlns="http://www.w3.org/2000/svg">
<path d="M2.25 3.375C1.62773 3.375 1.125 3.87773 1.125 4.5V5.90273L8.00156 10.9441C8.5957 11.3801 9.4043 11.3801 9.99844 10.9441L16.875 5.90273V4.5C16.875 3.87773 16.3723 3.375 15.75 3.375H2.25ZM1.125 7.29844V13.5C1.125 14.1223 1.62773 14.625 2.25 14.625H15.75C16.3723 14.625 16.875 14.1223 16.875 13.5V7.29844L10.6629 11.8512C9.67148 12.5754 8.325 12.5754 7.33711 11.8512L1.125 7.29844ZM0 4.5C0 3.25898 1.00898 2.25 2.25 2.25H15.75C16.991 2.25 18 3.25898 18 4.5V13.5C18 14.741 16.991 15.75 15.75 15.75H2.25C1.00898 15.75 0 14.741 0 13.5V4.5Z" fill="black"/>
</svg>
