<svg width="18" height="18" viewBox="0 0 18 18" fill="none" xmlns="http://www.w3.org/2000/svg">
<path d="M6.0625 1C6.37187 1 6.625 1.25312 6.625 1.5625C6.625 1.87187 6.37187 2.125 6.0625 2.125H2.125V6.0625C2.125 6.37187 1.87187 6.625 1.5625 6.625C1.25312 6.625 1 6.37187 1 6.0625V1.5625C1 1.25312 1.25312 1 1.5625 1H6.0625ZM1 11.6875C1 11.3781 1.25312 11.125 1.5625 11.125C1.87187 11.125 2.125 11.3781 2.125 11.6875V15.625H6.0625C6.37187 15.625 6.625 15.8781 6.625 16.1875C6.625 16.4969 6.37187 16.75 6.0625 16.75H1.5625C1.25312 16.75 1 16.4969 1 16.1875V11.6875ZM16.1875 1C16.4969 1 16.75 1.25312 16.75 1.5625V6.0625C16.75 6.37187 16.4969 6.625 16.1875 6.625C15.8781 6.625 15.625 6.37187 15.625 6.0625V2.125H11.6875C11.3781 2.125 11.125 1.87187 11.125 1.5625C11.125 1.25312 11.3781 1 11.6875 1H16.1875ZM15.625 11.6875C15.625 11.3781 15.8781 11.125 16.1875 11.125C16.4969 11.125 16.75 11.3781 16.75 11.6875V16.1875C16.75 16.4969 16.4969 16.75 16.1875 16.75H11.6875C11.3781 16.75 11.125 16.4969 11.125 16.1875C11.125 15.8781 11.3781 15.625 11.6875 15.625H15.625V11.6875Z" fill="black"/>
</svg>
