<svg width="18" height="18" viewBox="0 0 18 18" fill="none" xmlns="http://www.w3.org/2000/svg">
<path d="M2.125 1C1.50273 1 1 1.50273 1 2.125V5.5C1 6.12227 1.50273 6.625 2.125 6.625C2.74727 6.625 3.25 6.12227 3.25 5.5V3.25H5.5C6.12227 3.25 6.625 2.74727 6.625 2.125C6.625 1.50273 6.12227 1 5.5 1H2.125ZM3.25 12.25C3.25 11.6277 2.74727 11.125 2.125 11.125C1.50273 11.125 1 11.6277 1 12.25V15.625C1 16.2473 1.50273 16.75 2.125 16.75H5.5C6.12227 16.75 6.625 16.2473 6.625 15.625C6.625 15.0027 6.12227 14.5 5.5 14.5H3.25V12.25ZM12.25 1C11.6277 1 11.125 1.50273 11.125 2.125C11.125 2.74727 11.6277 3.25 12.25 3.25H14.5V5.5C14.5 6.12227 15.0027 6.625 15.625 6.625C16.2473 6.625 16.75 6.12227 16.75 5.5V2.125C16.75 1.50273 16.2473 1 15.625 1H12.25ZM16.75 12.25C16.75 11.6277 16.2473 11.125 15.625 11.125C15.0027 11.125 14.5 11.6277 14.5 12.25V14.5H12.25C11.6277 14.5 11.125 15.0027 11.125 15.625C11.125 16.2473 11.6277 16.75 12.25 16.75H15.625C16.2473 16.75 16.75 16.2473 16.75 15.625V12.25Z" fill="black"/>
</svg>
