<svg width="18" height="18" viewBox="0 0 18 18" fill="none" xmlns="http://www.w3.org/2000/svg">
<g clip-path="url(#clip0_10924_23021)">
<path d="M1.28058 0.220274C0.986804 -0.0734248 0.511763 -0.0734248 0.221113 0.220274C-0.0695373 0.513973 -0.0726626 0.988891 0.217988 1.28259L16.7194 17.7797C17.0132 18.0734 17.4882 18.0734 17.7789 17.7797C18.0695 17.486 18.0727 17.0111 17.7789 16.7205L14.7661 13.7086C14.8505 13.6336 14.9349 13.5586 15.0161 13.4836C16.4788 12.1245 17.457 10.5029 17.9226 9.38743C18.0258 9.1406 18.0258 8.86565 17.9226 8.61882C17.457 7.50339 16.4788 5.87867 15.0161 4.52265C13.5441 3.15726 11.5221 2.00434 8.99687 2.00434C7.22172 2.00434 5.69659 2.57299 4.43398 3.38535L1.28058 0.220274ZM6.3904 5.33189C7.12484 4.80698 8.02804 4.49766 9 4.49766C11.4846 4.49766 13.5004 6.51293 13.5004 8.99688C13.5004 9.96858 13.191 10.8684 12.6659 11.6058L11.5815 10.5216C11.9784 9.85298 12.1128 9.03125 11.8971 8.21889C11.469 6.61916 9.82195 5.66933 8.22181 6.09738C7.95303 6.16924 7.69989 6.27547 7.47174 6.40982L6.38727 5.32564L6.3904 5.33189ZM10.1657 13.343C9.79382 13.443 9.40316 13.4961 9 13.4961C6.51541 13.4961 4.49961 11.4808 4.49961 8.99688C4.49961 8.59382 4.55274 8.20326 4.65275 7.83145L2.16816 5.34751C1.14932 6.49731 0.449258 7.71585 0.0773505 8.61257C-0.0257835 8.8594 -0.0257835 9.13435 0.0773505 9.38118C0.543016 10.4966 1.52123 12.1213 2.98385 13.4773C4.45586 14.8427 6.47791 15.9957 9.00313 15.9957C10.1689 15.9957 11.2283 15.7488 12.1753 15.352L10.1689 13.3461L10.1657 13.343Z" fill="black"/>
</g>
<defs>
<clipPath id="clip0_10924_23021">
<rect width="18" height="18" fill="white"/>
</clipPath>
</defs>
</svg>
