<svg width="18" height="18" viewBox="0 0 18 18" fill="none" xmlns="http://www.w3.org/2000/svg">
<path d="M13 9C13 11.2094 11.2094 13 9 13C6.79063 13 5 11.2094 5 9C5 6.79063 6.79063 5 9 5C11.2094 5 13 6.79063 13 9ZM9 6C7.31563 6 6 7.31563 6 9C6 10.6562 7.31563 12 9 12C10.6563 12 12 10.6562 12 9C12 7.31563 10.6563 6 9 6ZM15.0188 4.51875C16.4813 5.875 17.4594 7.47188 17.9219 8.61562C18.025 8.8625 18.025 9.1375 17.9219 9.38437C17.4594 10.5 16.4813 12.0969 15.0188 13.4812C13.5469 14.85 11.525 16 9 16C6.475 16 4.45313 14.85 2.98188 13.4812C1.51938 12.0969 0.541879 10.5 0.0769102 9.38437C-0.0256367 9.1375 -0.0256367 8.8625 0.0769102 8.61562C0.541879 7.47188 1.51938 5.875 2.98188 4.51875C4.45313 3.15125 6.475 2 9 2C11.525 2 13.5469 3.15125 15.0188 4.51875ZM1 9C1.41657 10 2.31657 11.5 3.6625 12.75C5.00938 14 6.8 15 9 15C11.2 15 12.9906 14 14.3375 12.75C15.6844 11.5 16.5844 10 17 9C16.5844 7.97188 15.6844 6.47188 14.3375 5.25C12.9906 3.99969 11.2 3 9 3C6.8 3 5.00938 3.99969 3.6625 5.25C2.31657 6.47188 1.41657 7.97188 1 9Z" fill="black"/>
</svg>
