<svg width="18" height="18" viewBox="0 0 18 18" fill="none" xmlns="http://www.w3.org/2000/svg">
<g clip-path="url(#clip0_10924_23025)">
<path d="M0.852418 0.145338C0.658651 -0.0484459 0.339873 -0.0484459 0.146106 0.145338C-0.0476604 0.339121 -0.0476604 0.657927 0.146106 0.85171L17.1476 17.8547C17.3414 18.0484 17.6601 18.0484 17.8539 17.8547C18.0477 17.6609 18.0477 17.3421 17.8539 17.1483L14.5755 13.8696C14.7286 13.7414 14.8755 13.6133 15.0161 13.4789C16.4788 12.1193 17.457 10.4971 17.9226 9.38132C18.0258 9.1344 18.0258 8.85935 17.9226 8.61243C17.457 7.49661 16.4788 5.87133 15.0161 4.51485C13.5441 3.14898 11.5221 1.99566 8.99688 1.99566C7.12171 1.99566 5.5247 2.63014 4.22146 3.5178L0.852418 0.145338ZM4.94652 4.2398C6.08412 3.49905 7.43737 2.99583 9 2.99583C13.4004 2.99583 16.1662 6.99653 17.0007 8.99687C16.585 9.99705 15.685 11.4973 14.338 12.7475C14.1848 12.8882 14.0286 13.0257 13.866 13.1601L12.1597 11.4536C12.6878 10.7753 13.0003 9.92516 13.0003 9C13.0003 6.79024 11.2096 4.99931 9 4.99931C8.07492 4.99931 7.22172 5.31186 6.54666 5.84008L4.94652 4.2398ZM11.444 10.7378L7.25922 6.5527C7.74989 6.20264 8.34995 5.99635 9 5.99635C10.6564 5.99635 12.0003 7.34034 12.0003 8.99687C12.0003 9.64699 11.794 10.2471 11.444 10.7378ZM2.33692 5.16183C1.22745 6.36517 0.471135 7.66852 0.0773505 8.61243C-0.0257835 8.85935 -0.0257835 9.1344 0.0773505 9.38132C0.543016 10.4971 1.52123 12.1224 2.98385 13.4789C4.45586 14.8448 6.47791 15.9981 9.00313 15.9981C10.272 15.9981 11.4127 15.7074 12.4222 15.2448L11.6565 14.4822C10.8502 14.8041 9.96571 14.9979 9 14.9979C4.59962 14.9979 1.83375 10.9972 0.999306 8.99687C1.34934 8.15923 2.0369 6.9684 3.04323 5.86821L2.33692 5.16183Z" fill="black"/>
</g>
<defs>
<clipPath id="clip0_10924_23025">
<rect width="18" height="18" fill="white"/>
</clipPath>
</defs>
</svg>
