<svg width="18" height="18" viewBox="0 0 18 18" fill="none" xmlns="http://www.w3.org/2000/svg">
<g clip-path="url(#clip0_718_2148)">
<path d="M8.99995 2C6.47495 2 4.45308 3.15 2.9812 4.51875C1.5187 5.875 0.540576 7.5 0.0780762 8.61562C-0.0250488 8.8625 -0.0250488 9.1375 0.0780762 9.38437C0.540576 10.5 1.5187 12.125 2.9812 13.4812C4.45308 14.85 6.47495 16 8.99995 16C11.525 16 13.5468 14.85 15.0187 13.4812C16.4812 12.1219 17.4593 10.5 17.9249 9.38437C18.0281 9.1375 18.0281 8.8625 17.9249 8.61562C17.4593 7.5 16.4812 5.875 15.0187 4.51875C13.5468 3.15 11.525 2 8.99995 2ZM13.5 9C13.5 11.4844 11.4843 13.5 8.99995 13.5C6.51558 13.5 4.49995 11.4844 4.49995 9C4.49995 6.51562 6.51558 4.5 8.99995 4.5C11.4843 4.5 13.5 6.51562 13.5 9ZM8.99995 7C8.99995 8.10313 8.10308 9 6.99995 9C6.64058 9 6.30308 8.90625 6.01245 8.7375C6.0062 8.825 5.99995 8.90938 5.99995 9C5.99995 10.6562 7.3437 12 8.99995 12C10.6562 12 12 10.6562 12 9C12 7.34375 10.6562 6 8.99995 6C8.91245 6 8.82495 6.00312 8.73745 6.0125C8.90308 6.30312 8.99995 6.64062 8.99995 7Z" fill="black"/>
</g>
<defs>
<clipPath id="clip0_718_2148">
<rect width="18" height="18" fill="white"/>
</clipPath>
</defs>
</svg>
