<svg viewBox="0 0 24 24" fill="none" xmlns="http://www.w3.org/2000/svg">
  <path d="M3 8.25V6A3 3 0 0 1 6 3h2.25" stroke="#000" stroke-width="1.7" stroke-linecap="round"/>
  <path d="M15.75 3H18a3 3 0 0 1 3 3v2.25" stroke="#000" stroke-width="1.7" stroke-linecap="round"/>
  <path d="M21 15.75V18a3 3 0 0 1-3 3h-2.25" stroke="#000" stroke-width="1.7" stroke-linecap="round"/>
  <path d="M8.25 21H6a3 3 0 0 1-3-3v-2.25" stroke="#000" stroke-width="1.7" stroke-linecap="round"/>
  <path d="M8.4 9.4v1.7" stroke="#000" stroke-width="1.7" stroke-linecap="round"/>
  <path d="M15.6 9.4v1.7" stroke="#000" stroke-width="1.7" stroke-linecap="round"/>
  <path d="M12 9.4v3.4a1 1 0 0 1-1 1h-.3" stroke="#000" stroke-width="1.7" stroke-linecap="round" stroke-linejoin="round"/>
  <path d="M8.8 16.2c.9.8 2 1.3 3.2 1.3s2.3-.5 3.2-1.3" stroke="#000" stroke-width="1.7" stroke-linecap="round"/>
</svg>
