<svg width="18" height="18" viewBox="0 0 18 18" fill="none" xmlns="http://www.w3.org/2000/svg">
<g clip-path="url(#clip0_1916_18419)">
<path d="M14.4 6.60969C14.4 6.2525 14.2565 5.90937 14.0034 5.65625L10.7465 2.39656C10.4934 2.14344 10.1503 2 9.79309 2H5.39996C4.75309 2 4.18496 2.34312 3.86715 2.855L4.58434 3.42031C4.72777 3.11375 5.03996 2.9 5.39996 2.9H8.99996V6.05C8.99996 6.79531 9.60465 7.4 10.35 7.4H13.5V10.46L14.4 11.1687V6.60969ZM4.49996 14.6V7.94L3.59996 7.23125V14.6C3.59996 15.5928 4.40715 16.4 5.39996 16.4H12.6C13.2468 16.4 13.815 16.0569 14.1328 15.545L13.4156 14.9797C13.2722 15.2862 12.96 15.5 12.6 15.5H5.39996C4.90215 15.5 4.49996 15.0978 4.49996 14.6ZM13.4859 6.5H10.35C10.1025 6.5 9.89996 6.2975 9.89996 6.05V2.91406C9.97871 2.93375 10.0518 2.97312 10.1081 3.03219L13.3678 6.29187C13.4268 6.35094 13.4662 6.42125 13.4859 6.5ZM0.728399 2.09562C0.534337 1.94375 0.250274 1.9775 0.0955869 2.17156C-0.0591006 2.36562 -0.0225381 2.64969 0.171524 2.80437L17.2715 16.3044C17.4656 16.4591 17.7496 16.4253 17.9043 16.2312C18.059 16.0372 18.0253 15.7531 17.8312 15.5984L0.728399 2.09562Z" fill="black"/>
</g>
<defs>
<clipPath id="clip0_1916_18419">
<rect width="18" height="18" fill="white"/>
</clipPath>
</defs>
</svg>
