<svg width="18" height="18" viewBox="0 0 18 18" fill="none" xmlns="http://www.w3.org/2000/svg">
<path d="M14.375 15.75V6.75H10.4375C9.50586 6.75 8.75 5.99414 8.75 5.0625V1.125H4.25C3.62773 1.125 3.125 1.62773 3.125 2.25V15.75C3.125 16.3723 3.62773 16.875 4.25 16.875H13.25C13.8723 16.875 14.375 16.3723 14.375 15.75ZM14.3574 5.625C14.3328 5.52656 14.2836 5.43516 14.2098 5.36484L10.1352 1.29023C10.0613 1.21641 9.97344 1.16719 9.875 1.14258V5.0625C9.875 5.37187 10.1281 5.625 10.4375 5.625H14.3574ZM2 2.25C2 1.00898 3.00898 0 4.25 0H9.73789C10.1844 0 10.6133 0.179297 10.9297 0.495703L15.0043 4.5668C15.3207 4.8832 15.5 5.31211 15.5 5.75859V15.75C15.5 16.991 14.491 18 13.25 18H4.25C3.00898 18 2 16.991 2 15.75V2.25ZM4.25 2.8125C4.25 2.50312 4.50312 2.25 4.8125 2.25H7.0625C7.37187 2.25 7.625 2.50312 7.625 2.8125C7.625 3.12188 7.37187 3.375 7.0625 3.375H4.8125C4.50312 3.375 4.25 3.12188 4.25 2.8125ZM4.25 5.0625C4.25 4.75313 4.50312 4.5 4.8125 4.5H7.0625C7.37187 4.5 7.625 4.75313 7.625 5.0625C7.625 5.37187 7.37187 5.625 7.0625 5.625H4.8125C4.50312 5.625 4.25 5.37187 4.25 5.0625ZM9.3125 8.56406V9.04219C9.6043 9.08086 9.88555 9.13711 10.1457 9.20039C10.448 9.2707 10.6344 9.57656 10.5641 9.87891C10.4938 10.1812 10.1879 10.3676 9.88555 10.2973C9.4918 10.2059 9.10508 10.1355 8.74297 10.1285C8.43711 10.125 8.11367 10.1883 7.88867 10.3078C7.67422 10.4203 7.62852 10.5293 7.62852 10.6383C7.62852 10.691 7.63555 10.7648 7.86055 10.8844C8.10664 11.0145 8.45117 11.1094 8.89414 11.2289L8.91172 11.2324C9.30898 11.3379 9.79766 11.4715 10.1809 11.6859C10.5957 11.918 10.993 12.3082 11.0035 12.948C11.0141 13.6125 10.6309 14.0625 10.1738 14.3156C9.91016 14.4598 9.61484 14.5477 9.31602 14.5934V15.068C9.31602 15.3773 9.06289 15.6305 8.75352 15.6305C8.44414 15.6305 8.19102 15.3773 8.19102 15.068V14.5687C7.80781 14.502 7.4457 14.393 7.12578 14.2945C7.05195 14.2699 6.97813 14.2488 6.90781 14.2277C6.60898 14.1398 6.44023 13.827 6.52813 13.5281C6.61602 13.2293 6.92891 13.0605 7.22773 13.1484C7.31211 13.173 7.39648 13.1977 7.47734 13.2223C7.95547 13.3664 8.34922 13.4859 8.77109 13.5C9.10156 13.5105 9.42148 13.4438 9.62891 13.3277C9.81875 13.2223 9.88203 13.1098 9.87852 12.9621C9.87852 12.8777 9.85039 12.7898 9.63242 12.6668C9.38984 12.5297 9.0418 12.4312 8.60586 12.3152L8.54961 12.3012C8.16289 12.1957 7.69883 12.0727 7.3332 11.8758C6.92891 11.6578 6.51406 11.2816 6.51055 10.6418C6.50703 9.97383 6.92891 9.54141 7.37188 9.30937C7.62852 9.17578 7.91328 9.09141 8.19453 9.0457V8.56406C8.19453 8.25469 8.44766 8.00156 8.75703 8.00156C9.06641 8.00156 9.31953 8.25469 9.31953 8.56406H9.3125Z" fill="black"/>
</svg>
