<svg width="18" height="18" viewBox="0 0 18 18" fill="none" xmlns="http://www.w3.org/2000/svg">
<path d="M13.25 16.875H4.25C3.62773 16.875 3.125 16.3723 3.125 15.75V2.25C3.125 1.62773 3.62773 1.125 4.25 1.125H8.75V5.0625C8.75 5.99414 9.50586 6.75 10.4375 6.75H14.375V15.75C14.375 16.3723 13.8723 16.875 13.25 16.875ZM10.4375 5.625C10.1281 5.625 9.875 5.37187 9.875 5.0625V1.14258C9.97344 1.16719 10.0648 1.21641 10.1352 1.29023L14.2098 5.36484C14.2836 5.43867 14.3328 5.52656 14.3574 5.625H10.4375ZM4.25 0C3.00898 0 2 1.00898 2 2.25V15.75C2 16.991 3.00898 18 4.25 18H13.25C14.491 18 15.5 16.991 15.5 15.75V5.76211C15.5 5.31562 15.3207 4.88672 15.0043 4.57031L10.9332 0.495703C10.6168 0.179297 10.1879 0 9.74141 0H4.25ZM4.25 2.8125C4.25 3.12188 4.50312 3.375 4.8125 3.375H7.0625C7.37187 3.375 7.625 3.12188 7.625 2.8125C7.625 2.50312 7.37187 2.25 7.0625 2.25H4.8125C4.50312 2.25 4.25 2.50312 4.25 2.8125ZM4.25 5.0625C4.25 5.37187 4.50312 5.625 4.8125 5.625H7.0625C7.37187 5.625 7.625 5.37187 7.625 5.0625C7.625 4.75313 7.37187 4.5 7.0625 4.5H4.8125C4.50312 4.5 4.25 4.75313 4.25 5.0625ZM9.875 15.1875C9.875 15.4969 10.1281 15.75 10.4375 15.75H12.6875C12.9969 15.75 13.25 15.4969 13.25 15.1875C13.25 14.8781 12.9969 14.625 12.6875 14.625H10.4375C10.1281 14.625 9.875 14.8781 9.875 15.1875ZM12.125 11.8125H5.375V9.5625H12.125V11.8125ZM5.375 8.4375C4.75273 8.4375 4.25 8.94023 4.25 9.5625V11.8125C4.25 12.4348 4.75273 12.9375 5.375 12.9375H12.125C12.7473 12.9375 13.25 12.4348 13.25 11.8125V9.5625C13.25 8.94023 12.7473 8.4375 12.125 8.4375H5.375Z" fill="black"/>
</svg>
