<svg width="18" height="18" viewBox="0 0 18 18" fill="none" xmlns="http://www.w3.org/2000/svg">
<path d="M4.25 0C3.00898 0 2 1.00898 2 2.25V15.75C2 16.991 3.00898 18 4.25 18H13.25C14.491 18 15.5 16.991 15.5 15.75V5.625H11C10.3777 5.625 9.875 5.12227 9.875 4.5V0H4.25ZM11 0V4.5H15.5L11 0ZM4.8125 2.25H7.0625C7.37187 2.25 7.625 2.50312 7.625 2.8125C7.625 3.12188 7.37187 3.375 7.0625 3.375H4.8125C4.50312 3.375 4.25 3.12188 4.25 2.8125C4.25 2.50312 4.50312 2.25 4.8125 2.25ZM4.8125 4.5H7.0625C7.37187 4.5 7.625 4.75313 7.625 5.0625C7.625 5.37187 7.37187 5.625 7.0625 5.625H4.8125C4.50312 5.625 4.25 5.37187 4.25 5.0625C4.25 4.75313 4.50312 4.5 4.8125 4.5ZM5.375 7.875H12.125C12.7473 7.875 13.25 8.37773 13.25 9V11.25C13.25 11.8723 12.7473 12.375 12.125 12.375H5.375C4.75273 12.375 4.25 11.8723 4.25 11.25V9C4.25 8.37773 4.75273 7.875 5.375 7.875ZM5.375 9V11.25H12.125V9H5.375ZM10.4375 14.625H12.6875C12.9969 14.625 13.25 14.8781 13.25 15.1875C13.25 15.4969 12.9969 15.75 12.6875 15.75H10.4375C10.1281 15.75 9.875 15.4969 9.875 15.1875C9.875 14.8781 10.1281 14.625 10.4375 14.625Z" fill="black"/>
</svg>
