<svg width="18" height="18" viewBox="0 0 18 18" fill="none" xmlns="http://www.w3.org/2000/svg">
<path d="M5.16667 1.125H9.5V4.5C9.5 5.74102 10.4716 6.75 11.6667 6.75H14.9167V15.75C14.9167 16.3723 14.4326 16.875 13.8333 16.875H5.16667C4.56745 16.875 4.08333 16.3723 4.08333 15.75V2.25C4.08333 1.62773 4.56745 1.125 5.16667 1.125ZM10.5833 1.59258L14.4664 5.625H11.6667C11.0674 5.625 10.5833 5.12227 10.5833 4.5V1.59258ZM5.16667 0C3.97161 0 3 1.00898 3 2.25V15.75C3 16.991 3.97161 18 5.16667 18H13.8333C15.0284 18 16 16.991 16 15.75V6.55664C16 5.95898 15.7732 5.38594 15.3669 4.96406L11.2164 0.657422C10.8102 0.235547 10.2617 0 9.6862 0H5.16667ZM6.79167 9C6.49375 9 6.25 9.25313 6.25 9.5625C6.25 9.87187 6.49375 10.125 6.79167 10.125H12.2083C12.5063 10.125 12.75 9.87187 12.75 9.5625C12.75 9.25313 12.5063 9 12.2083 9H6.79167ZM6.79167 12.375C6.49375 12.375 6.25 12.6281 6.25 12.9375C6.25 13.2469 6.49375 13.5 6.79167 13.5H12.2083C12.5063 13.5 12.75 13.2469 12.75 12.9375C12.75 12.6281 12.5063 12.375 12.2083 12.375H6.79167Z" fill="black"/>
</svg>
