<svg width="18" height="18" viewBox="0 0 18 18" fill="none" xmlns="http://www.w3.org/2000/svg">
<path d="M2 2.25C2 1.00898 3.04635 0 4.33333 0H9.78385C10.4036 0 10.9979 0.235547 11.4354 0.657422L15.3182 4.40508C15.7557 4.82695 16 5.4 16 5.99766V15.75C16 16.991 14.9536 18 13.6667 18H4.33333C3.04635 18 2 16.991 2 15.75V2.25ZM9.58333 2.05664V5.34375C9.58333 5.81133 9.97344 6.1875 10.4583 6.1875H13.8672L9.58333 2.05664ZM6.375 9C5.8901 9 5.5 9.37617 5.5 9.84375C5.5 10.3113 5.8901 10.6875 6.375 10.6875H11.625C12.1099 10.6875 12.5 10.3113 12.5 9.84375C12.5 9.37617 12.1099 9 11.625 9H6.375ZM6.375 12.375C5.8901 12.375 5.5 12.7512 5.5 13.2188C5.5 13.6863 5.8901 14.0625 6.375 14.0625H11.625C12.1099 14.0625 12.5 13.6863 12.5 13.2188C12.5 12.7512 12.1099 12.375 11.625 12.375H6.375Z" fill="black"/>
</svg>
