<svg width="18" height="18" viewBox="0 0 18 18" fill="none" xmlns="http://www.w3.org/2000/svg">
<path d="M14.375 15.75V6.75H10.4375C9.50586 6.75 8.75 5.99414 8.75 5.0625V1.125H4.25C3.62773 1.125 3.125 1.62773 3.125 2.25V15.75C3.125 16.3723 3.62773 16.875 4.25 16.875H13.25C13.8723 16.875 14.375 16.3723 14.375 15.75ZM14.3574 5.625C14.3328 5.52656 14.2836 5.43516 14.2098 5.36484L10.1352 1.29023C10.0613 1.21641 9.97344 1.16719 9.875 1.14258V5.0625C9.875 5.37187 10.1281 5.625 10.4375 5.625H14.3574ZM2 2.25C2 1.00898 3.00898 0 4.25 0H9.73789C10.1844 0 10.6133 0.179297 10.9297 0.495703L15.0043 4.5668C15.3207 4.8832 15.5 5.31211 15.5 5.75859V15.75C15.5 16.991 14.491 18 13.25 18H4.25C3.00898 18 2 16.991 2 15.75V2.25Z" fill="black"/>
</svg>
