<svg width="18" height="18" viewBox="0 0 18 18" fill="none" xmlns="http://www.w3.org/2000/svg">
<g clip-path="url(#clip0_1916_18421)">
<path d="M1.09129 2.14335C0.798786 1.91273 0.374099 1.96616 0.143474 2.25866C-0.0871515 2.55116 -0.033714 2.97585 0.258786 3.20648L16.9088 16.2565C17.2013 16.4871 17.626 16.4337 17.8566 16.1412C18.0872 15.8487 18.0338 15.424 17.7413 15.1934L14.4 12.5749V6.49991H10.8C10.3022 6.49991 9.90004 6.09773 9.90004 5.59991V1.99991H5.40004C4.40722 1.99991 3.60004 2.8071 3.60004 3.79991V4.10929L1.09129 2.14335ZM3.60004 7.53773V14.5999C3.60004 15.5927 4.40722 16.3999 5.40004 16.3999H12.6C13.1653 16.3999 13.6716 16.1384 14.0007 15.7305L3.60004 7.53773ZM14.4 5.59991L10.8 1.99991V5.59991H14.4Z" fill="black"/>
</g>
<defs>
<clipPath id="clip0_1916_18421">
<rect width="18" height="18" fill="white"/>
</clipPath>
</defs>
</svg>
