<svg width="18" height="18" viewBox="0 0 18 18" fill="none" xmlns="http://www.w3.org/2000/svg">
<path d="M4.5 0C3.25898 0 2.25 1.00898 2.25 2.25V15.75C2.25 16.991 3.25898 18 4.5 18H13.5C14.741 18 15.75 16.991 15.75 15.75V5.625H11.25C10.6277 5.625 10.125 5.12227 10.125 4.5V0H4.5ZM11.25 0V4.5H15.75L11.25 0ZM4.5 2.8125C4.5 2.50312 4.75312 2.25 5.0625 2.25H7.3125C7.62187 2.25 7.875 2.50312 7.875 2.8125C7.875 3.12188 7.62187 3.375 7.3125 3.375H5.0625C4.75312 3.375 4.5 3.12188 4.5 2.8125ZM4.5 5.0625C4.5 4.75313 4.75312 4.5 5.0625 4.5H7.3125C7.62187 4.5 7.875 4.75313 7.875 5.0625C7.875 5.37187 7.62187 5.625 7.3125 5.625H5.0625C4.75312 5.625 4.5 5.37187 4.5 5.0625ZM9 7.59375C9.30937 7.59375 9.5625 7.84688 9.5625 8.15625V8.76445C9.86133 8.80664 10.1496 8.87344 10.4098 8.94375C10.7086 9.02461 10.8879 9.33047 10.807 9.63281C10.7262 9.93516 10.4203 10.1109 10.118 10.0301C9.72773 9.92461 9.34453 9.84727 8.98945 9.84375C8.69414 9.84023 8.37773 9.90703 8.15977 10.0371C7.95938 10.1566 7.875 10.2937 7.875 10.4871C7.875 10.6172 7.9207 10.7156 8.13164 10.8422C8.37422 10.9863 8.71523 11.0918 9.1582 11.2254L9.17578 11.2289C9.57305 11.3484 10.0652 11.4961 10.452 11.7422C10.8773 12.0094 11.2395 12.4348 11.25 13.0852C11.2605 13.7637 10.9125 14.2559 10.4449 14.5477C10.1742 14.7164 9.86836 14.8148 9.5625 14.8676V15.4688C9.5625 15.7781 9.30937 16.0312 9 16.0312C8.69063 16.0312 8.4375 15.7781 8.4375 15.4688V14.843C8.04375 14.7691 7.67461 14.6426 7.35117 14.5301C7.27734 14.5055 7.20352 14.4809 7.1332 14.4563C6.83789 14.3578 6.67969 14.0379 6.77813 13.7461C6.87656 13.4543 7.19648 13.2926 7.48828 13.391C7.57617 13.4191 7.65703 13.4473 7.73789 13.4754C8.21602 13.6371 8.60273 13.7707 9.01406 13.7812C9.33398 13.7918 9.64336 13.7215 9.84727 13.5949C10.0266 13.4824 10.125 13.3383 10.1215 13.1027C10.118 12.941 10.0582 12.8285 9.85078 12.6949C9.61172 12.5438 9.2707 12.4348 8.83125 12.3012L8.775 12.2836C8.38828 12.1676 7.9207 12.027 7.55156 11.802C7.12969 11.5488 6.75703 11.1375 6.75352 10.4906C6.75 9.80859 7.1332 9.3375 7.59023 9.0668C7.85391 8.91211 8.1457 8.81367 8.4375 8.76094V8.15625C8.4375 7.84688 8.69063 7.59375 9 7.59375Z" fill="black"/>
</svg>
