<svg width="18" height="18" viewBox="0 0 18 18" fill="none" xmlns="http://www.w3.org/2000/svg">
<path d="M14.625 15.75V6.75H10.6875C9.75586 6.75 9 5.99414 9 5.0625V1.125H4.5C3.87773 1.125 3.375 1.62773 3.375 2.25V15.75C3.375 16.3723 3.87773 16.875 4.5 16.875H13.5C14.1223 16.875 14.625 16.3723 14.625 15.75ZM14.6074 5.625C14.5828 5.52656 14.5336 5.43516 14.4598 5.36484L10.3852 1.29023C10.3113 1.21641 10.2234 1.16719 10.125 1.14258V5.0625C10.125 5.37187 10.3781 5.625 10.6875 5.625H14.6074ZM2.25 2.25C2.25 1.00898 3.25898 0 4.5 0H9.98789C10.4344 0 10.8633 0.179297 11.1797 0.495703L15.2543 4.5668C15.5707 4.8832 15.75 5.31211 15.75 5.75859V15.75C15.75 16.991 14.741 18 13.5 18H4.5C3.25898 18 2.25 16.991 2.25 15.75V2.25ZM4.5 2.8125C4.5 2.50312 4.75312 2.25 5.0625 2.25H7.3125C7.62187 2.25 7.875 2.50312 7.875 2.8125C7.875 3.12188 7.62187 3.375 7.3125 3.375H5.0625C4.75312 3.375 4.5 3.12188 4.5 2.8125ZM4.5 5.0625C4.5 4.75313 4.75312 4.5 5.0625 4.5H7.3125C7.62187 4.5 7.875 4.75313 7.875 5.0625C7.875 5.37187 7.62187 5.625 7.3125 5.625H5.0625C4.75312 5.625 4.5 5.37187 4.5 5.0625ZM9.5625 8.56406V9.04219C9.8543 9.08086 10.1355 9.13711 10.3957 9.20039C10.698 9.2707 10.8844 9.57656 10.8141 9.87891C10.7438 10.1812 10.4379 10.3676 10.1355 10.2973C9.7418 10.2059 9.35508 10.1355 8.99297 10.1285C8.68711 10.125 8.36367 10.1883 8.13867 10.3078C7.92422 10.4203 7.87852 10.5293 7.87852 10.6383C7.87852 10.691 7.88555 10.7648 8.11055 10.8844C8.35664 11.0145 8.70117 11.1094 9.14414 11.2289L9.16172 11.2324C9.55898 11.3379 10.0477 11.4715 10.4309 11.6859C10.8457 11.918 11.243 12.3082 11.2535 12.948C11.2641 13.6125 10.8809 14.0625 10.4238 14.3156C10.1602 14.4598 9.86484 14.5477 9.56602 14.5934V15.068C9.56602 15.3773 9.31289 15.6305 9.00352 15.6305C8.69414 15.6305 8.44102 15.3773 8.44102 15.068V14.5687C8.05781 14.502 7.6957 14.393 7.37578 14.2945C7.30195 14.2699 7.22813 14.2488 7.15781 14.2277C6.85898 14.1398 6.69023 13.827 6.77813 13.5281C6.86602 13.2293 7.17891 13.0605 7.47773 13.1484C7.56211 13.173 7.64648 13.1977 7.72734 13.2223C8.20547 13.3664 8.59922 13.4859 9.02109 13.5C9.35156 13.5105 9.67148 13.4438 9.87891 13.3277C10.0687 13.2223 10.132 13.1098 10.1285 12.9621C10.1285 12.8777 10.1004 12.7898 9.88242 12.6668C9.63984 12.5297 9.2918 12.4312 8.85586 12.3152L8.79961 12.3012C8.41289 12.1957 7.94883 12.0727 7.5832 11.8758C7.17891 11.6578 6.76406 11.2816 6.76055 10.6418C6.75703 9.97383 7.17891 9.54141 7.62188 9.30937C7.87852 9.17578 8.16328 9.09141 8.44453 9.0457V8.56406C8.44453 8.25469 8.69766 8.00156 9.00703 8.00156C9.31641 8.00156 9.56953 8.25469 9.56953 8.56406H9.5625Z" fill="black"/>
</svg>
