<svg width="18" height="18" viewBox="0 0 18 18" fill="none" xmlns="http://www.w3.org/2000/svg">
<path d="M4.25 0C3.00898 0 2 1.00898 2 2.25V15.75C2 16.991 3.00898 18 4.25 18H13.25C14.491 18 15.5 16.991 15.5 15.75V5.625H11C10.3777 5.625 9.875 5.12227 9.875 4.5V0H4.25ZM11 0V4.5H15.5L11 0ZM4.25 2.8125C4.25 2.50312 4.50312 2.25 4.8125 2.25H7.0625C7.37187 2.25 7.625 2.50312 7.625 2.8125C7.625 3.12188 7.37187 3.375 7.0625 3.375H4.8125C4.50312 3.375 4.25 3.12188 4.25 2.8125ZM4.25 5.0625C4.25 4.75313 4.50312 4.5 4.8125 4.5H7.0625C7.37187 4.5 7.625 4.75313 7.625 5.0625C7.625 5.37187 7.37187 5.625 7.0625 5.625H4.8125C4.50312 5.625 4.25 5.37187 4.25 5.0625ZM8.75 7.59375C9.05937 7.59375 9.3125 7.84688 9.3125 8.15625V8.76445C9.61133 8.80664 9.89961 8.87344 10.1598 8.94375C10.4586 9.02461 10.6379 9.33047 10.557 9.63281C10.4762 9.93516 10.1703 10.1109 9.86797 10.0301C9.47773 9.92461 9.09453 9.84727 8.73945 9.84375C8.44414 9.84023 8.12773 9.90703 7.90977 10.0371C7.70938 10.1566 7.625 10.2937 7.625 10.4871C7.625 10.6172 7.6707 10.7156 7.88164 10.8422C8.12422 10.9863 8.46523 11.0918 8.9082 11.2254L8.92578 11.2289C9.32305 11.3484 9.81523 11.4961 10.202 11.7422C10.6273 12.0094 10.9895 12.4348 11 13.0852C11.0105 13.7637 10.6625 14.2559 10.1949 14.5477C9.92422 14.7164 9.61836 14.8148 9.3125 14.8676V15.4688C9.3125 15.7781 9.05937 16.0312 8.75 16.0312C8.44063 16.0312 8.1875 15.7781 8.1875 15.4688V14.843C7.79375 14.7691 7.42461 14.6426 7.10117 14.5301C7.02734 14.5055 6.95352 14.4809 6.8832 14.4563C6.58789 14.3578 6.42969 14.0379 6.52813 13.7461C6.62656 13.4543 6.94648 13.2926 7.23828 13.391C7.32617 13.4191 7.40703 13.4473 7.48789 13.4754C7.96602 13.6371 8.35273 13.7707 8.76406 13.7812C9.08398 13.7918 9.39336 13.7215 9.59727 13.5949C9.77656 13.4824 9.875 13.3383 9.87148 13.1027C9.86797 12.941 9.8082 12.8285 9.60078 12.6949C9.36172 12.5437 9.0207 12.4348 8.58125 12.3012L8.525 12.2836C8.13828 12.1676 7.6707 12.027 7.30156 11.802C6.87969 11.5488 6.50703 11.1375 6.50352 10.4906C6.5 9.80859 6.8832 9.3375 7.34023 9.0668C7.60391 8.91211 7.8957 8.81367 8.1875 8.76094V8.15625C8.1875 7.84688 8.44063 7.59375 8.75 7.59375Z" fill="black"/>
</svg>
