<svg width="18" height="18" viewBox="0 0 18 18" fill="none" xmlns="http://www.w3.org/2000/svg">
<path d="M4.5 0C3.25898 0 2.25 1.00898 2.25 2.25V15.75C2.25 16.991 3.25898 18 4.5 18H13.5C14.741 18 15.75 16.991 15.75 15.75V5.625H11.25C10.6277 5.625 10.125 5.12227 10.125 4.5V0H4.5ZM11.25 0V4.5H15.75L11.25 0ZM12.6562 11.25H9.5625C9.25313 11.25 9 10.9969 9 10.6875V7.59375C9 7.28438 9.25313 7.02773 9.5625 7.06992C11.4434 7.31953 12.934 8.81016 13.1836 10.691C13.2258 11.0004 12.9691 11.2535 12.6598 11.2535L12.6562 11.25ZM7.875 8.08594V11.8125C7.875 12.1219 8.12813 12.375 8.4375 12.375H12.1641C12.5191 12.375 12.7863 12.702 12.6598 13.0359C12.0551 14.6215 10.5188 15.75 8.71875 15.75C6.38789 15.75 4.5 13.8621 4.5 11.5312C4.5 9.73125 5.62852 8.19492 7.21406 7.58672C7.54805 7.46016 7.875 7.72734 7.875 8.08242V8.08594Z" fill="black"/>
</svg>
