<svg width="18" height="18" viewBox="0 0 18 18" fill="none" xmlns="http://www.w3.org/2000/svg">
<path d="M13.5 16.875H4.5C3.87773 16.875 3.375 16.3723 3.375 15.75V2.25C3.375 1.62773 3.87773 1.125 4.5 1.125H9V5.0625C9 5.99414 9.75586 6.75 10.6875 6.75H14.625V15.75C14.625 16.3723 14.1223 16.875 13.5 16.875ZM10.6875 5.625C10.3781 5.625 10.125 5.37187 10.125 5.0625V1.14258C10.2234 1.16719 10.3148 1.21641 10.3852 1.29023L14.4598 5.36484C14.5336 5.43867 14.5828 5.52656 14.6074 5.625H10.6875ZM4.5 0C3.25898 0 2.25 1.00898 2.25 2.25V15.75C2.25 16.991 3.25898 18 4.5 18H13.5C14.741 18 15.75 16.991 15.75 15.75V5.76211C15.75 5.31562 15.5707 4.88672 15.2543 4.57031L11.1832 0.495703C10.8668 0.179297 10.4379 0 9.99141 0H4.5ZM8.4375 7.875V11.25C8.4375 11.5594 8.69063 11.8125 9 11.8125H12.375C12.6844 11.8125 12.9375 11.5594 12.9375 11.25C12.9375 9.07383 11.1762 7.3125 9 7.3125C8.69063 7.3125 8.4375 7.56563 8.4375 7.875ZM9.5625 8.49375C10.6629 8.71875 11.5312 9.58711 11.7562 10.6875H9.5625V8.49375ZM7.59375 7.75547C5.96602 8.24063 4.78125 9.74883 4.78125 11.5312C4.78125 13.7074 6.54258 15.4688 8.71875 15.4688C10.5012 15.4688 12.0094 14.284 12.4945 12.6562H11.2992C10.8668 13.6512 9.87539 14.3438 8.72227 14.3438C7.16836 14.3438 5.90977 13.0852 5.90977 11.5312C5.90977 10.3781 6.60234 9.38672 7.59727 8.9543V7.75898L7.59375 7.75547Z" fill="black"/>
</svg>
