<svg width="18" height="18" viewBox="0 0 18 18" fill="none" xmlns="http://www.w3.org/2000/svg">
<g clip-path="url(#clip0_3184_51397)">
<path d="M1.6875 9C1.6875 4.96055 4.96055 1.6875 9 1.6875C11.2184 1.6875 13.2047 2.67539 14.5477 4.23633C14.85 4.59141 15.3844 4.63008 15.7359 4.32773C16.0875 4.02539 16.1297 3.49102 15.8273 3.13945C14.1785 1.21641 11.7316 0 9 0C4.02891 0 0 4.02891 0 9V10.4062C0 10.8738 0.376172 11.25 0.84375 11.25C1.31133 11.25 1.6875 10.8738 1.6875 10.4062V9ZM17.8066 7.14023C17.7117 6.6832 17.2617 6.39141 16.8082 6.48984C16.3547 6.58828 16.0594 7.03477 16.1578 7.48828C16.2598 7.97695 16.316 8.4832 16.316 9.00352V10.4098C16.316 10.8773 16.6922 11.2535 17.1598 11.2535C17.6273 11.2535 18.0035 10.8773 18.0035 10.4098V9C18.0035 8.36367 17.9367 7.74141 17.8102 7.14023H17.8066ZM9 2.8125C8.33203 2.8125 7.68516 2.91797 7.08398 3.11484C6.54961 3.29062 6.42656 3.94805 6.79219 4.37695C7.0418 4.66875 7.45312 4.75664 7.82578 4.65469C8.19844 4.55273 8.59219 4.5 9 4.5C11.4855 4.5 13.5 6.51445 13.5 9V9.87539C13.5 10.7613 13.4473 11.6438 13.3453 12.5227C13.2855 13.0359 13.6758 13.5 14.1961 13.5C14.6109 13.5 14.966 13.1977 15.0152 12.7863C15.1313 11.823 15.191 10.8527 15.191 9.87891V9C15.191 5.58281 12.4207 2.8125 9.00352 2.8125H9ZM5.29805 5.22773C4.97813 4.85508 4.40859 4.82695 4.10625 5.21367C3.29414 6.25781 2.8125 7.57266 2.8125 9V9.87539C2.8125 10.7262 2.72109 11.577 2.53828 12.4031C2.41875 12.9516 2.81602 13.5 3.37852 13.5C3.74766 13.5 4.07812 13.2539 4.15898 12.8918C4.38398 11.9039 4.5 10.8949 4.5 9.87539V9C4.5 8.04375 4.79883 7.15781 5.30508 6.43008C5.5582 6.06445 5.58633 5.56523 5.29805 5.22773ZM9 5.625C7.13672 5.625 5.625 7.13672 5.625 9V9.87539C5.625 11.1375 5.46328 12.3891 5.13984 13.6055C5.00625 14.1082 5.37539 14.625 5.8957 14.625C6.22969 14.625 6.525 14.407 6.61289 14.0836C6.98203 12.7125 7.17188 11.2992 7.17188 9.87539V9C7.17188 7.99102 7.99102 7.17188 9 7.17188C10.009 7.17188 10.8281 7.99102 10.8281 9V9.87539C10.8281 11.1516 10.7051 12.4207 10.4625 13.6687C10.3676 14.1574 10.7332 14.625 11.2289 14.625C11.5875 14.625 11.8969 14.3789 11.9672 14.0273C12.2379 12.6633 12.375 11.2746 12.375 9.87539V9C12.375 7.13672 10.8633 5.625 9 5.625ZM9.84375 9C9.84375 8.53242 9.46758 8.15625 9 8.15625C8.53242 8.15625 8.15625 8.53242 8.15625 9V9.87539C8.15625 11.9812 7.76953 14.0695 7.01367 16.0348L6.80625 16.5727C6.6375 17.0086 6.85547 17.4973 7.29141 17.6625C7.72734 17.8277 8.21602 17.6133 8.38125 17.1773L8.58867 16.6395C9.41836 14.4809 9.84375 12.1887 9.84375 9.87539V9Z" fill="black"/>
</g>
<defs>
<clipPath id="clip0_3184_51397">
<rect width="18.0035" height="18" fill="white"/>
</clipPath>
</defs>
</svg>
