<svg width="18" height="18" viewBox="0 0 18 18" fill="none" xmlns="http://www.w3.org/2000/svg">
<g clip-path="url(#clip0_3184_51398)">
<path d="M1.125 9C1.125 4.65117 4.65117 1.125 9 1.125C11.4715 1.125 13.6758 2.26406 15.1207 4.04297C15.3176 4.28555 15.6691 4.3207 15.9117 4.12734C16.1543 3.93398 16.1895 3.57891 15.9961 3.33633C14.3473 1.30078 11.823 0 9 0C4.02891 0 0 4.02891 0 9V10.6875C0 10.9969 0.253125 11.25 0.5625 11.25C0.871875 11.25 1.125 10.9969 1.125 10.6875V9ZM17.6766 6.59883C17.5922 6.3 17.2828 6.12422 16.984 6.20508C16.6852 6.28594 16.5094 6.59883 16.5902 6.89766C16.773 7.56562 16.875 8.26875 16.875 8.99648V10.684C16.875 10.9934 17.1281 11.2465 17.4375 11.2465C17.7469 11.2465 18 10.9934 18 10.684V9C18 8.17031 17.8875 7.36523 17.6766 6.59883ZM9 2.8125C8.19844 2.8125 7.43203 2.96367 6.72891 3.24141C6.38789 3.375 6.30703 3.80742 6.54609 4.08867C6.71484 4.28555 6.99609 4.3418 7.23867 4.25039C7.78711 4.04648 8.38125 3.93398 9 3.93398C11.7949 3.93398 14.0625 6.20156 14.0625 8.99648V9.87187C14.0625 10.8668 13.9992 11.8617 13.8691 12.8461C13.8234 13.1871 14.0871 13.4965 14.4316 13.4965C14.7094 13.4965 14.9449 13.2926 14.9801 13.0184C15.1172 11.9777 15.184 10.9266 15.184 9.87187V9C15.184 5.58281 12.4137 2.8125 8.99648 2.8125H9ZM5.10117 4.9957C4.89023 4.74961 4.51055 4.72852 4.29961 4.97813C3.37148 6.05742 2.8125 7.46367 2.8125 9V9.87539C2.8125 10.8527 2.69297 11.823 2.45391 12.7688C2.3625 13.1344 2.62969 13.5 3.00586 13.5C3.25195 13.5 3.46992 13.3383 3.5332 13.0992C3.80391 12.048 3.94102 10.9652 3.94102 9.87539V9C3.94102 7.78008 4.37344 6.66211 5.09063 5.78672C5.28047 5.5582 5.29805 5.2207 5.10117 4.9957ZM9 5.625C7.13672 5.625 5.625 7.13672 5.625 9V9.87539C5.625 11.2324 5.43516 12.5824 5.06602 13.8832C4.96055 14.2488 5.23125 14.625 5.61094 14.625C5.85352 14.625 6.06797 14.4668 6.13477 14.2348C6.54258 12.8215 6.75 11.352 6.75 9.87539V9C6.75 7.75898 7.75898 6.75 9 6.75C10.241 6.75 11.25 7.75898 11.25 9V9.87539C11.25 11.2395 11.1129 12.6 10.8387 13.9324C10.7648 14.2875 11.032 14.625 11.3941 14.625C11.6543 14.625 11.8828 14.4457 11.9355 14.1891C12.2273 12.7723 12.375 11.3273 12.375 9.87539V9C12.375 7.13672 10.8633 5.625 9 5.625ZM9.5625 9C9.5625 8.69063 9.30937 8.4375 9 8.4375C8.69063 8.4375 8.4375 8.69063 8.4375 9V9.87539C8.4375 12.0164 8.04375 14.1363 7.27383 16.1367L7.06641 16.6746C6.95391 16.9629 7.09805 17.2898 7.38984 17.4023C7.68164 17.5148 8.00508 17.3707 8.11758 17.0789L8.325 16.541C9.14414 14.4141 9.5625 12.1535 9.5625 9.87539V9Z" fill="black"/>
</g>
<defs>
<clipPath id="clip0_3184_51398">
<rect width="18" height="18" fill="white"/>
</clipPath>
</defs>
</svg>
