<svg width="18" height="18" viewBox="0 0 18 18" fill="none" xmlns="http://www.w3.org/2000/svg">
<g clip-path="url(#clip0_6906_8342)">
<path d="M2.125 0.387695C2.125 0.112695 1.9 -0.112305 1.625 -0.112305C1.35 -0.112305 1.125 0.112695 1.125 0.387695V0.887695V1.8877V9.8877V10.8877V15.3877C1.125 15.6627 1.35 15.8877 1.625 15.8877C1.9 15.8877 2.125 15.6627 2.125 15.3877V10.8533L14.6531 6.5502C14.9375 6.45332 15.125 6.1877 15.125 5.8877C15.125 5.5877 14.9344 5.32207 14.6531 5.2252L2.125 0.92207V0.387695ZM2.125 1.97832L13.5031 5.8877L2.125 9.79707V1.97832Z" fill="black"/>
</g>
<defs>
<clipPath id="clip0_6906_8342">
<rect width="18" height="18" fill="white"/>
</clipPath>
</defs>
</svg>
