<svg width="18" height="18" viewBox="0 0 18 18" fill="none" xmlns="http://www.w3.org/2000/svg">
<g clip-path="url(#clip0_1916_18422)">
<path d="M9 16.875C11.0886 16.875 13.0916 16.0453 14.5685 14.5685C16.0453 13.0916 16.875 11.0886 16.875 9C16.875 6.91142 16.0453 4.90838 14.5685 3.43153C13.0916 1.95468 11.0886 1.125 9 1.125C6.91142 1.125 4.90838 1.95468 3.43153 3.43153C1.95468 4.90838 1.125 6.91142 1.125 9C1.125 11.0886 1.95468 13.0916 3.43153 14.5685C4.90838 16.0453 6.91142 16.875 9 16.875ZM9 0C11.3869 0 13.6761 0.948212 15.364 2.63604C17.0518 4.32387 18 6.61305 18 9C18 11.3869 17.0518 13.6761 15.364 15.364C13.6761 17.0518 11.3869 18 9 18C6.61305 18 4.32387 17.0518 2.63604 15.364C0.948212 13.6761 0 11.3869 0 9C0 6.61305 0.948212 4.32387 2.63604 2.63604C4.32387 0.948212 6.61305 0 9 0ZM9.84375 3.375C9.84375 3.59878 9.75486 3.81339 9.59662 3.97162C9.43839 4.12986 9.22378 4.21875 9 4.21875C8.77622 4.21875 8.56161 4.12986 8.40338 3.97162C8.24514 3.81339 8.15625 3.59878 8.15625 3.375C8.15625 3.15122 8.24514 2.93661 8.40338 2.77838C8.56161 2.62014 8.77622 2.53125 9 2.53125C9.22378 2.53125 9.43839 2.62014 9.59662 2.77838C9.75486 2.93661 9.84375 3.15122 9.84375 3.375ZM7.875 12.375C7.875 12.6734 7.99353 12.9595 8.2045 13.1705C8.41548 13.3815 8.70163 13.5 9 13.5C9.29837 13.5 9.58452 13.3815 9.7955 13.1705C10.0065 12.9595 10.125 12.6734 10.125 12.375C10.125 12.0766 10.0065 11.7905 9.7955 11.5795C9.58452 11.3685 9.29837 11.25 9 11.25C8.70163 11.25 8.41548 11.3685 8.2045 11.5795C7.99353 11.7905 7.875 12.0766 7.875 12.375ZM6.75 12.375C6.75 11.134 7.75898 10.125 9 10.125C9.61523 10.125 10.1742 10.3711 10.5785 10.7719L14.3367 8.51836C14.6039 8.36016 14.9484 8.44453 15.1102 8.71172C15.2719 8.97891 15.184 9.32344 14.9168 9.48516L11.1586 11.7352C11.2184 11.9391 11.25 12.1535 11.25 12.375C11.25 13.616 10.241 14.625 9 14.625C7.75898 14.625 6.75 13.616 6.75 12.375ZM13.7812 5.0625C13.7812 5.28628 13.6924 5.50089 13.5341 5.65912C13.3759 5.81736 13.1613 5.90625 12.9375 5.90625C12.7137 5.90625 12.4991 5.81736 12.3409 5.65912C12.1826 5.50089 12.0938 5.28628 12.0938 5.0625C12.0938 4.83872 12.1826 4.62411 12.3409 4.46588C12.4991 4.30764 12.7137 4.21875 12.9375 4.21875C13.1613 4.21875 13.3759 4.30764 13.5341 4.46588C13.6924 4.62411 13.7812 4.83872 13.7812 5.0625ZM3.375 8.15625C3.59878 8.15625 3.81339 8.24514 3.97162 8.40338C4.12986 8.56161 4.21875 8.77622 4.21875 9C4.21875 9.22378 4.12986 9.43839 3.97162 9.59662C3.81339 9.75486 3.59878 9.84375 3.375 9.84375C3.15122 9.84375 2.93661 9.75486 2.77838 9.59662C2.62014 9.43839 2.53125 9.22378 2.53125 9C2.53125 8.77622 2.62014 8.56161 2.77838 8.40338C2.93661 8.24514 3.15122 8.15625 3.375 8.15625ZM5.90625 5.0625C5.90625 5.28628 5.81736 5.50089 5.65912 5.65912C5.50089 5.81736 5.28628 5.90625 5.0625 5.90625C4.83872 5.90625 4.62411 5.81736 4.46588 5.65912C4.30764 5.50089 4.21875 5.28628 4.21875 5.0625C4.21875 4.83872 4.30764 4.62411 4.46588 4.46588C4.62411 4.30764 4.83872 4.21875 5.0625 4.21875C5.28628 4.21875 5.50089 4.30764 5.65912 4.46588C5.81736 4.62411 5.90625 4.83872 5.90625 5.0625Z" fill="black"/>
</g>
<defs>
<clipPath id="clip0_1916_18422">
<rect width="18" height="18" fill="white"/>
</clipPath>
</defs>
</svg>
