<svg width="18" height="18" viewBox="0 0 18 18" fill="none" xmlns="http://www.w3.org/2000/svg">
<g clip-path="url(#clip0_1916_18417)">
<path d="M0 9C0 6.61305 0.948212 4.32387 2.63604 2.63604C4.32387 0.948212 6.61305 0 9 0C11.3869 0 13.6761 0.948212 15.364 2.63604C17.0518 4.32387 18 6.61305 18 9C18 11.3869 17.0518 13.6761 15.364 15.364C13.6761 17.0518 11.3869 18 9 18C6.61305 18 4.32387 17.0518 2.63604 15.364C0.948212 13.6761 0 11.3869 0 9ZM10.125 3.375C10.125 3.07663 10.0065 2.79048 9.7955 2.5795C9.58452 2.36853 9.29837 2.25 9 2.25C8.70163 2.25 8.41548 2.36853 8.2045 2.5795C7.99353 2.79048 7.875 3.07663 7.875 3.375C7.875 3.67337 7.99353 3.95952 8.2045 4.1705C8.41548 4.38147 8.70163 4.5 9 4.5C9.29837 4.5 9.58452 4.38147 9.7955 4.1705C10.0065 3.95952 10.125 3.67337 10.125 3.375ZM9 14.625C10.241 14.625 11.25 13.616 11.25 12.375C11.25 12.2449 11.2395 12.1184 11.2184 11.9953L15.3492 9.43594C15.7465 9.18984 15.866 8.66953 15.6234 8.27578C15.3809 7.88203 14.857 7.75547 14.4633 8.00156L10.3289 10.5609C9.95625 10.2867 9.4957 10.125 9 10.125C7.75898 10.125 6.75 11.134 6.75 12.375C6.75 13.616 7.75898 14.625 9 14.625ZM6.1875 5.0625C6.1875 4.76413 6.06897 4.47798 5.858 4.267C5.64702 4.05603 5.36087 3.9375 5.0625 3.9375C4.76413 3.9375 4.47798 4.05603 4.267 4.267C4.05603 4.47798 3.9375 4.76413 3.9375 5.0625C3.9375 5.36087 4.05603 5.64702 4.267 5.858C4.47798 6.06897 4.76413 6.1875 5.0625 6.1875C5.36087 6.1875 5.64702 6.06897 5.858 5.858C6.06897 5.64702 6.1875 5.36087 6.1875 5.0625ZM3.375 10.125C3.67337 10.125 3.95952 10.0065 4.1705 9.7955C4.38147 9.58452 4.5 9.29837 4.5 9C4.5 8.70163 4.38147 8.41548 4.1705 8.2045C3.95952 7.99353 3.67337 7.875 3.375 7.875C3.07663 7.875 2.79048 7.99353 2.5795 8.2045C2.36853 8.41548 2.25 8.70163 2.25 9C2.25 9.29837 2.36853 9.58452 2.5795 9.7955C2.79048 10.0065 3.07663 10.125 3.375 10.125ZM14.0625 5.0625C14.0625 4.76413 13.944 4.47798 13.733 4.267C13.522 4.05603 13.2359 3.9375 12.9375 3.9375C12.6391 3.9375 12.353 4.05603 12.142 4.267C11.931 4.47798 11.8125 4.76413 11.8125 5.0625C11.8125 5.36087 11.931 5.64702 12.142 5.858C12.353 6.06897 12.6391 6.1875 12.9375 6.1875C13.2359 6.1875 13.522 6.06897 13.733 5.858C13.944 5.64702 14.0625 5.36087 14.0625 5.0625Z" fill="black"/>
</g>
<defs>
<clipPath id="clip0_1916_18417">
<rect width="18" height="18" fill="white"/>
</clipPath>
</defs>
</svg>
