<svg width="18" height="18" viewBox="0 0 18 18" fill="none" xmlns="http://www.w3.org/2000/svg">
<g clip-path="url(#clip0_10924_23079)">
<path d="M5.64 1.01202C5.52719 0.980676 5.40812 1.03396 5.35172 1.1374L4.90048 2.00562C4.82841 2.14667 4.69367 2.24383 4.53699 2.26891C4.35838 2.29712 4.1829 2.34414 4.01682 2.40996C3.86955 2.46638 3.70347 2.44757 3.57186 2.36294L2.74774 1.83636C2.64746 1.77368 2.51899 1.78621 2.43438 1.87084L1.87034 2.43503C1.78574 2.51966 1.7732 2.64817 1.83587 2.74847L2.36231 3.57282C2.44692 3.70446 2.46258 3.87058 2.40931 4.0179C2.37798 4.10253 2.34978 4.18716 2.32784 4.27492C2.30591 4.36268 2.28397 4.45045 2.27144 4.53821C2.24637 4.69493 2.14923 4.82657 2.00822 4.9018L1.13709 5.35628C1.03368 5.40957 0.980414 5.52867 1.01175 5.64465L1.21856 6.41571C1.2499 6.52854 1.35331 6.6069 1.47238 6.60064L2.44692 6.55675C2.60359 6.55049 2.75714 6.61631 2.85741 6.73855C2.97022 6.87646 3.09869 7.00497 3.2397 7.12094C3.36191 7.22124 3.42772 7.3717 3.42145 7.53155L3.38071 8.50948C3.37445 8.62545 3.45278 8.73202 3.56559 8.76336L4.33644 8.97023C4.44925 9.00158 4.56833 8.94829 4.62473 8.84486L5.07596 7.9735C5.14803 7.83245 5.28278 7.73528 5.43946 7.71021C5.61807 7.682 5.79355 7.63498 5.95962 7.56916C6.1069 7.51274 6.27298 7.53155 6.40459 7.61618L7.22871 8.14276C7.32899 8.20544 7.45746 8.19291 7.54207 8.10828L8.10611 7.54409C8.19071 7.45946 8.20325 7.33095 8.14057 7.23065L7.61414 6.4063C7.52953 6.27466 7.51386 6.10854 7.56713 5.96122C7.59847 5.87659 7.62667 5.79196 7.64861 5.7042C7.67054 5.61644 7.69248 5.52867 7.70501 5.44091C7.73008 5.28419 7.82722 5.15255 7.96823 5.07732L8.83622 4.62597C8.93963 4.57269 8.9929 4.45358 8.96156 4.33761L8.75475 3.56655C8.72341 3.45371 8.62001 3.37535 8.50093 3.38162L7.52953 3.42237C7.37285 3.42863 7.21931 3.36281 7.11904 3.24057C7.00623 3.10266 6.87775 2.97415 6.73674 2.85818C6.61454 2.75787 6.54873 2.60742 6.555 2.44757L6.59573 1.46964C6.602 1.35367 6.52366 1.2471 6.41086 1.21576L5.64 1.01202ZM4.46492 0.673506C4.73754 0.153198 5.33291 -0.110091 5.90009 0.0434942L6.67094 0.250364C7.23811 0.403949 7.62354 0.927392 7.59847 1.51666L7.56713 2.25324C7.62041 2.30339 7.67368 2.35667 7.72381 2.40996L8.46333 2.37861C9.0493 2.35354 9.57574 2.73907 9.72928 3.30639L9.9361 4.07745C10.0896 4.64478 9.82642 5.24345 9.30625 5.513L8.64821 5.85465C8.63254 5.92674 8.61061 5.99883 8.59181 6.06779L8.98977 6.69153C9.30625 7.18677 9.23418 7.83559 8.81742 8.25246L8.25338 8.81665C7.83662 9.23352 7.19111 9.30248 6.69287 8.98904L6.0693 8.59411C5.99723 8.61605 5.92829 8.63485 5.85308 8.65053L5.51153 9.30561C5.23891 9.82592 4.64353 10.0892 4.07636 9.93876L3.30551 9.73189C2.73834 9.57831 2.35291 9.05486 2.37798 8.4656L2.40931 7.72902C2.35604 7.67887 2.30277 7.62558 2.25264 7.5723L1.51312 7.60364C0.927144 7.62872 0.400707 7.24319 0.247163 6.67586L0.0434826 5.90167C-0.110061 5.33434 0.153157 4.73567 0.673326 4.46612L1.32824 4.12447C1.34391 4.05238 1.36584 3.98029 1.38464 3.91133L0.989814 3.28445C0.673326 2.78922 0.745398 2.1404 1.16216 1.72353L1.7262 1.15934C2.13983 0.745597 2.78847 0.673506 3.28671 0.99008L3.90715 1.38501C3.97922 1.36307 4.04816 1.34427 4.12336 1.32859L4.46492 0.673506ZM4.53386 6.68526C3.59693 6.43451 3.04229 5.47226 3.29297 4.53507C3.54366 3.59789 4.50566 3.0431 5.44259 3.29386C6.37952 3.54461 6.93416 4.50686 6.68347 5.44405C6.43279 6.38123 5.47079 6.93602 4.53386 6.68526ZM5.71521 5.18389C5.82175 4.78269 5.5836 4.36895 5.1825 4.26238C4.78141 4.15581 4.36778 4.39403 4.26124 4.79523C4.1547 5.19643 4.39285 5.61017 4.79394 5.71674C5.19504 5.82331 5.60867 5.58509 5.71521 5.18389ZM11.5875 9.24293C11.4747 9.27427 11.3963 9.3777 11.4026 9.49681L11.4433 10.4747C11.4496 10.6315 11.3838 10.785 11.2616 10.8853C11.1206 11.0013 10.9952 11.1298 10.8793 11.2677C10.779 11.39 10.6286 11.4589 10.4688 11.4495L9.49113 11.4088C9.37519 11.4025 9.26865 11.4809 9.23732 11.5937L9.0305 12.3648C8.99917 12.4776 9.05244 12.5967 9.15584 12.6531L10.027 13.1014C10.168 13.1734 10.2651 13.3082 10.2902 13.4649C10.3059 13.5527 10.3247 13.6405 10.3466 13.7282C10.3685 13.816 10.3967 13.9038 10.4281 13.9853C10.4845 14.1326 10.4657 14.2987 10.3811 14.4303L9.85463 15.2547C9.79195 15.355 9.80449 15.4835 9.8891 15.5681L10.4531 16.1323C10.5377 16.2169 10.6662 16.2295 10.7665 16.1668L11.5937 15.6433C11.7254 15.5587 11.8914 15.543 12.0387 15.5963C12.2079 15.659 12.3803 15.706 12.5589 15.7374C12.7156 15.7625 12.8472 15.8596 12.9224 16.0007L13.3736 16.8689C13.4269 16.9723 13.5459 17.0256 13.6619 16.9943L14.4327 16.7874C14.5455 16.7561 14.6239 16.6526 14.6176 16.5335L14.5769 15.5556C14.5706 15.3989 14.6364 15.2453 14.7586 15.1481C14.8996 15.0321 15.025 14.9036 15.1409 14.7657C15.2412 14.6435 15.3916 14.5745 15.5514 14.5839L16.5291 14.6247C16.645 14.6309 16.7516 14.5526 16.7829 14.4397L16.9897 13.6687C17.0211 13.5558 16.9678 13.4367 16.8644 13.3803L15.9964 12.929C15.8554 12.8569 15.7582 12.7221 15.7332 12.5654C15.7175 12.4776 15.6987 12.3899 15.6768 12.3021C15.6548 12.2143 15.6266 12.1266 15.5953 12.0451C15.5389 11.8978 15.5577 11.7316 15.6423 11.6L16.1687 10.7756C16.2314 10.6753 16.2189 10.5468 16.1343 10.4622L15.5702 9.89801C15.4856 9.81339 15.3571 9.80085 15.2569 9.86353L14.4327 10.3901C14.3011 10.4747 14.1351 10.4935 13.9878 10.4371C13.8186 10.3744 13.6462 10.3274 13.4676 10.2961C13.3109 10.271 13.1793 10.1738 13.1041 10.0328L12.6529 9.16457C12.5996 9.06113 12.4805 9.00785 12.3646 9.03919L11.5937 9.24606L11.5875 9.24293ZM10.3999 9.54069C10.3748 8.95456 10.7602 8.42798 11.3274 8.2744L12.0982 8.06753C12.6654 7.91395 13.2639 8.17723 13.5334 8.69754L13.875 9.35263C13.947 9.3683 14.0191 9.39024 14.0912 9.40905L14.7148 9.01098C15.2099 8.69441 15.8585 8.7665 16.2753 9.18337L16.8393 9.74756C17.2561 10.1644 17.325 10.8101 17.0117 11.3085L16.6137 11.9322C16.6356 12.0012 16.6544 12.0733 16.6701 12.1454L17.325 12.487C17.8452 12.7597 18.1084 13.3552 17.958 13.9226L17.7512 14.6936C17.5976 15.261 17.0743 15.6465 16.4852 15.6214L15.7457 15.5901C15.6956 15.6433 15.6423 15.6966 15.589 15.7468L15.6204 16.4834C15.6454 17.0695 15.26 17.5961 14.6928 17.7497L13.922 17.9565C13.3548 18.1101 12.7563 17.8468 12.4868 17.3234L12.1453 16.6683C12.0732 16.6526 12.0011 16.6307 11.929 16.6119L11.3055 17.0099C10.8104 17.3265 10.1617 17.2544 9.74495 16.8375L9.18091 16.2734C8.76415 15.8565 8.69521 15.2108 9.00857 14.7124L9.40653 14.0887C9.38459 14.0197 9.36579 13.9476 9.35012 13.8756L8.69521 13.5339C8.17504 13.2612 7.91183 12.6657 8.06537 12.0984L8.27218 11.3273C8.42573 10.76 8.94903 10.3744 9.53814 10.3995L10.2777 10.4309C10.3278 10.3776 10.3811 10.3243 10.4343 10.2741L10.403 9.53756L10.3999 9.54069ZM13.4645 14.7124C12.5275 14.9632 11.5655 14.4084 11.3149 13.4712C11.0642 12.534 11.6188 11.5718 12.5557 11.321C13.4927 11.0703 14.4547 11.6251 14.7054 12.5622C14.956 13.4994 14.4014 14.4617 13.4645 14.7124ZM13.7371 12.8224C13.6306 12.4212 13.2169 12.183 12.8158 12.2896C12.4147 12.3961 12.1766 12.8099 12.2831 13.2111C12.3897 13.6123 12.8033 13.8505 13.2044 13.7439C13.6055 13.6373 13.8436 13.2236 13.7371 12.8224Z" fill="black"/>
</g>
<defs>
<clipPath id="clip0_10924_23079">
<rect width="18" height="18" fill="white"/>
</clipPath>
</defs>
</svg>
