<svg width="18" height="18" viewBox="0 0 18 18" fill="none" xmlns="http://www.w3.org/2000/svg">
<g clip-path="url(#clip0_816_2454)">
<path d="M5.90621 8.96836C5.90621 7.29141 7.29137 5.87461 8.99996 5.87461C10.7086 5.87461 12.0937 7.29141 12.0937 8.96836C12.0937 10.7086 10.7086 12.0938 8.99996 12.0938C7.29137 12.0938 5.90621 10.7086 5.90621 8.96836ZM8.99996 6.99961C7.91363 6.99961 7.03121 7.91367 7.03121 8.96836C7.03121 10.0863 7.91363 10.9371 8.99996 10.9371C10.0863 10.9371 10.9687 10.0863 10.9687 8.96836C10.9687 7.91367 10.0863 6.99961 8.99996 6.99961ZM2.30867 8.10703L0.890822 6.81328C0.499884 6.4582 0.409884 5.87812 0.674259 5.42109L1.73738 3.57891C2.00176 3.12117 2.54914 2.90918 3.05293 3.06984L4.87965 3.65273C5.35074 3.28922 5.87106 2.98688 6.42652 2.7573L6.83785 0.884531C6.95035 0.368086 7.40738 0 7.93824 0H10.0617C10.5925 0 11.0496 0.368086 11.1621 0.884531L11.5734 2.7573C12.0972 2.98688 12.6492 3.28922 13.1203 3.65273L14.9484 3.06984C15.4511 2.90918 15.9996 3.12117 16.2632 3.57891L17.325 5.42109C17.5886 5.87812 17.5007 6.4582 17.1105 6.81328L15.6902 8.10703C15.7289 8.39883 15.75 8.69766 15.75 8.96836C15.75 9.30234 15.7289 9.60117 15.6902 9.89297L17.1105 11.1867C17.5007 11.5418 17.5886 12.1219 17.325 12.5789L16.2632 14.4211C15.9996 14.8781 15.4511 15.0891 14.9484 14.9309L13.1203 14.3473C12.6492 14.7094 12.0972 15.0117 11.5734 15.2438L11.1621 17.1141C11.0496 17.6309 10.5925 18 10.0617 18H7.93824C7.40738 18 6.95035 17.6309 6.83785 17.1141L6.42652 15.2438C5.87106 15.0117 5.35074 14.7094 4.87965 14.3473L3.05293 14.9309C2.54914 15.0891 2.00176 14.8781 1.73738 14.4211L0.674259 12.5789C0.409884 12.1219 0.499884 11.5418 0.890822 11.1867L2.30867 9.89297C2.27 9.60117 2.24996 9.30234 2.24996 8.96836C2.24996 8.69766 2.27 8.39883 2.30867 8.10703ZM5.56871 4.54219L5.10113 4.9043L2.71156 4.14141L1.64844 5.98359L3.50082 7.67109L3.42383 8.25469C3.39149 8.49727 3.37496 8.74687 3.37496 8.96836C3.37496 9.25313 3.39149 9.50274 3.42383 9.74531L3.50082 10.3289L1.64844 12.0164L2.71156 13.8586L5.10113 13.0957L5.56871 13.4578C5.95895 13.7602 6.39488 14.0133 6.85543 14.1715L7.40035 14.4281L7.93824 16.875H10.0617L10.5996 14.4281L11.1129 14.1715C11.605 14.0133 12.041 13.7602 12.4312 13.4578L12.8988 13.0957L15.2894 13.8586L16.3511 12.0164L14.4984 10.3289L14.5757 9.74531C14.6074 9.50274 14.625 9.25313 14.625 9C14.625 8.74687 14.6074 8.49727 14.5757 8.25469L14.4984 7.67109L16.3511 5.98359L15.2894 4.14141L12.8988 4.9043L12.4312 4.54219C12.041 4.23984 11.605 3.98672 11.1129 3.79688L10.5996 3.57187L10.0617 1.125H7.93824L7.40035 3.57187L6.85543 3.79688C6.39488 3.98672 5.95895 4.23984 5.56871 4.54219Z" fill="black"/>
</g>
<defs>
<clipPath id="clip0_816_2454">
<rect width="18" height="18" fill="white"/>
</clipPath>
</defs>
</svg>
