<svg width="18" height="18" viewBox="0 0 18 18" fill="none" xmlns="http://www.w3.org/2000/svg">
<g clip-path="url(#clip0_10924_23075)">
<path d="M11.8417 7.64529C12.2048 7.54708 12.5857 7.71969 12.7494 8.056L13.303 9.17504C13.6095 9.21671 13.9101 9.30004 14.1929 9.41611L15.2345 8.72266C15.547 8.51433 15.9607 8.556 16.2256 8.82088L16.797 9.3923C17.0619 9.65718 17.1036 10.0738 16.8952 10.3834L16.2018 11.4221C16.2583 11.5619 16.3089 11.7078 16.3506 11.8596C16.3923 12.0113 16.419 12.1601 16.4399 12.3119L17.5619 12.8655C17.8982 13.0322 18.0708 13.4131 17.9726 13.7732L17.7643 14.553C17.6661 14.9131 17.3298 15.1572 16.9548 15.1333L15.7048 15.053C15.5173 15.2941 15.3 15.5173 15.053 15.7077L15.1333 16.9548C15.1572 17.3298 14.9131 17.669 14.553 17.7643L13.7732 17.9726C13.4101 18.0708 13.0322 17.8982 12.8655 17.5619L12.3119 16.4429C12.0054 16.4012 11.7048 16.3179 11.4221 16.2018L10.3804 16.8952C10.0679 17.1036 9.65421 17.0619 9.38933 16.797L8.8179 16.2256C8.55302 15.9607 8.51135 15.547 8.71969 15.2345L9.41313 14.1929C9.35659 14.053 9.30599 13.9072 9.26433 13.7554C9.22266 13.6036 9.19587 13.4518 9.17504 13.303L8.05302 12.7494C7.71672 12.5828 7.54707 12.2018 7.64231 11.8417L7.85064 11.0619C7.94886 10.7018 8.28517 10.4578 8.66016 10.4816L9.90718 10.5619C10.0947 10.3209 10.3119 10.0977 10.559 9.90718L10.4786 8.66314C10.4548 8.28814 10.6988 7.94886 11.059 7.85362L11.8387 7.64529H11.8417ZM12.8089 11.4994C12.0857 11.4994 11.4994 12.0857 11.5024 12.8119C11.5024 13.5351 12.0887 14.1185 12.8119 14.1185C13.5351 14.1185 14.1214 13.5322 14.1214 12.809C14.1185 12.0828 13.5322 11.4994 12.8089 11.4994ZM6.1572 0.0262833L6.93696 0.234615C7.29708 0.332829 7.54112 0.672113 7.51731 1.04413L7.43696 2.28818C7.68398 2.47865 7.90124 2.69889 8.08874 2.94293L9.33873 2.86258C9.71075 2.83877 10.05 3.08281 10.1483 3.44293L10.3566 4.22269C10.4518 4.58281 10.2822 4.96376 9.94587 5.13042L8.82385 5.68399C8.80302 5.83577 8.77326 5.98756 8.73457 6.13637C8.69588 6.28518 8.64231 6.43399 8.58576 6.57387L9.27921 7.61553C9.48754 7.92803 9.44587 8.34171 9.18099 8.60659L8.60957 9.17802C8.34469 9.4429 7.931 9.48456 7.6185 9.27623L6.57684 8.58278C6.29411 8.69885 5.99351 8.78219 5.68697 8.82385L5.1334 9.9429C4.96673 10.2792 4.58578 10.4488 4.22566 10.3536L3.44591 10.1453C3.08281 10.0471 2.84174 9.70778 2.86555 9.33576L2.94591 8.08874C2.69889 7.89826 2.48163 7.67803 2.29413 7.43398L1.04413 7.51434C0.672113 7.53815 0.332829 7.2941 0.234615 6.93398L0.0262833 6.15423C-0.0689543 5.79411 0.100688 5.41316 0.436995 5.24649L1.55901 4.69292C1.57985 4.54114 1.60961 4.39233 1.6483 4.24055C1.68996 4.08876 1.73758 3.94293 1.79711 3.80305L1.10366 2.76436C0.895326 2.45187 0.936993 2.03818 1.20187 1.7733L1.7733 1.20187C2.03818 0.936993 2.45186 0.895326 2.76436 1.10366L3.80602 1.79711C4.08876 1.68104 4.38935 1.5977 4.6959 1.55604L5.24947 0.436995C5.41613 0.100688 5.79411 -0.0689543 6.1572 0.0262833ZM5.18994 3.88043C4.46673 3.88043 3.88043 4.46673 3.88043 5.18995C3.88043 5.91316 4.46673 6.49946 5.18994 6.49946C5.91315 6.49946 6.49946 5.91316 6.49946 5.18995C6.49946 4.46673 5.91315 3.88043 5.18994 3.88043Z" fill="black"/>
</g>
<defs>
<clipPath id="clip0_10924_23075">
<rect width="18" height="18" fill="white"/>
</clipPath>
</defs>
</svg>
