<svg width="18" height="18" viewBox="0 0 18 18" fill="none" xmlns="http://www.w3.org/2000/svg">
<g clip-path="url(#clip0_816_2457)">
<path d="M17.434 5.85703C17.5465 6.16289 17.4516 6.50391 17.209 6.72187L15.6868 8.10703C15.7254 8.39883 15.7465 8.69766 15.7465 9C15.7465 9.30234 15.7254 9.60117 15.6868 9.89297L17.209 11.2781C17.4516 11.4961 17.5465 11.8371 17.434 12.143C17.2793 12.5613 17.093 12.9621 16.8785 13.3488L16.7133 13.6336C16.4813 14.0203 16.2211 14.3859 15.9364 14.7305C15.7289 14.9836 15.3844 15.068 15.075 14.9695L13.1168 14.3473C12.6457 14.7094 12.1254 15.0117 11.57 15.2402L11.1305 17.2477C11.0602 17.5676 10.8141 17.8207 10.4907 17.8734C10.0055 17.9543 9.50628 17.9965 8.99652 17.9965C8.48675 17.9965 7.98753 17.9543 7.50238 17.8734C7.17894 17.8207 6.93285 17.5676 6.86253 17.2477L6.42308 15.2402C5.86761 15.0117 5.3473 14.7094 4.8762 14.3473L2.92152 14.973C2.61214 15.0715 2.26761 14.9836 2.06019 14.734C1.77542 14.3895 1.51527 14.0238 1.28324 13.6371L1.118 13.3523C0.903549 12.9656 0.717221 12.5648 0.562533 12.1465C0.450033 11.8406 0.544955 11.4996 0.787533 11.2816L2.3098 9.89648C2.27113 9.60117 2.25003 9.30234 2.25003 9C2.25003 8.69766 2.27113 8.39883 2.3098 8.10703L0.787533 6.72187C0.544955 6.50391 0.450033 6.16289 0.562533 5.85703C0.717221 5.43867 0.903549 5.03789 1.118 4.65117L1.28324 4.36641C1.51527 3.97969 1.77542 3.61406 2.06019 3.26953C2.26761 3.01641 2.61214 2.93203 2.92152 3.03047L4.87972 3.65273C5.35081 3.29063 5.87113 2.98828 6.4266 2.75977L6.86605 0.752344C6.93636 0.432422 7.18246 0.179297 7.50589 0.126562C7.99105 0.0421875 8.49027 0 9.00003 0C9.5098 0 10.009 0.0421875 10.4942 0.123047C10.8176 0.175781 11.0637 0.428906 11.134 0.748828L11.5735 2.75625C12.1289 2.98477 12.6493 3.28711 13.1203 3.64922L15.0785 3.02695C15.3879 2.92852 15.7325 3.01641 15.9399 3.26602C16.2246 3.61055 16.4848 3.97617 16.7168 4.36289L16.8821 4.64766C17.0965 5.03437 17.2828 5.43516 17.4375 5.85352L17.434 5.85703ZM9.00003 11.8125C10.5539 11.8125 11.8125 10.5539 11.8125 9C11.8125 7.44609 10.5539 6.1875 9.00003 6.1875C7.44613 6.1875 6.18753 7.44609 6.18753 9C6.18753 10.5539 7.44613 11.8125 9.00003 11.8125Z" fill="black"/>
</g>
<defs>
<clipPath id="clip0_816_2457">
<rect width="18" height="18" fill="white"/>
</clipPath>
</defs>
</svg>
