<svg width="18" height="18" viewBox="0 0 18 18" fill="none" xmlns="http://www.w3.org/2000/svg">
<g clip-path="url(#clip0_11191_1691)">
<path d="M9 16.875C4.65117 16.875 1.125 13.3488 1.125 9C1.125 8.58516 1.15664 8.18086 1.21992 7.78359L1.32539 8.01914C1.65234 8.75742 2.28516 9.31992 3.05508 9.5625L5.26992 10.2551C5.81484 10.4273 6.1875 10.9301 6.1875 11.5031V12.0305C6.1875 12.6281 6.525 13.1766 7.05937 13.4437C7.21406 13.5211 7.3125 13.6793 7.3125 13.8516V14.6496C7.3125 15.5707 8.05781 16.316 8.97891 16.316C9.74531 16.316 10.4133 15.7957 10.5961 15.0539L10.7508 14.4352C10.8422 14.0766 11.0742 13.7672 11.3941 13.5844L11.802 13.3523C12.5016 12.9516 12.934 12.2063 12.934 11.3977V11.1059C12.934 10.5082 12.6984 9.93516 12.2766 9.51328L12.1395 9.37617C11.7176 8.9543 11.1445 8.71875 10.5469 8.71875H8.83125C8.65547 8.71875 8.4832 8.67656 8.32852 8.59922L6.71484 7.79414C6.64102 7.75898 6.58125 7.69922 6.54609 7.62539L6.52148 7.57617C6.44063 7.41445 6.50742 7.21758 6.66914 7.13672C6.74648 7.09805 6.83789 7.09102 6.91875 7.11914L7.76953 7.40391C8.29688 7.57969 8.87695 7.3793 9.18633 6.91875C9.48867 6.46523 9.45703 5.86406 9.10898 5.4457L8.47969 4.68984C8.3918 4.58437 8.3918 4.42969 8.4832 4.32773L9.18984 3.50156C9.65391 2.96016 9.72773 2.18672 9.37266 1.56445L9.12656 1.125C11.8512 1.16719 14.2383 2.59453 15.6199 4.73203L14.277 5.26992C13.4473 5.60039 13.0219 6.52148 13.3031 7.36875L13.8973 9.15117C14.0801 9.69961 14.5301 10.1145 15.0891 10.2551L16.6992 10.6594C15.9363 14.2137 12.7793 16.875 9 16.875ZM1.6875 6.07148C2.71758 3.50508 5.05547 1.60664 7.875 1.20586L8.39883 2.12344C8.51836 2.33086 8.49375 2.5875 8.33906 2.77031L7.63242 3.59648C7.18594 4.1168 7.17891 4.8832 7.61836 5.41055L8.24766 6.16641C8.2793 6.20508 8.28281 6.25781 8.25469 6.29648C8.22656 6.33867 8.17734 6.35625 8.12813 6.33867L7.27734 6.05039C6.91172 5.92734 6.51445 5.95547 6.16992 6.12773C5.45273 6.48633 5.16094 7.3582 5.51953 8.07539L5.54414 8.12461C5.68828 8.41641 5.92734 8.65195 6.21914 8.79961L7.83281 9.60469C8.1457 9.75938 8.49023 9.84375 8.83828 9.84375H10.5539C10.8527 9.84375 11.1375 9.96328 11.3484 10.1742L11.4855 10.3113C11.6965 10.5223 11.816 10.807 11.816 11.1059V11.3977C11.816 11.802 11.598 12.1746 11.25 12.375L10.8422 12.607C10.2551 12.9445 9.82969 13.5035 9.66445 14.1609L9.50977 14.7797C9.45 15.0223 9.23203 15.191 8.98242 15.191C8.68359 15.191 8.44102 14.9484 8.44102 14.6496V13.8516C8.44102 13.2539 8.10352 12.7055 7.56914 12.4383C7.41445 12.3609 7.31602 12.2027 7.31602 12.0305V11.5031C7.31602 10.4379 6.62344 9.49922 5.60742 9.1793L3.39258 8.48672C2.92852 8.34258 2.55234 8.00508 2.35547 7.56211L1.6875 6.07148ZM16.875 9C16.875 9.18281 16.868 9.36211 16.8574 9.54141L15.3598 9.16875C15.1734 9.12305 15.0223 8.98242 14.9625 8.79961L14.3684 7.01719C14.2734 6.73594 14.4176 6.42656 14.6918 6.31758L16.1613 5.73047C16.6184 6.72539 16.8715 7.83633 16.8715 9.00352L16.875 9ZM9 18C13.9711 18 18 13.9711 18 9C18 4.02891 13.9711 0 9 0C4.02891 0 0 4.02891 0 9C0 13.9711 4.02891 18 9 18Z" fill="black"/>
</g>
<defs>
<clipPath id="clip0_11191_1691">
<rect width="18" height="18" fill="white"/>
</clipPath>
</defs>
</svg>
