<svg width="18" height="18" viewBox="0 0 18 18" fill="none" xmlns="http://www.w3.org/2000/svg">
<path d="M9.09562 4.19671L6.37313 6.40171C5.92031 6.76734 5.83313 7.42546 6.17625 7.89515C6.53906 8.39578 7.245 8.49421 7.73156 8.11453L10.5244 5.94328C10.7213 5.7914 11.0025 5.82515 11.1572 6.02203C11.3119 6.2189 11.2753 6.50015 11.0784 6.65484L10.4906 7.11046L14.4 10.7105V5.40046H14.3803L14.2706 5.33015L12.2287 4.02234C11.7984 3.74671 11.295 3.60046 10.7831 3.60046C10.17 3.60046 9.57375 3.8114 9.09562 4.19671ZM9.73688 7.69546L8.28281 8.82609C7.39687 9.51796 6.11156 9.33796 5.44781 8.42671C4.82344 7.5689 4.98094 6.37078 5.805 5.70421L8.145 3.8114C7.81875 3.67359 7.46719 3.60328 7.11 3.60328C6.58125 3.60046 6.06656 3.75796 5.625 4.05046L3.6 5.40046V11.7005H4.39312L6.96375 14.0461C7.515 14.5495 8.36719 14.5102 8.87062 13.9589C9.02531 13.7873 9.12937 13.5877 9.18281 13.3795L9.66094 13.8183C10.2094 14.3217 11.0644 14.2852 11.5678 13.7367C11.6944 13.5989 11.7872 13.4386 11.8462 13.2727C12.3919 13.6383 13.1344 13.5623 13.5928 13.0617C14.0962 12.5133 14.0597 11.6583 13.5112 11.1548L9.73688 7.69546ZM0.45 5.40046C0.2025 5.40046 0 5.60296 0 5.85046V11.7005C0 12.1983 0.402187 12.6005 0.9 12.6005H1.8C2.29781 12.6005 2.7 12.1983 2.7 11.7005V5.40046H0.45ZM1.35 10.8005C1.46935 10.8005 1.58381 10.8479 1.6682 10.9323C1.75259 11.0167 1.8 11.1311 1.8 11.2505C1.8 11.3698 1.75259 11.4843 1.6682 11.5687C1.58381 11.6531 1.46935 11.7005 1.35 11.7005C1.23065 11.7005 1.11619 11.6531 1.0318 11.5687C0.947411 11.4843 0.9 11.3698 0.9 11.2505C0.9 11.1311 0.947411 11.0167 1.0318 10.9323C1.11619 10.8479 1.23065 10.8005 1.35 10.8005ZM15.3 5.40046V11.7005C15.3 12.1983 15.7022 12.6005 16.2 12.6005H17.1C17.5978 12.6005 18 12.1983 18 11.7005V5.85046C18 5.60296 17.7975 5.40046 17.55 5.40046H15.3ZM16.2 11.2505C16.2 11.1311 16.2474 11.0167 16.3318 10.9323C16.4162 10.8479 16.5307 10.8005 16.65 10.8005C16.7693 10.8005 16.8838 10.8479 16.9682 10.9323C17.0526 11.0167 17.1 11.1311 17.1 11.2505C17.1 11.3698 17.0526 11.4843 16.9682 11.5687C16.8838 11.6531 16.7693 11.7005 16.65 11.7005C16.5307 11.7005 16.4162 11.6531 16.3318 11.5687C16.2474 11.4843 16.2 11.3698 16.2 11.2505Z" fill="black"/>
</svg>
