<svg width="18" height="18" viewBox="0 0 18 18" fill="none" xmlns="http://www.w3.org/2000/svg">
<g clip-path="url(#clip0_646_1621)">
<path d="M12.3818 2.89324L12.3396 2.59442C12.2342 1.85262 11.6506 1.26902 10.9088 1.16356L10.61 1.12137C10.3041 1.07918 10.0896 0.7909 10.1318 0.485041C10.174 0.179181 10.4588 -0.0387875 10.7682 0.00691559L11.067 0.0491031C12.3045 0.224884 13.2783 1.19871 13.4541 2.43621L13.4963 2.73504C13.5385 3.0409 13.3275 3.32918 13.0182 3.37137C12.7088 3.41356 12.424 3.20262 12.3818 2.89324ZM6.51777 2.48192C6.07832 2.04246 6.07832 1.32879 6.51777 0.889337C6.95722 0.449884 7.67089 0.449884 8.11035 0.889337L14.8603 7.63934C14.9764 7.75535 15.1908 7.67801 15.1908 7.50926V4.77762C15.1908 4.00067 15.8201 3.37137 16.5971 3.37137C17.374 3.37137 18.0033 4.00067 18.0033 4.77762V10.9792C18.0033 13.0956 17.0225 15.0889 15.349 16.3827C13.5596 17.7643 11.285 18.13 9.24589 17.5323C8.24746 17.2827 7.30175 16.7659 6.51777 15.9819L6.3455 15.8097L2.58027 12.0444L1.45527 10.9194C1.01582 10.48 1.01582 9.76629 1.45527 9.32684C1.89472 8.88738 2.60839 8.88738 3.04785 9.32684L4.16933 10.4483L4.17285 10.4518L5.81113 12.0936C5.99394 12.2764 6.28925 12.2764 6.46855 12.0936C6.64785 11.9108 6.65136 11.6155 6.46855 11.4362L2.01777 6.98192C1.57832 6.54246 1.57832 5.82879 2.01777 5.38934C2.45722 4.94988 3.17089 4.94988 3.61035 5.38934L8.06113 9.84363C8.24394 10.0264 8.53925 10.0264 8.71855 9.84363C8.89785 9.66082 8.90136 9.36551 8.71855 9.18621L3.70527 4.16942C3.26582 3.72996 3.26582 3.01629 3.70527 2.57684C4.14472 2.13738 4.85839 2.13738 5.29785 2.57684L10.3111 7.59363C10.4939 7.77645 10.7893 7.77645 10.9685 7.59363C11.1478 7.41082 11.1514 7.11551 10.9685 6.93621L6.51777 2.48192ZM0.481441 12.3819C0.7873 12.3397 1.07558 12.5507 1.11777 12.86L1.15996 13.1589C1.26543 13.9007 1.84902 14.4843 2.59082 14.5897L2.88964 14.6319C3.1955 14.6776 3.40996 14.9624 3.36777 15.2682C3.32558 15.5741 3.0373 15.7886 2.73144 15.7464L2.43261 15.7042C1.19511 15.5284 0.221285 14.5546 0.0455033 13.3171L0.0068314 13.0182C-0.0353561 12.7124 0.175581 12.4241 0.484956 12.3819H0.481441Z" fill="black"/>
</g>
<defs>
<clipPath id="clip0_646_1621">
<rect width="18" height="18" fill="white"/>
</clipPath>
</defs>
</svg>
