<svg width="18" height="18" viewBox="0 0 18 18" fill="none" xmlns="http://www.w3.org/2000/svg">
<path d="M10.6875 1.125C11.6191 1.125 12.375 1.88191 12.375 2.8125C12.375 3.12328 12.6281 3.375 12.9375 3.375C13.2469 3.375 13.5 3.12328 13.5 2.8125C13.5 1.26176 12.2379 0 10.6875 0C10.3781 0 10.125 0.251578 10.125 0.5625C10.125 0.873422 10.3781 1.125 10.6875 1.125ZM14.6918 3.7582C13.2075 3.7582 12.6904 5.0523 12.6018 5.35395L8.65723 1.41996C8.28633 1.04801 7.79063 0.812109 7.2668 0.812109C7.05695 0.812109 5.8623 0.891914 5.42848 2.08301C5.25118 2.03157 5.06566 2.005 4.87582 2.005C3.88441 2.005 2.91973 2.7823 2.91973 3.94879C2.91973 4.13778 2.94627 4.32742 2.999 4.51164C2.38271 4.73818 1.72424 5.3589 1.72424 6.33449C1.72424 6.77992 1.87172 7.22957 2.16193 7.60046C2.0134 7.70977 1.09336 8.20195 1.09336 9.35156C1.09336 9.87645 1.29811 10.4031 1.6998 10.8035L6.09434 15.1875C7.21758 16.2457 8.66602 16.875 10.2094 16.875C11.7527 16.875 13.2036 16.2763 14.291 15.1896L14.9955 14.5181C16.206 13.3105 16.8725 11.7046 16.8725 9.99703V5.93438C16.875 4.73555 15.8977 3.7582 14.6918 3.7582ZM15.7184 9.96328C15.7184 11.3614 15.1618 12.7027 14.1708 13.6898L13.4663 14.3613C12.5599 15.2655 11.3692 15.718 10.1784 15.718C8.98769 15.718 7.7973 15.2659 6.89062 14.3613L2.52703 10.009C2.34738 9.82969 2.24824 9.58711 2.24824 9.34453C2.24824 8.78414 2.73727 8.52539 3.08109 8.52539C3.29737 8.52539 3.51387 8.60773 3.67875 8.77236L6.32461 11.4122C6.40716 11.4945 6.51537 11.5357 6.62351 11.5357C6.85076 11.5357 7.04609 11.3531 7.04609 11.1142C7.04609 11.0063 7.00485 10.8983 6.92234 10.816L3.12546 7.02615C2.94504 6.84844 2.84625 6.60586 2.84625 6.36328C2.84625 5.80289 3.33492 5.54414 3.6791 5.54414C3.89545 5.54414 4.11188 5.62655 4.27676 5.79118L8.11758 9.62578C8.20195 9.70664 8.30742 9.74883 8.41641 9.74883C8.64513 9.74883 8.83898 9.56457 8.83898 9.35859C8.83898 9.25066 8.79771 9.14273 8.7152 9.0604L4.3207 4.64414C4.14141 4.4332 4.01133 4.21875 4.01133 3.97969C4.01133 3.4193 4.50035 3.16055 4.84383 3.16055C5.06018 3.16055 5.2766 3.24288 5.44148 3.40752L9.88172 7.80557C9.96426 7.8879 10.0725 7.92911 10.1806 7.92911C10.4099 7.92911 10.6032 7.74461 10.6032 7.53887C10.6032 7.43094 10.562 7.32298 10.4795 7.24057L6.68261 3.45073C6.53203 3.27059 6.40195 3.0259 6.40195 2.78543C6.40195 2.22891 6.88395 1.96629 7.23445 1.96629C7.4508 1.96629 7.66723 2.0487 7.83211 2.21333L13.1941 7.53398C13.2469 7.58672 13.3118 7.61027 13.3755 7.61027C13.5088 7.61027 13.6366 7.50698 13.6366 7.35114V5.99062C13.6366 5.79199 13.791 4.88074 14.6931 4.88074C15.277 4.88074 15.7495 5.35254 15.7495 5.93508V9.96328H15.7184ZM2.8125 14.625C1.88191 14.625 1.125 13.8691 1.125 12.9375C1.125 12.6281 0.873281 12.375 0.5625 12.375C0.251719 12.375 0 12.6281 0 12.9375C0 14.4879 1.26141 15.75 2.8125 15.75C3.12328 15.75 3.375 15.4969 3.375 15.1875C3.375 14.8781 3.12328 14.625 2.8125 14.625Z" fill="black"/>
</svg>
