<svg width="18" height="18" viewBox="0 0 18 18" fill="none" xmlns="http://www.w3.org/2000/svg">
<path d="M7.42219 3.54675C6.46875 3.54675 5.54625 3.88425 4.81781 4.49457L4.05 5.14144V6.24113C4.12594 6.22707 4.19906 6.19332 4.25812 6.14269L5.39719 5.18644C5.77125 4.87144 6.21 4.65207 6.67687 4.53675L7.66687 3.54675H7.42219ZM3.15 11.6608C3.37781 11.6974 3.59156 11.8014 3.7575 11.9646L5.05406 13.2189L5.7375 13.9024C6.44344 14.6083 7.57687 14.6393 8.31937 13.9755C8.34187 13.9558 8.36438 13.9361 8.38406 13.9136C9.12375 14.5127 10.2206 14.4368 10.8703 13.7083C11.0391 13.5199 11.16 13.3033 11.2359 13.0755C11.7759 13.188 12.3609 13.053 12.8025 12.6593C13.1203 12.3752 13.3144 12.0068 13.3819 11.6186H14.85V12.1024C14.85 12.8477 15.4547 13.4524 16.2 13.4524H16.65C17.3953 13.4524 18 12.8477 18 12.1024V6.25238C18 5.75457 17.5978 5.35238 17.1 5.35238H15.75H14.85V6.25238V10.7186H13.3059C13.2188 10.4739 13.0781 10.2405 12.8812 10.0436L10.4737 7.63613L10.7016 7.42519C10.8844 7.25644 10.8956 6.97238 10.7269 6.78957C10.5581 6.60675 10.2741 6.5955 10.0912 6.76425L7.95094 8.73863C7.57969 9.08175 7.00594 9.08738 6.62906 8.74988C6.19594 8.36457 6.1875 7.69519 6.60656 7.29863L8.83969 5.18925C9.34312 4.71113 10.0069 4.44675 10.6987 4.44675C11.3372 4.44675 11.9531 4.67175 12.4397 5.08238L13.6997 6.14269C13.77 6.20175 13.8572 6.23832 13.9472 6.24675V5.17519L13.0191 4.39332C12.3694 3.84488 11.5481 3.54675 10.6987 3.54675C9.77625 3.54675 8.89031 3.89832 8.22094 4.53113L5.98781 6.6405C5.18344 7.39988 5.20312 8.68519 6.03 9.41925C6.75562 10.0633 7.84969 10.0521 8.56125 9.39675L9.81281 8.24363L12.2456 10.6764C12.6112 11.0421 12.5944 11.6411 12.2062 11.9843C11.8997 12.2571 11.4553 12.2824 11.1206 12.0686C10.98 11.9758 10.8 11.973 10.6537 12.0546C10.5075 12.1361 10.4203 12.2964 10.4287 12.4652C10.44 12.693 10.3641 12.9236 10.2009 13.1093C9.855 13.5002 9.25031 13.5171 8.88187 13.1486L8.65406 12.9208C8.55281 12.8196 8.40938 12.7718 8.26875 12.7943C8.12813 12.8168 8.00438 12.9039 7.93688 13.0305C7.88344 13.1318 7.81313 13.2246 7.72312 13.3061C7.335 13.6521 6.74437 13.6352 6.37875 13.2696L5.25656 12.1502L5.24813 12.1586L4.38469 11.3233C4.05 10.9999 3.61406 10.803 3.15281 10.7608L3.15 6.24675V5.34675H2.25H0.9C0.402187 5.34675 0 5.74894 0 6.24675V12.0968C0 12.8421 0.604688 13.4468 1.35 13.4468H1.8C2.54531 13.4468 3.15 12.8421 3.15 12.0968V11.6608ZM2.25 6.24675V12.0968C2.25 12.3443 2.0475 12.5468 1.8 12.5468H1.35C1.1025 12.5468 0.9 12.3443 0.9 12.0968V6.24675H2.25ZM17.1 6.24675V12.0968C17.1 12.3443 16.8975 12.5468 16.65 12.5468H16.2C15.9525 12.5468 15.75 12.3443 15.75 12.0968V6.24675H17.1Z" fill="black"/>
</svg>
