<svg width="18" height="18" viewBox="0 0 18 18" fill="none" xmlns="http://www.w3.org/2000/svg">
<g clip-path="url(#clip0_1746_25217)">
<path d="M0.727789 1.89444C0.533727 1.74257 0.249664 1.77632 0.0949765 1.97038C-0.059711 2.16444 -0.0231485 2.44851 0.170914 2.60319L17.2709 16.1032C17.465 16.2579 17.749 16.2241 17.9037 16.0301C18.0584 15.836 18.0247 15.5519 17.8306 15.3973L0.727789 1.89444ZM17.9994 12.1488V6.29882C17.9994 5.80101 17.5972 5.39882 17.0994 5.39882H15.7494H14.8494V6.29882V11.3248L15.7494 12.0363V6.29882H17.0994V12.1488C17.0994 12.3963 16.8969 12.5988 16.6494 12.5988H16.4637L17.3525 13.3019C17.7406 13.0657 17.9994 12.6382 17.9994 12.1488ZM11.3422 13.1416L10.4337 12.4244C10.4281 12.4554 10.4281 12.4863 10.4281 12.5173C10.4394 12.7451 10.3634 12.9757 10.2003 13.1613C9.85435 13.5523 9.24966 13.5691 8.88123 13.2007L8.65341 12.9729C8.55217 12.8716 8.40873 12.8238 8.2681 12.8463C8.12748 12.8688 8.00373 12.956 7.93623 13.0826C7.88279 13.1838 7.81248 13.2766 7.72248 13.3582C7.33435 13.7041 6.74373 13.6873 6.3781 13.3216L5.25591 12.2023L4.45154 11.3979C4.10279 11.0491 3.63873 10.841 3.14935 10.8101V6.67288L1.53498 5.39882H0.899351C0.401539 5.39882 -0.000648483 5.80101 -0.000648483 6.29882V12.1488C-0.000648483 12.8941 0.604039 13.4988 1.34935 13.4988H1.79935C2.54466 13.4988 3.14935 12.8941 3.14935 12.1488V11.7073C3.39966 11.7354 3.6331 11.8479 3.8131 12.0279L4.61748 12.8323L5.0506 13.2654L5.05341 13.2682L5.73685 13.9516C6.44279 14.6576 7.57623 14.6885 8.31873 14.0248C8.34123 14.0051 8.36373 13.9854 8.38342 13.9629C9.1231 14.5619 10.22 14.486 10.8697 13.7576C11.0384 13.5691 11.1594 13.3526 11.2353 13.1248C11.269 13.1332 11.3056 13.1388 11.3422 13.1444V13.1416ZM5.5231 8.54882L5.44435 8.48694C5.44998 8.50944 5.4556 8.52913 5.46123 8.54882H5.52591H5.5231ZM8.22029 4.58319L7.35123 5.40444L8.0656 5.96694L8.83904 5.23569C9.34248 4.76319 10.0062 4.49882 10.6981 4.49882C11.3365 4.49882 11.9525 4.72382 12.439 5.13444L13.699 6.19476C13.7694 6.25382 13.8565 6.29038 13.9465 6.29882V5.22444L13.0184 4.44538C12.3687 3.89694 11.5475 3.59882 10.6981 3.59882C9.7756 3.59882 8.88966 3.95038 8.22029 4.58319ZM6.67623 4.58882L7.66623 3.59882H7.42154C6.78873 3.59882 6.16716 3.74788 5.60748 4.02913L6.41466 4.66476C6.50185 4.63663 6.58904 4.61132 6.67623 4.58882ZM10.0906 6.81351L9.65185 7.21851L10.3015 7.73319L10.8078 7.32257C10.8753 7.16507 10.85 6.97382 10.7262 6.83882C10.5575 6.65601 10.2734 6.64476 10.0906 6.81351ZM2.24935 6.29882V12.1488C2.24935 12.3963 2.04685 12.5988 1.79935 12.5988H1.34935C1.10185 12.5988 0.899351 12.3963 0.899351 12.1488V6.29882H2.24935Z" fill="black"/>
</g>
<defs>
<clipPath id="clip0_1746_25217">
<rect width="18" height="18" fill="white"/>
</clipPath>
</defs>
</svg>
