<svg width="18" height="18" viewBox="0 0 18 18" fill="none" xmlns="http://www.w3.org/2000/svg">
<path d="M1.09141 1.9434C0.798908 1.71278 0.374221 1.76621 0.143596 2.05871C-0.0870294 2.35121 -0.0335919 2.7759 0.258908 3.00653L16.9089 16.0565C17.2014 16.2871 17.6261 16.2337 17.8567 15.9412C18.0873 15.6487 18.0339 15.224 17.7414 14.9934L13.9445 12.0178C13.9136 11.7 13.7673 11.3906 13.5142 11.1543L9.73985 7.69496L9.08172 8.20684L8.35047 7.6359L10.5217 5.94559C10.7186 5.79371 10.9998 5.82746 11.1545 6.02434C11.3092 6.22121 11.2727 6.50246 11.0758 6.65715L10.488 7.11277L14.4002 10.71V5.39996H14.3805L14.2708 5.32965L12.2289 4.02184C11.7986 3.74621 11.2952 3.59996 10.7833 3.59996C10.1702 3.59996 9.57391 3.8109 9.09578 4.19621L6.57297 6.23809L5.84735 5.66715L8.14797 3.80528C7.82172 3.66746 7.47016 3.59715 7.11297 3.59715C6.58141 3.59996 6.06672 3.75746 5.62516 4.04996L4.62672 4.71653L1.09141 1.9434ZM2.70016 6.62621L1.14203 5.39996H0.00015809V11.7C0.00015809 12.1978 0.402346 12.6 0.900158 12.6H1.80016C2.29797 12.6 2.70016 12.1978 2.70016 11.7V6.62621ZM11.6327 13.6659L3.60016 7.33777V11.7H4.39328L6.96391 14.0456C7.51516 14.549 8.36735 14.5096 8.87078 13.9584C9.02547 13.7868 9.12953 13.5872 9.18297 13.379L9.6611 13.8178C10.2095 14.3212 11.0645 14.2846 11.568 13.7362C11.5905 13.7137 11.6102 13.6884 11.6298 13.6631L11.6327 13.6659ZM1.35016 10.8C1.46951 10.8 1.58396 10.8474 1.66836 10.9318C1.75275 11.0162 1.80016 11.1306 1.80016 11.25C1.80016 11.3693 1.75275 11.4838 1.66836 11.5682C1.58396 11.6526 1.46951 11.7 1.35016 11.7C1.23081 11.7 1.11635 11.6526 1.03196 11.5682C0.947569 11.4838 0.900158 11.3693 0.900158 11.25C0.900158 11.1306 0.947569 11.0162 1.03196 10.9318C1.11635 10.8474 1.23081 10.8 1.35016 10.8ZM15.3002 5.39996V11.7C15.3002 12.1978 15.7023 12.6 16.2002 12.6H17.1002C17.598 12.6 18.0002 12.1978 18.0002 11.7V5.39996H15.3002ZM16.2002 11.25C16.2002 11.1306 16.2476 11.0162 16.332 10.9318C16.4164 10.8474 16.5308 10.8 16.6502 10.8C16.7695 10.8 16.884 10.8474 16.9684 10.9318C17.0527 11.0162 17.1002 11.1306 17.1002 11.25C17.1002 11.3693 17.0527 11.4838 16.9684 11.5682C16.884 11.6526 16.7695 11.7 16.6502 11.7C16.5308 11.7 16.4164 11.6526 16.332 11.5682C16.2476 11.4838 16.2002 11.3693 16.2002 11.25Z" fill="black"/>
</svg>
