<svg width="18" height="18" viewBox="0 0 18 18" fill="none" xmlns="http://www.w3.org/2000/svg">
<path d="M5.66563 1.51321C6.20937 1.60383 6.57812 2.11946 6.4875 2.66321L6.18125 4.50071H9.15312L9.5125 2.33508C9.60312 1.79133 10.1188 1.42258 10.6625 1.51321C11.2063 1.60383 11.575 2.11946 11.4844 2.66321L11.1812 4.50071H13C13.5531 4.50071 14 4.94758 14 5.50071C14 5.51321 14 5.52571 14 5.53508C13.2469 5.64446 12.5688 5.99133 12.05 6.50071H10.8469L10.1812 10.5007H10.2688C10.1 10.7945 10 11.1351 10 11.5007V12.5007H9.84688L9.4875 14.6663C9.39688 15.2101 8.88125 15.5788 8.3375 15.4882C7.79375 15.3976 7.425 14.882 7.51562 14.3382L7.82188 12.5038H4.84688L4.4875 14.6695C4.39688 15.2132 3.88125 15.582 3.3375 15.4913C2.79375 15.4007 2.425 14.8851 2.51562 14.3413L2.81875 12.5007H1C0.446875 12.5007 0 12.0538 0 11.5007C0 10.9476 0.446875 10.5007 1 10.5007H3.15313L3.81875 6.50071H2C1.44687 6.50071 1 6.05383 1 5.50071C1 4.94758 1.44687 4.50071 2 4.50071H4.15312L4.5125 2.33508C4.60312 1.79133 5.11875 1.42258 5.6625 1.51321H5.66563ZM5.84688 6.50071L5.18125 10.5007H8.15312L8.81875 6.50071H5.84688ZM14.5 8.00071C13.9469 8.00071 13.5 8.44758 13.5 9.00071V10.5007H15.5V9.00071C15.5 8.44758 15.0531 8.00071 14.5 8.00071ZM12 9.00071C12 7.61946 13.1187 6.50071 14.5 6.50071C15.8813 6.50071 17 7.61946 17 9.00071V10.5007C17.5531 10.5007 18 10.9476 18 11.5007V15.5007C18 16.0538 17.5531 16.5007 17 16.5007H12C11.4469 16.5007 11 16.0538 11 15.5007V11.5007C11 10.9476 11.4469 10.5007 12 10.5007V9.00071Z" fill="black"/>
</svg>
