<svg width="18" height="18" viewBox="0 0 18 18" fill="none" xmlns="http://www.w3.org/2000/svg">
<path d="M6.1125 1.51277C6.38125 1.57527 6.55 1.84402 6.4875 2.11277L5.82188 5.00027H9.79375L10.5125 1.88777C10.575 1.61902 10.8438 1.45027 11.1125 1.51277C11.3813 1.57527 11.55 1.84402 11.4875 2.11277L10.8219 5.00027H13.5C13.775 5.00027 14 5.22527 14 5.50027C14 5.51277 14 5.52527 14 5.53464C13.5281 5.60339 13.0875 5.76277 12.6969 6.00027H10.5906L8.4875 15.1128C8.425 15.3815 8.15625 15.5503 7.8875 15.4878C7.61875 15.4253 7.45 15.1565 7.5125 14.8878L8.17813 12.0003H4.20625L3.4875 15.1128C3.425 15.3815 3.15625 15.5503 2.8875 15.4878C2.61875 15.4253 2.45 15.1565 2.5125 14.8878L3.17812 12.0003H0.5C0.225 12.0003 0 11.7753 0 11.5003C0 11.2253 0.225 11.0003 0.5 11.0003H3.40937L4.5625 6.00027H1.5C1.225 6.00027 1 5.77527 1 5.50027C1 5.22527 1.225 5.00027 1.5 5.00027H4.79375L5.5125 1.88777C5.575 1.61902 5.84375 1.45027 6.1125 1.51277ZM5.59062 6.00027L4.4375 11.0003H8.40938L9.5625 6.00027H5.59062ZM14.5 7.50027C13.6719 7.50027 13 8.17214 13 9.00027V10.5003H16V9.00027C16 8.17214 15.3281 7.50027 14.5 7.50027ZM12 9.00027C12 7.61902 13.1187 6.50027 14.5 6.50027C15.8813 6.50027 17 7.61902 17 9.00027V10.5003C17.5531 10.5003 18 10.9471 18 11.5003V15.5003C18 16.0534 17.5531 16.5003 17 16.5003H12C11.4469 16.5003 11 16.0534 11 15.5003V11.5003C11 10.9471 11.4469 10.5003 12 10.5003V9.00027ZM12 11.5003V15.5003H17V11.5003H12Z" fill="black"/>
</svg>
