<svg width="18" height="18" viewBox="0 0 18 18" fill="none" xmlns="http://www.w3.org/2000/svg">
<path d="M2 17.4375C2 17.7469 2.25312 18 2.5625 18H3.6875H13.8125H14.9375C15.2469 18 15.5 17.7469 15.5 17.4375C15.5 17.1281 15.2469 16.875 14.9375 16.875H14.375V15.4125C14.375 13.6758 13.5734 12.0375 12.2023 10.9723L9.66758 9L12.2059 7.02773C13.577 5.9625 14.3785 4.32422 14.3785 2.5875L14.375 1.125H14.9375C15.2469 1.125 15.5 0.871875 15.5 0.5625C15.5 0.253125 15.2469 0 14.9375 0H13.8125H3.6875H2.5625C2.25312 0 2 0.253125 2 0.5625C2 0.871875 2.25312 1.125 2.5625 1.125H3.125V2.5875C3.125 4.32422 3.92656 5.9625 5.29766 7.02773L7.83242 9L5.29766 10.9723C3.92656 12.0375 3.125 13.6793 3.125 15.4125V16.875H2.5625C2.25312 16.875 2 17.1281 2 17.4375ZM4.25 16.875V15.4125C4.25 14.0238 4.88984 12.7125 5.98672 11.8617L8.75 9.71367L11.5133 11.8617C12.6102 12.7125 13.25 14.0238 13.25 15.4125V16.875H4.25ZM5.98672 6.13828C5.4207 5.69883 4.97422 5.13281 4.67539 4.5H12.8211C12.5223 5.13281 12.0793 5.69883 11.5098 6.13828L8.75 8.28633L5.98672 6.13828ZM4.32031 3.375C4.27461 3.11836 4.25 2.85469 4.25 2.5875V1.125H13.25V2.5875C13.25 2.85469 13.2254 3.11836 13.1797 3.375H4.32031Z" fill="black"/>
</svg>
