<svg width="18" height="18" viewBox="0 0 18 18" fill="none" xmlns="http://www.w3.org/2000/svg">
<path d="M3.125 0C2.50273 0 2 0.502734 2 1.125C2 1.74727 2.50273 2.25 3.125 2.25V2.63672C3.125 4.12734 3.71914 5.5582 4.77383 6.61289L7.15742 9L4.77383 11.3871C3.71914 12.4418 3.125 13.8727 3.125 15.3633V15.75C2.50273 15.75 2 16.2527 2 16.875C2 17.4973 2.50273 18 3.125 18H4.25H13.25H14.375C14.9973 18 15.5 17.4973 15.5 16.875C15.5 16.2527 14.9973 15.75 14.375 15.75V15.3633C14.375 13.8727 13.7809 12.4418 12.7262 11.3871L10.3426 9L12.7297 6.61289C13.7844 5.5582 14.3785 4.12734 14.3785 2.63672V2.25C15.0008 2.25 15.5035 1.74727 15.5035 1.125C15.5035 0.502734 15.0008 0 14.3785 0H13.25H4.25H3.125ZM12.125 15.3633V15.75H5.375V15.3633C5.375 14.4668 5.73008 13.609 6.36289 12.9762L8.75 10.5926L11.1371 12.9797C11.7699 13.6125 12.125 14.4703 12.125 15.3668V15.3633Z" fill="black"/>
</svg>
