<svg width="18" height="18" viewBox="0 0 18 18" fill="none" xmlns="http://www.w3.org/2000/svg">
<path d="M17.8313 8.61067C18.0375 8.79158 18.0563 9.08166 17.8469 9.31559C17.6938 9.52145 17.375 9.54017 17.1688 9.33119L16 8.30187V14.4746C16 15.8533 14.8813 16.9699 13.5 16.9699H4.50001C3.11938 16.9699 2.00001 15.8533 2.00001 14.4746V8.30187L0.830944 9.33119C0.623757 9.54017 0.307788 9.52145 0.1251 9.31559C-0.0576183 9.08166 -0.0378683 8.79158 0.169194 8.61067L8.66876 1.12483C8.85938 0.958391 9.14063 0.958391 9.33126 1.12483L17.8313 8.61067ZM4.50001 15.9718H6.50001V10.9812C6.50001 10.4291 6.94688 9.98308 7.50001 9.98308H10.5C11.0531 9.98308 11.5 10.4291 11.5 10.9812V15.9718H13.5C14.3281 15.9718 15 15.3012 15 14.4746V7.44723L9.00001 2.16468L3.00001 7.44723V14.4746C3.00001 15.3012 3.67188 15.9718 4.50001 15.9718ZM7.50001 15.9718H10.5V10.9812H7.50001V15.9718Z" fill="black"/>
</svg>
