<svg width="18" height="18" viewBox="0 0 18 18" fill="none" xmlns="http://www.w3.org/2000/svg">
<path d="M17.9937 8.97953C17.9937 9.54169 17.525 9.98205 16.9937 9.98205H15.9937L16.0156 14.9853C16.0156 15.0696 16.0094 15.1539 16 15.2382V15.741C16 16.4313 15.4406 16.9903 14.75 16.9903H14.25C14.2156 16.9903 14.1813 16.9903 14.1469 16.9872C14.1031 16.9903 14.0594 16.9903 14.0156 16.9903H13H12.25C11.5594 16.9903 11 16.4313 11 15.741V14.9915V12.9927C11 12.4399 10.5531 11.9933 10 11.9933H8C7.44688 11.9933 7 12.4399 7 12.9927V14.9915V15.741C7 16.4313 6.44063 16.9903 5.75 16.9903H5H4.00313C3.95625 16.9903 3.90937 16.9872 3.8625 16.984C3.825 16.9872 3.7875 16.9903 3.75 16.9903H3.25C2.55938 16.9903 2 16.4313 2 15.741V12.2432C2 12.2151 2 12.1838 2.00312 12.1557V9.98205H1C0.4375 9.98205 0 9.54481 0 8.97953C0 8.69845 0.09375 8.4486 0.3125 8.22999L8.325 1.24985C8.54375 1.03123 8.79375 1 9.0125 1C9.23125 1 9.48125 1.06246 9.66875 1.21862L17.65 8.22999C17.9 8.4486 18.025 8.69845 17.9937 8.97953Z" fill="black"/>
</svg>
