<svg width="18" height="18" viewBox="0 0 18 18" fill="none" xmlns="http://www.w3.org/2000/svg">
<path d="M0 4H18C18 2.89688 17.1031 2 16 2H2C0.896875 2 0 2.89688 0 4ZM0 5V14C0 15.1031 0.896875 16 2 16H16C17.1031 16 18 15.1031 18 14V5H0ZM2 13.6656C2 12.7437 2.74688 12 3.66563 12H7.33437C8.25625 12 9 12.7469 9 13.6656C9 13.85 8.85 14 8.66562 14H2.33437C2.15 14 2 13.85 2 13.6656ZM5.5 7C6.03043 7 6.53914 7.21071 6.91421 7.58579C7.28929 7.96086 7.5 8.46957 7.5 9C7.5 9.53043 7.28929 10.0391 6.91421 10.4142C6.53914 10.7893 6.03043 11 5.5 11C4.96957 11 4.46086 10.7893 4.08579 10.4142C3.71071 10.0391 3.5 9.53043 3.5 9C3.5 8.46957 3.71071 7.96086 4.08579 7.58579C4.46086 7.21071 4.96957 7 5.5 7ZM11 7.5C11 7.225 11.225 7 11.5 7H15.5C15.775 7 16 7.225 16 7.5C16 7.775 15.775 8 15.5 8H11.5C11.225 8 11 7.775 11 7.5ZM11 9.5C11 9.225 11.225 9 11.5 9H15.5C15.775 9 16 9.225 16 9.5C16 9.775 15.775 10 15.5 10H11.5C11.225 10 11 9.775 11 9.5ZM11 11.5C11 11.225 11.225 11 11.5 11H15.5C15.775 11 16 11.225 16 11.5C16 11.775 15.775 12 15.5 12H11.5C11.225 12 11 11.775 11 11.5Z" fill="black"/>
</svg>
