<svg width="18" height="18" viewBox="0 0 18 18" fill="none" xmlns="http://www.w3.org/2000/svg">
<path d="M11 12H15C15.2761 12 15.5 11.7761 15.5 11.5C15.5 11.2239 15.275 11 15 11H11C10.7239 11 10.5 11.2239 10.5 11.5C10.5 11.7761 10.725 12 11 12ZM16 2H2C0.895313 2 0 2.89531 0 4V14C0 15.1047 0.895313 16 2 16H16C17.1047 16 18 15.1047 18 14V4C18 2.89531 17.1031 2 16 2ZM17 14C17 14.5513 16.5513 15 16 15H2C1.44875 15 1 14.5513 1 14V5H17V14ZM1 4C1 3.44875 1.44875 3 2 3H16C16.5513 3 17 3.44875 17 4H1ZM11 8H15C15.2761 8 15.5 7.77612 15.5 7.5C15.5 7.22388 15.275 7 15 7H11C10.7239 7 10.5 7.22388 10.5 7.5C10.5 7.77612 10.725 8 11 8ZM11 10H15C15.2761 10 15.5 9.77612 15.5 9.5C15.5 9.22388 15.275 9 15 9H11C10.7239 9 10.5 9.22388 10.5 9.5C10.5 9.77612 10.725 10 11 10ZM6 10C7.10469 10 8 9.10469 8 8C8 6.89531 7.10313 6 6 6C4.89687 6 4 6.89687 4 8C4 9.10313 4.89687 10 6 10ZM6 7C6.55125 7 7 7.44875 7 8C7 8.55125 6.55 9 6 9C5.45 9 5 8.55 5 8C5 7.45 5.45 7 6 7ZM3 14C3.27612 14 3.5 13.7761 3.5 13.5C3.5 12.6719 4.17188 12 5 12H7C7.82844 12 8.5 12.6716 8.5 13.5C8.5 13.7761 8.72388 14 9 14C9.27612 14 9.5 13.7761 9.5 13.5C9.5 12.1194 8.38062 11 7 11H5C3.61937 11 2.5 12.1194 2.5 13.5C2.5 13.775 2.72375 14 3 14Z" fill="black"/>
</svg>
