<svg width="18" height="18" viewBox="0 0 18 18" fill="none" xmlns="http://www.w3.org/2000/svg">
<path d="M8 1H10C10.5531 1 11 1.44687 11 2V4C11 4.55312 10.5531 5 10 5H8C7.44688 5 7 4.55312 7 4V2C7 1.44687 7.44688 1 8 1ZM2 3H6V4.5C6 5.32812 6.67188 6 7.5 6H10.5C11.3281 6 12 5.32812 12 4.5V3H16C17.1031 3 18 3.89687 18 5V15C18 16.1031 17.1031 17 16 17H2C0.896875 17 0 16.1031 0 15V5C0 3.89687 0.896875 3 2 3ZM5.5 14.6656C5.5 14.85 5.65 15 5.83437 15H12.1656C12.35 15 12.5 14.85 12.5 14.6656C12.5 13.7437 11.7531 13 10.8344 13H7.16563C6.24375 13 5.5 13.7469 5.5 14.6656ZM9 12C9.53043 12 10.0391 11.7893 10.4142 11.4142C10.7893 11.0391 11 10.5304 11 10C11 9.46957 10.7893 8.96086 10.4142 8.58579C10.0391 8.21071 9.53043 8 9 8C8.46957 8 7.96086 8.21071 7.58579 8.58579C7.21071 8.96086 7 9.46957 7 10C7 10.5304 7.21071 11.0391 7.58579 11.4142C7.96086 11.7893 8.46957 12 9 12Z" fill="black"/>
</svg>
