<svg width="18" height="18" viewBox="0 0 18 18" fill="none" xmlns="http://www.w3.org/2000/svg">
<path d="M10 2H8V4H10V2ZM8 1H10C10.5531 1 11 1.44687 11 2V4C11 4.55312 10.5531 5 10 5H8C7.44688 5 7 4.55312 7 4V2C7 1.44687 7.44688 1 8 1ZM10 9C10 8.73478 9.89464 8.48043 9.70711 8.29289C9.51957 8.10536 9.26522 8 9 8C8.73478 8 8.48043 8.10536 8.29289 8.29289C8.10536 8.48043 8 8.73478 8 9C8 9.26522 8.10536 9.51957 8.29289 9.70711C8.48043 9.89464 8.73478 10 9 10C9.26522 10 9.51957 9.89464 9.70711 9.70711C9.89464 9.51957 10 9.26522 10 9ZM7 9C7 8.46957 7.21071 7.96086 7.58579 7.58579C7.96086 7.21071 8.46957 7 9 7C9.53043 7 10.0391 7.21071 10.4142 7.58579C10.7893 7.96086 11 8.46957 11 9C11 9.53043 10.7893 10.0391 10.4142 10.4142C10.0391 10.7893 9.53043 11 9 11C8.46957 11 7.96086 10.7893 7.58579 10.4142C7.21071 10.0391 7 9.53043 7 9ZM6.5 14.5C6.5 14.775 6.275 15 6 15C5.725 15 5.5 14.775 5.5 14.5C5.5 13.1187 6.61875 12 8 12H10C11.3813 12 12.5 13.1187 12.5 14.5C12.5 14.775 12.275 15 12 15C11.725 15 11.5 14.775 11.5 14.5C11.5 13.6719 10.8281 13 10 13H8C7.17188 13 6.5 13.6719 6.5 14.5ZM2 3H6V4H2C1.44687 4 1 4.44688 1 5V15C1 15.5531 1.44687 16 2 16H16C16.5531 16 17 15.5531 17 15V5C17 4.44688 16.5531 4 16 4H12V3H16C17.1031 3 18 3.89687 18 5V15C18 16.1031 17.1031 17 16 17H2C0.896875 17 0 16.1031 0 15V5C0 3.89687 0.896875 3 2 3Z" fill="black"/>
</svg>
