<svg width="18" height="18" viewBox="0 0 18 18" fill="none" xmlns="http://www.w3.org/2000/svg">
<path d="M2.25 2.25C1.62773 2.25 1.125 2.75273 1.125 3.375V11.5805L3.50508 9.20039C4.05352 8.65195 4.94297 8.65195 5.49492 9.20039L7.875 11.5805L12.5051 6.95039C13.0535 6.40195 13.943 6.40195 14.4949 6.95039L16.875 9.33047V3.375C16.875 2.75273 16.3723 2.25 15.75 2.25H2.25ZM1.125 13.1695V14.625C1.125 15.2473 1.62773 15.75 2.25 15.75H3.70547L7.08047 12.375L4.70039 9.99492C4.59141 9.88594 4.41211 9.88594 4.30312 9.99492L1.125 13.1695ZM13.7004 7.74492C13.5914 7.63594 13.4121 7.63594 13.3031 7.74492L5.29453 15.75H15.75C16.3723 15.75 16.875 15.2473 16.875 14.625V10.9195L13.7004 7.74492ZM0 3.375C0 2.13398 1.00898 1.125 2.25 1.125H15.75C16.991 1.125 18 2.13398 18 3.375V14.625C18 15.866 16.991 16.875 15.75 16.875H2.25C1.00898 16.875 0 15.866 0 14.625V3.375ZM5.625 5.0625C5.625 4.91332 5.56574 4.77024 5.46025 4.66475C5.35476 4.55926 5.21168 4.5 5.0625 4.5C4.91332 4.5 4.77024 4.55926 4.66475 4.66475C4.55926 4.77024 4.5 4.91332 4.5 5.0625C4.5 5.21168 4.55926 5.35476 4.66475 5.46025C4.77024 5.56574 4.91332 5.625 5.0625 5.625C5.21168 5.625 5.35476 5.56574 5.46025 5.46025C5.56574 5.35476 5.625 5.21168 5.625 5.0625ZM3.375 5.0625C3.375 4.61495 3.55279 4.18572 3.86926 3.86926C4.18573 3.55279 4.61495 3.375 5.0625 3.375C5.51005 3.375 5.93928 3.55279 6.25574 3.86926C6.57221 4.18572 6.75 4.61495 6.75 5.0625C6.75 5.51005 6.57221 5.93928 6.25574 6.25574C5.93928 6.57221 5.51005 6.75 5.0625 6.75C4.61495 6.75 4.18573 6.57221 3.86926 6.25574C3.55279 5.93928 3.375 5.51005 3.375 5.0625Z" fill="black"/>
</svg>
