<svg width="18" height="18" viewBox="0 0 18 18" fill="none" xmlns="http://www.w3.org/2000/svg">
<path d="M0 3.375C0 2.13398 1.00898 1.125 2.25 1.125H15.75C16.991 1.125 18 2.13398 18 3.375V14.625C18 15.866 16.991 16.875 15.75 16.875H2.25C1.00898 16.875 0 15.866 0 14.625V3.375ZM11.3836 7.11914C11.2254 6.88711 10.9652 6.75 10.6875 6.75C10.4098 6.75 10.1461 6.88711 9.99141 7.11914L6.93281 11.6051L6.00117 10.4414C5.83945 10.241 5.59688 10.125 5.34375 10.125C5.09062 10.125 4.84453 10.241 4.68633 10.4414L2.43633 13.2539C2.23242 13.507 2.19375 13.8551 2.33438 14.1469C2.475 14.4387 2.77031 14.625 3.09375 14.625H6.46875H7.59375H14.9062C15.2191 14.625 15.5074 14.4527 15.6516 14.175C15.7957 13.8973 15.7781 13.5633 15.6023 13.3066L11.3836 7.11914ZM3.9375 6.75C4.38505 6.75 4.81428 6.57221 5.13074 6.25574C5.44721 5.93928 5.625 5.51005 5.625 5.0625C5.625 4.61495 5.44721 4.18572 5.13074 3.86926C4.81428 3.55279 4.38505 3.375 3.9375 3.375C3.48995 3.375 3.06072 3.55279 2.74426 3.86926C2.42779 4.18572 2.25 4.61495 2.25 5.0625C2.25 5.51005 2.42779 5.93928 2.74426 6.25574C3.06072 6.57221 3.48995 6.75 3.9375 6.75Z" fill="black"/>
</svg>
