<svg width="18" height="18" viewBox="0 0 18 18" fill="none" xmlns="http://www.w3.org/2000/svg">
<path d="M8.87847 4.95708C6.64253 4.95708 4.83901 6.7606 4.83901 8.99653C4.83901 11.2325 6.64253 13.036 8.87847 13.036C11.1144 13.036 12.9179 11.2325 12.9179 8.99653C12.9179 6.7606 11.1144 4.95708 8.87847 4.95708ZM8.87847 11.6227C7.43355 11.6227 6.25229 10.445 6.25229 8.99653C6.25229 7.5481 7.43003 6.37036 8.87847 6.37036C10.3269 6.37036 11.5046 7.5481 11.5046 8.99653C11.5046 10.445 10.3234 11.6227 8.87847 11.6227ZM14.0253 4.79185C14.0253 5.31567 13.6035 5.73403 13.0832 5.73403C12.5593 5.73403 12.141 5.31216 12.141 4.79185C12.141 4.27153 12.5628 3.84966 13.0832 3.84966C13.6035 3.84966 14.0253 4.27153 14.0253 4.79185ZM16.7007 5.7481C16.641 4.48599 16.3527 3.36802 15.4281 2.44692C14.507 1.52583 13.389 1.23755 12.1269 1.17427C10.8261 1.10044 6.9273 1.10044 5.62651 1.17427C4.36792 1.23403 3.24995 1.52231 2.32534 2.44341C1.40073 3.3645 1.11597 4.48247 1.05269 5.74458C0.978857 7.04536 0.978857 10.9442 1.05269 12.245C1.11245 13.5071 1.40073 14.625 2.32534 15.5461C3.24995 16.4672 4.3644 16.7555 5.62651 16.8188C6.9273 16.8926 10.8261 16.8926 12.1269 16.8188C13.389 16.759 14.507 16.4708 15.4281 15.5461C16.3492 14.625 16.6375 13.5071 16.7007 12.245C16.7746 10.9442 16.7746 7.04888 16.7007 5.7481ZM15.0203 13.6407C14.746 14.3297 14.2152 14.8606 13.5226 15.1383C12.4855 15.5497 10.0246 15.4547 8.87847 15.4547C7.73237 15.4547 5.26792 15.5461 4.23433 15.1383C3.54526 14.8641 3.0144 14.3333 2.73667 13.6407C2.32534 12.6036 2.42026 10.1426 2.42026 8.99653C2.42026 7.85044 2.32886 5.38599 2.73667 4.35239C3.01089 3.66333 3.54175 3.13247 4.23433 2.85474C5.27144 2.44341 7.73237 2.53833 8.87847 2.53833C10.0246 2.53833 12.489 2.44692 13.5226 2.85474C14.2117 3.12895 14.7425 3.65981 15.0203 4.35239C15.4316 5.3895 15.3367 7.85044 15.3367 8.99653C15.3367 10.1426 15.4316 12.6071 15.0203 13.6407Z" fill="black"/>
</svg>
