<svg width="18" height="18" viewBox="0 0 18 18" fill="none" xmlns="http://www.w3.org/2000/svg">
<path d="M5.30156 3.375H2.35195C2.68242 2.40117 3.83555 1.125 6.1875 1.125C7.78711 1.125 8.82773 1.71563 9.43242 2.38711C9.58711 2.55938 9.82617 2.61914 10.0441 2.53828C10.5293 2.3625 11.1164 2.25 11.8125 2.25C14.1645 2.25 15.3176 3.52617 15.648 4.5H9.16875C9.02109 4.5 8.87695 4.55977 8.77148 4.66523L4.70742 8.72578C4.25039 7.80469 4.16602 6.08906 5.82539 4.42617L5.82891 4.42266C6.22969 4.02187 6.63047 3.72656 7.0207 3.50859C7.29141 3.35742 7.38984 3.01641 7.24219 2.7457C7.09453 2.475 6.75 2.37656 6.4793 2.52422C6.08203 2.7457 5.68828 3.02344 5.30156 3.375ZM6.1875 0C3.22031 0 1.61016 1.74023 1.21992 3.24141C1.02305 3.99375 1.67695 4.5 2.25 4.5H4.29258C2.97422 6.35625 3.13594 8.27578 3.81094 9.43242C4.20469 10.1039 5.02383 10.002 5.43164 9.59414L8.35313 6.67266C8.33906 6.80977 8.32148 6.95039 8.30391 7.09805C8.11758 8.52891 7.70625 10.4062 6.81328 12.375H5.625C3.13945 12.375 1.125 14.3895 1.125 16.875C1.125 17.4973 1.62773 18 2.25 18H13.5C14.1223 18 14.625 17.4973 14.625 16.875C14.625 14.5898 12.9234 12.7055 10.7191 12.4137C11.4082 10.1602 11.4434 8.06836 11.2852 6.48281C11.2535 6.17695 11.2184 5.89219 11.1762 5.625H15.75C16.323 5.625 16.977 5.11875 16.7801 4.36641C16.3898 2.86523 14.7797 1.125 11.8125 1.125C11.1445 1.125 10.5434 1.21289 10.0055 1.36758C9.16875 0.580078 7.89961 0 6.1875 0ZM10.0336 5.625C10.0828 5.92031 10.1285 6.24375 10.1637 6.59531C10.3184 8.14219 10.2762 10.1848 9.55195 12.375H8.04023C8.84883 10.4555 9.23555 8.64492 9.41836 7.2457C9.49922 6.61289 9.54141 6.06445 9.55898 5.625H10.0336ZM10.125 13.5C11.9883 13.5 13.5 15.0117 13.5 16.875H2.25C2.25 15.0117 3.76172 13.5 5.625 13.5H10.125Z" fill="black"/>
</svg>
