<svg width="18" height="18" viewBox="0 0 18 18" fill="none" xmlns="http://www.w3.org/2000/svg">
<path d="M4.01836 3.29414C3.96563 3.34687 3.89531 3.375 3.81797 3.375H2.74922C2.43984 3.375 2.1832 3.12187 2.26406 2.81953C2.5875 1.575 3.96562 0 6.68672 0C8.73984 0 10.0266 0.896484 10.677 1.87031C11.3766 1.42734 12.3117 1.125 13.5 1.125C16.2211 1.125 17.5992 2.7 17.9227 3.94453C18 4.24687 17.7469 4.5 17.4375 4.5H15.866C15.7922 4.5 15.7184 4.47187 15.6656 4.41914L14.8219 3.57539C14.7129 3.46641 14.5336 3.46641 14.4246 3.57539L13.5809 4.41914C13.5281 4.47187 13.4578 4.5 13.3805 4.5H10.5996C11.584 7.30898 11.3449 10.4836 10.9477 12.4488C13.0395 12.8355 14.625 14.6707 14.625 16.875C14.625 17.4973 14.1223 18 13.5 18H2.25C1.62773 18 1.125 17.4973 1.125 16.875C1.125 14.3895 3.13945 12.375 5.625 12.375H7.875C8.91914 9.58711 8.90859 7.06992 8.67656 5.55469L5.59687 8.63438C5.37891 8.85234 5.0168 8.85234 4.85859 8.58516C4.2082 7.47422 4.06758 5.38945 5.99414 3.46289C6.04336 3.41367 6.09258 3.36797 6.13828 3.32227C6.12773 3.31172 6.11367 3.30469 6.10313 3.29414L5.25938 2.45039C5.15039 2.34141 4.97109 2.34141 4.86211 2.45039L4.01836 3.29414Z" fill="black"/>
</svg>
