<svg width="18" height="18" viewBox="0 0 18 18" fill="none" xmlns="http://www.w3.org/2000/svg">
<path d="M7 6.5C7 4.01562 9.01562 2 11.5 2C13.9844 2 16 4.01562 16 6.5C16 8.98438 13.9844 11 11.5 11C11.1531 11 10.8125 10.9594 10.4875 10.8875C10.3188 10.85 10.1438 10.9 10.0219 11.0219L9.04375 12H7.5C7.225 12 7 12.225 7 12.5V14H5.5C5.225 14 5 14.225 5 14.5V16H2V13.4563L7.0875 8.36875C7.21875 8.2375 7.26562 8.04063 7.20937 7.8625C7.07188 7.43125 7 6.975 7 6.49687V6.5ZM11.5 1C8.4625 1 6 3.4625 6 6.5C6 6.97188 6.05937 7.43125 6.17188 7.87187L1.14687 12.8969C1.05312 12.9906 1 13.1187 1 13.25V16.5C1 16.775 1.225 17 1.5 17H5.5C5.775 17 6 16.775 6 16.5V15H7.5C7.775 15 8 14.775 8 14.5V13H9.25C9.38125 13 9.50937 12.9469 9.60312 12.8531L10.5406 11.9156C10.8531 11.9719 11.1719 12 11.5 12C14.5375 12 17 9.5375 17 6.5C17 3.4625 14.5375 1 11.5 1ZM12.5 6.25C12.6989 6.25 12.8897 6.17098 13.0303 6.03033C13.171 5.88968 13.25 5.69891 13.25 5.5C13.25 5.30109 13.171 5.11032 13.0303 4.96967C12.8897 4.82902 12.6989 4.75 12.5 4.75C12.3011 4.75 12.1103 4.82902 11.9697 4.96967C11.829 5.11032 11.75 5.30109 11.75 5.5C11.75 5.69891 11.829 5.88968 11.9697 6.03033C12.1103 6.17098 12.3011 6.25 12.5 6.25Z" fill="black"/>
</svg>
