<svg width="18" height="18" viewBox="0 0 18 18" fill="none" xmlns="http://www.w3.org/2000/svg">
<path d="M11.5 12C14.5375 12 17 9.5375 17 6.5C17 3.4625 14.5375 1 11.5 1C8.4625 1 6 3.4625 6 6.5C6 7.08437 6.09063 7.65 6.25938 8.17812L1.21875 13.2188C1.07812 13.3594 1 13.55 1 13.75V16.25C1 16.6656 1.33437 17 1.75 17H4.25C4.66563 17 5 16.6656 5 16.25V15H6.25C6.66563 15 7 14.6656 7 14.25V13H8.25C8.45 13 8.64062 12.9219 8.78125 12.7812L9.82187 11.7406C10.35 11.9094 10.9156 12 11.5 12ZM12.75 4C13.0815 4 13.3995 4.1317 13.6339 4.36612C13.8683 4.60054 14 4.91848 14 5.25C14 5.58152 13.8683 5.89946 13.6339 6.13388C13.3995 6.3683 13.0815 6.5 12.75 6.5C12.4185 6.5 12.1005 6.3683 11.8661 6.13388C11.6317 5.89946 11.5 5.58152 11.5 5.25C11.5 4.91848 11.6317 4.60054 11.8661 4.36612C12.1005 4.1317 12.4185 4 12.75 4Z" fill="black"/>
</svg>
