<svg width="18" height="18" viewBox="0 0 18 18" fill="none" xmlns="http://www.w3.org/2000/svg">
<g clip-path="url(#clip0_1167_2806)">
<path d="M17.4445 4.70039C17.7574 4.89726 18 5.25937 18 5.65312C18 6.25781 17.5078 6.75 16.9031 6.75H1.09547C0.49043 6.75 1.05469e-05 6.25781 1.05469e-05 5.65312C1.05469e-05 5.25937 0.212168 4.89726 0.555469 4.70039L8.72227 0.0731215C8.89453 -0.0243738 9.07383 -0.0243738 9.27773 0.0731215L17.4445 4.70039ZM1.20727 5.625H16.7941L9 1.20902L1.20727 5.625ZM2.25 12.375V7.875H3.375V12.375H6.1875V7.875H7.3125V12.375H10.6875V7.875H11.8125V12.375H14.625V7.875H15.75V12.375C16.0594 12.375 16.3125 12.6281 16.3125 12.9375C16.3125 13.2469 16.0594 13.5 15.75 13.5H2.25C1.93922 13.5 1.6875 13.2469 1.6875 12.9375C1.6875 12.6281 1.93922 12.375 2.25 12.375ZM0.84375 15.1875C0.84375 14.8781 1.09547 14.625 1.40625 14.625H16.5938C16.9031 14.625 17.1562 14.8781 17.1562 15.1875C17.1562 15.4969 16.9031 15.75 16.5938 15.75H1.40625C1.09547 15.75 0.84375 15.4969 0.84375 15.1875ZM0 17.4375C0 17.1281 0.251859 16.875 0.5625 16.875H17.4375C17.7469 16.875 18 17.1281 18 17.4375C18 17.7469 17.7469 18 17.4375 18H0.5625C0.251859 18 0 17.7469 0 17.4375Z" fill="black"/>
</g>
<defs>
<clipPath id="clip0_1167_2806">
<rect width="18" height="18" fill="white"/>
</clipPath>
</defs>
</svg>
