<svg width="18" height="18" viewBox="0 0 18 18" fill="none" xmlns="http://www.w3.org/2000/svg">
<g clip-path="url(#clip0_1167_2807)">
<path d="M8.44101 0.147656C8.78555 -0.0492188 9.21094 -0.0492188 9.55898 0.147656L15.5988 3.59648L15.75 3.65625V3.68789L17.434 4.65117C17.877 4.9043 18.0949 5.42461 17.9648 5.9168C17.8348 6.40898 17.3883 6.75352 16.8785 6.75352H1.125C0.615232 6.75352 0.168748 6.40898 0.0386696 5.9168C-0.0914085 5.42461 0.12656 4.9043 0.569529 4.65117L2.25 3.68789V3.65625L2.40469 3.6L8.44101 0.147656ZM2.25 7.875H4.5V14.625H5.90625V7.875H8.15625V14.625H9.84375V7.875H12.0937V14.625H13.5V7.875H15.75V14.7762C15.7711 14.7867 15.7922 14.8008 15.8133 14.8148L17.5008 15.9398C17.9121 16.2141 18.0984 16.7273 17.9543 17.202C17.8102 17.6766 17.3707 18 16.875 18H1.125C0.629295 18 0.193357 17.6766 0.0492165 17.202C-0.0949241 16.7273 0.0878884 16.2141 0.502732 15.9398L2.19023 14.8148C2.21133 14.8008 2.23242 14.7902 2.25351 14.7762V7.875H2.25Z" fill="black"/>
</g>
<defs>
<clipPath id="clip0_1167_2807">
<rect width="18" height="18" fill="white"/>
</clipPath>
</defs>
</svg>
