<svg width="18" height="18" viewBox="0 0 18 18" fill="none" xmlns="http://www.w3.org/2000/svg">
<path d="M11 13.5C11.3375 12.3785 12.0371 11.4223 12.7297 10.4695C12.9125 10.2199 13.0953 9.97031 13.2711 9.71719C13.9672 8.71523 14.375 7.50234 14.375 6.19102C14.375 2.77031 11.6047 0 8.1875 0C4.77031 0 2 2.77031 2 6.1875C2 7.49883 2.40781 8.71523 3.10391 9.71367C3.27969 9.9668 3.4625 10.2164 3.64531 10.466C4.33789 11.4223 5.0375 12.3785 5.375 13.5H11ZM8.1875 18C9.74141 18 11 16.7414 11 15.1875V14.625H5.375V15.1875C5.375 16.7414 6.63359 18 8.1875 18ZM5.375 6.1875C5.375 6.49687 5.12188 6.75 4.8125 6.75C4.50312 6.75 4.25 6.49687 4.25 6.1875C4.25 4.01133 6.01133 2.25 8.1875 2.25C8.49687 2.25 8.75 2.50312 8.75 2.8125C8.75 3.12188 8.49687 3.375 8.1875 3.375C6.63359 3.375 5.375 4.63359 5.375 6.1875Z" fill="black"/>
</svg>
