<svg width="18" height="18" viewBox="0 0 18 18" fill="none" xmlns="http://www.w3.org/2000/svg">
<g clip-path="url(#clip0_1368_2823)">
<path d="M10.9965 14.5934H6.50352C6.19252 14.5934 5.94172 14.8458 5.94207 15.1569L5.94102 15.9715C5.94136 16.1921 6.00465 16.4099 6.12678 16.5934L6.72936 17.4966C6.91305 17.7727 7.33405 17.9986 7.66592 17.9986H9.83401C10.1651 17.9986 10.586 17.7724 10.7695 17.4966L11.37 16.5938C11.4738 16.4377 11.5578 16.1589 11.558 15.9715L11.5562 15.1865C11.5555 14.8782 11.3059 14.5934 10.9965 14.5934ZM10.434 15.975L9.86762 16.8346C9.85086 16.8498 9.80834 16.8726 9.83713 16.8739L7.71756 16.878C7.70266 16.8743 7.67755 16.8682 7.66753 16.8682C7.66259 16.8682 7.66279 16.8602 7.66753 16.8682L7.06636 15.9724L7.06602 15.7484H10.4389L10.439 15.9305C10.434 15.9469 10.427 15.975 10.434 15.975ZM13.1023 1.80355C11.9306 0.635656 10.3524 -0.0411022 8.73242 0.000733758C5.3293 0.0103806 2.5625 2.80866 2.5625 6.23675C2.5625 7.74495 3.10637 9.20183 4.09355 10.336C4.56219 10.8742 5.35355 12.0794 5.63094 13.0085C5.66884 13.3139 5.94186 13.5225 6.25109 13.4909C6.55706 13.4568 6.77773 13.1756 6.74715 12.8704L6.72572 12.7539C6.36326 11.5245 5.4601 10.1932 4.94225 9.59797C4.13293 8.66605 3.6875 7.47425 3.6875 6.23675C3.6875 3.38066 5.9041 1.13558 8.73242 1.12855H8.75C10.0905 1.12855 11.3533 1.65132 12.3078 2.60265C13.2781 3.56839 13.8125 4.85862 13.8125 6.23675C13.8125 7.47355 13.3671 8.6678 12.5585 9.59839C12.0399 10.1939 11.1368 11.5253 10.7743 12.7544L10.7523 12.8719C10.7155 13.1795 10.9259 13.4903 11.2329 13.529C11.2604 13.5323 11.2867 13.5345 11.3131 13.5345C11.5872 13.5345 11.8179 13.3543 11.8531 13.0732C12.1464 12.08 12.938 10.8752 13.407 10.3366C14.3926 9.20042 14.9375 7.74495 14.9375 6.23675C14.9375 4.5598 14.2871 2.98444 13.1023 1.80355ZM9.3125 2.81288C9.3125 2.502 9.06092 2.25038 8.75 2.25038C6.5791 2.25038 4.8125 4.01663 4.8125 6.15624C4.8125 6.49691 5.06422 6.75003 5.375 6.75003C5.68578 6.75003 5.9375 6.49838 5.9375 6.18753C5.9375 4.63714 7.19891 3.40667 8.75 3.40667C9.05937 3.37538 9.3125 3.12402 9.3125 2.81288Z" fill="black"/>
</g>
<defs>
<clipPath id="clip0_1368_2823">
<rect width="18" height="18" fill="white"/>
</clipPath>
</defs>
</svg>
