<svg width="18" height="18" viewBox="0 0 18 18" fill="none" xmlns="http://www.w3.org/2000/svg">
<path d="M4.86564 5.69561C6.24657 4.29273 8.5472 4.29273 9.95064 5.69561C11.2866 7.03155 11.3372 9.16905 10.125 10.595L9.97595 10.7665C9.81282 10.955 9.52876 10.9747 9.34032 10.8115C9.1547 10.6512 9.1322 10.3672 9.29532 10.1787L9.4472 10.0044C10.3725 8.93561 10.3163 7.33249 9.31501 6.33405C8.26314 5.27936 6.55595 5.27936 5.50407 6.33405L1.9997 9.83561C0.945293 10.8903 0.945293 12.6003 1.9997 13.655C3.05439 14.7097 4.76439 14.7097 5.81907 13.655L6.4547 13.0194C6.62907 12.8422 6.91595 12.8422 7.09032 13.0194C7.26751 13.1937 7.26751 13.4778 7.09032 13.655L6.4547 14.2906C5.04845 15.6969 2.7692 15.6969 1.36323 14.2906C-0.0426261 12.8844 -0.0426261 10.5809 1.36323 9.19999L4.86564 5.69561ZM13.1091 12.7044C11.7281 14.1078 9.45282 14.1078 8.04939 12.7044C6.71345 11.3684 6.63751 9.23092 7.8497 7.80499L8.02407 7.63342C8.1872 7.44499 8.47126 7.4253 8.6597 7.58842C8.84532 7.74873 8.86782 8.0328 8.7047 8.22124L8.55282 8.39561C7.62751 9.46436 7.68376 11.0675 8.68501 12.0659C9.73689 13.1206 11.4441 13.1206 12.4959 12.0659L16.0003 8.56436C17.055 7.50967 17.055 5.79967 16.0003 4.74527C14.9456 3.69086 13.2356 3.69086 12.1809 4.74527L11.5453 5.38061C11.3709 5.5578 11.0841 5.5578 10.9097 5.38061C10.7325 5.18092 10.7325 4.92217 10.9097 4.74527L11.5453 4.1088C12.9516 2.70283 15.2297 2.70283 16.6359 4.1088C18.0422 5.4903 18.0422 7.79374 16.6359 9.17467L13.1091 12.7044Z" fill="black"/>
</svg>
