<svg width="18" height="18" viewBox="0 0 18 18" fill="none" xmlns="http://www.w3.org/2000/svg">
<path d="M15.625 1.125H2.12148C1.50273 1.125 1 1.63477 1 2.26055V15.7395C1 16.3652 1.50273 16.875 2.12148 16.875H15.625C16.2437 16.875 16.75 16.3652 16.75 15.7395V2.26055C16.75 1.63477 16.2437 1.125 15.625 1.125ZM5.76016 14.625H3.42578V7.10859H5.76367V14.625H5.76016ZM4.59297 6.08203C3.84414 6.08203 3.23945 5.47383 3.23945 4.72852C3.23945 3.9832 3.84414 3.375 4.59297 3.375C5.33828 3.375 5.94648 3.9832 5.94648 4.72852C5.94648 5.47734 5.3418 6.08203 4.59297 6.08203ZM14.5105 14.625H12.1762V10.9688C12.1762 10.0969 12.1586 8.97539 10.9633 8.97539C9.74687 8.97539 9.56055 9.92461 9.56055 10.9055V14.625H7.22617V7.10859H9.46562V8.13516H9.49727C9.81016 7.54453 10.573 6.92227 11.7086 6.92227C14.0711 6.92227 14.5105 8.47969 14.5105 10.5047V14.625Z" fill="black"/>
</svg>
