<svg width="18" height="18" viewBox="0 0 18 18" fill="none" xmlns="http://www.w3.org/2000/svg">
<path d="M16.3069 9.52911C17.896 7.94004 17.896 5.36661 16.3069 3.77754C14.9006 2.37129 12.6844 2.18848 11.0672 3.34442L11.0222 3.37536C10.6172 3.66504 10.5244 4.22754 10.8141 4.62973C11.1038 5.03192 11.6663 5.12754 12.0685 4.83786L12.1135 4.80692C13.0163 4.16286 14.251 4.26411 15.0328 5.04879C15.9188 5.93473 15.9188 7.36911 15.0328 8.25504L11.8772 11.4163C10.9913 12.3022 9.55689 12.3022 8.67095 11.4163C7.88626 10.6316 7.78501 9.39692 8.42908 8.49692L8.46001 8.45192C8.7497 8.04692 8.65408 7.48442 8.25189 7.19754C7.8497 6.91067 7.28439 7.00348 6.99751 7.40567L6.96658 7.45067C5.80783 9.06504 5.99064 11.2813 7.39689 12.6875C8.98595 14.2766 11.5594 14.2766 13.1485 12.6875L16.3069 9.52911ZM1.69314 8.87098C0.104077 10.46 0.104077 13.0335 1.69314 14.6225C3.09939 16.0288 5.31564 16.2116 6.93283 15.0557L6.97783 15.0247C7.38283 14.735 7.47564 14.1725 7.18595 13.7704C6.89626 13.3682 6.33376 13.2725 5.93158 13.5622L5.88658 13.5932C4.98376 14.2372 3.74908 14.136 2.9672 13.3513C2.08126 12.4625 2.08126 11.0282 2.9672 10.1422L6.12283 6.98379C7.00876 6.09786 8.44314 6.09786 9.32908 6.98379C10.1138 7.76848 10.215 9.00317 9.57095 9.90598L9.54001 9.95098C9.25033 10.356 9.34595 10.9185 9.74814 11.2054C10.1503 11.4922 10.7156 11.3994 11.0025 10.9972L11.0335 10.9522C12.1922 9.33504 12.0094 7.11879 10.6031 5.71254C9.01408 4.12348 6.44064 4.12348 4.85158 5.71254L1.69314 8.87098Z" fill="black"/>
</svg>
