<svg width="18" height="18" viewBox="0 0 18 18" fill="none" xmlns="http://www.w3.org/2000/svg">
<path d="M4.52547 15.7499H1.26016V5.23466H4.52547V15.7499ZM2.89105 3.80028C1.84691 3.80028 1 2.93544 1 1.8913C1 1.38976 1.19924 0.908763 1.55388 0.554121C1.90852 0.19948 2.38952 0.000244141 2.89105 0.000244141C3.39259 0.000244141 3.87359 0.19948 4.22823 0.554121C4.58287 0.908763 4.78211 1.38976 4.78211 1.8913C4.78211 2.93544 3.93484 3.80028 2.89105 3.80028ZM16.7465 15.7499H13.4882V10.6311C13.4882 9.41122 13.4636 7.84677 11.7905 7.84677C10.0928 7.84677 9.83266 9.17216 9.83266 10.5433V15.7499H6.57086V5.23466H9.70258V6.66903H9.74828C10.1842 5.84286 11.2491 4.97099 12.8378 4.97099C16.1425 4.97099 16.75 7.14716 16.75 9.97372V15.7499H16.7465Z" fill="black"/>
</svg>
