<svg width="18" height="18" viewBox="0 0 18 18" fill="none" xmlns="http://www.w3.org/2000/svg">
<path d="M5.49316 3.52819C5.69355 3.31303 5.6584 2.99346 5.42285 2.81628C5.1873 2.63909 4.82871 2.66757 4.63184 2.87956L2.20957 5.49307L0.958008 4.36667C0.740039 4.1705 0.381445 4.1705 0.163477 4.36667C-0.0544922 4.56284 -0.0544922 4.88557 0.163477 5.08175L1.85098 6.6005C1.96348 6.70175 2.11465 6.75553 2.27285 6.74921C2.43105 6.74288 2.57871 6.67643 2.68066 6.56886L5.49316 3.53135V3.52819ZM5.49316 8.59069C5.69355 8.37553 5.6584 8.05596 5.42285 7.87878C5.1873 7.70159 4.82871 7.73007 4.63184 7.94206L2.20957 10.5556L0.958008 9.42917C0.740039 9.233 0.381445 9.233 0.163477 9.42917C-0.0544922 9.62534 -0.0544922 9.94807 0.163477 10.1442L1.85098 11.663C1.96348 11.7642 2.11465 11.818 2.27285 11.8117C2.43105 11.8054 2.57871 11.7389 2.68066 11.6314L5.49316 8.59385V8.59069ZM6.74824 4.72421C6.74824 5.00264 7.00137 5.23046 7.31074 5.23046H17.4357C17.7451 5.23046 17.9982 5.00264 17.9982 4.72421C17.9982 4.44577 17.7451 4.21796 17.4357 4.21796H7.31074C7.00137 4.21796 6.74824 4.44577 6.74824 4.72421ZM6.74824 9.78671C6.74824 10.0651 7.00137 10.293 7.31074 10.293H17.4357C17.7451 10.293 17.9982 10.0651 17.9982 9.78671C17.9982 9.50827 17.7451 9.28046 17.4357 9.28046H7.31074C7.00137 9.28046 6.74824 9.50827 6.74824 9.78671ZM5.62324 14.8492C5.62324 15.1276 5.87637 15.3555 6.18574 15.3555H17.4357C17.7451 15.3555 17.9982 15.1276 17.9982 14.8492C17.9982 14.5708 17.7451 14.343 17.4357 14.343H6.18574C5.87637 14.343 5.62324 14.5708 5.62324 14.8492ZM3.37324 14.8492C3.37324 14.5807 3.25472 14.3231 3.04374 14.1333C2.83276 13.9434 2.54661 13.8367 2.24824 13.8367C1.94987 13.8367 1.66373 13.9434 1.45275 14.1333C1.24177 14.3231 1.12324 14.5807 1.12324 14.8492C1.12324 15.1177 1.24177 15.3753 1.45275 15.5652C1.66373 15.755 1.94987 15.8617 2.24824 15.8617C2.54661 15.8617 2.83276 15.755 3.04374 15.5652C3.25472 15.3753 3.37324 15.1177 3.37324 14.8492Z" fill="black"/>
</svg>
