<svg width="18" height="18" viewBox="0 0 18 18" fill="none" xmlns="http://www.w3.org/2000/svg">
<g clip-path="url(#clip0_3809_65973)">
<path d="M5.34902 1.22091C5.69707 1.5338 5.7252 2.06466 5.4123 2.41271L2.88105 5.22521C2.72637 5.39747 2.5084 5.49943 2.27637 5.50294C2.04434 5.50646 1.82285 5.41857 1.65762 5.25685L0.247852 3.8506C-0.0791016 3.52013 -0.0791016 2.98575 0.247852 2.65529C0.574805 2.32482 1.1127 2.32482 1.43965 2.65529L2.2166 3.43224L4.15371 1.28068C4.4666 0.93263 4.99746 0.904505 5.34551 1.2174L5.34902 1.22091ZM5.34902 6.84591C5.69707 7.1588 5.7252 7.68966 5.4123 8.03771L2.88105 10.8502C2.72637 11.0225 2.5084 11.1244 2.27637 11.1279C2.04434 11.1315 1.82285 11.0436 1.65762 10.8818L0.247852 9.4756C-0.0826172 9.14513 -0.0826172 8.61075 0.247852 8.2838C0.57832 7.95685 1.1127 7.95333 1.43965 8.2838L2.2166 9.06075L4.15371 6.90919C4.4666 6.56114 4.99746 6.53302 5.34551 6.84591H5.34902ZM7.87676 3.25294C7.87676 2.63068 8.37949 2.12794 9.00176 2.12794H16.8768C17.499 2.12794 18.0018 2.63068 18.0018 3.25294C18.0018 3.87521 17.499 4.37794 16.8768 4.37794H9.00176C8.37949 4.37794 7.87676 3.87521 7.87676 3.25294ZM7.87676 8.87794C7.87676 8.25568 8.37949 7.75294 9.00176 7.75294H16.8768C17.499 7.75294 18.0018 8.25568 18.0018 8.87794C18.0018 9.50021 17.499 10.0029 16.8768 10.0029H9.00176C8.37949 10.0029 7.87676 9.50021 7.87676 8.87794ZM5.62676 14.5029C5.62676 13.8807 6.12949 13.3779 6.75176 13.3779H16.8768C17.499 13.3779 18.0018 13.8807 18.0018 14.5029C18.0018 15.1252 17.499 15.6279 16.8768 15.6279H6.75176C6.12949 15.6279 5.62676 15.1252 5.62676 14.5029ZM1.68926 12.8154C2.13681 12.8154 2.56603 12.9932 2.8825 13.3097C3.19897 13.6262 3.37676 14.0554 3.37676 14.5029C3.37676 14.9505 3.19897 15.3797 2.8825 15.6962C2.56603 16.0127 2.13681 16.1904 1.68926 16.1904C1.2417 16.1904 0.812483 16.0127 0.496015 15.6962C0.179547 15.3797 0.0017578 14.9505 0.0017578 14.5029C0.0017578 14.0554 0.179547 13.6262 0.496015 13.3097C0.812483 12.9932 1.2417 12.8154 1.68926 12.8154Z" fill="black"/>
</g>
<defs>
<clipPath id="clip0_3809_65973">
<rect width="18" height="18" fill="white"/>
</clipPath>
</defs>
</svg>
