<svg width="18" height="18" viewBox="0 0 18 18" fill="none" xmlns="http://www.w3.org/2000/svg">
<path d="M11 5C11 3.34375 12.3438 2 14 2C15.6562 2 17 3.34375 17 5V7.5C17 7.775 17.225 8 17.5 8C17.775 8 18 7.775 18 7.5V5C18 2.79063 16.2094 1 14 1C11.7906 1 10 2.79063 10 5V7H2.5C1.11875 7 0 8.11875 0 9.5V14.5C0 15.8813 1.11875 17 2.5 17H11.5C12.8813 17 14 15.8813 14 14.5V9.5C14 8.11875 12.8813 7 11.5 7H11V5ZM10.5 8H11.5C12.3281 8 13 8.67188 13 9.5V14.5C13 15.3281 12.3281 16 11.5 16H2.5C1.67188 16 1 15.3281 1 14.5V9.5C1 8.67188 1.67188 8 2.5 8H10.5Z" fill="black"/>
</svg>
