<svg width="18" height="18" viewBox="0 0 18 18" fill="none" xmlns="http://www.w3.org/2000/svg">
<path d="M4.375 6.75V4.5C4.375 2.0148 6.38945 0 8.875 0C11.3605 0 13.375 2.0148 13.375 4.5V6.75H13.9375C15.4914 6.75 16.75 8.00859 16.75 9.5625V15.1875C16.75 16.7414 15.4914 18 13.9375 18H3.8125C2.2593 18 1 16.7414 1 15.1875V9.5625C1 8.00859 2.2593 6.75 3.8125 6.75H4.375ZM5.5 6.75H12.25V4.5C12.25 2.63602 10.7383 1.125 8.875 1.125C6.98008 1.125 5.5 2.63602 5.5 4.5V6.75ZM2.125 15.1875C2.125 16.1191 2.88051 16.875 3.8125 16.875H13.9375C14.8691 16.875 15.625 16.1191 15.625 15.1875V9.5625C15.625 8.63086 14.8691 7.875 13.9375 7.875H3.8125C2.88051 7.875 2.125 8.63086 2.125 9.5625V15.1875Z" fill="black"/>
</svg>
