<svg width="18" height="18" viewBox="0 0 18 18" fill="none" xmlns="http://www.w3.org/2000/svg">
<g clip-path="url(#clip0_1207_3508)">
<path d="M17.8348 17.0402L12.8602 12.0656C13.957 10.7859 14.5934 9.13008 14.5934 7.3125C14.5934 3.27305 11.3193 0 7.28087 0C3.24247 0 0 3.2741 0 7.3125C0 11.3509 3.27376 14.625 7.28087 14.625C9.09774 14.625 10.7561 13.9584 12.034 12.8619L17.0086 17.8365C17.1492 17.9438 17.2934 18 17.4375 18C17.5816 18 17.7254 17.9451 17.8351 17.8352C18.0563 17.6168 18.0563 17.2582 17.8348 17.0402ZM7.31251 13.5C3.87071 13.5 1.12501 10.7227 1.12501 7.3125C1.12501 3.90234 3.87071 1.125 7.31251 1.125C10.7543 1.125 13.5 3.8707 13.5 7.3125C13.5 10.7543 10.7227 13.5 7.31251 13.5Z" fill="black"/>
</g>
<defs>
<clipPath id="clip0_1207_3508">
<rect width="18" height="18" fill="white"/>
</clipPath>
</defs>
</svg>
