<svg width="18" height="18" viewBox="0 0 18 18" fill="none" xmlns="http://www.w3.org/2000/svg">
<path d="M17.0168 14.625C17.0168 15.2473 16.5141 15.75 15.8918 15.75L5.15798 15.75C4.53572 15.75 4.03298 15.2473 4.03298 14.625C4.03298 14.0027 4.53572 13.5 5.15798 13.5L15.8918 13.5C16.5141 13.5 17.0168 14.0027 17.0168 14.625ZM17.0168 9C17.0168 9.62227 16.5141 10.125 15.8918 10.125L8.25381 10.125C7.63155 10.125 7.12881 9.62226 7.12881 9C7.12881 8.37773 7.63155 7.875 8.25381 7.875L15.8918 7.875C16.5141 7.875 17.0168 8.37773 17.0168 9ZM4.03298 3.375C4.03298 2.75273 4.53572 2.25 5.15798 2.25L15.8918 2.25C16.5141 2.25 17.0168 2.75273 17.0168 3.375C17.0168 3.99727 16.5141 4.5 15.8918 4.5L5.15798 4.5C4.53572 4.5 4.03298 3.99726 4.03298 3.375Z" fill="black"/>
<path fill-rule="evenodd" clip-rule="evenodd" d="M1.34072 13.043C0.930674 12.673 0.898186 12.0407 1.26816 11.6306L3.64187 8.99979L1.28906 6.39022C0.919234 5.98004 0.951951 5.34772 1.36213 4.97789C1.77231 4.60807 2.40463 4.64079 2.77446 5.05097L5.73123 8.33041C6.07438 8.71102 6.07428 9.28944 5.73098 9.66992L2.75307 12.9704C2.3831 13.3805 1.75077 13.413 1.34072 13.043Z" fill="black"/>
</svg>
