<svg width="18" height="18" viewBox="0 0 18 18" fill="none" xmlns="http://www.w3.org/2000/svg">
<path d="M17 14.625C17 14.9344 16.745 15.1875 16.4332 15.1875L4.56676 15.1875C4.25504 15.1875 4 14.9344 4 14.625C4 14.3156 4.25504 14.0625 4.56676 14.0625L16.4332 14.0625C16.745 14.0625 17 14.3156 17 14.625ZM17 9C17 9.30937 16.745 9.5625 16.4332 9.5625L7.61694 9.5625C7.30522 9.5625 7.05018 9.30937 7.05018 9C7.05018 8.69062 7.30522 8.4375 7.61694 8.4375L9.06533 8.4375L16.4332 8.4375C16.745 8.4375 17 8.69063 17 9ZM4 3.375C4 3.06562 4.25504 2.8125 4.56676 2.8125L16.4332 2.8125C16.745 2.8125 17 3.06563 17 3.375C17 3.68437 16.745 3.9375 16.4332 3.9375L4.56676 3.9375C4.25504 3.9375 4 3.68437 4 3.375Z" fill="black"/>
<path fill-rule="evenodd" clip-rule="evenodd" d="M1.16273 12.6718C0.957705 12.4868 0.94146 12.1706 1.12645 11.9656L3.80226 8.99991L1.14747 6.05541C0.962556 5.85032 0.978913 5.53416 1.184 5.34925C1.3891 5.16433 1.70526 5.18069 1.89017 5.38578L4.84694 8.66522C5.01852 8.85553 5.01846 9.14474 4.84682 9.33498L1.8689 12.6355C1.68392 12.8405 1.36775 12.8567 1.16273 12.6718Z" fill="black"/>
</svg>
