<svg width="18" height="18" viewBox="0 0 18 18" fill="none" xmlns="http://www.w3.org/2000/svg">
<g clip-path="url(#clip0_11101_17840)">
<path d="M11.6999 2.9249C11.6999 1.80553 10.7943 0.899902 9.6749 0.899902H2.9249C1.80553 0.899902 0.899902 1.80553 0.899902 2.9249V8.3249C0.899902 9.44428 1.80553 10.3499 2.9249 10.3499H3.5999V12.1499C3.5999 12.3974 3.8024 12.5999 4.0499 12.5999H4.10053C4.21303 12.5999 4.3199 12.5577 4.40428 12.4818L6.7499 10.3499H9.6749C10.7943 10.3499 11.6999 9.44428 11.6999 8.3249V2.9249ZM6.2999 12.583V12.8249C6.2999 13.9443 7.20553 14.8499 8.3249 14.8499H11.2499L13.5955 16.9818C13.6771 17.0577 13.7868 17.0999 13.8993 17.0999H13.9499C14.1974 17.0999 14.3999 16.8974 14.3999 16.6499V14.8499H15.0749C16.1943 14.8499 17.0999 13.9443 17.0999 12.8249V7.4249C17.0999 6.30553 16.1943 5.3999 15.0749 5.3999H13.0499V8.3249C13.0499 10.1896 11.5396 11.6999 9.6749 11.6999H7.27303L6.2999 12.583ZM6.2999 3.9374C5.97647 3.9374 5.70084 4.14553 5.6024 4.43803C5.50396 4.73334 5.18615 4.89084 4.89084 4.7924C4.59553 4.69396 4.43803 4.37615 4.53647 4.08084C4.78397 3.34397 5.47865 2.80959 6.2999 2.80959C7.32647 2.80959 8.15897 3.64209 8.15897 4.66865C8.15897 5.77115 7.31522 6.23522 6.85115 6.40115C6.80053 6.66272 6.57272 6.85678 6.2999 6.85678C5.99053 6.85678 5.7374 6.60365 5.7374 6.29428C5.7374 5.81334 6.08615 5.47022 6.44053 5.35209C6.58959 5.30147 6.74428 5.22553 6.85678 5.11303C6.95521 5.0174 7.03397 4.88521 7.03397 4.66584C7.03397 4.26084 6.7049 3.93178 6.2999 3.93178V3.9374ZM5.6249 8.0999C5.6249 7.72584 5.92584 7.4249 6.2999 7.4249C6.67396 7.4249 6.9749 7.72584 6.9749 8.0999C6.9749 8.47397 6.67396 8.7749 6.2999 8.7749C5.92584 8.7749 5.6249 8.47397 5.6249 8.0999Z" fill="black"/>
</g>
<defs>
<clipPath id="clip0_11101_17840">
<rect width="18" height="18" fill="white"/>
</clipPath>
</defs>
</svg>
