<svg width="18" height="18" viewBox="0 0 18 18" fill="none" xmlns="http://www.w3.org/2000/svg">
<g clip-path="url(#clip0_11101_17844)">
<path d="M2.9249 1.7999H9.6749C10.2965 1.7999 10.7999 2.30334 10.7999 2.9249V8.3249C10.7999 8.94647 10.2965 9.4499 9.6749 9.4499H7.15772C6.78928 9.4499 6.43209 9.57928 6.14803 9.81553L4.4999 11.188V9.8999C4.4999 9.6524 4.2974 9.4499 4.0499 9.4499H2.9249C2.30334 9.4499 1.7999 8.94647 1.7999 8.3249V2.9249C1.7999 2.30334 2.30334 1.7999 2.9249 1.7999ZM0.899902 2.9249V8.3249C0.899902 9.44428 1.80553 10.3499 2.9249 10.3499H3.5999V12.1499C3.5999 12.3243 3.70115 12.4846 3.85865 12.5577C4.01615 12.6308 4.20459 12.6083 4.33678 12.4958L6.72459 10.5074C6.84553 10.4062 7.00022 10.3499 7.15772 10.3499H9.6749C10.7943 10.3499 11.6999 9.44428 11.6999 8.3249V2.9249C11.6999 1.80553 10.7943 0.899902 9.6749 0.899902H2.9249C1.80553 0.899902 0.899902 1.80553 0.899902 2.9249ZM7.1999 12.8249V11.8687L6.2999 12.6196V12.8277C6.2999 13.9471 7.20553 14.8527 8.3249 14.8527H10.8421C10.9996 14.8527 11.1543 14.909 11.2752 15.0102L13.663 16.9987C13.798 17.1112 13.9837 17.1337 14.1412 17.0605C14.2987 16.9874 14.3999 16.8271 14.3999 16.6527V14.8527H15.0749C16.1943 14.8527 17.0999 13.9471 17.0999 12.8277V7.42772C17.0999 6.30834 16.1943 5.40272 15.0749 5.40272H13.0499V6.30272H15.0749C15.6965 6.30272 16.1999 6.80615 16.1999 7.42772V12.8277C16.1999 13.4493 15.6965 13.9527 15.0749 13.9527H13.9499C13.7024 13.9527 13.4999 14.1552 13.4999 14.4027V15.6908L11.8518 14.3155C11.5677 14.0793 11.2105 13.9499 10.8421 13.9499H8.3249C7.70334 13.9499 7.1999 13.4465 7.1999 12.8249ZM6.2999 3.3749C6.87928 3.3749 7.34615 3.84459 7.34615 4.42115C7.34615 4.92178 7.03678 5.18053 6.69365 5.33522C6.28022 5.52084 5.84709 5.9399 5.84709 6.5249C5.84709 6.7724 6.04959 6.9749 6.29709 6.9749C6.54459 6.9749 6.74709 6.7724 6.74709 6.5249C6.74709 6.41803 6.84272 6.2549 7.05928 6.15647C7.5599 5.93146 8.24334 5.42803 8.24334 4.42115C8.24334 3.34678 7.37146 2.4749 6.29709 2.4749C5.22271 2.4749 4.35084 3.34678 4.35084 4.42115C4.35084 4.66865 4.55334 4.87115 4.80084 4.87115C5.04834 4.87115 5.25084 4.66865 5.25084 4.42115C5.25365 3.84459 5.72053 3.3749 6.2999 3.3749ZM6.8624 8.3249C6.8624 8.01553 6.60928 7.7624 6.2999 7.7624C5.99053 7.7624 5.7374 8.01553 5.7374 8.3249C5.7374 8.63428 5.99053 8.8874 6.2999 8.8874C6.60928 8.8874 6.8624 8.63428 6.8624 8.3249Z" fill="black"/>
</g>
<defs>
<clipPath id="clip0_11101_17844">
<rect width="18" height="18" fill="white"/>
</clipPath>
</defs>
</svg>
