<svg width="18" height="18" viewBox="0 0 18 18" fill="none" xmlns="http://www.w3.org/2000/svg">
<path d="M3.375 1.125H10.125C10.7473 1.125 11.25 1.62773 11.25 2.25V9.99492C11.6051 9.70312 11.9812 9.43594 12.375 9.19688V2.25C12.375 1.00898 11.366 0 10.125 0H3.375C2.13398 0 1.125 1.00898 1.125 2.25V15.75C1.125 16.991 2.13398 18 3.375 18H7.875V17.1562C7.875 17.0613 7.875 16.9699 7.87852 16.875H3.375C2.75273 16.875 2.25 16.3723 2.25 15.75V2.25C2.25 1.62773 2.75273 1.125 3.375 1.125ZM7.875 14.0625H5.625C5.31563 14.0625 5.0625 14.3156 5.0625 14.625C5.0625 14.9344 5.31563 15.1875 5.625 15.1875H7.875C7.95234 15.1875 8.02617 15.1734 8.09297 15.1418C8.15625 14.8535 8.23359 14.5652 8.325 14.2875C8.22305 14.1504 8.05781 14.0625 7.875 14.0625ZM17.4375 9C12.7793 9 9 12.7793 9 17.4375C9 17.7469 9.25313 18 9.5625 18C9.87187 18 10.125 17.7469 10.125 17.4375C10.125 13.398 13.398 10.125 17.4375 10.125C17.7469 10.125 18 9.87187 18 9.5625C18 9.25313 17.7469 9 17.4375 9ZM16.875 18C17.1734 18 17.4595 17.8815 17.6705 17.6705C17.8815 17.4595 18 17.1734 18 16.875C18 16.5766 17.8815 16.2905 17.6705 16.0795C17.4595 15.8685 17.1734 15.75 16.875 15.75C16.5766 15.75 16.2905 15.8685 16.0795 16.0795C15.8685 16.2905 15.75 16.5766 15.75 16.875C15.75 17.1734 15.8685 17.4595 16.0795 17.6705C16.2905 17.8815 16.5766 18 16.875 18ZM18 12.9375C18 12.6281 17.7469 12.375 17.4375 12.375C14.6426 12.375 12.375 14.6426 12.375 17.4375C12.375 17.7469 12.6281 18 12.9375 18C13.2469 18 13.5 17.7469 13.5 17.4375C13.5 15.2613 15.2613 13.5 17.4375 13.5C17.7469 13.5 18 13.2469 18 12.9375Z" fill="black"/>
</svg>
