<svg width="18" height="18" viewBox="0 0 18 18" fill="none" xmlns="http://www.w3.org/2000/svg">
<g clip-path="url(#clip0_10601_14396)">
<path d="M2.25 2.25H10.125V11.0988C10.7684 10.3535 11.5277 9.71016 12.375 9.20039V2.25C12.375 1.00898 11.366 0 10.125 0H2.25C1.00898 0 0 1.00898 0 2.25V15.75C0 16.991 1.00898 18 2.25 18H7.875V17.1562C7.875 16.6781 7.91016 16.207 7.98047 15.75H2.25V2.25ZM5.0625 13.5C4.75313 13.5 4.5 13.7531 4.5 14.0625C4.5 14.3719 4.75313 14.625 5.0625 14.625H7.3125C7.62187 14.625 7.875 14.3719 7.875 14.0625C7.875 13.7531 7.62187 13.5 7.3125 13.5H5.0625ZM17.1562 9C12.6527 9 9 12.6527 9 17.1562C9 17.6238 9.37617 18 9.84375 18C10.3113 18 10.6875 17.6238 10.6875 17.1562C10.6875 13.5844 13.5844 10.6875 17.1562 10.6875C17.6238 10.6875 18 10.3113 18 9.84375C18 9.37617 17.6238 9 17.1562 9ZM16.875 18C17.1734 18 17.4595 17.8815 17.6705 17.6705C17.8815 17.4595 18 17.1734 18 16.875C18 16.5766 17.8815 16.2905 17.6705 16.0795C17.4595 15.8685 17.1734 15.75 16.875 15.75C16.5766 15.75 16.2905 15.8685 16.0795 16.0795C15.8685 16.2905 15.75 16.5766 15.75 16.875C15.75 17.1734 15.8685 17.4595 16.0795 17.6705C16.2905 17.8815 16.5766 18 16.875 18ZM18 13.2188C18 12.7512 17.6238 12.375 17.1562 12.375C14.516 12.375 12.375 14.516 12.375 17.1562C12.375 17.6238 12.7512 18 13.2188 18C13.6863 18 14.0625 17.6238 14.0625 17.1562C14.0625 15.4477 15.4477 14.0625 17.1562 14.0625C17.6238 14.0625 18 13.6863 18 13.2188Z" fill="black"/>
</g>
<defs>
<clipPath id="clip0_10601_14396">
<rect width="18" height="18" fill="white"/>
</clipPath>
</defs>
</svg>
