<svg width="18" height="18" viewBox="0 0 18 18" fill="none" xmlns="http://www.w3.org/2000/svg">
<path d="M4.8125 0C3.57148 0 2.5625 1.00898 2.5625 2.25V15.75C2.5625 16.991 3.57148 18 4.8125 18H12.6875C13.9285 18 14.9375 16.991 14.9375 15.75V2.25C14.9375 1.00898 13.9285 0 12.6875 0H4.8125ZM7.625 15.1875H9.875C10.1844 15.1875 10.4375 15.4406 10.4375 15.75C10.4375 16.0594 10.1844 16.3125 9.875 16.3125H7.625C7.31563 16.3125 7.0625 16.0594 7.0625 15.75C7.0625 15.4406 7.31563 15.1875 7.625 15.1875Z" fill="black"/>
</svg>
