<svg width="18" height="18" viewBox="0 0 18 18" fill="none" xmlns="http://www.w3.org/2000/svg">
<path fill-rule="evenodd" clip-rule="evenodd" d="M5.25 0H12C13.241 0 14.25 1.00723 14.25 2.25V15.75C14.25 16.9928 13.2428 18 12 18H5.25C4.00723 18 3 16.9928 3 15.75V2.25C3 1.00723 4.00723 0 5.25 0ZM12 16.875C12.6202 16.875 13.125 16.3702 13.125 15.75V2.25C13.125 1.62984 12.6202 1.125 12 1.125H5.25C4.62984 1.125 4.125 1.62984 4.125 2.25V15.75C4.125 16.3702 4.62984 16.875 5.25 16.875H12ZM7.5 14.0625H9.75C10.0594 14.0625 10.3125 14.3156 10.3125 14.625C10.3125 14.9356 10.0606 15.1875 9.75 15.1875H7.5C7.18936 15.1875 6.9375 14.9356 6.9375 14.625C6.9375 14.3143 7.18936 14.0625 7.5 14.0625ZM8.81258 6.83582C8.24566 6.83582 7.78605 7.27856 7.78605 7.80261C7.78605 8.34644 8.24566 8.7793 8.81258 8.7793C9.37951 8.7793 9.83912 8.34644 9.83912 7.80261C9.83912 7.27856 9.37951 6.83582 8.81258 6.83582ZM8.15934 7.80261C8.15934 7.47302 8.45213 7.18738 8.81258 7.18738C9.17304 7.18738 9.46583 7.47302 9.46583 7.80261C9.46583 8.15198 9.17304 8.41785 8.81258 8.41785C8.45213 8.41785 8.15934 8.15198 8.15934 7.80261ZM6.1219 7.12915L6.59236 7.53345C6.57952 7.62463 6.57288 7.71802 6.57288 7.80261C6.57288 7.90698 6.57952 8.00037 6.59236 8.09155L6.1219 8.49585C5.99218 8.60681 5.96232 8.78809 6.05004 8.93091L6.4028 9.50659C6.49052 9.64941 6.67215 9.71533 6.83931 9.66589L7.44543 9.48352C7.60174 9.59668 7.77439 9.69116 7.9587 9.76367L8.09518 10.3481C8.13251 10.5096 8.28415 10.625 8.4603 10.625H9.16487C9.34102 10.625 9.49266 10.5096 9.52999 10.3481L9.66647 9.76367C9.84028 9.69116 10.0234 9.59668 10.1797 9.48352L10.7863 9.66589C10.9531 9.71533 11.1351 9.64941 11.2226 9.50659L11.5749 8.93091C11.6624 8.78809 11.6332 8.60681 11.5037 8.49585L11.0325 8.09155C11.0453 8.00037 11.0523 7.90698 11.0523 7.80261C11.0523 7.71802 11.0453 7.62463 11.0325 7.53345L11.5037 7.12915C11.6332 7.01819 11.6624 6.83691 11.5749 6.69409L11.2226 6.11841C11.1351 5.97537 10.9531 5.90912 10.7863 5.95933L10.1797 6.14148C10.0234 6.02788 9.84028 5.9334 9.66647 5.86166L9.52999 5.27642C9.49266 5.11503 9.34102 5 9.16487 5H8.4603C8.28415 5 8.13251 5.11503 8.09518 5.27642L7.9587 5.86166C7.77439 5.9334 7.60174 6.02788 7.44543 6.14148L6.83931 5.95933C6.67215 5.90912 6.49052 5.97537 6.4028 6.11841L6.05004 6.69409C5.96232 6.83691 5.99218 7.01819 6.1219 7.12915ZM7.51892 6.53259L7.67407 6.41943C7.80355 6.32495 7.9482 6.24585 8.10101 6.18652L8.28182 6.11621L8.4603 5.35156H9.16487L9.34335 6.11621L9.51366 6.18652C9.67697 6.24585 9.82162 6.32495 9.9511 6.41943L10.1062 6.53259L10.8995 6.29419L11.2518 6.86987L10.637 7.39722L10.6627 7.57959C10.6732 7.6554 10.679 7.7334 10.679 7.8125C10.679 7.8916 10.6732 7.9696 10.6627 8.04541L10.637 8.22778L11.2518 8.75513L10.8995 9.33081L10.1062 9.09241L9.9511 9.20557C9.82162 9.30005 9.67697 9.37915 9.51366 9.42859L9.34335 9.50879L9.16487 10.2734H8.4603L8.28182 9.50879L8.10101 9.42859C7.9482 9.37915 7.80355 9.30005 7.67407 9.20557L7.51892 9.09241L6.72604 9.33081L6.37329 8.75513L6.98792 8.22778L6.96238 8.04541C6.95164 7.9696 6.94616 7.8916 6.94616 7.80261C6.94616 7.7334 6.95164 7.6554 6.96238 7.57959L6.98792 7.39722L6.37329 6.86987L6.72604 6.29419L7.51892 6.53259Z" fill="black"/>
</svg>
