<svg width="18" height="18" viewBox="0 0 18 18" fill="none" xmlns="http://www.w3.org/2000/svg">
<path fill-rule="evenodd" clip-rule="evenodd" d="M3 2.25C3 1.00898 4.00898 0 5.25 0H13.125C14.366 0 15.375 1.00898 15.375 2.25V15.75C15.375 16.991 14.366 18 13.125 18H5.25C4.00898 18 3 16.991 3 15.75V2.25ZM10.3125 15.1875H8.0625C7.75313 15.1875 7.5 15.4406 7.5 15.75C7.5 16.0594 7.75313 16.3125 8.0625 16.3125H10.3125C10.6219 16.3125 10.875 16.0594 10.875 15.75C10.875 15.4406 10.6219 15.1875 10.3125 15.1875ZM11.7298 7.09913C11.8102 7.03106 11.8416 6.92457 11.8044 6.82905L11.8055 6.82795C11.7543 6.69731 11.6926 6.57215 11.6215 6.45139L11.5668 6.36246C11.4899 6.24169 11.4038 6.12751 11.3094 6.01992C11.2407 5.94197 11.1266 5.91453 11.0241 5.94527L10.3754 6.13959C10.2194 6.02651 10.047 5.93209 9.86301 5.86073L9.71744 5.23385C9.69414 5.13394 9.61262 5.05489 9.50548 5.03843C9.34477 5.01317 9.1794 5 9.01053 5C8.84167 5 8.6763 5.01317 8.51558 5.03952C8.40844 5.05599 8.32692 5.13504 8.30363 5.23494L8.15806 5.86183C7.97405 5.93319 7.80169 6.02761 7.64564 6.14069L6.99697 5.94636C6.89448 5.91562 6.78035 5.94197 6.71164 6.02102C6.61731 6.12861 6.53113 6.24279 6.45427 6.36355L6.39953 6.45248C6.3285 6.57325 6.26677 6.69841 6.21553 6.82905C6.17826 6.92457 6.20971 7.03106 6.29006 7.09913L6.79433 7.53169C6.78152 7.62281 6.77453 7.71613 6.77453 7.81055C6.77453 7.90497 6.78152 7.99828 6.79433 8.09051L6.29006 8.52307C6.20971 8.59113 6.17826 8.69763 6.21553 8.79314C6.26677 8.92379 6.3285 9.04895 6.39953 9.16971L6.45427 9.25864C6.53113 9.37941 6.61731 9.49358 6.71164 9.60118C6.78035 9.67912 6.89448 9.70657 6.99697 9.67583L7.64448 9.48041C7.80053 9.59349 7.97289 9.68791 8.15689 9.75927L8.30247 10.3862C8.32576 10.4861 8.40728 10.5651 8.51442 10.5816C8.67513 10.6068 8.8405 10.62 9.00937 10.62C9.17823 10.62 9.3436 10.6068 9.50432 10.5816C9.61146 10.5651 9.69298 10.4861 9.71627 10.3862L9.86185 9.75927C10.0458 9.68791 10.2182 9.59349 10.3743 9.48041L11.0229 9.67473C11.1254 9.70547 11.2395 9.67912 11.3083 9.60008C11.4026 9.49249 11.4888 9.37831 11.5656 9.25754L11.6204 9.16861C11.6914 9.04785 11.7531 8.92269 11.8044 8.79204C11.8416 8.69653 11.8102 8.59004 11.7298 8.52197L11.2256 8.08941C11.2384 7.99828 11.2454 7.90497 11.2454 7.81055C11.2454 7.71613 11.2384 7.62281 11.2256 7.53169L11.7298 7.09913ZM9.9422 7.81055C9.9422 8.29581 9.52528 8.68885 9.01053 8.68885C8.49579 8.68885 8.07887 8.29581 8.07887 7.81055C8.07887 7.32529 8.49579 6.93225 9.01053 6.93225C9.52528 6.93225 9.9422 7.32529 9.9422 7.81055Z" fill="black"/>
</svg>
