<svg width="18" height="18" viewBox="0 0 18 18" fill="none" xmlns="http://www.w3.org/2000/svg">
<path d="M12.125 0H5.375C4.13223 0 3.125 1.00723 3.125 2.25V15.75C3.125 16.9928 4.13223 18 5.375 18H12.125C13.3678 18 14.375 16.9928 14.375 15.75V2.25C14.375 1.00723 13.366 0 12.125 0ZM13.25 15.75C13.25 16.3702 12.7452 16.875 12.125 16.875H5.375C4.75484 16.875 4.25 16.3702 4.25 15.75V2.25C4.25 1.62984 4.75484 1.125 5.375 1.125H12.125C12.7452 1.125 13.25 1.62984 13.25 2.25V15.75ZM9.875 14.0625H7.625C7.31436 14.0625 7.0625 14.3143 7.0625 14.625C7.0625 14.9356 7.31436 15.1875 7.625 15.1875H9.875C10.1856 15.1875 10.4375 14.9356 10.4375 14.625C10.4375 14.3156 10.1844 14.0625 9.875 14.0625Z" fill="black"/>
</svg>
