<svg width="18" height="18" viewBox="0 0 18 18" fill="none" xmlns="http://www.w3.org/2000/svg">
<path d="M15.4322 2.76787L16.4644 3.80006H15.1903H14.7544H10.8H10.7916H2.7C1.70719 3.80006 0.9 4.60725 0.9 5.60006V11.7904L1.29656 11.3938L1.8 10.8904V7.40006C3.29062 7.40006 4.5 6.19068 4.5 4.70006H14.7459H15.1903H16.4644L15.4322 5.73225C15.2578 5.90662 15.2578 6.1935 15.4322 6.36787C15.6066 6.54225 15.8934 6.54225 16.0678 6.36787L17.8678 4.56787C17.9522 4.4835 18 4.36818 18 4.25006C18 4.13193 17.9522 4.01662 17.8678 3.93225L16.0678 2.13225C15.8934 1.95787 15.6066 1.95787 15.4322 2.13225C15.2578 2.30662 15.2578 2.5935 15.4322 2.76787ZM3.6 4.70006C3.6 5.69287 2.79281 6.50006 1.8 6.50006V5.60006C1.8 5.10225 2.20219 4.70006 2.7 4.70006H3.6ZM1.53562 14.6001H2.80969H15.3C16.2928 14.6001 17.1 13.7929 17.1 12.8001V6.60975L16.7034 7.00631L16.2 7.50975V11.0001C14.7094 11.0001 13.5 12.2094 13.5 13.7001H7.21125H7.2H1.53562L2.56781 12.6679C2.74219 12.4935 2.74219 12.2066 2.56781 12.0322C2.39344 11.8579 2.10656 11.8579 1.93219 12.0322L0.132187 13.8322C0.0478125 13.9166 0 14.0319 0 14.1501C0 14.2682 0.0478125 14.3835 0.132187 14.4679L1.93219 16.2679C2.10656 16.4422 2.39344 16.4422 2.56781 16.2679C2.74219 16.0935 2.74219 15.8066 2.56781 15.6322L1.53562 14.6001ZM16.2 11.9001V12.8001C16.2 13.2979 15.7978 13.7001 15.3 13.7001H14.4C14.4 12.7072 15.2072 11.9001 16.2 11.9001ZM7.2 9.20006C7.2 8.72267 7.38964 8.26483 7.72721 7.92727C8.06477 7.5897 8.52261 7.40006 9 7.40006C9.47739 7.40006 9.93523 7.5897 10.2728 7.92727C10.6104 8.26483 10.8 8.72267 10.8 9.20006C10.8 9.67745 10.6104 10.1353 10.2728 10.4729C9.93523 10.8104 9.47739 11.0001 9 11.0001C8.52261 11.0001 8.06477 10.8104 7.72721 10.4729C7.38964 10.1353 7.2 9.67745 7.2 9.20006ZM11.7 9.20006C11.7 8.48397 11.4155 7.79722 10.9092 7.29087C10.4028 6.78452 9.71608 6.50006 9 6.50006C8.28392 6.50006 7.59716 6.78452 7.09081 7.29087C6.58446 7.79722 6.3 8.48397 6.3 9.20006C6.3 9.91614 6.58446 10.6029 7.09081 11.1092C7.59716 11.6156 8.28392 11.9001 9 11.9001C9.71608 11.9001 10.4028 11.6156 10.9092 11.1092C11.4155 10.6029 11.7 9.91614 11.7 9.20006Z" fill="black"/>
</svg>
