<svg width="18" height="18" viewBox="0 0 18 18" fill="none" xmlns="http://www.w3.org/2000/svg">
<path d="M15.0469 3.15311C14.7825 2.88873 14.7825 2.46123 15.0469 2.19967C15.3113 1.93811 15.7388 1.93529 16.0003 2.19967L17.8003 3.99967C17.9269 4.12623 17.9972 4.29779 17.9972 4.47779C17.9972 4.65779 17.9269 4.82936 17.8003 4.95592L16.0003 6.75592C15.7359 7.02029 15.3084 7.02029 15.0469 6.75592C14.7853 6.49154 14.7825 6.06404 15.0469 5.80248L15.6938 5.15561L10.8 5.14998C10.4259 5.14998 10.125 4.84904 10.125 4.47498C10.125 4.10092 10.4259 3.79998 10.8 3.79998H15.6966L15.0469 3.15311ZM2.95312 12.6031L2.30625 13.25H7.2C7.57406 13.25 7.875 13.5509 7.875 13.925C7.875 14.299 7.57406 14.6 7.2 14.6H2.30344L2.95031 15.2469C3.21469 15.5112 3.21469 15.9387 2.95031 16.2003C2.68594 16.4619 2.25844 16.4647 1.99688 16.2003L0.196875 14.4031C0.0703125 14.2765 0 14.105 0 13.925C0 13.745 0.0703125 13.5734 0.196875 13.4469L1.99688 11.6469C2.26125 11.3825 2.68875 11.3825 2.95031 11.6469C3.21188 11.9112 3.21469 12.3387 2.95031 12.6003L2.95312 12.6031ZM2.7 3.79998H9.50344C9.39937 4.00248 9.3375 4.23029 9.3375 4.47498C9.3375 5.28217 9.99281 5.93748 10.8 5.93748H14.1019C13.9894 6.41561 14.1188 6.93592 14.49 7.30998C15.0609 7.88092 15.9863 7.88092 16.5572 7.30998L17.1 6.76717V12.8C17.1 13.7928 16.2928 14.6 15.3 14.6H8.49656C8.60063 14.3975 8.6625 14.1697 8.6625 13.925C8.6625 13.1178 8.00719 12.4625 7.2 12.4625H3.89813C4.01063 11.9844 3.88125 11.464 3.51 11.09C2.93906 10.519 2.01375 10.519 1.44281 11.09L0.9 11.6328V5.59998C0.9 4.60717 1.70719 3.79998 2.7 3.79998ZM4.5 5.59998H2.7V7.39998C3.69281 7.39998 4.5 6.59279 4.5 5.59998ZM15.3 11C14.3072 11 13.5 11.8072 13.5 12.8H15.3V11ZM9 11.9C9.71608 11.9 10.4028 11.6155 10.9092 11.1092C11.4155 10.6028 11.7 9.91607 11.7 9.19998C11.7 8.4839 11.4155 7.79714 10.9092 7.29079C10.4028 6.78445 9.71608 6.49998 9 6.49998C8.28392 6.49998 7.59716 6.78445 7.09081 7.29079C6.58446 7.79714 6.3 8.4839 6.3 9.19998C6.3 9.91607 6.58446 10.6028 7.09081 11.1092C7.59716 11.6155 8.28392 11.9 9 11.9Z" fill="black"/>
</svg>
