<svg width="18" height="18" viewBox="0 0 18 18" fill="none" xmlns="http://www.w3.org/2000/svg">
<g clip-path="url(#clip0_6837_26892)">
<path d="M16.548 0.330469C16.6535 0.439453 16.7344 0.5625 16.7906 0.692578C16.8469 0.822656 16.875 0.966797 16.875 1.12148V1.125V4.5C16.875 5.12227 16.3723 5.625 15.75 5.625C15.1277 5.625 14.625 5.12227 14.625 4.5V3.84258L10.9195 7.54453C10.5047 7.95938 9.83672 7.9875 9.39023 7.6043L6.1875 4.85508L2.98125 7.6043C2.51016 8.00859 1.8 7.95234 1.3957 7.48125C0.991406 7.01016 1.04766 6.3 1.51875 5.8957L5.45625 2.5207C5.87812 2.15859 6.50039 2.15859 6.92227 2.5207L10.0687 5.21719L13.0324 2.25H12.375C11.7527 2.25 11.25 1.74727 11.25 1.125C11.25 0.502734 11.7527 0 12.375 0H15.75C16.0594 0 16.3406 0.126563 16.5445 0.326953L16.548 0.330469ZM0 10.6875C0 9.75586 0.755859 9 1.6875 9H16.3125C17.2441 9 18 9.75586 18 10.6875V16.3125C18 17.2441 17.2441 18 16.3125 18H1.6875C0.755859 18 0 17.2441 0 16.3125V10.6875ZM1.6875 14.625V16.3125H3.375C3.375 15.3809 2.61914 14.625 1.6875 14.625ZM3.375 10.6875H1.6875V12.375C2.61914 12.375 3.375 11.6191 3.375 10.6875ZM16.3125 14.625C15.3809 14.625 14.625 15.3809 14.625 16.3125H16.3125V14.625ZM14.625 10.6875C14.625 11.6191 15.3809 12.375 16.3125 12.375V10.6875H14.625ZM11.25 13.5C11.25 12.9033 11.0129 12.331 10.591 11.909C10.169 11.4871 9.59674 11.25 9 11.25C8.40326 11.25 7.83097 11.4871 7.40901 11.909C6.98705 12.331 6.75 12.9033 6.75 13.5C6.75 14.0967 6.98705 14.669 7.40901 15.091C7.83097 15.5129 8.40326 15.75 9 15.75C9.59674 15.75 10.169 15.5129 10.591 15.091C11.0129 14.669 11.25 14.0967 11.25 13.5Z" fill="black"/>
</g>
<defs>
<clipPath id="clip0_6837_26892">
<rect width="18" height="18" fill="white"/>
</clipPath>
</defs>
</svg>
