<svg width="18" height="18" viewBox="0 0 18 18" fill="none" xmlns="http://www.w3.org/2000/svg">
<path d="M17.1281 3.77198V4.247L16.2 4.67197C11.5276 4.67197 4.5 4.67197 4.5 4.67197C4.5 6.18791 3.29062 7.37197 1.8 7.37197V10.8876L0.9 11.7876V5.57197C0.9 4.60307 1.70578 3.77197 2.7 3.77197L17.1281 3.77198ZM3.6 4.67197H2.7C2.20303 4.67197 1.8 5.09947 1.8 5.57197V6.47197C2.79422 6.47197 3.6 5.6901 3.6 4.67197ZM2.56809 15.6295C2.74387 15.8039 2.74387 16.0907 2.56809 16.2651C2.39259 16.4423 2.10769 16.4423 1.93191 16.2651L0.131794 14.4651C0.0474187 14.3807 0 14.2654 0 14.122C0 14.0292 0.0474187 13.9139 0.131822 13.8295L1.93191 12.0295C2.10769 11.8523 2.39259 11.8523 2.56809 12.0295C2.74387 12.2039 2.74387 12.4907 2.56809 12.6651L1.53647 13.672H7.2H7.21125H13.5C13.5 12.1814 14.6841 10.972 16.2 10.972V4.67197L17.1281 4.247L17.1 12.772C17.1 13.7901 16.2928 14.572 15.3 14.572H1.53647L2.56809 15.6295ZM14.4 13.672H15.3C15.7978 13.672 16.2 13.2951 16.2 12.772V11.872C15.2072 11.872 14.4 12.7017 14.4 13.672ZM11.7 9.17197C11.7 10.6879 10.4906 11.872 9 11.872C7.48406 11.872 6.3 10.6879 6.3 9.17197C6.3 7.68135 7.48406 6.47197 9 6.47197C10.4906 6.47197 11.7 7.68135 11.7 9.17197ZM9 7.37197C8.00719 7.37197 7.2 8.20166 7.2 9.17197C7.2 10.1901 8.00719 10.972 9 10.972C9.99281 10.972 10.8 10.1901 10.8 9.17197C10.8 8.20166 9.99281 7.37197 9 7.37197Z" fill="black"/>
</svg>
