<svg width="18" height="18" viewBox="0 0 18 18" fill="none" xmlns="http://www.w3.org/2000/svg">
<g clip-path="url(#clip0_6837_26891)">
<path d="M12.375 0.5625C12.375 0.871875 12.6281 1.125 12.9375 1.125H14.9555L10.0969 5.98359L6.55312 2.94961C6.34219 2.77031 6.03281 2.77031 5.82188 2.94961L1.88437 6.32461C1.64883 6.52852 1.6207 6.88359 1.82461 7.11914C2.02852 7.35469 2.38359 7.38281 2.61914 7.17891L6.1875 4.1168L9.75938 7.17891C9.98086 7.36875 10.3148 7.3582 10.5223 7.15078L15.75 1.91953V3.9375C15.75 4.24687 16.0031 4.5 16.3125 4.5C16.6219 4.5 16.875 4.24687 16.875 3.9375V0.5625C16.875 0.253125 16.6219 0 16.3125 0H12.9375C12.6281 0 12.375 0.253125 12.375 0.5625ZM16.875 10.6875V11.8125C15.9434 11.8125 15.1875 11.0566 15.1875 10.125H16.3125C16.6219 10.125 16.875 10.3781 16.875 10.6875ZM3.9375 10.125H14.0625C14.0625 11.6789 15.3211 12.9375 16.875 12.9375V14.0625C15.3211 14.0625 14.0625 15.3211 14.0625 16.875H3.9375C3.9375 15.3211 2.67891 14.0625 1.125 14.0625V12.9375C2.67891 12.9375 3.9375 11.6789 3.9375 10.125ZM15.1875 16.875C15.1875 15.9434 15.9434 15.1875 16.875 15.1875V16.3125C16.875 16.6219 16.6219 16.875 16.3125 16.875H15.1875ZM1.125 15.1875C2.05664 15.1875 2.8125 15.9434 2.8125 16.875H1.6875C1.37812 16.875 1.125 16.6219 1.125 16.3125V15.1875ZM2.8125 10.125C2.8125 11.0566 2.05664 11.8125 1.125 11.8125V10.6875C1.125 10.3781 1.37812 10.125 1.6875 10.125H2.8125ZM1.6875 9C0.755859 9 0 9.75586 0 10.6875V16.3125C0 17.2441 0.755859 18 1.6875 18H16.3125C17.2441 18 18 17.2441 18 16.3125V10.6875C18 9.75586 17.2441 9 16.3125 9H1.6875ZM7.875 13.5C7.875 13.2016 7.99353 12.9155 8.2045 12.7045C8.41548 12.4935 8.70163 12.375 9 12.375C9.29837 12.375 9.58452 12.4935 9.7955 12.7045C10.0065 12.9155 10.125 13.2016 10.125 13.5C10.125 13.7984 10.0065 14.0845 9.7955 14.2955C9.58452 14.5065 9.29837 14.625 9 14.625C8.70163 14.625 8.41548 14.5065 8.2045 14.2955C7.99353 14.0845 7.875 13.7984 7.875 13.5ZM11.25 13.5C11.25 12.9033 11.0129 12.331 10.591 11.909C10.169 11.4871 9.59674 11.25 9 11.25C8.40326 11.25 7.83097 11.4871 7.40901 11.909C6.98705 12.331 6.75 12.9033 6.75 13.5C6.75 14.0967 6.98705 14.669 7.40901 15.091C7.83097 15.5129 8.40326 15.75 9 15.75C9.59674 15.75 10.169 15.5129 10.591 15.091C11.0129 14.669 11.25 14.0967 11.25 13.5Z" fill="black"/>
</g>
<defs>
<clipPath id="clip0_6837_26891">
<rect width="18" height="18" fill="white"/>
</clipPath>
</defs>
</svg>
