<svg width="18" height="18" viewBox="0 0 18 18" fill="none" xmlns="http://www.w3.org/2000/svg">
<path d="M15.4321 2.13182C15.6065 1.95607 15.8934 1.95607 16.0677 2.13179L17.8677 3.93162C17.9521 4.016 17.9999 4.13047 17.9999 4.24972C17.9999 4.36925 17.9521 4.48372 17.8677 4.56809L16.0677 6.36781C15.8934 6.545 15.6065 6.545 15.4321 6.36781C15.2549 6.19343 15.2549 5.90656 15.4321 5.73218L16.4643 4.67468H4.49992C4.49992 6.19062 3.29054 7.37468 1.79992 7.37468V13.6747L0.854738 14.0094L0.89992 5.57468C0.89992 4.60578 1.7057 3.77468 2.69992 3.77468H10.7915L10.7999 3.79972L16.4643 3.77468L15.4321 2.76809C15.2549 2.59259 15.2549 2.30768 15.4321 2.13182ZM3.59992 4.67468H2.69992C2.20295 4.67468 1.79992 5.10218 1.79992 5.57468V6.47468C2.79414 6.47468 3.59992 5.69281 3.59992 4.67468ZM1.53639 14.5747H0.854736C0.854736 14.5747 0.854738 14.1528 0.854738 14.0094L1.79992 13.6747H7.19992H7.21117H13.4999C13.4999 12.1841 14.684 10.9747 16.1999 10.9747V7.50968L17.0999 6.60968V12.7747C17.0999 13.7928 16.2927 14.5747 15.2999 14.5747H1.53639ZM14.3999 13.6747H15.2999C15.7977 13.6747 16.1999 13.2978 16.1999 12.7747V11.8747C15.2071 11.8747 14.3999 12.7044 14.3999 13.6747ZM11.6999 9.17468C11.6999 10.6906 10.4905 11.8747 8.99992 11.8747C7.48398 11.8747 6.29992 10.6906 6.29992 9.17468C6.29992 7.68406 7.48398 6.47468 8.99992 6.47468C10.4905 6.47468 11.6999 7.68406 11.6999 9.17468ZM8.99992 7.37468C8.00711 7.37468 7.19992 8.20437 7.19992 9.17468C7.19992 10.1928 8.00711 10.9747 8.99992 10.9747C9.99273 10.9747 10.7999 10.1928 10.7999 9.17468C10.7999 8.20437 9.99273 7.37468 8.99992 7.37468Z" fill="black"/>
</svg>
