<svg width="18" height="18" viewBox="0 0 18 18" fill="none" xmlns="http://www.w3.org/2000/svg">
<g clip-path="url(#clip0_6906_8343)">
<path d="M2.37866 2C1.27554 2 0.378662 2.89688 0.378662 4V14C0.378662 15.1031 1.27554 16 2.37866 16H16.3787C17.4818 16 18.3787 15.1031 18.3787 14V4C18.3787 2.89688 17.4818 2 16.3787 2H2.37866ZM2.87866 4H15.8787C16.1537 4 16.3787 4.225 16.3787 4.5V13.5C16.3787 13.775 16.1537 14 15.8787 14H2.87866C2.60366 14 2.37866 13.775 2.37866 13.5V9.5V4.5C2.37866 4.225 2.60366 4 2.87866 4ZM3.37866 9H6.37866C6.56929 9 6.74116 9.10625 6.82554 9.275L7.37866 10.3813L8.93179 7.275C9.01616 7.10625 9.19116 7 9.37866 7C9.56616 7 9.74116 7.10625 9.82554 7.275L10.688 9H12.8787C13.1537 9 13.3787 9.225 13.3787 9.5C13.3787 9.775 13.1537 10 12.8787 10H10.3787C10.188 10 10.0162 9.89375 9.93179 9.725L9.37866 8.61875L7.82554 11.725C7.74116 11.8938 7.56616 12 7.37866 12C7.19116 12 7.01616 11.8938 6.93179 11.725L6.06929 10H3.37866V13H15.3787V5H3.37866V9Z" fill="black"/>
</g>
<defs>
<clipPath id="clip0_6906_8343">
<rect width="18" height="18" fill="white"/>
</clipPath>
</defs>
</svg>
