<svg width="18" height="18" viewBox="0 0 18 18" fill="none" xmlns="http://www.w3.org/2000/svg">
<g clip-path="url(#clip0_6906_8344)">
<path d="M2.25244 3C1.69932 3 1.25244 3.44687 1.25244 4V9H5.75244C5.91807 9 6.07432 9.08438 6.16807 9.22188L7.13057 10.6656L8.78682 6.32188C8.85869 6.1375 9.03057 6.00938 9.23057 6C9.43057 5.99062 9.61494 6.09688 9.70244 6.275L11.0618 9H13.7524C14.0274 9 14.2524 9.225 14.2524 9.5C14.2524 9.775 14.0274 10 13.7524 10H10.7524C10.5618 10 10.3899 9.89375 10.3056 9.725L9.31494 7.74062L7.72119 11.9281C7.65557 12.1031 7.49619 12.225 7.30869 12.2469C7.12119 12.2688 6.93994 12.1844 6.83682 12.0281L5.48369 10H1.25244V14C1.25244 14.5531 1.69932 15 2.25244 15H16.2524C16.8056 15 17.2524 14.5531 17.2524 14V4C17.2524 3.44687 16.8056 3 16.2524 3H2.25244ZM0.252441 4C0.252441 2.89688 1.14932 2 2.25244 2H16.2524C17.3556 2 18.2524 2.89688 18.2524 4V14C18.2524 15.1031 17.3556 16 16.2524 16H2.25244C1.14932 16 0.252441 15.1031 0.252441 14V4Z" fill="black"/>
</g>
<defs>
<clipPath id="clip0_6906_8344">
<rect width="18" height="18" fill="white"/>
</clipPath>
</defs>
</svg>
