<svg width="18" height="18" viewBox="0 0 18 18" fill="none" xmlns="http://www.w3.org/2000/svg">
<g clip-path="url(#clip0_8573_22807)">
<path d="M10.6875 0C10.9969 0 11.25 0.253125 11.25 0.5625V1.6875H12.375C12.6844 1.6875 12.9375 1.94062 12.9375 2.25C12.9375 2.55938 12.6844 2.8125 12.375 2.8125H11.25V3.9375C11.25 4.24687 10.9969 4.5 10.6875 4.5C10.3781 4.5 10.125 4.24687 10.125 3.9375V2.8125H9C8.69063 2.8125 8.4375 2.55938 8.4375 2.25C8.4375 1.94062 8.69063 1.6875 9 1.6875H10.125V0.5625C10.125 0.253125 10.3781 0 10.6875 0ZM5.50547 5.76211C2.99883 6.32812 1.125 8.57109 1.125 11.257C1.125 14.3684 3.64219 16.8891 6.74297 16.8891C7.64648 16.8891 8.50078 16.6746 9.25664 16.2949C6.17695 15.8977 3.80391 13.2574 3.80391 10.0652C3.80391 8.39883 4.45078 6.88711 5.50547 5.76211ZM0 11.257C0 7.52695 3.01641 4.5 6.74297 4.5C6.93633 4.5 7.12617 4.50703 7.31602 4.52461C7.56211 4.5457 7.76602 4.725 7.81875 4.96406C7.87148 5.20312 7.7625 5.45273 7.54805 5.57227C5.98711 6.4582 4.93242 8.13867 4.93242 10.0652C4.93242 12.9129 7.23516 15.2191 10.0723 15.2191C10.3746 15.2191 10.6699 15.1945 10.9547 15.1418C11.1973 15.0996 11.4398 15.2191 11.5523 15.4406C11.6648 15.6621 11.6191 15.9258 11.4434 16.098C10.2305 17.2793 8.57109 18.0105 6.74648 18.0105C3.01641 18.0141 0 14.9871 0 11.257ZM15.1875 5.625V7.875H17.4375C17.7469 7.875 18 8.12813 18 8.4375C18 8.74687 17.7469 9 17.4375 9H15.1875V11.25C15.1875 11.5594 14.9344 11.8125 14.625 11.8125C14.3156 11.8125 14.0625 11.5594 14.0625 11.25V9H11.8125C11.5031 9 11.25 8.74687 11.25 8.4375C11.25 8.12813 11.5031 7.875 11.8125 7.875H14.0625V5.625C14.0625 5.31563 14.3156 5.0625 14.625 5.0625C14.9344 5.0625 15.1875 5.31563 15.1875 5.625Z" fill="black"/>
</g>
<defs>
<clipPath id="clip0_8573_22807">
<rect width="18" height="18" fill="white"/>
</clipPath>
</defs>
</svg>
