<svg width="18" height="18" viewBox="0 0 18 18" fill="none" xmlns="http://www.w3.org/2000/svg">
<path d="M13.485 2.70044C10.1609 2.70044 7.44136 5.28776 7.21356 8.55847C8.71814 8.68221 9.89931 9.93931 9.89931 11.4748C9.89931 12.2595 9.58996 12.9738 9.08374 13.4997C10.2171 14.6134 11.7695 15.2996 13.4822 15.2996C15.1864 15.2996 16.7304 14.619 17.8638 13.5166C18.0044 13.3788 18.0409 13.165 17.9509 12.9907C17.8609 12.8163 17.6669 12.7179 17.4728 12.7516C17.1972 12.7994 16.916 12.8247 16.6263 12.8247C13.9012 12.8247 11.6908 10.6086 11.6908 7.87508C11.6908 6.02458 12.7032 4.41313 14.2021 3.56382C14.3737 3.46539 14.4609 3.26853 14.4187 3.07729C14.3765 2.88605 14.2134 2.74262 14.0165 2.72575C13.8422 2.71169 13.6622 2.70325 13.4822 2.70325L13.485 2.70044ZM1.79988 13.4997H6.97452C8.09381 13.4997 8.99938 12.5941 8.99938 11.4748C8.99938 10.3555 8.09381 9.44997 6.97452 9.44997C6.69047 9.44997 6.42049 9.50903 6.17582 9.61308C5.87209 8.73283 5.03403 8.10006 4.04972 8.10006C2.96136 8.10006 2.05298 8.87345 1.84487 9.89994C1.83081 9.89994 1.81394 9.89994 1.79988 9.89994C0.807131 9.89994 0 10.7071 0 11.6998C0 12.6926 0.807131 13.4997 1.79988 13.4997Z" fill="black"/>
</svg>
