<svg width="18" height="18" viewBox="0 0 18 18" fill="none" xmlns="http://www.w3.org/2000/svg">
<g clip-path="url(#clip0_8573_22792)">
<path d="M10.0125 3.4875L10.3992 4.84453C10.4344 4.97109 10.5539 5.0625 10.6875 5.0625C10.8211 5.0625 10.9371 4.97461 10.9758 4.84453L11.3625 3.4875L12.7195 3.10078C12.8461 3.06562 12.9375 2.94609 12.9375 2.8125C12.9375 2.67891 12.8496 2.56289 12.7195 2.52422L11.3625 2.1375L10.9758 0.780469C10.9406 0.653906 10.8211 0.5625 10.6875 0.5625C10.5539 0.5625 10.4379 0.650391 10.3992 0.780469L10.0125 2.1375L8.65547 2.52422C8.52891 2.55938 8.4375 2.67891 8.4375 2.8125C8.4375 2.94609 8.52539 3.06211 8.65547 3.10078L10.0125 3.4875ZM14.1961 10.9266C14.2523 11.1199 14.4281 11.25 14.625 11.25C14.8219 11.25 15.0012 11.1164 15.0539 10.9266L15.6375 8.8875L17.6766 8.30391C17.8699 8.24766 18 8.07188 18 7.875C18 7.67812 17.8664 7.49883 17.6766 7.44609L15.6375 6.8625L15.0539 4.82344C14.9977 4.63008 14.8219 4.5 14.625 4.5C14.4281 4.5 14.2488 4.63359 14.1961 4.82344L13.6125 6.8625L11.5734 7.44609C11.3801 7.50234 11.25 7.67812 11.25 7.875C11.25 8.07188 11.3836 8.25117 11.5734 8.30391L13.6125 8.8875L14.1961 10.9266ZM6.74297 4.5C3.01641 4.5 0 7.52695 0 11.257C0 14.9871 3.01641 18.0141 6.74297 18.0141C8.57109 18.0141 10.227 17.2863 11.4398 16.1016C11.6156 15.9293 11.6613 15.6621 11.5488 15.4441C11.4363 15.2262 11.1938 15.1031 10.9512 15.1453C10.6664 15.1945 10.3711 15.2227 10.0687 15.2227C7.23164 15.2227 4.92891 12.9164 4.92891 10.0687C4.92891 8.14219 5.98359 6.46172 7.54453 5.57578C7.75898 5.45273 7.86797 5.20664 7.81523 4.96758C7.7625 4.72852 7.55859 4.54922 7.3125 4.52813C7.12266 4.51055 6.93281 4.50352 6.73945 4.50352L6.74297 4.5Z" fill="black"/>
</g>
<defs>
<clipPath id="clip0_8573_22792">
<rect width="18" height="18" fill="white"/>
</clipPath>
</defs>
</svg>
