<svg width="18" height="18" viewBox="0 0 18 18" fill="none" xmlns="http://www.w3.org/2000/svg">
<path d="M7.875 2.90003C7.50094 2.90003 7.2 3.20097 7.2 3.57503C7.2 3.94909 7.50094 4.25003 7.875 4.25003H9.49781L9.95906 5.10222L7.2 7.40003L5.92594 6.12597C5.58844 5.78847 5.13 5.60003 4.65187 5.60003H1.8C1.30219 5.60003 0.9 6.00222 0.9 6.50003V7.40003H3.6C6.08625 7.40003 8.1 9.41378 8.1 11.9C8.1 12.2094 8.06906 12.5103 8.01 12.8H9.99C9.93094 12.5103 9.9 12.2094 9.9 11.9C9.9 10.4319 10.6031 9.1269 11.6916 8.30566L12.1247 9.11003C11.3175 9.77097 10.8 10.775 10.8 11.9C10.8 13.8885 12.4116 15.5 14.4 15.5C16.3884 15.5 18 13.8885 18 11.9C18 9.91159 16.3884 8.30003 14.4 8.30003C14.0203 8.30003 13.6547 8.35909 13.3116 8.46878L11.7619 5.60003H13.5C13.9978 5.60003 14.4 5.19784 14.4 4.70003V3.80003C14.4 3.30222 13.9978 2.90003 13.5 2.90003H12.9262C12.7153 2.90003 12.5128 2.97315 12.3497 3.10815L11.0166 4.21909L10.6228 3.48784C10.4259 3.12503 10.0462 2.89722 9.63281 2.89722H7.875V2.90003ZM13.0134 10.7525L13.8066 12.2207C13.9837 12.5497 14.3944 12.6707 14.7206 12.4935C15.0469 12.3163 15.1706 11.9057 14.9934 11.5794L14.2003 10.1113C14.265 10.1028 14.3325 10.1 14.4 10.1C15.3928 10.1 16.2 10.9072 16.2 11.9C16.2 12.8928 15.3928 13.7 14.4 13.7C13.4072 13.7 12.6 12.8928 12.6 11.9C12.6 11.4641 12.7547 11.0647 13.0134 10.7525ZM5.26781 12.575C5.00063 13.236 4.35375 13.7 3.6 13.7C2.60719 13.7 1.8 12.8928 1.8 11.9C1.8 10.9072 2.60719 10.1 3.6 10.1C4.35656 10.1 5.00344 10.5641 5.26781 11.225H7.13531C6.82031 9.56003 5.35781 8.30003 3.6 8.30003C1.61156 8.30003 0 9.91159 0 11.9C0 13.8885 1.61156 15.5 3.6 15.5C5.35781 15.5 6.82031 14.24 7.13812 12.575H5.26781ZM3.6 12.8C3.83869 12.8 4.06761 12.7052 4.2364 12.5364C4.40518 12.3676 4.5 12.1387 4.5 11.9C4.5 11.6613 4.40518 11.4324 4.2364 11.2636C4.06761 11.0949 3.83869 11 3.6 11C3.3613 11 3.13239 11.0949 2.9636 11.2636C2.79482 11.4324 2.7 11.6613 2.7 11.9C2.7 12.1387 2.79482 12.3676 2.9636 12.5364C3.13239 12.7052 3.3613 12.8 3.6 12.8Z" fill="black"/>
</svg>
