<svg width="18" height="18" viewBox="0 0 18 18" fill="none" xmlns="http://www.w3.org/2000/svg">
<path d="M11.5819 4.6999H13.5V3.7999H12.7519L11.5819 4.6999ZM13.725 5.5999H11.5931L13.1344 8.52771C13.5281 8.37865 13.9556 8.2999 14.4 8.2999C16.3884 8.2999 18 9.91146 18 11.8999C18 13.8883 16.3884 15.4999 14.4 15.4999C12.4116 15.4999 10.8 13.8883 10.8 11.8999C10.8 10.6793 11.4075 9.59928 12.3384 8.94959L11.9166 8.14803C10.7016 8.9524 9.9 10.3333 9.9 11.8999V12.3499C9.9 12.5974 9.6975 12.7999 9.45 12.7999H8.55C8.3025 12.7999 8.1 12.5974 8.1 12.3499V12.1249C8.1 9.5149 5.985 7.3999 3.375 7.3999H1.35C1.1025 7.3999 0.9 7.1974 0.9 6.9499C0.9 6.7024 1.1025 6.4999 1.35 6.4999H3.375C4.53937 6.4999 5.62219 6.85428 6.51937 7.45896L10.1025 4.70271L9.62719 3.7999H7.65C7.4025 3.7999 7.2 3.5974 7.2 3.3499C7.2 3.1024 7.4025 2.8999 7.65 2.8999H9.62719C9.96187 2.8999 10.2684 3.08553 10.4231 3.38084L10.8281 4.14584L12.2653 3.04053C12.3834 2.95053 12.5269 2.8999 12.6759 2.8999H13.725C14.0991 2.8999 14.4 3.20084 14.4 3.5749V4.9249C14.4 5.29896 14.0991 5.5999 13.725 5.5999ZM7.24219 8.03834C8.27437 9.01428 8.93531 10.3812 8.99719 11.8999H9.00281C9.00281 9.9874 9.99844 8.30553 11.4975 7.34647L10.53 5.5099L7.24219 8.03834ZM14.0006 12.1108L12.7603 9.75396C12.1134 10.2462 11.6972 11.0252 11.6972 11.8999C11.6972 13.3905 12.9066 14.5999 14.3972 14.5999C15.8878 14.5999 17.0972 13.3905 17.0972 11.8999C17.0972 10.4093 15.8878 9.1999 14.3972 9.1999C14.1019 9.1999 13.8206 9.24771 13.5562 9.3349L14.7966 11.6918C14.9119 11.9112 14.8275 12.184 14.6081 12.2993C14.3888 12.4146 14.1159 12.3302 14.0006 12.1108ZM3.6 9.1999C2.10938 9.1999 0.9 10.4093 0.9 11.8999C0.9 13.3905 2.10938 14.5999 3.6 14.5999C4.93875 14.5999 6.04969 13.6268 6.26344 12.3499H4.37906C4.22437 12.6199 3.93187 12.7999 3.6 12.7999C3.10219 12.7999 2.7 12.3977 2.7 11.8999C2.7 11.4021 3.10219 10.9999 3.6 10.9999C3.93187 10.9999 4.22437 11.1799 4.37906 11.4499H6.26344C6.04969 10.173 4.93875 9.1999 3.6 9.1999ZM0 11.8999C0 10.9451 0.379285 10.0294 1.05442 9.35432C1.72955 8.67919 2.64522 8.2999 3.6 8.2999C4.55478 8.2999 5.47045 8.67919 6.14558 9.35432C6.82072 10.0294 7.2 10.9451 7.2 11.8999C7.2 12.8547 6.82072 13.7704 6.14558 14.4455C5.47045 15.1206 4.55478 15.4999 3.6 15.4999C2.64522 15.4999 1.72955 15.1206 1.05442 14.4455C0.379285 13.7704 0 12.8547 0 11.8999Z" fill="black"/>
</svg>
