<svg width="18" height="18" viewBox="0 0 18 18" fill="none" xmlns="http://www.w3.org/2000/svg">
<g clip-path="url(#clip0_10924_22971)">
<path d="M2.57143 16.7143H10.2857V12.8571C10.2857 11.4388 11.4388 10.2857 12.8571 10.2857H16.7143V2.57143C16.7143 1.86027 16.1397 1.28571 15.4286 1.28571H2.57143C1.86027 1.28571 1.28571 1.86027 1.28571 2.57143V15.4286C1.28571 16.1397 1.86027 16.7143 2.57143 16.7143ZM11.5714 16.1799L16.1799 11.5714H12.8571C12.146 11.5714 11.5714 12.146 11.5714 12.8571V16.1799ZM2.57143 18C1.15313 18 0 16.8469 0 15.4286V2.57143C0 1.15313 1.15313 0 2.57143 0H15.4286C16.8469 0 18 1.15313 18 2.57143V10.5067C18 11.1897 17.7308 11.8446 17.2487 12.3268L12.3228 17.2487C11.8406 17.7308 11.1857 18 10.5027 18H2.57143ZM3.53571 13.5C3.53571 12.9656 3.96563 12.5357 4.5 12.5357C5.03437 12.5357 5.46429 12.9656 5.46429 13.5C5.46429 14.0344 5.03437 14.4643 4.5 14.4643C3.96563 14.4643 3.53571 14.0344 3.53571 13.5ZM4.5 5.46429C3.96563 5.46429 3.53571 5.03437 3.53571 4.5C3.53571 3.96563 3.96563 3.53571 4.5 3.53571C5.03437 3.53571 5.46429 3.96563 5.46429 4.5C5.46429 5.03437 5.03437 5.46429 4.5 5.46429ZM3.53571 9C3.53571 8.46562 3.96563 8.03571 4.5 8.03571C5.03437 8.03571 5.46429 8.46562 5.46429 9C5.46429 9.53438 5.03437 9.96429 4.5 9.96429C3.96563 9.96429 3.53571 9.53438 3.53571 9Z" fill="black"/>
</g>
<defs>
<clipPath id="clip0_10924_22971">
<rect width="18" height="18" fill="white"/>
</clipPath>
</defs>
</svg>
