<svg width="18" height="18" viewBox="0 0 18 18" fill="none" xmlns="http://www.w3.org/2000/svg">
<g clip-path="url(#clip0_10924_22967)">
<path d="M0 15.4286C0 16.8469 1.15313 18 2.57143 18H11.1496C11.8326 18 12.4875 17.7308 12.9696 17.2487L17.2487 12.9656C17.7308 12.4835 18 11.8286 18 11.1455V2.57143C18 1.15313 16.8469 0 15.4286 0H2.57143C1.15313 0 0 1.15313 0 2.57143V15.4286ZM10.9286 15.6496V11.8929C10.9286 11.3585 11.3585 10.9286 11.8929 10.9286H15.6496L10.9286 15.6496ZM2.73214 14.1429C2.73214 13.5201 3.23438 13.0179 3.85714 13.0179C4.47991 13.0179 4.98214 13.5201 4.98214 14.1429C4.98214 14.7656 4.47991 15.2679 3.85714 15.2679C3.23438 15.2679 2.73214 14.7656 2.73214 14.1429ZM3.85714 4.98214C3.23438 4.98214 2.73214 4.47991 2.73214 3.85714C2.73214 3.23438 3.23438 2.73214 3.85714 2.73214C4.47991 2.73214 4.98214 3.23438 4.98214 3.85714C4.98214 4.47991 4.47991 4.98214 3.85714 4.98214ZM2.73214 9C2.73214 8.37723 3.23438 7.875 3.85714 7.875C4.47991 7.875 4.98214 8.37723 4.98214 9C4.98214 9.62277 4.47991 10.125 3.85714 10.125C3.23438 10.125 2.73214 9.62277 2.73214 9Z" fill="black"/>
</g>
<defs>
<clipPath id="clip0_10924_22967">
<rect width="18" height="18" fill="white"/>
</clipPath>
</defs>
</svg>
