<svg width="18" height="18" viewBox="0 0 18 18" fill="none" xmlns="http://www.w3.org/2000/svg">
<path d="M16.9881 2.15096C17.0474 1.7728 16.8818 1.39151 16.5662 1.17587C16.2505 0.960223 15.838 0.941471 15.5036 1.13211L1.50221 9.13288C1.17092 9.3204 0.977156 9.67981 1.00216 10.0611C1.02716 10.4424 1.26468 10.7768 1.61472 10.9237L5.99951 12.7489V15.6554C5.99951 16.3992 6.6027 16.9993 7.34339 16.9993C7.75281 16.9993 8.13722 16.8149 8.39349 16.4961L10.0437 14.4334H10.0468L13.6159 15.921C13.9003 16.0398 14.2222 16.021 14.491 15.871C14.7597 15.721 14.9441 15.4554 14.991 15.1522L16.9912 2.15096H16.9881ZM9.08106 14.0334L7.61217 15.871C7.54654 15.9523 7.44653 15.9992 7.34339 15.9992C7.15275 15.9992 6.99961 15.846 6.99961 15.6554V13.1645L9.08106 14.0334ZM10.4281 13.5114L7.40902 12.2519L15.8161 3.20106L14.0003 14.9991L10.4312 13.5114H10.4281ZM15.0785 2.52287L6.42455 11.8425L1.99913 9.99859L15.0785 2.52287Z" fill="black"/>
</svg>
