<svg width="18" height="18" viewBox="0 0 18 18" fill="none" xmlns="http://www.w3.org/2000/svg">
<path d="M16.5662 1.17341C16.8818 1.39217 17.0474 1.7703 16.9881 2.14843L14.988 15.1486C14.9412 15.4518 14.7568 15.7174 14.488 15.8674C14.2193 16.0174 13.8974 16.0361 13.613 15.9174L9.87546 14.3642L7.7348 16.6799C7.45668 16.983 7.01917 17.083 6.63479 16.933C6.25041 16.783 6.0004 16.4111 6.0004 15.9986V13.3861C6.0004 13.2611 6.04728 13.1423 6.13165 13.0486L11.3692 7.33601C11.5505 7.13913 11.5442 6.836 11.3567 6.6485C11.1692 6.46099 10.8661 6.44849 10.6692 6.62662L4.31288 12.2736L1.55346 10.8923C1.2222 10.7267 1.0097 10.3954 1.00033 10.0267C0.99095 9.65792 1.1847 9.31416 1.50346 9.12978L15.5037 1.12966C15.8381 0.939035 16.2506 0.957785 16.5662 1.17341Z" fill="black"/>
</svg>
