<svg width="18" height="18" viewBox="0 0 18 18" fill="none" xmlns="http://www.w3.org/2000/svg">
<path d="M13.6562 2.61299C12.7984 1.75518 11.4062 1.75518 10.5484 2.61299L4.07969 9.08174C2.59961 10.5618 2.59961 12.9595 4.07969 14.4396C5.55977 15.9196 7.95742 15.9196 9.4375 14.4396L14.7812 9.0958C15.1645 8.7126 15.7902 8.7126 16.1734 9.0958C16.5566 9.479 16.5566 10.1048 16.1734 10.488L10.8297 15.8317C8.57969 18.0817 4.9375 18.0817 2.6875 15.8317C0.4375 13.5817 0.4375 9.93955 2.6875 7.68955L9.15625 1.2208C10.784 -0.406934 13.4207 -0.406934 15.0484 1.2208C16.6762 2.84854 16.6762 5.48525 15.0484 7.11299L8.86094 13.3005C7.85547 14.306 6.22422 14.306 5.21875 13.3005C4.21328 12.295 4.21328 10.6638 5.21875 9.6583L10.2812 4.5958C10.6645 4.2126 11.2902 4.2126 11.6734 4.5958C12.0566 4.979 12.0566 5.60478 11.6734 5.98799L6.61094 11.0505C6.37539 11.286 6.37539 11.6728 6.61094 11.9083C6.84648 12.1438 7.2332 12.1438 7.46875 11.9083L13.6562 5.7208C14.5141 4.86299 14.5141 3.4708 13.6562 2.61299Z" fill="black"/>
</svg>
