<svg width="18" height="18" viewBox="0 0 18 18" fill="none" xmlns="http://www.w3.org/2000/svg">
<path d="M14.8123 2.89141C13.7892 1.86836 12.1298 1.86836 11.1068 2.89141L4.35679 9.64141C2.71148 11.2867 2.71148 13.9516 4.35679 15.5969C6.0021 17.2422 8.66694 17.2422 10.3123 15.5969L15.656 10.2531C15.874 10.0352 16.2326 10.0352 16.4505 10.2531C16.6685 10.4711 16.6685 10.8297 16.4505 11.0477L11.1068 16.3914C9.02202 18.4762 5.64351 18.4762 3.56226 16.3914C1.48101 14.3066 1.47749 10.9316 3.56226 8.84687L10.3123 2.09687C11.7748 0.634375 14.1443 0.634375 15.6068 2.09687C17.0693 3.55937 17.0693 5.92891 15.6068 7.39141L9.14507 13.8531C8.15366 14.8445 6.52241 14.7531 5.64351 13.6598C4.89468 12.7246 4.96851 11.3746 5.81577 10.5273L11.156 5.19062C11.374 4.97266 11.7326 4.97266 11.9505 5.19062C12.1685 5.40859 12.1685 5.76719 11.9505 5.98516L6.61382 11.3219C6.17085 11.7648 6.13218 12.468 6.52241 12.9566C6.97944 13.5262 7.83022 13.5754 8.34702 13.0586L14.8123 6.59687C15.8353 5.57383 15.8353 3.91445 14.8123 2.89141Z" fill="black"/>
</svg>
