<svg width="18" height="18" viewBox="0 0 18 18" fill="none" xmlns="http://www.w3.org/2000/svg">
<path d="M4.94998 3.59995C4.70248 3.59995 4.49998 3.80245 4.49998 4.04995V13.95C4.49998 14.1975 4.70248 14.4 4.94998 14.4H6.74998C6.99748 14.4 7.19998 14.1975 7.19998 13.95V4.04995C7.19998 3.80245 6.99748 3.59995 6.74998 3.59995H4.94998ZM3.59998 4.04995C3.59998 3.30464 4.20466 2.69995 4.94998 2.69995H6.74998C7.49529 2.69995 8.09998 3.30464 8.09998 4.04995V13.95C8.09998 14.6953 7.49529 15.3 6.74998 15.3H4.94998C4.20466 15.3 3.59998 14.6953 3.59998 13.95V4.04995ZM11.25 3.59995C11.0025 3.59995 10.8 3.80245 10.8 4.04995V13.95C10.8 14.1975 11.0025 14.4 11.25 14.4H13.05C13.2975 14.4 13.5 14.1975 13.5 13.95V4.04995C13.5 3.80245 13.2975 3.59995 13.05 3.59995H11.25ZM9.89998 4.04995C9.89998 3.30464 10.5047 2.69995 11.25 2.69995H13.05C13.7953 2.69995 14.4 3.30464 14.4 4.04995V13.95C14.4 14.6953 13.7953 15.3 13.05 15.3H11.25C10.5047 15.3 9.89998 14.6953 9.89998 13.95V4.04995Z" fill="black"/>
</svg>
