<svg width="18" height="18" viewBox="0 0 18 18" fill="none" xmlns="http://www.w3.org/2000/svg">
<path d="M4.94998 2.69995C4.20466 2.69995 3.59998 3.30464 3.59998 4.04995V13.95C3.59998 14.6953 4.20466 15.3 4.94998 15.3H6.74998C7.49529 15.3 8.09998 14.6953 8.09998 13.95V4.04995C8.09998 3.30464 7.49529 2.69995 6.74998 2.69995H4.94998ZM11.25 2.69995C10.5047 2.69995 9.89998 3.30464 9.89998 4.04995V13.95C9.89998 14.6953 10.5047 15.3 11.25 15.3H13.05C13.7953 15.3 14.4 14.6953 14.4 13.95V4.04995C14.4 3.30464 13.7953 2.69995 13.05 2.69995H11.25Z" fill="black"/>
</svg>
