<svg width="18" height="18" viewBox="0 0 18 18" fill="none" xmlns="http://www.w3.org/2000/svg">
<g clip-path="url(#clip0_1153_2928)">
<path d="M13.5949 0.795645C14.4738 -0.083086 15.9012 -0.083086 16.7801 0.795645L17.2055 1.22139C18.0844 2.10029 18.0844 3.52623 17.2055 4.40514L9.45703 12.1501C9.16172 12.4489 8.78555 12.6247 8.37422 12.7512L5.18906 13.486C4.99922 13.5282 4.80234 13.4719 4.66523 13.3348C4.52812 13.1977 4.47187 13.0008 4.51406 12.811L5.24883 9.62584C5.34375 9.21451 5.55117 8.83834 5.85 8.51139L13.5949 0.795645ZM15.982 1.59123C15.5426 1.15178 14.8324 1.15178 14.393 1.59123L13.4508 2.53131L15.4688 4.54928L16.4074 3.60709C16.8469 3.16869 16.8469 2.45643 16.4074 2.01697L15.982 1.59123ZM6.3457 9.87896L5.81133 12.1887L8.08945 11.6544C8.325 11.6087 8.51484 11.5032 8.6625 11.3239L14.6742 5.34381L12.6562 3.32689L6.64453 9.33756C6.49687 9.48522 6.39141 9.67506 6.3457 9.87896ZM7.3125 2.25006C7.62187 2.25006 7.875 2.50178 7.875 2.81256C7.875 3.12334 7.62187 3.37506 7.3125 3.37506H2.8125C1.88051 3.37506 1.125 4.13092 1.125 5.06256V15.1876C1.125 16.1192 1.88051 16.8751 2.8125 16.8751H12.9375C13.8691 16.8751 14.625 16.1192 14.625 15.1876V10.6876C14.625 10.3782 14.8781 10.1251 15.1875 10.1251C15.4969 10.1251 15.75 10.3782 15.75 10.6876V15.1876C15.75 16.7415 14.4914 18.0001 12.9375 18.0001H2.8125C1.2593 18.0001 0 16.7415 0 15.1876V5.06256C0 3.50936 1.2593 2.25006 2.8125 2.25006H7.3125Z" fill="black"/>
</g>
<defs>
<clipPath id="clip0_1153_2928">
<rect width="18" height="18" fill="white"/>
</clipPath>
</defs>
</svg>
