<svg width="18" height="18" viewBox="0 0 18 18" fill="none" xmlns="http://www.w3.org/2000/svg">
<path d="M15.1695 4.16948C15.6089 3.73003 15.6089 3.01636 15.1695 2.5769C14.73 2.13745 14.0164 2.13745 13.5769 2.5769L2.3269 13.8269C1.88745 14.2664 1.88745 14.98 2.3269 15.4195C2.76636 15.8589 3.48003 15.8589 3.91948 15.4195L15.1695 4.16948ZM6.49995 4.49995C6.49995 3.90321 6.2629 3.33092 5.84094 2.90896C5.41898 2.487 4.84669 2.24995 4.24995 2.24995C3.65321 2.24995 3.08092 2.487 2.65896 2.90896C2.237 3.33092 1.99995 3.90321 1.99995 4.49995C1.99995 5.09669 2.237 5.66898 2.65896 6.09094C3.08092 6.5129 3.65321 6.74995 4.24995 6.74995C4.84669 6.74995 5.41898 6.5129 5.84094 6.09094C6.2629 5.66898 6.49995 5.09669 6.49995 4.49995ZM15.5 13.5C15.5 12.9032 15.2629 12.3309 14.8409 11.909C14.419 11.487 13.8467 11.25 13.25 11.25C12.6532 11.25 12.0809 11.487 11.659 11.909C11.237 12.3309 11 12.9032 11 13.5C11 14.0967 11.237 14.669 11.659 15.0909C12.0809 15.5129 12.6532 15.75 13.25 15.75C13.8467 15.75 14.419 15.5129 14.8409 15.0909C15.2629 14.669 15.5 14.0967 15.5 13.5Z" fill="black"/>
</svg>
