<svg width="18" height="18" viewBox="0 0 18 18" fill="none" xmlns="http://www.w3.org/2000/svg">
<path d="M4.25 3.375C4.54837 3.375 4.83452 3.49353 5.0455 3.7045C5.25647 3.91548 5.375 4.20163 5.375 4.5C5.375 4.79837 5.25647 5.08452 5.0455 5.2955C4.83452 5.50647 4.54837 5.625 4.25 5.625C3.95163 5.625 3.66548 5.50647 3.4545 5.2955C3.24353 5.08452 3.125 4.79837 3.125 4.5C3.125 4.20163 3.24353 3.91548 3.4545 3.7045C3.66548 3.49353 3.95163 3.375 4.25 3.375ZM4.25 6.75C4.84674 6.75 5.41903 6.51295 5.84099 6.09099C6.26295 5.66903 6.5 5.09674 6.5 4.5C6.5 3.90326 6.26295 3.33097 5.84099 2.90901C5.41903 2.48705 4.84674 2.25 4.25 2.25C3.65326 2.25 3.08097 2.48705 2.65901 2.90901C2.23705 3.33097 2 3.90326 2 4.5C2 5.09674 2.23705 5.66903 2.65901 6.09099C3.08097 6.51295 3.65326 6.75 4.25 6.75ZM13.25 12.375C13.5484 12.375 13.8345 12.4935 14.0455 12.7045C14.2565 12.9155 14.375 13.2016 14.375 13.5C14.375 13.7984 14.2565 14.0845 14.0455 14.2955C13.8345 14.5065 13.5484 14.625 13.25 14.625C12.9516 14.625 12.6655 14.5065 12.4545 14.2955C12.2435 14.0845 12.125 13.7984 12.125 13.5C12.125 13.2016 12.2435 12.9155 12.4545 12.7045C12.6655 12.4935 12.9516 12.375 13.25 12.375ZM13.25 15.75C13.8467 15.75 14.419 15.5129 14.841 15.091C15.2629 14.669 15.5 14.0967 15.5 13.5C15.5 12.9033 15.2629 12.331 14.841 11.909C14.419 11.4871 13.8467 11.25 13.25 11.25C12.6533 11.25 12.081 11.4871 11.659 11.909C11.2371 12.331 11 12.9033 11 13.5C11 14.0967 11.2371 14.669 11.659 15.091C12.081 15.5129 12.6533 15.75 13.25 15.75ZM15.3348 3.20977C15.5527 2.9918 15.5527 2.6332 15.3348 2.41523C15.1168 2.19727 14.7582 2.19727 14.5402 2.41523L2.16523 14.7902C1.94727 15.0082 1.94727 15.3668 2.16523 15.5848C2.3832 15.8027 2.7418 15.8027 2.95977 15.5848L15.3348 3.20977Z" fill="black"/>
</svg>
