<svg width="18" height="18" viewBox="0 0 18 18" fill="none" xmlns="http://www.w3.org/2000/svg">
<path d="M15.3348 2.41492C15.1151 2.19519 14.7589 2.19519 14.5396 2.41492L2.16455 14.7899C1.94482 15.0096 1.94482 15.3658 2.16455 15.5852C2.2747 15.6938 2.41873 15.75 2.56252 15.75C2.70631 15.75 2.85038 15.6951 2.96014 15.5852L15.3351 3.21022C15.5563 2.99042 15.5563 2.63464 15.3348 2.41492ZM4.25002 6.75003C5.49279 6.75003 6.50002 5.74281 6.50002 4.50003C6.50002 3.25726 5.49279 2.25039 4.25002 2.25039C3.00725 2.25039 2.00002 3.25761 2.00002 4.46874C2.00002 5.67988 3.00725 6.75003 4.25002 6.75003ZM4.25002 3.37503C4.87018 3.37503 5.37502 3.87988 5.37502 4.50003C5.37502 5.12019 4.87018 5.62503 4.25002 5.62503C3.62986 5.62503 3.12502 5.11878 3.12502 4.50003C3.12502 3.88128 3.62986 3.37503 4.25002 3.37503ZM13.25 11.25C12.0072 11.25 11 12.2573 11 13.5C11 14.7428 12.0072 15.75 13.25 15.75C14.4928 15.75 15.5 14.7428 15.5 13.5C15.5 12.2573 14.491 11.25 13.25 11.25ZM13.25 14.625C12.6299 14.625 12.125 14.1202 12.125 13.5C12.125 12.8799 12.6299 12.375 13.25 12.375C13.8702 12.375 14.375 12.8799 14.375 13.5C14.375 14.1202 13.8688 14.625 13.25 14.625Z" fill="black"/>
</svg>
