<svg width="18" height="18" viewBox="0 0 18 18" fill="none" xmlns="http://www.w3.org/2000/svg">
<path d="M12.5 4V4.02187C12.3344 4.00937 12.1687 4 12 4H8C7.48438 4 6.98438 4.06562 6.50625 4.1875C6.50312 4.125 6.5 4.0625 6.5 4C6.5 2.34375 7.84375 1 9.5 1C11.1562 1 12.5 2.34375 12.5 4ZM12 5C12.1094 5 12.2188 5.00313 12.325 5.00938C12.4563 5.01875 12.5875 5.03125 12.7188 5.05C13.2688 4.40938 14.0875 4 15 4H15.3594C15.6844 4 15.9219 4.30625 15.8438 4.62188L15.4125 6.34688C15.9062 6.80938 16.3094 7.37187 16.5844 8H17C17.5531 8 18 8.44688 18 9V12C18 12.5531 17.5531 13 17 13H16C15.7156 13.3781 15.3781 13.7156 15 14V16C15 16.5531 14.5531 17 14 17H13C12.4469 17 12 16.5531 12 16V15H8V16C8 16.5531 7.55312 17 7 17H6C5.44688 17 5 16.5531 5 16V14C3.90937 13.1812 3.16563 11.9281 3.025 10.5H2.125C0.95 10.5 0 9.55 0 8.375C0 7.2 0.95 6.25 2.125 6.25H2.25C2.66563 6.25 3 6.58437 3 7C3 7.41563 2.66563 7.75 2.25 7.75H2.125C1.78125 7.75 1.5 8.03125 1.5 8.375C1.5 8.71875 1.78125 9 2.125 9H3.1C3.47812 7.13125 4.90312 5.64062 6.73438 5.1625C7.1375 5.05625 7.5625 5 8 5H12ZM14 9.25C14 9.05109 13.921 8.86032 13.7803 8.71967C13.6397 8.57902 13.4489 8.5 13.25 8.5C13.0511 8.5 12.8603 8.57902 12.7197 8.71967C12.579 8.86032 12.5 9.05109 12.5 9.25C12.5 9.44891 12.579 9.63968 12.7197 9.78033C12.8603 9.92098 13.0511 10 13.25 10C13.4489 10 13.6397 9.92098 13.7803 9.78033C13.921 9.63968 14 9.44891 14 9.25Z" fill="black"/>
</svg>
