<svg width="18" height="18" viewBox="0 0 18 18" fill="none" xmlns="http://www.w3.org/2000/svg">
<path d="M8.5 2C9.5875 2 10.5156 2.69375 10.8594 3.66563C10.95 3.925 11.2375 4.0625 11.4969 3.97187C11.7562 3.88125 11.8938 3.59375 11.8031 3.33437C11.3219 1.975 10.025 1 8.5 1C6.76562 1 5.325 2.2625 5.04688 3.91875C5 4.19062 5.18438 4.45 5.45625 4.49375C5.72813 4.5375 5.9875 4.35625 6.03125 4.08437C6.23438 2.9 7.2625 2 8.5 2ZM1.725 6.94688C1.97188 6.82188 2.07188 6.52187 1.95 6.275C1.82812 6.02813 1.525 5.92813 1.27813 6.05L1.13125 6.125C0.4375 6.47188 0 7.18125 0 7.95625C0 9.07188 0.890625 9.97812 2 10C2 11.6375 2.7875 13.0875 4 14V15.5C4 16.3281 4.67188 17 5.5 17H6.5C7.32812 17 8 16.3281 8 15.5V15H10V15.5C10 16.3281 10.6719 17 11.5 17H12.5C13.3281 17 14 16.3281 14 15.5V14.5844C14.7969 14.2375 15.4844 13.6875 16 13H17C17.5531 13 18 12.5531 18 12V9C18 8.44688 17.5531 8 17 8H16.5844C16.25 7.23125 15.7281 6.56563 15.075 6.05625L15.3 5.275C15.4812 4.63438 15 4 14.3375 4H14.25C13.2969 4 12.4313 4.38125 11.8 5H7C4.58125 5 2.5625 6.71875 2.1 9H2.04375C1.46875 9 1 8.53125 1 7.95625C1 7.55938 1.225 7.2 1.57812 7.02187L1.725 6.95V6.94688ZM13.25 10C13.4489 10 13.6397 9.92098 13.7803 9.78033C13.921 9.63968 14 9.44891 14 9.25C14 9.05109 13.921 8.86032 13.7803 8.71967C13.6397 8.57902 13.4489 8.5 13.25 8.5C13.0511 8.5 12.8603 8.57902 12.7197 8.71967C12.579 8.86032 12.5 9.05109 12.5 9.25C12.5 9.44891 12.579 9.63968 12.7197 9.78033C12.8603 9.92098 13.0511 10 13.25 10ZM12.3875 5.83437C12.8438 5.32188 13.5094 5 14.25 5H14.3375L14.0188 6.11875C13.9594 6.32812 14.0406 6.55 14.2219 6.67188C14.9344 7.14687 15.4844 7.84688 15.775 8.66563C15.8469 8.86562 16.0344 9 16.2469 9H17V12H15.7437C15.5781 12 15.4219 12.0844 15.3281 12.2219C14.8531 12.9344 14.1531 13.4844 13.3344 13.7719C13.1344 13.8438 13 14.0312 13 14.2437V15.5C13 15.775 12.775 16 12.5 16H11.5C11.225 16 11 15.775 11 15.5V14.5C11 14.225 10.775 14 10.5 14H7.5C7.225 14 7 14.225 7 14.5V15.5C7 15.775 6.775 16 6.5 16H5.5C5.225 16 5 15.775 5 15.5V13.7437C5 13.5781 4.91562 13.4219 4.77812 13.3281C3.70625 12.6094 3 11.3875 3 10C3 7.79063 4.79063 6 7 6H12H12.0125C12.1562 6 12.2906 5.94062 12.3844 5.83437H12.3875Z" fill="black"/>
</svg>
