<svg width="18" height="18" viewBox="0 0 18 18" fill="none" xmlns="http://www.w3.org/2000/svg">
<path d="M14.0376 13.7699C13.3313 13.7699 12.6672 13.4949 12.1678 12.9958L9.46799 10.296C9.27852 10.1059 8.94809 10.1065 8.75861 10.296L6.04894 13.0057C5.54953 13.5047 4.88536 13.7797 4.17911 13.7797H3.6471L7.0664 17.1991C8.13432 18.267 9.86573 18.267 10.9336 17.1991L14.3629 13.7699H14.0376Z" fill="black"/>
<path d="M4.17903 4.22017C4.88527 4.22017 5.54944 4.49523 6.04877 4.9944L8.75844 7.7045C8.95359 7.89965 9.27225 7.90049 9.46791 7.70425L12.1677 5.00422C12.6671 4.50506 13.3313 4.23007 14.0375 4.23007H14.3627L10.9336 0.800941C9.86564 -0.26698 8.13424 -0.26698 7.06632 0.800941L3.6471 4.22017H4.17903Z" fill="black"/>
<path d="M15.1268 4.99417L17.1991 7.06643C18.267 8.13427 18.267 9.86569 17.1991 10.9337L15.1269 13.0058C15.0812 12.9875 15.0319 12.9762 14.9797 12.9762H14.0376C13.5504 12.9762 13.0736 12.7786 12.7295 12.4341L10.0296 9.73463C9.54035 9.24478 8.68663 9.24503 8.19686 9.73438L5.4872 12.4441C5.14296 12.7885 4.66623 12.986 4.17909 12.986H3.02059C2.97123 12.986 2.92492 12.9977 2.88132 13.0141L0.800938 10.9337C-0.266979 9.86569 -0.266979 8.13427 0.800938 7.06643L2.8814 4.98596C2.925 5.00238 2.97123 5.01407 3.02059 5.01407H4.17909C4.66623 5.01407 5.14296 5.21158 5.4872 5.55599L8.19712 8.26592C8.44975 8.5183 8.78145 8.64478 9.11341 8.64478C9.44511 8.64478 9.77707 8.5183 10.0296 8.26567L12.7295 5.56581C13.0736 5.2214 13.5504 5.02389 14.0376 5.02389H14.9797C15.0318 5.02389 15.0812 5.01246 15.1268 4.99417Z" fill="black"/>
</svg>
