<svg width="18" height="18" viewBox="0 0 18 18" fill="none" xmlns="http://www.w3.org/2000/svg">
<path fill-rule="evenodd" clip-rule="evenodd" d="M6.75581 13.713C6.45114 14.0175 6.10093 14.2617 5.72078 14.4392L7.77348 16.492C8.45087 17.1693 9.54914 17.1693 10.2265 16.492L12.3575 14.3611C12.0306 14.191 11.7282 13.9702 11.4609 13.703L9.11331 11.3555L6.75581 13.713ZM10.9336 17.1991C9.86573 18.267 8.13432 18.267 7.0664 17.1991L3.6471 13.7797H4.17909C4.44354 13.7797 4.7021 13.7412 4.94831 13.6667C5.35961 13.5424 5.73647 13.3179 6.04887 13.0057L8.7583 10.2963C8.9477 10.1069 9.27828 10.1059 9.46778 10.2958L12.1676 12.9955C12.4403 13.2682 12.7626 13.4742 13.1137 13.6048C13.4054 13.7133 13.7171 13.7699 14.0376 13.7699H14.3629L10.9336 17.1991ZM12.7295 12.4341C13.0736 12.7786 13.5504 12.9762 14.0376 12.9762H14.9797C15.0319 12.9762 15.0812 12.9875 15.1269 13.0058L17.1991 10.9337C18.267 9.86569 18.267 8.13427 17.1991 7.06643L15.1268 4.99417C15.0812 5.01246 15.0318 5.02389 14.9797 5.02389H14.0376C13.5504 5.02391 13.0736 5.22142 12.7295 5.56581L10.0295 8.26578C9.95228 8.34301 9.86764 8.40844 9.77786 8.46207C9.57401 8.58384 9.34365 8.64478 9.11341 8.64478C8.88298 8.64478 8.65269 8.58383 8.44887 8.46215C8.35906 8.40853 8.27439 8.34311 8.19712 8.26592L5.48729 5.55608C5.14306 5.2117 4.66621 5.01407 4.17909 5.01407H3.02059C2.97123 5.01407 2.925 5.00238 2.8814 4.98596L0.800938 7.06643C-0.266979 8.13427 -0.266979 9.86569 0.800938 10.9337L2.88132 13.0141C2.92492 12.9977 2.97123 12.986 3.02059 12.986H4.17909C4.66623 12.986 5.14297 12.7885 5.4872 12.4441L8.19686 9.73438C8.27133 9.65999 8.35427 9.59684 8.44299 9.54507C8.64604 9.42658 8.87974 9.36731 9.11341 9.3673C9.34705 9.3673 9.58066 9.42655 9.78358 9.54509C9.87226 9.5969 9.95508 9.66003 10.0295 9.73449L12.7295 12.4341ZM14.7423 11.9762H14.0376C13.8156 11.9762 13.5933 11.884 13.4369 11.7274L10.7371 9.02795C10.7278 9.01859 10.7184 9.00932 10.7089 9.00015C10.7182 8.99112 10.7275 8.98199 10.7367 8.97277L13.4366 6.27291C13.593 6.11635 13.8156 6.02389 14.0376 6.02389H14.7423L16.492 7.77354C17.1693 8.4508 17.1694 9.54905 16.492 10.2266L14.7423 11.9762ZM7.51749 9.00003C7.50828 9.00892 7.49914 9.01789 7.49006 9.02696L4.78009 11.7369C4.62347 11.8936 4.40102 11.986 4.17909 11.986H3.26743L1.50807 10.2266C0.830639 9.54909 0.830701 8.45083 1.50802 7.77357L3.26751 6.01407H4.17909C4.40102 6.01407 4.62329 6.10622 4.77991 6.26292L7.49001 8.97303C7.49899 8.982 7.50839 8.99124 7.51749 9.00003ZM10.9336 0.800941C9.86564 -0.26698 8.13424 -0.26698 7.06632 0.800941L3.6471 4.22017H4.17903C4.44347 4.22018 4.70208 4.25875 4.94828 4.33321C5.35958 4.4576 5.73642 4.68216 6.04877 4.9944L8.75821 7.70427C8.85588 7.80192 8.98477 7.85118 9.11341 7.85115C9.24178 7.85111 9.37019 7.80226 9.46791 7.70425L12.1676 5.00433C12.4403 4.73171 12.7625 4.52576 13.1136 4.39518C13.4052 4.28669 13.717 4.23007 14.0375 4.23007H14.3627L10.9336 0.800941ZM12.3573 3.63892L10.2265 1.50805C9.54906 0.830651 8.45082 0.830651 7.77343 1.50805L5.72073 3.56075C6.1009 3.73833 6.45111 3.98263 6.75576 4.28717L9.11306 6.64485L11.4605 4.29715C11.7278 4.02997 12.0304 3.80896 12.3573 3.63892Z" fill="black"/>
</svg>
