<svg width="25" height="25" viewBox="0 0 25 25.0026" fill="none" xmlns="http://www.w3.org/2000/svg">
<g id="Pix-symbol">
<path id="path2376" d="M19.4964 19.1275C18.5155 19.1275 17.593 18.7456 16.8994 18.0523L13.1497 14.3025C12.8864 14.0385 12.4276 14.0393 12.1644 14.3025L8.401 18.066C7.7074 18.7593 6.78488 19.1412 5.80406 19.1412H5.0651L9.81426 23.8902C11.2974 25.3734 13.7021 25.3734 15.1854 23.8902L19.948 19.1275H19.4964Z" fill="black"/>
<path id="path2380" d="M5.80385 5.86136C6.78466 5.86136 7.70719 6.24326 8.40078 6.93652L12.1642 10.7006C12.4352 10.9718 12.8778 10.9728 13.1495 10.7003L16.8992 6.95024C17.5928 6.25698 18.5153 5.87508 19.4961 5.87508H19.9478L15.1852 1.11243C13.7019 -0.37081 11.2972 -0.37081 9.81405 1.11243L5.0651 5.86137L5.80385 5.86136Z" fill="black"/>
<path id="path2384" d="M23.8877 9.81662L21.0096 6.93854C20.9462 6.96392 20.8776 6.97976 20.8051 6.97976H19.4966C18.82 6.97976 18.1578 7.25417 17.6797 7.73256L13.9301 11.4823C13.5792 11.8332 13.1182 12.0087 12.6575 12.0087C12.1964 12.0087 11.7357 11.8332 11.3849 11.4826L7.62113 7.71885C7.14308 7.24036 6.48082 6.96606 5.80429 6.96606H4.19526C4.12663 6.96606 4.0625 6.94989 4.00195 6.92708L1.11243 9.81662C-0.370809 11.2999 -0.370809 13.7045 1.11243 15.1877L4.00184 18.0771C4.06249 18.0544 4.12663 18.0382 4.19526 18.0382H5.80429C6.48082 18.0382 7.14308 17.7639 7.62113 17.2855L11.3845 13.5221C12.0648 12.8424 13.2506 12.8422 13.9301 13.5224L17.6797 17.2718C18.1578 17.7502 18.82 18.0246 19.4966 18.0246H20.8051C20.8776 18.0246 20.9462 18.0404 21.0096 18.0658L23.8877 15.1877C25.3708 13.7045 25.3708 11.2999 23.8877 9.81662Z" fill="black"/>
</g>
</svg>
