<svg width="18" height="18" viewBox="0 0 18 18" fill="none" xmlns="http://www.w3.org/2000/svg">
<path d="M10 2.8125C10 2.19023 9.49727 1.6875 8.875 1.6875C8.25273 1.6875 7.75 2.19023 7.75 2.8125V7.875H2.6875C2.06523 7.875 1.5625 8.37773 1.5625 9C1.5625 9.62227 2.06523 10.125 2.6875 10.125H7.75V15.1875C7.75 15.8098 8.25273 16.3125 8.875 16.3125C9.49727 16.3125 10 15.8098 10 15.1875V10.125H15.0625C15.6848 10.125 16.1875 9.62227 16.1875 9C16.1875 8.37773 15.6848 7.875 15.0625 7.875H10V2.8125Z" fill="black"/>
</svg>
