<svg width="18" height="18" viewBox="0 0 18 18" fill="none" xmlns="http://www.w3.org/2000/svg">
<path d="M16.1875 9.00001C16.1875 9.30939 15.9344 9.56251 15.625 9.56251H9.4375V15.75C9.4375 16.0609 9.18592 16.3129 8.875 16.3129C8.56408 16.3129 8.3125 16.0594 8.3125 15.75V9.56251H2.125C1.81408 9.56251 1.5625 9.31115 1.5625 9.00037C1.5625 8.69064 1.81422 8.43751 2.125 8.43751H8.3125V2.25001C8.3125 1.93909 8.56408 1.68787 8.875 1.68787C9.18592 1.68787 9.4375 1.93923 9.4375 2.25001V8.43751H15.625C15.9344 8.43751 16.1875 8.69064 16.1875 9.00001Z" fill="black"/>
</svg>
