<svg width="18" height="18" viewBox="0 0 18 18" fill="none" xmlns="http://www.w3.org/2000/svg">
<path d="M1.35 3.35H3.825C4.19906 3.35 4.5 3.04906 4.5 2.675C4.5 2.30094 4.19906 2 3.825 2H0.9C0.402187 2 0 2.40219 0 2.9V5.825C0 6.19906 0.300937 6.5 0.675 6.5C1.04906 6.5 1.35 6.19906 1.35 5.825V3.35ZM4.94438 8.3C5.68969 8.3 6.29438 7.69531 6.29438 6.95C6.29438 6.20469 5.68969 5.6 4.94438 5.6C4.19906 5.6 3.59438 6.20469 3.59438 6.95C3.59438 7.69531 4.19906 8.3 4.94438 8.3ZM4.19906 9.2C3.37219 9.2 2.7 9.87219 2.7 10.6991C2.7 11.1125 3.03469 11.45 3.45094 11.45H5.02875C5.25375 10.4909 5.95125 9.71469 6.8625 9.38C6.65156 9.26469 6.40687 9.2 6.15094 9.2H4.19906ZM14.5491 11.45C14.9625 11.45 15.3 11.1153 15.3 10.6991C15.3 9.86937 14.6278 9.2 13.8009 9.2H11.8491C11.5903 9.2 11.3484 9.26469 11.1375 9.38C12.0487 9.71469 12.7463 10.4909 12.9713 11.45H14.5491ZM12.0347 11.45C11.7928 10.7666 11.1937 10.2519 10.4625 10.1281C10.3528 10.1084 10.2403 10.1 10.125 10.1H7.875C7.75969 10.1 7.64719 10.1084 7.5375 10.1281C6.80625 10.2519 6.20719 10.7666 5.96531 11.45C5.88938 11.6609 5.85 11.8888 5.85 12.125C5.85 12.4991 6.15094 12.8 6.525 12.8H11.475C11.8491 12.8 12.15 12.4991 12.15 12.125C12.15 11.8888 12.1106 11.6609 12.0347 11.45ZM13.05 8.3C13.7953 8.3 14.4 7.69531 14.4 6.95C14.4 6.20469 13.7953 5.6 13.05 5.6C12.3047 5.6 11.7 6.20469 11.7 6.95C11.7 7.69531 12.3047 8.3 13.05 8.3ZM10.8 7.4C10.8 6.40719 9.99281 5.6 9 5.6C8.00719 5.6 7.2 6.40719 7.2 7.4C7.2 8.39281 8.00719 9.2 9 9.2C9.99281 9.2 10.8 8.39281 10.8 7.4ZM14.175 3.35H16.65V5.825C16.65 6.19906 16.9509 6.5 17.325 6.5C17.6991 6.5 18 6.19906 18 5.825V2.9C18 2.40219 17.5978 2 17.1 2H14.175C13.8009 2 13.5 2.30094 13.5 2.675C13.5 3.04906 13.8009 3.35 14.175 3.35ZM1.35 15.05V12.575C1.35 12.2009 1.04906 11.9 0.675 11.9C0.300937 11.9 0 12.2009 0 12.575V15.5C0 15.9978 0.402187 16.4 0.9 16.4H3.825C4.19906 16.4 4.5 16.0991 4.5 15.725C4.5 15.3509 4.19906 15.05 3.825 15.05H1.35ZM14.175 15.05C13.8009 15.05 13.5 15.3509 13.5 15.725C13.5 16.0991 13.8009 16.4 14.175 16.4H17.1C17.5978 16.4 18 15.9978 18 15.5V12.575C18 12.2009 17.6991 11.9 17.325 11.9C16.9509 11.9 16.65 12.2009 16.65 12.575V15.05H14.175Z" fill="#3D3939"/>
</svg>
