<svg width="18" height="18" viewBox="0 0 18 18" fill="none" xmlns="http://www.w3.org/2000/svg">
<g clip-path="url(#clip0_1180_3055)">
<path d="M11.25 0H15.75C16.991 0 18 1.00898 18 2.25V6.75C18 7.05937 17.7469 7.3125 17.4375 7.3125H15.6094C15.3773 7.3125 15.1875 7.50234 15.1875 7.73438V7.875C15.1875 8.49727 14.6848 9 14.0625 9C13.4402 9 12.9375 8.49727 12.9375 7.875V7.73438C12.9375 7.50234 12.7477 7.3125 12.5156 7.3125H11.25C10.9406 7.3125 10.6875 7.05937 10.6875 6.75V5.625C10.6875 5.31563 10.9406 5.0625 11.25 5.0625H11.8125C12.4348 5.0625 12.9375 4.55977 12.9375 3.9375C12.9375 3.31523 12.4348 2.8125 11.8125 2.8125H11.25C10.9406 2.8125 10.6875 2.55938 10.6875 2.25V0.5625C10.6875 0.253125 10.9406 0 11.25 0ZM0 9V4.5C0 3.25898 1.00898 2.25 2.25 2.25H6.75C7.05937 2.25 7.3125 2.50312 7.3125 2.8125V4.07812C7.3125 4.31016 7.50234 4.5 7.73438 4.5H7.875C8.49727 4.5 9 5.00273 9 5.625C9 6.24727 8.49727 6.75 7.875 6.75H7.73438C7.50234 6.75 7.3125 6.93984 7.3125 7.17188V9C7.3125 9.30937 7.05937 9.5625 6.75 9.5625H5.625C5.31563 9.5625 5.0625 9.30937 5.0625 9V8.4375C5.0625 7.81523 4.55977 7.3125 3.9375 7.3125C3.31523 7.3125 2.8125 7.81523 2.8125 8.4375V9C2.8125 9.30937 2.55938 9.5625 2.25 9.5625H0.5625C0.253125 9.5625 0 9.30937 0 9ZM0 15.75V11.25C0 10.9406 0.253125 10.6875 0.5625 10.6875H6.75C7.05937 10.6875 7.3125 10.9406 7.3125 11.25V12.375C7.3125 12.6844 7.05937 12.9375 6.75 12.9375H6.1875C5.56523 12.9375 5.0625 13.4402 5.0625 14.0625C5.0625 14.6848 5.56523 15.1875 6.1875 15.1875H6.75C7.05937 15.1875 7.3125 15.4406 7.3125 15.75V17.4375C7.3125 17.7469 7.05937 18 6.75 18H2.25C1.00898 18 0 16.991 0 15.75ZM8.4375 11.25C8.4375 10.9406 8.69063 10.6875 9 10.6875H10.125C10.4344 10.6875 10.6875 10.9406 10.6875 11.25V11.8125C10.6875 12.4348 11.1902 12.9375 11.8125 12.9375C12.4348 12.9375 12.9375 12.4348 12.9375 11.8125V11.25C12.9375 10.9406 13.1906 10.6875 13.5 10.6875H15.1875C15.4969 10.6875 15.75 10.9406 15.75 11.25V15.75C15.75 16.991 14.741 18 13.5 18H9C8.69063 18 8.4375 17.7469 8.4375 17.4375V11.25Z" fill="black"/>
</g>
<defs>
<clipPath id="clip0_1180_3055">
<rect width="18" height="18" fill="white"/>
</clipPath>
</defs>
</svg>
