<svg width="18" height="18" viewBox="0 0 18 18" fill="none" xmlns="http://www.w3.org/2000/svg">
<g clip-path="url(#clip0_1180_3054)">
<path d="M11.25 0C10.6277 0 10.125 0.502734 10.125 1.125V1.96875C10.125 2.59102 10.6277 3.09375 11.25 3.09375H11.8125C12.1219 3.09375 12.375 3.34687 12.375 3.65625C12.375 3.96563 12.1219 4.21875 11.8125 4.21875H11.25C10.6277 4.21875 10.125 4.72148 10.125 5.34375V6.1875C10.125 6.80977 10.6277 7.3125 11.25 7.3125H12.375C12.375 8.24414 13.1309 9 14.0625 9C14.9941 9 15.75 8.24414 15.75 7.3125H16.875C17.4973 7.3125 18 6.80977 18 6.1875V2.25C18 1.00898 16.991 0 15.75 0H11.25ZM11.25 1.125H15.75C16.3723 1.125 16.875 1.62773 16.875 2.25V6.1875H15.1875C14.8781 6.1875 14.625 6.44063 14.625 6.75V7.3125C14.625 7.62187 14.3719 7.875 14.0625 7.875C13.7531 7.875 13.5 7.62187 13.5 7.3125V6.75C13.5 6.44063 13.2469 6.1875 12.9375 6.1875H11.25V5.34375H11.8125C12.7441 5.34375 13.5 4.58789 13.5 3.65625C13.5 2.72461 12.7441 1.96875 11.8125 1.96875H11.25V1.125ZM2.25 2.25C1.00898 2.25 0 3.25898 0 4.5V10.125V15.75C0 16.991 1.00898 18 2.25 18H7.875H13.5C14.741 18 15.75 16.991 15.75 15.75V10.6875C15.75 10.0652 15.2473 9.5625 14.625 9.5625H12.9375C12.3152 9.5625 11.8125 10.0652 11.8125 10.6875V11.25C11.8125 11.5594 11.5594 11.8125 11.25 11.8125C10.9406 11.8125 10.6875 11.5594 10.6875 11.25V10.6875C10.6875 10.0652 10.1848 9.5625 9.5625 9.5625H8.4375V3.375C8.4375 2.75273 7.93477 2.25 7.3125 2.25H2.25ZM7.3125 3.375V9.5625H6.1875V9C6.1875 8.06836 5.43164 7.3125 4.5 7.3125C3.56836 7.3125 2.8125 8.06836 2.8125 9V9.5625H1.125V4.5C1.125 3.87773 1.62773 3.375 2.25 3.375H7.3125ZM2.8125 10.6875C3.43477 10.6875 3.9375 10.1848 3.9375 9.5625V9C3.9375 8.69063 4.19063 8.4375 4.5 8.4375C4.80937 8.4375 5.0625 8.69063 5.0625 9V9.5625C5.0625 10.1848 5.56523 10.6875 6.1875 10.6875H7.3125V11.8125H6.75C5.81836 11.8125 5.0625 12.5684 5.0625 13.5C5.0625 14.4316 5.81836 15.1875 6.75 15.1875H7.3125V16.875H2.25C1.62773 16.875 1.125 16.3723 1.125 15.75V10.6875H2.8125ZM8.4375 15.1875C8.4375 14.5652 7.93477 14.0625 7.3125 14.0625H6.75C6.44063 14.0625 6.1875 13.8094 6.1875 13.5C6.1875 13.1906 6.44063 12.9375 6.75 12.9375H7.3125C7.93477 12.9375 8.4375 12.4348 8.4375 11.8125V10.6875H9.5625V11.25C9.5625 12.1816 10.3184 12.9375 11.25 12.9375C12.1816 12.9375 12.9375 12.1816 12.9375 11.25V10.6875H14.625V15.75C14.625 16.3723 14.1223 16.875 13.5 16.875H8.4375V15.1875Z" fill="black"/>
</g>
<defs>
<clipPath id="clip0_1180_3054">
<rect width="18" height="18" fill="white"/>
</clipPath>
</defs>
</svg>
