<svg width="18" height="18" viewBox="0 0 18 18" fill="none" xmlns="http://www.w3.org/2000/svg">
<path d="M1 2.6875C1 1.75586 1.75586 1 2.6875 1H6.0625C6.99414 1 7.75 1.75586 7.75 2.6875V6.0625C7.75 6.99414 6.99414 7.75 6.0625 7.75H2.6875C1.75586 7.75 1 6.99414 1 6.0625V2.6875ZM3.25 3.25V5.5H5.5V3.25H3.25ZM1 11.6875C1 10.7559 1.75586 10 2.6875 10H6.0625C6.99414 10 7.75 10.7559 7.75 11.6875V15.0625C7.75 15.9941 6.99414 16.75 6.0625 16.75H2.6875C1.75586 16.75 1 15.9941 1 15.0625V11.6875ZM3.25 12.25V14.5H5.5V12.25H3.25ZM11.6875 1H15.0625C15.9941 1 16.75 1.75586 16.75 2.6875V6.0625C16.75 6.99414 15.9941 7.75 15.0625 7.75H11.6875C10.7559 7.75 10 6.99414 10 6.0625V2.6875C10 1.75586 10.7559 1 11.6875 1ZM14.5 3.25H12.25V5.5H14.5V3.25ZM10 10.5625C10 10.2531 10.2531 10 10.5625 10H12.8125C13.1219 10 13.375 10.2531 13.375 10.5625C13.375 10.8719 13.6281 11.125 13.9375 11.125H15.0625C15.3719 11.125 15.625 10.8719 15.625 10.5625C15.625 10.2531 15.8781 10 16.1875 10C16.4969 10 16.75 10.2531 16.75 10.5625V13.9375C16.75 14.2469 16.4969 14.5 16.1875 14.5H13.9375C13.6281 14.5 13.375 14.2469 13.375 13.9375C13.375 13.6281 13.1219 13.375 12.8125 13.375C12.5031 13.375 12.25 13.6281 12.25 13.9375V16.1875C12.25 16.4969 11.9969 16.75 11.6875 16.75H10.5625C10.2531 16.75 10 16.4969 10 16.1875V10.5625ZM13.9375 16.75C13.7883 16.75 13.6452 16.6907 13.5398 16.5852C13.4343 16.4798 13.375 16.3367 13.375 16.1875C13.375 16.0383 13.4343 15.8952 13.5398 15.7898C13.6452 15.6843 13.7883 15.625 13.9375 15.625C14.0867 15.625 14.2298 15.6843 14.3352 15.7898C14.4407 15.8952 14.5 16.0383 14.5 16.1875C14.5 16.3367 14.4407 16.4798 14.3352 16.5852C14.2298 16.6907 14.0867 16.75 13.9375 16.75ZM16.1875 16.75C16.0383 16.75 15.8952 16.6907 15.7898 16.5852C15.6843 16.4798 15.625 16.3367 15.625 16.1875C15.625 16.0383 15.6843 15.8952 15.7898 15.7898C15.8952 15.6843 16.0383 15.625 16.1875 15.625C16.3367 15.625 16.4798 15.6843 16.5852 15.7898C16.6907 15.8952 16.75 16.0383 16.75 16.1875C16.75 16.3367 16.6907 16.4798 16.5852 16.5852C16.4798 16.6907 16.3367 16.75 16.1875 16.75Z" fill="black"/>
</svg>
