<svg width="18" height="18" viewBox="0 0 18 18" fill="none" xmlns="http://www.w3.org/2000/svg">
<path d="M6.0625 2.125H2.6875C2.37812 2.125 2.125 2.37812 2.125 2.6875V6.0625C2.125 6.37187 2.37812 6.625 2.6875 6.625H6.0625C6.37187 6.625 6.625 6.37187 6.625 6.0625V2.6875C6.625 2.37812 6.37187 2.125 6.0625 2.125ZM2.6875 1H6.0625C6.99414 1 7.75 1.75586 7.75 2.6875V6.0625C7.75 6.99414 6.99414 7.75 6.0625 7.75H2.6875C1.75586 7.75 1 6.99414 1 6.0625V2.6875C1 1.75586 1.75586 1 2.6875 1ZM6.0625 11.125H2.6875C2.37812 11.125 2.125 11.3781 2.125 11.6875V15.0625C2.125 15.3719 2.37812 15.625 2.6875 15.625H6.0625C6.37187 15.625 6.625 15.3719 6.625 15.0625V11.6875C6.625 11.3781 6.37187 11.125 6.0625 11.125ZM2.6875 10H6.0625C6.99414 10 7.75 10.7559 7.75 11.6875V15.0625C7.75 15.9941 6.99414 16.75 6.0625 16.75H2.6875C1.75586 16.75 1 15.9941 1 15.0625V11.6875C1 10.7559 1.75586 10 2.6875 10ZM11.6875 2.125C11.3781 2.125 11.125 2.37812 11.125 2.6875V6.0625C11.125 6.37187 11.3781 6.625 11.6875 6.625H15.0625C15.3719 6.625 15.625 6.37187 15.625 6.0625V2.6875C15.625 2.37812 15.3719 2.125 15.0625 2.125H11.6875ZM10 2.6875C10 1.75586 10.7559 1 11.6875 1H15.0625C15.9941 1 16.75 1.75586 16.75 2.6875V6.0625C16.75 6.99414 15.9941 7.75 15.0625 7.75H11.6875C10.7559 7.75 10 6.99414 10 6.0625V2.6875ZM10 10.5625C10 10.2531 10.2531 10 10.5625 10H12.8125C13.1219 10 13.375 10.2531 13.375 10.5625V12.9531H15.625V10.5625C15.625 10.2531 15.8781 10 16.1875 10C16.4969 10 16.75 10.2531 16.75 10.5625V13.5156C16.75 13.825 16.4969 14.0781 16.1875 14.0781H12.8125C12.5031 14.0781 12.25 13.825 12.25 13.5156V11.125H11.125V16.4688C11.125 16.7781 10.8719 17.0312 10.5625 17.0312C10.2531 17.0312 10 16.7781 10 16.4688V10.5625ZM4.09375 3.53125H4.65625C4.96563 3.53125 5.21875 3.78437 5.21875 4.09375V4.65625C5.21875 4.96563 4.96563 5.21875 4.65625 5.21875H4.09375C3.78437 5.21875 3.53125 4.96563 3.53125 4.65625V4.09375C3.53125 3.78437 3.78437 3.53125 4.09375 3.53125ZM3.53125 13.0938C3.53125 12.7844 3.78437 12.5312 4.09375 12.5312H4.65625C4.96563 12.5312 5.21875 12.7844 5.21875 13.0938V13.6562C5.21875 13.9656 4.96563 14.2188 4.65625 14.2188H4.09375C3.78437 14.2188 3.53125 13.9656 3.53125 13.6562V13.0938ZM13.0938 3.53125H13.6562C13.9656 3.53125 14.2188 3.78437 14.2188 4.09375V4.65625C14.2188 4.96563 13.9656 5.21875 13.6562 5.21875H13.0938C12.7844 5.21875 12.5312 4.96563 12.5312 4.65625V4.09375C12.5312 3.78437 12.7844 3.53125 13.0938 3.53125ZM12.25 15.625C12.25 15.3156 12.5031 15.0625 12.8125 15.0625H13.375C13.6844 15.0625 13.9375 15.3156 13.9375 15.625V16.1875C13.9375 16.4969 13.6844 16.75 13.375 16.75H12.8125C12.5031 16.75 12.25 16.4969 12.25 16.1875V15.625ZM15.625 15.0625H16.1875C16.4969 15.0625 16.75 15.3156 16.75 15.625V16.1875C16.75 16.4969 16.4969 16.75 16.1875 16.75H15.625C15.3156 16.75 15.0625 16.4969 15.0625 16.1875V15.625C15.0625 15.3156 15.3156 15.0625 15.625 15.0625Z" fill="black"/>
</svg>
