<svg width="18" height="18" viewBox="0 0 18 18" fill="none" xmlns="http://www.w3.org/2000/svg">
<path d="M2.74219 0.077242C3.04102 -0.0598674 3.39258 -0.0106487 3.64219 0.203804L5.0625 1.42021L6.48281 0.203804C6.79922 -0.0668987 7.2668 -0.0668987 7.57969 0.203804L9 1.42021L10.4203 0.203804C10.7367 -0.0668987 11.2043 -0.0668987 11.5172 0.203804L12.9375 1.42021L14.3578 0.203804C14.6074 -0.0106487 14.959 -0.0598674 15.2578 0.077242C15.5566 0.214351 15.75 0.513179 15.75 0.843648V17.1561C15.75 17.4866 15.5566 17.7854 15.2578 17.9226C14.959 18.0597 14.6074 18.0104 14.3578 17.796L12.9375 16.5796L11.5172 17.796C11.2008 18.0667 10.7332 18.0667 10.4203 17.796L9 16.5796L7.57969 17.796C7.26328 18.0667 6.7957 18.0667 6.48281 17.796L5.0625 16.5796L3.64219 17.796C3.39258 18.0104 3.04102 18.0597 2.74219 17.9226C2.44336 17.7854 2.25 17.4866 2.25 17.1561V0.843648C2.25 0.513179 2.44336 0.214351 2.74219 0.077242ZM5.625 5.0624C5.31562 5.0624 5.0625 5.31552 5.0625 5.6249C5.0625 5.93427 5.31562 6.1874 5.625 6.1874H12.375C12.6844 6.1874 12.9375 5.93427 12.9375 5.6249C12.9375 5.31552 12.6844 5.0624 12.375 5.0624H5.625ZM5.0625 12.3749C5.0625 12.6843 5.31562 12.9374 5.625 12.9374H12.375C12.6844 12.9374 12.9375 12.6843 12.9375 12.3749C12.9375 12.0655 12.6844 11.8124 12.375 11.8124H5.625C5.31562 11.8124 5.0625 12.0655 5.0625 12.3749ZM5.625 8.4374C5.31562 8.4374 5.0625 8.69052 5.0625 8.9999C5.0625 9.30927 5.31562 9.5624 5.625 9.5624H12.375C12.6844 9.5624 12.9375 9.30927 12.9375 8.9999C12.9375 8.69052 12.6844 8.4374 12.375 8.4374H5.625Z" fill="black"/>
</svg>
