<svg width="18" height="18" viewBox="0 0 18 18" fill="none" xmlns="http://www.w3.org/2000/svg">
<g clip-path="url(#clip0_4256_17570)">
<path d="M3.18164 0.140136C3.01641 -0.00752017 2.78086 -0.0426764 2.58047 0.0487298C2.38008 0.140136 2.25 0.340527 2.25 0.562011V17.437C2.25 17.6585 2.38008 17.8589 2.58047 17.9503C2.78086 18.0417 3.01641 18.0065 3.18164 17.8624L5.03437 16.2417L6.63047 17.8378C6.84844 18.0558 7.20703 18.0558 7.425 17.8378L9 16.2628L10.5715 17.8343C10.7895 18.0522 11.148 18.0522 11.366 17.8343L12.9621 16.2382L14.8184 17.8589C14.9836 18.003 15.2191 18.0382 15.4195 17.9468C15.6199 17.8554 15.75 17.655 15.75 17.4335V0.562011C15.75 0.340527 15.6199 0.140136 15.4195 0.0487298C15.2191 -0.0426764 14.9836 -0.00752017 14.8184 0.140136L12.9621 1.76084L11.366 0.164745C11.148 -0.0532233 10.7895 -0.0532233 10.5715 0.164745L9 1.73623L7.42852 0.164745C7.21055 -0.0532233 6.85195 -0.0532233 6.63398 0.164745L5.03789 1.76084L3.18164 0.140136ZM3.375 16.196V1.80303L4.69336 2.95264C4.91484 3.146 5.25234 3.13545 5.45977 2.92803L7.03125 1.35654L8.60273 2.92803C8.8207 3.146 9.1793 3.146 9.39727 2.92803L10.9688 1.35654L12.5402 2.92803C12.7512 3.13896 13.0852 3.14951 13.3066 2.95264L14.625 1.80303V16.196L13.3066 15.0464C13.0852 14.853 12.7477 14.8636 12.5402 15.071L10.9688 16.6425L9.39727 15.071C9.1793 14.853 8.8207 14.853 8.60273 15.071L7.03125 16.6425L5.45977 15.071C5.24883 14.8601 4.91484 14.8495 4.69336 15.0464L3.375 16.196ZM5.625 5.06201C5.31562 5.06201 5.0625 5.31514 5.0625 5.62451C5.0625 5.93389 5.31562 6.18701 5.625 6.18701H12.375C12.6844 6.18701 12.9375 5.93389 12.9375 5.62451C12.9375 5.31514 12.6844 5.06201 12.375 5.06201H5.625ZM5.0625 12.3745C5.0625 12.6839 5.31562 12.937 5.625 12.937H12.375C12.6844 12.937 12.9375 12.6839 12.9375 12.3745C12.9375 12.0651 12.6844 11.812 12.375 11.812H5.625C5.31562 11.812 5.0625 12.0651 5.0625 12.3745ZM5.625 8.43701C5.31562 8.43701 5.0625 8.69014 5.0625 8.99951C5.0625 9.30889 5.31562 9.56201 5.625 9.56201H12.375C12.6844 9.56201 12.9375 9.30889 12.9375 8.99951C12.9375 8.69014 12.6844 8.43701 12.375 8.43701H5.625Z" fill="black"/>
</g>
<defs>
<clipPath id="clip0_4256_17570">
<rect width="18" height="18" fill="white"/>
</clipPath>
</defs>
</svg>
