<svg width="18" height="18" viewBox="0 0 18 18" fill="none" xmlns="http://www.w3.org/2000/svg">
<path d="M10.8001 2.9H14.4001C14.8979 2.9 15.3001 3.30219 15.3001 3.8C15.3001 4.29781 14.8979 4.7 14.4001 4.7H11.2051C11.0588 5.42562 10.561 6.02469 9.9001 6.31156V14.6H14.4001C14.8979 14.6 15.3001 15.0022 15.3001 15.5C15.3001 15.9978 14.8979 16.4 14.4001 16.4H9.0001H3.6001C3.10229 16.4 2.7001 15.9978 2.7001 15.5C2.7001 15.0022 3.10229 14.6 3.6001 14.6H8.1001V6.31156C7.43916 6.02187 6.94135 5.42281 6.7951 4.7H3.6001C3.10229 4.7 2.7001 4.29781 2.7001 3.8C2.7001 3.30219 3.10229 2.9 3.6001 2.9H7.2001C7.61072 2.35438 8.26322 2 9.0001 2C9.73697 2 10.3895 2.35438 10.8001 2.9ZM12.3638 11H16.4364L14.4001 7.50688L12.3638 11ZM14.4001 13.7C12.631 13.7 11.1601 12.7437 10.8563 11.4809C10.7832 11.1716 10.8845 10.8538 11.0448 10.5781L13.7223 5.98813C13.8629 5.74625 14.1217 5.6 14.4001 5.6C14.6785 5.6 14.9373 5.74906 15.0779 5.98813L17.7554 10.5781C17.9157 10.8538 18.017 11.1716 17.9438 11.4809C17.6401 12.7437 16.1692 13.7 14.4001 13.7ZM3.56635 7.50688L1.5301 11H5.60541L3.56635 7.50688ZM0.0254116 11.4809C-0.0477134 11.1716 0.0535366 10.8538 0.213849 10.5781L2.89135 5.98813C3.03197 5.74625 3.29072 5.6 3.56916 5.6C3.8476 5.6 4.10635 5.74906 4.24697 5.98813L6.92447 10.5781C7.08479 10.8538 7.18604 11.1716 7.11291 11.4809C6.80635 12.7437 5.33541 13.7 3.56635 13.7C1.79729 13.7 0.329162 12.7437 0.0254116 11.4809Z" fill="black"/>
</svg>
