<svg width="18" height="18" viewBox="0 0 18 18" fill="none" xmlns="http://www.w3.org/2000/svg">
<path d="M10.8 3.8C10.8 4.63812 10.2262 5.34406 9.45 5.54375V15.5H14.85C15.0975 15.5 15.3 15.7025 15.3 15.95C15.3 16.1975 15.0975 16.4 14.85 16.4H9H3.15C2.9025 16.4 2.7 16.1975 2.7 15.95C2.7 15.7025 2.9025 15.5 3.15 15.5H8.55V5.54375C7.77375 5.34406 7.2 4.63812 7.2 3.8H3.15C2.9025 3.8 2.7 3.5975 2.7 3.35C2.7 3.1025 2.9025 2.9 3.15 2.9H7.44187C7.75125 2.36281 8.33344 2 9 2C9.66656 2 10.2487 2.36281 10.5581 2.9H14.4C14.6475 2.9 14.85 3.1025 14.85 3.35C14.85 3.5975 14.6475 3.8 14.4 3.8H10.8ZM12.3947 12.1897C12.8756 12.5497 13.5816 12.8 14.4 12.8C15.2184 12.8 15.9244 12.5497 16.4053 12.1897C16.8862 11.8297 17.1 11.3994 17.1 11H11.7V10.955V10.9578V11C11.7 11.3994 11.9137 11.8297 12.3947 12.1897ZM14.4 6.14281L11.9897 10.1H16.8103L14.4 6.14281ZM10.8 11V10.955C10.8 10.5416 10.9125 10.1366 11.1291 9.785L13.7166 5.5325C13.8628 5.29344 14.1216 5.14719 14.4 5.14719C14.6784 5.14719 14.94 5.29344 15.0834 5.5325L17.6709 9.785C17.8847 10.1366 18 10.5416 18 10.955V11C18 12.4906 16.3884 13.7 14.4 13.7C12.4116 13.7 10.8 12.4906 10.8 11ZM0.9 11C0.9 11.3994 1.11375 11.8297 1.59469 12.1897C2.07562 12.5497 2.78156 12.8 3.6 12.8C4.41844 12.8 5.12437 12.5497 5.60531 12.1897C6.08625 11.8297 6.3 11.3994 6.3 11H0.9V10.955V10.9578V11ZM1.18969 10.1H6.01031L3.6 6.14281L1.18969 10.1ZM3.6 13.7C1.61156 13.7 0 12.4906 0 11V10.955C0 10.5416 0.1125 10.1366 0.329062 9.785L2.91656 5.5325C3.06281 5.29344 3.32156 5.14719 3.6 5.14719C3.87844 5.14719 4.14 5.29344 4.28344 5.5325L6.87094 9.785C7.08469 10.1366 7.2 10.5416 7.2 10.955V11C7.2 12.4906 5.58844 13.7 3.6 13.7ZM9 4.7C9.23869 4.7 9.46761 4.60518 9.6364 4.4364C9.80518 4.26761 9.9 4.03869 9.9 3.8C9.9 3.56131 9.80518 3.33239 9.6364 3.1636C9.46761 2.99482 9.23869 2.9 9 2.9C8.7613 2.9 8.53239 2.99482 8.3636 3.1636C8.19482 3.33239 8.1 3.56131 8.1 3.8C8.1 4.03869 8.19482 4.26761 8.3636 4.4364C8.53239 4.60518 8.7613 4.7 9 4.7Z" fill="black"/>
</svg>
