<svg width="18" height="18" viewBox="0 0 18 18" fill="none" xmlns="http://www.w3.org/2000/svg">
<path d="M15.104 5.50948L6.49638 1.22885C0.71441 -1.65157 -1.65871 0.708774 1.2373 6.45962L2.11214 8.19988C2.36353 8.70996 2.36353 9.30005 2.11214 9.81012L1.2373 11.5404C-1.65871 17.2912 0.704354 19.6516 6.49638 16.7712L15.104 12.4905C18.9653 10.5702 18.9653 7.42977 15.104 5.50948ZM11.856 9.75011H6.42599C6.01371 9.75011 5.67182 9.41006 5.67182 9C5.67182 8.58994 6.01371 8.24989 6.42599 8.24989H11.856C12.2683 8.24989 12.6102 8.58994 12.6102 9C12.6102 9.41006 12.2683 9.75011 11.856 9.75011Z" fill="black"/>
</svg>
