<svg width="18" height="18" viewBox="0 0 18 18" fill="none" xmlns="http://www.w3.org/2000/svg">
<path d="M10.4062 5.62534C10.8738 5.62534 11.25 5.24917 11.25 4.78159V4.50034V3.93784V2.25034L16.875 7.31284L11.25 12.3753V10.6878V10.1253V9.84409C11.25 9.37651 10.8738 9.00034 10.4062 9.00034H10.125H6.75C4.26445 9.00034 2.25 11.0148 2.25 13.5003C2.25 13.7921 2.27461 14.0664 2.32031 14.316C1.68398 13.4898 1.125 12.3085 1.125 10.6878C1.125 7.89292 3.39258 5.62534 6.1875 5.62534H10.125H10.4062ZM10.125 10.6878V11.2503V12.3753C10.125 12.8183 10.3852 13.2226 10.793 13.4019C11.2008 13.5812 11.6719 13.5074 12.0023 13.2121L17.6273 8.14956C17.8629 7.93511 18 7.63276 18 7.31284C18 6.99292 17.8664 6.69058 17.6273 6.47612L12.0023 1.41362C11.6719 1.1148 11.1973 1.04097 10.793 1.22378C10.3887 1.40659 10.125 1.80737 10.125 2.25034V3.37534V3.93784V4.50034H9H6.1875C2.77031 4.50034 0 7.27065 0 10.6878C0 14.671 2.86523 16.45 3.52266 16.8085C3.61055 16.8578 3.70898 16.8753 3.80742 16.8753C4.19063 16.8753 4.5 16.5625 4.5 16.1828C4.5 15.9191 4.34883 15.6765 4.15547 15.4972C3.825 15.1843 3.375 14.5691 3.375 13.5003C3.375 11.6371 4.88672 10.1253 6.75 10.1253H9H10.125V10.6878Z" fill="black"/>
</svg>
