<svg width="18" height="18" viewBox="0 0 18 18" fill="none" xmlns="http://www.w3.org/2000/svg">
<path d="M9.51063 0C9.58147 0 9.6523 0.00707175 9.71959 0.0212154C9.72668 0.0212154 9.7373 0.0247514 9.74438 0.0282873C9.77272 0.0353591 9.80105 0.0424309 9.82938 0.0495027C9.83647 0.0530386 9.84709 0.0565744 9.85417 0.0565744C9.87897 0.0636462 9.90376 0.074254 9.92855 0.0848617L9.93917 0.0883975L16.6435 2.92419L16.7852 2.99137C17.444 3.32728 17.9327 3.98143 17.9929 4.77347L18 4.94673C17.9823 8.45434 16.5373 14.872 10.4315 17.7891C9.91438 18.0366 9.32292 18.0649 8.78813 17.8811L8.56147 17.7891C2.46272 14.8755 1.01772 8.45788 1.00002 4.95026C0.996474 4.02386 1.58085 3.25657 2.35647 2.92773L9.06084 0.0883975C9.06438 0.0883975 9.06792 0.0848617 9.07147 0.0848617C9.09626 0.074254 9.12105 0.0671821 9.14584 0.0565744C9.15293 0.0530385 9.16355 0.0495027 9.17063 0.0495027C9.19897 0.038895 9.23084 0.0353591 9.25918 0.0282873C9.26626 0.0282873 9.27334 0.0247513 9.28397 0.0212154C9.35126 0.00707175 9.42209 0 9.49292 0H9.51417H9.51063ZM8.36668 9.61765C6.80126 9.61765 5.53335 10.8835 5.53335 12.4464C5.53335 12.7575 5.78834 13.0121 6.10001 13.0121H12.9C13.2117 13.0121 13.4667 12.7575 13.4667 12.4464C13.4667 10.8835 12.1988 9.61765 10.6333 9.61765H8.36668ZM9.50001 4.24308C8.40563 4.24308 7.51668 5.13059 7.51668 6.22319C7.51668 7.31578 8.40563 8.20329 9.50001 8.20329C10.5944 8.20329 11.4833 7.31578 11.4833 6.22319C11.4833 5.13059 10.5944 4.24308 9.50001 4.24308Z" fill="black"/>
</svg>
