<svg width="18" height="18" viewBox="0 0 18 18" fill="none" xmlns="http://www.w3.org/2000/svg">
<path d="M7.61655 0.181336C8.1831 -0.0604452 8.82046 -0.0604452 9.38701 0.181336L15.6438 2.84448L15.7855 2.91204C16.4441 3.24982 16.9327 3.90761 16.9929 4.70406L17 4.87473L16.9788 5.56807C16.784 9.19479 15.1552 15.0402 9.43304 17.7887L9.23475 17.8705C8.83463 18.0162 8.40263 18.0376 7.99189 17.9416L7.79005 17.8811L7.56344 17.7887C1.84484 15.0402 0.216015 9.19834 0.0212638 5.57163L1.83282e-05 4.87829C-0.0035226 4.00361 0.506371 3.27115 1.21101 2.91204L1.35619 2.84448L7.61301 0.181336H7.61655ZM8.9444 1.22668C8.69653 1.12001 8.42034 1.10935 8.16893 1.18757L8.06271 1.22668L1.80235 3.88983C1.40222 4.0605 1.13311 4.4445 1.13311 4.87117L1.15436 5.5254C1.33849 8.93523 2.86817 14.2615 8.03438 16.754L8.17601 16.8109C8.42742 16.8927 8.70361 16.8784 8.9444 16.7647L9.45075 16.5051C14.5568 13.7424 15.8492 8.11033 15.8669 4.87117L15.8634 4.78228C15.835 4.41961 15.6084 4.09605 15.272 3.92538L15.18 3.88272L8.9444 1.22668ZM9.63134 9.57168C11.1964 9.57168 12.4641 10.8446 12.4641 12.4162C12.4641 12.7291 12.2091 12.9851 11.8975 12.9851C11.5859 12.9851 11.331 12.7291 11.331 12.4162C11.331 11.4739 10.5697 10.7095 9.63134 10.7095H7.36514C6.4268 10.7095 5.6655 11.4739 5.6655 12.4162C5.6655 12.7291 5.41055 12.9851 5.09895 12.9851C4.78735 12.9851 4.5324 12.7291 4.5324 12.4162C4.5324 10.8446 5.80005 9.57168 7.36514 9.57168H9.63134ZM8.49824 8.43389C7.24829 8.43389 6.23205 7.41343 6.23205 6.1583C6.23205 4.90317 7.24829 3.88272 8.49824 3.88272C9.74819 3.88272 10.7644 4.90317 10.7644 6.1583C10.7644 7.41343 9.74819 8.43389 8.49824 8.43389ZM8.49824 5.02051C7.8715 5.02051 7.36514 5.52896 7.36514 6.1583C7.36514 6.78764 7.8715 7.29609 8.49824 7.29609C9.12498 7.29609 9.63134 6.78764 9.63134 6.1583C9.63134 5.52896 9.12498 5.02051 8.49824 5.02051Z" fill="black"/>
</svg>
