<svg width="18" height="18" viewBox="0 0 18 18" fill="none" xmlns="http://www.w3.org/2000/svg">
<g clip-path="url(#clip0_5810_9114)">
<path d="M6.00002 2C6.00002 1.44687 6.4469 1 7.00002 1H11C11.5531 1 12 1.44687 12 2V3H13.5C14.3281 3 15 3.67188 15 4.5V8.5L16.3875 8.9625C17.1094 9.20312 17.3094 10.1344 16.7469 10.6469L13.5906 13.5406C13.0844 13.8344 12.5063 14.0125 12 14.0125C11.3875 14.0125 10.725 13.7719 10.15 13.3781C9.4594 12.8938 8.53752 12.8938 7.8469 13.3781C7.31252 13.7469 6.6594 14.0125 5.9969 14.0125C5.49065 14.0125 4.91252 13.8344 4.40627 13.5406L1.25002 10.6469C0.687523 10.1313 0.887523 9.20312 1.6094 8.9625L3.00002 8.5V4.5C3.00002 3.67188 3.6719 3 4.50002 3H6.00002V2ZM5.00002 7.83437L8.36877 6.7125C8.77815 6.575 9.2219 6.575 9.6344 6.7125L13 7.83437V5H5.00002V7.83437ZM9.57815 14.1844C10.2813 14.6687 11.1406 15 12 15C12.8406 15 13.7313 14.6625 14.4188 14.1844C14.7906 13.9187 15.2969 13.9406 15.6438 14.2375C16.0938 14.6094 16.6594 14.8937 17.225 15.025C17.7625 15.15 18.0969 15.6875 17.9719 16.225C17.8469 16.7625 17.3094 17.0969 16.7719 16.9719C16.0063 16.7937 15.3688 16.4563 14.9531 16.1906C14.0469 16.6781 13.0313 17 12 17C11.0031 17 10.1063 16.6906 9.48752 16.4094C9.30627 16.325 9.14065 16.2437 9.00002 16.1687C8.8594 16.2437 8.6969 16.3281 8.51252 16.4094C7.89377 16.6906 6.9969 17 6.00002 17C4.96877 17 3.95315 16.6781 3.0469 16.1938C2.62815 16.4563 1.99377 16.7969 1.22815 16.975C0.690648 17.1 0.153148 16.7656 0.0281485 16.2281C-0.0968515 15.6906 0.237523 15.1531 0.775023 15.0281C1.34065 14.8969 1.90627 14.6125 2.35627 14.2406C2.70315 13.9469 3.2094 13.925 3.58127 14.1875C4.2719 14.6625 5.1594 15 6.00002 15C6.8594 15 7.71877 14.6687 8.4219 14.1844C8.76877 13.9375 9.23127 13.9375 9.57815 14.1844Z" fill="black"/>
</g>
<defs>
<clipPath id="clip0_5810_9114">
<rect width="18" height="16" fill="white" transform="translate(0 1)"/>
</clipPath>
</defs>
</svg>
