<svg width="18" height="18" viewBox="0 0 18 18" fill="none" xmlns="http://www.w3.org/2000/svg">
<g clip-path="url(#clip0_5810_9116)">
<path d="M7.5 1C6.67188 1 6 1.67188 6 2.5V3H4.5C3.67188 3 3 3.67188 3 4.5V8.41563L1.95938 8.75313C0.871875 9.10313 0.5625 10.4937 1.39375 11.275L4.15625 13.8656C4.35625 14.0531 4.675 14.0437 4.8625 13.8438C5.05 13.6438 5.04062 13.325 4.84062 13.1375L2.07812 10.5437C1.8 10.2844 1.90313 9.82187 2.26562 9.70312L8.5 7.6875V13C8.5 13.275 8.725 13.5 9 13.5C9.275 13.5 9.5 13.275 9.5 13V7.6875L15.7344 9.70312C16.0969 9.82187 16.2 10.2844 15.9219 10.5437L13.1594 13.1344C12.9594 13.3219 12.9469 13.6406 13.1375 13.8406C13.3281 14.0406 13.6438 14.0531 13.8438 13.8625L16.6063 11.2719C17.4406 10.4906 17.1281 9.10312 16.0406 8.75L15 8.41563V4.5C15 3.67188 14.3281 3 13.5 3H12V2.5C12 1.67188 11.3281 1 10.5 1H7.5ZM11 3H7V2.5C7 2.225 7.225 2 7.5 2H10.5C10.775 2 11 2.225 11 2.5V3ZM6 4H6.5H11.5H12H13.5C13.775 4 14 4.225 14 4.5V8.09062L9.4625 6.625C9.1625 6.52812 8.84063 6.52812 8.5375 6.625L4 8.09062V4.5C4 4.225 4.225 4 4.5 4H6ZM4.18125 15.3375C3.87813 15.1312 3.61875 14.9 3.37188 14.6531C3.16563 14.45 2.83437 14.45 2.62812 14.6531C2.38125 14.9 2.125 15.1281 1.81875 15.3375C1.41875 15.6094 0.940625 15.8562 0.44375 15.9563C0.2 16.0031 0 16.2 0 16.4438C0 16.75 0.25 17.0031 0.553125 16.95C1.275 16.825 1.91562 16.4813 2.38125 16.1625C2.62812 15.9938 2.8375 15.825 3 15.6844C3.15937 15.825 3.37188 15.9938 3.61875 16.1625C4.2 16.5594 5.05312 17 6 17C6.94688 17 7.79688 16.5594 8.38125 16.1625C8.62813 15.9938 8.8375 15.825 9 15.6844C9.15938 15.825 9.37187 15.9938 9.61875 16.1625C10.2 16.5594 11.0531 17 12 17C12.9469 17 13.7969 16.5594 14.3813 16.1625C14.6281 15.9938 14.8375 15.825 15 15.6844C15.1594 15.825 15.3719 15.9938 15.6187 16.1625C16.0875 16.4813 16.725 16.825 17.4469 16.95C17.75 17.0031 18 16.75 18 16.4438C18 16.1969 17.8 16.0031 17.5594 15.9531C17.0594 15.8562 16.5812 15.6063 16.1812 15.3344C15.875 15.125 15.6187 14.8969 15.3687 14.65C15.1625 14.4469 14.8313 14.4469 14.6281 14.65C14.3813 14.8969 14.125 15.125 13.8188 15.3344C13.3 15.6875 12.6531 16 12 16C11.3469 16 10.6969 15.6906 10.1812 15.3375C9.875 15.1281 9.61875 14.9 9.36875 14.6531C9.1625 14.45 8.83125 14.45 8.62813 14.6531C8.38125 14.9 8.125 15.1281 7.81875 15.3375C7.3 15.6875 6.65312 16 6 16C5.34688 16 4.69688 15.6906 4.18125 15.3375Z" fill="black"/>
</g>
<defs>
<clipPath id="clip0_5810_9116">
<rect width="18" height="16" fill="white" transform="translate(0 1)"/>
</clipPath>
</defs>
</svg>
