<svg width="18" height="18" viewBox="0 0 18 18" fill="none" xmlns="http://www.w3.org/2000/svg">
<path d="M3.69141 4.22227L2.8125 11.25H4.84805L5.62852 4.99219C5.66719 4.68281 5.94844 4.46484 6.25781 4.50352C6.56719 4.54219 6.78516 4.82344 6.74648 5.13281L5.98008 11.25H15.1875L14.3086 4.22227C14.168 3.09375 13.2117 2.25 12.0762 2.25H5.92383C4.78828 2.25 3.83203 3.09375 3.69141 4.22227ZM2.25 12.375C1.62773 12.375 1.125 12.8777 1.125 13.5V14.625C1.125 15.2473 1.62773 15.75 2.25 15.75H15.75C16.3723 15.75 16.875 15.2473 16.875 14.625V13.5C16.875 12.8777 16.3723 12.375 15.75 12.375H2.25Z" fill="black"/>
</svg>
