<svg width="18" height="18" viewBox="0 0 18 18" fill="none" xmlns="http://www.w3.org/2000/svg">
<g clip-path="url(#clip0_6906_8338)">
<path d="M1.30494 2.74923L3.10494 3.64923C3.32713 3.76173 3.41713 4.03173 3.30744 4.25391C3.19775 4.4761 2.92494 4.5661 2.70275 4.45641L0.902754 3.55641C0.680566 3.44391 0.590566 3.17391 0.700254 2.95173C0.809941 2.72954 1.08275 2.63954 1.30494 2.74923ZM16.6049 3.5536L14.8049 4.4536C14.5828 4.5661 14.3128 4.47329 14.2003 4.2511C14.0878 4.02891 14.1806 3.75891 14.4028 3.64641L16.2028 2.74641C16.4249 2.63391 16.6949 2.72673 16.8074 2.94891C16.9199 3.1711 16.8271 3.4411 16.6049 3.5536ZM0.202441 7.20141H2.00244C2.24994 7.20141 2.45244 7.40391 2.45244 7.65141C2.45244 7.89891 2.24994 8.10141 2.00244 8.10141H0.202441C-0.0450586 8.10141 -0.247559 7.89891 -0.247559 7.65141C-0.247559 7.40391 -0.0450586 7.20141 0.202441 7.20141ZM15.5024 7.20141H17.3024C17.5499 7.20141 17.7524 7.40391 17.7524 7.65141C17.7524 7.89891 17.5499 8.10141 17.3024 8.10141H15.5024C15.2549 8.10141 15.0524 7.89891 15.0524 7.65141C15.0524 7.40391 15.2549 7.20141 15.5024 7.20141ZM13.5899 10.8014H12.6843L12.1078 6.18891C12.0515 5.73891 11.669 5.40141 11.2134 5.40141H6.2915C5.83869 5.40141 5.45338 5.73891 5.39713 6.18891L4.82057 10.8014H3.91494L4.50557 6.07923C4.61807 5.17923 5.38307 4.50141 6.2915 4.50141H11.2134C12.1218 4.50141 12.8868 5.17641 12.9993 6.07923L13.5899 10.8014ZM6.55588 10.8014L6.95525 7.59516C6.98619 7.34766 7.21119 7.17329 7.45869 7.20423C7.70619 7.23516 7.88057 7.46016 7.84963 7.70766L7.4615 10.8014H6.55588ZM13.7024 12.6014H3.80244C3.55494 12.6014 3.35244 12.8039 3.35244 13.0514V13.9514C3.35244 14.1989 3.55494 14.4014 3.80244 14.4014H13.7024C13.9499 14.4014 14.1524 14.1989 14.1524 13.9514V13.0514C14.1524 12.8039 13.9499 12.6014 13.7024 12.6014ZM3.80244 11.7014H13.7024C14.4478 11.7014 15.0524 12.3061 15.0524 13.0514V13.9514C15.0524 14.6967 14.4478 15.3014 13.7024 15.3014H3.80244C3.05713 15.3014 2.45244 14.6967 2.45244 13.9514V13.0514C2.45244 12.3061 3.05713 11.7014 3.80244 11.7014Z" fill="black"/>
</g>
<defs>
<clipPath id="clip0_6906_8338">
<rect width="18" height="18" fill="white"/>
</clipPath>
</defs>
</svg>
