<svg width="18" height="18" viewBox="0 0 18 18" fill="none" xmlns="http://www.w3.org/2000/svg">
<g clip-path="url(#clip0_6906_8337)">
<path d="M2.07772 2.81339L3.42772 3.71339C3.7371 3.92151 3.82147 4.34057 3.61616 4.64995C3.41085 4.95932 2.98897 5.0437 2.6796 4.83839L1.3296 3.93839C1.02022 3.73026 0.93585 3.3112 1.14116 3.00182C1.34647 2.69245 1.76835 2.60807 2.07772 2.81339ZM16.9277 3.93839L15.5777 4.83839C15.2683 5.04651 14.8493 4.96214 14.6412 4.64995C14.433 4.33776 14.5174 3.92151 14.8296 3.71339L16.1796 2.81339C16.489 2.60526 16.908 2.68964 17.1162 3.00182C17.3243 3.31401 17.2399 3.73026 16.9277 3.93839ZM0.803662 7.20088H2.60366C2.97772 7.20088 3.27866 7.50182 3.27866 7.87589C3.27866 8.24995 2.97772 8.55089 2.60366 8.55089H0.803662C0.4296 8.55089 0.128662 8.24995 0.128662 7.87589C0.128662 7.50182 0.4296 7.20088 0.803662 7.20088ZM15.6537 7.20088H17.4537C17.8277 7.20088 18.1287 7.50182 18.1287 7.87589C18.1287 8.24995 17.8277 8.55089 17.4537 8.55089H15.6537C15.2796 8.55089 14.9787 8.24995 14.9787 7.87589C14.9787 7.50182 15.2796 7.20088 15.6537 7.20088ZM4.17866 11.7009L4.88179 6.0787C4.99429 5.1787 5.75929 4.50089 6.66772 4.50089H11.5896C12.498 4.50089 13.263 5.17589 13.3755 6.0787L14.0787 11.7009H6.71272L7.32585 6.80714C7.35679 6.55964 7.18241 6.33464 6.93491 6.3037C6.68741 6.27276 6.46241 6.44713 6.43147 6.69464L5.8071 11.7009H4.17866ZM2.82866 13.5009C2.82866 13.0031 3.23085 12.6009 3.72866 12.6009H14.5287C15.0265 12.6009 15.4287 13.0031 15.4287 13.5009V14.4009C15.4287 14.8987 15.0265 15.3009 14.5287 15.3009H3.72866C3.23085 15.3009 2.82866 14.8987 2.82866 14.4009V13.5009Z" fill="black"/>
</g>
<defs>
<clipPath id="clip0_6906_8337">
<rect width="18" height="18" fill="white"/>
</clipPath>
</defs>
</svg>
