<svg width="18" height="18" viewBox="0 0 18 18" fill="none" xmlns="http://www.w3.org/2000/svg">
<g clip-path="url(#clip0_1634_4300)">
<path d="M0 14.625C0 14.9344 0.253125 15.1875 0.5625 15.1875H2.86875C3.12891 16.4707 4.26445 17.4375 5.625 17.4375C6.98555 17.4375 8.12109 16.4707 8.38125 15.1875H17.4375C17.7469 15.1875 18 14.9344 18 14.625C18 14.3156 17.7469 14.0625 17.4375 14.0625H8.38125C8.12109 12.7793 6.98555 11.8125 5.625 11.8125C4.26445 11.8125 3.12891 12.7793 2.86875 14.0625H0.5625C0.253125 14.0625 0 14.3156 0 14.625ZM3.9375 14.625C3.9375 14.1774 4.11529 13.7482 4.43176 13.4318C4.74823 13.1153 5.17745 12.9375 5.625 12.9375C6.07255 12.9375 6.50178 13.1153 6.81824 13.4318C7.13471 13.7482 7.3125 14.1774 7.3125 14.625C7.3125 15.0726 7.13471 15.5018 6.81824 15.8182C6.50178 16.1347 6.07255 16.3125 5.625 16.3125C5.17745 16.3125 4.74823 16.1347 4.43176 15.8182C4.11529 15.5018 3.9375 15.0726 3.9375 14.625ZM10.6875 9C10.6875 8.77839 10.7311 8.55896 10.816 8.35422C10.9008 8.14948 11.0251 7.96346 11.1818 7.80676C11.3385 7.65006 11.5245 7.52576 11.7292 7.44095C11.934 7.35615 12.1534 7.3125 12.375 7.3125C12.5966 7.3125 12.816 7.35615 13.0208 7.44095C13.2255 7.52576 13.4115 7.65006 13.5682 7.80676C13.7249 7.96346 13.8492 8.14948 13.934 8.35422C14.0189 8.55896 14.0625 8.77839 14.0625 9C14.0625 9.22161 14.0189 9.44104 13.934 9.64578C13.8492 9.85052 13.7249 10.0365 13.5682 10.1932C13.4115 10.3499 13.2255 10.4742 13.0208 10.559C12.816 10.6439 12.5966 10.6875 12.375 10.6875C12.1534 10.6875 11.934 10.6439 11.7292 10.559C11.5245 10.4742 11.3385 10.3499 11.1818 10.1932C11.0251 10.0365 10.9008 9.85052 10.816 9.64578C10.7311 9.44104 10.6875 9.22161 10.6875 9ZM12.375 6.1875C11.0145 6.1875 9.87891 7.1543 9.61875 8.4375H0.5625C0.253125 8.4375 0 8.69063 0 9C0 9.30937 0.253125 9.5625 0.5625 9.5625H9.61875C9.87891 10.8457 11.0145 11.8125 12.375 11.8125C13.7355 11.8125 14.8711 10.8457 15.1312 9.5625H17.4375C17.7469 9.5625 18 9.30937 18 9C18 8.69063 17.7469 8.4375 17.4375 8.4375H15.1312C14.8711 7.1543 13.7355 6.1875 12.375 6.1875ZM6.75 5.0625C6.30245 5.0625 5.87322 4.88471 5.55676 4.56824C5.24029 4.25178 5.0625 3.82255 5.0625 3.375C5.0625 2.92745 5.24029 2.49822 5.55676 2.18176C5.87322 1.86529 6.30245 1.6875 6.75 1.6875C7.19755 1.6875 7.62678 1.86529 7.94324 2.18176C8.25971 2.49822 8.4375 2.92745 8.4375 3.375C8.4375 3.82255 8.25971 4.25178 7.94324 4.56824C7.62678 4.88471 7.19755 5.0625 6.75 5.0625ZM9.50625 2.8125C9.24609 1.5293 8.11055 0.5625 6.75 0.5625C5.38945 0.5625 4.25391 1.5293 3.99375 2.8125H0.5625C0.253125 2.8125 0 3.06562 0 3.375C0 3.68438 0.253125 3.9375 0.5625 3.9375H3.99375C4.25391 5.2207 5.38945 6.1875 6.75 6.1875C8.11055 6.1875 9.24609 5.2207 9.50625 3.9375H17.4375C17.7469 3.9375 18 3.68438 18 3.375C18 3.06562 17.7469 2.8125 17.4375 2.8125H9.50625Z" fill="black"/>
</g>
<defs>
<clipPath id="clip0_1634_4300">
<rect width="18" height="18" fill="white"/>
</clipPath>
</defs>
</svg>
