<svg width="18" height="18" viewBox="0 0 18 18" fill="none" xmlns="http://www.w3.org/2000/svg">
<g clip-path="url(#clip0_1634_4299)">
<path d="M0 14.625C0 15.2473 0.502734 15.75 1.125 15.75H3.04805C3.48047 16.7449 4.47188 17.4375 5.625 17.4375C6.77812 17.4375 7.76953 16.7449 8.20195 15.75H16.875C17.4973 15.75 18 15.2473 18 14.625C18 14.0027 17.4973 13.5 16.875 13.5H8.20195C7.76953 12.5051 6.77812 11.8125 5.625 11.8125C4.47188 11.8125 3.48047 12.5051 3.04805 13.5H1.125C0.502734 13.5 0 14.0027 0 14.625ZM4.5 14.625C4.5 14.3266 4.61853 14.0405 4.8295 13.8295C5.04048 13.6185 5.32663 13.5 5.625 13.5C5.92337 13.5 6.20952 13.6185 6.4205 13.8295C6.63147 14.0405 6.75 14.3266 6.75 14.625C6.75 14.9234 6.63147 15.2095 6.4205 15.4205C6.20952 15.6315 5.92337 15.75 5.625 15.75C5.32663 15.75 5.04048 15.6315 4.8295 15.4205C4.61853 15.2095 4.5 14.9234 4.5 14.625ZM11.25 9C11.25 8.70163 11.3685 8.41548 11.5795 8.2045C11.7905 7.99353 12.0766 7.875 12.375 7.875C12.6734 7.875 12.9595 7.99353 13.1705 8.2045C13.3815 8.41548 13.5 8.70163 13.5 9C13.5 9.29837 13.3815 9.58452 13.1705 9.7955C12.9595 10.0065 12.6734 10.125 12.375 10.125C12.0766 10.125 11.7905 10.0065 11.5795 9.7955C11.3685 9.58452 11.25 9.29837 11.25 9ZM12.375 6.1875C11.2219 6.1875 10.2305 6.88008 9.79805 7.875H1.125C0.502734 7.875 0 8.37773 0 9C0 9.62227 0.502734 10.125 1.125 10.125H9.79805C10.2305 11.1199 11.2219 11.8125 12.375 11.8125C13.5281 11.8125 14.5195 11.1199 14.952 10.125H16.875C17.4973 10.125 18 9.62227 18 9C18 8.37773 17.4973 7.875 16.875 7.875H14.952C14.5195 6.88008 13.5281 6.1875 12.375 6.1875ZM6.75 4.5C6.45163 4.5 6.16548 4.38147 5.9545 4.1705C5.74353 3.95952 5.625 3.67337 5.625 3.375C5.625 3.07663 5.74353 2.79048 5.9545 2.5795C6.16548 2.36853 6.45163 2.25 6.75 2.25C7.04837 2.25 7.33452 2.36853 7.5455 2.5795C7.75647 2.79048 7.875 3.07663 7.875 3.375C7.875 3.67337 7.75647 3.95952 7.5455 4.1705C7.33452 4.38147 7.04837 4.5 6.75 4.5ZM9.32695 2.25C8.89453 1.25508 7.90312 0.5625 6.75 0.5625C5.59688 0.5625 4.60547 1.25508 4.17305 2.25H1.125C0.502734 2.25 0 2.75273 0 3.375C0 3.99727 0.502734 4.5 1.125 4.5H4.17305C4.60547 5.49492 5.59688 6.1875 6.75 6.1875C7.90312 6.1875 8.89453 5.49492 9.32695 4.5H16.875C17.4973 4.5 18 3.99727 18 3.375C18 2.75273 17.4973 2.25 16.875 2.25H9.32695Z" fill="black"/>
</g>
<defs>
<clipPath id="clip0_1634_4299">
<rect width="18" height="18" fill="white"/>
</clipPath>
</defs>
</svg>
