<svg width="18" height="18" viewBox="0 0 18 18" fill="none" xmlns="http://www.w3.org/2000/svg">
<path d="M8.875 7.12477C8.50414 7.1249 8.14166 7.235 7.83337 7.44114C7.52508 7.64728 7.28483 7.9402 7.14301 8.28287C7.00119 8.62553 6.96415 9.00256 7.03659 9.36627C7.10902 9.72998 7.28768 10.0641 7.54996 10.3262C7.81224 10.5884 8.14638 10.767 8.51012 10.8393C8.87386 10.9116 9.25087 10.8744 9.59349 10.7324C9.9361 10.5905 10.2289 10.3501 10.435 10.0418C10.641 9.73339 10.7509 9.37086 10.7509 9C10.7506 8.50265 10.5528 8.02579 10.201 7.67417C9.84929 7.32256 9.37235 7.12495 8.875 7.12477ZM13.2593 5.68336C13.1639 5.44143 13.0197 5.22169 12.8358 5.03779C12.6519 4.85388 12.4322 4.70972 12.1902 4.61426C11.452 4.32281 9.69414 4.3882 8.875 4.3882C8.05586 4.3882 6.2998 4.32035 5.55941 4.61426C5.31748 4.70972 5.09775 4.85388 4.91384 5.03779C4.72993 5.22169 4.58578 5.44143 4.49031 5.68336C4.19922 6.42164 4.26426 8.18121 4.26426 8.99965C4.26426 9.81809 4.19922 11.5755 4.49172 12.3163C4.58718 12.5582 4.73134 12.778 4.91525 12.9619C5.09916 13.1458 5.31889 13.2899 5.56082 13.3854C6.2991 13.6768 8.05691 13.6114 8.87641 13.6114C9.6959 13.6114 11.4513 13.6793 12.1916 13.3854C12.4336 13.2899 12.6533 13.1458 12.8372 12.9619C13.0211 12.778 13.1653 12.5582 13.2607 12.3163C13.5543 11.578 13.4868 9.81844 13.4868 9C13.4868 8.18156 13.5543 6.42445 13.2607 5.68371L13.2593 5.68336ZM8.875 11.8828C8.30483 11.8828 7.74747 11.7137 7.2734 11.397C6.79932 11.0802 6.42982 10.63 6.21163 10.1032C5.99344 9.57644 5.93635 8.9968 6.04758 8.43759C6.15881 7.87838 6.43337 7.36471 6.83654 6.96154C7.23971 6.55837 7.75338 6.28381 8.31259 6.17258C8.8718 6.06135 9.45144 6.11844 9.9782 6.33663C10.505 6.55482 10.9552 6.92432 11.272 7.3984C11.5887 7.87247 11.7578 8.42983 11.7578 9C11.7583 9.37871 11.684 9.75378 11.5393 10.1038C11.3946 10.4537 11.1823 10.7717 10.9145 11.0395C10.6467 11.3073 10.3287 11.5196 9.97875 11.6643C9.62878 11.809 9.25371 11.8833 8.875 11.8828ZM11.8766 6.66914C11.7435 6.66921 11.6134 6.6298 11.5027 6.55591C11.392 6.48201 11.3057 6.37695 11.2547 6.254C11.2037 6.13105 11.1904 5.99574 11.2163 5.86519C11.2422 5.73464 11.3063 5.61471 11.4004 5.52057C11.4945 5.42643 11.6143 5.36231 11.7449 5.33631C11.8754 5.31032 12.0107 5.32363 12.1337 5.37455C12.2567 5.42547 12.3618 5.51171 12.4358 5.62238C12.5097 5.73304 12.5492 5.86315 12.5492 5.99625C12.5496 6.08464 12.5325 6.17223 12.4989 6.254C12.4654 6.33577 12.416 6.41011 12.3536 6.47276C12.2913 6.5354 12.2172 6.58512 12.1356 6.61906C12.0539 6.65301 11.9664 6.6705 11.878 6.67055L11.8766 6.66914ZM15.0625 1.125H2.6875C2.23995 1.125 1.81072 1.30279 1.49426 1.61926C1.17779 1.93572 1 2.36495 1 2.8125L1 15.1875C1 15.6351 1.17779 16.0643 1.49426 16.3807C1.81072 16.6972 2.23995 16.875 2.6875 16.875H15.0625C15.5101 16.875 15.9393 16.6972 16.2557 16.3807C16.5722 16.0643 16.75 15.6351 16.75 15.1875V2.8125C16.75 2.36495 16.5722 1.93572 16.2557 1.61926C15.9393 1.30279 15.5101 1.125 15.0625 1.125ZM14.4606 11.3203C14.4153 12.2214 14.2096 13.0198 13.5518 13.6758C12.8941 14.3318 12.0964 14.5417 11.1964 14.5846C10.2679 14.637 7.48422 14.637 6.55574 14.5846C5.65469 14.5392 4.8591 14.3332 4.20027 13.6758C3.54145 13.0184 3.33437 12.2196 3.29148 11.3203C3.2391 10.3915 3.2391 7.60746 3.29148 6.67969C3.33684 5.77863 3.54004 4.98023 4.20027 4.32422C4.86051 3.6682 5.6582 3.46078 6.55574 3.41789C7.48422 3.36551 10.2679 3.36551 11.1964 3.41789C12.0974 3.46324 12.8955 3.66926 13.5518 4.32668C14.2082 4.9841 14.4177 5.78285 14.4606 6.68391C14.513 7.60922 14.513 10.3908 14.4606 11.3203Z" fill="black"/>
</svg>
