<svg width="18" height="18" viewBox="0 0 18 18" fill="none" xmlns="http://www.w3.org/2000/svg">
<path d="M15.0625 1.125H2.6875C2.23995 1.125 1.81072 1.30279 1.49426 1.61926C1.17779 1.93572 1 2.36495 1 2.8125L1 15.1875C1 15.6351 1.17779 16.0643 1.49426 16.3807C1.81072 16.6972 2.23995 16.875 2.6875 16.875H7.5127V11.5204H5.29785V9H7.5127V7.07906C7.5127 4.8941 8.81348 3.68719 10.8058 3.68719C11.7599 3.68719 12.7577 3.85734 12.7577 3.85734V6.00187H11.6583C10.5752 6.00187 10.2373 6.67406 10.2373 7.36348V9H12.6554L12.2686 11.5204H10.2373V16.875H15.0625C15.5101 16.875 15.9393 16.6972 16.2557 16.3807C16.5722 16.0643 16.75 15.6351 16.75 15.1875V2.8125C16.75 2.36495 16.5722 1.93572 16.2557 1.61926C15.9393 1.30279 15.5101 1.125 15.0625 1.125Z" fill="black"/>
</svg>
