<svg width="18" height="18" viewBox="0 0 18 18" fill="none" xmlns="http://www.w3.org/2000/svg">
<path d="M15.047 1.125H2.68564C1.75503 1.125 1 1.88086 1 2.8125V15.1875C1 16.1191 1.75503 16.875 2.68564 16.875H15.047C15.9776 16.875 16.7326 16.1191 16.7326 15.1875V2.8125C16.7326 1.88086 15.9776 1.125 15.047 1.125ZM13.3298 6.70781C13.3368 6.80625 13.3368 6.9082 13.3368 7.00664C13.3368 10.0547 11.019 13.5668 6.78385 13.5668C5.47748 13.5668 4.26593 13.1871 3.24752 12.5332C3.43364 12.5543 3.61274 12.5613 3.80238 12.5613C4.88049 12.5613 5.8708 12.1957 6.66094 11.577C5.64956 11.5559 4.79972 10.8914 4.50824 9.97734C4.86293 10.0301 5.1825 10.0301 5.54772 9.93516C4.49419 9.7207 3.70405 8.79258 3.70405 7.67109V7.64297C4.00957 7.81523 4.36777 7.9207 4.74353 7.93477C4.42762 7.7244 4.16865 7.43902 3.98972 7.10408C3.81079 6.76914 3.71747 6.39506 3.7181 6.01523C3.7181 5.58633 3.83047 5.19258 4.03064 4.85156C5.16494 6.25078 6.86814 7.16484 8.77853 7.26328C8.45194 5.69883 9.62135 4.42969 11.0261 4.42969C11.6898 4.42969 12.2868 4.70742 12.7082 5.15742C13.2279 5.05898 13.7266 4.86562 14.1691 4.60195C13.997 5.13633 13.6353 5.58633 13.1577 5.87109C13.6212 5.82188 14.0707 5.6918 14.4851 5.5125C14.1726 5.97305 13.7793 6.38086 13.3298 6.70781Z" fill="black"/>
</svg>
