<svg width="18" height="18" viewBox="0 0 18 18" fill="none" xmlns="http://www.w3.org/2000/svg">
<g clip-path="url(#clip0_6333_28412)">
<path d="M10.9125 4.56328C11.127 4.21875 11.25 3.81445 11.25 3.375C11.25 2.13398 10.241 1.125 9 1.125C7.75898 1.125 6.75 2.13398 6.75 3.375C6.75 3.81445 6.87305 4.21875 7.0875 4.56328C7.42148 5.09766 7.875 5.8957 7.875 6.85195C7.875 8.65898 6.40898 10.125 4.60195 10.125H3.9375C2.38359 10.125 1.125 11.3836 1.125 12.9375C1.125 13.2469 1.37812 13.5 1.6875 13.5H16.3125C16.6219 13.5 16.875 13.2469 16.875 12.9375C16.875 11.3836 15.6164 10.125 14.0625 10.125H13.398C11.591 10.125 10.125 8.65898 10.125 6.85195C10.125 5.89922 10.5785 5.09766 10.9125 4.56328ZM11.8688 5.15742C11.5453 5.67773 11.2535 6.24023 11.2535 6.85195C11.2535 8.04023 12.2168 9 13.4016 9H14.066C16.2422 9 18.0035 10.7613 18.0035 12.9375C18.0035 13.8691 17.2477 14.625 16.316 14.625H1.6875C0.755859 14.625 0 13.8691 0 12.9375C0 10.7613 1.76133 9 3.9375 9H4.60195C5.79023 9 6.75 8.03672 6.75 6.85195C6.75 6.24023 6.4582 5.67773 6.13477 5.15742C5.81133 4.64062 5.625 4.02891 5.625 3.375C5.625 1.51172 7.13672 0 9 0C10.8633 0 12.375 1.51172 12.375 3.375C12.375 4.02891 12.1887 4.64062 11.8652 5.15742H11.8688ZM2.25 16.0312V16.3125C2.25 16.6219 2.50312 16.875 2.8125 16.875H15.1875C15.4969 16.875 15.75 16.6219 15.75 16.3125V16.0312C15.75 15.7219 16.0031 15.4688 16.3125 15.4688C16.6219 15.4688 16.875 15.7219 16.875 16.0312V16.3125C16.875 17.2441 16.1191 18 15.1875 18H2.8125C1.88086 18 1.125 17.2441 1.125 16.3125V16.0312C1.125 15.7219 1.37812 15.4688 1.6875 15.4688C1.99688 15.4688 2.25 15.7219 2.25 16.0312Z" fill="black"/>
</g>
<defs>
<clipPath id="clip0_6333_28412">
<rect width="18" height="18" fill="white"/>
</clipPath>
</defs>
</svg>
