<svg width="18" height="18" viewBox="0 0 18 18" fill="none" xmlns="http://www.w3.org/2000/svg">
<g clip-path="url(#clip0_6333_28411)">
<path d="M10.9688 7.09453C10.9688 6.48281 11.2922 5.92734 11.6684 5.44219C12.1113 4.86914 12.375 4.15195 12.375 3.375C12.375 1.51172 10.8633 0 9 0C7.13672 0 5.625 1.51172 5.625 3.375C5.625 4.15195 5.88867 4.86914 6.33164 5.44219C6.70781 5.92734 7.03125 6.48281 7.03125 7.09453C7.03125 8.1457 6.17695 9 5.12578 9H3.9375C1.76133 9 0 10.7613 0 12.9375C0 13.6723 0.471094 14.298 1.125 14.5301V16.3125C1.125 17.2441 1.88086 18 2.8125 18H15.1875C16.1191 18 16.875 17.2441 16.875 16.3125V14.5301C17.5289 14.298 18 13.6723 18 12.9375C18 10.7613 16.2387 9 14.0625 9H12.8742C11.823 9 10.9688 8.1457 10.9688 7.09453ZM14.625 14.625V15.75H3.375V14.625H14.625Z" fill="black"/>
</g>
<defs>
<clipPath id="clip0_6333_28411">
<rect width="18" height="18" fill="white"/>
</clipPath>
</defs>
</svg>
