<svg width="18" height="18" viewBox="0 0 18 18" fill="none" xmlns="http://www.w3.org/2000/svg">
<path d="M10.1486 1.5625C9.98301 1.21875 9.63301 1 9.24864 1C8.86426 1 8.51739 1.21875 8.34864 1.5625L6.33926 5.69688L1.85176 6.35938C1.47676 6.41563 1.16426 6.67812 1.04864 7.0375C0.933014 7.39687 1.02676 7.79375 1.29551 8.05937L4.55176 11.2812L3.78301 15.8344C3.72051 16.2094 3.87676 16.5906 4.18614 16.8125C4.49551 17.0344 4.90489 17.0625 5.24239 16.8844L9.25176 14.7437L13.2611 16.8844C13.5986 17.0625 14.008 17.0375 14.3174 16.8125C14.6268 16.5875 14.783 16.2094 14.7205 15.8344L13.9486 11.2812L17.2049 8.05937C17.4736 7.79375 17.5705 7.39687 17.4518 7.0375C17.333 6.67812 17.0236 6.41563 16.6486 6.35938L12.158 5.69688L10.1486 1.5625Z" fill="black"/>
</svg>
