<svg width="18" height="18" viewBox="0 0 18 18" fill="none" xmlns="http://www.w3.org/2000/svg">
<path d="M9.24689 14.6219L4.94064 16.9094C4.71564 17.0438 4.40939 17.0219 4.17501 16.8562C3.94376 16.6906 3.82814 16.4031 3.84689 16.1219L4.69376 11.2625L1.2222 7.81875C1.02032 7.62187 0.948762 7.325 1.03751 7.05312C1.12595 6.78437 1.35939 6.5875 1.64032 6.54688L6.42814 5.8375L8.57189 1.4225C8.70001 1.16403 8.95939 1 9.24689 1C9.53439 1 9.79689 1.16406 9.92189 1.4225L12.0656 5.8375L16.8563 6.54688C17.1375 6.5875 17.3688 6.78437 17.4594 7.05312C17.5469 7.325 17.475 7.62187 17.275 7.81875L13.8 11.2625L14.6219 16.1219C14.6688 16.4031 14.5531 16.6906 14.3188 16.8562C14.0875 17.0219 13.7531 17.0438 13.5281 16.9094L9.24689 14.6219ZM7.32814 6.275C7.18439 6.57188 6.90314 6.77812 6.57501 6.82812L2.28095 7.4625L5.40001 10.55C5.62814 10.7781 5.73439 11.1063 5.68126 11.4281L4.94376 15.7875L8.77501 13.7406C9.07189 13.5813 9.42501 13.5813 9.71876 13.7406L13.55 15.7875L12.8156 11.4281C12.7594 11.1063 12.8656 10.7781 13.0969 10.55L16.2156 7.4625L11.9188 6.82812C11.5656 6.77812 11.2844 6.57188 11.1656 6.275L9.24689 2.3225L7.32814 6.275Z" fill="black"/>
</svg>
