<svg width="18" height="18" viewBox="0 0 18 18" fill="none" xmlns="http://www.w3.org/2000/svg">
<path d="M7.1875 0C6.56523 0 6.0625 0.502734 6.0625 1.125C6.0625 1.74727 6.56523 2.25 7.1875 2.25H7.75V3.45938C4.24492 4.00078 1.5625 7.03125 1.5625 10.6875C1.5625 14.727 4.83555 18 8.875 18C12.9145 18 16.1875 14.727 16.1875 10.6875C16.1875 9.21797 15.7551 7.85039 15.0098 6.70781L15.857 5.86055C16.2965 5.42109 16.2965 4.70742 15.857 4.26797C15.4176 3.82852 14.7039 3.82852 14.2645 4.26797L13.5051 5.02734C12.5172 4.21875 11.3184 3.66328 10 3.45938V2.25H10.5625C11.1848 2.25 11.6875 1.74727 11.6875 1.125C11.6875 0.502734 11.1848 0 10.5625 0H8.875H7.1875ZM9.71875 6.75V11.25C9.71875 11.7176 9.34258 12.0938 8.875 12.0938C8.40742 12.0938 8.03125 11.7176 8.03125 11.25V6.75C8.03125 6.28242 8.40742 5.90625 8.875 5.90625C9.34258 5.90625 9.71875 6.28242 9.71875 6.75Z" fill="black"/>
</svg>
