<svg width="18" height="18" viewBox="0 0 18 18" fill="none" xmlns="http://www.w3.org/2000/svg">
<path d="M5.5 0.5625C5.5 0.253125 5.75312 0 6.0625 0H11.6875C11.9969 0 12.25 0.253125 12.25 0.5625C12.25 0.871875 11.9969 1.125 11.6875 1.125H9.4375V3.39609C11.1742 3.52969 12.7422 4.26797 13.927 5.4L15.2277 4.09922C15.4457 3.88125 15.8043 3.88125 16.0223 4.09922C16.2402 4.31719 16.2402 4.67578 16.0223 4.89375L14.6793 6.23672C15.625 7.47422 16.1875 9.01406 16.1875 10.6875C16.1875 14.727 12.9145 18 8.875 18C4.83555 18 1.5625 14.727 1.5625 10.6875C1.5625 6.83789 4.53672 3.68438 8.3125 3.39609V1.125H6.0625C5.75312 1.125 5.5 0.871875 5.5 0.5625ZM2.6875 10.6875C2.6875 12.3285 3.3394 13.9023 4.49978 15.0627C5.66016 16.2231 7.23397 16.875 8.875 16.875C10.516 16.875 12.0898 16.2231 13.2502 15.0627C14.4106 13.9023 15.0625 12.3285 15.0625 10.6875C15.0625 9.04647 14.4106 7.47266 13.2502 6.31228C12.0898 5.1519 10.516 4.5 8.875 4.5C7.23397 4.5 5.66016 5.1519 4.49978 6.31228C3.3394 7.47266 2.6875 9.04647 2.6875 10.6875ZM9.4375 7.3125V11.25C9.4375 11.5594 9.18437 11.8125 8.875 11.8125C8.56562 11.8125 8.3125 11.5594 8.3125 11.25V7.3125C8.3125 7.00313 8.56562 6.75 8.875 6.75C9.18437 6.75 9.4375 7.00313 9.4375 7.3125Z" fill="black"/>
</svg>
