<svg width="18" height="18" viewBox="0 0 18 18" fill="none" xmlns="http://www.w3.org/2000/svg">
<g clip-path="url(#clip0_1167_2829)">
<path d="M13.7423 7.36641C13.5835 7.2502 13.4412 7.1207 13.3121 6.97461C13.1831 7.11738 13.0408 7.24687 12.8853 7.36309C12.4054 7.72168 11.8065 7.9375 11.1546 7.9375C10.506 7.9375 9.91373 7.725 9.43391 7.34316C9.27508 7.25352 9.12948 7.1207 8.99712 6.97461C8.86476 7.1207 8.71916 7.25352 8.56032 7.34316C8.08051 7.725 7.48819 7.9375 6.83962 7.9375C6.19435 7.9375 5.59872 7.725 5.11891 7.34316C4.96007 7.25352 4.81447 7.1207 4.68542 6.97461C4.55306 7.1207 4.40415 7.25352 4.24532 7.34316C3.76881 7.725 3.14671 7.9375 2.52659 7.9375C2.39225 7.9375 2.25691 7.92754 2.12554 7.91094C0.294969 7.66523 -0.571176 5.50039 0.407808 3.94648L2.30489 0.935957C2.47365 0.665318 2.7751 0.5 3.09708 0.5H14.9038C15.2248 0.5 15.5259 0.665285 15.6946 0.935957L17.5907 3.94648C18.5735 5.50371 17.7032 7.66523 15.8667 7.91094C15.7377 7.92754 15.6053 7.9375 15.4663 7.9375C14.8177 7.9375 14.2221 7.72168 13.7423 7.36641ZM14.8376 1.5625H3.16326L1.30291 4.51426C0.685106 5.49707 1.29364 6.72559 2.26452 6.8584C2.35287 6.86836 2.44188 6.875 2.52659 6.875C3.04744 6.875 3.56034 6.63594 3.89787 6.26406C4.09972 6.0416 4.3843 5.91211 4.68542 5.91211C4.98324 5.91211 5.26782 6.0416 5.46967 6.26406C5.80719 6.63594 6.29362 6.875 6.83962 6.875C7.38892 6.875 7.84557 6.63594 8.21287 6.26406C8.41142 6.0416 8.6993 5.91211 8.99712 5.91211C9.26846 5.91211 9.58282 6.0416 9.78136 6.26406C10.1189 6.63594 10.6053 6.84512 11.1546 6.84512C11.7039 6.84512 12.187 6.63594 12.5246 6.26406C12.7264 6.0416 13.011 5.91211 13.3088 5.91211C13.6066 5.91211 13.8945 6.03828 14.0931 6.26074C14.4339 6.63594 14.8939 6.84512 15.4663 6.84512C15.5557 6.84512 15.6417 6.86836 15.731 6.8584C16.7072 6.72559 17.3161 5.49707 16.6973 4.51426L14.8376 1.5625ZM2.64704 9.53125V12.1875H15.3538V9.53125C15.3538 9.23906 15.5921 9 15.8833 9C16.1745 9 16.4127 9.23906 16.4127 9.53125V15.375C16.4127 16.5471 15.463 17.5 14.2949 17.5H3.70594C2.53619 17.5 1.58815 16.5471 1.58815 15.375V9.53125C1.58815 9.23906 1.82508 9 2.1176 9C2.41012 9 2.64704 9.23906 2.64704 9.53125ZM2.64704 15.375C2.64704 15.9627 3.12024 16.4375 3.70594 16.4375H14.2949C14.8806 16.4375 15.3538 15.9627 15.3538 15.375V13.25H2.64704V15.375Z" fill="black"/>
</g>
<defs>
<clipPath id="clip0_1167_2829">
<rect width="18" height="18" fill="white"/>
</clipPath>
</defs>
</svg>
