<svg width="18" height="18" viewBox="0 0 18 18" fill="none" xmlns="http://www.w3.org/2000/svg">
<g clip-path="url(#clip0_1167_2834)">
<path d="M17.5875 3.94648L15.6919 0.934961C15.5232 0.666016 15.2221 0.5 14.9012 0.5H3.09747C2.77657 0.5 2.47552 0.666016 2.3068 0.934961L0.407873 3.94648C-0.571364 5.50039 0.295393 7.66191 2.12485 7.91094C2.25717 7.92754 2.39281 7.9375 2.52514 7.9375C3.38859 7.9375 4.1561 7.55898 4.68211 6.97461C5.20812 7.55898 5.97563 7.9375 6.83908 7.9375C7.70253 7.9375 8.47004 7.55898 8.99605 6.97461C9.52205 7.55898 10.2896 7.9375 11.153 7.9375C12.0198 7.9375 12.784 7.55898 13.31 6.97461C13.8393 7.55898 14.6035 7.9375 15.4669 7.9375C15.6026 7.9375 15.7349 7.92754 15.8672 7.91094C17.7033 7.66523 18.5734 5.50371 17.5908 3.94648H17.5875ZM16.0029 8.96348H15.9996C15.8242 8.98672 15.6456 9 15.4636 9C15.0534 9 14.6597 8.93691 14.2925 8.82402V13.25H3.70618V8.8207C3.33566 8.93691 2.93867 9 2.52845 9C2.3465 9 2.16454 8.98672 1.98921 8.96348H1.9859C1.85026 8.94355 1.71793 8.92031 1.58891 8.88711V13.25V15.375C1.58891 16.5471 2.53837 17.5 3.70618 17.5H14.2925C15.4603 17.5 16.4098 16.5471 16.4098 15.375V13.25V8.88711C16.2775 8.92031 16.1451 8.94687 16.0029 8.96348Z" fill="black"/>
</g>
<defs>
<clipPath id="clip0_1167_2834">
<rect width="18" height="18" fill="white"/>
</clipPath>
</defs>
</svg>
