<svg width="18" height="18" viewBox="0 0 18 18" fill="none" xmlns="http://www.w3.org/2000/svg">
<g clip-path="url(#clip0_6844_26922)">
<path d="M13.0466 0.460628C13.0114 0.2743 12.8848 0.116097 12.7091 0.0422684C12.5333 -0.0315597 12.3329 -0.0104659 12.1747 0.0985184L9.00008 2.28875L5.82547 0.0985184C5.66727 -0.0104659 5.46688 -0.0315597 5.2911 0.0422684C5.11531 0.116097 4.98875 0.2743 4.9536 0.460628L4.25399 4.25399L0.460628 4.95008C0.2743 4.98524 0.116097 5.1118 0.0422684 5.28758C-0.0315597 5.46336 -0.0104659 5.66375 0.0985184 5.82196L2.28875 9.00008L0.0985184 12.1747C-0.0104659 12.3329 -0.0315597 12.5333 0.0422684 12.7091C0.116097 12.8848 0.2743 13.0114 0.460628 13.0466L4.25399 13.7462L4.95008 17.5395C4.98524 17.7259 5.1118 17.8841 5.28758 17.9579C5.46336 18.0317 5.66375 18.0106 5.82196 17.9016L9.00008 15.7114L12.1747 17.9016C12.3329 18.0106 12.5333 18.0317 12.7091 17.9579C12.8848 17.8841 13.0114 17.7259 13.0466 17.5395L13.7462 13.7462L17.5395 13.0501C17.7259 13.0149 17.8841 12.8884 17.9579 12.7126C18.0317 12.5368 18.0106 12.3364 17.9016 12.1782L15.7114 9.00008L17.9016 5.82547C18.0106 5.66727 18.0317 5.46688 17.9579 5.2911C17.8841 5.11531 17.7259 4.98875 17.5395 4.9536L13.7462 4.25399L13.0466 0.460628ZM9.32 3.43485L12.1009 1.51883L12.7126 4.8411C12.7548 5.06961 12.9341 5.24891 13.1626 5.2911L16.4848 5.90281L14.5688 8.68367C14.4352 8.87703 14.4352 9.13016 14.5688 9.32352L16.4848 12.1044L13.1626 12.7161C12.9341 12.7583 12.7548 12.9376 12.7126 13.1661L12.1009 16.4884L9.32 14.5723C9.12664 14.4388 8.87352 14.4388 8.68016 14.5723L5.8993 16.4884L5.28758 13.1661C5.24539 12.9376 5.0661 12.7583 4.83758 12.7161L1.51883 12.0973L3.43485 9.31649C3.56844 9.12313 3.56844 8.87 3.43485 8.67664L1.51883 5.8993L4.8411 5.28758C5.06961 5.24539 5.24891 5.0661 5.2911 4.83758L5.90281 1.51532L8.68367 3.43133C8.87703 3.56492 9.13016 3.56492 9.32352 3.43133L9.32 3.43485ZM9.00008 13.5001C10.1936 13.5001 11.3381 13.026 12.1821 12.1821C13.026 11.3381 13.5001 10.1936 13.5001 9.00008C13.5001 7.80661 13.026 6.66201 12.1821 5.8181C11.3381 4.97419 10.1936 4.50008 9.00008 4.50008C7.80661 4.50008 6.66201 4.97419 5.8181 5.8181C4.97419 6.66201 4.50008 7.80661 4.50008 9.00008C4.50008 10.1936 4.97419 11.3381 5.8181 12.1821C6.66201 13.026 7.80661 13.5001 9.00008 13.5001ZM5.62508 9.00008C5.62508 8.10497 5.98066 7.24653 6.6136 6.6136C7.24653 5.98066 8.10497 5.62508 9.00008 5.62508C9.89519 5.62508 10.7536 5.98066 11.3866 6.6136C12.0195 7.24653 12.3751 8.10497 12.3751 9.00008C12.3751 9.89519 12.0195 10.7536 11.3866 11.3866C10.7536 12.0195 9.89519 12.3751 9.00008 12.3751C8.10497 12.3751 7.24653 12.0195 6.6136 11.3866C5.98066 10.7536 5.62508 9.89519 5.62508 9.00008Z" fill="black"/>
</g>
<defs>
<clipPath id="clip0_6844_26922">
<rect width="18" height="18" fill="white"/>
</clipPath>
</defs>
</svg>
