<svg width="18" height="18" viewBox="0 0 18 18" fill="none" xmlns="http://www.w3.org/2000/svg">
<g clip-path="url(#clip0_6844_26923)">
<path d="M12.7091 0.0422684C12.8848 0.116097 13.0114 0.2743 13.0466 0.460628L13.7462 4.25399L17.5395 4.95008C17.7259 4.98524 17.8841 5.1118 17.9579 5.28758C18.0317 5.46336 18.0106 5.66375 17.9016 5.82196L15.7114 9.00008L17.9016 12.1747C18.0106 12.3329 18.0317 12.5333 17.9579 12.7091C17.8841 12.8848 17.7259 13.0114 17.5395 13.0466L13.7462 13.7462L13.0466 17.5395C13.0114 17.7259 12.8848 17.8841 12.7091 17.9579C12.5333 18.0317 12.3329 18.0106 12.1747 17.9016L9.00008 15.7114L5.82547 17.9016C5.66727 18.0106 5.46688 18.0317 5.2911 17.9579C5.11531 17.8841 4.98875 17.7259 4.9536 17.5395L4.25399 13.7462L0.460628 13.0466C0.2743 13.0114 0.116097 12.8848 0.0422684 12.7091C-0.0315597 12.5333 -0.0104659 12.3329 0.0985184 12.1747L2.28875 9.00008L0.0985184 5.82547C-0.0104659 5.66727 -0.0315597 5.46688 0.0422684 5.2911C0.116097 5.11531 0.2743 4.98875 0.460628 4.9536L4.25399 4.25399L4.9536 0.460628C4.98875 0.2743 5.11531 0.116097 5.2911 0.0422684C5.46688 -0.0315597 5.66727 -0.0104659 5.82547 0.0985184L9.00008 2.28875L12.1747 0.0985184C12.3329 -0.0104659 12.5333 -0.0315597 12.7091 0.0422684ZM5.62508 9.00008C5.62508 8.10497 5.98066 7.24653 6.6136 6.6136C7.24653 5.98066 8.10497 5.62508 9.00008 5.62508C9.89519 5.62508 10.7536 5.98066 11.3866 6.6136C12.0195 7.24653 12.3751 8.10497 12.3751 9.00008C12.3751 9.89519 12.0195 10.7536 11.3866 11.3866C10.7536 12.0195 9.89519 12.3751 9.00008 12.3751C8.10497 12.3751 7.24653 12.0195 6.6136 11.3866C5.98066 10.7536 5.62508 9.89519 5.62508 9.00008ZM13.5001 9.00008C13.5001 7.80661 13.026 6.66201 12.1821 5.8181C11.3381 4.97419 10.1936 4.50008 9.00008 4.50008C7.80661 4.50008 6.66201 4.97419 5.8181 5.8181C4.97419 6.66201 4.50008 7.80661 4.50008 9.00008C4.50008 10.1936 4.97419 11.3381 5.8181 12.1821C6.66201 13.026 7.80661 13.5001 9.00008 13.5001C10.1936 13.5001 11.3381 13.026 12.1821 12.1821C13.026 11.3381 13.5001 10.1936 13.5001 9.00008Z" fill="black"/>
</g>
<defs>
<clipPath id="clip0_6844_26923">
<rect width="18" height="18" fill="white"/>
</clipPath>
</defs>
</svg>
