<svg width="18" height="18" viewBox="0 0 18 18" fill="none" xmlns="http://www.w3.org/2000/svg">
<path d="M2.25 2.25C1.62773 2.25 1.125 2.75273 1.125 3.375V5.625H3.9375H16.875V3.375C16.875 2.75273 16.3723 2.25 15.75 2.25H2.25ZM4.5 6.75V8.4375C4.5 8.74687 4.75313 9 5.0625 9H6.1875C6.49687 9 6.75 9.25313 6.75 9.5625C6.75 9.87187 6.49687 10.125 6.1875 10.125H5.0625C4.86562 10.125 4.67578 10.0898 4.5 10.0301V11.8125C4.5 12.1219 4.75313 12.375 5.0625 12.375H8.4375C8.74687 12.375 9 12.6281 9 12.9375C9 13.2469 8.74687 13.5 8.4375 13.5H5.0625C4.13086 13.5 3.375 12.7441 3.375 11.8125V8.4375V6.75H1.125V14.625C1.125 15.2473 1.62773 15.75 2.25 15.75H15.75C16.3723 15.75 16.875 15.2473 16.875 14.625V6.75H4.5ZM0 3.375C0 2.13398 1.00898 1.125 2.25 1.125H15.75C16.991 1.125 18 2.13398 18 3.375V14.625C18 15.866 16.991 16.875 15.75 16.875H2.25C1.00898 16.875 0 15.866 0 14.625V3.375ZM7.875 9.5625C7.875 9.25313 8.12813 9 8.4375 9H14.0625C14.3719 9 14.625 9.25313 14.625 9.5625C14.625 9.87187 14.3719 10.125 14.0625 10.125H8.4375C8.12813 10.125 7.875 9.87187 7.875 9.5625ZM10.6875 12.375H14.0625C14.3719 12.375 14.625 12.6281 14.625 12.9375C14.625 13.2469 14.3719 13.5 14.0625 13.5H10.6875C10.3781 13.5 10.125 13.2469 10.125 12.9375C10.125 12.6281 10.3781 12.375 10.6875 12.375Z" fill="black"/>
</svg>
