<svg width="18" height="18" viewBox="0 0 18 18" fill="none" xmlns="http://www.w3.org/2000/svg">
<path d="M2.25 1.125C1.00898 1.125 0 2.13398 0 3.375V14.625C0 15.866 1.00898 16.875 2.25 16.875H15.75C16.991 16.875 18 15.866 18 14.625V3.375C18 2.13398 16.991 1.125 15.75 1.125H2.25ZM15.75 5.625V14.625H2.25V5.625H3.375V7.875V11.25C3.375 12.1816 4.13086 12.9375 5.0625 12.9375H8.4375C8.74687 12.9375 9 12.6844 9 12.375C9 12.0656 8.74687 11.8125 8.4375 11.8125H5.0625C4.75313 11.8125 4.5 11.5594 4.5 11.25V9.46758C4.67578 9.53086 4.86562 9.5625 5.0625 9.5625H6.1875C6.49687 9.5625 6.75 9.30937 6.75 9C6.75 8.69063 6.49687 8.4375 6.1875 8.4375H5.0625C4.75313 8.4375 4.5 8.18437 4.5 7.875V5.625H15.75ZM7.875 8.4375V9.5625C7.875 9.87187 8.12813 10.125 8.4375 10.125H14.0625C14.3719 10.125 14.625 9.87187 14.625 9.5625V8.4375C14.625 8.12813 14.3719 7.875 14.0625 7.875H8.4375C8.12813 7.875 7.875 8.12813 7.875 8.4375ZM10.6875 11.25C10.3781 11.25 10.125 11.5031 10.125 11.8125V12.9375C10.125 13.2469 10.3781 13.5 10.6875 13.5H14.0625C14.3719 13.5 14.625 13.2469 14.625 12.9375V11.8125C14.625 11.5031 14.3719 11.25 14.0625 11.25H10.6875Z" fill="black"/>
</svg>
