<svg width="18" height="18" viewBox="0 0 18 18" fill="none" xmlns="http://www.w3.org/2000/svg">
<g clip-path="url(#clip0_6906_8340)">
<path d="M8.37547 10.7986H4.49984L4.67421 10.0955C4.82328 9.49921 5.10734 8.96483 5.48984 8.52327L4.7839 7.9664C4.32547 8.5064 3.98234 9.15608 3.80234 9.8789L3.62796 10.582C3.56046 10.852 3.62234 11.1361 3.79109 11.3555C3.95984 11.5748 4.22422 11.7014 4.49984 11.7014H8.54984V15.7514C8.54984 15.9989 8.75234 16.2014 8.99984 16.2014C9.24734 16.2014 9.44984 15.9989 9.44984 15.7514V11.7014H9.51453L8.37547 10.8014V10.7986ZM6.00453 3.59858L5.95109 4.2989L6.80328 4.97108L6.97203 2.7689C6.97484 2.7464 6.97484 2.7239 6.97484 2.69858H11.0248C11.0248 2.72108 11.0248 2.74358 11.0277 2.7689L11.368 7.18171C11.3877 7.45452 11.5339 7.70483 11.7589 7.85671C12.5183 8.3714 13.0892 9.15608 13.3227 10.0955L13.3311 10.1236L14.3858 10.9561C14.4083 10.8323 14.4055 10.703 14.3717 10.5792L14.1973 9.87608C13.9077 8.71452 13.2017 7.74702 12.2652 7.1114L11.9952 3.59858L11.9248 2.69858H12.5998C12.6814 2.69858 12.7573 2.67608 12.822 2.63952C12.957 2.56077 13.0498 2.41733 13.0498 2.24858C13.0498 2.00108 12.8473 1.79858 12.5998 1.79858H11.9248H6.07484H5.39984C5.15234 1.79858 4.94984 2.00108 4.94984 2.24858C4.94984 2.41452 5.03984 2.56077 5.17765 2.63952C5.24234 2.67608 5.31828 2.69858 5.39984 2.69858H6.07484L6.00453 3.59858ZM0.728277 1.89421C0.534215 1.74233 0.250152 1.77608 0.0954648 1.97015C-0.0592227 2.16421 -0.0226602 2.44827 0.171402 2.60296L17.2714 16.103C17.4655 16.2576 17.7495 16.2239 17.9042 16.0298C18.0589 15.8358 18.0252 15.5517 17.8311 15.397L0.728277 1.89421Z" fill="black"/>
</g>
<defs>
<clipPath id="clip0_6906_8340">
<rect width="18" height="18" fill="white"/>
</clipPath>
</defs>
</svg>
