<svg width="18" height="18" viewBox="0 0 18 18" fill="none" xmlns="http://www.w3.org/2000/svg">
<path d="M6.7469 2.07812L6.36877 6.98125C6.3469 7.28437 6.1844 7.5625 5.9344 7.73125C5.09065 8.30312 4.45627 9.175 4.1969 10.2188L4.00002 11H8.50002V8C8.50002 7.725 8.72502 7.5 9.00002 7.5C9.27502 7.5 9.50002 7.725 9.50002 8V11H14L13.8063 10.2188C13.5469 9.175 12.9125 8.30312 12.0688 7.73125C11.8156 7.55937 11.6563 7.28437 11.6344 6.98125L11.2531 2.07812C11.25 2.05313 11.25 2.02813 11.25 2H6.75002C6.75002 2.025 6.75002 2.05 6.7469 2.07812ZM8.50002 12H4.00002C3.69065 12 3.40002 11.8594 3.21252 11.6156C3.02502 11.3719 2.95627 11.0563 3.03127 10.7563L3.22502 9.975C3.5469 8.68438 4.33127 7.60938 5.3719 6.90312L5.6719 3L5.75002 2H5.00002C4.9094 2 4.82502 1.975 4.75315 1.93437C4.60002 1.84688 4.50002 1.68437 4.50002 1.5C4.50002 1.225 4.72502 1 5.00002 1H5.75002H12.25H13C13.275 1 13.5 1.225 13.5 1.5C13.5 1.68437 13.4 1.84688 13.2469 1.93437C13.175 1.975 13.0906 2 13 2H12.25L12.3281 3L12.6281 6.90312C13.6688 7.60938 14.4531 8.6875 14.775 9.975L14.9688 10.7563C15.0438 11.0563 14.975 11.3719 14.7875 11.6156C14.6 11.8594 14.3063 12 14 12H9.50002V16.5C9.50002 16.775 9.27502 17 9.00002 17C8.72502 17 8.50002 16.775 8.50002 16.5V12Z" fill="black"/>
</svg>
