<svg width="18" height="18" viewBox="0 0 18 18" fill="none" xmlns="http://www.w3.org/2000/svg">
<path d="M4.00026 2C4.00026 1.44687 4.44713 1 5.00026 1H13.0003C13.5534 1 14.0003 1.44687 14.0003 2C14.0003 2.55313 13.5534 3 13.0003 3H12.0784L12.4346 7.63125C13.5815 8.25312 14.4878 9.29375 14.919 10.5906L14.9503 10.6844C15.0534 10.9906 15.0003 11.325 14.8128 11.5844C14.6253 11.8438 14.3221 12 14.0003 12H4.00026C3.67838 12 3.37838 11.8469 3.18776 11.5844C2.99713 11.3219 2.94713 10.9875 3.05026 10.6844L3.08151 10.5906C3.51276 9.29375 4.41901 8.25312 5.56588 7.63125L5.92213 3H5.00026C4.44713 3 4.00026 2.55313 4.00026 2ZM8.00026 13H10.0003V16C10.0003 16.5531 9.55338 17 9.00026 17C8.44713 17 8.00026 16.5531 8.00026 16V13Z" fill="black"/>
</svg>
