<svg width="18" height="18" viewBox="0 0 18 18" fill="none" xmlns="http://www.w3.org/2000/svg">
<g clip-path="url(#clip0_6906_8339)">
<path d="M1.46738 1.9434C1.17488 1.71278 0.750197 1.76621 0.519572 2.05871C0.288947 2.35121 0.342385 2.7759 0.634885 3.00653L17.2849 16.0565C17.5774 16.2871 18.0021 16.2337 18.2327 15.9412C18.4633 15.6487 18.4099 15.224 18.1174 14.9934L13.9155 11.7C14.1911 11.6887 14.4471 11.5509 14.6074 11.3259C14.7761 11.0925 14.8239 10.7887 14.7311 10.5159L14.703 10.4315C14.3149 9.26434 13.4993 8.32778 12.4671 7.76809L12.1464 3.59996H12.9761C13.4739 3.59996 13.8761 3.19778 13.8761 2.69996C13.8761 2.20215 13.4739 1.79996 12.9761 1.79996H5.77613C5.27832 1.79996 4.87613 2.20215 4.87613 2.69996C4.87613 3.19778 5.27832 3.59996 5.77613 3.59996H6.60582L6.43426 5.8359L1.46738 1.9434ZM9.51395 11.7L5.35707 8.42621C4.76926 8.95778 4.31082 9.64402 4.04926 10.4315L4.02113 10.5159C3.92832 10.7915 3.97613 11.0925 4.14488 11.3259C4.31363 11.5593 4.58645 11.7 4.87613 11.7H9.51395ZM8.47614 12.6V15.3C8.47614 15.7978 8.87832 16.2 9.37613 16.2C9.87395 16.2 10.2761 15.7978 10.2761 15.3V12.6H8.47614Z" fill="black"/>
</g>
<defs>
<clipPath id="clip0_6906_8339">
<rect width="18" height="18" fill="white"/>
</clipPath>
</defs>
</svg>
