<svg width="18" height="18" viewBox="0 0 18 18" fill="none" xmlns="http://www.w3.org/2000/svg">
<path d="M9 1C8.44688 1 8 1.44687 8 2V4C8 4.55312 8.44688 5 9 5C9.55313 5 10 4.55312 10 4V3.08437C12.8375 3.55937 15 6.02812 15 9C15 12.3125 12.3125 15 9 15C5.6875 15 3 12.3125 3 9C3 7.32188 3.6875 5.80312 4.8 4.71563C5.19375 4.32812 5.2 3.69687 4.81562 3.3C4.43125 2.90312 3.79688 2.9 3.4 3.28437C1.92188 4.7375 1 6.7625 1 9C1 13.4187 4.58125 17 9 17C13.4187 17 17 13.4187 17 9C17 4.58125 13.4187 1 9 1ZM7.03125 5.96875C6.7375 5.675 6.2625 5.675 5.97188 5.96875C5.68125 6.2625 5.67813 6.7375 5.97188 7.02812L8.47188 9.52812C8.76562 9.82187 9.24063 9.82187 9.53125 9.52812C9.82187 9.23438 9.825 8.75938 9.53125 8.46875L7.03125 5.96875Z" fill="black"/>
</svg>
