<svg width="18" height="18" viewBox="0 0 18 18" fill="none" xmlns="http://www.w3.org/2000/svg">
<path d="M9 1C8.725 1 8.5 1.225 8.5 1.5V4.5C8.5 4.775 8.725 5 9 5C9.275 5 9.5 4.775 9.5 4.5V2.01875C13.1313 2.275 16 5.30312 16 9C16 12.8656 12.8656 16 9 16C5.13438 16 2 12.8656 2 9C2 7.06563 2.78437 5.31875 4.05 4.05C4.24375 3.85625 4.24375 3.5375 4.05 3.34375C3.85625 3.15 3.5375 3.15 3.34375 3.34375C1.89688 4.79063 1 6.79063 1 9C1 13.4187 4.58125 17 9 17C13.4187 17 17 13.4187 17 9C17 4.58125 13.4187 1 9 1ZM6.35313 5.64687C6.15938 5.45312 5.84062 5.45312 5.64687 5.64687C5.45312 5.84062 5.45312 6.15938 5.64687 6.35313L8.64687 9.35312C8.84062 9.54688 9.15937 9.54688 9.35312 9.35312C9.54688 9.15937 9.54688 8.84062 9.35312 8.64687L6.35313 5.64687Z" fill="black"/>
</svg>
