<svg width="18" height="18" viewBox="0 0 18 18" fill="none" xmlns="http://www.w3.org/2000/svg">
<path d="M5.75312 0.622266L5.5 1.125H2.125C1.50273 1.125 1 1.62773 1 2.25C1 2.87227 1.50273 3.375 2.125 3.375H15.625C16.2473 3.375 16.75 2.87227 16.75 2.25C16.75 1.62773 16.2473 1.125 15.625 1.125H12.25L11.9969 0.622266C11.807 0.239063 11.4168 0 10.9914 0H6.75859C6.3332 0 5.94297 0.239063 5.75312 0.622266ZM15.625 4.5H2.125L2.87031 16.418C2.92656 17.3074 3.66484 18 4.5543 18H13.1957C14.0852 18 14.8234 17.3074 14.8797 16.418L15.625 4.5Z" fill="black"/>
</svg>
