<svg width="18" height="18" viewBox="0 0 18 18" fill="none" xmlns="http://www.w3.org/2000/svg">
<path d="M7.24727 1.125H10.4992C10.6926 1.125 10.8719 1.22344 10.9773 1.38867L11.5152 2.25H6.23477L6.77266 1.38867C6.87461 1.22344 7.05742 1.125 7.25078 1.125H7.24727ZM12.8441 2.25L11.9336 0.794531C11.6242 0.298828 11.0828 0 10.5027 0H7.24727C6.66719 0 6.12578 0.298828 5.81641 0.794531L4.90586 2.25H3.25352H2.125H1.5625C1.25312 2.25 1 2.50312 1 2.8125C1 3.12188 1.25312 3.375 1.5625 3.375H2.20586L3.10234 15.9117C3.1832 17.0895 4.16406 18 5.34531 18H12.4047C13.5859 18 14.5633 17.0895 14.6477 15.9117L15.5441 3.375H16.1875C16.4969 3.375 16.75 3.12188 16.75 2.8125C16.75 2.50312 16.4969 2.25 16.1875 2.25H15.625H14.4965H12.8441ZM14.4191 3.375L13.5262 15.8309C13.484 16.418 12.9953 16.875 12.4047 16.875H5.34531C4.75469 16.875 4.26602 16.418 4.22383 15.8309L3.33438 3.375H14.4156H14.4191Z" fill="black"/>
</svg>
