<svg width="18" height="18" viewBox="0 0 18 18" fill="none" xmlns="http://www.w3.org/2000/svg">
<g clip-path="url(#clip0_1104_3373)">
<path d="M9.00004 1.125C9.49926 1.125 9.95981 1.38867 10.2129 1.82109L17.8067 14.7586C18.0633 15.1945 18.0633 15.7324 17.8137 16.1684C17.5641 16.6043 17.0965 16.875 16.5938 16.875H1.4063C0.903561 16.875 0.435983 16.6043 0.186373 16.1684C-0.0632361 15.7324 -0.0597205 15.191 0.193405 14.7586L7.78715 1.82109C8.04028 1.38867 8.50083 1.125 9.00004 1.125ZM9.00004 5.625C8.53247 5.625 8.15629 6.00117 8.15629 6.46875V10.4062C8.15629 10.8738 8.53247 11.25 9.00004 11.25C9.46762 11.25 9.8438 10.8738 9.8438 10.4062V6.46875C9.8438 6.00117 9.46762 5.625 9.00004 5.625ZM10.125 13.5C10.125 12.8777 9.62231 12.375 9.00004 12.375C8.37778 12.375 7.87505 12.8777 7.87505 13.5C7.87505 14.1223 8.37778 14.625 9.00004 14.625C9.62231 14.625 10.125 14.1223 10.125 13.5Z" fill="black"/>
</g>
<defs>
<clipPath id="clip0_1104_3373">
<rect width="18" height="18" fill="white"/>
</clipPath>
</defs>
</svg>
