<svg width="18" height="18" viewBox="0 0 18 18" fill="none" xmlns="http://www.w3.org/2000/svg">
<g clip-path="url(#clip0_1104_3375)">
<path d="M8.99998 12.6562C8.53416 12.6562 8.18787 13.0338 8.18787 13.5C8.18787 13.9658 8.5658 14.3438 8.99998 14.3438C9.4658 14.3438 9.81209 13.9658 9.81209 13.5C9.84373 13.0324 9.46756 12.6562 8.99998 12.6562ZM8.99998 11.25C9.31087 11.25 9.53084 10.9984 9.53084 10.6875V5.625C9.53084 5.31408 9.2793 5.0625 8.99998 5.0625C8.72066 5.0625 8.43748 5.31563 8.43748 5.625V10.6875C8.43748 10.9969 8.69061 11.25 8.99998 11.25ZM17.7293 13.9676L10.7051 2.08758C10.35 1.48605 9.71014 1.12605 8.99998 1.125C8.28982 1.125 7.65349 1.4843 7.2949 2.08688L0.267167 13.9697C-0.0861536 14.5663 -0.091427 15.2824 0.252338 15.8857C0.607831 16.5059 1.24978 16.875 1.97224 16.875H16.0312C16.7523 16.875 17.3935 16.5048 17.7472 15.8846C18.0914 15.2824 18.0844 14.5652 17.7293 13.9676ZM16.7379 15.2965C16.6183 15.5918 16.3406 15.75 15.9996 15.75H1.97224C1.65914 15.75 1.38232 15.5924 1.23115 15.3281C1.08778 15.0765 1.09 14.7902 1.23664 14.542L8.26521 2.65992C8.41639 2.40328 8.69061 2.25 8.99998 2.25C9.30812 2.25055 9.58217 2.40325 9.73334 2.65922L16.7611 14.542C16.8785 14.7902 16.9137 15.075 16.7379 15.2965Z" fill="black"/>
</g>
<defs>
<clipPath id="clip0_1104_3375">
<rect width="18" height="18" fill="white"/>
</clipPath>
</defs>
</svg>
