<svg width="18" height="18" viewBox="0 0 18 18" fill="none" xmlns="http://www.w3.org/2000/svg">
<path d="M1.8 13.7C0.805781 13.7 0 12.8928 0 11.9V3.8C0 2.80578 0.805781 2 1.8 2H9.9C10.8928 2 11.7 2.80578 11.7 3.8V4.7H13.5366C13.9303 4.7 14.3044 4.87156 14.5603 5.1725L16.7738 7.75437C16.9847 7.99906 17.1 8.31125 17.1 8.63188V12.8H17.55C17.7975 12.8 18 13.0025 18 13.25C18 13.4975 17.7975 13.7 17.55 13.7H16.2C16.2 15.1906 14.9906 16.4 13.5 16.4C11.9841 16.4 10.8 15.1906 10.8 13.7H7.17469C7.17469 15.1906 5.99062 16.4 4.47469 16.4C2.98406 16.4 1.77469 15.1906 1.77469 13.7H1.8ZM0.9 3.8V11.9C0.9 12.3978 1.30303 12.8 1.8 12.8H1.95356C2.32425 11.7509 3.32437 11 4.5 11C5.67562 11 6.67687 11.7509 7.04531 12.8H10.8V3.8C10.8 3.30303 10.3978 2.9 9.9 2.9H1.8C1.30303 2.9 0.9 3.30303 0.9 3.8ZM16.0566 8.3L13.8769 5.7575C13.7925 5.65625 13.6434 5.6 13.5366 5.6H11.7V8.3H16.0566ZM11.7 9.2V11.6862C12.1528 11.2587 12.8081 11 13.5 11C14.6756 11 15.6769 11.7509 16.0453 12.8H16.2V9.2H11.7ZM4.5 11.9C3.50719 11.9 2.7 12.7072 2.7 13.7C2.7 14.6928 3.50719 15.5 4.5 15.5C5.49281 15.5 6.3 14.6928 6.3 13.7C6.3 12.7072 5.49281 11.9 4.5 11.9ZM13.5 15.5C14.4928 15.5 15.3 14.6928 15.3 13.7C15.3 12.7072 14.4928 11.9 13.5 11.9C12.5072 11.9 11.7 12.7072 11.7 13.7C11.7 14.6928 12.5072 15.5 13.5 15.5Z" fill="black"/>
</svg>
