<svg width="18" height="18" viewBox="0 0 18 18" fill="none" xmlns="http://www.w3.org/2000/svg">
<path d="M1.35 2C0.604688 2 0 2.60469 0 3.35V12.35C0 13.0953 0.604688 13.7 1.35 13.7H1.8C1.8 15.1906 3.00937 16.4 4.5 16.4C5.99062 16.4 7.2 15.1906 7.2 13.7H10.8C10.8 15.1906 12.0094 16.4 13.5 16.4C14.9906 16.4 16.2 15.1906 16.2 13.7H17.1C17.5978 13.7 18 13.2978 18 12.8C18 12.3022 17.5978 11.9 17.1 11.9V10.1V9.2V8.67406C17.1 8.19594 16.9116 7.7375 16.5741 7.4L14.4 5.22594C14.0625 4.88844 13.6041 4.7 13.1259 4.7H11.7V3.35C11.7 2.60469 11.0953 2 10.35 2H1.35ZM11.7 6.5H13.1259L15.3 8.67406V9.2H11.7V6.5ZM5.85 13.7C5.85 14.4453 5.24531 15.05 4.5 15.05C3.75469 15.05 3.15 14.4453 3.15 13.7C3.15 12.9547 3.75469 12.35 4.5 12.35C5.24531 12.35 5.85 12.9547 5.85 13.7ZM13.5 15.05C12.7547 15.05 12.15 14.4453 12.15 13.7C12.15 12.9547 12.7547 12.35 13.5 12.35C14.2453 12.35 14.85 12.9547 14.85 13.7C14.85 14.4453 14.2453 15.05 13.5 15.05Z" fill="black"/>
</svg>
