<svg width="18" height="18" viewBox="0 0 18 18" fill="none" xmlns="http://www.w3.org/2000/svg">
<g clip-path="url(#clip0_5810_9084)">
<path d="M1.8 2.9C1.30219 2.9 0.9 3.30219 0.9 3.8V11.9C0.9 12.3978 1.30219 12.8 1.8 12.8H1.95469C2.32594 11.7509 3.32437 11 4.5 11C5.67562 11 6.67687 11.7509 7.04531 12.8H10.8V3.8C10.8 3.30219 10.3978 2.9 9.9 2.9H1.8ZM1.8 13.7C0.807187 13.7 0 12.8928 0 11.9V3.8C0 2.80719 0.807187 2 1.8 2H9.9C10.8928 2 11.7 2.80719 11.7 3.8V4.7H13.5366C13.9303 4.7 14.3044 4.87156 14.5603 5.1725L16.7738 7.75437C16.9847 7.99906 17.1 8.31125 17.1 8.63188V12.8H17.55C17.7975 12.8 18 13.0025 18 13.25C18 13.4975 17.7975 13.7 17.55 13.7H16.2C16.2 15.1906 14.9906 16.4 13.5 16.4C12.0094 16.4 10.8 15.1906 10.8 13.7H7.2C7.2 15.1906 5.99062 16.4 4.5 16.4C3.00937 16.4 1.8 15.1906 1.8 13.7ZM11.7 8.3H16.0566L13.8769 5.7575C13.7925 5.65906 13.6659 5.6 13.5366 5.6H11.7V8.3ZM11.7 9.2V11.6862C12.1781 11.2587 12.8081 11 13.5 11C14.6756 11 15.6769 11.7509 16.0453 12.8H16.2V9.2H11.7ZM6.3 13.7C6.3 13.2226 6.11036 12.7648 5.77279 12.4272C5.43523 12.0896 4.97739 11.9 4.5 11.9C4.02261 11.9 3.56477 12.0896 3.22721 12.4272C2.88964 12.7648 2.7 13.2226 2.7 13.7C2.7 14.1774 2.88964 14.6352 3.22721 14.9728C3.56477 15.3104 4.02261 15.5 4.5 15.5C4.97739 15.5 5.43523 15.3104 5.77279 14.9728C6.11036 14.6352 6.3 14.1774 6.3 13.7ZM13.5 15.5C13.9774 15.5 14.4352 15.3104 14.7728 14.9728C15.1104 14.6352 15.3 14.1774 15.3 13.7C15.3 13.2226 15.1104 12.7648 14.7728 12.4272C14.4352 12.0896 13.9774 11.9 13.5 11.9C13.0226 11.9 12.5648 12.0896 12.2272 12.4272C11.8896 12.7648 11.7 13.2226 11.7 13.7C11.7 14.1774 11.8896 14.6352 12.2272 14.9728C12.5648 15.3104 13.0226 15.5 13.5 15.5Z" fill="black"/>
</g>
<defs>
<clipPath id="clip0_5810_9084">
<rect width="18" height="14.4" fill="white" transform="translate(0 2)"/>
</clipPath>
</defs>
</svg>
