<svg width="18" height="18" viewBox="0 0 18 18" fill="none" xmlns="http://www.w3.org/2000/svg">
<g clip-path="url(#clip0_5810_9085)">
<path d="M1.35 2C0.604688 2 0 2.60469 0 3.35V12.35C0 13.0953 0.604688 13.7 1.35 13.7H1.8C1.8 15.1906 3.00937 16.4 4.5 16.4C5.99062 16.4 7.2 15.1906 7.2 13.7H10.8C10.8 15.1906 12.0094 16.4 13.5 16.4C14.9906 16.4 16.2 15.1906 16.2 13.7H17.1C17.5978 13.7 18 13.2978 18 12.8C18 12.3022 17.5978 11.9 17.1 11.9V10.1V9.2V8.67406C17.1 8.19594 16.9116 7.7375 16.5741 7.4L14.4 5.22594C14.0625 4.88844 13.6041 4.7 13.1259 4.7H11.7V3.35C11.7 2.60469 11.0953 2 10.35 2H1.35ZM11.7 6.5H13.1259L15.3 8.67406V9.2H11.7V6.5ZM3.15 13.7C3.15 13.342 3.29223 12.9986 3.54541 12.7454C3.79858 12.4922 4.14196 12.35 4.5 12.35C4.85804 12.35 5.20142 12.4922 5.45459 12.7454C5.70777 12.9986 5.85 13.342 5.85 13.7C5.85 14.058 5.70777 14.4014 5.45459 14.6546C5.20142 14.9078 4.85804 15.05 4.5 15.05C4.14196 15.05 3.79858 14.9078 3.54541 14.6546C3.29223 14.4014 3.15 14.058 3.15 13.7ZM13.5 12.35C13.858 12.35 14.2014 12.4922 14.4546 12.7454C14.7078 12.9986 14.85 13.342 14.85 13.7C14.85 14.058 14.7078 14.4014 14.4546 14.6546C14.2014 14.9078 13.858 15.05 13.5 15.05C13.142 15.05 12.7986 14.9078 12.5454 14.6546C12.2922 14.4014 12.15 14.058 12.15 13.7C12.15 13.342 12.2922 12.9986 12.5454 12.7454C12.7986 12.4922 13.142 12.35 13.5 12.35Z" fill="black"/>
</g>
<defs>
<clipPath id="clip0_5810_9085">
<rect width="18" height="14.4" fill="white" transform="translate(0 2)"/>
</clipPath>
</defs>
</svg>
