<svg width="18" height="18" viewBox="0 0 18 18" fill="none" xmlns="http://www.w3.org/2000/svg">
<g clip-path="url(#clip0_845_2534)">
<path d="M4.31016 5.4527L8.4375 1.81508V12.9375C8.4375 13.2484 8.68908 13.5 9 13.5C9.31092 13.5 9.5625 13.2484 9.5625 12.9375V1.81508L13.6898 5.48188C13.7953 5.57926 13.9289 5.62497 14.0625 5.62497C14.2174 5.62497 14.3723 5.56126 14.4833 5.436C14.6899 5.20418 14.6679 4.84819 14.4361 4.64217L9.37357 0.142175C9.16045 -0.0478799 8.83955 -0.0478799 8.6265 0.142175L3.564 4.64217C3.33211 4.84801 3.31031 5.20309 3.51562 5.43512C3.72094 5.66716 4.08164 5.68825 4.31016 5.4527ZM15.75 11.25H11.8125C11.5019 11.25 11.25 11.5018 11.25 11.8125C11.25 12.1231 11.5019 12.375 11.8125 12.375H15.75C16.3712 12.375 16.875 12.8788 16.875 13.5V15.75C16.875 16.3712 16.3712 16.875 15.75 16.875H2.25C1.62879 16.875 1.125 16.3712 1.125 15.75V13.5C1.125 12.8788 1.62879 12.375 2.25 12.375H6.1875C6.49687 12.375 6.75 12.1218 6.75 11.8125C6.75 11.5031 6.49687 11.25 6.1875 11.25H2.25C1.00723 11.25 0 12.2572 0 13.5V15.75C0 16.9927 1.00723 18 2.25 18H15.75C16.9928 18 18 16.9927 18 15.75V13.5C18 12.259 16.991 11.25 15.75 11.25ZM15.4688 14.625C15.4688 14.1591 15.0908 13.7812 14.625 13.7812C14.1592 13.7812 13.7812 14.1591 13.7812 14.625C13.7812 15.0908 14.1592 15.4687 14.625 15.4687C15.0908 15.4687 15.4688 15.0925 15.4688 14.625Z" fill="black"/>
</g>
<defs>
<clipPath id="clip0_845_2534">
<rect width="18" height="18" fill="white"/>
</clipPath>
</defs>
</svg>
