<svg width="18" height="18" viewBox="0 0 18 18" fill="none" xmlns="http://www.w3.org/2000/svg">
<g clip-path="url(#clip0_845_2533)">
<path d="M10.125 3.84255V12.375C10.125 12.9972 9.62227 13.5 9 13.5C8.37773 13.5 7.875 12.9972 7.875 12.375V3.84255L5.29453 6.42302C4.85508 6.86248 4.14141 6.86248 3.70195 6.42302C3.2625 5.98357 3.2625 5.2699 3.70195 4.83044L8.20195 0.330444C8.64141 -0.109009 9.35508 -0.109009 9.79453 0.330444L14.2945 4.83044C14.734 5.2699 14.734 5.98357 14.2945 6.42302C13.8551 6.86248 13.1414 6.86248 12.702 6.42302L10.125 3.84255ZM2.25 12.375H6.75C6.75 13.616 7.75898 14.625 9 14.625C10.241 14.625 11.25 13.616 11.25 12.375H15.75C16.991 12.375 18 13.384 18 14.625V15.75C18 16.991 16.991 18 15.75 18H2.25C1.00898 18 0 16.991 0 15.75V14.625C0 13.384 1.00898 12.375 2.25 12.375ZM15.1875 16.0312C15.6551 16.0312 16.0312 15.6551 16.0312 15.1875C16.0312 14.7199 15.6551 14.3437 15.1875 14.3437C14.7199 14.3437 14.3438 14.7199 14.3438 15.1875C14.3438 15.6551 14.7199 16.0312 15.1875 16.0312Z" fill="black"/>
</g>
<defs>
<clipPath id="clip0_845_2533">
<rect width="18" height="18" fill="white"/>
</clipPath>
</defs>
</svg>
