<svg width="18" height="18" viewBox="0 0 18 18" fill="none" xmlns="http://www.w3.org/2000/svg">
<path d="M2.25 1.80005C1.00687 1.80005 0 2.80692 0 4.05005V13.95C0 15.1932 1.00687 16.2 2.25 16.2H15.75C16.9931 16.2 18 15.1932 18 13.95V4.05005C18 2.80692 16.9931 1.80005 15.75 1.80005H2.25ZM0.9 4.05005C0.9 3.30474 1.50469 2.70005 2.25 2.70005H15.75C16.4953 2.70005 17.1 3.30474 17.1 4.05005V13.95C17.1 14.6954 16.4953 15.3 15.75 15.3H2.25C1.50469 15.3 0.9 14.6954 0.9 13.95V4.05005ZM8.1 7.20005C8.1 6.96135 8.19482 6.73244 8.3636 6.56365C8.53239 6.39487 8.7613 6.30005 9 6.30005C9.23869 6.30005 9.46761 6.39487 9.6364 6.56365C9.80518 6.73244 9.9 6.96135 9.9 7.20005C9.9 7.43874 9.80518 7.66766 9.6364 7.83644C9.46761 8.00523 9.23869 8.10005 9 8.10005C8.7613 8.10005 8.53239 8.00523 8.3636 7.83644C8.19482 7.66766 8.1 7.43874 8.1 7.20005ZM10.8 7.20005C10.8 6.72266 10.6104 6.26482 10.2728 5.92726C9.93523 5.58969 9.47739 5.40005 9 5.40005C8.52261 5.40005 8.06477 5.58969 7.72721 5.92726C7.38964 6.26482 7.2 6.72266 7.2 7.20005C7.2 7.67744 7.38964 8.13528 7.72721 8.47284C8.06477 8.81041 8.52261 9.00005 9 9.00005C9.47739 9.00005 9.93523 8.81041 10.2728 8.47284C10.6104 8.13528 10.8 7.67744 10.8 7.20005ZM10.125 10.8C10.6706 10.8 11.1234 11.1854 11.2275 11.7H6.7725C6.87656 11.1854 7.32937 10.8 7.875 10.8H10.125ZM7.875 9.90005C6.75562 9.90005 5.85 10.8057 5.85 11.925C5.85 12.2991 6.15094 12.6 6.525 12.6H11.475C11.8491 12.6 12.15 12.2991 12.15 11.925C12.15 10.8057 11.2444 9.90005 10.125 9.90005H9H7.875ZM4.49437 6.75005C4.49437 6.6307 4.54179 6.51624 4.62618 6.43185C4.71057 6.34746 4.82503 6.30005 4.94438 6.30005C5.06372 6.30005 5.17818 6.34746 5.26257 6.43185C5.34696 6.51624 5.39437 6.6307 5.39437 6.75005C5.39437 6.8694 5.34696 6.98386 5.26257 7.06825C5.17818 7.15264 5.06372 7.20005 4.94438 7.20005C4.82503 7.20005 4.71057 7.15264 4.62618 7.06825C4.54179 6.98386 4.49437 6.8694 4.49437 6.75005ZM6.29437 6.75005C6.29437 6.57276 6.25946 6.39722 6.19161 6.23343C6.12377 6.06964 6.02433 5.92081 5.89897 5.79545C5.77361 5.6701 5.62479 5.57066 5.461 5.50281C5.29721 5.43497 5.12166 5.40005 4.94438 5.40005C4.76709 5.40005 4.59154 5.43497 4.42775 5.50281C4.26396 5.57066 4.11514 5.6701 3.98978 5.79545C3.86442 5.92081 3.76498 6.06964 3.69714 6.23343C3.62929 6.39722 3.59437 6.57276 3.59437 6.75005C3.59437 6.92733 3.62929 7.10288 3.69714 7.26667C3.76498 7.43046 3.86442 7.57928 3.98978 7.70464C4.11514 7.83 4.26396 7.92944 4.42775 7.99729C4.59154 8.06513 4.76709 8.10005 4.94438 8.10005C5.12166 8.10005 5.29721 8.06513 5.461 7.99729C5.62479 7.92944 5.77361 7.83 5.89897 7.70464C6.02433 7.57928 6.12377 7.43046 6.19161 7.26667C6.25946 7.10288 6.29437 6.92733 6.29437 6.75005ZM3.6 10.575C3.6 10.201 3.90094 9.90005 4.275 9.90005H5.85C6.0975 9.90005 6.3 9.69755 6.3 9.45005C6.3 9.20255 6.0975 9.00005 5.85 9.00005H4.275C3.40594 9.00005 2.7 9.70599 2.7 10.575V10.8C2.7 11.0475 2.9025 11.25 3.15 11.25C3.3975 11.25 3.6 11.0475 3.6 10.8V10.575ZM13.0556 6.30005C13.175 6.30005 13.2894 6.34746 13.3738 6.43185C13.4582 6.51624 13.5056 6.6307 13.5056 6.75005C13.5056 6.8694 13.4582 6.98386 13.3738 7.06825C13.2894 7.15264 13.175 7.20005 13.0556 7.20005C12.9363 7.20005 12.8218 7.15264 12.7374 7.06825C12.653 6.98386 12.6056 6.8694 12.6056 6.75005C12.6056 6.6307 12.653 6.51624 12.7374 6.43185C12.8218 6.34746 12.9363 6.30005 13.0556 6.30005ZM13.0556 8.10005C13.2329 8.10005 13.4085 8.06513 13.5722 7.99729C13.736 7.92944 13.8849 7.83 14.0102 7.70464C14.1356 7.57928 14.235 7.43046 14.3029 7.26667C14.3707 7.10288 14.4056 6.92733 14.4056 6.75005C14.4056 6.57276 14.3707 6.39722 14.3029 6.23343C14.235 6.06964 14.1356 5.92081 14.0102 5.79545C13.8849 5.6701 13.736 5.57066 13.5722 5.50281C13.4085 5.43497 13.2329 5.40005 13.0556 5.40005C12.8783 5.40005 12.7028 5.43497 12.539 5.50281C12.3752 5.57066 12.2264 5.6701 12.101 5.79545C11.9757 5.92081 11.8762 6.06964 11.8084 6.23343C11.7405 6.39722 11.7056 6.57276 11.7056 6.75005C11.7056 6.92733 11.7405 7.10288 11.8084 7.26667C11.8762 7.43046 11.9757 7.57928 12.101 7.70464C12.2264 7.83 12.3752 7.92944 12.539 7.99729C12.7028 8.06513 12.8783 8.10005 13.0556 8.10005ZM13.725 9.90005C14.0991 9.90005 14.4 10.201 14.4 10.575V10.8C14.4 11.0475 14.6025 11.25 14.85 11.25C15.0975 11.25 15.3 11.0475 15.3 10.8V10.575C15.3 9.70599 14.5941 9.00005 13.725 9.00005H12.15C11.9025 9.00005 11.7 9.20255 11.7 9.45005C11.7 9.69755 11.9025 9.90005 12.15 9.90005H13.725Z" fill="black"/>
</svg>
