<svg width="18" height="18" viewBox="0 0 18 18" fill="none" xmlns="http://www.w3.org/2000/svg">
<path d="M6.68571 1C8.81679 1 10.5429 2.70317 10.5429 4.80597C10.5429 6.90877 8.81679 8.61194 6.68571 8.61194C4.55464 8.61194 2.82857 6.90877 2.82857 4.80597C2.82857 2.70317 4.55464 1 6.68571 1ZM5.73107 10.3881H7.64036C7.76572 10.3881 7.89429 10.3912 8.01964 10.4007C7.49893 11.2951 7.2 12.3291 7.2 13.4328C7.2 14.7586 7.63071 15.986 8.35714 16.9851H0.954643C0.4275 16.9851 0 16.5632 0 16.0431C0 12.919 2.565 10.3881 5.73107 10.3881ZM8.74286 13.4328C8.74286 10.9114 10.8161 8.86567 13.3714 8.86567C15.9268 8.86567 18 10.9114 18 13.4328C18 15.9543 15.9268 18 13.3714 18C10.8161 18 8.74286 15.9543 8.74286 13.4328ZM15.9429 13.4328C15.9429 13.1537 15.7114 12.9254 15.4286 12.9254H11.3143C11.0314 12.9254 10.8 13.1537 10.8 13.4328C10.8 13.7119 11.0314 13.9403 11.3143 13.9403H15.4286C15.7114 13.9403 15.9429 13.7119 15.9429 13.4328Z" fill="black"/>
</svg>
