<svg width="18" height="18" viewBox="0 0 18 18" fill="none" xmlns="http://www.w3.org/2000/svg">
<path d="M4.05 1.80005C4.64674 1.80005 5.21903 2.0371 5.64099 2.45906C6.06295 2.88102 6.3 3.45331 6.3 4.05005C6.3 4.64679 6.06295 5.21908 5.64099 5.64104C5.21903 6.063 4.64674 6.30005 4.05 6.30005C3.45326 6.30005 2.88097 6.063 2.45901 5.64104C2.03705 5.21908 1.8 4.64679 1.8 4.05005C1.8 3.45331 2.03705 2.88102 2.45901 2.45906C2.88097 2.0371 3.45326 1.80005 4.05 1.80005ZM14.4 1.80005C14.9967 1.80005 15.569 2.0371 15.991 2.45906C16.4129 2.88102 16.65 3.45331 16.65 4.05005C16.65 4.64679 16.4129 5.21908 15.991 5.64104C15.569 6.063 14.9967 6.30005 14.4 6.30005C13.8033 6.30005 13.231 6.063 12.809 5.64104C12.3871 5.21908 12.15 4.64679 12.15 4.05005C12.15 3.45331 12.3871 2.88102 12.809 2.45906C13.231 2.0371 13.8033 1.80005 14.4 1.80005ZM0 10.201C0 8.54442 1.34437 7.20005 3.00094 7.20005H4.20187C4.64906 7.20005 5.07375 7.29849 5.45625 7.47286C5.41969 7.67536 5.40281 7.8863 5.40281 8.10005C5.40281 9.17442 5.87531 10.1391 6.62062 10.8C6.615 10.8 6.60937 10.8 6.60094 10.8H0.599062C0.27 10.8 0 10.53 0 10.201ZM11.3991 10.8C11.3934 10.8 11.3878 10.8 11.3794 10.8C12.1275 10.1391 12.5972 9.17442 12.5972 8.10005C12.5972 7.8863 12.5775 7.67817 12.5437 7.47286C12.9262 7.29567 13.3509 7.20005 13.7981 7.20005H14.9991C16.6556 7.20005 18 8.54442 18 10.201C18 10.5329 17.73 10.8 17.4009 10.8H11.3991ZM6.3 8.10005C6.3 7.38396 6.58446 6.69721 7.09081 6.19086C7.59716 5.68451 8.28392 5.40005 9 5.40005C9.71608 5.40005 10.4028 5.68451 10.9092 6.19086C11.4155 6.69721 11.7 7.38396 11.7 8.10005C11.7 8.81613 11.4155 9.50289 10.9092 10.0092C10.4028 10.5156 9.71608 10.8 9 10.8C8.28392 10.8 7.59716 10.5156 7.09081 10.0092C6.58446 9.50289 6.3 8.81613 6.3 8.10005ZM3.6 15.4491C3.6 13.3791 5.27906 11.7 7.34906 11.7H10.6509C12.7209 11.7 14.4 13.3791 14.4 15.4491C14.4 15.8625 14.0653 16.2 13.6491 16.2H4.35094C3.9375 16.2 3.6 15.8654 3.6 15.4491Z" fill="black"/>
</svg>
