<svg width="18" height="18" viewBox="0 0 18 18" fill="none" xmlns="http://www.w3.org/2000/svg">
<path d="M7.72594 10.55H4.87406C2.18278 10.55 0 12.7325 0 15.4241C0 15.9641 0.4365 16.4 0.974812 16.4H11.6257C12.1641 16.4 12.6 15.9641 12.6 15.4241C12.6 12.7325 10.4175 10.55 7.72594 10.55ZM11.6241 15.5H0.974812C0.93375 15.5 0.9 15.4662 0.9 15.4241C0.9 13.2331 2.68313 11.45 4.87406 11.45H7.72594C9.91687 11.45 11.7 13.2331 11.7 15.4241C11.7 15.4662 11.6662 15.5 11.6241 15.5ZM6.3 9.2C8.28844 9.2 9.9 7.58816 9.9 5.6C9.9 3.61184 8.28844 2 6.3 2C4.31156 2 2.7 3.61184 2.7 5.6C2.7 7.58816 4.31156 9.2 6.3 9.2ZM6.3 2.9C7.78894 2.9 9 4.11106 9 5.6C9 7.08866 7.78894 8.3 6.3 8.3C4.81106 8.3 3.6 7.08781 3.6 5.6C3.6 4.11106 4.81219 2.9 6.3 2.9ZM17.55 7.85H15.75V6.05C15.75 5.8025 15.5475 5.6 15.3 5.6C15.0525 5.6 14.85 5.80126 14.85 6.05V7.85H13.05C12.8025 7.85 12.6 8.0525 12.6 8.3C12.6 8.5475 12.8013 8.75 13.05 8.75H14.85V10.55C14.85 10.7987 15.0513 11 15.3 11C15.5487 11 15.75 10.7987 15.75 10.55V8.75H17.55C17.7975 8.75 18 8.5475 18 8.3C18 8.0525 17.7975 7.85 17.55 7.85Z" fill="black"/>
</svg>
