<svg width="18" height="18" viewBox="0 0 18 18" fill="none" xmlns="http://www.w3.org/2000/svg">
<path d="M3.97327 5.00008C3.97327 3.3438 5.30804 2.00002 6.95322 2.00002C8.5984 2.00002 9.93318 3.3438 9.93318 5.00008C9.93318 6.65636 8.5984 8.00014 6.95322 8.00014C5.30804 8.00014 3.97327 6.65636 3.97327 5.00008ZM10.9265 5.00008C10.9265 2.79066 9.14783 1 6.95322 1C4.75861 1 2.97995 2.79066 2.97995 5.00008C2.97995 7.2095 4.75861 9.00016 6.95322 9.00016C9.14783 9.00016 10.9265 7.2095 10.9265 5.00008ZM0.993318 16.0003C0.993318 13.5159 2.99547 11.5002 5.46325 11.5002H8.4432C8.99884 11.5002 9.52964 11.6033 10.0201 11.7877L10.7775 11.0252C10.0667 10.6877 9.27821 10.5002 8.4432 10.5002H5.46325C2.44604 10.5002 0 12.9627 0 16.0003V16.5003C0 16.7753 0.223496 17.0003 0.496659 17.0003C0.769821 17.0003 0.993318 16.7753 0.993318 16.5003V16.0003ZM10.5881 14.7534L13.7606 11.5596L15.3343 13.144L12.1619 16.3378C12.016 16.4847 11.8267 16.5816 11.6218 16.6159L10.0449 16.8816L10.3088 15.294C10.3429 15.0878 10.4391 14.9003 10.585 14.7503L10.5881 14.7534ZM14.4621 10.8533L15.1046 10.2064C15.5392 9.76893 16.2438 9.76893 16.6784 10.2064C17.113 10.6439 17.113 11.3533 16.6784 11.7908L16.0359 12.4377L14.4621 10.8533ZM9.33098 15.1315L8.94607 17.4628C8.8964 17.7691 9.16956 18.0441 9.47377 17.9941L11.7894 17.6066C12.1992 17.5378 12.5748 17.3441 12.8666 17.0472L17.3831 12.5002C18.2056 11.6721 18.2056 10.3283 17.3831 9.50017C16.5605 8.67203 15.2257 8.67203 14.4031 9.50017L9.88661 14.0471C9.59483 14.3409 9.39927 14.7221 9.33098 15.1315Z" fill="black"/>
</svg>
