<svg width="18" height="18" viewBox="0 0 18 18" fill="none" xmlns="http://www.w3.org/2000/svg">
<path d="M6.52583 1.80139C7.48061 1.80139 8.39628 2.18068 9.07141 2.85581C9.74654 3.53094 10.1258 4.44661 10.1258 5.40139C10.1258 6.35617 9.74654 7.27185 9.07141 7.94698C8.39628 8.62211 7.48061 9.00139 6.52583 9.00139C5.57105 9.00139 4.65538 8.62211 3.98025 7.94698C3.30511 7.27185 2.92583 6.35617 2.92583 5.40139C2.92583 4.44661 3.30511 3.53094 3.98025 2.85581C4.65538 2.18068 5.57105 1.80139 6.52583 1.80139ZM5.24052 10.3514H7.81114C8.14302 10.3514 8.46927 10.3851 8.78146 10.4442C8.72239 10.9645 8.98958 11.4455 9.39458 11.7042C8.9277 12.0023 8.64364 12.593 8.83208 13.2033C8.94458 13.5661 9.09645 13.9205 9.29333 14.2608C9.4902 14.6011 9.72083 14.9105 9.97958 15.1889C10.4211 15.6642 11.0933 15.7064 11.5883 15.4336V15.4589C11.5883 15.7176 11.6643 15.9792 11.8105 16.1986H1.06114C0.599893 16.2014 0.22583 15.8273 0.22583 15.3661C0.22583 12.5958 2.47021 10.3514 5.24052 10.3514ZM12.4883 7.93827C12.4883 7.74139 12.6149 7.5642 12.8061 7.52202C13.1015 7.45452 13.4108 7.41795 13.7258 7.41795C14.0408 7.41795 14.3502 7.45452 14.6455 7.52202C14.8368 7.5642 14.9633 7.74139 14.9633 7.93827V8.79889C15.1855 8.89452 15.3965 9.01545 15.5905 9.15889L16.2908 8.7567C16.4624 8.65827 16.6761 8.68077 16.8111 8.8242C17.0249 9.05202 17.2133 9.30795 17.3765 9.5892C17.5396 9.87045 17.6661 10.163 17.7561 10.4611C17.8152 10.6495 17.7252 10.8464 17.5536 10.9448L16.8505 11.3498C16.8618 11.4623 16.8702 11.5776 16.8702 11.6958C16.8702 11.8139 16.8646 11.9264 16.8505 12.0417L17.5536 12.4467C17.7252 12.5451 17.8124 12.742 17.7561 12.9305C17.6633 13.2286 17.5368 13.5211 17.3765 13.8023C17.2161 14.0836 17.0249 14.3395 16.8111 14.5673C16.6761 14.7108 16.4596 14.7333 16.2908 14.6348L15.5905 14.2326C15.3965 14.3761 15.1883 14.497 14.9633 14.5926V15.4533C14.9633 15.6501 14.8368 15.8273 14.6455 15.8695C14.3502 15.937 14.0408 15.9736 13.7258 15.9736C13.4108 15.9736 13.1015 15.937 12.8061 15.8695C12.6149 15.8273 12.4883 15.6501 12.4883 15.4533V14.5926C12.2633 14.497 12.0496 14.3761 11.8555 14.2298L11.1608 14.632C10.9893 14.7305 10.7755 14.708 10.6405 14.5645C10.4268 14.3367 10.2383 14.0808 10.0752 13.7995C9.91208 13.5183 9.78552 13.2258 9.69552 12.9276C9.63645 12.7392 9.72645 12.5423 9.89802 12.4439L10.5955 12.0417C10.5843 11.9264 10.5758 11.8111 10.5758 11.693C10.5758 11.5748 10.5815 11.4595 10.5955 11.3442L9.8952 10.942C9.72364 10.8436 9.63646 10.6467 9.69271 10.4583C9.78552 10.1601 9.90927 9.86764 10.0724 9.58639C10.2355 9.30514 10.424 9.0492 10.6377 8.82139C10.7727 8.67795 10.9865 8.65545 11.158 8.75389L11.8555 9.15608C12.0496 9.01264 12.2633 8.8917 12.4883 8.79327V7.93827ZM15.0786 11.693C15.087 11.5103 15.0582 11.3278 14.994 11.1566C14.9299 10.9854 14.8317 10.829 14.7054 10.6968C14.5791 10.5646 14.4273 10.4593 14.2591 10.3874C14.091 10.3155 13.9101 10.2785 13.7272 10.2785C13.5444 10.2785 13.3634 10.3155 13.1953 10.3874C13.0272 10.4593 12.8754 10.5646 12.7491 10.6968C12.6228 10.829 12.5246 10.9854 12.4604 11.1566C12.3963 11.3278 12.3675 11.5103 12.3758 11.693C12.3675 11.8756 12.3963 12.0581 12.4604 12.2293C12.5246 12.4005 12.6228 12.5569 12.7491 12.6891C12.8754 12.8214 13.0272 12.9266 13.1953 12.9985C13.3634 13.0704 13.5444 13.1074 13.7272 13.1074C13.9101 13.1074 14.091 13.0704 14.2591 12.9985C14.4273 12.9266 14.5791 12.8214 14.7054 12.6891C14.8317 12.5569 14.9299 12.4005 14.994 12.2293C15.0582 12.0581 15.087 11.8756 15.0786 11.693Z" fill="black"/>
</svg>
