<svg width="18" height="18" viewBox="0 0 18 18" fill="none" xmlns="http://www.w3.org/2000/svg">
<path d="M8.875 9C10.0685 9 11.2131 8.52589 12.057 7.68198C12.9009 6.83807 13.375 5.69347 13.375 4.5C13.375 3.30653 12.9009 2.16193 12.057 1.31802C11.2131 0.474106 10.0685 0 8.875 0C7.68153 0 6.53693 0.474106 5.69302 1.31802C4.84911 2.16193 4.375 3.30653 4.375 4.5C4.375 5.69347 4.84911 6.83807 5.69302 7.68198C6.53693 8.52589 7.68153 9 8.875 9ZM7.26836 10.6875C3.80547 10.6875 1 13.493 1 16.9559C1 17.5324 1.46758 18 2.04414 18H15.7059C16.2824 18 16.75 17.5324 16.75 16.9559C16.75 13.493 13.9445 10.6875 10.4816 10.6875H7.26836Z" fill="black"/>
</svg>
