<svg width="18" height="18" viewBox="0 0 18 18" fill="none" xmlns="http://www.w3.org/2000/svg">
<path d="M8.8843 9C7.68941 9 6.54347 8.52589 5.69856 7.68198C4.85365 6.83807 4.37898 5.69347 4.37898 4.5C4.37898 3.30653 4.85365 2.16193 5.69856 1.31802C6.54347 0.474106 7.68941 0 8.8843 0C10.0792 0 11.2251 0.474106 12.07 1.31802C12.9149 2.16193 13.3896 3.30653 13.3896 4.5C13.3896 5.69347 12.9149 6.83807 12.07 7.68198C11.2251 8.52589 10.0792 9 8.8843 9ZM8.35985 12.6281L7.70517 11.5383C7.47991 11.1621 7.75093 10.6875 8.18738 10.6875H8.8843H9.57769C10.0141 10.6875 10.2852 11.1656 10.0599 11.5383L9.40522 12.6281L10.5808 16.984L11.8479 11.8195C11.9183 11.5348 12.1929 11.3484 12.478 11.4223C14.9454 12.041 16.7686 14.2699 16.7686 16.9207C16.7686 17.5184 16.2829 18 15.688 18H11.049C10.975 18 10.9082 17.9859 10.8448 17.9613L10.8554 18H6.91322L6.92378 17.9613C6.86043 17.9859 6.79003 18 6.71964 18H2.08057C1.48573 18 1 17.5148 1 16.9207C1 14.2664 2.82676 12.0375 5.29061 11.4223C5.57571 11.352 5.85025 11.5383 5.92065 11.8195L7.18777 16.984L8.36337 12.6281H8.35985Z" fill="black"/>
</svg>
