<svg width="18" height="18" viewBox="0 0 18 18" fill="none" xmlns="http://www.w3.org/2000/svg">
<path d="M2.7 1.80005C1.20938 1.80005 0 3.00942 0 4.50005V13.5C0 14.9907 1.20938 16.2 2.7 16.2H15.3C16.7906 16.2 18 14.9907 18 13.5V4.50005C18 3.00942 16.7906 1.80005 15.3 1.80005H2.7ZM1.8 4.50005C1.8 4.00224 2.20219 3.60005 2.7 3.60005H15.3C15.7978 3.60005 16.2 4.00224 16.2 4.50005V13.5C16.2 13.9979 15.7978 14.4 15.3 14.4H2.7C2.20219 14.4 1.8 13.9979 1.8 13.5V4.50005ZM6.29437 6.75005C6.29437 6.57276 6.25946 6.39722 6.19161 6.23343C6.12377 6.06964 6.02433 5.92081 5.89897 5.79545C5.77361 5.6701 5.62479 5.57066 5.461 5.50281C5.29721 5.43497 5.12166 5.40005 4.94438 5.40005C4.76709 5.40005 4.59154 5.43497 4.42775 5.50281C4.26396 5.57066 4.11514 5.6701 3.98978 5.79545C3.86442 5.92081 3.76498 6.06964 3.69714 6.23343C3.62929 6.39722 3.59437 6.57276 3.59437 6.75005C3.59437 6.92733 3.62929 7.10288 3.69714 7.26667C3.76498 7.43046 3.86442 7.57928 3.98978 7.70464C4.11514 7.83 4.26396 7.92944 4.42775 7.99729C4.59154 8.06513 4.76709 8.10005 4.94438 8.10005C5.12166 8.10005 5.29721 8.06513 5.461 7.99729C5.62479 7.92944 5.77361 7.83 5.89897 7.70464C6.02433 7.57928 6.12377 7.43046 6.19161 7.26667C6.25946 7.10288 6.29437 6.92733 6.29437 6.75005ZM2.7 10.4991C2.7 10.9125 3.03469 11.25 3.45094 11.25H5.02875C5.25375 10.291 5.95125 9.51474 6.8625 9.18005C6.65156 9.06474 6.40687 9.00005 6.15094 9.00005H4.19906C3.37219 9.00005 2.7 9.67224 2.7 10.4991ZM12.9712 11.25H14.5491C14.9625 11.25 15.3 10.9154 15.3 10.4991C15.3 9.66942 14.6278 9.00005 13.8009 9.00005H11.8491C11.5903 9.00005 11.3484 9.06474 11.1375 9.18005C12.0487 9.51474 12.7463 10.291 12.9712 11.25ZM10.4625 9.92817C10.3528 9.90849 10.2403 9.90005 10.125 9.90005H7.875C7.75969 9.90005 7.64719 9.90849 7.5375 9.92817C6.80625 10.0519 6.20719 10.5666 5.96531 11.25C5.88938 11.461 5.85 11.6888 5.85 11.925C5.85 12.2991 6.15094 12.6 6.525 12.6H11.475C11.8491 12.6 12.15 12.2991 12.15 11.925C12.15 11.6888 12.1106 11.461 12.0347 11.25C11.7928 10.5666 11.1937 10.0519 10.4625 9.92817ZM14.4 6.75005C14.4 6.39201 14.2578 6.04863 14.0046 5.79545C13.7514 5.54228 13.408 5.40005 13.05 5.40005C12.692 5.40005 12.3486 5.54228 12.0954 5.79545C11.8422 6.04863 11.7 6.39201 11.7 6.75005C11.7 7.10809 11.8422 7.45147 12.0954 7.70464C12.3486 7.95782 12.692 8.10005 13.05 8.10005C13.408 8.10005 13.7514 7.95782 14.0046 7.70464C14.2578 7.45147 14.4 7.10809 14.4 6.75005ZM9 9.00005C9.47739 9.00005 9.93523 8.81041 10.2728 8.47284C10.6104 8.13528 10.8 7.67744 10.8 7.20005C10.8 6.72266 10.6104 6.26482 10.2728 5.92726C9.93523 5.58969 9.47739 5.40005 9 5.40005C8.52261 5.40005 8.06477 5.58969 7.72721 5.92726C7.38964 6.26482 7.2 6.72266 7.2 7.20005C7.2 7.67744 7.38964 8.13528 7.72721 8.47284C8.06477 8.81041 8.52261 9.00005 9 9.00005Z" fill="black"/>
</svg>
