<svg width="18" height="18" viewBox="0 0 18 18" fill="none" xmlns="http://www.w3.org/2000/svg">
<path d="M6.58488 8.61194C8.68382 8.61194 10.3839 6.90877 10.3839 4.80597C10.3839 2.70317 8.68382 1 6.58488 1C4.48595 1 2.78591 2.70317 2.78591 4.80597C2.78591 6.90877 4.48595 8.61194 6.58488 8.61194ZM5.64464 10.3881C2.52632 10.3881 0 12.919 0 16.0431C0 16.5632 0.421053 16.9851 0.940246 16.9851H7.16106L7.50613 15.2565C7.64226 14.5683 7.98101 13.9371 8.47487 13.4424L10.6055 11.3078C9.71904 10.7274 8.66165 10.3912 7.52196 10.3912H5.64147L5.64464 10.3881ZM8.99723 15.5547L8.6205 17.445C8.61417 17.4735 8.611 17.5052 8.611 17.5369C8.611 17.7907 8.81678 18 9.07321 18C9.10487 18 9.13336 17.9968 9.16502 17.9905L11.0518 17.6131C11.4444 17.5338 11.8053 17.3403 12.0871 17.058L15.8512 13.2869L13.3186 10.7496L9.55441 14.5207C9.27266 14.803 9.07954 15.1646 9.0004 15.5578L8.99723 15.5547ZM17.4753 11.6535C18.1749 10.9526 18.1749 9.81716 17.4753 9.11623C16.7756 8.4153 15.6423 8.4153 14.9426 9.11623L14.0309 10.0297L16.5635 12.567L17.4753 11.6535Z" fill="black"/>
</svg>
