<svg width="18" height="18" viewBox="0 0 18 18" fill="none" xmlns="http://www.w3.org/2000/svg">
<path d="M6.55659 8.10005C6.91116 8.10005 7.26226 8.03021 7.58984 7.89452C7.91742 7.75884 8.21506 7.55996 8.46578 7.30924C8.7165 7.05852 8.91538 6.76087 9.05107 6.43329C9.18675 6.10571 9.25659 5.75462 9.25659 5.40005C9.25659 5.04548 9.18675 4.69438 9.05107 4.3668C8.91538 4.03922 8.7165 3.74158 8.46578 3.49086C8.21506 3.24014 7.91742 3.04126 7.58984 2.90557C7.26226 2.76989 6.91116 2.70005 6.55659 2.70005C6.20202 2.70005 5.85093 2.76989 5.52335 2.90557C5.19577 3.04126 4.89812 3.24014 4.6474 3.49086C4.39669 3.74158 4.1978 4.03922 4.06212 4.3668C3.92643 4.69438 3.85659 5.04548 3.85659 5.40005C3.85659 5.75462 3.92643 6.10571 4.06212 6.43329C4.1978 6.76087 4.39669 7.05852 4.6474 7.30924C4.89812 7.55996 5.19577 7.75884 5.52335 7.89452C5.85093 8.03021 6.20202 8.10005 6.55659 8.10005ZM1.15659 15.3H10.1285C10.5672 15.6685 11.1663 15.6854 11.6191 15.435V15.4604C11.6191 15.7191 11.695 15.9807 11.8413 16.2H1.0919C0.630654 16.2 0.256592 15.826 0.256592 15.3647C0.256592 12.5944 2.50097 10.35 5.27128 10.35H7.8419C8.17378 10.35 8.50003 10.3838 8.81222 10.4429C8.76722 10.8282 8.90222 11.191 9.13847 11.4582C8.73065 11.3232 8.29472 11.25 7.83909 11.25H5.27128C3.02128 11.25 1.19315 13.0585 1.15659 15.3ZM2.95659 5.40005C2.95659 4.44527 3.33588 3.5296 4.01101 2.85446C4.68614 2.17933 5.60181 1.80005 6.55659 1.80005C7.51137 1.80005 8.42704 2.17933 9.10218 2.85446C9.77731 3.5296 10.1566 4.44527 10.1566 5.40005C10.1566 6.35483 9.77731 7.2705 9.10218 7.94563C8.42704 8.62076 7.51137 9.00005 6.55659 9.00005C5.60181 9.00005 4.68614 8.62076 4.01101 7.94563C3.33588 7.2705 2.95659 6.35483 2.95659 5.40005ZM10.7613 12.8841L11.245 13.7419C11.6922 13.5647 12.1732 13.6379 12.5388 13.846C12.8932 14.0485 13.2025 14.4113 13.2869 14.8782H14.2347C14.3191 14.4113 14.6257 14.0485 14.98 13.846C15.3428 13.6379 15.8238 13.5675 16.271 13.7447L16.7547 12.8869C16.3947 12.5663 16.2344 12.1079 16.2344 11.6944C16.2344 11.281 16.3947 10.8225 16.7547 10.5019L16.271 9.64411C15.8238 9.8213 15.3457 9.74817 14.98 9.54286C14.6228 9.33755 14.3163 8.97192 14.2347 8.50505H13.2869C13.1997 8.97192 12.8932 9.33474 12.5388 9.53724C12.1732 9.74536 11.695 9.81567 11.245 9.6413L10.7613 10.4991C11.1213 10.8197 11.2816 11.2782 11.2816 11.6916C11.2816 12.105 11.1213 12.5635 10.7613 12.8841ZM11.4953 14.6194L11.4503 14.6475C11.1494 14.8247 10.7641 14.7207 10.5925 14.4169L9.84722 13.0979C9.6869 12.811 9.78253 12.4482 10.0666 12.2822C10.2719 12.1613 10.3816 11.9307 10.3816 11.6916C10.3816 11.4525 10.2719 11.2219 10.0666 11.101C9.78534 10.935 9.6869 10.5722 9.84722 10.2854L10.5897 8.9663C10.7613 8.66255 11.1494 8.55849 11.4475 8.73567L11.4925 8.7638C11.6753 8.87349 11.9032 8.85942 12.0888 8.75536C12.2744 8.64849 12.4066 8.45724 12.4066 8.24349V8.20411C12.4066 7.87505 12.6738 7.60505 13.0057 7.60505H14.5075C14.8394 7.60505 15.1094 7.87505 15.1094 8.20692V8.25192C15.1094 8.46286 15.2388 8.6513 15.4216 8.75817C15.6044 8.86224 15.8294 8.8763 16.0122 8.76661L16.0628 8.73849C16.3638 8.5613 16.7491 8.66536 16.9207 8.96911L17.666 10.2854C17.8263 10.5722 17.7307 10.9322 17.4466 11.101C17.2413 11.2219 17.1316 11.4554 17.1316 11.6916C17.1316 11.9279 17.2413 12.1613 17.4466 12.2822C17.7278 12.4482 17.8263 12.811 17.666 13.0979L16.9235 14.4169C16.7519 14.7207 16.3638 14.8247 16.0657 14.6475L16.015 14.6194C15.8322 14.5125 15.6072 14.5238 15.4244 14.6279C15.2416 14.7319 15.1122 14.9204 15.1122 15.1341V15.1791C15.1122 15.511 14.8422 15.781 14.5103 15.781H13.0085C12.6794 15.781 12.4094 15.5138 12.4094 15.1819V15.1425C12.4094 14.9288 12.28 14.7375 12.0916 14.6307C11.906 14.5266 11.6782 14.5125 11.4953 14.6222V14.6194ZM13.7594 10.1166C14.1771 10.1166 14.5777 10.2825 14.8731 10.5779C15.1685 10.8733 15.3344 11.2739 15.3344 11.6916C15.3344 12.1093 15.1685 12.5099 14.8731 12.8053C14.5777 13.1007 14.1771 13.2666 13.7594 13.2666C13.3417 13.2666 12.9411 13.1007 12.6457 12.8053C12.3503 12.5099 12.1844 12.1093 12.1844 11.6916C12.1844 11.2739 12.3503 10.8733 12.6457 10.5779C12.9411 10.2825 13.3417 10.1166 13.7594 10.1166ZM13.7594 12.3666C13.9384 12.3666 14.1101 12.2955 14.2367 12.1689C14.3633 12.0423 14.4344 11.8706 14.4344 11.6916C14.4344 11.5126 14.3633 11.3409 14.2367 11.2143C14.1101 11.0877 13.9384 11.0166 13.7594 11.0166C13.5804 11.0166 13.4087 11.0877 13.2821 11.2143C13.1555 11.3409 13.0844 11.5126 13.0844 11.6916C13.0844 11.8706 13.1555 12.0423 13.2821 12.1689C13.4087 12.2955 13.5804 12.3666 13.7594 12.3666Z" fill="black"/>
</svg>
