<svg width="18" height="18" viewBox="0 0 18 18" fill="none" xmlns="http://www.w3.org/2000/svg">
<path d="M4 5C4 3.34375 5.34375 2 7 2C8.65625 2 10 3.34375 10 5C10 6.65625 8.65625 8 7 8C5.34375 8 4 6.65625 4 5ZM11 5C11 2.79063 9.20938 1 7 1C4.79063 1 3 2.79063 3 5C3 7.20937 4.79063 9 7 9C9.20938 9 11 7.20937 11 5ZM1 16C1 13.5156 3.01562 11.5 5.5 11.5H8.5C9.04375 11.5 9.5625 11.5969 10.0437 11.7719C10.175 11.5844 10.3281 11.4125 10.5 11.2594V10.8719C9.88125 10.6312 9.20625 10.4969 8.5 10.4969H5.5C2.4625 10.5 0 12.9625 0 16V16.5C0 16.775 0.225 17 0.5 17C0.775 17 1 16.775 1 16.5V16ZM12 12.0031V12.0844C11.4187 12.2906 11 12.8469 11 13.5V16.5C11 17.3281 11.6719 18 12.5 18H16.5C17.3281 18 18 17.3281 18 16.5V13.5C18 12.8469 17.5812 12.2906 17 12.0844V10.5031C17 9.12187 15.8813 8.00313 14.5 8.00313C13.1187 8.00313 12 9.12187 12 10.5031V12.0031ZM12 13.5C12 13.2437 12.1937 13.0312 12.4469 13.0031H16.5562C16.8062 13.0312 17.0031 13.2437 17.0031 13.5V16.5C17.0031 16.775 16.7781 17 16.5031 17H12.5031C12.2281 17 12.0031 16.775 12.0031 16.5V13.5H12ZM16 10.5031V12H13V10.5031C13 9.675 13.6719 9.00313 14.5 9.00313C15.3281 9.00313 16 9.675 16 10.5031Z" fill="black"/>
</svg>
