<svg width="18" height="18" viewBox="0 0 18 18" fill="none" xmlns="http://www.w3.org/2000/svg">
<path d="M6.68571 1C8.81679 1 10.5429 2.70317 10.5429 4.80597C10.5429 6.90877 8.81679 8.61194 6.68571 8.61194C4.55464 8.61194 2.82857 6.90877 2.82857 4.80597C2.82857 2.70317 4.55464 1 6.68571 1ZM5.73107 10.3881H7.64036C8.595 10.3881 9.495 10.6196 10.2857 11.0256V11.1619C9.65571 11.7201 9.25714 12.5289 9.25714 13.4297V16.4744C9.25714 16.6489 9.27321 16.8201 9.29893 16.9851H0.954643C0.4275 16.9851 0 16.5632 0 16.0431C0 12.919 2.565 10.3881 5.73107 10.3881ZM15.4286 10.3912C15.4286 9.82985 14.9689 9.37631 14.4 9.37631C13.8311 9.37631 13.3714 9.82985 13.3714 10.3912V11.9104H15.4286V10.3912ZM10.8 13.4328C10.8 12.77 11.2307 12.2054 11.8286 11.9961V10.3912C11.8286 8.98937 12.9793 7.85392 14.4 7.85392C15.8207 7.85392 16.9714 8.98937 16.9714 10.3912V11.9961C17.5693 12.2054 18 12.77 18 13.4328V16.4776C18 17.3181 17.3089 18 16.4571 18H12.3429C11.4911 18 10.8 17.3181 10.8 16.4776V13.4328Z" fill="black"/>
</svg>
