<svg width="18" height="18" viewBox="0 0 18 18" fill="none" xmlns="http://www.w3.org/2000/svg">
<path d="M2.7 4.05005C2.7 3.69201 2.84223 3.34863 3.09541 3.09545C3.34858 2.84228 3.69196 2.70005 4.05 2.70005C4.40804 2.70005 4.75142 2.84228 5.00459 3.09545C5.25777 3.34863 5.4 3.69201 5.4 4.05005C5.4 4.40809 5.25777 4.75147 5.00459 5.00464C4.75142 5.25782 4.40804 5.40005 4.05 5.40005C3.69196 5.40005 3.34858 5.25782 3.09541 5.00464C2.84223 4.75147 2.7 4.40809 2.7 4.05005ZM6.3 4.05005C6.3 3.45331 6.06295 2.88102 5.64099 2.45906C5.21903 2.0371 4.64674 1.80005 4.05 1.80005C3.45326 1.80005 2.88097 2.0371 2.45901 2.45906C2.03705 2.88102 1.8 3.45331 1.8 4.05005C1.8 4.64679 2.03705 5.21908 2.45901 5.64104C2.88097 6.063 3.45326 6.30005 4.05 6.30005C4.64674 6.30005 5.21903 6.063 5.64099 5.64104C6.06295 5.21908 6.3 4.64679 6.3 4.05005ZM9 6.30005C9.47739 6.30005 9.93523 6.48969 10.2728 6.82726C10.6104 7.16482 10.8 7.62266 10.8 8.10005C10.8 8.57744 10.6104 9.03527 10.2728 9.37284C9.93523 9.71041 9.47739 9.90005 9 9.90005C8.52261 9.90005 8.06477 9.71041 7.72721 9.37284C7.38964 9.03527 7.2 8.57744 7.2 8.10005C7.2 7.62266 7.38964 7.16482 7.72721 6.82726C8.06477 6.48969 8.52261 6.30005 9 6.30005ZM9 10.8C9.35457 10.8 9.70567 10.7302 10.0332 10.5945C10.3608 10.4588 10.6585 10.26 10.9092 10.0092C11.1599 9.75852 11.3588 9.46087 11.4945 9.13329C11.6302 8.80571 11.7 8.45462 11.7 8.10005C11.7 7.74548 11.6302 7.39438 11.4945 7.0668C11.3588 6.73922 11.1599 6.44158 10.9092 6.19086C10.6585 5.94014 10.3608 5.74126 10.0332 5.60557C9.70567 5.46989 9.35457 5.40005 9 5.40005C8.64543 5.40005 8.29433 5.46989 7.96675 5.60557C7.63918 5.74126 7.34153 5.94014 7.09081 6.19086C6.84009 6.44158 6.64121 6.73922 6.50552 7.0668C6.36984 7.39438 6.3 7.74548 6.3 8.10005C6.3 8.45462 6.36984 8.80571 6.50552 9.13329C6.64121 9.46087 6.84009 9.75852 7.09081 10.0092C7.34153 10.26 7.63918 10.4588 7.96675 10.5945C8.29433 10.7302 8.64543 10.8 9 10.8ZM7.34906 12.6H10.6509C12.1753 12.6 13.4184 13.7954 13.4972 15.3H4.50281C4.58156 13.7954 5.82469 12.6 7.34906 12.6ZM7.34906 11.7C5.27906 11.7 3.6 13.3791 3.6 15.4491C3.6 15.8625 3.93469 16.2 4.35094 16.2H13.6491C14.0625 16.2 14.4 15.8654 14.4 15.4491C14.4 13.3791 12.7209 11.7 10.6509 11.7H7.34906ZM14.4 2.70005C14.758 2.70005 15.1014 2.84228 15.3546 3.09545C15.6078 3.34863 15.75 3.69201 15.75 4.05005C15.75 4.40809 15.6078 4.75147 15.3546 5.00464C15.1014 5.25782 14.758 5.40005 14.4 5.40005C14.042 5.40005 13.6986 5.25782 13.4454 5.00464C13.1922 4.75147 13.05 4.40809 13.05 4.05005C13.05 3.69201 13.1922 3.34863 13.4454 3.09545C13.6986 2.84228 14.042 2.70005 14.4 2.70005ZM14.4 6.30005C14.9967 6.30005 15.569 6.063 15.991 5.64104C16.4129 5.21908 16.65 4.64679 16.65 4.05005C16.65 3.45331 16.4129 2.88102 15.991 2.45906C15.569 2.0371 14.9967 1.80005 14.4 1.80005C13.8033 1.80005 13.231 2.0371 12.809 2.45906C12.3871 2.88102 12.15 3.45331 12.15 4.05005C12.15 4.64679 12.3871 5.21908 12.809 5.64104C13.231 6.063 13.8033 6.30005 14.4 6.30005ZM14.85 8.10005C16.0931 8.10005 17.1 9.10692 17.1 10.35C17.1 10.5975 17.3025 10.8 17.55 10.8C17.7975 10.8 18 10.5975 18 10.35C18 8.60911 16.5909 7.20005 14.85 7.20005H12.4875C12.5606 7.48692 12.6 7.79067 12.6 8.10005H14.85ZM5.4 8.10005C5.4 7.79067 5.43937 7.48692 5.5125 7.20005H3.15C1.40906 7.20005 0 8.60911 0 10.35C0 10.5975 0.2025 10.8 0.45 10.8C0.6975 10.8 0.9 10.5975 0.9 10.35C0.9 9.10692 1.90687 8.10005 3.15 8.10005H5.4Z" fill="black"/>
</svg>
