<svg width="18" height="18" viewBox="0 0 18 18" fill="none" xmlns="http://www.w3.org/2000/svg">
<path d="M4 5C4 3.34375 5.34375 2 7 2C8.65625 2 10 3.34375 10 5C10 6.65625 8.65625 8 7 8C5.34375 8 4 6.65625 4 5ZM11 5C11 2.79063 9.20938 1 7 1C4.79063 1 3 2.79063 3 5C3 7.20937 4.79063 9 7 9C9.20938 9 11 7.20937 11 5ZM1 16C1 13.5156 3.01562 11.5 5.5 11.5H7.84062C7.96562 11.15 8.11875 10.8156 8.30313 10.5H5.5C2.4625 10.5 0 12.9625 0 16V16.5C0 16.775 0.225 17 0.5 17C0.775 17 1 16.775 1 16.5V16ZM13.5 10C15.4344 10 17 11.5656 17 13.5C17 15.4344 15.4344 17 13.5 17C11.5656 17 10 15.4344 10 13.5C10 11.5656 11.5656 10 13.5 10ZM13.5 18C15.9844 18 18 15.9844 18 13.5C18 11.0156 15.9844 9 13.5 9C11.0156 9 9 11.0156 9 13.5C9 15.9844 11.0156 18 13.5 18ZM16 13.5C16 13.225 15.775 13 15.5 13H11.5C11.225 13 11 13.225 11 13.5C11 13.775 11.225 14 11.5 14H15.5C15.775 14 16 13.775 16 13.5Z" fill="black"/>
</svg>
