<svg width="18" height="18" viewBox="0 0 18 18" fill="none" xmlns="http://www.w3.org/2000/svg">
<path d="M4.37852 4.5C4.37852 2.0148 6.39507 0 8.88321 0C11.3714 0 13.3879 2.0148 13.3879 4.5C13.3879 6.98555 11.3714 9 8.88321 9C6.39507 9 4.37852 6.98555 4.37852 4.5ZM12.2617 4.5C12.2617 2.63602 10.7484 1.125 8.88321 1.125C6.98631 1.125 5.50469 2.63602 5.50469 4.5C5.50469 6.36328 6.98631 7.875 8.88321 7.875C10.7484 7.875 12.2617 6.36328 12.2617 4.5ZM10.0094 10.6875C10.3191 10.6875 10.5725 10.9406 10.5725 11.25C10.5725 11.5594 10.3191 11.8125 10.0094 11.8125H9.66449L10.3648 13.9148L11.6846 11.2816C14.5387 11.577 16.7664 13.9887 16.7664 16.9207C16.7664 17.5148 16.2808 17.9684 15.686 17.9684H2.08113C1.4839 17.9684 1 17.5148 1 16.9207C1 13.9887 3.22701 11.577 6.08186 11.2816L7.40159 13.9148L8.10193 11.8125H7.72537C7.44734 11.8125 7.16228 11.5594 7.16228 11.25C7.16228 10.9406 7.44734 10.6875 7.72537 10.6875H10.0094ZM8.88321 16.8434L9.65394 15.3352L8.88321 13.0289L8.11249 15.3352L8.88321 16.8434ZM15.6086 16.8434C15.6191 14.8078 14.2185 13.0711 12.311 12.5402L10.1431 16.8434H15.6086ZM7.62331 16.8434L5.45542 12.5402C3.54902 13.0711 2.14658 14.8078 2.12653 16.8434H7.62331Z" fill="black"/>
</svg>
