<svg width="18" height="18" viewBox="0 0 18 18" fill="none" xmlns="http://www.w3.org/2000/svg">
<path d="M12.25 4.5C12.25 4.05679 12.1627 3.61792 11.9931 3.20844C11.8235 2.79897 11.5749 2.42691 11.2615 2.11351C10.9481 1.80012 10.576 1.55152 10.1666 1.38191C9.75708 1.2123 9.31821 1.125 8.875 1.125C8.43179 1.125 7.99292 1.2123 7.58344 1.38191C7.17397 1.55152 6.80191 1.80012 6.48851 2.11351C6.17512 2.42691 5.92652 2.79897 5.75691 3.20844C5.5873 3.61792 5.5 4.05679 5.5 4.5C5.5 4.94321 5.5873 5.38208 5.75691 5.79156C5.92652 6.20103 6.17512 6.57309 6.48851 6.88649C6.80191 7.19988 7.17397 7.44848 7.58344 7.61809C7.99292 7.7877 8.43179 7.875 8.875 7.875C9.31821 7.875 9.75708 7.7877 10.1666 7.61809C10.576 7.44848 10.9481 7.19988 11.2615 6.88649C11.5749 6.57309 11.8235 6.20103 11.9931 5.79156C12.1627 5.38208 12.25 4.94321 12.25 4.5ZM4.375 4.5C4.375 3.30653 4.84911 2.16193 5.69302 1.31802C6.53693 0.474106 7.68153 0 8.875 0C10.0685 0 11.2131 0.474106 12.057 1.31802C12.9009 2.16193 13.375 3.30653 13.375 4.5C13.375 5.69347 12.9009 6.83807 12.057 7.68198C11.2131 8.52589 10.0685 9 8.875 9C7.68153 9 6.53693 8.52589 5.69302 7.68198C4.84911 6.83807 4.375 5.69347 4.375 4.5ZM2.125 16.875H15.625C15.5828 14.073 13.2977 11.8125 10.4816 11.8125H7.26836C4.45586 11.8125 2.1707 14.073 2.125 16.875ZM1 16.9559C1 13.493 3.80547 10.6875 7.26836 10.6875H10.4816C13.9445 10.6875 16.75 13.493 16.75 16.9559C16.75 17.5324 16.2824 18 15.7059 18H2.04414C1.46758 18 1 17.5324 1 16.9559Z" fill="black"/>
</svg>
