<svg width="18" height="18" viewBox="0 0 18 18" fill="none" xmlns="http://www.w3.org/2000/svg">
<g clip-path="url(#clip0_10924_23039)">
<path d="M2.25 0C1.00898 0 0 1.00898 0 2.25V4.78125C0 5.24883 0.376172 5.625 0.84375 5.625C1.31133 5.625 1.6875 5.24883 1.6875 4.78125V2.25C1.6875 1.94062 1.94062 1.6875 2.25 1.6875H4.78125C5.24883 1.6875 5.625 1.31133 5.625 0.84375C5.625 0.376172 5.24883 0 4.78125 0H2.25ZM13.2188 0C12.7512 0 12.375 0.376172 12.375 0.84375C12.375 1.31133 12.7512 1.6875 13.2188 1.6875H15.75C16.0594 1.6875 16.3125 1.94062 16.3125 2.25V4.78125C16.3125 5.24883 16.6887 5.625 17.1562 5.625C17.6238 5.625 18 5.24883 18 4.78125V2.25C18 1.00898 16.991 0 15.75 0H13.2188ZM1.6875 13.2188C1.6875 12.7512 1.31133 12.375 0.84375 12.375C0.376172 12.375 0 12.7512 0 13.2188V15.75C0 16.991 1.00898 18 2.25 18H4.78125C5.24883 18 5.625 17.6238 5.625 17.1562C5.625 16.6887 5.24883 16.3125 4.78125 16.3125H2.25C1.94062 16.3125 1.6875 16.0594 1.6875 15.75V13.2188ZM18 13.2188C18 12.7512 17.6238 12.375 17.1562 12.375C16.6887 12.375 16.3125 12.7512 16.3125 13.2188V15.75C16.3125 16.0594 16.0594 16.3125 15.75 16.3125H13.2188C12.7512 16.3125 12.375 16.6887 12.375 17.1562C12.375 17.6238 12.7512 18 13.2188 18H15.75C16.991 18 18 16.991 18 15.75V13.2188ZM11.5312 5.90625C11.5312 4.50703 10.3992 3.375 9 3.375C7.60078 3.375 6.46875 4.50703 6.46875 5.90625C6.46875 7.30547 7.60078 8.4375 9 8.4375C10.3992 8.4375 11.5312 7.30547 11.5312 5.90625ZM7.3125 10.125C5.75859 10.125 4.5 11.3836 4.5 12.9375C4.5 13.5598 5.00273 14.0625 5.625 14.0625H12.375C12.9973 14.0625 13.5 13.5598 13.5 12.9375C13.5 11.3836 12.2414 10.125 10.6875 10.125H7.3125Z" fill="black"/>
</g>
<defs>
<clipPath id="clip0_10924_23039">
<rect width="18" height="18" fill="white"/>
</clipPath>
</defs>
</svg>
