<svg width="18" height="18" viewBox="0 0 18 18" fill="none" xmlns="http://www.w3.org/2000/svg">
<path d="M9.9 5.6C9.9 7.58844 8.28844 9.2 6.3 9.2C4.31156 9.2 2.7 7.58844 2.7 5.6C2.7 3.61156 4.31156 2 6.3 2C8.28844 2 9.9 3.61156 9.9 5.6ZM0 15.5647C0 12.7944 2.24437 10.55 5.01469 10.55H7.58531C10.3556 10.55 12.6 12.7944 12.6 15.5647C12.6 16.0259 12.2259 16.4 11.7647 16.4H0.835312C0.374063 16.4 0 16.0259 0 15.5647ZM14.175 10.775V8.975H12.375C12.0009 8.975 11.7 8.67406 11.7 8.3C11.7 7.92594 12.0009 7.625 12.375 7.625H14.175V5.825C14.175 5.45094 14.4759 5.15 14.85 5.15C15.2241 5.15 15.525 5.45094 15.525 5.825V7.625H17.325C17.6991 7.625 18 7.92594 18 8.3C18 8.67406 17.6991 8.975 17.325 8.975H15.525V10.775C15.525 11.1491 15.2241 11.45 14.85 11.45C14.4759 11.45 14.175 11.1491 14.175 10.775Z" fill="black"/>
</svg>
