<svg width="18" height="18" viewBox="0 0 18 18" fill="none" xmlns="http://www.w3.org/2000/svg">
<g clip-path="url(#clip0_10924_23043)">
<path d="M0 2.25C0 1.00898 1.00898 0 2.25 0H5.0625C5.37187 0 5.625 0.253125 5.625 0.5625C5.625 0.871875 5.37187 1.125 5.0625 1.125H2.25C1.62773 1.125 1.125 1.62773 1.125 2.25V5.0625C1.125 5.37187 0.871875 5.625 0.5625 5.625C0.253125 5.625 0 5.37187 0 5.0625V2.25ZM12.375 0.5625C12.375 0.253125 12.6281 0 12.9375 0H15.75C16.991 0 18 1.00898 18 2.25V5.0625C18 5.37187 17.7469 5.625 17.4375 5.625C17.1281 5.625 16.875 5.37187 16.875 5.0625V2.25C16.875 1.62773 16.3723 1.125 15.75 1.125H12.9375C12.6281 1.125 12.375 0.871875 12.375 0.5625ZM0.5625 12.375C0.871875 12.375 1.125 12.6281 1.125 12.9375V15.75C1.125 16.3723 1.62773 16.875 2.25 16.875H5.0625C5.37187 16.875 5.625 17.1281 5.625 17.4375C5.625 17.7469 5.37187 18 5.0625 18H2.25C1.00898 18 0 16.991 0 15.75V12.9375C0 12.6281 0.253125 12.375 0.5625 12.375ZM17.4375 12.375C17.7469 12.375 18 12.6281 18 12.9375V15.75C18 16.991 16.991 18 15.75 18H12.9375C12.6281 18 12.375 17.7469 12.375 17.4375C12.375 17.1281 12.6281 16.875 12.9375 16.875H15.75C16.3723 16.875 16.875 16.3723 16.875 15.75V12.9375C16.875 12.6281 17.1281 12.375 17.4375 12.375ZM4.5 13.5C4.5 11.6367 6.01172 10.125 7.875 10.125H10.125C11.9883 10.125 13.5 11.6367 13.5 13.5V14.0625C13.5 14.3719 13.2469 14.625 12.9375 14.625C12.6281 14.625 12.375 14.3719 12.375 14.0625V13.5C12.375 12.259 11.366 11.25 10.125 11.25H7.875C6.63398 11.25 5.625 12.259 5.625 13.5V14.0625C5.625 14.3719 5.37187 14.625 5.0625 14.625C4.75313 14.625 4.5 14.3719 4.5 14.0625V13.5ZM10.4062 5.90625C10.4062 5.1293 9.77695 4.5 9 4.5C8.22305 4.5 7.59375 5.1293 7.59375 5.90625C7.59375 6.6832 8.22305 7.3125 9 7.3125C9.77695 7.3125 10.4062 6.6832 10.4062 5.90625ZM6.46875 5.90625C6.46875 4.50703 7.60078 3.375 9 3.375C10.3992 3.375 11.5312 4.50703 11.5312 5.90625C11.5312 7.30547 10.3992 8.4375 9 8.4375C7.60078 8.4375 6.46875 7.30547 6.46875 5.90625Z" fill="black"/>
</g>
<defs>
<clipPath id="clip0_10924_23043">
<rect width="18" height="18" fill="white"/>
</clipPath>
</defs>
</svg>
