<svg width="18" height="18" viewBox="0 0 18 18" fill="none" xmlns="http://www.w3.org/2000/svg">
<path d="M16.875 1.6875C16.875 1.37812 17.1281 1.125 17.4375 1.125C17.7468 1.125 18 1.37812 18 1.6875V7.875C18 9.42891 16.7414 10.6875 15.1875 10.6875H1.91948L5.45972 14.2277C5.67769 14.4457 5.67769 14.8043 5.45972 15.0223C5.24175 15.2402 4.88315 15.2402 4.66519 15.0223L0.165186 10.5223C-0.0527832 10.3043 -0.0527832 9.9457 0.165186 9.72773L4.66519 5.22773C4.88315 5.00977 5.24175 5.00977 5.45972 5.22773C5.67769 5.4457 5.67769 5.8043 5.45972 6.02227L1.91948 9.5625H15.1875C16.1191 9.5625 16.875 8.80664 16.875 7.875V1.6875Z" fill="black"/>
</svg>
