<svg width="18" height="18" viewBox="0 0 18 18" fill="none" xmlns="http://www.w3.org/2000/svg">
<path d="M13.9148 10.125H15.0469L14.3086 4.22227C14.168 3.09375 13.2117 2.25 12.0762 2.25H5.92383C4.78828 2.25 3.83203 3.09375 3.69141 4.22227L2.95312 10.125H4.08516L4.80586 4.35938C4.87617 3.79688 5.3543 3.375 5.92383 3.375H12.0762C12.6422 3.375 13.1238 3.79688 13.1941 4.35938L13.9148 10.125ZM7.38984 10.125L7.875 6.25781C7.91367 5.94844 7.6957 5.66719 7.38633 5.62852C7.07695 5.58984 6.7957 5.80781 6.75703 6.11719L6.2543 10.125H7.38633H7.38984ZM2.8125 12.375H15.1875C15.4969 12.375 15.75 12.6281 15.75 12.9375V14.0625C15.75 14.3719 15.4969 14.625 15.1875 14.625H2.8125C2.50312 14.625 2.25 14.3719 2.25 14.0625V12.9375C2.25 12.6281 2.50312 12.375 2.8125 12.375ZM1.125 12.9375V14.0625C1.125 14.9941 1.88086 15.75 2.8125 15.75H15.1875C16.1191 15.75 16.875 14.9941 16.875 14.0625V12.9375C16.875 12.0059 16.1191 11.25 15.1875 11.25H2.8125C1.88086 11.25 1.125 12.0059 1.125 12.9375Z" fill="black"/>
</svg>
