<svg width="18" height="18" viewBox="0 0 18 18" fill="none" xmlns="http://www.w3.org/2000/svg">
<path d="M4.5 3C4.225 3 4 3.225 4 3.5V13H14V3.5C14 3.225 13.775 3 13.5 3H4.5ZM15 3.5V13H15.5C15.775 13 16 13.225 16 13.5C16 13.775 15.775 14 15.5 14H15H14H4H3H2.5C2.225 14 2 13.775 2 13.5C2 13.225 2.225 13 2.5 13H3V3.5C3 2.67188 3.67188 2 4.5 2H13.5C14.3281 2 15 2.67188 15 3.5ZM1.5 11H2V12H1.5C1.225 12 1 12.225 1 12.5V14.5C1 14.775 1.225 15 1.5 15H16.5C16.775 15 17 14.775 17 14.5V12.5C17 12.225 16.775 12 16.5 12H16V11H16.5C17.3281 11 18 11.6719 18 12.5V14.5C18 15.3281 17.3281 16 16.5 16H1.5C0.671875 16 0 15.3281 0 14.5V12.5C0 11.6719 0.671875 11 1.5 11ZM11.8531 6.4375L8.51875 9.76875C8.325 9.9625 8.00625 9.9625 7.8125 9.76875L6.14687 8.10313C5.95312 7.90938 5.95312 7.59062 6.14687 7.39687C6.34062 7.20312 6.65938 7.20312 6.85313 7.39687L8.16562 8.70937L11.1469 5.72813C11.3406 5.53438 11.6594 5.53438 11.8531 5.72813C12.0469 5.92188 12.0469 6.24062 11.8531 6.43437V6.4375Z" fill="black"/>
</svg>
