<svg width="18" height="18" viewBox="0 0 18 18" fill="none" xmlns="http://www.w3.org/2000/svg">
<path d="M12.5578 3.67995C10.0946 4.10735 8.20502 6.21062 8.10098 8.77504C7.82261 8.65976 7.52455 8.58384 7.21243 8.55853C7.43738 5.28833 10.1565 2.70142 13.4829 2.70142C13.6629 2.70142 13.84 2.70985 14.0171 2.72391C14.214 2.74078 14.3771 2.88419 14.4192 3.07539C14.4614 3.2666 14.3743 3.46624 14.2027 3.56185C12.704 4.41103 11.6917 6.02504 11.6917 7.87244C11.6917 10.6056 13.9019 12.8213 16.6266 12.8213C16.9162 12.8213 17.1974 12.796 17.4729 12.7482C17.667 12.7145 17.861 12.8101 17.9509 12.9872C18.0409 13.1644 18.0044 13.3753 17.8638 13.513C16.7306 14.6181 15.1841 15.2986 13.4829 15.2986C11.7705 15.2986 10.2183 14.6125 9.08514 13.499C9.29603 13.2797 9.47318 13.0266 9.60814 12.7482C10.5867 13.7661 11.9617 14.3988 13.4829 14.3988C14.4446 14.3988 15.3472 14.1457 16.1289 13.7042C13.137 13.4512 10.7891 10.9374 10.7891 7.87525C10.7891 6.23031 11.4668 4.74283 12.5578 3.67995ZM4.04909 8.1002C5.03324 8.1002 5.87117 8.73287 6.17486 9.61298C6.41949 9.50894 6.68943 9.44989 6.97343 9.44989C8.09255 9.44989 8.99797 10.3553 8.99797 11.4744C8.99797 12.5936 8.09255 13.499 6.97343 13.499H1.79959C0.807005 13.499 0 12.692 0 11.6994C0 10.7068 0.807005 9.89979 1.79959 9.89979C1.81365 9.89979 1.83052 9.89979 1.84458 9.89979C2.05266 8.87346 2.96089 8.1002 4.04909 8.1002ZM4.04909 8.99999C3.30394 8.99999 2.69939 9.60455 2.69939 10.3497C2.69939 10.3694 2.69939 10.3891 2.69939 10.4087C2.70501 10.5578 2.63753 10.7012 2.51662 10.7883C2.39571 10.8755 2.24106 10.9008 2.09765 10.8502C2.00486 10.8165 1.90363 10.7996 1.79678 10.7996C1.29908 10.7996 0.896985 11.2017 0.896985 11.6994C0.896985 12.1971 1.29908 12.5992 1.79678 12.5992H6.97061C7.59204 12.5992 8.09536 12.0959 8.09536 11.4744C8.09536 10.853 7.59204 10.3497 6.97061 10.3497C6.65568 10.3497 6.37169 10.479 6.16642 10.6871C6.03708 10.8193 5.84306 10.8586 5.67434 10.7883C5.50563 10.718 5.39597 10.5521 5.39597 10.3694V10.3469C5.39597 9.60173 4.79142 8.99718 4.04627 8.99718L4.04909 8.99999Z" fill="black"/>
</svg>
