<svg width="18" height="18" viewBox="0 0 18 18" fill="none" xmlns="http://www.w3.org/2000/svg">
<path d="M16.3125 1.125C16.6219 1.125 16.875 1.37672 16.875 1.6875C16.875 1.99828 16.6219 2.25 16.3125 2.25H2.8125C1.88051 2.25 1.125 3.00551 1.125 3.9375V14.0625C1.125 14.9941 1.88051 15.75 2.8125 15.75H15.1875C16.1191 15.75 16.875 14.9941 16.875 14.0625V6.1875C16.875 5.25586 16.1191 4.5 15.1875 4.5H3.9375C3.62812 4.5 3.375 4.24688 3.375 3.9375C3.375 3.62812 3.62812 3.375 3.9375 3.375H15.1875C16.7414 3.375 18 4.63359 18 6.1875V14.0625C18 15.6164 16.7414 16.875 15.1875 16.875H2.8125C1.2593 16.875 0 15.6164 0 14.0625V3.9375C0 2.3843 1.2593 1.125 2.8125 1.125H16.3125ZM12.6562 10.125C12.6562 9.65742 13.0324 9.28125 13.5 9.28125C13.9676 9.28125 14.3438 9.65742 14.3438 10.125C14.3438 10.5926 13.9676 10.9688 13.5 10.9688C13.0324 10.9688 12.6562 10.5926 12.6562 10.125Z" fill="black"/>
</svg>
