<svg width="18" height="18" viewBox="0 0 18 18" fill="none" xmlns="http://www.w3.org/2000/svg">
<path d="M15.75 1C16.3477 1 16.875 1.52734 16.875 2.125C16.875 2.75781 16.3477 3.25 15.75 3.25H2.8125C2.49609 3.25 2.25 3.53125 2.25 3.8125C2.25 4.12891 2.49609 4.375 2.8125 4.375H15.75C16.9805 4.375 18 5.39453 18 6.625V14.5C18 15.7656 16.9805 16.75 15.75 16.75H2.25C0.984375 16.75 0 15.7656 0 14.5V3.25C0 2.01953 0.984375 1 2.25 1H15.75ZM14.625 11.6875C15.2227 11.6875 15.75 11.1953 15.75 10.5625C15.75 9.96484 15.2227 9.4375 14.625 9.4375C13.9922 9.4375 13.5 9.96484 13.5 10.5625C13.5 11.1953 13.9922 11.6875 14.625 11.6875Z" fill="black"/>
</svg>
