<svg width="18" height="18" viewBox="0 0 18 18" fill="none" xmlns="http://www.w3.org/2000/svg">
<path d="M11.1934 1.52445C13.0553 3.46507 14.2 6.09757 14.2 9.00007C14.2 11.9026 13.0553 14.5351 11.1934 16.4757C10.8503 16.8357 10.8616 17.4038 11.2188 17.7469C11.5759 18.0901 12.1469 18.0788 12.49 17.7216C14.6641 15.4604 16 12.3863 16 9.00007C16 5.61382 14.6641 2.53976 12.4928 0.275697C12.1469 -0.081491 11.5788 -0.092741 11.2188 0.250384C10.8588 0.593509 10.8475 1.16445 11.1934 1.52163V1.52445ZM9.7 9.00007C9.7 10.5976 9.10656 12.0544 8.125 13.1682C7.79594 13.5423 7.8325 14.1104 8.20375 14.4394C8.575 14.7685 9.14594 14.7319 9.475 14.3607C10.735 12.9319 11.5 11.0532 11.5 9.00007C11.5 6.94695 10.735 5.0682 9.475 3.64226C9.14594 3.2682 8.57781 3.23445 8.20375 3.56351C7.82969 3.89257 7.79594 4.4607 8.125 4.83476C9.10656 5.9457 9.7 7.40257 9.7 9.00288V9.00007ZM5.2 10.8001C5.67739 10.8001 6.13523 10.6104 6.47279 10.2729C6.81036 9.9353 7 9.47746 7 9.00007C7 8.52268 6.81036 8.06485 6.47279 7.72728C6.13523 7.38971 5.67739 7.20007 5.2 7.20007C4.72261 7.20007 4.26477 7.38971 3.92721 7.72728C3.58964 8.06485 3.4 8.52268 3.4 9.00007C3.4 9.47746 3.58964 9.9353 3.92721 10.2729C4.26477 10.6104 4.72261 10.8001 5.2 10.8001Z" fill="black"/>
</svg>
