<svg width="18" height="18" viewBox="0 0 18 18" fill="none" xmlns="http://www.w3.org/2000/svg">
<path d="M11.7138 0.768869C13.8063 2.88106 15.1 5.78918 15.1 9.00106C15.1 12.2129 13.8063 15.1211 11.7138 17.2332C11.5394 17.4104 11.5394 17.6945 11.7166 17.8689C11.8938 18.0432 12.1778 18.0432 12.3522 17.8661C14.6078 15.5907 16 12.4576 16 9.00106C16 5.54449 14.6078 2.41137 12.3522 0.133244C12.1778 -0.0439432 11.8938 -0.0439432 11.7166 0.130432C11.5394 0.304807 11.5394 0.588869 11.7138 0.766057V0.768869ZM10.6 9.00106C10.6 10.9839 9.79844 12.7811 8.49906 14.0832C8.32469 14.2604 8.32469 14.5445 8.49906 14.7189C8.67344 14.8932 8.96031 14.8932 9.13469 14.7189C10.5944 13.2536 11.4972 11.2342 11.4972 9.00106C11.4972 6.76793 10.5944 4.74856 9.13469 3.28324C8.96031 3.10606 8.67344 3.10606 8.49906 3.28324C8.32469 3.46043 8.32187 3.74449 8.49906 3.91887C9.79844 5.22106 10.6 7.01824 10.6 9.00106ZM6.1 9.00106C6.1 9.23975 6.00518 9.46867 5.8364 9.63745C5.66761 9.80624 5.43869 9.90106 5.2 9.90106C4.96131 9.90106 4.73239 9.80624 4.5636 9.63745C4.39482 9.46867 4.3 9.23975 4.3 9.00106C4.3 8.76236 4.39482 8.53344 4.5636 8.36466C4.73239 8.19588 4.96131 8.10106 5.2 8.10106C5.43869 8.10106 5.66761 8.19588 5.8364 8.36466C6.00518 8.53344 6.1 8.76236 6.1 9.00106ZM3.4 9.00106C3.4 9.47845 3.58964 9.93628 3.92721 10.2738C4.26477 10.6114 4.72261 10.8011 5.2 10.8011C5.67739 10.8011 6.13523 10.6114 6.47279 10.2738C6.81036 9.93628 7 9.47845 7 9.00106C7 8.52367 6.81036 8.06583 6.47279 7.72826C6.13523 7.3907 5.67739 7.20106 5.2 7.20106C4.72261 7.20106 4.26477 7.3907 3.92721 7.72826C3.58964 8.06583 3.4 8.52367 3.4 9.00106Z" fill="black"/>
</svg>
