<svg width="18" height="18" viewBox="0 0 18 18" fill="none" xmlns="http://www.w3.org/2000/svg">
<g clip-path="url(#clip0_5902_219)">
<path d="M3.70045 8.94375C3.70045 9.9442 3.9817 10.9205 4.51205 11.7603L4.63661 11.9612L4.10223 13.9138L6.10714 13.3875L6.3 13.504C7.11161 13.9862 8.04375 14.2433 8.99598 14.2433H9C11.917 14.2433 14.3558 11.8687 14.3558 8.94777C14.3558 7.53348 13.7451 6.20357 12.7446 5.20312C11.7402 4.19866 10.4143 3.64821 9 3.64821C6.07902 3.64821 3.70446 6.02277 3.70045 8.94375ZM11.0411 11.9732C10.5348 12.0496 10.1411 12.0094 9.13259 11.5754C7.65402 10.9366 6.64955 9.50625 6.44464 9.21696C6.42857 9.19286 6.41652 9.1808 6.4125 9.17277C6.33214 9.0683 5.76161 8.30893 5.76161 7.52545C5.76161 6.78616 6.12321 6.40446 6.29196 6.22768C6.30402 6.21562 6.31205 6.20759 6.32009 6.19554C6.46473 6.03482 6.6375 5.99464 6.74598 5.99464C6.85045 5.99464 6.95893 5.99464 7.05134 5.99866C7.06339 5.99866 7.07143 5.99866 7.08348 5.99866C7.17589 5.99866 7.29241 5.99866 7.40893 6.27188C7.45714 6.38839 7.52946 6.56518 7.6058 6.74598C7.73839 7.06741 7.875 7.40089 7.89911 7.45312C7.93929 7.53348 7.96741 7.62589 7.91116 7.73036C7.77455 8.00357 7.63393 8.14821 7.5375 8.25268C7.41295 8.38125 7.3567 8.44152 7.44509 8.59821C8.05982 9.65491 8.67455 10.0205 9.61071 10.4906C9.77143 10.571 9.86384 10.5589 9.95625 10.4504C10.0487 10.346 10.354 9.98438 10.4585 9.82768C10.5629 9.66696 10.6714 9.69509 10.8161 9.74732C10.9607 9.79955 11.7442 10.1853 11.9049 10.2656C11.9371 10.2817 11.9652 10.2937 11.9893 10.3058C12.1018 10.3621 12.1781 10.3982 12.2103 10.4504C12.2464 10.5268 12.2464 10.8482 12.1138 11.2179C11.9812 11.5915 11.3464 11.929 11.0411 11.9732ZM18 2.57143C18 1.15313 16.8469 0 15.4286 0H2.57143C1.15313 0 0 1.15313 0 2.57143V15.4286C0 16.8469 1.15313 18 2.57143 18H15.4286C16.8469 18 18 16.8469 18 15.4286V2.57143ZM5.95045 14.5406L2.57143 15.4286L3.47545 12.1259C2.91696 11.1616 2.62366 10.0647 2.62366 8.93973C2.62768 5.42812 5.48437 2.57143 8.99598 2.57143C10.6996 2.57143 12.2987 3.23438 13.504 4.43973C14.7054 5.64509 15.4286 7.2442 15.4286 8.94777C15.4286 12.4594 12.5076 15.3161 8.99598 15.3161C7.92723 15.3161 6.87857 15.0469 5.95045 14.5406Z" fill="black"/>
</g>
<defs>
<clipPath id="clip0_5902_219">
<rect width="18" height="18" fill="white"/>
</clipPath>
</defs>
</svg>
