<svg width="18" height="18" viewBox="0 0 18 18" fill="none" xmlns="http://www.w3.org/2000/svg">
<g clip-path="url(#clip0_5906_878)">
<path d="M0.767893 7.28625C2.88008 5.19375 5.78821 3.9 9.00008 3.9C12.212 3.9 15.1201 5.19375 17.2323 7.28625C17.4095 7.46062 17.6935 7.46063 17.8679 7.28344C18.0423 7.10625 18.0423 6.82219 17.8651 6.64781C15.5898 4.39219 12.4566 3 9.00008 3C5.54352 3 2.41039 4.39219 0.132268 6.64781C-0.0449198 6.82219 -0.0449198 7.10625 0.129455 7.28344C0.30383 7.46063 0.587893 7.46062 0.76508 7.28625H0.767893ZM9.00008 8.4C10.9829 8.4 12.7801 9.20156 14.0823 10.5009C14.2595 10.6753 14.5435 10.6753 14.7179 10.5009C14.8923 10.3266 14.8923 10.0397 14.7179 9.86531C13.2526 8.40562 11.2332 7.50281 9.00008 7.50281C6.76696 7.50281 4.74758 8.40562 3.28227 9.86531C3.10508 10.0397 3.10508 10.3266 3.28227 10.5009C3.45946 10.6753 3.74352 10.6781 3.91789 10.5009C5.22008 9.20156 7.01727 8.4 9.00008 8.4ZM9.00008 12.9C9.23878 12.9 9.46769 12.9948 9.63648 13.1636C9.80526 13.3324 9.90008 13.5613 9.90008 13.8C9.90008 14.0387 9.80526 14.2676 9.63648 14.4364C9.46769 14.6052 9.23878 14.7 9.00008 14.7C8.76139 14.7 8.53247 14.6052 8.36368 14.4364C8.1949 14.2676 8.10008 14.0387 8.10008 13.8C8.10008 13.5613 8.1949 13.3324 8.36368 13.1636C8.53247 12.9948 8.76139 12.9 9.00008 12.9ZM9.00008 15.6C9.47747 15.6 9.93531 15.4104 10.2729 15.0728C10.6104 14.7352 10.8001 14.2774 10.8001 13.8C10.8001 13.3226 10.6104 12.8648 10.2729 12.5272C9.93531 12.1896 9.47747 12 9.00008 12C8.52269 12 8.06485 12.1896 7.72729 12.5272C7.38972 12.8648 7.20008 13.3226 7.20008 13.8C7.20008 14.2774 7.38972 14.7352 7.72729 15.0728C8.06485 15.4104 8.52269 15.6 9.00008 15.6Z" fill="black"/>
</g>
<defs>
<clipPath id="clip0_5906_878">
<rect width="18" height="18" fill="white"/>
</clipPath>
</defs>
</svg>
