<svg width="18" height="18" viewBox="0 0 18 18" fill="none" xmlns="http://www.w3.org/2000/svg">
<path d="M1.5242 7.80656C3.46483 5.94469 6.09733 4.8 8.99983 4.8C11.9023 4.8 14.5348 5.94469 16.4755 7.80656C16.8355 8.14969 17.4036 8.13844 17.7467 7.78125C18.0898 7.42406 18.0786 6.85313 17.7214 6.51C15.4601 4.33594 12.3861 3 8.99983 3C5.61358 3 2.53951 4.33594 0.275452 6.50719C-0.0817351 6.85312 -0.0929851 7.42125 0.25014 7.78125C0.593265 8.14125 1.1642 8.1525 1.52139 7.80656H1.5242ZM8.99983 9.3C10.5973 9.3 12.0542 9.89344 13.168 10.875C13.542 11.2041 14.1101 11.1675 14.4392 10.7963C14.7683 10.425 14.7317 9.85406 14.3605 9.525C12.9317 8.265 11.053 7.5 8.99983 7.5C6.9467 7.5 5.06795 8.265 3.64201 9.525C3.26795 9.85406 3.2342 10.4222 3.56326 10.7963C3.89233 11.1703 4.46045 11.2041 4.83451 10.875C5.94545 9.89344 7.40233 9.3 9.00264 9.3H8.99983ZM10.7998 13.8C10.7998 13.3226 10.6102 12.8648 10.2726 12.5272C9.93505 12.1896 9.47722 12 8.99983 12C8.52244 12 8.0646 12.1896 7.72704 12.5272C7.38947 12.8648 7.19983 13.3226 7.19983 13.8C7.19983 14.2774 7.38947 14.7352 7.72704 15.0728C8.0646 15.4104 8.52244 15.6 8.99983 15.6C9.47722 15.6 9.93505 15.4104 10.2726 15.0728C10.6102 14.7352 10.7998 14.2774 10.7998 13.8Z" fill="black"/>
</svg>
