<svg width="18" height="18" viewBox="0 0 18 18" fill="none" xmlns="http://www.w3.org/2000/svg">
<path d="M14.0847 14.4597C13.8649 14.6796 13.5092 14.6796 13.2891 14.4597L8.62496 9.79449L3.95973 14.4597C3.7399 14.6796 3.38422 14.6796 3.16414 14.4597C2.94431 14.2399 2.94431 13.8842 3.16414 13.6641L7.83043 8.99996L3.16484 4.33473C2.94501 4.1149 2.94501 3.75922 3.16484 3.53914C3.38468 3.31931 3.74035 3.31931 3.96043 3.53914L8.62496 8.20543L13.2902 3.5402C13.51 3.32036 13.8657 3.32036 14.0858 3.5402C14.3056 3.76003 14.3056 4.1157 14.0858 4.33578L9.41949 8.99996L14.0847 13.6652C14.3062 13.8832 14.3062 14.2418 14.0847 14.4597Z" fill="black"/>
</svg>
