<svg width="18" height="18" viewBox="0 0 18 18" fill="none" xmlns="http://www.w3.org/2000/svg">
<path d="M13.9195 5.29448C14.3589 4.85503 14.3589 4.14136 13.9195 3.7019C13.48 3.26245 12.7664 3.26245 12.3269 3.7019L8.62495 7.40737L4.91948 3.70542C4.48003 3.26597 3.76636 3.26597 3.3269 3.70542C2.88745 4.14487 2.88745 4.85854 3.3269 5.298L7.03237 8.99995L3.33042 12.7054C2.89097 13.1449 2.89097 13.8585 3.33042 14.298C3.76987 14.7375 4.48354 14.7375 4.923 14.298L8.62495 10.5925L12.3304 14.2945C12.7699 14.7339 13.4835 14.7339 13.923 14.2945C14.3625 13.855 14.3625 13.1414 13.923 12.7019L10.2175 8.99995L13.9195 5.29448Z" fill="black"/>
</svg>
