<svg width="500" height="500" viewBox="0 0 500 500" fill="none" xmlns="http://www.w3.org/2000/svg">
<path d="M417.986 476.725C411.435 476.725 405.745 475.388 400.917 472.716C396.09 470.044 392.34 466.251 389.668 461.337C386.995 456.337 385.659 450.475 385.659 443.751C385.659 438.665 386.392 434.139 387.857 430.174C389.409 426.122 391.607 422.674 394.452 419.829C397.297 416.898 400.702 414.7 404.667 413.235C408.633 411.683 413.072 410.907 417.986 410.907C424.538 410.907 430.227 412.243 435.055 414.916C439.882 417.588 443.632 421.381 446.304 426.295C448.977 431.208 450.313 437.027 450.313 443.751C450.313 448.837 449.537 453.406 447.985 457.458C446.52 461.509 444.365 465.001 441.52 467.932C438.675 470.776 435.27 472.975 431.305 474.526C427.339 475.992 422.9 476.725 417.986 476.725ZM417.986 464.44C421.176 464.44 423.977 463.665 426.391 462.113C428.805 460.561 430.658 458.277 431.951 455.26C433.331 452.156 434.02 448.32 434.02 443.751C434.02 436.855 432.555 431.726 429.624 428.364C426.693 424.915 422.814 423.191 417.986 423.191C414.797 423.191 411.995 423.967 409.581 425.519C407.167 426.984 405.271 429.269 403.892 432.372C402.598 435.389 401.952 439.182 401.952 443.751C401.952 450.561 403.417 455.734 406.348 459.268C409.279 462.716 413.159 464.44 417.986 464.44Z" fill="white"/>
<path d="M347.801 476.466C345.128 476.466 343.059 475.776 341.594 474.397C340.215 472.932 339.525 470.863 339.525 468.19V419.312C339.525 416.64 340.215 414.614 341.594 413.235C342.973 411.855 344.913 411.166 347.413 411.166C349.913 411.166 351.852 411.855 353.231 413.235C354.611 414.614 355.3 416.64 355.3 419.312V427.458H354.007C355.214 422.286 357.585 418.364 361.119 415.691C364.654 413.019 369.352 411.424 375.214 410.907C377.024 410.735 378.446 411.209 379.481 412.329C380.602 413.364 381.248 415.002 381.421 417.243C381.593 419.398 381.076 421.166 379.869 422.545C378.748 423.838 377.024 424.614 374.697 424.872L371.852 425.131C366.593 425.648 362.628 427.286 359.955 430.045C357.283 432.717 355.947 436.51 355.947 441.424V468.19C355.947 470.863 355.257 472.932 353.878 474.397C352.499 475.776 350.473 476.466 347.801 476.466Z" fill="white"/>
<path d="M287.53 476.725C282.271 476.725 277.918 475.776 274.47 473.88C271.021 471.897 268.435 468.966 266.711 465.087C265.073 461.208 264.254 456.38 264.254 450.605V419.312C264.254 416.554 264.944 414.528 266.323 413.235C267.703 411.855 269.685 411.166 272.271 411.166C274.858 411.166 276.84 411.855 278.22 413.235C279.685 414.528 280.418 416.554 280.418 419.312V450.863C280.418 455.346 281.323 458.665 283.133 460.82C284.944 462.975 287.831 464.053 291.797 464.053C296.107 464.053 299.642 462.587 302.4 459.656C305.159 456.639 306.538 452.673 306.538 447.76V419.312C306.538 416.554 307.228 414.528 308.607 413.235C309.986 411.855 311.969 411.166 314.555 411.166C317.141 411.166 319.124 411.855 320.503 413.235C321.969 414.528 322.701 416.554 322.701 419.312V468.19C322.701 473.708 320.072 476.466 314.814 476.466C312.314 476.466 310.374 475.776 308.995 474.397C307.616 472.932 306.926 470.863 306.926 468.19V458.363L308.736 462.242C306.926 466.897 304.167 470.475 300.461 472.975C296.84 475.475 292.53 476.725 287.53 476.725Z" fill="white"/>
<path d="M216.084 500C211.429 500 206.903 499.569 202.507 498.707C198.197 497.845 194.274 496.509 190.74 494.698C189.102 493.836 187.981 492.802 187.378 491.595C186.861 490.388 186.688 489.138 186.861 487.845C187.119 486.638 187.637 485.561 188.412 484.612C189.274 483.664 190.309 483.018 191.516 482.673C192.723 482.328 193.973 482.5 195.266 483.19C199.059 485.087 202.636 486.293 205.998 486.811C209.447 487.414 212.377 487.716 214.791 487.716C220.567 487.716 224.877 486.293 227.722 483.449C230.653 480.69 232.118 476.552 232.118 471.035V459.397H233.282C231.989 463.794 229.274 467.328 225.136 470.001C221.084 472.587 216.472 473.88 211.3 473.88C205.61 473.88 200.654 472.587 196.43 470.001C192.205 467.328 188.93 463.621 186.602 458.88C184.275 454.139 183.111 448.622 183.111 442.329C183.111 437.588 183.757 433.32 185.05 429.527C186.43 425.648 188.326 422.329 190.74 419.571C193.24 416.812 196.214 414.7 199.662 413.235C203.197 411.683 207.076 410.907 211.3 410.907C216.645 410.907 221.3 412.243 225.265 414.916C229.317 417.502 231.946 420.95 233.153 425.26L231.86 428.493V419.312C231.86 416.64 232.549 414.614 233.929 413.235C235.394 411.855 237.377 411.166 239.877 411.166C242.463 411.166 244.446 411.855 245.825 413.235C247.204 414.614 247.894 416.64 247.894 419.312V469.095C247.894 479.354 245.179 487.069 239.748 492.242C234.317 497.414 226.429 500 216.084 500ZM215.696 461.596C219.058 461.596 221.946 460.82 224.36 459.268C226.774 457.716 228.627 455.518 229.92 452.673C231.299 449.742 231.989 446.294 231.989 442.329C231.989 436.381 230.524 431.726 227.593 428.364C224.662 424.915 220.696 423.191 215.696 423.191C212.334 423.191 209.446 423.967 207.033 425.519C204.619 427.07 202.722 429.269 201.343 432.113C200.05 434.958 199.404 438.363 199.404 442.329C199.404 448.277 200.869 452.975 203.8 456.423C206.731 459.872 210.696 461.596 215.696 461.596Z" fill="white"/>
<path d="M147.682 476.725C140.527 476.725 134.364 475.388 129.191 472.716C124.019 470.044 120.01 466.251 117.166 461.337C114.407 456.423 113.028 450.604 113.028 443.88C113.028 437.329 114.364 431.596 117.036 426.683C119.795 421.769 123.545 417.933 128.286 415.174C133.114 412.329 138.588 410.907 144.708 410.907C149.191 410.907 153.199 411.64 156.734 413.105C160.354 414.571 163.415 416.683 165.915 419.441C168.501 422.2 170.44 425.562 171.734 429.527C173.113 433.407 173.802 437.803 173.802 442.717C173.802 444.268 173.242 445.475 172.121 446.337C171.087 447.113 169.578 447.501 167.596 447.501H126.088V438.191H162.423L160.354 440.131C160.354 436.165 159.751 432.846 158.544 430.174C157.423 427.502 155.742 425.476 153.501 424.096C151.346 422.631 148.631 421.898 145.355 421.898C141.734 421.898 138.631 422.76 136.045 424.484C133.545 426.122 131.605 428.493 130.226 431.596C128.933 434.613 128.286 438.234 128.286 442.458V443.363C128.286 450.432 129.924 455.734 133.2 459.268C136.562 462.716 141.476 464.44 147.941 464.44C150.182 464.44 152.682 464.182 155.441 463.665C158.286 463.061 160.958 462.07 163.458 460.69C165.268 459.656 166.863 459.225 168.242 459.397C169.621 459.484 170.699 459.958 171.475 460.82C172.337 461.682 172.854 462.759 173.027 464.052C173.199 465.259 172.94 466.509 172.251 467.802C171.647 469.095 170.57 470.216 169.018 471.164C166.001 473.061 162.51 474.483 158.544 475.432C154.665 476.294 151.044 476.725 147.682 476.725Z" fill="white"/>
<path d="M76.5265 476.725C72.8197 476.725 68.8974 476.337 64.7595 475.561C60.6217 474.785 56.9149 473.449 53.6391 471.552C52.2598 470.69 51.2684 469.699 50.665 468.578C50.1478 467.371 49.9323 466.208 50.0185 465.087C50.1909 463.88 50.6219 462.846 51.3115 461.984C52.0874 461.122 53.0357 460.561 54.1563 460.303C55.3632 460.044 56.6563 460.259 58.0355 460.949C61.4837 462.587 64.7164 463.751 67.7336 464.44C70.7508 465.044 73.7249 465.346 76.6558 465.346C80.7937 465.346 83.854 464.656 85.8367 463.277C87.9056 461.811 88.9401 459.915 88.9401 457.587C88.9401 455.604 88.2504 454.096 86.8711 453.061C85.5781 451.941 83.5954 451.122 80.923 450.604L67.9922 448.148C62.6475 447.113 58.5528 445.174 55.708 442.329C52.9494 439.398 51.5702 435.648 51.5702 431.079C51.5702 426.941 52.6908 423.364 54.9322 420.347C57.2597 417.329 60.4493 415.002 64.5009 413.364C68.5526 411.726 73.2076 410.907 78.4662 410.907C82.2592 410.907 85.7936 411.338 89.0694 412.2C92.4314 412.976 95.6641 414.226 98.7675 415.95C100.061 416.64 100.923 417.545 101.354 418.666C101.871 419.786 102 420.95 101.742 422.157C101.483 423.277 100.966 424.312 100.19 425.26C99.414 426.122 98.4226 426.683 97.2158 426.941C96.0951 427.114 94.802 426.855 93.3365 426.165C90.6642 424.786 88.078 423.795 85.5781 423.191C83.1643 422.588 80.8368 422.286 78.5955 422.286C74.3714 422.286 71.2249 423.019 69.156 424.484C67.1733 425.95 66.1819 427.889 66.1819 430.303C66.1819 432.114 66.7854 433.622 67.9922 434.829C69.1991 436.036 71.0525 436.855 73.5525 437.286L86.4832 439.743C92.0866 440.777 96.3106 442.674 99.1554 445.432C102.086 448.191 103.552 451.898 103.552 456.553C103.552 462.846 101.095 467.802 96.1813 471.423C91.2676 474.957 84.716 476.725 76.5265 476.725Z" fill="white"/>
<path d="M353.039 303.826C347.073 303.826 342.395 302.198 339.005 298.944C335.75 295.554 334.123 290.74 334.123 284.503V177.921C334.123 171.683 335.75 166.937 339.005 163.683C342.395 160.293 347.276 158.598 353.649 158.598H421.382C426.263 158.598 429.925 159.818 432.365 162.259C434.806 164.7 436.027 168.225 436.027 172.836C436.027 177.582 434.806 181.243 432.365 183.819C429.925 186.26 426.263 187.481 421.382 187.481H371.549V216.363H416.907C421.653 216.363 425.246 217.584 427.687 220.025C430.264 222.466 431.552 225.991 431.552 230.602C431.552 235.348 430.264 238.941 427.687 241.382C425.246 243.823 421.653 245.043 416.907 245.043H371.549V284.503C371.549 297.385 365.379 303.826 353.039 303.826Z" fill="white"/>
<path d="M215.382 303.826C209.415 303.826 204.805 302.198 201.551 298.944C198.296 295.554 196.669 290.876 196.669 284.909V177.514C196.669 171.412 198.296 166.734 201.551 163.479C204.941 160.225 209.619 158.598 215.585 158.598H265.622C281.894 158.598 294.437 162.801 303.251 171.209C312.2 179.48 316.675 190.938 316.675 205.583C316.675 220.228 312.2 231.754 303.251 240.161C294.437 248.433 281.894 252.569 265.622 252.569H234.095V284.909C234.095 290.876 232.535 295.554 229.416 298.944C226.298 302.198 221.619 303.826 215.382 303.826ZM234.095 223.889H259.113C266.164 223.889 271.588 222.398 275.385 219.415C279.182 216.296 281.08 211.685 281.08 205.583C281.08 199.346 279.182 194.735 275.385 191.752C271.588 188.769 266.164 187.277 259.113 187.277H234.095V223.889Z" fill="white"/>
<path d="M129.044 304.232C113.179 304.232 99.5508 301.181 88.1604 295.079C76.77 288.977 68.0238 280.367 61.9218 269.248C55.9554 258.128 52.9722 245.111 52.9722 230.195C52.9722 219.075 54.6672 208.973 58.0572 199.888C61.5828 190.803 66.6 183.006 73.1088 176.497C79.7532 169.988 87.7536 165.039 97.11 161.649C106.602 158.123 117.247 156.36 129.044 156.36C135.281 156.36 141.722 157.106 148.367 158.598C155.147 159.954 161.113 162.056 166.266 164.903C170.063 166.937 172.707 169.514 174.199 172.632C175.69 175.751 176.165 178.938 175.622 182.192C175.216 185.447 174.063 188.362 172.165 190.938C170.266 193.515 167.825 195.278 164.842 196.227C161.859 197.04 158.605 196.566 155.079 194.803C151.011 192.905 146.943 191.481 142.875 190.532C138.943 189.447 134.807 188.904 130.468 188.904C122.06 188.904 115.009 190.532 109.314 193.786C103.754 196.905 99.5508 201.515 96.7032 207.617C93.8556 213.719 92.4318 221.245 92.4318 230.195C92.4318 239.144 93.8556 246.738 96.7032 252.975C99.5508 259.078 103.754 263.756 109.314 267.01C115.009 270.129 122.06 271.688 130.468 271.688C133.993 271.688 137.79 271.282 141.858 270.468C145.926 269.519 149.926 268.095 153.859 266.197C157.927 264.434 161.52 263.959 164.639 264.773C167.893 265.586 170.47 267.214 172.368 269.654C174.402 272.095 175.69 274.943 176.233 278.197C176.775 281.316 176.3 284.435 174.809 287.554C173.453 290.672 171.012 293.181 167.486 295.079C162.74 297.927 156.842 300.164 149.791 301.792C142.875 303.419 135.959 304.232 129.044 304.232Z" fill="white"/>
<path d="M371.567 287.088C371.567 340.962 325.97 370.939 287.715 370.939H187.094C165.724 370.939 131.228 355.322 116.375 331.809H249.517C340.821 331.809 334.125 318.299 334.125 247.957V195.783H371.567V287.088Z" fill="white"/>
<path d="M238.848 0C293.626 0.000188416 338.033 44.4072 338.033 99.1856V134.139H298.717V100.526C298.717 67.7086 272.112 41.1034 239.295 41.1034C206.477 41.1038 179.874 67.7088 179.874 100.526V134.139H139.663V99.1856C139.663 44.4071 184.07 0 238.848 0Z" fill="white"/>
</svg>
