<svg width="500" height="500" viewBox="0 0 500 500" fill="none" xmlns="http://www.w3.org/2000/svg">
<path d="M480.885 208.049C487.257 208.049 492.036 209.641 495.222 212.827C498.408 216.013 500 220.616 500 226.634C500 232.828 498.407 237.607 495.222 240.97C492.036 244.156 487.257 245.749 480.885 245.749H415.839V256.589H415.854V283.449H475.044C481.239 283.449 485.929 285.043 489.115 288.229C492.478 291.414 494.159 296.016 494.159 302.034C494.159 308.229 492.478 312.92 489.115 316.105C485.929 319.291 481.239 320.885 475.044 320.885H415.854V375.768C415.854 446.088 356.337 485.218 306.404 485.218H175.064C147.17 485.218 102.144 464.833 82.7559 434.142H256.544C353.055 434.142 365.677 422.577 366.987 369.418V328.616C366.984 327.323 366.981 326.015 366.981 324.691V256.589H366.987V233.271C366.987 225.129 369.112 218.934 373.359 214.687C377.784 210.262 384.156 208.049 392.475 208.049H480.885ZM99.2949 205.127C107.437 205.127 115.844 206.101 124.517 208.048C133.366 209.818 141.154 212.561 147.88 216.278C152.836 218.933 156.287 222.296 158.234 226.367C160.181 230.438 160.801 234.598 160.093 238.846C159.562 243.093 158.058 246.899 155.58 250.262C153.102 253.625 149.915 255.926 146.021 257.165C142.128 258.227 137.88 257.607 133.278 255.307C127.968 252.829 122.658 250.969 117.349 249.73C112.216 248.314 106.817 247.606 101.153 247.606C90.1796 247.606 80.9758 249.731 73.542 253.979C66.2852 258.049 60.798 264.067 57.0811 272.032C53.3641 279.997 51.5059 289.821 51.5059 301.503C51.5059 313.185 53.3642 323.096 57.0811 331.238C60.798 339.203 66.2852 345.31 73.542 349.558C80.9758 353.629 90.1796 355.664 101.153 355.664C105.755 355.664 110.712 355.133 116.021 354.071C121.331 352.832 126.553 350.973 131.686 348.495C136.995 346.194 141.686 345.575 145.757 346.637C150.004 347.699 153.367 349.823 155.845 353.009C158.5 356.195 160.182 359.911 160.89 364.159C161.598 368.23 160.978 372.301 159.031 376.372C157.261 380.443 154.075 383.718 149.474 386.196C143.279 389.913 135.579 392.833 126.375 394.957C117.348 397.081 108.322 398.144 99.2949 398.144C78.5865 398.144 60.7983 394.161 45.9307 386.196C31.063 378.231 19.6465 366.991 11.6816 352.478C3.89396 337.964 4.99232e-05 320.972 0 301.503C0 286.989 2.21279 273.802 6.6377 261.943C11.2396 250.085 17.7884 239.907 26.2842 231.411C34.9569 222.915 45.3997 216.455 57.6123 212.03C70.002 207.428 83.8963 205.127 99.2949 205.127ZM277.571 208.049C298.811 208.049 315.183 213.536 326.688 224.51C338.369 235.307 344.21 250.262 344.21 269.378C344.21 288.494 338.369 303.539 326.688 314.513C315.183 325.309 298.811 330.708 277.571 330.708H236.42V372.922C236.42 380.71 234.384 386.816 230.313 391.241C226.243 395.489 220.136 397.613 211.994 397.613C204.206 397.613 198.188 395.489 193.94 391.241C189.693 386.816 187.568 380.71 187.568 372.922V232.74C187.568 224.775 189.693 218.669 193.94 214.421C198.365 210.173 204.472 208.049 212.26 208.049H277.571ZM236.42 293.273H269.075C278.279 293.273 285.36 291.326 290.315 287.432C295.271 283.361 297.749 277.343 297.749 269.378C297.749 261.236 295.271 255.218 290.315 251.324C285.36 247.43 278.279 245.483 269.075 245.483H236.42V293.273ZM242.619 14C314.12 14.0004 372.084 71.9644 372.084 143.466V176.122H320.766V145.216C320.766 102.379 286.039 67.6527 243.203 67.6523C200.367 67.6523 165.641 102.379 165.641 145.216V176.122H113.154V143.466C113.154 71.9641 171.118 14 242.619 14Z" fill="white"/>
</svg>
